<svg xmlns="http://www.w3.org/2000/svg" xmlns:xlink="http://www.w3.org/1999/xlink" width="390" height="844" viewBox="0 0 390 844" fill="none"><g  clip-path="url(#clip-path-bbDRf1B8WandnIjmBNWy2)"><rect x="0" y="0" width="390" height="54"   fill="#E8F4FD" ></rect><g ><path     fill="#333333"  d="M33.66 38.61C35.775 38.61 37.755 36.84 37.755 32.505C37.755 28.845 36.045 27.15 33.93 27.15C32.145 27.15 30.63 28.59 30.63 30.78C30.63 33.09 31.89 34.26 33.735 34.26C34.575 34.26 35.505 33.765 36.135 32.985C36.045 36.105 34.92 37.17 33.57 37.17C32.88 37.17 32.205 36.855 31.77 36.345L30.825 37.425C31.47 38.085 32.37 38.61 33.66 38.61ZM36.12 31.65C35.49 32.61 34.71 33 34.035 33C32.88 33 32.25 32.175 32.25 30.78C32.25 29.34 33 28.485 33.96 28.485C35.145 28.485 35.955 29.475 36.12 31.65ZM40.785 32.7C41.445 32.7 41.955 32.205 41.955 31.5C41.955 30.78 41.445 30.27 40.785 30.27C40.14 30.27 39.63 30.78 39.63 31.5C39.63 32.205 40.14 32.7 40.785 32.7ZM40.785 38.61C41.445 38.61 41.955 38.085 41.955 37.38C41.955 36.675 41.445 36.165 40.785 36.165C40.14 36.165 39.63 36.675 39.63 37.38C39.63 38.085 40.14 38.61 40.785 38.61ZM48.105 38.4L49.725 38.4L49.725 35.43L51.12 35.43L51.12 34.08L49.725 34.08L49.725 27.345L47.715 27.345L43.32 34.275L43.32 35.43L48.105 35.43L48.105 38.4ZM48.105 34.08L45.075 34.08L47.235 30.765C47.55 30.195 47.85 29.625 48.12 29.055L48.18 29.055C48.15 29.67 48.105 30.6 48.105 31.2L48.105 34.08ZM52.845 38.4L59.16 38.4L59.16 36.975L57.015 36.975L57.015 27.345L55.71 27.345C55.065 27.75 54.33 28.02 53.295 28.2L53.295 29.295L55.275 29.295L55.275 36.975L52.845 36.975L52.845 38.4Z"></path></g><g ><path     fill="#333333"  d="M341.5 40.2L353.5 40.2L353.5 25.2L341.5 25.2L341.5 40.2ZM347.5 32.085L342.73 25.95L352.27 25.95L347.5 32.085ZM347.98 32.7L352.75 26.565L352.75 38.835L347.98 32.7ZM342.73 39.45L347.5 33.315L352.27 39.45L342.73 39.45ZM342.25 26.565L347.02 32.7L342.25 38.835L342.25 26.565ZM356.5 40.2L368.5 40.2L368.5 25.2L356.5 25.2L356.5 40.2ZM362.5 32.085L357.73 25.95L367.27 25.95L362.5 32.085ZM362.98 32.7L367.75 26.565L367.75 38.835L362.98 32.7ZM357.73 39.45L362.5 33.315L367.27 39.45L357.73 39.45ZM357.25 26.565L362.02 32.7L357.25 38.835L357.25 26.565ZM371.5 40.2L383.5 40.2L383.5 25.2L371.5 25.2L371.5 40.2ZM377.5 32.085L372.73 25.95L382.27 25.95L377.5 32.085ZM377.98 32.7L382.75 26.565L382.75 38.835L377.98 32.7ZM372.73 39.45L377.5 33.315L382.27 39.45L372.73 39.45ZM372.25 26.565L377.02 32.7L372.25 38.835L372.25 26.565Z"></path></g><rect x="0" y="54" width="390" height="60"   fill="#E8F4FD" ></rect><g ></g><g ><path     fill="#2C5F8A"  d="M166.686 82.03L166.686 96.106L159.918 96.106L159.918 97.456L176.1 97.456L176.1 96.106L168.108 96.106L168.108 88.942L174.858 88.942L174.858 87.592L168.108 87.592L168.108 82.03L166.686 82.03ZM181.788 81.832C180.78 84.568 179.088 87.268 177.324 89.014C177.558 89.32 177.936 90.022 178.08 90.346C178.692 89.716 179.304 88.96 179.88 88.15L179.88 98.284L181.176 98.284L181.176 86.134C181.896 84.892 182.544 83.542 183.066 82.21L181.788 81.832ZM185.424 94.63C187.134 95.674 189.168 97.294 190.158 98.32L191.166 97.312C190.68 96.826 189.978 96.25 189.186 95.656C190.572 94.162 192.084 92.452 193.182 91.174L192.228 90.58L192.012 90.67L186.234 90.67L186.882 88.528L194.172 88.528L194.172 87.25L187.242 87.25L187.836 85.108L193.344 85.108L193.344 83.848L188.178 83.848L188.646 82.03L187.314 81.85L186.81 83.848L183.264 83.848L183.264 85.108L186.468 85.108L185.874 87.25L182.238 87.25L182.238 88.528L185.496 88.528C185.118 89.806 184.722 90.994 184.398 91.93L190.842 91.93C190.05 92.83 189.078 93.928 188.142 94.918C187.566 94.522 186.972 94.144 186.414 93.802L185.424 94.63ZM202.614 82.066C203.154 82.948 203.73 84.154 203.946 84.892L205.44 84.406C205.188 83.668 204.558 82.498 204.018 81.634L202.614 82.066ZM195.9 84.928L195.9 86.26L198.708 86.26C199.77 88.996 201.192 91.354 203.046 93.28C201.066 94.936 198.636 96.16 195.648 97.006C195.918 97.33 196.35 97.96 196.494 98.284C199.5 97.312 202.002 96.016 204.036 94.252C206.07 96.052 208.518 97.384 211.47 98.194C211.704 97.816 212.1 97.24 212.406 96.952C209.526 96.232 207.078 94.954 205.08 93.262C206.898 91.408 208.284 89.104 209.328 86.26L212.172 86.26L212.172 84.928L195.9 84.928ZM204.072 92.326C202.38 90.616 201.048 88.564 200.112 86.26L207.798 86.26C206.898 88.69 205.656 90.688 204.072 92.326ZM218.706 90.742L218.706 92.056L223.872 92.056L223.872 98.32L225.222 98.32L225.222 92.056L230.154 92.056L230.154 90.742L225.222 90.742L225.222 86.764L229.362 86.764L229.362 85.45L225.222 85.45L225.222 81.976L223.872 81.976L223.872 85.45L221.46 85.45C221.694 84.64 221.892 83.776 222.072 82.93L220.776 82.66C220.362 85.018 219.606 87.34 218.562 88.834C218.886 88.996 219.462 89.32 219.714 89.518C220.2 88.762 220.65 87.808 221.028 86.764L223.872 86.764L223.872 90.742L218.706 90.742ZM217.824 81.832C216.852 84.55 215.268 87.25 213.576 89.014C213.81 89.32 214.206 90.022 214.35 90.346C214.926 89.734 215.466 89.014 216.006 88.24L216.006 98.284L217.302 98.284L217.302 86.134C217.986 84.874 218.598 83.542 219.102 82.21L217.824 81.832Z"></path></g><g ><path     fill="#7BA8C9"  d="M45.967 141.16L45.967 143.149L41.001 143.149L41.001 144.111L45.967 144.111L45.967 146.126L41.599 146.126L41.599 147.075L42.99 147.075L42.704 147.179C43.406 148.583 44.381 149.74 45.603 150.65C44.095 151.404 42.327 151.885 40.468 152.184C40.663 152.405 40.91 152.86 41.001 153.12C42.99 152.756 44.875 152.171 46.513 151.261C48.008 152.145 49.802 152.73 51.921 153.042C52.064 152.782 52.324 152.353 52.545 152.119C50.595 151.872 48.892 151.378 47.488 150.65C48.97 149.636 50.166 148.271 50.907 146.49L50.231 146.087L50.049 146.126L46.981 146.126L46.981 144.111L51.973 144.111L51.973 143.149L46.981 143.149L46.981 141.16L45.967 141.16ZM43.718 147.075L49.477 147.075C48.801 148.349 47.8 149.35 46.552 150.117C45.33 149.324 44.368 148.31 43.718 147.075ZM58.824 149.428C59.383 150.13 60.007 151.118 60.254 151.742L61.06 151.235C60.787 150.611 60.137 149.675 59.578 148.999L58.824 149.428ZM61.138 141.225L61.138 142.85L58.369 142.85L58.369 143.734L61.138 143.734L61.138 145.385L57.706 145.385L57.706 146.282L62.854 146.282L62.854 147.738L57.849 147.738L57.849 148.635L62.854 148.635L62.854 151.937C62.854 152.106 62.802 152.171 62.607 152.171C62.412 152.184 61.723 152.197 60.995 152.158C61.125 152.431 61.255 152.834 61.294 153.107C62.256 153.107 62.893 153.094 63.27 152.951C63.673 152.795 63.79 152.522 63.79 151.937L63.79 148.635L65.402 148.635L65.402 147.738L63.79 147.738L63.79 146.282L65.48 146.282L65.48 145.385L62.074 145.385L62.074 143.734L64.856 143.734L64.856 142.85L62.074 142.85L62.074 141.225L61.138 141.225ZM55.223 141.173L55.223 143.786L53.546 143.786L53.546 144.696L55.223 144.696L55.223 147.517C54.521 147.738 53.871 147.92 53.364 148.063L53.611 149.025L55.223 148.505L55.223 151.937C55.223 152.132 55.158 152.184 55.002 152.184C54.846 152.184 54.339 152.184 53.78 152.171C53.897 152.444 54.027 152.847 54.053 153.081C54.872 153.094 55.379 153.055 55.691 152.899C56.016 152.743 56.133 152.483 56.133 151.95L56.133 148.206L57.55 147.738L57.42 146.841L56.133 147.244L56.133 144.696L57.511 144.696L57.511 143.786L56.133 143.786L56.133 141.173L55.223 141.173ZM73.475 143.409L76.322 143.409C75.932 144.228 75.399 144.982 74.775 145.632C74.151 144.995 73.67 144.319 73.319 143.656L73.475 143.409ZM68.626 141.16L68.626 143.942L66.676 143.942L66.676 144.865L68.509 144.865C68.106 146.659 67.235 148.7 66.364 149.805C66.533 150.026 66.78 150.403 66.871 150.663C67.521 149.805 68.145 148.388 68.626 146.919L68.626 153.107L69.549 153.107L69.549 146.555C69.952 147.127 70.407 147.829 70.615 148.193L71.2 147.452C70.966 147.114 69.9 145.827 69.549 145.437L69.549 144.865L71.031 144.865L70.719 145.125C70.94 145.281 71.317 145.619 71.486 145.788C71.928 145.398 72.37 144.93 72.773 144.41C73.124 145.021 73.579 145.645 74.138 146.23C73.033 147.179 71.733 147.881 70.433 148.297C70.628 148.492 70.875 148.856 70.992 149.09C71.33 148.96 71.668 148.83 72.006 148.674L72.006 153.133L72.916 153.133L72.916 152.561L76.543 152.561L76.543 153.081L77.492 153.081L77.492 148.57L78.09 148.804C78.233 148.557 78.506 148.18 78.701 147.985C77.414 147.595 76.322 146.984 75.438 146.243C76.348 145.294 77.089 144.15 77.557 142.811L76.946 142.525L76.764 142.564L73.956 142.564C74.164 142.187 74.346 141.797 74.502 141.394L73.566 141.147C73.059 142.473 72.214 143.747 71.239 144.67L71.239 143.942L69.549 143.942L69.549 141.16L68.626 141.16ZM72.916 151.703L72.916 149.194L76.543 149.194L76.543 151.703L72.916 151.703ZM72.643 148.349C73.41 147.946 74.125 147.452 74.788 146.867C75.425 147.426 76.166 147.933 77.011 148.349L72.643 148.349ZM88.217 141.797C88.893 142.265 89.699 142.967 90.089 143.435L90.765 142.824C90.375 142.369 89.543 141.706 88.88 141.251L88.217 141.797ZM86.345 141.212C86.345 142.018 86.371 142.811 86.41 143.591L79.715 143.591L79.715 144.54L86.475 144.54C86.813 149.376 87.905 153.146 90.037 153.146C91.038 153.146 91.402 152.483 91.571 150.208C91.298 150.104 90.934 149.883 90.713 149.662C90.622 151.404 90.479 152.132 90.115 152.132C88.828 152.132 87.814 148.947 87.489 144.54L91.311 144.54L91.311 143.591L87.437 143.591C87.398 142.824 87.385 142.031 87.385 141.212L86.345 141.212ZM79.767 151.768L80.079 152.73C81.743 152.366 84.135 151.82 86.345 151.3L86.267 150.416L83.485 151.014L83.485 147.426L85.916 147.426L85.916 146.477L80.17 146.477L80.17 147.426L82.51 147.426L82.51 151.209L79.767 151.768Z"></path></g><rect  x="40" y="162" width="60" height="28" rx="14"    fill="#E8F0F8" ></rect><g ><path     fill="#5B9BD5"  d="M59.212 182.92L60.208 182.92L60.208 178.048C60.208 177.292 60.136 176.224 60.064 175.456L60.112 175.456L60.82 177.46L62.488 182.032L63.232 182.032L64.888 177.46L65.596 175.456L65.644 175.456C65.584 176.224 65.5 177.292 65.5 178.048L65.5 182.92L66.532 182.92L66.532 174.124L65.2 174.124L63.52 178.828C63.316 179.428 63.136 180.052 62.908 180.664L62.86 180.664C62.644 180.052 62.452 179.428 62.224 178.828L60.544 174.124L59.212 174.124L59.212 182.92ZM68.956 182.92L70.06 182.92L70.06 179.416L71.512 179.416C73.444 179.416 74.752 178.564 74.752 176.704C74.752 174.784 73.432 174.124 71.464 174.124L68.956 174.124L68.956 182.92ZM70.06 178.516L70.06 175.024L71.32 175.024C72.868 175.024 73.648 175.42 73.648 176.704C73.648 177.964 72.916 178.516 71.368 178.516L70.06 178.516ZM78.496 183.076C80.068 183.076 81.328 182.14 81.328 180.568C81.328 179.356 80.5 178.588 79.468 178.336L79.468 178.276C80.404 177.952 81.028 177.232 81.028 176.164C81.028 174.772 79.948 173.968 78.46 173.968C77.452 173.968 76.672 174.412 76.012 175.012L76.6 175.708C77.104 175.204 77.716 174.856 78.424 174.856C79.348 174.856 79.912 175.408 79.912 176.248C79.912 177.196 79.3 177.928 77.476 177.928L77.476 178.768C79.516 178.768 80.212 179.464 80.212 180.532C80.212 181.54 79.48 182.164 78.424 182.164C77.428 182.164 76.768 181.684 76.252 181.156L75.688 181.864C76.264 182.5 77.128 183.076 78.496 183.076Z"></path></g><rect  x="108" y="162" width="60" height="28" rx="14"    fill="#E8F0F8" ></rect><g ><path     fill="#5B9BD5"  d="M127.806 182.92L129.126 182.92L130.434 177.616C130.578 176.92 130.746 176.284 130.878 175.612L130.926 175.612C131.07 176.284 131.202 176.92 131.358 177.616L132.69 182.92L134.034 182.92L135.846 174.124L134.79 174.124L133.842 178.912C133.686 179.86 133.518 180.808 133.362 181.768L133.29 181.768C133.074 180.808 132.882 179.848 132.666 178.912L131.442 174.124L130.422 174.124L129.21 178.912C128.994 179.86 128.778 180.808 128.586 181.768L128.538 181.768C128.358 180.808 128.19 179.86 128.01 178.912L127.086 174.124L125.946 174.124L127.806 182.92ZM136.218 182.92L137.334 182.92L138.186 180.232L141.402 180.232L142.242 182.92L143.418 182.92L140.43 174.124L139.194 174.124L136.218 182.92ZM138.462 179.356L138.894 178C139.206 177.004 139.494 176.056 139.77 175.024L139.818 175.024C140.106 176.044 140.382 177.004 140.706 178L141.126 179.356L138.462 179.356ZM146.286 182.92L147.57 182.92L150.366 174.124L149.238 174.124L147.822 178.888C147.522 179.92 147.306 180.76 146.97 181.792L146.922 181.792C146.598 180.76 146.37 179.92 146.07 178.888L144.642 174.124L143.478 174.124L146.286 182.92Z"></path></g><rect  x="176" y="162" width="64" height="28" rx="14"    fill="#E8F0F8" ></rect><g ><path     fill="#5B9BD5"  d="M197.362 182.92L198.358 182.92L198.358 178.048C198.358 177.292 198.286 176.224 198.214 175.456L198.262 175.456L198.97 177.46L200.638 182.032L201.382 182.032L203.038 177.46L203.746 175.456L203.794 175.456C203.734 176.224 203.65 177.292 203.65 178.048L203.65 182.92L204.682 182.92L204.682 174.124L203.35 174.124L201.67 178.828C201.466 179.428 201.286 180.052 201.058 180.664L201.01 180.664C200.794 180.052 200.602 179.428 200.374 178.828L198.694 174.124L197.362 174.124L197.362 182.92ZM209.974 182.92L211.006 182.92L211.006 180.496L212.182 180.496L212.182 179.62L211.006 179.62L211.006 174.124L209.794 174.124L206.134 179.776L206.134 180.496L209.974 180.496L209.974 182.92ZM209.974 179.62L207.274 179.62L209.278 176.62C209.53 176.188 209.77 175.744 209.986 175.324L210.034 175.324C210.01 175.768 209.974 176.488 209.974 176.92L209.974 179.62ZM212.602 182.92L213.718 182.92L214.57 180.232L217.786 180.232L218.626 182.92L219.802 182.92L216.814 174.124L215.578 174.124L212.602 182.92ZM214.846 179.356L215.278 178C215.59 177.004 215.878 176.056 216.154 175.024L216.202 175.024C216.49 176.044 216.766 177.004 217.09 178L217.51 179.356L214.846 179.356Z"></path></g><rect  x="248" y="162" width="60" height="28" rx="14"    fill="#E8F0F8" ></rect><g ><path     fill="#5B9BD5"  d="M266.924 182.92L268.04 182.92L268.892 180.232L272.108 180.232L272.948 182.92L274.124 182.92L271.136 174.124L269.9 174.124L266.924 182.92ZM269.168 179.356L269.6 178C269.912 177.004 270.2 176.056 270.476 175.024L270.524 175.024C270.812 176.044 271.088 177.004 271.412 178L271.832 179.356L269.168 179.356ZM274.22 182.92L275.336 182.92L276.188 180.232L279.404 180.232L280.244 182.92L281.42 182.92L278.432 174.124L277.196 174.124L274.22 182.92ZM276.464 179.356L276.896 178C277.208 177.004 277.496 176.056 277.772 175.024L277.82 175.024C278.108 176.044 278.384 177.004 278.708 178L279.128 179.356L276.464 179.356ZM285.992 183.076C287.132 183.076 287.996 182.62 288.692 181.816L288.08 181.108C287.516 181.732 286.88 182.104 286.04 182.104C284.36 182.104 283.304 180.712 283.304 178.492C283.304 176.296 284.42 174.94 286.076 174.94C286.832 174.94 287.408 175.276 287.876 175.768L288.476 175.048C287.972 174.484 287.132 173.968 286.064 173.968C283.832 173.968 282.164 175.684 282.164 178.528C282.164 181.384 283.796 183.076 285.992 183.076Z"></path></g><g ><path     fill="#7BA8C9"  d="M45.85 211.797L45.85 218.713L46.799 218.713L46.799 212.655L50.816 212.655L50.816 218.713L51.791 218.713L51.791 211.797L45.85 211.797ZM42.002 211.628C42.47 212.135 42.977 212.85 43.211 213.331L44.004 212.811C43.77 212.356 43.25 211.68 42.743 211.186L42.002 211.628ZM48.281 213.643L48.281 216.178C48.281 218.219 47.891 220.702 44.602 222.405C44.797 222.561 45.109 222.925 45.226 223.133C47.176 222.106 48.203 220.715 48.723 219.298L48.723 221.82C48.723 222.691 49.074 222.925 49.958 222.925L51.141 222.925C52.272 222.925 52.415 222.392 52.545 220.351C52.298 220.286 51.973 220.156 51.726 219.961C51.674 221.833 51.609 222.184 51.154 222.184L50.101 222.184C49.737 222.184 49.633 222.08 49.633 221.716L49.633 218.492L48.97 218.492C49.165 217.699 49.217 216.919 49.217 216.204L49.217 213.643L48.281 213.643ZM40.819 213.396L40.819 214.293L43.965 214.293C43.211 215.944 41.846 217.569 40.507 218.479C40.65 218.661 40.884 219.155 40.962 219.428C41.469 219.051 41.976 218.583 42.47 218.05L42.47 223.107L43.393 223.107L43.393 217.504C43.848 218.089 44.407 218.83 44.667 219.233L45.291 218.453C45.044 218.167 44.134 217.127 43.64 216.594C44.264 215.71 44.797 214.722 45.161 213.708L44.641 213.357L44.459 213.396L40.819 213.396ZM62.113 215.567C62.087 220.117 61.944 221.625 58.798 222.47C58.967 222.639 59.201 222.951 59.279 223.159C62.659 222.197 62.906 220.403 62.932 215.567L62.113 215.567ZM62.464 220.988C63.335 221.638 64.453 222.574 64.999 223.146L65.584 222.522C65.025 221.963 63.881 221.066 63.01 220.442L62.464 220.988ZM58.564 217.062C57.888 219.766 56.393 221.534 53.637 222.405C53.832 222.6 54.053 222.925 54.144 223.159C57.095 222.119 58.694 220.208 59.409 217.257L58.564 217.062ZM54.729 216.919C54.469 217.881 54.04 218.856 53.481 219.519C53.702 219.623 54.053 219.844 54.209 219.974C54.755 219.259 55.262 218.167 55.548 217.101L54.729 216.919ZM60.072 214.163L60.072 220.299L60.904 220.299L60.904 214.93L64.102 214.93L64.102 220.273L64.986 220.273L64.986 214.163L62.646 214.163L63.166 212.798L65.35 212.798L65.35 211.927L59.734 211.927L59.734 212.798L62.217 212.798C62.087 213.24 61.918 213.76 61.736 214.163L60.072 214.163ZM54.482 212.291L54.482 215.203L53.507 215.203L53.507 216.087L56.224 216.087L56.224 220.026L57.108 220.026L57.108 216.087L59.526 216.087L59.526 215.203L57.342 215.203L57.342 213.604L59.227 213.604L59.227 212.772L57.342 212.772L57.342 211.147L56.458 211.147L56.458 215.203L55.288 215.203L55.288 212.291L54.482 212.291ZM73.475 213.409L76.322 213.409C75.932 214.228 75.399 214.982 74.775 215.632C74.151 214.995 73.67 214.319 73.319 213.656L73.475 213.409ZM68.626 211.16L68.626 213.942L66.676 213.942L66.676 214.865L68.509 214.865C68.106 216.659 67.235 218.7 66.364 219.805C66.533 220.026 66.78 220.403 66.871 220.663C67.521 219.805 68.145 218.388 68.626 216.919L68.626 223.107L69.549 223.107L69.549 216.555C69.952 217.127 70.407 217.829 70.615 218.193L71.2 217.452C70.966 217.114 69.9 215.827 69.549 215.437L69.549 214.865L71.031 214.865L70.719 215.125C70.94 215.281 71.317 215.619 71.486 215.788C71.928 215.398 72.37 214.93 72.773 214.41C73.124 215.021 73.579 215.645 74.138 216.23C73.033 217.179 71.733 217.881 70.433 218.297C70.628 218.492 70.875 218.856 70.992 219.09C71.33 218.96 71.668 218.83 72.006 218.674L72.006 223.133L72.916 223.133L72.916 222.561L76.543 222.561L76.543 223.081L77.492 223.081L77.492 218.57L78.09 218.804C78.233 218.557 78.506 218.18 78.701 217.985C77.414 217.595 76.322 216.984 75.438 216.243C76.348 215.294 77.089 214.15 77.557 212.811L76.946 212.525L76.764 212.564L73.956 212.564C74.164 212.187 74.346 211.797 74.502 211.394L73.566 211.147C73.059 212.473 72.214 213.747 71.239 214.67L71.239 213.942L69.549 213.942L69.549 211.16L68.626 211.16ZM72.916 221.703L72.916 219.194L76.543 219.194L76.543 221.703L72.916 221.703ZM72.643 218.349C73.41 217.946 74.125 217.452 74.788 216.867C75.425 217.426 76.166 217.933 77.011 218.349L72.643 218.349ZM88.217 211.797C88.893 212.265 89.699 212.967 90.089 213.435L90.765 212.824C90.375 212.369 89.543 211.706 88.88 211.251L88.217 211.797ZM86.345 211.212C86.345 212.018 86.371 212.811 86.41 213.591L79.715 213.591L79.715 214.54L86.475 214.54C86.813 219.376 87.905 223.146 90.037 223.146C91.038 223.146 91.402 222.483 91.571 220.208C91.298 220.104 90.934 219.883 90.713 219.662C90.622 221.404 90.479 222.132 90.115 222.132C88.828 222.132 87.814 218.947 87.489 214.54L91.311 214.54L91.311 213.591L87.437 213.591C87.398 212.824 87.385 212.031 87.385 211.212L86.345 211.212ZM79.767 221.768L80.079 222.73C81.743 222.366 84.135 221.82 86.345 221.3L86.267 220.416L83.485 221.014L83.485 217.426L85.916 217.426L85.916 216.477L80.17 216.477L80.17 217.426L82.51 217.426L82.51 221.209L79.767 221.768Z"></path></g><rect  x="40" y="232" width="60" height="28" rx="14"    fill="#E8F0F8" ></rect><g ><path     fill="#5B9BD5"  d="M59.212 252.92L60.208 252.92L60.208 248.048C60.208 247.292 60.136 246.224 60.064 245.456L60.112 245.456L60.82 247.46L62.488 252.032L63.232 252.032L64.888 247.46L65.596 245.456L65.644 245.456C65.584 246.224 65.5 247.292 65.5 248.048L65.5 252.92L66.532 252.92L66.532 244.124L65.2 244.124L63.52 248.828C63.316 249.428 63.136 250.052 62.908 250.664L62.86 250.664C62.644 250.052 62.452 249.428 62.224 248.828L60.544 244.124L59.212 244.124L59.212 252.92ZM68.956 252.92L70.06 252.92L70.06 249.416L71.512 249.416C73.444 249.416 74.752 248.564 74.752 246.704C74.752 244.784 73.432 244.124 71.464 244.124L68.956 244.124L68.956 252.92ZM70.06 248.516L70.06 245.024L71.32 245.024C72.868 245.024 73.648 245.42 73.648 246.704C73.648 247.964 72.916 248.516 71.368 248.516L70.06 248.516ZM79.42 252.92L80.452 252.92L80.452 250.496L81.628 250.496L81.628 249.62L80.452 249.62L80.452 244.124L79.24 244.124L75.58 249.776L75.58 250.496L79.42 250.496L79.42 252.92ZM79.42 249.62L76.72 249.62L78.724 246.62C78.976 246.188 79.216 245.744 79.432 245.324L79.48 245.324C79.456 245.768 79.42 246.488 79.42 246.92L79.42 249.62Z"></path></g><rect  x="108" y="232" width="60" height="28" rx="14"    fill="#E8F0F8" ></rect><g ><path     fill="#5B9BD5"  d="M126.438 252.92L127.434 252.92L127.434 248.048C127.434 247.292 127.362 246.224 127.29 245.456L127.338 245.456L128.046 247.46L129.714 252.032L130.458 252.032L132.114 247.46L132.822 245.456L132.87 245.456C132.81 246.224 132.726 247.292 132.726 248.048L132.726 252.92L133.758 252.92L133.758 244.124L132.426 244.124L130.746 248.828C130.542 249.428 130.362 250.052 130.134 250.664L130.086 250.664C129.87 250.052 129.678 249.428 129.45 248.828L127.77 244.124L126.438 244.124L126.438 252.92ZM139.422 253.076C141.63 253.076 143.178 251.312 143.178 248.492C143.178 245.672 141.63 243.968 139.422 243.968C137.214 243.968 135.666 245.672 135.666 248.492C135.666 251.312 137.214 253.076 139.422 253.076ZM139.422 252.104C137.838 252.104 136.806 250.688 136.806 248.492C136.806 246.296 137.838 244.94 139.422 244.94C141.006 244.94 142.038 246.296 142.038 248.492C142.038 250.688 141.006 252.104 139.422 252.104ZM146.694 252.92L147.978 252.92L150.774 244.124L149.646 244.124L148.23 248.888C147.93 249.92 147.714 250.76 147.378 251.792L147.33 251.792C147.006 250.76 146.778 249.92 146.478 248.888L145.05 244.124L143.886 244.124L146.694 252.92Z"></path></g><rect  x="176" y="232" width="56" height="28" rx="14"    fill="#E8F0F8" ></rect><g ><path     fill="#5B9BD5"  d="M195.192 252.92L196.308 252.92L197.16 250.232L200.376 250.232L201.216 252.92L202.392 252.92L199.404 244.124L198.168 244.124L195.192 252.92ZM197.436 249.356L197.868 248C198.18 247.004 198.468 246.056 198.744 245.024L198.792 245.024C199.08 246.044 199.356 247.004 199.68 248L200.1 249.356L197.436 249.356ZM205.26 252.92L206.544 252.92L209.34 244.124L208.212 244.124L206.796 248.888C206.496 249.92 206.28 250.76 205.944 251.792L205.896 251.792C205.572 250.76 205.344 249.92 205.044 248.888L203.616 244.124L202.452 244.124L205.26 252.92ZM210.552 252.92L211.656 252.92L211.656 244.124L210.552 244.124L210.552 252.92Z"></path></g><rect  x="240" y="232" width="60" height="28" rx="14"    fill="#E8F0F8" ></rect><g ><path     fill="#5B9BD5"  d="M259.014 252.92L260.01 252.92L260.01 248.048C260.01 247.292 259.938 246.224 259.866 245.456L259.914 245.456L260.622 247.46L262.29 252.032L263.034 252.032L264.69 247.46L265.398 245.456L265.446 245.456C265.386 246.224 265.302 247.292 265.302 248.048L265.302 252.92L266.334 252.92L266.334 244.124L265.002 244.124L263.322 248.828C263.118 249.428 262.938 250.052 262.71 250.664L262.662 250.664C262.446 250.052 262.254 249.428 262.026 248.828L260.346 244.124L259.014 244.124L259.014 252.92ZM268.758 252.92L269.862 252.92L269.862 250.136L271.374 248.336L274.014 252.92L275.25 252.92L272.07 247.46L274.83 244.124L273.57 244.124L269.886 248.54L269.862 248.54L269.862 244.124L268.758 244.124L268.758 252.92ZM278.118 252.92L279.402 252.92L282.198 244.124L281.07 244.124L279.654 248.888C279.354 249.92 279.138 250.76 278.802 251.792L278.754 251.792C278.43 250.76 278.202 249.92 277.902 248.888L276.474 244.124L275.31 244.124L278.118 252.92Z"></path></g><g ><path     fill="#B0C4DE"  d="M42.652 291.676L45.508 291.676L45.508 292.972L42.652 292.972L42.652 291.676ZM46.432 291.676L49.42 291.676L49.42 292.972L46.432 292.972L46.432 291.676ZM42.652 289.684L45.508 289.684L45.508 290.956L42.652 290.956L42.652 289.684ZM46.432 289.684L49.42 289.684L49.42 290.956L46.432 290.956L46.432 289.684ZM48.508 286.888C48.232 287.5 47.74 288.34 47.308 288.916L44.392 288.916L44.884 288.676C44.644 288.172 44.08 287.428 43.588 286.888L42.832 287.248C43.264 287.752 43.732 288.436 43.996 288.916L41.776 288.916L41.776 293.74L45.508 293.74L45.508 294.88L40.648 294.88L40.648 295.72L45.508 295.72L45.508 297.868L46.432 297.868L46.432 295.72L51.388 295.72L51.388 294.88L46.432 294.88L46.432 293.74L50.332 293.74L50.332 288.916L48.316 288.916C48.7 288.412 49.12 287.788 49.48 287.212L48.508 286.888ZM57.076 287.044C57.436 287.632 57.82 288.436 57.964 288.928L58.96 288.604C58.792 288.112 58.372 287.332 58.012 286.756L57.076 287.044ZM52.6 288.952L52.6 289.84L54.472 289.84C55.18 291.664 56.128 293.236 57.364 294.52C56.044 295.624 54.424 296.44 52.432 297.004C52.612 297.22 52.9 297.64 52.996 297.856C55 297.208 56.668 296.344 58.024 295.168C59.38 296.368 61.012 297.256 62.98 297.796C63.136 297.544 63.4 297.16 63.604 296.968C61.684 296.488 60.052 295.636 58.72 294.508C59.932 293.272 60.856 291.736 61.552 289.84L63.448 289.84L63.448 288.952L52.6 288.952ZM58.048 293.884C56.92 292.744 56.032 291.376 55.408 289.84L60.532 289.84C59.932 291.46 59.104 292.792 58.048 293.884ZM67.804 292.828L67.804 293.704L71.248 293.704L71.248 297.88L72.148 297.88L72.148 293.704L75.436 293.704L75.436 292.828L72.148 292.828L72.148 290.176L74.908 290.176L74.908 289.3L72.148 289.3L72.148 286.984L71.248 286.984L71.248 289.3L69.64 289.3C69.796 288.76 69.928 288.184 70.048 287.62L69.184 287.44C68.908 289.012 68.404 290.56 67.708 291.556C67.924 291.664 68.308 291.88 68.476 292.012C68.8 291.508 69.1 290.872 69.352 290.176L71.248 290.176L71.248 292.828L67.804 292.828ZM67.216 286.888C66.568 288.7 65.512 290.5 64.384 291.676C64.54 291.88 64.804 292.348 64.9 292.564C65.284 292.156 65.644 291.676 66.004 291.16L66.004 297.856L66.868 297.856L66.868 289.756C67.324 288.916 67.732 288.028 68.068 287.14L67.216 286.888ZM78.976 289.3L85.036 289.3L85.036 290.152L78.976 290.152L78.976 289.3ZM78.976 287.86L85.036 287.86L85.036 288.7L78.976 288.7L78.976 287.86ZM78.112 287.224L78.112 290.788L85.936 290.788L85.936 287.224L78.112 287.224ZM80.752 292.216L80.752 293.02L78.568 293.02L78.568 292.216L80.752 292.216ZM76.564 296.404L76.648 297.208L80.752 296.716L80.752 297.88L81.616 297.88L81.616 296.608L82.264 296.524L82.264 295.792L81.616 295.864L81.616 292.216L87.388 292.216L87.388 291.46L76.588 291.46L76.588 292.216L77.74 292.216L77.74 296.296L76.564 296.404ZM82.084 292.96L82.084 293.704L82.804 293.704L82.564 293.776C82.924 294.652 83.416 295.432 84.052 296.08C83.392 296.572 82.648 296.944 81.892 297.184C82.048 297.34 82.264 297.652 82.348 297.844C83.152 297.556 83.944 297.148 84.64 296.608C85.312 297.16 86.116 297.58 87.028 297.844C87.148 297.628 87.376 297.304 87.568 297.136C86.692 296.92 85.912 296.548 85.252 296.068C86.044 295.3 86.668 294.34 87.04 293.152L86.524 292.924L86.356 292.96L82.084 292.96ZM83.356 293.704L85.984 293.704C85.672 294.412 85.204 295.036 84.652 295.564C84.1 295.036 83.668 294.412 83.356 293.704ZM80.752 293.692L80.752 294.544L78.568 294.544L78.568 293.692L80.752 293.692ZM80.752 295.216L80.752 295.96L78.568 296.212L78.568 295.216L80.752 295.216ZM93.532 286.852C93.52 287.8 93.532 289.012 93.352 290.284L88.744 290.284L88.744 291.208L93.196 291.208C92.716 293.488 91.516 295.816 88.516 297.112C88.768 297.304 89.056 297.628 89.2 297.856C92.128 296.512 93.424 294.208 94.012 291.892C94.948 294.628 96.496 296.752 98.824 297.856C98.98 297.592 99.268 297.22 99.496 297.016C97.168 296.044 95.596 293.86 94.756 291.208L99.304 291.208L99.304 290.284L94.312 290.284C94.48 289.024 94.492 287.824 94.504 286.852L93.532 286.852ZM105.508 286.84L105.508 288.676L100.924 288.676L100.924 289.564L105.508 289.564L105.508 291.424L101.476 291.424L101.476 292.3L102.76 292.3L102.496 292.396C103.144 293.692 104.044 294.76 105.172 295.6C103.78 296.296 102.148 296.74 100.432 297.016C100.612 297.22 100.84 297.64 100.924 297.88C102.76 297.544 104.5 297.004 106.012 296.164C107.392 296.98 109.048 297.52 111.004 297.808C111.136 297.568 111.376 297.172 111.58 296.956C109.78 296.728 108.208 296.272 106.912 295.6C108.28 294.664 109.384 293.404 110.068 291.76L109.444 291.388L109.276 291.424L106.444 291.424L106.444 289.564L111.052 289.564L111.052 288.676L106.444 288.676L106.444 286.84L105.508 286.84ZM103.432 292.3L108.748 292.3C108.124 293.476 107.2 294.4 106.048 295.108C104.92 294.376 104.032 293.44 103.432 292.3ZM117.376 294.472C117.892 295.12 118.468 296.032 118.696 296.608L119.44 296.14C119.188 295.564 118.588 294.7 118.072 294.076L117.376 294.472ZM119.512 286.9L119.512 288.4L116.956 288.4L116.956 289.216L119.512 289.216L119.512 290.74L116.344 290.74L116.344 291.568L121.096 291.568L121.096 292.912L116.476 292.912L116.476 293.74L121.096 293.74L121.096 296.788C121.096 296.944 121.048 297.004 120.868 297.004C120.688 297.016 120.052 297.028 119.38 296.992C119.5 297.244 119.62 297.616 119.656 297.868C120.544 297.868 121.132 297.856 121.48 297.724C121.852 297.58 121.96 297.328 121.96 296.788L121.96 293.74L123.448 293.74L123.448 292.912L121.96 292.912L121.96 291.568L123.52 291.568L123.52 290.74L120.376 290.74L120.376 289.216L122.944 289.216L122.944 288.4L120.376 288.4L120.376 286.9L119.512 286.9ZM114.052 286.852L114.052 289.264L112.504 289.264L112.504 290.104L114.052 290.104L114.052 292.708C113.404 292.912 112.804 293.08 112.336 293.212L112.564 294.1L114.052 293.62L114.052 296.788C114.052 296.968 113.992 297.016 113.848 297.016C113.704 297.016 113.236 297.016 112.72 297.004C112.828 297.256 112.948 297.628 112.972 297.844C113.728 297.856 114.196 297.82 114.484 297.676C114.784 297.532 114.892 297.292 114.892 296.8L114.892 293.344L116.2 292.912L116.08 292.084L114.892 292.456L114.892 290.104L116.164 290.104L116.164 289.264L114.892 289.264L114.892 286.852L114.052 286.852ZM128.027 296.92L132.851 296.92L132.851 296.008L131.087 296.008L131.087 288.124L130.247 288.124C129.767 288.4 129.203 288.604 128.423 288.748L128.423 289.444L129.995 289.444L129.995 296.008L128.027 296.008L128.027 296.92ZM138.299 297.076C139.475 297.076 140.447 296.644 141.011 296.056L141.011 292.36L138.119 292.36L138.119 293.284L139.991 293.284L139.991 295.588C139.643 295.912 139.031 296.104 138.407 296.104C136.523 296.104 135.467 294.712 135.467 292.492C135.467 290.296 136.619 288.94 138.395 288.94C139.271 288.94 139.847 289.312 140.291 289.768L140.891 289.048C140.387 288.52 139.583 287.968 138.359 287.968C136.031 287.968 134.327 289.684 134.327 292.528C134.327 295.384 135.983 297.076 138.299 297.076ZM143.111 296.92L145.907 296.92C147.875 296.92 149.243 296.068 149.243 294.34C149.243 293.14 148.499 292.444 147.455 292.24L147.455 292.18C148.283 291.916 148.739 291.148 148.739 290.272C148.739 288.724 147.491 288.124 145.715 288.124L143.111 288.124L143.111 296.92ZM144.215 291.856L144.215 289L145.571 289C146.951 289 147.647 289.384 147.647 290.416C147.647 291.316 147.035 291.856 145.523 291.856L144.215 291.856ZM144.215 296.032L144.215 292.72L145.751 292.72C147.299 292.72 148.151 293.212 148.151 294.304C148.151 295.492 147.263 296.032 145.751 296.032L144.215 296.032Z"></path></g><g opacity="0.85"><rect  x="40" y="320" width="310" height="200" rx="20"    fill="#FFFFFF" ></rect><path   fill="rgba(200, 220, 232, 1.00)"  d="M72 319.25L80 319.25L80 320.75L72 320.75L72 319.25ZM84 319.25L92 319.25L92 320.75L84 320.75L84 319.25ZM96 319.25L104 319.25L104 320.75L96 320.75L96 319.25ZM108 319.25L116 319.25L116 320.75L108 320.75L108 319.25ZM120 319.25L128 319.25L128 320.75L120 320.75L120 319.25ZM132 319.25L140 319.25L140 320.75L132 320.75L132 319.25ZM144 319.25L152 319.25L152 320.75L144 320.75L144 319.25ZM156 319.25L164 319.25L164 320.75L156 320.75L156 319.25ZM168 319.25L176 319.25L176 320.75L168 320.75L168 319.25ZM180 319.25L188 319.25L188 320.75L180 320.75L180 319.25ZM192 319.25L200 319.25L200 320.75L192 320.75L192 319.25ZM204 319.25L212 319.25L212 320.75L204 320.75L204 319.25ZM216 319.25L224 319.25L224 320.75L216 320.75L216 319.25ZM228 319.25L236 319.25L236 320.75L228 320.75L228 319.25ZM240 319.25L248 319.25L248 320.75L240 320.75L240 319.25ZM252 319.25L260 319.25L260 320.75L252 320.75L252 319.25ZM264 319.25L272 319.25L272 320.75L264 320.75L264 319.25ZM276 319.25L284 319.25L284 320.75L276 320.75L276 319.25ZM288 319.25L296 319.25L296 320.75L288 320.75L288 319.25ZM300 319.25L308 319.25L308 320.75L300 320.75L300 319.25ZM312 319.25L320 319.25L320 320.75L312 320.75L312 319.25ZM324 319.25L330 319.25Q331.053 319.25 332.094 319.354L331.945 320.847Q330.978 320.75 330 320.75L324 320.75L324 319.25ZM336.154 320.178M336.154 320.178Q340.181 321.427 343.413 324.167L342.443 325.311Q339.444 322.769 335.709 321.611L336.154 320.178ZM346.295 327.152M346.295 327.152Q348.921 330.477 350.026 334.548L348.578 334.941Q347.553 331.166 345.118 328.081L346.295 327.152ZM350.706 338.634M350.706 338.634Q350.75 339.315 350.75 340L350.75 346.702L349.25 346.702L349.25 340Q349.25 339.364 349.209 338.732L350.706 338.634ZM350.75 350.702L350.75 358.702L349.25 358.702L349.25 350.702L350.75 350.702ZM350.75 362.702L350.75 370.702L349.25 370.702L349.25 362.702L350.75 362.702ZM350.75 374.702L350.75 382.702L349.25 382.702L349.25 374.702L350.75 374.702ZM350.75 386.702L350.75 394.702L349.25 394.702L349.25 386.702L350.75 386.702ZM350.75 398.702L350.75 406.702L349.25 406.702L349.25 398.702L350.75 398.702ZM350.75 410.702L350.75 418.702L349.25 418.702L349.25 410.702L350.75 410.702ZM350.75 422.702L350.75 430.702L349.25 430.702L349.25 422.702L350.75 422.702ZM350.75 434.702L350.75 442.702L349.25 442.702L349.25 434.702L350.75 434.702ZM350.75 446.702L350.75 454.702L349.25 454.702L349.25 446.702L350.75 446.702ZM350.75 458.702L350.75 466.702L349.25 466.702L349.25 458.702L350.75 458.702ZM350.75 470.702L350.75 478.702L349.25 478.702L349.25 470.702L350.75 470.702ZM350.75 482.702L350.75 490.702L349.25 490.702L349.25 482.702L350.75 482.702ZM350.75 494.702L350.75 500Q350.75 501.419 350.561 502.816L349.074 502.614Q349.25 501.318 349.25 500L349.25 494.702L350.75 494.702ZM349.594 506.845M349.594 506.845Q348.204 510.826 345.352 513.96L344.242 512.951Q346.889 510.042 348.178 506.35L349.594 506.845ZM342.267 516.737M342.267 516.737Q338.851 519.245 334.741 520.206L334.4 518.745Q338.211 517.854 341.38 515.528L342.267 516.737ZM330.63 520.741M330.63 520.741Q330.315 520.75 330 520.75L322.597 520.75L322.597 519.25L330 519.25Q330.293 519.25 330.586 519.241L330.63 520.741ZM318.597 520.75L310.597 520.75L310.597 519.25L318.597 519.25L318.597 520.75ZM306.597 520.75L298.597 520.75L298.597 519.25L306.597 519.25L306.597 520.75ZM294.597 520.75L286.597 520.75L286.597 519.25L294.597 519.25L294.597 520.75ZM282.597 520.75L274.597 520.75L274.597 519.25L282.597 519.25L282.597 520.75ZM270.597 520.75L262.597 520.75L262.597 519.25L270.597 519.25L270.597 520.75ZM258.597 520.75L250.597 520.75L250.597 519.25L258.597 519.25L258.597 520.75ZM246.597 520.75L238.597 520.75L238.597 519.25L246.597 519.25L246.597 520.75ZM234.597 520.75L226.597 520.75L226.597 519.25L234.597 519.25L234.597 520.75ZM222.597 520.75L214.597 520.75L214.597 519.25L222.597 519.25L222.597 520.75ZM210.597 520.75L202.597 520.75L202.597 519.25L210.597 519.25L210.597 520.75ZM198.597 520.75L190.597 520.75L190.597 519.25L198.597 519.25L198.597 520.75ZM186.597 520.75L178.597 520.75L178.597 519.25L186.597 519.25L186.597 520.75ZM174.597 520.75L166.597 520.75L166.597 519.25L174.597 519.25L174.597 520.75ZM162.597 520.75L154.597 520.75L154.597 519.25L162.597 519.25L162.597 520.75ZM150.597 520.75L142.597 520.75L142.597 519.25L150.597 519.25L150.597 520.75ZM138.597 520.75L130.597 520.75L130.597 519.25L138.597 519.25L138.597 520.75ZM126.597 520.75L118.597 520.75L118.597 519.25L126.597 519.25L126.597 520.75ZM114.597 520.75L106.597 520.75L106.597 519.25L114.597 519.25L114.597 520.75ZM102.597 520.75L94.5969 520.75L94.5969 519.25L102.597 519.25L102.597 520.75ZM90.5969 520.75L82.5969 520.75L82.5969 519.25L90.5969 519.25L90.5969 520.75ZM78.5969 520.75L70.5969 520.75L70.5969 519.25L78.5969 519.25L78.5969 520.75ZM66.5969 520.75L60 520.75Q59.2601 520.75 58.5252 520.698L58.6303 519.202Q59.3126 519.25 60 519.25L66.5969 519.25L66.5969 520.75ZM54.4424 519.997M54.4424 519.997Q50.3783 518.87 47.0667 516.227L48.0023 515.055Q51.0744 517.507 54.8433 518.552L54.4424 519.997ZM44.0969 513.329M44.0969 513.329Q41.3736 510.084 40.146 506.05L41.581 505.613Q42.7195 509.354 45.246 512.365L44.0969 513.329ZM39.3439 501.986M39.3439 501.986Q39.25 500.998 39.25 500L39.25 493.895L40.75 493.895L40.75 500Q40.75 500.927 40.8371 501.844L39.3439 501.986ZM39.25 489.895L39.25 481.895L40.75 481.895L40.75 489.895L39.25 489.895ZM39.25 477.895L39.25 469.895L40.75 469.895L40.75 477.895L39.25 477.895ZM39.25 465.895L39.25 457.895L40.75 457.895L40.75 465.895L39.25 465.895ZM39.25 453.895L39.25 445.895L40.75 445.895L40.75 453.895L39.25 453.895ZM39.25 441.895L39.25 433.895L40.75 433.895L40.75 441.895L39.25 441.895ZM39.25 429.895L39.25 421.895L40.75 421.895L40.75 429.895L39.25 429.895ZM39.25 417.895L39.25 409.895L40.75 409.895L40.75 417.895L39.25 417.895ZM39.25 405.895L39.25 397.895L40.75 397.895L40.75 405.895L39.25 405.895ZM39.25 393.895L39.25 385.895L40.75 385.895L40.75 393.895L39.25 393.895ZM39.25 381.895L39.25 373.895L40.75 373.895L40.75 381.895L39.25 381.895ZM39.25 369.895L39.25 361.895L40.75 361.895L40.75 369.895L39.25 369.895ZM39.25 357.895L39.25 349.895L40.75 349.895L40.75 357.895L39.25 357.895ZM39.25 345.895L39.25 340Q39.25 338.893 39.3655 337.798L40.8573 337.955Q40.75 338.971 40.75 340L40.75 345.895L39.25 345.895ZM40.2103 333.743M40.2103 333.743Q41.4805 329.722 44.2376 326.505L45.3766 327.481Q42.8186 330.466 41.6407 334.194L40.2103 333.743ZM47.2375 323.638M47.2375 323.638Q50.5767 321.03 54.6531 319.946L55.0387 321.395Q51.2584 322.401 48.1608 324.82L47.2375 323.638ZM58.7434 319.287M58.7434 319.287Q59.37 319.25 60 319.25L68 319.25L68 320.75L60 320.75Q59.4147 320.75 58.8329 320.785L58.7434 319.287Z"></path></g><circle cx="195" cy="380" r="32"   fill="#E8F0F8" ></circle><g ><path     fill="#000000"  d="M194.048 373.132L194.048 394.72L195.952 394.72L195.952 373.132C197.044 374.56 198.808 376.408 200.544 377.668L201.524 375.988C199.06 374.112 196.596 371.312 195 368.82C193.404 371.312 190.94 374.112 188.476 375.988L189.456 377.668C191.192 376.408 192.956 374.56 194.048 373.132Z"></path></g><g ><path     fill="#4A6A85"  d="M119 425.264L126.936 425.264L126.936 427.776L119 427.776L119 425.264ZM120.296 430.512C120.504 431.584 120.632 432.96 120.632 433.776L122.168 433.584C122.152 432.784 121.96 431.424 121.736 430.384L120.296 430.512ZM123.592 430.528C124.072 431.536 124.552 432.912 124.712 433.728L126.184 433.344C125.992 432.528 125.464 431.2 124.984 430.224L123.592 430.528ZM126.856 430.416C127.64 431.456 128.52 432.88 128.888 433.792L130.328 433.2C129.944 432.288 129.016 430.912 128.216 429.904L126.856 430.416ZM117.688 430.016C117.192 431.2 116.392 432.48 115.576 433.2L116.968 433.872C117.832 433.024 118.632 431.648 119.128 430.384L117.688 430.016ZM117.56 423.856L117.56 429.184L128.472 429.184L128.472 423.856L123.672 423.856L123.672 422.048L129.608 422.048L129.608 420.624L123.672 420.624L123.672 419.056L122.136 419.056L122.136 423.856L117.56 423.856ZM133.256 427.776L133.256 433.072L143.192 433.072L143.192 433.904L144.744 433.904L144.744 427.76L143.192 427.76L143.192 431.6L139.864 431.6L139.864 426.656L146.104 426.656L146.104 425.152L139.864 425.152L139.864 422.928L145.016 422.928L145.016 421.424L139.864 421.424L139.864 419.072L138.264 419.072L138.264 421.424L133.112 421.424L133.112 422.928L138.264 422.928L138.264 425.152L131.944 425.152L131.944 426.656L138.264 426.656L138.264 431.6L134.872 431.6L134.872 427.776L133.256 427.776ZM147.912 431.36L148.2 432.912C150.088 432.496 152.712 431.936 155.16 431.392L155.016 429.952C152.44 430.48 149.688 431.04 147.912 431.36ZM150.232 425.552L153.112 425.552L153.112 427.92L150.232 427.92L150.232 425.552ZM148.84 424.256L148.84 429.216L154.584 429.216L154.584 424.256L148.84 424.256ZM147.992 421.52L147.992 423.008L155.832 423.008C156.024 425.536 156.392 427.92 156.968 429.792C155.944 431.008 154.76 432.016 153.384 432.784C153.72 433.072 154.328 433.664 154.552 433.968C155.656 433.264 156.664 432.416 157.56 431.44C158.264 432.976 159.176 433.92 160.312 433.92C161.656 433.92 162.2 433.168 162.456 430.288C162.04 430.128 161.48 429.776 161.144 429.408C161.048 431.504 160.856 432.336 160.456 432.336C159.832 432.336 159.224 431.472 158.712 430.032C159.88 428.416 160.808 426.512 161.496 424.368L159.992 424C159.528 425.504 158.92 426.88 158.168 428.112C157.832 426.656 157.576 424.896 157.416 423.008L162.072 423.008L162.072 421.52L160.872 421.52L161.656 420.656C161.096 420.144 159.944 419.472 159.032 419.072L158.12 420C158.968 420.4 159.928 421.024 160.52 421.52L157.336 421.52C157.288 420.72 157.288 419.904 157.288 419.088L155.656 419.088C155.672 419.904 155.688 420.72 155.736 421.52L147.992 421.52ZM170.152 424.272L170.152 426.8L168.568 427.408L168.376 426.064L166.968 426.48L166.968 423.6L168.456 423.6L168.456 422.192L166.968 422.192L166.968 419.072L165.496 419.072L165.496 422.192L163.592 422.192L163.592 423.6L165.496 423.6L165.496 426.912L163.416 427.472L163.768 428.944L165.496 428.4L165.496 432.08C165.496 432.304 165.432 432.368 165.224 432.368C165.032 432.368 164.44 432.368 163.8 432.352C163.992 432.768 164.184 433.424 164.232 433.824C165.256 433.824 165.928 433.776 166.36 433.52C166.808 433.28 166.968 432.864 166.968 432.08L166.968 427.952L168.536 427.456L168.968 428.704L170.152 428.256L170.152 431.648C170.152 433.328 170.664 433.76 172.6 433.76C173.016 433.76 175.752 433.76 176.2 433.76C177.784 433.76 178.216 433.2 178.408 431.264C178.008 431.2 177.448 430.992 177.128 430.768C177.032 432.192 176.888 432.464 176.104 432.464C175.512 432.464 173.16 432.464 172.68 432.464C171.672 432.464 171.512 432.336 171.512 431.648L171.512 427.728L173.128 427.104L173.128 431.152L174.44 431.152L174.44 426.608L176.088 425.968C176.088 427.776 176.056 428.896 176.024 429.104C175.976 429.344 175.88 429.376 175.704 429.376C175.56 429.376 175.176 429.392 174.888 429.36C175.048 429.68 175.176 430.272 175.208 430.672C175.64 430.688 176.2 430.672 176.584 430.512C177.048 430.368 177.304 430.032 177.336 429.408C177.384 428.912 177.4 427.04 177.416 424.832L177.464 424.608L176.504 424.256L176.248 424.432L176.12 424.528L174.44 425.168L174.44 422.992L173.128 422.992L173.128 425.664L171.512 426.288L171.512 424.272L170.152 424.272ZM170.872 419.04C170.328 421.024 169.32 422.944 168.088 424.16C168.424 424.368 169.048 424.816 169.32 425.072C169.928 424.4 170.52 423.536 171.032 422.56L178.28 422.56L178.28 421.184L171.688 421.184C171.928 420.592 172.152 419.984 172.328 419.376L170.872 419.04ZM181.432 419.072L181.432 422.192L179.704 422.192L179.704 423.6L181.432 423.6L181.432 426.864L179.464 427.392L179.816 428.848L181.432 428.368L181.432 432.176C181.432 432.384 181.352 432.448 181.16 432.448C180.984 432.448 180.424 432.448 179.832 432.432C180.008 432.848 180.2 433.488 180.248 433.856C181.208 433.872 181.848 433.808 182.264 433.568C182.696 433.328 182.84 432.928 182.84 432.176L182.84 427.936L184.488 427.408L184.296 426.032L182.84 426.464L182.84 423.6L184.392 423.6L184.392 422.192L182.84 422.192L182.84 419.072L181.432 419.072ZM192.184 428.096C191.8 428.656 191.288 429.168 190.712 429.616C190.552 429.04 190.424 428.384 190.296 427.664L193.544 427.664L193.544 420.976L189.832 420.976L189.848 419.072L188.36 419.072L188.376 420.976L184.968 420.976L184.968 428.48L186.392 428.48L186.392 427.664L188.84 427.664C188.984 428.688 189.192 429.632 189.432 430.448C187.944 431.28 186.12 431.872 184.248 432.256C184.504 432.576 184.936 433.264 185.096 433.6C186.792 433.168 188.472 432.56 189.928 431.76C190.584 433.12 191.464 433.904 192.664 433.904C193.912 433.904 194.392 433.264 194.632 430.96C194.28 430.832 193.752 430.512 193.448 430.192C193.368 431.904 193.192 432.464 192.76 432.464C192.136 432.464 191.608 431.936 191.176 430.992C192.152 430.32 192.984 429.552 193.624 428.64L192.184 428.096ZM186.392 422.272L188.408 422.272L188.472 423.664L186.392 423.664L186.392 422.272ZM186.392 426.368L186.392 424.928L188.552 424.928L188.68 426.368L186.392 426.368ZM192.104 424.928L192.104 426.368L190.12 426.368L189.992 424.928L192.104 424.928ZM192.104 423.664L189.912 423.664L189.864 422.272L192.104 422.272L192.104 423.664ZM201.688 419.392C202.136 420.16 202.584 421.168 202.776 421.824L195.768 421.824L195.768 423.296L198.264 423.296C199.176 425.648 200.376 427.68 201.928 429.344C200.216 430.752 198.088 431.744 195.496 432.448C195.8 432.8 196.264 433.504 196.44 433.872C199.064 433.056 201.256 431.952 203.048 430.432C204.792 431.952 206.936 433.088 209.528 433.792C209.768 433.36 210.216 432.72 210.552 432.384C208.056 431.776 205.96 430.72 204.232 429.328C205.752 427.712 206.936 425.728 207.8 423.296L210.312 423.296L210.312 421.824L203.048 421.824L204.472 421.376C204.264 420.704 203.752 419.68 203.288 418.912L201.688 419.392ZM203.08 428.288C201.688 426.864 200.6 425.184 199.832 423.296L206.088 423.296C205.368 425.296 204.376 426.928 203.08 428.288ZM216.056 426.928L216.056 428.416L220.552 428.416L220.552 433.904L222.072 433.904L222.072 428.416L226.344 428.416L226.344 426.928L222.072 426.928L222.072 423.744L225.608 423.744L225.608 422.256L222.072 422.256L222.072 419.248L220.552 419.248L220.552 422.256L218.76 422.256C218.952 421.584 219.112 420.896 219.256 420.192L217.8 419.888C217.448 421.92 216.776 423.984 215.864 425.28C216.248 425.44 216.888 425.808 217.176 426.016C217.576 425.392 217.944 424.608 218.264 423.744L220.552 423.744L220.552 426.928L216.056 426.928ZM215.112 419.12C214.28 421.472 212.888 423.824 211.416 425.344C211.672 425.696 212.104 426.512 212.248 426.88C212.68 426.416 213.096 425.904 213.496 425.344L213.496 433.888L214.952 433.888L214.952 423.024C215.56 421.904 216.104 420.72 216.536 419.552L215.112 419.12ZM237.128 420.48L237.128 430.192L238.536 430.192L238.536 420.48L237.128 420.48ZM240.248 419.28L240.248 431.792C240.248 432.064 240.168 432.144 239.896 432.16C239.608 432.16 238.744 432.16 237.832 432.128C238.056 432.528 238.312 433.2 238.376 433.6C239.576 433.6 240.456 433.568 241.016 433.328C241.544 433.088 241.72 432.656 241.72 431.792L241.72 419.28L240.248 419.28ZM227.912 431.776L228.248 433.184C230.392 432.8 233.432 432.224 236.28 431.68L236.184 430.352L232.952 430.944L232.952 428.704L236.024 428.704L236.024 427.376L232.952 427.376L232.952 425.792L231.528 425.792L231.528 427.376L228.472 427.376L228.472 428.704L231.528 428.704L231.528 431.184C230.152 431.424 228.904 431.632 227.912 431.776ZM228.888 425.632C229.32 425.456 229.944 425.392 234.712 424.976C234.904 425.296 235.064 425.616 235.192 425.872L236.344 425.104C235.896 424.176 234.856 422.736 233.992 421.664L232.904 422.304C233.256 422.752 233.624 423.264 233.96 423.792L230.408 424.048C231 423.264 231.576 422.304 232.04 421.376L236.36 421.376L236.36 420.048L228.072 420.048L228.072 421.376L230.376 421.376C229.928 422.384 229.368 423.264 229.176 423.552C228.904 423.92 228.648 424.192 228.408 424.256C228.568 424.64 228.808 425.328 228.888 425.632ZM243.64 432.144L243.896 433.744C245.96 433.36 248.888 432.832 251.592 432.32L251.48 430.8L249.448 431.168L249.448 425.36L251.528 425.36L251.528 423.904L249.448 423.904L249.448 419.056L247.896 419.056L247.896 431.456L246.36 431.712L246.36 422.336L244.888 422.336L244.888 431.952L243.64 432.144ZM252.232 419.056L252.232 430.96C252.232 432.928 252.696 433.472 254.296 433.472C254.616 433.472 256.184 433.472 256.52 433.472C258.024 433.472 258.44 432.512 258.6 429.904C258.168 429.792 257.544 429.52 257.16 429.232C257.08 431.424 256.984 432 256.392 432C256.056 432 254.792 432 254.52 432C253.912 432 253.816 431.856 253.816 430.992L253.816 426.24C255.304 425.536 256.904 424.656 258.136 423.776L256.904 422.528C256.136 423.216 254.984 424.032 253.816 424.704L253.816 419.056L252.232 419.056ZM265.592 422.992C265.32 425.024 264.84 426.704 264.184 428.08C263.608 427.072 263.112 425.824 262.728 424.256L263.128 422.992L265.592 422.992ZM262.36 419.104C261.912 422.256 260.952 425.344 259.736 426.992C260.136 427.184 260.68 427.584 260.968 427.84C261.32 427.376 261.64 426.816 261.944 426.176C262.344 427.488 262.824 428.592 263.384 429.488C262.36 430.976 261.048 432.032 259.464 432.768C259.848 433.008 260.472 433.6 260.728 433.952C262.152 433.232 263.368 432.224 264.36 430.832C266.28 432.976 268.776 433.488 271.496 433.488L273.96 433.488C274.04 433.056 274.312 432.272 274.552 431.904C273.864 431.92 272.12 431.92 271.576 431.92C269.208 431.92 266.936 431.488 265.192 429.504C266.248 427.552 266.968 425.024 267.304 421.808L266.296 421.536L266.008 421.584L263.512 421.584C263.688 420.88 263.832 420.176 263.96 419.456L262.36 419.104ZM268.664 419.072L268.664 430.928L270.28 430.928L270.28 424.528C271.256 425.744 272.264 427.104 272.776 428.032L274.12 427.216C273.416 426.032 271.912 424.224 270.728 422.896L270.28 423.152L270.28 419.072L268.664 419.072Z"></path></g><g ><path     fill="#A8C8E0"  d="M146.508 443.84L146.508 445.676L141.924 445.676L141.924 446.564L146.508 446.564L146.508 448.424L142.476 448.424L142.476 449.3L143.76 449.3L143.496 449.396C144.144 450.692 145.044 451.76 146.172 452.6C144.78 453.296 143.148 453.74 141.432 454.016C141.612 454.22 141.84 454.64 141.924 454.88C143.76 454.544 145.5 454.004 147.012 453.164C148.392 453.98 150.048 454.52 152.004 454.808C152.136 454.568 152.376 454.172 152.58 453.956C150.78 453.728 149.208 453.272 147.912 452.6C149.28 451.664 150.384 450.404 151.068 448.76L150.444 448.388L150.276 448.424L147.444 448.424L147.444 446.564L152.052 446.564L152.052 445.676L147.444 445.676L147.444 443.84L146.508 443.84ZM144.432 449.3L149.748 449.3C149.124 450.476 148.2 451.4 147.048 452.108C145.92 451.376 145.032 450.44 144.432 449.3ZM158.376 451.472C158.892 452.12 159.468 453.032 159.696 453.608L160.44 453.14C160.188 452.564 159.588 451.7 159.072 451.076L158.376 451.472ZM160.512 443.9L160.512 445.4L157.956 445.4L157.956 446.216L160.512 446.216L160.512 447.74L157.344 447.74L157.344 448.568L162.096 448.568L162.096 449.912L157.476 449.912L157.476 450.74L162.096 450.74L162.096 453.788C162.096 453.944 162.048 454.004 161.868 454.004C161.688 454.016 161.052 454.028 160.38 453.992C160.5 454.244 160.62 454.616 160.656 454.868C161.544 454.868 162.132 454.856 162.48 454.724C162.852 454.58 162.96 454.328 162.96 453.788L162.96 450.74L164.448 450.74L164.448 449.912L162.96 449.912L162.96 448.568L164.52 448.568L164.52 447.74L161.376 447.74L161.376 446.216L163.944 446.216L163.944 445.4L161.376 445.4L161.376 443.9L160.512 443.9ZM155.052 443.852L155.052 446.264L153.504 446.264L153.504 447.104L155.052 447.104L155.052 449.708C154.404 449.912 153.804 450.08 153.336 450.212L153.564 451.1L155.052 450.62L155.052 453.788C155.052 453.968 154.992 454.016 154.848 454.016C154.704 454.016 154.236 454.016 153.72 454.004C153.828 454.256 153.948 454.628 153.972 454.844C154.728 454.856 155.196 454.82 155.484 454.676C155.784 454.532 155.892 454.292 155.892 453.8L155.892 450.344L157.2 449.912L157.08 449.084L155.892 449.456L155.892 447.104L157.164 447.104L157.164 446.264L155.892 446.264L155.892 443.852L155.052 443.852ZM170.22 443.924C170.4 444.224 170.568 444.596 170.688 444.932L166.344 444.932L166.344 445.748L175.764 445.748L175.764 444.932L171.696 444.932C171.576 444.56 171.36 444.092 171.108 443.744L170.22 443.924ZM167.976 446.012C168.288 446.528 168.564 447.236 168.672 447.752L165.66 447.752L165.66 448.568L176.352 448.568L176.352 447.752L173.316 447.752C173.616 447.248 173.916 446.588 174.192 446.012L173.22 445.772C173.016 446.348 172.656 447.188 172.356 447.752L169.188 447.752L169.62 447.644C169.512 447.14 169.212 446.384 168.828 445.82L167.976 446.012ZM168.204 452.36L173.88 452.36L173.88 453.668L168.204 453.668L168.204 452.36ZM168.204 451.64L168.204 450.392L173.88 450.392L173.88 451.64L168.204 451.64ZM167.316 449.624L167.316 454.892L168.204 454.892L168.204 454.436L173.88 454.436L173.88 454.868L174.816 454.868L174.816 449.624L167.316 449.624ZM185.412 447.908C185.388 452.108 185.256 453.5 182.352 454.28C182.508 454.436 182.724 454.724 182.796 454.916C185.916 454.028 186.144 452.372 186.168 447.908L185.412 447.908ZM185.736 452.912C186.54 453.512 187.572 454.376 188.076 454.904L188.616 454.328C188.1 453.812 187.044 452.984 186.24 452.408L185.736 452.912ZM182.136 449.288C181.512 451.784 180.132 453.416 177.588 454.22C177.768 454.4 177.972 454.7 178.056 454.916C180.78 453.956 182.256 452.192 182.916 449.468L182.136 449.288ZM178.596 449.156C178.356 450.044 177.96 450.944 177.444 451.556C177.648 451.652 177.972 451.856 178.116 451.976C178.62 451.316 179.088 450.308 179.352 449.324L178.596 449.156ZM183.528 446.612L183.528 452.276L184.296 452.276L184.296 447.32L187.248 447.32L187.248 452.252L188.064 452.252L188.064 446.612L185.904 446.612L186.384 445.352L188.4 445.352L188.4 444.548L183.216 444.548L183.216 445.352L185.508 445.352C185.388 445.76 185.232 446.24 185.064 446.612L183.528 446.612ZM178.368 444.884L178.368 447.572L177.468 447.572L177.468 448.388L179.976 448.388L179.976 452.024L180.792 452.024L180.792 448.388L183.024 448.388L183.024 447.572L181.008 447.572L181.008 446.096L182.748 446.096L182.748 445.328L181.008 445.328L181.008 443.828L180.192 443.828L180.192 447.572L179.112 447.572L179.112 444.884L178.368 444.884ZM195.372 444.956L195.372 454.34L196.248 454.34L196.248 453.356L198.924 453.356L198.924 454.256L199.836 454.256L199.836 444.956L195.372 444.956ZM196.248 452.492L196.248 445.82L198.924 445.82L198.924 452.492L196.248 452.492ZM194.268 443.948C193.212 444.38 191.316 444.74 189.72 444.956C189.816 445.16 189.936 445.472 189.972 445.676C190.608 445.604 191.292 445.508 191.964 445.388L191.964 447.392L189.6 447.392L189.6 448.232L191.736 448.232C191.184 449.744 190.224 451.388 189.312 452.312C189.468 452.54 189.696 452.888 189.804 453.152C190.584 452.324 191.376 450.944 191.964 449.528L191.964 454.856L192.852 454.856L192.852 449.564C193.368 450.248 194.04 451.16 194.316 451.616L194.868 450.872C194.58 450.5 193.296 448.988 192.852 448.532L192.852 448.232L194.952 448.232L194.952 447.392L192.852 447.392L192.852 445.208C193.608 445.052 194.304 444.872 194.868 444.656L194.268 443.948ZM206.4 444.428L206.4 450.812L207.276 450.812L207.276 445.22L210.984 445.22L210.984 450.812L211.884 450.812L211.884 444.428L206.4 444.428ZM202.848 444.272C203.28 444.74 203.748 445.4 203.964 445.844L204.696 445.364C204.48 444.944 204 444.32 203.532 443.864L202.848 444.272ZM208.644 446.132L208.644 448.472C208.644 450.356 208.284 452.648 205.248 454.22C205.428 454.364 205.716 454.7 205.824 454.892C207.624 453.944 208.572 452.66 209.052 451.352L209.052 453.68C209.052 454.484 209.376 454.7 210.192 454.7L211.284 454.7C212.328 454.7 212.46 454.208 212.58 452.324C212.352 452.264 212.052 452.144 211.824 451.964C211.776 453.692 211.716 454.016 211.296 454.016L210.324 454.016C209.988 454.016 209.892 453.92 209.892 453.584L209.892 450.608L209.28 450.608C209.46 449.876 209.508 449.156 209.508 448.496L209.508 446.132L208.644 446.132ZM201.756 445.904L201.756 446.732L204.66 446.732C203.964 448.256 202.704 449.756 201.468 450.596C201.6 450.764 201.816 451.22 201.888 451.472C202.356 451.124 202.824 450.692 203.28 450.2L203.28 454.868L204.132 454.868L204.132 449.696C204.552 450.236 205.068 450.92 205.308 451.292L205.884 450.572C205.656 450.308 204.816 449.348 204.36 448.856C204.936 448.04 205.428 447.128 205.764 446.192L205.284 445.868L205.116 445.904L201.756 445.904ZM221.412 447.908C221.388 452.108 221.256 453.5 218.352 454.28C218.508 454.436 218.724 454.724 218.796 454.916C221.916 454.028 222.144 452.372 222.168 447.908L221.412 447.908ZM221.736 452.912C222.54 453.512 223.572 454.376 224.076 454.904L224.616 454.328C224.1 453.812 223.044 452.984 222.24 452.408L221.736 452.912ZM218.136 449.288C217.512 451.784 216.132 453.416 213.588 454.22C213.768 454.4 213.972 454.7 214.056 454.916C216.78 453.956 218.256 452.192 218.916 449.468L218.136 449.288ZM214.596 449.156C214.356 450.044 213.96 450.944 213.444 451.556C213.648 451.652 213.972 451.856 214.116 451.976C214.62 451.316 215.088 450.308 215.352 449.324L214.596 449.156ZM219.528 446.612L219.528 452.276L220.296 452.276L220.296 447.32L223.248 447.32L223.248 452.252L224.064 452.252L224.064 446.612L221.904 446.612L222.384 445.352L224.4 445.352L224.4 444.548L219.216 444.548L219.216 445.352L221.508 445.352C221.388 445.76 221.232 446.24 221.064 446.612L219.528 446.612ZM214.368 444.884L214.368 447.572L213.468 447.572L213.468 448.388L215.976 448.388L215.976 452.024L216.792 452.024L216.792 448.388L219.024 448.388L219.024 447.572L217.008 447.572L217.008 446.096L218.748 446.096L218.748 445.328L217.008 445.328L217.008 443.828L216.192 443.828L216.192 447.572L215.112 447.572L215.112 444.884L214.368 444.884ZM230.076 444.044C230.436 444.632 230.82 445.436 230.964 445.928L231.96 445.604C231.792 445.112 231.372 444.332 231.012 443.756L230.076 444.044ZM225.6 445.952L225.6 446.84L227.472 446.84C228.18 448.664 229.128 450.236 230.364 451.52C229.044 452.624 227.424 453.44 225.432 454.004C225.612 454.22 225.9 454.64 225.996 454.856C228 454.208 229.668 453.344 231.024 452.168C232.38 453.368 234.012 454.256 235.98 454.796C236.136 454.544 236.4 454.16 236.604 453.968C234.684 453.488 233.052 452.636 231.72 451.508C232.932 450.272 233.856 448.736 234.552 446.84L236.448 446.84L236.448 445.952L225.6 445.952ZM231.048 450.884C229.92 449.744 229.032 448.376 228.408 446.84L233.532 446.84C232.932 448.46 232.104 449.792 231.048 450.884ZM240.804 449.828L240.804 450.704L244.248 450.704L244.248 454.88L245.148 454.88L245.148 450.704L248.436 450.704L248.436 449.828L245.148 449.828L245.148 447.176L247.908 447.176L247.908 446.3L245.148 446.3L245.148 443.984L244.248 443.984L244.248 446.3L242.64 446.3C242.796 445.76 242.928 445.184 243.048 444.62L242.184 444.44C241.908 446.012 241.404 447.56 240.708 448.556C240.924 448.664 241.308 448.88 241.476 449.012C241.8 448.508 242.1 447.872 242.352 447.176L244.248 447.176L244.248 449.828L240.804 449.828ZM240.216 443.888C239.568 445.7 238.512 447.5 237.384 448.676C237.54 448.88 237.804 449.348 237.9 449.564C238.284 449.156 238.644 448.676 239.004 448.16L239.004 454.856L239.868 454.856L239.868 446.756C240.324 445.916 240.732 445.028 241.068 444.14L240.216 443.888Z"></path></g><rect  x="40" y="545" width="310" height="50" rx="14"    fill="#E8F0F8" ></rect><g ><path     fill="#5B9BD5"  d="M161.235 566.025C161.04 571.545 160.44 576.06 157.995 578.625C158.385 578.835 159.15 579.36 159.39 579.6C160.83 577.875 161.655 575.55 162.15 572.73C162.99 573.825 163.785 575.07 164.19 575.94L165.255 574.92C164.715 573.81 163.53 572.145 162.42 570.885C162.6 569.4 162.72 567.78 162.795 566.07L161.235 566.025ZM167.025 566.01C166.755 571.725 165.975 576.12 163.065 578.58C163.455 578.805 164.205 579.345 164.46 579.57C165.96 578.13 166.92 576.21 167.55 573.84C168.21 575.94 169.275 578.1 170.925 579.435C171.165 579.03 171.675 578.415 171.99 578.13C169.785 576.615 168.645 573.465 168.12 570.99C168.345 569.475 168.48 567.84 168.585 566.07L167.025 566.01ZM180.915 571.455L185.025 571.455L185.025 573.75L180.915 573.75L180.915 571.455ZM180.915 570.15L180.915 567.93L185.025 567.93L185.025 570.15L180.915 570.15ZM180.915 575.04L185.025 575.04L185.025 577.35L180.915 577.35L180.915 575.04ZM179.55 566.58L179.55 579.555L180.915 579.555L180.915 578.655L185.025 578.655L185.025 579.48L186.45 579.48L186.45 566.58L179.55 566.58ZM175.545 565.74L175.545 568.905L173.235 568.905L173.235 570.255L175.365 570.255C174.87 572.22 173.88 574.425 172.875 575.64C173.1 575.985 173.43 576.57 173.58 576.96C174.315 576.015 175.005 574.545 175.545 573L175.545 579.645L176.91 579.645L176.91 573.03C177.42 573.75 177.99 574.575 178.245 575.085L179.085 573.93C178.77 573.54 177.42 571.92 176.91 571.395L176.91 570.255L178.935 570.255L178.935 568.905L176.91 568.905L176.91 565.74L175.545 565.74ZM195.585 566.7L195.585 571.485L195.585 571.65L194.22 571.65L194.22 566.7L189.705 566.7L189.705 571.455L189.705 571.65L188.07 571.65L188.07 573.015L189.675 573.015C189.585 574.95 189.24 577.125 188.04 578.76C188.325 578.94 188.865 579.48 189.06 579.765C190.44 577.95 190.905 575.265 191.025 573.015L192.84 573.015L192.84 578.025C192.84 578.235 192.765 578.295 192.555 578.31C192.36 578.325 191.685 578.325 191.01 578.295C191.19 578.625 191.4 579.21 191.46 579.57C192.48 579.57 193.17 579.54 193.62 579.315C193.875 579.195 194.04 579.015 194.13 578.745C194.415 578.94 194.97 579.45 195.18 579.72C196.425 577.905 196.83 575.25 196.935 573.015L198.99 573.015L198.99 578.01C198.99 578.235 198.915 578.31 198.705 578.325C198.495 578.325 197.805 578.325 197.1 578.31C197.295 578.655 197.505 579.27 197.565 579.645C198.63 579.645 199.32 579.615 199.785 579.375C200.25 579.15 200.4 578.76 200.4 578.025L200.4 573.015L201.93 573.015L201.93 571.65L200.4 571.65L200.4 566.7L195.585 566.7ZM191.07 568.02L192.84 568.02L192.84 571.65L191.07 571.65L191.07 571.455L191.07 568.02ZM194.22 573.015L195.555 573.015C195.48 574.935 195.18 577.08 194.145 578.7C194.19 578.52 194.22 578.295 194.22 578.025L194.22 573.015ZM196.965 571.65L196.965 571.5L196.965 568.02L198.99 568.02L198.99 571.65L196.965 571.65ZM203.295 567C204.15 567.735 205.17 568.785 205.605 569.505L206.76 568.62C206.28 567.9 205.26 566.895 204.375 566.205L203.295 567ZM209.04 566.19C208.68 567.51 208.05 568.83 207.24 569.7C207.57 569.85 208.155 570.225 208.41 570.45C208.755 570.03 209.1 569.52 209.4 568.935L211.47 568.935L211.47 570.945L207.285 570.945L207.285 572.19L209.88 572.19C209.655 573.93 209.085 575.25 206.91 576.015C207.225 576.285 207.615 576.825 207.78 577.185C210.3 576.18 211.035 574.455 211.305 572.19L212.61 572.19L212.61 575.295C212.61 576.63 212.88 577.05 214.14 577.05C214.38 577.05 215.22 577.05 215.475 577.05C216.48 577.05 216.84 576.555 216.99 574.605C216.585 574.515 216 574.29 215.73 574.05C215.7 575.535 215.625 575.73 215.325 575.73C215.145 575.73 214.5 575.73 214.365 575.73C214.05 575.73 214.005 575.685 214.005 575.295L214.005 572.19L216.81 572.19L216.81 570.945L212.88 570.945L212.88 568.935L216.195 568.935L216.195 567.735L212.88 567.735L212.88 565.8L211.47 565.8L211.47 567.735L209.955 567.735C210.12 567.33 210.255 566.91 210.375 566.49L209.04 566.19ZM206.4 571.5L203.265 571.5L203.265 572.82L205.035 572.82L205.035 577.065C204.405 577.395 203.73 577.905 203.1 578.49L204.045 579.735C204.87 578.79 205.68 577.98 206.25 577.98C206.58 577.98 207.03 578.415 207.645 578.775C208.635 579.345 209.85 579.525 211.62 579.525C213.075 579.525 215.49 579.435 216.645 579.36C216.66 578.97 216.885 578.265 217.035 577.89C215.565 578.07 213.255 578.19 211.635 578.19C210.06 578.19 208.785 578.1 207.855 577.545C207.165 577.14 206.82 576.78 206.4 576.72L206.4 571.5ZM220.005 565.755L220.005 568.665L218.145 568.665L218.145 569.985L220.005 569.985L220.005 572.925L217.965 573.48L218.31 574.845L220.005 574.335L220.005 578.04C220.005 578.235 219.93 578.295 219.735 578.31C219.57 578.31 219 578.325 218.415 578.295C218.58 578.67 218.76 579.27 218.805 579.63C219.78 579.63 220.395 579.6 220.815 579.36C221.235 579.135 221.37 578.76 221.37 578.04L221.37 573.915L223.035 573.39L222.855 572.1L221.37 572.535L221.37 569.985L223.08 569.985L223.08 568.665L221.37 568.665L221.37 565.755L220.005 565.755ZM229.26 567.72C228.765 568.365 228.15 568.95 227.445 569.475C226.785 568.95 226.215 568.365 225.765 567.72L229.26 567.72ZM223.47 566.46L223.47 567.72L224.415 567.72C224.94 568.635 225.6 569.46 226.38 570.165C225.255 570.825 223.995 571.335 222.75 571.65C223.005 571.92 223.35 572.445 223.485 572.775C224.835 572.37 226.2 571.77 227.415 570.99C228.555 571.8 229.875 572.4 231.33 572.79C231.51 572.43 231.9 571.905 232.2 571.605C230.835 571.32 229.59 570.84 228.51 570.195C229.65 569.28 230.595 568.17 231.225 566.85L230.37 566.4L230.145 566.46L223.47 566.46ZM226.665 572.19L226.665 573.45L223.725 573.45L223.725 574.71L226.665 574.71L226.665 576.045L222.975 576.045L222.975 577.305L226.665 577.305L226.665 579.675L228.09 579.675L228.09 577.305L231.885 577.305L231.885 576.045L228.09 576.045L228.09 574.71L230.865 574.71L230.865 573.45L228.09 573.45L228.09 572.19L226.665 572.19Z"></path></g><rect  x="40" y="605" width="310" height="50" rx="14"    fill="#E8F0F8" ></rect><g ><path     fill="#5B9BD5"  d="M161.235 626.025C161.04 631.545 160.44 636.06 157.995 638.625C158.385 638.835 159.15 639.36 159.39 639.6C160.83 637.875 161.655 635.55 162.15 632.73C162.99 633.825 163.785 635.07 164.19 635.94L165.255 634.92C164.715 633.81 163.53 632.145 162.42 630.885C162.6 629.4 162.72 627.78 162.795 626.07L161.235 626.025ZM167.025 626.01C166.755 631.725 165.975 636.12 163.065 638.58C163.455 638.805 164.205 639.345 164.46 639.57C165.96 638.13 166.92 636.21 167.55 633.84C168.21 635.94 169.275 638.1 170.925 639.435C171.165 639.03 171.675 638.415 171.99 638.13C169.785 636.615 168.645 633.465 168.12 630.99C168.345 629.475 168.48 627.84 168.585 626.07L167.025 626.01ZM178.77 626.055C179.19 626.775 179.61 627.72 179.79 628.335L173.22 628.335L173.22 629.715L175.56 629.715C176.415 631.92 177.54 633.825 178.995 635.385C177.39 636.705 175.395 637.635 172.965 638.295C173.25 638.625 173.685 639.285 173.85 639.63C176.31 638.865 178.365 637.83 180.045 636.405C181.68 637.83 183.69 638.895 186.12 639.555C186.345 639.15 186.765 638.55 187.08 638.235C184.74 637.665 182.775 636.675 181.155 635.37C182.58 633.855 183.69 631.995 184.5 629.715L186.855 629.715L186.855 628.335L180.045 628.335L181.38 627.915C181.185 627.285 180.705 626.325 180.27 625.605L178.77 626.055ZM180.075 634.395C178.77 633.06 177.75 631.485 177.03 629.715L182.895 629.715C182.22 631.59 181.29 633.12 180.075 634.395ZM192.24 633.12L192.24 634.515L196.455 634.515L196.455 639.66L197.88 639.66L197.88 634.515L201.885 634.515L201.885 633.12L197.88 633.12L197.88 630.135L201.195 630.135L201.195 628.74L197.88 628.74L197.88 625.92L196.455 625.92L196.455 628.74L194.775 628.74C194.955 628.11 195.105 627.465 195.24 626.805L193.875 626.52C193.545 628.425 192.915 630.36 192.06 631.575C192.42 631.725 193.02 632.07 193.29 632.265C193.665 631.68 194.01 630.945 194.31 630.135L196.455 630.135L196.455 633.12L192.24 633.12ZM191.355 625.8C190.575 628.005 189.27 630.21 187.89 631.635C188.13 631.965 188.535 632.73 188.67 633.075C189.075 632.64 189.465 632.16 189.84 631.635L189.84 639.645L191.205 639.645L191.205 629.46C191.775 628.41 192.285 627.3 192.69 626.205L191.355 625.8ZM203.295 627C204.15 627.735 205.17 628.785 205.605 629.505L206.76 628.62C206.28 627.9 205.26 626.895 204.375 626.205L203.295 627ZM209.04 626.19C208.68 627.51 208.05 628.83 207.24 629.7C207.57 629.85 208.155 630.225 208.41 630.45C208.755 630.03 209.1 629.52 209.4 628.935L211.47 628.935L211.47 630.945L207.285 630.945L207.285 632.19L209.88 632.19C209.655 633.93 209.085 635.25 206.91 636.015C207.225 636.285 207.615 636.825 207.78 637.185C210.3 636.18 211.035 634.455 211.305 632.19L212.61 632.19L212.61 635.295C212.61 636.63 212.88 637.05 214.14 637.05C214.38 637.05 215.22 637.05 215.475 637.05C216.48 637.05 216.84 636.555 216.99 634.605C216.585 634.515 216 634.29 215.73 634.05C215.7 635.535 215.625 635.73 215.325 635.73C215.145 635.73 214.5 635.73 214.365 635.73C214.05 635.73 214.005 635.685 214.005 635.295L214.005 632.19L216.81 632.19L216.81 630.945L212.88 630.945L212.88 628.935L216.195 628.935L216.195 627.735L212.88 627.735L212.88 625.8L211.47 625.8L211.47 627.735L209.955 627.735C210.12 627.33 210.255 626.91 210.375 626.49L209.04 626.19ZM206.4 631.5L203.265 631.5L203.265 632.82L205.035 632.82L205.035 637.065C204.405 637.395 203.73 637.905 203.1 638.49L204.045 639.735C204.87 638.79 205.68 637.98 206.25 637.98C206.58 637.98 207.03 638.415 207.645 638.775C208.635 639.345 209.85 639.525 211.62 639.525C213.075 639.525 215.49 639.435 216.645 639.36C216.66 638.97 216.885 638.265 217.035 637.89C215.565 638.07 213.255 638.19 211.635 638.19C210.06 638.19 208.785 638.1 207.855 637.545C207.165 637.14 206.82 636.78 206.4 636.72L206.4 631.5ZM220.005 625.755L220.005 628.665L218.145 628.665L218.145 629.985L220.005 629.985L220.005 632.925L217.965 633.48L218.31 634.845L220.005 634.335L220.005 638.04C220.005 638.235 219.93 638.295 219.735 638.31C219.57 638.31 219 638.325 218.415 638.295C218.58 638.67 218.76 639.27 218.805 639.63C219.78 639.63 220.395 639.6 220.815 639.36C221.235 639.135 221.37 638.76 221.37 638.04L221.37 633.915L223.035 633.39L222.855 632.1L221.37 632.535L221.37 629.985L223.08 629.985L223.08 628.665L221.37 628.665L221.37 625.755L220.005 625.755ZM229.26 627.72C228.765 628.365 228.15 628.95 227.445 629.475C226.785 628.95 226.215 628.365 225.765 627.72L229.26 627.72ZM223.47 626.46L223.47 627.72L224.415 627.72C224.94 628.635 225.6 629.46 226.38 630.165C225.255 630.825 223.995 631.335 222.75 631.65C223.005 631.92 223.35 632.445 223.485 632.775C224.835 632.37 226.2 631.77 227.415 630.99C228.555 631.8 229.875 632.4 231.33 632.79C231.51 632.43 231.9 631.905 232.2 631.605C230.835 631.32 229.59 630.84 228.51 630.195C229.65 629.28 230.595 628.17 231.225 626.85L230.37 626.4L230.145 626.46L223.47 626.46ZM226.665 632.19L226.665 633.45L223.725 633.45L223.725 634.71L226.665 634.71L226.665 636.045L222.975 636.045L222.975 637.305L226.665 637.305L226.665 639.675L228.09 639.675L228.09 637.305L231.885 637.305L231.885 636.045L228.09 636.045L228.09 634.71L230.865 634.71L230.865 633.45L228.09 633.45L228.09 632.19L226.665 632.19Z"></path></g><rect  x="40" y="665" width="310" height="50" rx="14"    fill="#E8F0F8" ></rect><g ><path     fill="#5B9BD5"  d="M161.235 686.025C161.04 691.545 160.44 696.06 157.995 698.625C158.385 698.835 159.15 699.36 159.39 699.6C160.83 697.875 161.655 695.55 162.15 692.73C162.99 693.825 163.785 695.07 164.19 695.94L165.255 694.92C164.715 693.81 163.53 692.145 162.42 690.885C162.6 689.4 162.72 687.78 162.795 686.07L161.235 686.025ZM167.025 686.01C166.755 691.725 165.975 696.12 163.065 698.58C163.455 698.805 164.205 699.345 164.46 699.57C165.96 698.13 166.92 696.21 167.55 693.84C168.21 695.94 169.275 698.1 170.925 699.435C171.165 699.03 171.675 698.415 171.99 698.13C169.785 696.615 168.645 693.465 168.12 690.99C168.345 689.475 168.48 687.84 168.585 686.07L167.025 686.01ZM175.38 685.725C174.855 686.7 173.805 687.915 172.86 688.665C173.085 688.92 173.43 689.46 173.595 689.745C174.69 688.845 175.89 687.465 176.67 686.205L175.38 685.725ZM177.39 693.585L177.39 695.325C177.39 696.345 177.255 697.65 176.325 698.64C176.565 698.82 177.06 699.33 177.225 699.585C178.35 698.385 178.59 696.645 178.59 695.34L178.59 694.695L180.21 694.695L180.21 696.135C180.21 696.735 179.97 697.005 179.76 697.125C179.955 697.41 180.195 697.98 180.27 698.295C180.495 698.01 180.84 697.695 182.745 696.465C182.64 696.24 182.49 695.775 182.43 695.46L181.35 696.09L181.35 693.585L177.39 693.585ZM183.69 689.985L185.22 689.985C185.04 691.62 184.77 693.06 184.335 694.305C183.96 693.15 183.705 691.875 183.525 690.525L183.69 689.985ZM176.775 691.62L176.775 692.82L181.8 692.82L181.8 692.52C182.01 692.775 182.235 693.06 182.355 693.24C182.52 692.985 182.655 692.715 182.805 692.43C183.015 693.66 183.3 694.815 183.66 695.835C183.03 697.005 182.19 697.95 181.035 698.67C181.275 698.91 181.68 699.435 181.815 699.705C182.82 699.015 183.63 698.19 184.26 697.215C184.77 698.205 185.4 699.015 186.21 699.6C186.42 699.255 186.84 698.73 187.125 698.475C186.225 697.92 185.52 697.035 184.98 695.925C185.73 694.305 186.18 692.34 186.45 689.985L186.96 689.985L186.96 688.77L183.975 688.77C184.17 687.87 184.32 686.91 184.44 685.95L183.135 685.755C182.91 687.945 182.505 690.09 181.74 691.62L176.775 691.62ZM177 686.97L177 690.66L181.815 690.66L181.815 686.97L180.825 686.97L180.825 689.52L179.94 689.52L179.94 685.74L178.89 685.74L178.89 689.52L177.945 689.52L177.945 686.97L177 686.97ZM175.665 688.815C174.945 690.345 173.805 691.92 172.71 692.97C172.95 693.255 173.355 693.93 173.505 694.23C173.88 693.855 174.24 693.42 174.615 692.94L174.615 699.645L175.905 699.645L175.905 691.065C176.28 690.465 176.625 689.85 176.91 689.25L175.665 688.815ZM193.245 690.36L193.245 691.5L200.655 691.5L200.655 690.36L193.245 690.36ZM193.245 692.505L193.245 693.645L200.655 693.645L200.655 692.505L193.245 692.505ZM193.035 694.725L193.035 699.645L194.25 699.645L194.25 699.12L199.56 699.12L199.56 699.6L200.82 699.6L200.82 694.725L193.035 694.725ZM194.25 697.965L194.25 695.88L199.56 695.88L199.56 697.965L194.25 697.965ZM195.6 686.19C195.99 686.79 196.41 687.6 196.635 688.155L192.165 688.155L192.165 689.325L201.795 689.325L201.795 688.155L196.86 688.155L197.91 687.69C197.7 687.15 197.235 686.34 196.815 685.725L195.6 686.19ZM191.205 685.8C190.47 688.005 189.24 690.195 187.92 691.635C188.16 691.95 188.55 692.685 188.685 693C189.12 692.505 189.555 691.935 189.96 691.305L189.96 699.705L191.265 699.705L191.265 689.025C191.73 688.095 192.135 687.135 192.465 686.175L191.205 685.8ZM205.53 695.85C206.475 696.6 207.57 697.695 208.035 698.46L209.07 697.5C208.62 696.84 207.69 695.925 206.82 695.235L212.01 695.235L212.01 698.07C212.01 698.295 211.92 698.37 211.62 698.37C211.335 698.385 210.21 698.385 209.175 698.355C209.37 698.715 209.595 699.255 209.67 699.63C211.095 699.63 212.04 699.615 212.655 699.435C213.27 699.24 213.48 698.88 213.48 698.1L213.48 695.235L216.675 695.235L216.675 693.915L213.48 693.915L213.48 692.88L212.01 692.88L212.01 693.915L203.385 693.915L203.385 695.235L206.205 695.235L205.53 695.85ZM204.435 686.895L204.435 690.615C204.435 692.175 205.26 692.52 207.93 692.52C208.545 692.52 212.955 692.52 213.6 692.52C215.61 692.52 216.18 692.175 216.405 690.645C215.985 690.57 215.4 690.42 215.04 690.225C214.92 691.185 214.68 691.365 213.48 691.365C212.475 691.365 208.635 691.365 207.87 691.365C206.22 691.365 205.92 691.23 205.92 690.6L205.92 690.03L214.89 690.03L214.89 686.25L204.435 686.25L204.435 686.895ZM205.92 687.48L213.495 687.48L213.495 688.785L205.92 688.785L205.92 687.48ZM221.775 687.18C222.75 687.84 223.515 688.665 224.16 689.565C223.215 693.72 221.355 696.705 218.055 698.385C218.43 698.64 219.105 699.24 219.36 699.525C222.255 697.83 224.16 695.16 225.315 691.47C226.905 694.395 228.075 697.68 231.36 699.525C231.435 699.075 231.81 698.295 232.05 697.905C227.115 694.89 227.445 689.415 222.645 685.95L221.775 687.18Z"></path></g></g><defs><clipPath id="clip-path-bbDRf1B8WandnIjmBNWy2"><path d="M0 844L390 844L390 0L0 0L0 844Z" fill="white"/></clipPath></defs></svg>