<svg xmlns="http://www.w3.org/2000/svg" xmlns:xlink="http://www.w3.org/1999/xlink" width="390" height="844" viewBox="0 0 390 844" fill="none"><g  clip-path="url(#clip-path-ErsK0aoybrU3AK4KRBqc7)"><rect x="0" y="0" width="390" height="54"   fill="#E8F4FD" ></rect><g ><path     fill="#333333"  d="M33.66 38.61C35.775 38.61 37.755 36.84 37.755 32.505C37.755 28.845 36.045 27.15 33.93 27.15C32.145 27.15 30.63 28.59 30.63 30.78C30.63 33.09 31.89 34.26 33.735 34.26C34.575 34.26 35.505 33.765 36.135 32.985C36.045 36.105 34.92 37.17 33.57 37.17C32.88 37.17 32.205 36.855 31.77 36.345L30.825 37.425C31.47 38.085 32.37 38.61 33.66 38.61ZM36.12 31.65C35.49 32.61 34.71 33 34.035 33C32.88 33 32.25 32.175 32.25 30.78C32.25 29.34 33 28.485 33.96 28.485C35.145 28.485 35.955 29.475 36.12 31.65ZM40.785 32.7C41.445 32.7 41.955 32.205 41.955 31.5C41.955 30.78 41.445 30.27 40.785 30.27C40.14 30.27 39.63 30.78 39.63 31.5C39.63 32.205 40.14 32.7 40.785 32.7ZM40.785 38.61C41.445 38.61 41.955 38.085 41.955 37.38C41.955 36.675 41.445 36.165 40.785 36.165C40.14 36.165 39.63 36.675 39.63 37.38C39.63 38.085 40.14 38.61 40.785 38.61ZM48.105 38.4L49.725 38.4L49.725 35.43L51.12 35.43L51.12 34.08L49.725 34.08L49.725 27.345L47.715 27.345L43.32 34.275L43.32 35.43L48.105 35.43L48.105 38.4ZM48.105 34.08L45.075 34.08L47.235 30.765C47.55 30.195 47.85 29.625 48.12 29.055L48.18 29.055C48.15 29.67 48.105 30.6 48.105 31.2L48.105 34.08ZM52.845 38.4L59.16 38.4L59.16 36.975L57.015 36.975L57.015 27.345L55.71 27.345C55.065 27.75 54.33 28.02 53.295 28.2L53.295 29.295L55.275 29.295L55.275 36.975L52.845 36.975L52.845 38.4Z"></path></g><g ><path     fill="#333333"  d="M341.5 40.2L353.5 40.2L353.5 25.2L341.5 25.2L341.5 40.2ZM347.5 32.085L342.73 25.95L352.27 25.95L347.5 32.085ZM347.98 32.7L352.75 26.565L352.75 38.835L347.98 32.7ZM342.73 39.45L347.5 33.315L352.27 39.45L342.73 39.45ZM342.25 26.565L347.02 32.7L342.25 38.835L342.25 26.565ZM356.5 40.2L368.5 40.2L368.5 25.2L356.5 25.2L356.5 40.2ZM362.5 32.085L357.73 25.95L367.27 25.95L362.5 32.085ZM362.98 32.7L367.75 26.565L367.75 38.835L362.98 32.7ZM357.73 39.45L362.5 33.315L367.27 39.45L357.73 39.45ZM357.25 26.565L362.02 32.7L357.25 38.835L357.25 26.565ZM371.5 40.2L383.5 40.2L383.5 25.2L371.5 25.2L371.5 40.2ZM377.5 32.085L372.73 25.95L382.27 25.95L377.5 32.085ZM377.98 32.7L382.75 26.565L382.75 38.835L377.98 32.7ZM372.73 39.45L377.5 33.315L382.27 39.45L372.73 39.45ZM372.25 26.565L377.02 32.7L372.25 38.835L372.25 26.565Z"></path></g><rect x="0" y="54" width="390" height="60"   fill="#E8F4FD" ></rect><g ></g><g ><path     fill="#2C5F8A"  d="M167.28 87.052L167.28 98.302L168.684 98.302L168.684 87.052L167.28 87.052ZM168.108 81.742C166.308 84.748 163.032 87.376 159.63 88.852C160.008 89.176 160.404 89.698 160.638 90.094C163.41 88.744 166.074 86.656 168.018 84.172C170.412 86.98 172.788 88.708 175.452 90.112C175.668 89.68 176.082 89.176 176.442 88.888C173.67 87.538 171.114 85.846 168.81 83.092L169.314 82.3L168.108 81.742ZM185.226 81.814C185.172 84.586 185.28 93.388 177.774 97.186C178.188 97.474 178.62 97.906 178.872 98.248C183.282 95.89 185.19 91.858 186.036 88.24C186.918 91.606 188.862 96.052 193.38 98.176C193.596 97.798 193.992 97.33 194.37 97.042C187.998 94.18 186.882 86.638 186.612 84.478C186.702 83.398 186.72 82.48 186.738 81.814L185.226 81.814ZM201.876 87.322L201.876 88.438L210.642 88.438L210.642 87.322L201.876 87.322ZM201.876 89.878L201.876 90.976L210.642 90.976L210.642 89.878L201.876 89.878ZM200.58 84.73L200.58 85.882L212.046 85.882L212.046 84.73L200.58 84.73ZM204.738 82.21C205.224 82.966 205.764 83.992 206.016 84.64L207.222 84.1C206.97 83.47 206.43 82.498 205.908 81.76L204.738 82.21ZM201.642 92.506L201.642 98.32L202.812 98.32L202.812 97.6L209.598 97.6L209.598 98.266L210.822 98.266L210.822 92.506L201.642 92.506ZM202.812 96.484L202.812 93.622L209.598 93.622L209.598 96.484L202.812 96.484ZM199.608 81.832C198.69 84.55 197.196 87.25 195.576 89.014C195.81 89.32 196.206 89.986 196.332 90.274C196.926 89.608 197.502 88.816 198.042 87.97L198.042 98.374L199.284 98.374L199.284 85.792C199.878 84.64 200.4 83.416 200.814 82.192L199.608 81.832ZM217.788 86.98L226.14 86.98L226.14 88.42L217.788 88.42L217.788 86.98ZM217.788 89.464L226.14 89.464L226.14 90.922L217.788 90.922L217.788 89.464ZM217.788 84.514L226.14 84.514L226.14 85.954L217.788 85.954L217.788 84.514ZM217.716 93.244L217.716 96.178C217.716 97.618 218.274 97.996 220.362 97.996C220.794 97.996 224.052 97.996 224.502 97.996C226.248 97.996 226.698 97.456 226.878 95.152C226.5 95.08 225.924 94.882 225.618 94.666C225.528 96.502 225.384 96.754 224.412 96.754C223.692 96.754 220.974 96.754 220.434 96.754C219.282 96.754 219.066 96.664 219.066 96.16L219.066 93.244L217.716 93.244ZM226.734 93.424C227.562 94.558 228.426 96.106 228.732 97.096L230.01 96.52C229.668 95.53 228.786 94.018 227.94 92.92L226.734 93.424ZM215.664 93.208C215.232 94.342 214.53 95.89 213.81 96.88L215.052 97.474C215.718 96.43 216.366 94.846 216.816 93.712L215.664 93.208ZM220.542 92.56C221.46 93.406 222.504 94.612 222.954 95.422L224.052 94.738C223.566 93.964 222.54 92.812 221.604 92.002L227.49 92.002L227.49 83.434L222.108 83.434C222.378 82.966 222.684 82.408 222.954 81.85L221.37 81.58C221.226 82.102 220.938 82.84 220.704 83.434L216.492 83.434L216.492 92.002L221.514 92.002L220.542 92.56Z"></path></g><circle cx="195" cy="170" r="45"   fill="#5B9BD5" ></circle><g ><path     fill="#FFFFFF"  d="M204.436 160.052C202.98 162.74 200.516 165.344 197.912 166.996C198.5 167.416 199.508 168.34 199.928 168.788C202.616 166.884 205.332 163.888 207.04 160.78L204.436 160.052ZM184.108 166.072C183.968 169.012 183.576 172.792 183.212 175.172L184.612 175.172L188.616 175.2C188.364 179.764 188.084 181.584 187.58 182.088C187.328 182.34 187.048 182.396 186.572 182.396C186.04 182.396 184.724 182.368 183.352 182.256C183.8 182.9 184.108 183.88 184.164 184.58C185.592 184.664 186.992 184.664 187.748 184.58C188.672 184.496 189.26 184.272 189.82 183.656C190.66 182.788 190.996 180.268 191.332 173.828C191.36 173.52 191.388 172.82 191.388 172.82L185.956 172.82L186.348 168.564L191.22 168.564L191.22 159.772L183.38 159.772L183.38 162.208L188.672 162.208L188.672 166.072L184.108 166.072ZM194.188 184.972C194.692 184.524 195.56 184.132 201.048 181.836C200.936 181.248 200.88 180.1 200.908 179.344L197.072 180.8L197.072 171.98L199.452 171.98C200.74 177.412 203.008 181.948 206.592 184.412C206.984 183.74 207.796 182.788 208.412 182.284C205.22 180.324 203.092 176.432 201.944 171.98L207.88 171.98L207.88 169.46L197.072 169.46L197.072 159.38L194.44 159.38L194.44 169.46L191.584 169.46L191.584 171.98L194.44 171.98L194.44 180.688C194.44 181.836 193.656 182.452 193.124 182.732C193.516 183.236 194.02 184.328 194.188 184.972Z"></path></g><g ><path     fill="#5B9BD5"  d="M250.56 173.484L250.812 174.45C251.96 173.988 253.43 173.386 254.844 172.798L254.648 171.958C253.122 172.546 251.596 173.134 250.56 173.484ZM250.854 168.318C251.05 168.22 251.372 168.15 252.87 167.94C252.338 168.836 251.848 169.55 251.624 169.816C251.218 170.348 250.924 170.712 250.63 170.768C250.742 171.02 250.896 171.496 250.952 171.692C251.218 171.524 251.652 171.384 254.746 170.67C254.704 170.446 254.662 170.068 254.676 169.802L252.338 170.292C253.332 169.004 254.298 167.436 255.096 165.882L254.242 165.392C254.004 165.938 253.71 166.484 253.43 167.002L251.862 167.17C252.66 165.938 253.444 164.356 254.018 162.83L253.01 162.48C252.506 164.174 251.568 166.022 251.274 166.484C250.994 166.96 250.77 167.296 250.532 167.366C250.644 167.618 250.798 168.108 250.854 168.318ZM258.736 169.34L258.736 171.412L257.574 171.412L257.574 169.34L258.736 169.34ZM259.45 169.34L260.444 169.34L260.444 171.412L259.45 171.412L259.45 169.34ZM256.734 168.472L256.734 175.248L257.574 175.248L257.574 172.238L258.736 172.238L258.736 174.898L259.45 174.898L259.45 172.238L260.444 172.238L260.444 174.884L261.158 174.884L261.158 172.238L262.194 172.238L262.194 174.338C262.194 174.436 262.152 174.464 262.054 174.478C261.956 174.478 261.704 174.478 261.396 174.464C261.508 174.688 261.606 175.024 261.634 175.262C262.138 175.262 262.46 175.234 262.712 175.108C262.964 174.968 263.02 174.73 263.02 174.352L263.02 168.458L262.194 168.472L256.734 168.472ZM261.158 169.34L262.194 169.34L262.194 171.412L261.158 171.412L261.158 169.34ZM258.47 162.676C258.694 163.068 258.918 163.572 259.072 163.992L255.796 163.992L255.796 167.03C255.796 169.186 255.67 172.294 254.396 174.534C254.606 174.632 255.04 174.94 255.208 175.122C256.51 172.854 256.748 169.55 256.762 167.268L262.88 167.268L262.88 163.992L260.206 163.992C260.038 163.53 259.758 162.886 259.45 162.396L258.47 162.676ZM256.762 164.888L261.9 164.888L261.9 166.386L256.762 166.386L256.762 164.888ZM271.714 163.726L275.466 163.726L275.466 165.14L271.714 165.14L271.714 163.726ZM270.748 162.928L270.748 165.924L276.488 165.924L276.488 162.928L270.748 162.928ZM265.134 169.592C265.246 169.48 265.666 169.396 266.142 169.396L267.416 169.396L267.416 171.412L264.56 171.902L264.784 172.924L267.416 172.392L267.416 175.304L268.382 175.304L268.382 172.196L269.978 171.874L269.922 170.964L268.382 171.244L268.382 169.396L269.67 169.396L269.67 168.444L268.382 168.444L268.382 166.288L267.416 166.288L267.416 168.444L266.072 168.444C266.464 167.478 266.856 166.33 267.192 165.14L269.768 165.14L269.768 164.132L267.458 164.132C267.57 163.656 267.682 163.166 267.766 162.69L266.744 162.48C266.674 163.026 266.562 163.586 266.436 164.132L264.658 164.132L264.658 165.14L266.198 165.14C265.904 166.26 265.61 167.184 265.47 167.534C265.232 168.15 265.05 168.598 264.812 168.668C264.924 168.92 265.078 169.396 265.134 169.592ZM275.41 167.632L275.41 168.836L271.84 168.836L271.84 167.632L275.41 167.632ZM269.6 173.176L269.768 174.128L275.41 173.68L275.41 175.36L276.39 175.36L276.39 173.596L277.426 173.512L277.44 172.63L276.39 172.7L276.39 167.632L277.342 167.632L277.342 166.75L269.922 166.75L269.922 167.632L270.874 167.632L270.874 173.092L269.6 173.176ZM275.41 169.634L275.41 170.852L271.84 170.852L271.84 169.634L275.41 169.634ZM275.41 171.65L275.41 172.77L271.84 173.036L271.84 171.65L275.41 171.65Z"></path></g><g opacity="0.9"><rect  x="40" y="240" width="310" height="55" rx="14"    fill="#FFFFFF" ></rect></g><g ><path     fill="#4A6A85"  d="M66.958 260.076L71.97 260.076L71.97 262.092L66.958 262.092L66.958 260.076ZM65.978 259.138L65.978 263.926C65.978 266.04 65.824 268.784 64.172 270.674C64.424 270.8 64.844 271.066 65.012 271.234C66.72 269.246 66.958 266.194 66.958 263.926L66.958 263.03L72.964 263.03L72.964 259.138L65.978 259.138ZM72.376 264.514C71.606 265.172 70.304 265.928 69.03 266.516L69.03 263.562L68.036 263.562L68.036 269.652C68.036 270.87 68.372 271.192 69.66 271.192C69.912 271.192 71.69 271.192 71.97 271.192C73.118 271.192 73.398 270.632 73.524 268.686C73.244 268.616 72.824 268.448 72.6 268.266C72.53 269.946 72.446 270.24 71.9 270.24C71.508 270.24 70.024 270.24 69.744 270.24C69.128 270.24 69.03 270.156 69.03 269.652L69.03 267.44C70.5 266.824 72.082 266.054 73.174 265.256L72.376 264.514ZM63.808 264.444L63.808 267.664L61.988 267.664L61.988 264.444L63.808 264.444ZM63.808 263.506L61.988 263.506L61.988 260.398L63.808 260.398L63.808 263.506ZM61.05 259.46L61.05 269.736L61.988 269.736L61.988 268.616L64.76 268.616L64.76 259.46L61.05 259.46ZM81.168 263.94C80.846 265.69 80.286 267.44 79.488 268.56C79.726 268.686 80.16 268.952 80.342 269.106C81.14 267.888 81.77 266.026 82.148 264.122L81.168 263.94ZM84.948 264.08C85.564 265.606 86.152 267.65 86.348 268.966L87.328 268.658C87.104 267.342 86.516 265.354 85.872 263.8L84.948 264.08ZM81.448 258.508C81.126 260.3 80.538 262.078 79.712 263.296L79.712 262.498L77.906 262.498L77.906 260.006C78.578 259.838 79.208 259.642 79.726 259.432L79.096 258.606C78.088 259.054 76.352 259.46 74.882 259.712C74.994 259.95 75.134 260.3 75.176 260.524C75.736 260.44 76.338 260.342 76.926 260.23L76.926 262.498L74.756 262.498L74.756 263.478L76.8 263.478C76.268 265.088 75.316 266.908 74.462 267.902C74.63 268.14 74.882 268.546 74.98 268.798C75.666 267.944 76.366 266.572 76.926 265.172L76.926 271.374L77.906 271.374L77.906 265.06C78.354 265.676 78.886 266.46 79.11 266.866L79.726 266.04C79.46 265.69 78.312 264.416 77.906 264.01L77.906 263.478L79.572 263.478L79.516 263.562C79.768 263.688 80.216 263.954 80.412 264.108C80.916 263.366 81.378 262.4 81.742 261.322L83.142 261.322L83.142 270.072C83.142 270.254 83.086 270.31 82.904 270.31C82.722 270.324 82.106 270.324 81.448 270.31C81.602 270.576 81.756 271.024 81.826 271.304C82.694 271.304 83.296 271.276 83.674 271.122C84.052 270.954 84.192 270.66 84.192 270.072L84.192 261.322L86.082 261.322C85.872 261.826 85.592 262.386 85.34 262.876L86.278 263.1C86.656 262.302 87.076 261.35 87.412 260.482L86.726 260.286L86.572 260.342L82.064 260.342C82.204 259.81 82.344 259.264 82.456 258.704L81.448 258.508Z"></path></g><g ><path     fill="#2C5F8A"  d="M269.844 259.11C269.06 260.552 267.758 261.91 266.372 262.778C266.61 262.932 267.016 263.296 267.184 263.478C268.584 262.512 269.984 261 270.866 259.404L269.844 259.11ZM259.638 262.162C259.568 263.52 259.4 265.312 259.232 266.418L262.032 266.418C261.892 268.938 261.724 269.946 261.472 270.198C261.346 270.324 261.206 270.352 260.968 270.352C260.716 270.352 260.03 270.338 259.316 270.282C259.484 270.548 259.61 270.94 259.624 271.22C260.338 271.262 261.038 271.262 261.402 271.234C261.836 271.192 262.102 271.108 262.354 270.828C262.76 270.408 262.928 269.19 263.096 265.9C263.11 265.76 263.124 265.466 263.124 265.466L260.324 265.466C260.408 264.766 260.478 263.94 260.548 263.156L263.04 263.156L263.04 259.012L259.302 259.012L259.302 259.992L262.032 259.992L262.032 262.162L259.638 262.162ZM264.636 271.43C264.86 271.234 265.252 271.066 268.038 269.89C268.01 269.666 267.982 269.218 267.982 268.91L265.868 269.708L265.868 264.92L267.24 264.92C267.884 267.636 269.074 269.932 270.88 271.164C271.048 270.884 271.37 270.52 271.608 270.31C269.956 269.316 268.808 267.272 268.22 264.92L271.412 264.92L271.412 263.912L265.868 263.912L265.868 258.76L264.832 258.76L264.832 263.912L263.264 263.912L263.264 264.92L264.832 264.92L264.832 269.582C264.832 270.142 264.44 270.408 264.188 270.534C264.356 270.744 264.566 271.178 264.636 271.43ZM272.56 269.442L272.756 270.492C274.044 270.142 275.752 269.708 277.362 269.274L277.25 268.35C275.514 268.77 273.736 269.204 272.56 269.442ZM272.812 264.318C273.022 264.22 273.372 264.136 275.178 263.884C274.534 264.78 273.946 265.48 273.666 265.76C273.204 266.278 272.882 266.614 272.56 266.67C272.686 266.964 272.854 267.468 272.91 267.692C273.218 267.51 273.694 267.37 277.292 266.656C277.278 266.432 277.278 266.012 277.306 265.732L274.52 266.236C275.626 265.004 276.732 263.506 277.67 261.994L276.76 261.406C276.48 261.924 276.158 262.442 275.836 262.932L273.918 263.128C274.772 261.924 275.612 260.412 276.27 258.942L275.276 258.48C274.688 260.16 273.624 261.98 273.288 262.442C272.98 262.932 272.728 263.254 272.462 263.31C272.588 263.59 272.756 264.108 272.812 264.318ZM277.936 259.222L277.936 260.188L282.878 260.188C281.59 262.008 279.21 263.492 276.998 264.234C277.208 264.444 277.502 264.85 277.642 265.102C278.888 264.64 280.162 263.996 281.296 263.184C282.598 263.744 284.124 264.542 284.922 265.088L285.524 264.22C284.754 263.73 283.368 263.044 282.136 262.526C283.116 261.686 283.942 260.706 284.502 259.572L283.746 259.18L283.55 259.222L277.936 259.222ZM278.034 265.592L278.034 266.558L280.82 266.558L280.82 269.988L277.194 269.988L277.194 270.968L285.454 270.968L285.454 269.988L281.856 269.988L281.856 266.558L284.796 266.558L284.796 265.592L278.034 265.592ZM292.664 262.68L294.806 262.68L294.806 264.486L292.664 264.486L292.664 262.68ZM295.716 262.68L297.858 262.68L297.858 264.486L295.716 264.486L295.716 262.68ZM292.664 260.048L294.806 260.048L294.806 261.826L292.664 261.826L292.664 260.048ZM295.716 260.048L297.858 260.048L297.858 261.826L295.716 261.826L295.716 260.048ZM290.452 269.932L290.452 270.898L299.538 270.898L299.538 269.932L295.8 269.932L295.8 268L299.062 268L299.062 267.048L295.8 267.048L295.8 265.396L298.866 265.396L298.866 259.124L291.698 259.124L291.698 265.396L294.722 265.396L294.722 267.048L291.53 267.048L291.53 268L294.722 268L294.722 269.932L290.452 269.932ZM286.49 268.84L286.756 269.904C287.988 269.498 289.598 268.952 291.11 268.448L290.928 267.426L289.388 267.944L289.388 264.458L290.802 264.458L290.802 263.478L289.388 263.478L289.388 260.412L291.012 260.412L291.012 259.432L286.644 259.432L286.644 260.412L288.38 260.412L288.38 263.478L286.784 263.478L286.784 264.458L288.38 264.458L288.38 268.266C287.666 268.49 287.022 268.686 286.49 268.84Z"></path></g><g ><path     fill="#B0D4F0"  d="M311.6 269.376L314.032 266.608L314.032 265.504L311.6 262.72L310.96 263.264L313.072 266.064L310.96 268.88L311.6 269.376Z"></path></g><g opacity="0.9"><rect  x="40" y="305" width="310" height="55" rx="14"    fill="#FFFFFF" ></rect></g><g ><path     fill="#4A6A85"  d="M60.7 330.732L60.7 331.768L66.482 331.768L66.482 334.89C66.482 335.17 66.356 335.268 66.048 335.282C65.726 335.282 64.62 335.296 63.444 335.268C63.612 335.548 63.808 336.01 63.892 336.304C65.362 336.318 66.286 336.304 66.818 336.122C67.336 335.954 67.56 335.646 67.56 334.89L67.56 331.768L73.342 331.768L73.342 330.732L67.56 330.732L67.56 328.464L72.544 328.464L72.544 327.456L67.56 327.456L67.56 325.174C69.212 324.978 70.752 324.698 71.942 324.348L71.172 323.494C69.03 324.166 64.956 324.53 61.624 324.698C61.722 324.922 61.848 325.342 61.876 325.608C63.332 325.552 64.928 325.454 66.482 325.3L66.482 327.456L61.638 327.456L61.638 328.464L66.482 328.464L66.482 330.732L60.7 330.732ZM80.972 324.278L80.972 328.772C80.972 330.942 80.776 333.728 78.886 335.688C79.124 335.814 79.53 336.164 79.684 336.36C81.7 334.288 81.994 331.11 81.994 328.772L81.994 325.272L84.626 325.272L84.626 334.288C84.626 335.492 84.71 335.744 84.948 335.954C85.158 336.136 85.466 336.22 85.746 336.22C85.928 336.22 86.25 336.22 86.46 336.22C86.754 336.22 87.006 336.164 87.202 336.024C87.412 335.884 87.524 335.646 87.594 335.24C87.65 334.89 87.706 333.854 87.706 333.056C87.44 332.972 87.118 332.804 86.908 332.608C86.894 333.546 86.88 334.288 86.838 334.61C86.824 334.932 86.782 335.058 86.698 335.142C86.642 335.212 86.53 335.24 86.418 335.24C86.278 335.24 86.11 335.24 86.012 335.24C85.9 335.24 85.83 335.212 85.76 335.156C85.69 335.1 85.662 334.834 85.662 334.372L85.662 324.278L80.972 324.278ZM77.052 323.48L77.052 326.476L74.728 326.476L74.728 327.484L76.912 327.484C76.408 329.43 75.386 331.614 74.392 332.79C74.56 333.042 74.826 333.462 74.938 333.742C75.722 332.776 76.478 331.194 77.052 329.556L77.052 336.346L78.074 336.346L78.074 329.92C78.62 330.62 79.278 331.488 79.558 331.964L80.216 331.096C79.894 330.732 78.564 329.234 78.074 328.744L78.074 327.484L80.146 327.484L80.146 326.476L78.074 326.476L78.074 323.48L77.052 323.48ZM91.64 324.992L98.304 324.992L98.304 326.896L91.64 326.896L91.64 324.992ZM90.59 324.054L90.59 327.82L99.41 327.82L99.41 324.054L90.59 324.054ZM88.882 329.08L88.882 330.046L91.766 330.046C91.486 330.914 91.136 331.88 90.842 332.566L98.178 332.566C97.912 334.19 97.632 334.974 97.282 335.254C97.114 335.366 96.946 335.38 96.61 335.38C96.218 335.38 95.196 335.366 94.216 335.268C94.412 335.562 94.552 335.968 94.58 336.276C95.546 336.332 96.47 336.346 96.946 336.318C97.492 336.304 97.828 336.22 98.164 335.94C98.682 335.492 99.032 334.442 99.368 332.09C99.396 331.936 99.424 331.614 99.424 331.614L92.41 331.614L92.928 330.046L101.062 330.046L101.062 329.08L88.882 329.08Z"></path></g><g ><path     fill="#2C5F8A"  d="M220.69 335.24L226.318 335.24L226.318 334.176L224.26 334.176L224.26 324.978L223.28 324.978C222.72 325.3 222.062 325.538 221.152 325.706L221.152 326.518L222.986 326.518L222.986 334.176L220.69 334.176L220.69 335.24ZM230.91 335.422C232.744 335.422 234.214 334.33 234.214 332.496C234.214 331.082 233.248 330.186 232.044 329.892L232.044 329.822C233.136 329.444 233.864 328.604 233.864 327.358C233.864 325.734 232.604 324.796 230.868 324.796C229.692 324.796 228.782 325.314 228.012 326.014L228.698 326.826C229.286 326.238 230 325.832 230.826 325.832C231.904 325.832 232.562 326.476 232.562 327.456C232.562 328.562 231.848 329.416 229.72 329.416L229.72 330.396C232.1 330.396 232.912 331.208 232.912 332.454C232.912 333.63 232.058 334.358 230.826 334.358C229.664 334.358 228.894 333.798 228.292 333.182L227.634 334.008C228.306 334.75 229.314 335.422 230.91 335.422ZM238.918 335.422C240.836 335.422 242.124 334.26 242.124 332.776C242.124 331.362 241.298 330.592 240.402 330.074L240.402 330.004C241.004 329.528 241.76 328.604 241.76 327.526C241.76 325.944 240.696 324.824 238.946 324.824C237.35 324.824 236.132 325.874 236.132 327.428C236.132 328.506 236.776 329.276 237.518 329.794L237.518 329.85C236.58 330.354 235.642 331.32 235.642 332.692C235.642 334.274 237.014 335.422 238.918 335.422ZM239.618 329.668C238.4 329.192 237.294 328.646 237.294 327.428C237.294 326.434 237.98 325.776 238.932 325.776C240.024 325.776 240.668 326.574 240.668 327.596C240.668 328.352 240.304 329.052 239.618 329.668ZM238.932 334.47C237.7 334.47 236.776 333.672 236.776 332.58C236.776 331.6 237.364 330.788 238.19 330.256C239.646 330.844 240.906 331.348 240.906 332.734C240.906 333.756 240.122 334.47 238.932 334.47ZM244.924 328.646L246.044 327.316L247.136 328.646L247.752 328.212L246.856 326.742L248.382 326.098L248.144 325.384L246.548 325.776L246.408 324.096L245.652 324.096L245.512 325.79L243.916 325.384L243.678 326.098L245.19 326.742L244.308 328.212L244.924 328.646ZM251.462 328.646L252.582 327.316L253.674 328.646L254.29 328.212L253.394 326.742L254.92 326.098L254.682 325.384L253.086 325.776L252.946 324.096L252.19 324.096L252.05 325.79L250.454 325.384L250.216 326.098L251.728 326.742L250.846 328.212L251.462 328.646ZM258 328.646L259.12 327.316L260.212 328.646L260.828 328.212L259.932 326.742L261.458 326.098L261.22 325.384L259.624 325.776L259.484 324.096L258.728 324.096L258.588 325.79L256.992 325.384L256.754 326.098L258.266 326.742L257.384 328.212L258 328.646ZM264.538 328.646L265.658 327.316L266.75 328.646L267.366 328.212L266.47 326.742L267.996 326.098L267.758 325.384L266.162 325.776L266.022 324.096L265.266 324.096L265.126 325.79L263.53 325.384L263.292 326.098L264.804 326.742L263.922 328.212L264.538 328.646ZM270.152 335.24L275.78 335.24L275.78 334.176L273.722 334.176L273.722 324.978L272.742 324.978C272.182 325.3 271.524 325.538 270.614 325.706L270.614 326.518L272.448 326.518L272.448 334.176L270.152 334.176L270.152 335.24ZM277.306 335.24L283.76 335.24L283.76 334.134L280.918 334.134C280.4 334.134 279.77 334.19 279.238 334.232C281.646 331.95 283.27 329.864 283.27 327.806C283.27 325.986 282.108 324.796 280.274 324.796C278.972 324.796 278.076 325.384 277.25 326.294L277.992 327.022C278.566 326.336 279.28 325.832 280.12 325.832C281.394 325.832 282.01 326.686 282.01 327.862C282.01 329.626 280.526 331.67 277.306 334.484L277.306 335.24ZM288.142 335.422C289.976 335.422 291.446 334.33 291.446 332.496C291.446 331.082 290.48 330.186 289.276 329.892L289.276 329.822C290.368 329.444 291.096 328.604 291.096 327.358C291.096 325.734 289.836 324.796 288.1 324.796C286.924 324.796 286.014 325.314 285.244 326.014L285.93 326.826C286.518 326.238 287.232 325.832 288.058 325.832C289.136 325.832 289.794 326.476 289.794 327.456C289.794 328.562 289.08 329.416 286.952 329.416L286.952 330.396C289.332 330.396 290.144 331.208 290.144 332.454C290.144 333.63 289.29 334.358 288.058 334.358C286.896 334.358 286.126 333.798 285.524 333.182L284.866 334.008C285.538 334.75 286.546 335.422 288.142 335.422ZM296.99 335.24L298.194 335.24L298.194 332.412L299.566 332.412L299.566 331.39L298.194 331.39L298.194 324.978L296.78 324.978L292.51 331.572L292.51 332.412L296.99 332.412L296.99 335.24ZM296.99 331.39L293.84 331.39L296.178 327.89C296.472 327.386 296.752 326.868 297.004 326.378L297.06 326.378C297.032 326.896 296.99 327.736 296.99 328.24L296.99 331.39Z"></path></g><g opacity="0.9"><rect  x="40" y="370" width="310" height="55" rx="14"    fill="#FFFFFF" ></rect></g><g ><path     fill="#4A6A85"  d="M62.114 395.41L63.836 395.41L63.836 398.63L62.114 398.63L62.114 395.41ZM62.114 394.5L62.114 391.546L63.836 391.546L63.836 394.5L62.114 394.5ZM66.44 395.41L66.44 398.63L64.76 398.63L64.76 395.41L66.44 395.41ZM66.44 394.5L64.76 394.5L64.76 391.546L66.44 391.546L66.44 394.5ZM63.78 388.494L63.78 390.622L61.19 390.622L61.19 400.464L62.114 400.464L62.114 399.54L66.44 399.54L66.44 400.268L67.406 400.268L67.406 390.622L64.816 390.622L64.816 388.494L63.78 388.494ZM68.764 389.236L68.764 401.346L69.688 401.346L69.688 390.23L71.956 390.23C71.564 391.336 71.004 392.792 70.472 393.968C71.76 395.242 72.124 396.278 72.124 397.146C72.138 397.636 72.04 398.07 71.746 398.252C71.592 398.336 71.382 398.378 71.158 398.392C70.864 398.406 70.472 398.406 70.038 398.364C70.206 398.658 70.304 399.078 70.332 399.358C70.752 399.372 71.214 399.386 71.578 399.344C71.914 399.302 72.222 399.218 72.446 399.05C72.922 398.742 73.104 398.056 73.104 397.23C73.104 396.264 72.796 395.158 71.522 393.842C72.11 392.526 72.782 390.944 73.286 389.656L72.558 389.194L72.39 389.236L68.764 389.236ZM81.98 396.138L85.718 396.138L85.718 397.566L81.98 397.566L81.98 396.138ZM81.98 395.312L81.98 393.926L85.718 393.926L85.718 395.312L81.98 395.312ZM81.98 398.392L85.718 398.392L85.718 399.848L81.98 399.848L81.98 398.392ZM80.958 392.974L80.958 401.346L81.98 401.346L81.98 400.73L85.718 400.73L85.718 401.262L86.782 401.262L86.782 392.974L80.958 392.974ZM76.59 388.424C76.142 389.838 75.386 391.238 74.504 392.148C74.756 392.288 75.204 392.582 75.4 392.736C75.862 392.204 76.31 391.504 76.716 390.734L77.276 390.734C77.57 391.294 77.836 391.966 77.976 392.456L77.29 392.456L77.29 394.052L74.84 394.052L74.84 395.032L77.08 395.032C76.464 396.53 75.414 398.168 74.462 399.05C74.714 399.246 74.994 399.61 75.148 399.862C75.876 399.078 76.66 397.888 77.29 396.684L77.29 401.36L78.298 401.36L78.298 396.656C78.886 397.286 79.572 398.056 79.88 398.476L80.552 397.65C80.216 397.3 78.872 396.04 78.298 395.564L78.298 395.032L80.524 395.032L80.524 394.052L78.298 394.052L78.298 392.526L78.956 392.26C78.844 391.854 78.606 391.266 78.34 390.734L80.832 390.734L80.832 389.838L77.15 389.838C77.318 389.446 77.472 389.054 77.598 388.662L76.59 388.424ZM82.092 388.424C81.686 389.81 80.944 391.154 80.02 392.022C80.286 392.162 80.72 392.456 80.916 392.624C81.392 392.12 81.854 391.476 82.246 390.748L83.086 390.748C83.548 391.364 84.024 392.12 84.206 392.638L85.116 392.246C84.934 391.84 84.584 391.266 84.192 390.748L87.272 390.748L87.272 389.838L82.68 389.838C82.848 389.46 82.988 389.068 83.114 388.662L82.092 388.424Z"></path></g><g ><path     fill="#2C5F8A"  d="M159.314 400.24L165.068 400.24L165.068 399.204L160.924 399.204L164.942 393.324L164.942 392.638L159.748 392.638L159.748 393.674L163.318 393.674L159.314 399.554L159.314 400.24ZM166.762 400.24L168.05 400.24L168.05 394.724C168.806 393.954 169.338 393.562 170.122 393.562C171.13 393.562 171.564 394.164 171.564 395.592L171.564 400.24L172.838 400.24L172.838 395.424C172.838 393.492 172.11 392.442 170.514 392.442C169.478 392.442 168.694 393.016 167.994 393.716L168.05 392.148L168.05 389.096L166.762 389.096L166.762 400.24ZM177.01 400.422C177.948 400.422 178.802 399.932 179.53 399.33L179.572 399.33L179.684 400.24L180.734 400.24L180.734 395.564C180.734 393.674 179.964 392.442 178.102 392.442C176.87 392.442 175.806 392.988 175.12 393.436L175.61 394.318C176.212 393.912 177.01 393.506 177.892 393.506C179.138 393.506 179.46 394.444 179.46 395.424C176.226 395.788 174.798 396.614 174.798 398.266C174.798 399.638 175.736 400.422 177.01 400.422ZM177.374 399.386C176.618 399.386 176.03 399.05 176.03 398.182C176.03 397.202 176.898 396.572 179.46 396.278L179.46 398.392C178.718 399.05 178.102 399.386 177.374 399.386ZM183.142 400.24L184.43 400.24L184.43 394.724C185.186 393.954 185.718 393.562 186.502 393.562C187.51 393.562 187.944 394.164 187.944 395.592L187.944 400.24L189.218 400.24L189.218 395.424C189.218 393.492 188.49 392.442 186.894 392.442C185.858 392.442 185.06 393.016 184.346 393.744L184.318 393.744L184.192 392.638L183.142 392.638L183.142 400.24ZM194.244 403.74C196.596 403.74 198.094 402.522 198.094 401.108C198.094 399.848 197.198 399.302 195.448 399.302L193.95 399.302C192.928 399.302 192.62 398.952 192.62 398.476C192.62 398.056 192.83 397.804 193.11 397.566C193.446 397.734 193.866 397.832 194.23 397.832C195.798 397.832 197.016 396.81 197.016 395.186C197.016 394.528 196.764 393.968 196.4 393.618L197.954 393.618L197.954 392.638L195.308 392.638C195.042 392.526 194.664 392.442 194.23 392.442C192.704 392.442 191.388 393.492 191.388 395.158C191.388 396.068 191.878 396.81 192.382 397.202L192.382 397.258C191.976 397.538 191.542 398.042 191.542 398.672C191.542 399.274 191.836 399.68 192.228 399.918L192.228 399.988C191.514 400.422 191.108 401.052 191.108 401.71C191.108 403.012 192.396 403.74 194.244 403.74ZM194.23 396.964C193.362 396.964 192.62 396.264 192.62 395.158C192.62 394.038 193.348 393.38 194.23 393.38C195.14 393.38 195.854 394.038 195.854 395.158C195.854 396.264 195.112 396.964 194.23 396.964ZM194.426 402.858C193.04 402.858 192.228 402.34 192.228 401.528C192.228 401.094 192.452 400.632 192.998 400.24C193.334 400.324 193.698 400.352 193.978 400.352L195.294 400.352C196.302 400.352 196.834 400.604 196.834 401.318C196.834 402.102 195.896 402.858 194.426 402.858ZM204.576 402.662C205.668 402.662 206.648 402.41 207.558 401.864L207.208 401.108C206.522 401.514 205.64 401.808 204.674 401.808C202.014 401.808 200.012 400.072 200.012 397.02C200.012 393.366 202.714 390.986 205.5 390.986C208.342 390.986 209.84 392.834 209.84 395.368C209.84 397.384 208.72 398.602 207.726 398.602C206.872 398.602 206.564 398 206.872 396.754L207.488 393.632L206.648 393.632L206.466 394.276L206.438 394.276C206.144 393.758 205.724 393.506 205.192 393.506C203.358 393.506 202.168 395.48 202.168 397.132C202.168 398.56 202.994 399.358 204.058 399.358C204.758 399.358 205.458 398.882 205.962 398.28L206.004 398.28C206.102 399.078 206.76 399.47 207.614 399.47C209.028 399.47 210.736 398.042 210.736 395.312C210.736 392.232 208.748 390.132 205.612 390.132C202.112 390.132 199.074 392.876 199.074 397.062C199.074 400.716 201.524 402.662 204.576 402.662ZM204.31 398.476C203.68 398.476 203.204 398.07 203.204 397.062C203.204 395.872 203.974 394.402 205.192 394.402C205.626 394.402 205.906 394.57 206.2 395.06L205.766 397.538C205.22 398.196 204.744 398.476 204.31 398.476ZM215.902 400.422C216.924 400.422 217.736 400.086 218.394 399.652L217.946 398.798C217.372 399.176 216.784 399.4 216.042 399.4C214.6 399.4 213.606 398.364 213.522 396.74L218.646 396.74C218.674 396.544 218.702 396.292 218.702 396.012C218.702 393.842 217.61 392.442 215.664 392.442C213.928 392.442 212.262 393.968 212.262 396.446C212.262 398.952 213.872 400.422 215.902 400.422ZM213.508 395.83C213.662 394.318 214.614 393.464 215.692 393.464C216.882 393.464 217.582 394.29 217.582 395.83L213.508 395.83ZM219.5 400.24L220.844 400.24L221.866 398.462C222.132 398 222.37 397.538 222.636 397.104L222.706 397.104C223 397.538 223.28 398 223.532 398.462L224.652 400.24L226.052 400.24L223.546 396.404L225.856 392.638L224.526 392.638L223.588 394.304C223.35 394.738 223.14 395.144 222.916 395.578L222.846 395.578C222.594 395.144 222.328 394.738 222.104 394.304L221.082 392.638L219.696 392.638L222.006 396.278L219.5 400.24ZM229.3 400.422C230.238 400.422 231.092 399.932 231.82 399.33L231.862 399.33L231.974 400.24L233.024 400.24L233.024 395.564C233.024 393.674 232.254 392.442 230.392 392.442C229.16 392.442 228.096 392.988 227.41 393.436L227.9 394.318C228.502 393.912 229.3 393.506 230.182 393.506C231.428 393.506 231.75 394.444 231.75 395.424C228.516 395.788 227.088 396.614 227.088 398.266C227.088 399.638 228.026 400.422 229.3 400.422ZM229.664 399.386C228.908 399.386 228.32 399.05 228.32 398.182C228.32 397.202 229.188 396.572 231.75 396.278L231.75 398.392C231.008 399.05 230.392 399.386 229.664 399.386ZM235.432 400.24L236.72 400.24L236.72 394.724C237.406 393.94 238.05 393.562 238.624 393.562C239.59 393.562 240.038 394.164 240.038 395.592L240.038 400.24L241.312 400.24L241.312 394.724C242.026 393.94 242.642 393.562 243.23 393.562C244.196 393.562 244.644 394.164 244.644 395.592L244.644 400.24L245.918 400.24L245.918 395.424C245.918 393.492 245.176 392.442 243.622 392.442C242.684 392.442 241.9 393.044 241.102 393.898C240.794 393.002 240.178 392.442 239.002 392.442C238.092 392.442 237.308 393.016 236.636 393.744L236.608 393.744L236.482 392.638L235.432 392.638L235.432 400.24ZM248.396 403.446L249.684 403.446L249.684 400.87L249.642 399.54C250.328 400.114 251.056 400.422 251.742 400.422C253.478 400.422 255.046 398.924 255.046 396.32C255.046 393.968 253.982 392.442 252.022 392.442C251.14 392.442 250.286 392.946 249.6 393.52L249.572 393.52L249.446 392.638L248.396 392.638L248.396 403.446ZM251.532 399.344C251.028 399.344 250.356 399.148 249.684 398.56L249.684 394.556C250.412 393.884 251.07 393.52 251.7 393.52C253.156 393.52 253.716 394.64 253.716 396.334C253.716 398.21 252.792 399.344 251.532 399.344ZM258.42 400.422C258.77 400.422 258.98 400.366 259.162 400.31L258.98 399.33C258.84 399.358 258.784 399.358 258.714 399.358C258.518 399.358 258.364 399.204 258.364 398.812L258.364 389.096L257.076 389.096L257.076 398.728C257.076 399.806 257.468 400.422 258.42 400.422ZM264.132 400.422C265.154 400.422 265.966 400.086 266.624 399.652L266.176 398.798C265.602 399.176 265.014 399.4 264.272 399.4C262.83 399.4 261.836 398.364 261.752 396.74L266.876 396.74C266.904 396.544 266.932 396.292 266.932 396.012C266.932 393.842 265.84 392.442 263.894 392.442C262.158 392.442 260.492 393.968 260.492 396.446C260.492 398.952 262.102 400.422 264.132 400.422ZM261.738 395.83C261.892 394.318 262.844 393.464 263.922 393.464C265.112 393.464 265.812 394.29 265.812 395.83L261.738 395.83ZM269.466 400.422C269.97 400.422 270.39 400.03 270.39 399.456C270.39 398.868 269.97 398.476 269.466 398.476C268.948 398.476 268.542 398.868 268.542 399.456C268.542 400.03 268.948 400.422 269.466 400.422ZM275.696 400.422C276.606 400.422 277.474 400.058 278.16 399.47L277.6 398.602C277.124 399.022 276.508 399.358 275.808 399.358C274.408 399.358 273.456 398.196 273.456 396.446C273.456 394.696 274.464 393.52 275.85 393.52C276.438 393.52 276.928 393.786 277.362 394.178L278.006 393.338C277.474 392.862 276.788 392.442 275.794 392.442C273.834 392.442 272.14 393.912 272.14 396.446C272.14 398.966 273.68 400.422 275.696 400.422ZM282.794 400.422C284.656 400.422 286.308 398.966 286.308 396.446C286.308 393.912 284.656 392.442 282.794 392.442C280.932 392.442 279.28 393.912 279.28 396.446C279.28 398.966 280.932 400.422 282.794 400.422ZM282.794 399.358C281.478 399.358 280.596 398.196 280.596 396.446C280.596 394.696 281.478 393.52 282.794 393.52C284.11 393.52 285.006 394.696 285.006 396.446C285.006 398.196 284.11 399.358 282.794 399.358ZM288.324 400.24L289.612 400.24L289.612 394.724C290.298 393.94 290.942 393.562 291.516 393.562C292.482 393.562 292.93 394.164 292.93 395.592L292.93 400.24L294.204 400.24L294.204 394.724C294.918 393.94 295.534 393.562 296.122 393.562C297.088 393.562 297.536 394.164 297.536 395.592L297.536 400.24L298.81 400.24L298.81 395.424C298.81 393.492 298.068 392.442 296.514 392.442C295.576 392.442 294.792 393.044 293.994 393.898C293.686 393.002 293.07 392.442 291.894 392.442C290.984 392.442 290.2 393.016 289.528 393.744L289.5 393.744L289.374 392.638L288.324 392.638L288.324 400.24Z"></path></g><g ><path     fill="#B0D4F0"  d="M311.6 399.376L314.032 396.608L314.032 395.504L311.6 392.72L310.96 393.264L313.072 396.064L310.96 398.88L311.6 399.376Z"></path></g><g opacity="0.9"><rect  x="40" y="435" width="310" height="55" rx="14"    fill="#FFFFFF" ></rect></g><g ><path     fill="#4A6A85"  d="M69.772 459.836C69.016 460.564 67.602 461.222 66.356 461.6C66.552 461.768 66.804 462.02 66.944 462.23C68.274 461.782 69.716 461.054 70.57 460.172L69.772 459.836ZM71.116 461.222C70.164 462.216 68.316 463.014 66.538 463.42C66.748 463.616 66.958 463.91 67.084 464.12C68.974 463.602 70.836 462.734 71.9 461.558L71.116 461.222ZM72.418 462.734C71.172 464.176 68.596 465.072 65.782 465.478C65.992 465.702 66.216 466.066 66.328 466.318C69.296 465.8 71.928 464.792 73.328 463.126L72.418 462.734ZM64.284 457.386L64.284 464.148L65.18 464.148L65.18 457.386L64.284 457.386ZM67.742 455.888L71.648 455.888C71.172 456.658 70.486 457.316 69.688 457.848C68.82 457.26 68.176 456.574 67.742 455.888ZM67.91 453.466C67.322 454.978 66.314 456.434 65.18 457.372C65.418 457.512 65.81 457.82 65.992 457.988C66.412 457.596 66.832 457.134 67.238 456.616C67.63 457.204 68.176 457.792 68.862 458.324C67.756 458.912 66.468 459.304 65.194 459.542C65.376 459.738 65.6 460.116 65.698 460.34C67.098 460.046 68.47 459.584 69.66 458.884C70.584 459.472 71.704 459.948 73.02 460.256C73.146 460.018 73.412 459.612 73.608 459.416C72.418 459.192 71.382 458.814 70.5 458.352C71.578 457.568 72.46 456.56 72.992 455.272L72.39 454.964L72.194 455.006L68.26 455.006C68.498 454.586 68.694 454.152 68.876 453.718L67.91 453.466ZM63.29 453.564C62.618 455.734 61.498 457.876 60.28 459.276C60.462 459.542 60.742 460.102 60.826 460.354C61.288 459.808 61.722 459.192 62.142 458.506L62.142 466.36L63.136 466.36L63.136 456.644C63.57 455.748 63.948 454.782 64.256 453.83L63.29 453.564ZM82.428 457.05L85.312 457.05C85.018 458.884 84.57 460.438 83.884 461.726C83.198 460.41 82.708 458.87 82.372 457.204L82.428 457.05ZM75.064 454.46L75.064 455.496L78.998 455.496L78.998 458.464L75.246 458.464L75.246 463.798C75.246 464.316 75.022 464.498 74.812 464.596C74.994 464.862 75.162 465.38 75.232 465.688C75.554 465.422 76.072 465.156 80.146 463.602C80.104 463.364 80.034 462.916 80.02 462.608L76.31 463.938L76.31 459.5L80.006 459.5L79.936 459.584C80.16 459.752 80.58 460.158 80.748 460.34C81.112 459.85 81.448 459.29 81.742 458.674C82.134 460.172 82.624 461.544 83.268 462.706C82.428 463.882 81.308 464.792 79.824 465.464C80.034 465.688 80.342 466.164 80.454 466.416C81.882 465.702 83.002 464.806 83.884 463.686C84.654 464.792 85.62 465.688 86.81 466.29C86.978 466.01 87.3 465.618 87.552 465.408C86.306 464.834 85.312 463.924 84.514 462.762C85.438 461.236 86.026 459.36 86.404 457.05L87.328 457.05L87.328 456.07L82.764 456.07C83.002 455.3 83.212 454.488 83.38 453.662L82.344 453.48C81.91 455.776 81.14 458.002 80.034 459.458L80.034 454.46L75.064 454.46ZM90.548 457.498C90.156 458.352 89.484 459.374 88.658 459.99L89.512 460.508C90.324 459.836 90.954 458.772 91.402 457.89L90.548 457.498ZM92.928 456.448C93.796 456.854 94.832 457.498 95.336 457.988L95.896 457.302C95.378 456.84 94.314 456.21 93.46 455.832L92.928 456.448ZM98.206 458.086C99.102 458.856 100.124 459.976 100.572 460.718L101.37 460.13C100.908 459.388 99.858 458.324 98.976 457.568L98.206 458.086ZM97.632 456.308C96.554 457.624 94.986 458.716 93.18 459.584L93.18 457.274L92.228 457.274L92.228 459.976L92.228 460.018C91.052 460.508 89.792 460.914 88.532 461.222C88.728 461.432 89.036 461.88 89.162 462.104C90.282 461.782 91.416 461.39 92.494 460.928C92.76 461.208 93.25 461.292 94.104 461.292C94.412 461.292 96.75 461.292 97.086 461.292C98.304 461.292 98.612 460.886 98.752 459.22C98.486 459.164 98.094 459.024 97.856 458.87C97.814 460.228 97.688 460.424 97.016 460.424C96.498 460.424 94.538 460.424 94.16 460.424L93.628 460.396C95.56 459.458 97.296 458.254 98.528 456.756L97.632 456.308ZM90.254 462.496L90.254 465.716L98.794 465.716L98.794 466.332L99.844 466.332L99.844 462.384L98.794 462.384L98.794 464.722L95.504 464.722L95.504 461.74L94.44 461.74L94.44 464.722L91.29 464.722L91.29 462.496L90.254 462.496ZM94.188 453.508C94.328 453.858 94.454 454.306 94.538 454.684L89.078 454.684L89.078 457.428L90.114 457.428L90.114 455.636L99.886 455.636L99.886 457.428L100.95 457.428L100.95 454.684L95.63 454.684C95.546 454.278 95.364 453.76 95.182 453.34L94.188 453.508ZM107.74 462.37L107.74 463.322L113.088 463.322L113.088 462.37L107.74 462.37ZM108.874 456.14C108.776 457.526 108.594 459.402 108.412 460.522L108.692 460.522L114.082 460.536C113.816 463.602 113.508 464.848 113.144 465.212C113.004 465.352 112.864 465.38 112.612 465.366C112.36 465.366 111.73 465.366 111.058 465.296C111.226 465.562 111.324 465.968 111.352 466.262C112.024 466.304 112.668 466.304 113.032 466.276C113.452 466.248 113.718 466.15 113.984 465.842C114.488 465.338 114.81 463.868 115.132 460.088C115.146 459.934 115.16 459.626 115.16 459.626L113.424 459.626C113.648 457.89 113.872 455.79 113.984 454.334L113.242 454.25L113.074 454.306L108.202 454.306L108.202 455.272L112.892 455.272C112.78 456.504 112.598 458.212 112.43 459.626L109.518 459.626C109.644 458.59 109.784 457.274 109.854 456.21L108.874 456.14ZM102.714 454.222L102.714 455.188L104.422 455.188C104.03 457.33 103.4 459.318 102.406 460.648C102.574 460.928 102.812 461.516 102.882 461.782C103.148 461.432 103.4 461.054 103.624 460.634L103.624 465.716L104.534 465.716L104.534 464.596L107.11 464.596L107.11 458.534L104.548 458.534C104.912 457.484 105.206 456.35 105.43 455.188L107.516 455.188L107.516 454.222L102.714 454.222ZM104.534 459.486L106.186 459.486L106.186 463.658L104.534 463.658L104.534 459.486Z"></path></g><g ><path     fill="#B0D4F0"  d="M311.6 464.376L314.032 461.608L314.032 460.504L311.6 457.72L310.96 458.264L313.072 461.064L310.96 463.88L311.6 464.376Z"></path></g><g opacity="0.9"><rect  x="40" y="500" width="310" height="55" rx="14"    fill="#FFFFFF" ></rect></g><g ><path     fill="#4A6A85"  d="M62.982 520.916L62.982 524.92C62.982 526.712 62.842 529.246 60.518 530.646C60.714 530.8 60.98 531.108 61.092 531.276C63.556 529.666 63.822 526.978 63.822 524.92L63.822 520.916L62.982 520.916ZM63.486 528.42C64.13 529.19 64.886 530.254 65.208 530.926L65.922 530.352C65.572 529.722 64.788 528.7 64.144 527.944L63.486 528.42ZM61.19 519.138L61.19 527.762L62.016 527.762L62.016 520.006L64.732 520.006L64.732 527.72L65.572 527.72L65.572 519.138L61.19 519.138ZM71.774 519.096C71.074 520.496 69.884 521.854 68.638 522.722C68.876 522.904 69.24 523.296 69.408 523.492C70.654 522.512 71.942 520.986 72.754 519.404L71.774 519.096ZM67 531.43C67.224 531.248 67.63 531.08 70.332 529.974C70.276 529.75 70.234 529.344 70.234 529.05L68.176 529.792L68.176 524.906L69.324 524.906C69.954 527.566 71.102 529.834 72.796 531.052C72.964 530.786 73.286 530.422 73.51 530.24C71.956 529.232 70.864 527.202 70.29 524.906L73.23 524.906L73.23 523.926L68.176 523.926L68.176 518.76L67.182 518.76L67.182 523.926L65.936 523.926L65.936 524.906L67.182 524.906L67.182 529.652C67.182 530.212 66.818 530.464 66.566 530.576C66.734 530.786 66.93 531.192 67 531.43ZM77.64 519.992L84.304 519.992L84.304 521.896L77.64 521.896L77.64 519.992ZM76.59 519.054L76.59 522.82L85.41 522.82L85.41 519.054L76.59 519.054ZM74.882 524.08L74.882 525.046L77.766 525.046C77.486 525.914 77.136 526.88 76.842 527.566L84.178 527.566C83.912 529.19 83.632 529.974 83.282 530.254C83.114 530.366 82.946 530.38 82.61 530.38C82.218 530.38 81.196 530.366 80.216 530.268C80.412 530.562 80.552 530.968 80.58 531.276C81.546 531.332 82.47 531.346 82.946 531.318C83.492 531.304 83.828 531.22 84.164 530.94C84.682 530.492 85.032 529.442 85.368 527.09C85.396 526.936 85.424 526.614 85.424 526.614L78.41 526.614L78.928 525.046L87.062 525.046L87.062 524.08L74.882 524.08ZM89.316 519.404C90.226 519.838 91.388 520.51 91.976 520.972L92.578 520.104C91.976 519.67 90.8 519.04 89.904 518.648L89.316 519.404ZM88.588 523.282C89.47 523.702 90.618 524.36 91.178 524.808L91.766 523.926C91.178 523.492 90.016 522.876 89.162 522.498L88.588 523.282ZM88.994 530.492L89.876 531.206C90.716 529.904 91.682 528.14 92.424 526.67L91.668 525.97C90.856 527.566 89.75 529.414 88.994 530.492ZM95.672 518.774C96.148 519.502 96.638 520.482 96.834 521.098L97.856 520.692C97.646 520.076 97.114 519.138 96.624 518.424L95.672 518.774ZM92.676 521.154L92.676 522.148L96.358 522.148L96.358 525.312L93.208 525.312L93.208 526.306L96.358 526.306L96.358 529.918L92.228 529.918L92.228 530.926L101.468 530.926L101.468 529.918L97.45 529.918L97.45 526.306L100.628 526.306L100.628 525.312L97.45 525.312L97.45 522.148L101.132 522.148L101.132 521.154L92.676 521.154ZM108.132 519.362C108.678 520.174 109.252 521.266 109.462 521.952L110.344 521.504C110.106 520.804 109.518 519.754 108.958 518.97L108.132 519.362ZM114.418 518.872C114.068 519.698 113.438 520.846 112.962 521.532L113.76 521.91C114.25 521.238 114.866 520.202 115.342 519.278L114.418 518.872ZM104.492 518.522C104.072 519.81 103.358 521.042 102.518 521.882C102.7 522.092 102.966 522.61 103.05 522.82C103.498 522.358 103.918 521.784 104.296 521.154L107.74 521.154L107.74 520.16L104.842 520.16C105.052 519.712 105.248 519.25 105.402 518.788L104.492 518.522ZM102.868 525.424L102.868 526.39L104.884 526.39L104.884 529.162C104.884 529.764 104.45 530.156 104.212 530.296C104.38 530.506 104.632 530.94 104.716 531.178C104.926 530.954 105.304 530.716 107.656 529.4C107.586 529.19 107.488 528.784 107.46 528.504L105.85 529.344L105.85 526.39L107.81 526.39L107.81 525.424L105.85 525.424L105.85 523.534L107.502 523.534L107.502 522.582L103.484 522.582L103.484 523.534L104.884 523.534L104.884 525.424L102.868 525.424ZM109.28 525.872L113.97 525.872L113.97 527.398L109.28 527.398L109.28 525.872ZM109.28 524.962L109.28 523.464L113.97 523.464L113.97 524.962L109.28 524.962ZM111.184 518.466L111.184 522.484L108.328 522.484L108.328 531.36L109.28 531.36L109.28 528.294L113.97 528.294L113.97 530.03C113.97 530.226 113.9 530.282 113.704 530.282C113.494 530.296 112.78 530.296 111.996 530.282C112.15 530.534 112.276 530.968 112.318 531.234C113.382 531.234 114.04 531.234 114.418 531.052C114.81 530.898 114.936 530.59 114.936 530.044L114.936 522.47L113.97 522.484L112.164 522.484L112.164 518.466L111.184 518.466Z"></path></g><g ><path     fill="#FF6B6B"  d="M249.17 519.94C249.859 520.577 250.704 521.474 251.107 522.033L251.796 521.37C251.38 520.824 250.509 519.966 249.82 519.368L249.17 519.94ZM254.162 519.16L254.162 520.304L252.303 520.304L252.303 521.097L254.162 521.097L254.162 522.722L255.787 522.722L255.787 523.346L252.914 523.346L252.914 525.816L255.787 525.816L255.787 526.622L252.81 526.622L252.81 527.363L255.787 527.363L255.787 528.312L253.135 528.312L253.135 529.04L255.787 529.04L255.787 530.054L252.043 530.054L252.043 530.795L260.467 530.795L260.467 530.054L256.749 530.054L256.749 529.04L259.648 529.04L259.648 528.312L256.749 528.312L256.749 527.363L259.882 527.363L259.882 526.622L256.749 526.622L256.749 525.816L259.739 525.816L259.739 523.346L256.749 523.346L256.749 522.722L258.543 522.722L258.543 521.097L260.454 521.097L260.454 520.304L258.543 520.304L258.543 519.16L257.594 519.16L257.594 520.304L255.072 520.304L255.072 519.16L254.162 519.16ZM257.594 521.097L257.594 522.033L255.072 522.033L255.072 521.097L257.594 521.097ZM253.824 524.022L255.787 524.022L255.787 525.127L253.824 525.127L253.824 524.022ZM256.749 524.022L258.79 524.022L258.79 525.127L256.749 525.127L256.749 524.022ZM248.559 523.268L248.559 524.165L250.301 524.165L250.301 528.806C250.301 529.443 249.885 529.898 249.651 530.08C249.82 530.236 250.093 530.6 250.197 530.808C250.379 530.548 250.704 530.288 252.745 528.598C252.628 528.429 252.459 528.078 252.381 527.831L251.276 528.715L251.276 523.268L248.559 523.268ZM263.236 519.16L263.236 531.146L264.146 531.146L264.146 519.16L263.236 519.16ZM261.975 521.669C261.897 522.67 261.702 524.113 261.442 525.023L262.17 525.244C262.443 524.256 262.638 522.748 262.677 521.76L261.975 521.669ZM264.367 521.526C264.666 522.41 264.965 523.567 265.082 524.256L265.836 523.944C265.719 523.294 265.394 522.163 265.082 521.292L264.367 521.526ZM270.256 529.287C271.14 529.82 272.258 530.6 272.804 531.12L273.467 530.444C272.895 529.937 271.738 529.183 270.867 528.689L270.256 529.287ZM267.89 528.689C267.279 529.287 266.044 530.002 265.069 530.444C265.277 530.626 265.55 530.925 265.693 531.12C266.668 530.652 267.903 529.924 268.735 529.261L267.89 528.689ZM269.125 519.134L268.956 520.304L265.654 520.304L265.654 521.11L268.813 521.11L268.618 522.033L266.46 522.033L266.46 527.818L265.238 527.818L265.238 528.676L273.636 528.676L273.636 527.818L272.323 527.818L272.323 522.033L269.489 522.033L269.736 521.11L273.298 521.11L273.298 520.304L269.931 520.304L270.165 519.199L269.125 519.134ZM267.331 527.818L267.331 526.947L271.413 526.947L271.413 527.818L267.331 527.818ZM267.331 524.139L271.413 524.139L271.413 524.906L267.331 524.906L267.331 524.139ZM267.331 523.528L267.331 522.735L271.413 522.735L271.413 523.528L267.331 523.528ZM267.331 525.53L271.413 525.53L271.413 526.323L267.331 526.323L267.331 525.53ZM280.851 520.434L283.854 520.434L283.854 521.799L280.851 521.799L280.851 520.434ZM279.993 519.693L279.993 522.54L284.751 522.54L284.751 519.693L279.993 519.693ZM279.46 523.84L281.176 523.84L281.176 525.322L279.46 525.322L279.46 523.84ZM283.49 523.84L285.258 523.84L285.258 525.322L283.49 525.322L283.49 523.84ZM276.067 519.16L276.067 521.786L274.598 521.786L274.598 522.696L276.067 522.696L276.067 525.543C275.469 525.751 274.923 525.933 274.481 526.076L274.728 527.012L276.067 526.505L276.067 529.976C276.067 530.132 276.028 530.171 275.885 530.171C275.768 530.171 275.378 530.184 274.936 530.171C275.066 530.418 275.183 530.821 275.222 531.042C275.885 531.042 276.314 531.016 276.6 530.873C276.886 530.717 276.99 530.47 276.99 529.976L276.99 526.154L278.277 525.66L278.121 524.789L276.99 525.205L276.99 522.696L278.199 522.696L278.199 521.786L276.99 521.786L276.99 519.16L276.067 519.16ZM281.878 526.05L281.878 527.038L278.446 527.038L278.446 527.857L281.267 527.857C280.37 528.819 278.953 529.651 277.601 530.067C277.796 530.249 278.082 530.6 278.212 530.834C279.538 530.353 280.929 529.456 281.878 528.39L281.878 531.133L282.801 531.133L282.801 528.325C283.62 529.313 284.829 530.236 285.934 530.717C286.09 530.483 286.363 530.145 286.571 529.963C285.427 529.56 284.179 528.741 283.386 527.857L286.363 527.857L286.363 527.038L282.801 527.038L282.801 526.05L286.077 526.05L286.077 523.125L282.71 523.125L282.71 526.05L281.969 526.05L281.969 523.125L278.693 523.125L278.693 526.05L281.878 526.05ZM293.838 519.316C293.188 521.227 292.135 523.112 290.965 524.334C291.186 524.49 291.563 524.828 291.719 524.997C292.382 524.269 293.019 523.32 293.578 522.267L294.475 522.267L294.475 531.107L295.463 531.107L295.463 527.948L299.376 527.948L299.376 527.025L295.463 527.025L295.463 525.049L299.207 525.049L299.207 524.152L295.463 524.152L295.463 522.267L299.506 522.267L299.506 521.331L294.046 521.331C294.319 520.759 294.566 520.161 294.774 519.563L293.838 519.316ZM290.705 519.212C289.977 521.188 288.755 523.138 287.468 524.399C287.65 524.62 287.936 525.153 288.04 525.374C288.482 524.919 288.911 524.399 289.327 523.827L289.327 531.094L290.302 531.094L290.302 522.293C290.809 521.409 291.277 520.447 291.641 519.498L290.705 519.212Z"></path></g><g ><path     fill="#B0D4F0"  d="M311.6 529.376L314.032 526.608L314.032 525.504L311.6 522.72L310.96 523.264L313.072 526.064L310.96 528.88L311.6 529.376Z"></path></g><rect  x="40" y="590" width="310" height="50" rx="25"    fill="#5B9BD5" ></rect><g ><path     fill="#FFFFFF"  d="M170.232 611.944L176.184 611.944L176.184 614.888L170.232 614.888L170.232 611.944ZM169.08 610.872L169.08 615.976L172.568 615.976L172.568 617.96L167.896 617.96L167.896 619.064L171.864 619.064C170.776 620.76 169.08 622.376 167.432 623.192C167.704 623.416 168.072 623.848 168.264 624.136C169.832 623.224 171.448 621.624 172.568 619.848L172.568 624.84L173.768 624.84L173.768 619.8C174.84 621.56 176.376 623.24 177.848 624.168C178.056 623.864 178.424 623.448 178.696 623.208C177.144 622.376 175.512 620.76 174.488 619.064L178.264 619.064L178.264 617.96L173.768 617.96L173.768 615.976L177.384 615.976L177.384 610.872L169.08 610.872ZM167.432 610.168C166.504 612.584 164.968 614.968 163.368 616.504C163.576 616.776 163.928 617.416 164.04 617.688C164.632 617.096 165.208 616.392 165.768 615.624L165.768 624.792L166.92 624.792L166.92 613.848C167.544 612.792 168.104 611.656 168.552 610.52L167.432 610.168ZM188.808 617.976L188.808 619.304L184.36 619.304L184.36 620.424L188.808 620.424L188.808 623.4C188.808 623.624 188.76 623.688 188.472 623.704C188.184 623.72 187.224 623.72 186.168 623.688C186.328 624.024 186.488 624.488 186.536 624.824C187.912 624.824 188.808 624.824 189.352 624.648C189.88 624.456 190.024 624.12 190.024 623.416L190.024 620.424L194.312 620.424L194.312 619.304L190.024 619.304L190.024 618.376C191.192 617.64 192.44 616.648 193.304 615.688L192.536 615.096L192.296 615.16L185.72 615.16L185.72 616.264L191.176 616.264C190.488 616.904 189.608 617.56 188.808 617.976ZM185.16 610.12C184.968 610.808 184.744 611.512 184.472 612.216L180.008 612.216L180.008 613.368L183.976 613.368C182.936 615.576 181.448 617.64 179.496 619.016C179.688 619.288 179.976 619.8 180.104 620.104C180.792 619.608 181.432 619.048 182.008 618.44L182.008 624.808L183.224 624.808L183.224 616.984C184.056 615.864 184.728 614.648 185.304 613.368L194.024 613.368L194.024 612.216L185.784 612.216C186.008 611.624 186.216 611.016 186.392 610.424L185.16 610.12ZM206.168 617.384C205.304 618.216 203.688 618.968 202.264 619.4C202.488 619.592 202.776 619.88 202.936 620.12C204.456 619.608 206.104 618.776 207.08 617.768L206.168 617.384ZM207.704 618.968C206.616 620.104 204.504 621.016 202.472 621.48C202.712 621.704 202.952 622.04 203.096 622.28C205.256 621.688 207.384 620.696 208.6 619.352L207.704 618.968ZM209.192 620.696C207.768 622.344 204.824 623.368 201.608 623.832C201.848 624.088 202.104 624.504 202.232 624.792C205.624 624.2 208.632 623.048 210.232 621.144L209.192 620.696ZM199.896 614.584L199.896 622.312L200.92 622.312L200.92 614.584L199.896 614.584ZM203.848 612.872L208.312 612.872C207.768 613.752 206.984 614.504 206.072 615.112C205.08 614.44 204.344 613.656 203.848 612.872ZM204.04 610.104C203.368 611.832 202.216 613.496 200.92 614.568C201.192 614.728 201.64 615.08 201.848 615.272C202.328 614.824 202.808 614.296 203.272 613.704C203.72 614.376 204.344 615.048 205.128 615.656C203.864 616.328 202.392 616.776 200.936 617.048C201.144 617.272 201.4 617.704 201.512 617.96C203.112 617.624 204.68 617.096 206.04 616.296C207.096 616.968 208.376 617.512 209.88 617.864C210.024 617.592 210.328 617.128 210.552 616.904C209.192 616.648 208.008 616.216 207 615.688C208.232 614.792 209.24 613.64 209.848 612.168L209.16 611.816L208.936 611.864L204.44 611.864C204.712 611.384 204.936 610.888 205.144 610.392L204.04 610.104ZM198.76 610.216C197.992 612.696 196.712 615.144 195.32 616.744C195.528 617.048 195.848 617.688 195.944 617.976C196.472 617.352 196.968 616.648 197.448 615.864L197.448 624.84L198.584 624.84L198.584 613.736C199.08 612.712 199.512 611.608 199.864 610.52L198.76 610.216ZM220.632 614.2L223.928 614.2C223.592 616.296 223.08 618.072 222.296 619.544C221.512 618.04 220.952 616.28 220.568 614.376L220.632 614.2ZM212.216 611.24L212.216 612.424L216.712 612.424L216.712 615.816L212.424 615.816L212.424 621.912C212.424 622.504 212.168 622.712 211.928 622.824C212.136 623.128 212.328 623.72 212.408 624.072C212.776 623.768 213.368 623.464 218.024 621.688C217.976 621.416 217.896 620.904 217.88 620.552L213.64 622.072L213.64 617L217.864 617L217.784 617.096C218.04 617.288 218.52 617.752 218.712 617.96C219.128 617.4 219.512 616.76 219.848 616.056C220.296 617.768 220.856 619.336 221.592 620.664C220.632 622.008 219.352 623.048 217.656 623.816C217.896 624.072 218.248 624.616 218.376 624.904C220.008 624.088 221.288 623.064 222.296 621.784C223.176 623.048 224.28 624.072 225.64 624.76C225.832 624.44 226.2 623.992 226.488 623.752C225.064 623.096 223.928 622.056 223.016 620.728C224.072 618.984 224.744 616.84 225.176 614.2L226.232 614.2L226.232 613.08L221.016 613.08C221.288 612.2 221.528 611.272 221.72 610.328L220.536 610.12C220.04 612.744 219.16 615.288 217.896 616.952L217.896 611.24L212.216 611.24Z"></path></g></g><defs><clipPath id="clip-path-ErsK0aoybrU3AK4KRBqc7"><path d="M0 844L390 844L390 0L0 0L0 844Z" fill="white"/></clipPath></defs></svg>