<svg xmlns="http://www.w3.org/2000/svg" xmlns:xlink="http://www.w3.org/1999/xlink" width="390" height="844" viewBox="0 0 390 844" fill="none"><g  clip-path="url(#clip-path-cW9-1Sw6DkYs45dmDc5IH)"><rect x="0" y="0" width="390" height="54"   fill="#E8F4FD" ></rect><g ><path     fill="#333333"  d="M33.66 38.61C35.775 38.61 37.755 36.84 37.755 32.505C37.755 28.845 36.045 27.15 33.93 27.15C32.145 27.15 30.63 28.59 30.63 30.78C30.63 33.09 31.89 34.26 33.735 34.26C34.575 34.26 35.505 33.765 36.135 32.985C36.045 36.105 34.92 37.17 33.57 37.17C32.88 37.17 32.205 36.855 31.77 36.345L30.825 37.425C31.47 38.085 32.37 38.61 33.66 38.61ZM36.12 31.65C35.49 32.61 34.71 33 34.035 33C32.88 33 32.25 32.175 32.25 30.78C32.25 29.34 33 28.485 33.96 28.485C35.145 28.485 35.955 29.475 36.12 31.65ZM40.785 32.7C41.445 32.7 41.955 32.205 41.955 31.5C41.955 30.78 41.445 30.27 40.785 30.27C40.14 30.27 39.63 30.78 39.63 31.5C39.63 32.205 40.14 32.7 40.785 32.7ZM40.785 38.61C41.445 38.61 41.955 38.085 41.955 37.38C41.955 36.675 41.445 36.165 40.785 36.165C40.14 36.165 39.63 36.675 39.63 37.38C39.63 38.085 40.14 38.61 40.785 38.61ZM48.105 38.4L49.725 38.4L49.725 35.43L51.12 35.43L51.12 34.08L49.725 34.08L49.725 27.345L47.715 27.345L43.32 34.275L43.32 35.43L48.105 35.43L48.105 38.4ZM48.105 34.08L45.075 34.08L47.235 30.765C47.55 30.195 47.85 29.625 48.12 29.055L48.18 29.055C48.15 29.67 48.105 30.6 48.105 31.2L48.105 34.08ZM52.845 38.4L59.16 38.4L59.16 36.975L57.015 36.975L57.015 27.345L55.71 27.345C55.065 27.75 54.33 28.02 53.295 28.2L53.295 29.295L55.275 29.295L55.275 36.975L52.845 36.975L52.845 38.4Z"></path></g><g ><path     fill="#333333"  d="M341.5 40.2L353.5 40.2L353.5 25.2L341.5 25.2L341.5 40.2ZM347.5 32.085L342.73 25.95L352.27 25.95L347.5 32.085ZM347.98 32.7L352.75 26.565L352.75 38.835L347.98 32.7ZM342.73 39.45L347.5 33.315L352.27 39.45L342.73 39.45ZM342.25 26.565L347.02 32.7L342.25 38.835L342.25 26.565ZM356.5 40.2L368.5 40.2L368.5 25.2L356.5 25.2L356.5 40.2ZM362.5 32.085L357.73 25.95L367.27 25.95L362.5 32.085ZM362.98 32.7L367.75 26.565L367.75 38.835L362.98 32.7ZM357.73 39.45L362.5 33.315L367.27 39.45L357.73 39.45ZM357.25 26.565L362.02 32.7L357.25 38.835L357.25 26.565ZM371.5 40.2L383.5 40.2L383.5 25.2L371.5 25.2L371.5 40.2ZM377.5 32.085L372.73 25.95L382.27 25.95L377.5 32.085ZM377.98 32.7L382.75 26.565L382.75 38.835L377.98 32.7ZM372.73 39.45L377.5 33.315L382.27 39.45L372.73 39.45ZM372.25 26.565L377.02 32.7L372.25 38.835L372.25 26.565Z"></path></g><rect x="0" y="54" width="390" height="60"   fill="#E8F4FD" ></rect><g ></g><g ><path     fill="#2C5F8A"  d="M154.032 82.498C154.77 83.452 155.526 84.73 155.832 85.594L152.322 85.594L152.322 86.944L158.298 86.944L158.298 89.14C158.298 89.464 158.28 89.806 158.262 90.148L151.224 90.148L151.224 91.48L157.992 91.48C157.416 93.424 155.706 95.494 150.864 97.114C151.224 97.42 151.674 97.996 151.836 98.302C156.48 96.682 158.46 94.594 159.27 92.506C160.782 95.296 163.122 97.258 166.326 98.212C166.542 97.798 166.956 97.204 167.28 96.898C163.986 96.088 161.52 94.144 160.17 91.48L166.83 91.48L166.83 90.148L159.792 90.148L159.828 89.158L159.828 86.944L165.858 86.944L165.858 85.594L162.294 85.594C162.942 84.622 163.662 83.398 164.256 82.318L162.798 81.832C162.348 82.948 161.52 84.514 160.8 85.594L155.868 85.594L157.056 84.946C156.714 84.1 155.94 82.84 155.166 81.922L154.032 82.498ZM170.232 83.038L170.232 84.388L176.46 84.388L176.46 88.942L168.99 88.942L168.99 90.292L176.46 90.292L176.46 96.34C176.46 96.718 176.316 96.826 175.92 96.826C175.524 96.844 174.138 96.862 172.662 96.808C172.878 97.204 173.13 97.834 173.22 98.23C175.074 98.23 176.262 98.212 176.928 97.978C177.612 97.762 177.882 97.33 177.882 96.34L177.882 90.292L185.028 90.292L185.028 88.942L177.882 88.942L177.882 84.388L183.768 84.388L183.768 83.038L170.232 83.038ZM187.026 92.596L187.026 93.892L198.258 93.892L198.258 92.596L187.026 92.596ZM190.698 82.156C190.248 84.64 189.51 88.042 188.952 90.04L190.086 90.058L190.374 90.058L200.526 90.058C200.112 94.18 199.644 96.07 198.978 96.61C198.744 96.808 198.492 96.826 198.042 96.826C197.52 96.826 196.116 96.808 194.712 96.682C194.982 97.06 195.18 97.618 195.216 98.032C196.494 98.104 197.79 98.14 198.438 98.104C199.212 98.05 199.68 97.942 200.148 97.474C200.976 96.682 201.462 94.594 201.984 89.446C202.02 89.248 202.038 88.78 202.038 88.78L190.698 88.78C190.914 87.808 191.166 86.674 191.4 85.54L201.768 85.54L201.768 84.244L191.67 84.244L192.048 82.3L190.698 82.156ZM208.932 81.76L208.932 83.182L205.188 83.182L205.188 84.28L208.932 84.28L208.932 85.594L205.566 85.594L205.566 86.656L208.932 86.656L208.932 87.088C208.932 87.376 208.896 87.7 208.788 88.06L204.9 88.06L204.9 89.158L208.266 89.158C207.708 89.968 206.772 90.76 205.242 91.282C205.548 91.534 205.98 91.966 206.196 92.254C208.158 91.48 209.238 90.292 209.796 89.158L213.72 89.158L213.72 88.06L210.192 88.06C210.264 87.7 210.3 87.376 210.3 87.088L210.3 86.656L213.234 86.656L213.234 85.594L210.3 85.594L210.3 84.28L213.612 84.28L213.612 83.182L210.3 83.182L210.3 81.76L208.932 81.76ZM214.512 82.516L214.512 91.426L215.808 91.426L215.808 83.686L218.886 83.686C218.4 84.46 217.806 85.36 217.212 86.152C218.796 87.034 219.39 87.844 219.39 88.492C219.39 88.87 219.264 89.122 218.94 89.266C218.724 89.338 218.454 89.392 218.184 89.41C217.662 89.446 217.014 89.428 216.24 89.356C216.456 89.662 216.636 90.148 216.672 90.49C217.374 90.562 218.148 90.544 218.76 90.49C219.12 90.454 219.534 90.346 219.84 90.202C220.434 89.878 220.74 89.374 220.722 88.582C220.722 87.772 220.2 86.908 218.652 85.954C219.408 85.054 220.2 83.956 220.884 83.02L219.948 82.462L219.714 82.516L214.512 82.516ZM206.7 92.164L206.7 97.348L208.068 97.348L208.068 93.388L212.244 93.388L212.244 98.284L213.648 98.284L213.648 93.388L218.202 93.388L218.202 95.836C218.202 96.07 218.13 96.142 217.824 96.16C217.536 96.16 216.474 96.16 215.322 96.142C215.502 96.466 215.718 96.952 215.79 97.312C217.302 97.312 218.256 97.312 218.832 97.114C219.408 96.916 219.588 96.538 219.588 95.872L219.588 92.164L213.648 92.164L213.648 90.742L212.244 90.742L212.244 92.164L206.7 92.164ZM233.394 81.76C233.394 83.146 233.394 84.532 233.358 85.846L230.388 85.846L230.388 87.124L233.304 87.124C233.052 91.48 232.134 95.206 228.678 97.348C229.002 97.582 229.452 98.032 229.668 98.356C233.34 95.944 234.33 91.858 234.6 87.124L237.408 87.124C237.246 93.712 237.066 96.124 236.598 96.682C236.436 96.898 236.238 96.952 235.914 96.952C235.536 96.952 234.6 96.934 233.574 96.862C233.808 97.222 233.952 97.78 233.988 98.158C234.942 98.212 235.914 98.23 236.472 98.176C237.048 98.122 237.426 97.96 237.768 97.474C238.362 96.7 238.542 94.126 238.722 86.512C238.722 86.35 238.722 85.846 238.722 85.846L234.654 85.846C234.708 84.514 234.708 83.146 234.708 81.76L233.394 81.76ZM222.612 95.17L222.864 96.556C225.024 96.052 228.048 95.35 230.892 94.684L230.784 93.46L229.794 93.676L229.794 82.642L223.908 82.642L223.908 94.918L222.612 95.17ZM225.132 94.666L225.132 91.57L228.516 91.57L228.516 93.964L225.132 94.666ZM225.132 87.718L228.516 87.718L228.516 90.364L225.132 90.364L225.132 87.718ZM225.132 86.512L225.132 83.866L228.516 83.866L228.516 86.512L225.132 86.512Z"></path></g><g opacity="0.15"><circle cx="195" cy="170" r="40"   fill="#5B9BD5" ></circle></g><g opacity="0.25"><circle cx="195" cy="170" r="28"   fill="#5B9BD5" ></circle></g><circle cx="195" cy="170" r="18"   fill="#5B9BD5" ></circle><path    stroke="rgba(255, 255, 255, 1.00)" stroke-width="2"  stroke-linecap="round"  d="M195 155L195 182"></path><path   fill="rgba(255, 255, 255, 1.00)"  d="M195 157.1C199.363 157.1 202.9 160.637 202.9 165L202.9 173C202.9 177.363 199.363 180.9 195 180.9C190.637 180.9 187.1 177.363 187.1 173L187.1 165C187.1 160.637 190.637 157.1 195 157.1ZM195 158.9C191.631 158.9 188.9 161.631 188.9 165L188.9 173C188.9 176.369 191.631 179.1 195 179.1C198.369 179.1 201.1 176.369 201.1 173L201.1 165C201.1 161.631 198.369 158.9 195 158.9Z"></path><g ><path     fill="#2C5F8A"  d="M138.14 239.36C138.9 239.08 140.02 239 150.62 238.1C151.08 238.7 151.48 239.28 151.76 239.78L153.1 238.96C152.22 237.46 150.32 235.3 148.52 233.7L147.26 234.38C148.04 235.1 148.84 235.94 149.56 236.78L140.46 237.48C141.88 236.16 143.3 234.56 144.54 232.92L153.36 232.92L153.36 231.46L136.78 231.46L136.78 232.92L142.5 232.92C141.2 234.7 139.68 236.28 139.14 236.76C138.52 237.34 138.06 237.72 137.62 237.82C137.8 238.22 138.06 239.02 138.14 239.36ZM145.08 221.4C143.28 224.08 139.76 226.62 135.84 228.28C136.2 228.56 136.72 229.2 136.94 229.58C138.1 229.04 139.22 228.44 140.28 227.78L140.28 229L149.82 229L149.82 227.6L140.54 227.6C142.26 226.48 143.8 225.22 145.06 223.84C146.26 225.08 147.94 226.44 149.82 227.6C150.9 228.28 152.06 228.88 153.2 229.34C153.44 228.94 153.94 228.32 154.26 228.02C151.02 226.9 147.76 224.72 145.92 222.82L146.52 222.02L145.08 221.4ZM165.84 222.34C166.64 223.68 167.48 225.46 167.8 226.56L169.16 225.94C168.84 224.84 167.94 223.12 167.1 221.8L165.84 222.34ZM157.26 222.78C158.16 223.72 159.24 225.04 159.76 225.88L160.9 224.94C160.38 224.12 159.26 222.88 158.34 221.96L157.26 222.78ZM171.64 222.64C170.98 226.8 169.94 230.54 167.8 233.54C165.78 230.74 164.56 227.12 163.84 222.88L162.42 223.12C163.28 227.86 164.58 231.8 166.78 234.8C165.38 236.38 163.56 237.7 161.22 238.7C161.5 239.02 161.92 239.58 162.12 239.94C164.44 238.9 166.28 237.54 167.74 235.96C169.24 237.64 171.12 238.94 173.44 239.86C173.68 239.46 174.16 238.86 174.52 238.56C172.16 237.72 170.28 236.42 168.76 234.74C171.18 231.5 172.38 227.44 173.18 222.88L171.64 222.64ZM155.92 227.66L155.92 229.12L158.74 229.12L158.74 236.18C158.74 237.22 158.2 237.9 157.88 238.22C158.14 238.44 158.58 238.96 158.74 239.28C159.06 238.88 159.58 238.48 163.1 235.98C162.94 235.68 162.72 235.1 162.6 234.7L160.2 236.36L160.2 227.66L155.92 227.66ZM175.82 237.14L176.08 238.64C178.06 238.24 180.78 237.7 183.38 237.18L183.26 235.82C180.54 236.32 177.68 236.86 175.82 237.14ZM176.2 229.72C176.54 229.56 177.06 229.46 179.86 229.12C178.86 230.38 177.94 231.38 177.52 231.76C176.82 232.48 176.32 232.96 175.84 233.06C176.02 233.46 176.28 234.2 176.36 234.52C176.8 234.28 177.54 234.12 183.18 233.24C183.14 232.92 183.1 232.32 183.12 231.94L178.64 232.56C180.38 230.84 182.12 228.7 183.62 226.5L182.3 225.64C181.88 226.36 181.4 227.08 180.9 227.76L177.92 228.02C179.24 226.34 180.56 224.2 181.62 222.08L180.14 221.44C179.14 223.84 177.48 226.38 176.96 227.04C176.48 227.7 176.1 228.16 175.7 228.24C175.88 228.64 176.12 229.38 176.2 229.72ZM184.2 222.7L184.2 224.18L191.48 224.18L191.48 229.26L184.52 229.26L184.52 237.02C184.52 238.92 185.18 239.4 187.32 239.4C187.78 239.4 191 239.4 191.5 239.4C193.58 239.4 194.06 238.48 194.26 235.26C193.84 235.16 193.2 234.9 192.84 234.62C192.72 237.46 192.54 237.98 191.42 237.98C190.7 237.98 187.98 237.98 187.44 237.98C186.26 237.98 186.06 237.8 186.06 237.02L186.06 230.7L191.48 230.7L191.48 231.72L192.98 231.72L192.98 222.7L184.2 222.7ZM208.44 233.56C207.78 234.72 206.86 235.62 205.64 236.34C204.18 235.98 202.68 235.66 201.2 235.38C201.62 234.84 202.1 234.22 202.56 233.56L208.44 233.56ZM197.38 225.3L197.38 230.48L202.72 230.48C202.44 231.04 202.1 231.64 201.72 232.24L196.08 232.24L196.08 233.56L200.82 233.56C200.12 234.54 199.38 235.46 198.72 236.18C200.42 236.5 202.08 236.84 203.66 237.22C201.7 237.9 199.22 238.28 196.18 238.46C196.44 238.8 196.68 239.34 196.8 239.76C200.58 239.44 203.56 238.86 205.82 237.76C208.36 238.44 210.56 239.14 212.2 239.8L213.48 238.64C211.88 238.04 209.78 237.4 207.46 236.78C208.6 235.94 209.48 234.88 210.1 233.56L213.94 233.56L213.94 232.24L203.44 232.24C203.76 231.72 204.06 231.2 204.32 230.7L203.4 230.48L212.76 230.48L212.76 225.3L207.94 225.3L207.94 223.6L213.6 223.6L213.6 222.26L196.38 222.26L196.38 223.6L201.84 223.6L201.84 225.3L197.38 225.3ZM203.26 223.6L206.52 223.6L206.52 225.3L203.26 225.3L203.26 223.6ZM198.8 226.54L201.84 226.54L201.84 229.26L198.8 229.26L198.8 226.54ZM203.26 226.54L206.52 226.54L206.52 229.26L203.26 229.26L203.26 226.54ZM207.94 226.54L211.28 226.54L211.28 229.26L207.94 229.26L207.94 226.54ZM227.66 221.4C227.66 222.94 227.66 224.48 227.62 225.94L224.32 225.94L224.32 227.36L227.56 227.36C227.28 232.2 226.26 236.34 222.42 238.72C222.78 238.98 223.28 239.48 223.52 239.84C227.6 237.16 228.7 232.62 229 227.36L232.12 227.36C231.94 234.68 231.74 237.36 231.22 237.98C231.04 238.22 230.82 238.28 230.46 238.28C230.04 238.28 229 238.26 227.86 238.18C228.12 238.58 228.28 239.2 228.32 239.62C229.38 239.68 230.46 239.7 231.08 239.64C231.72 239.58 232.14 239.4 232.52 238.86C233.18 238 233.38 235.14 233.58 226.68C233.58 226.5 233.58 225.94 233.58 225.94L229.06 225.94C229.12 224.46 229.12 222.94 229.12 221.4L227.66 221.4ZM215.68 236.3L215.96 237.84C218.36 237.28 221.72 236.5 224.88 235.76L224.76 234.4L223.66 234.64L223.66 222.38L217.12 222.38L217.12 236.02L215.68 236.3ZM218.48 235.74L218.48 232.3L222.24 232.3L222.24 234.96L218.48 235.74ZM218.48 228.02L222.24 228.02L222.24 230.96L218.48 230.96L218.48 228.02ZM218.48 226.68L218.48 223.74L222.24 223.74L222.24 226.68L218.48 226.68ZM236 231.76L236 233.24L244.26 233.24L244.26 237.7C244.26 238.1 244.08 238.24 243.64 238.26C243.18 238.26 241.6 238.28 239.92 238.24C240.16 238.64 240.44 239.3 240.56 239.72C242.66 239.74 243.98 239.72 244.74 239.46C245.48 239.22 245.8 238.78 245.8 237.7L245.8 233.24L254.06 233.24L254.06 231.76L245.8 231.76L245.8 228.52L252.92 228.52L252.92 227.08L245.8 227.08L245.8 223.82C248.16 223.54 250.36 223.14 252.06 222.64L250.96 221.42C247.9 222.38 242.08 222.9 237.32 223.14C237.46 223.46 237.64 224.06 237.68 224.44C239.76 224.36 242.04 224.22 244.26 224L244.26 227.08L237.34 227.08L237.34 228.52L244.26 228.52L244.26 231.76L236 231.76Z"></path></g><g ><path     fill="#7BA8C9"  d="M169.449 250.08L169.449 254.856C169.449 256.668 169.341 258.828 168.549 260.364C168.753 260.484 169.053 260.748 169.197 260.916C169.905 259.68 170.157 258.108 170.241 256.524L171.897 256.524L171.897 260.868L172.725 260.868L172.725 255.708L170.265 255.708L170.277 254.844L170.277 253.968L173.457 253.968L173.457 253.164L172.401 253.164L172.401 249.816L171.573 249.816L171.573 253.164L170.277 253.164L170.277 250.08L169.449 250.08ZM178.413 254.172C178.149 255.54 177.693 256.704 177.105 257.664C176.517 256.656 176.097 255.468 175.821 254.172L178.413 254.172ZM173.985 250.656L173.985 254.796C173.985 256.584 173.877 258.84 172.953 260.436C173.169 260.544 173.517 260.784 173.673 260.94C174.705 259.224 174.849 256.812 174.849 254.796L174.849 254.172L175.101 254.172C175.413 255.78 175.893 257.208 176.589 258.384C175.941 259.188 175.185 259.788 174.357 260.172C174.549 260.34 174.777 260.688 174.897 260.904C175.713 260.484 176.457 259.896 177.093 259.14C177.657 259.884 178.329 260.472 179.133 260.904C179.265 260.676 179.541 260.352 179.745 260.184C178.905 259.788 178.197 259.2 177.621 258.444C178.473 257.184 179.085 255.54 179.373 253.452L178.833 253.308L178.689 253.344L174.849 253.344L174.849 251.376C176.493 251.244 178.281 251.016 179.565 250.704L179.001 249.936C177.789 250.248 175.749 250.512 173.985 250.656ZM185.709 249.852L185.709 252.372L180.969 252.372L180.969 253.284L184.593 253.284C183.717 255.324 182.229 257.268 180.633 258.24C180.849 258.42 181.149 258.744 181.293 258.972C183.033 257.784 184.581 255.636 185.517 253.284L185.709 253.284L185.709 257.724L182.901 257.724L182.901 258.636L185.709 258.636L185.709 260.88L186.657 260.88L186.657 258.636L189.453 258.636L189.453 257.724L186.657 257.724L186.657 253.284L186.825 253.284C187.737 255.636 189.285 257.796 191.061 258.948C191.229 258.696 191.541 258.348 191.769 258.168C190.101 257.208 188.589 255.312 187.725 253.284L191.433 253.284L191.433 252.372L186.657 252.372L186.657 249.852L185.709 249.852ZM196.215 259.92L201.039 259.92L201.039 259.008L199.275 259.008L199.275 251.124L198.435 251.124C197.955 251.4 197.391 251.604 196.611 251.748L196.611 252.444L198.183 252.444L198.183 259.008L196.215 259.008L196.215 259.92ZM203.487 260.076C203.919 260.076 204.279 259.74 204.279 259.248C204.279 258.744 203.919 258.408 203.487 258.408C203.043 258.408 202.695 258.744 202.695 259.248C202.695 259.74 203.043 260.076 203.487 260.076ZM208.491 260.076C210.159 260.076 211.227 258.564 211.227 255.492C211.227 252.444 210.159 250.968 208.491 250.968C206.811 250.968 205.755 252.444 205.755 255.492C205.755 258.564 206.811 260.076 208.491 260.076ZM208.491 259.188C207.495 259.188 206.811 258.072 206.811 255.492C206.811 252.924 207.495 251.832 208.491 251.832C209.487 251.832 210.171 252.924 210.171 255.492C210.171 258.072 209.487 259.188 208.491 259.188ZM213.483 260.076C213.915 260.076 214.275 259.74 214.275 259.248C214.275 258.744 213.915 258.408 213.483 258.408C213.039 258.408 212.691 258.744 212.691 259.248C212.691 259.74 213.039 260.076 213.483 260.076ZM218.487 260.076C220.155 260.076 221.223 258.564 221.223 255.492C221.223 252.444 220.155 250.968 218.487 250.968C216.807 250.968 215.751 252.444 215.751 255.492C215.751 258.564 216.807 260.076 218.487 260.076ZM218.487 259.188C217.491 259.188 216.807 258.072 216.807 255.492C216.807 252.924 217.491 251.832 218.487 251.832C219.483 251.832 220.167 252.924 220.167 255.492C220.167 258.072 219.483 259.188 218.487 259.188Z"></path></g><g opacity="0.9"><rect  x="40" y="285" width="310" height="55" rx="14"    fill="#FFFFFF" ></rect></g><g ><path     fill="#2C5F8A"  d="M64.695 311.035L70.38 311.035L70.38 312.505L64.695 312.505L64.695 311.035ZM62.28 314.605L62.28 318.925L63.405 318.925L63.405 315.625L67.11 315.625L67.11 319.6L68.265 319.6L68.265 315.625L71.76 315.625L71.76 317.74C71.76 317.92 71.7 317.965 71.46 317.995C71.22 317.995 70.425 317.995 69.525 317.965C69.675 318.265 69.855 318.685 69.915 318.985C71.085 318.985 71.835 318.985 72.315 318.82C72.78 318.655 72.9 318.34 72.9 317.755L72.9 314.605L68.265 314.605L68.265 313.36L71.52 313.36L71.52 310.18L63.615 310.18L63.615 313.36L67.11 313.36L67.11 314.605L62.28 314.605ZM62.52 306.355C62.97 306.865 63.465 307.615 63.705 308.125L61.29 308.125L61.29 311.35L62.37 311.35L62.37 309.115L72.705 309.115L72.705 311.35L73.815 311.35L73.815 308.125L68.16 308.125L68.16 305.785L67.02 305.785L67.02 308.125L63.885 308.125L64.8 307.69C64.545 307.21 64.02 306.475 63.54 305.935L62.52 306.355ZM71.445 305.92C71.145 306.46 70.59 307.255 70.17 307.75L71.1 308.125C71.535 307.675 72.105 306.985 72.615 306.325L71.445 305.92ZM82.77 313.93L82.77 317.665C82.77 318.91 83.205 319.24 84.675 319.24C84.975 319.24 87.015 319.24 87.345 319.24C88.725 319.24 89.055 318.67 89.205 316.315C88.89 316.255 88.425 316.075 88.17 315.88C88.11 317.905 87.99 318.19 87.27 318.19C86.82 318.19 85.11 318.19 84.75 318.19C84 318.19 83.88 318.115 83.88 317.65L83.88 313.93L82.77 313.93ZM81.78 309.175C81.645 314.485 81.45 317.35 75.69 318.64C75.93 318.88 76.23 319.315 76.35 319.6C82.395 318.13 82.8 314.86 82.965 309.175L81.78 309.175ZM77.67 306.64L77.67 315.22L78.84 315.22L78.84 307.78L86.085 307.78L86.085 315.22L87.3 315.22L87.3 306.64L77.67 306.64ZM91.395 309.175L91.395 319.6L92.505 319.6L92.505 309.175L91.395 309.175ZM91.56 306.535C92.31 307.315 93.3 308.41 93.795 309.055L94.65 308.425C94.155 307.795 93.135 306.745 92.37 305.995L91.56 306.535ZM95.325 306.64L95.325 307.705L102.48 307.705L102.48 318.025C102.48 318.28 102.39 318.37 102.135 318.37C101.88 318.385 100.98 318.4 100.08 318.355C100.23 318.67 100.41 319.165 100.455 319.495C101.67 319.495 102.48 319.48 102.975 319.285C103.44 319.09 103.605 318.76 103.605 318.025L103.605 306.64L95.325 306.64ZM94.83 310.36L94.83 316.855L95.865 316.855L95.865 315.88L100.095 315.88L100.095 310.36L94.83 310.36ZM95.865 311.38L99 311.38L99 314.86L95.865 314.86L95.865 311.38ZM107.64 309.175L110.7 309.175L110.7 310.315L107.64 310.315L107.64 309.175ZM107.64 307.255L110.7 307.255L110.7 308.38L107.64 308.38L107.64 307.255ZM106.62 306.43L106.62 311.14L111.75 311.14L111.75 306.43L106.62 306.43ZM115.425 310.45C115.32 314.335 115.02 316.255 111.87 317.245C112.065 317.425 112.32 317.77 112.41 317.995C115.83 316.855 116.265 314.68 116.37 310.45L115.425 310.45ZM115.95 315.61C116.895 316.285 118.05 317.275 118.62 317.905L119.31 317.215C118.71 316.6 117.525 315.655 116.61 315.01L115.95 315.61ZM106.86 313.87C106.785 316.045 106.5 317.845 105.495 319.015C105.735 319.135 106.155 319.42 106.32 319.57C106.875 318.85 107.235 317.98 107.46 316.93C108.81 318.925 111.015 319.27 114.21 319.27L119.04 319.27C119.1 318.985 119.28 318.535 119.445 318.31C118.575 318.34 114.9 318.34 114.225 318.34C112.425 318.325 110.925 318.235 109.755 317.755L109.755 315.61L112.245 315.61L112.245 314.74L109.755 314.74L109.755 313.135L112.515 313.135L112.515 312.25L105.735 312.25L105.735 313.135L108.78 313.135L108.78 317.185C108.33 316.825 107.955 316.36 107.67 315.76C107.745 315.19 107.79 314.575 107.82 313.93L106.86 313.87ZM113.1 308.86L113.1 315.175L114.045 315.175L114.045 309.715L117.615 309.715L117.615 315.115L118.605 315.115L118.605 308.86L115.785 308.86C115.965 308.44 116.16 307.915 116.355 307.405L119.325 307.405L119.325 306.49L112.485 306.49L112.485 307.405L115.215 307.405C115.08 307.9 114.915 308.44 114.75 308.86L113.1 308.86Z"></path></g><g ><path     fill="#B0D4F0"  d="M311.6 317.376L314.032 314.608L314.032 313.504L311.6 310.72L310.96 311.264L313.072 314.064L310.96 316.88L311.6 317.376Z"></path></g><g opacity="0.9"><rect  x="40" y="350" width="310" height="55" rx="14"    fill="#FFFFFF" ></rect></g><g ><path     fill="#2C5F8A"  d="M64.47 381.165L64.47 383.1C64.47 384.195 64.86 384.465 66.39 384.465C66.705 384.465 68.895 384.465 69.225 384.465C70.455 384.465 70.785 384.075 70.92 382.38C70.62 382.32 70.185 382.17 69.93 382.005C69.87 383.34 69.78 383.52 69.135 383.52C68.64 383.52 66.825 383.52 66.48 383.52C65.7 383.52 65.565 383.46 65.565 383.1L65.565 381.165L64.47 381.165ZM71.115 381.3C71.88 382.11 72.705 383.22 73.035 383.955L73.98 383.49C73.62 382.755 72.78 381.675 72 380.895L71.115 381.3ZM62.715 381.045C62.34 381.915 61.68 382.995 60.915 383.655L61.845 384.21C62.61 383.49 63.225 382.365 63.66 381.465L62.715 381.045ZM63.915 378.555L71.13 378.555L71.13 379.605L63.915 379.605L63.915 378.555ZM63.915 376.785L71.13 376.785L71.13 377.805L63.915 377.805L63.915 376.785ZM62.85 376.005L62.85 380.385L66.645 380.385L66.12 380.88C66.945 381.345 67.98 382.065 68.46 382.56L69.165 381.855C68.7 381.405 67.815 380.805 67.035 380.385L72.255 380.385L72.255 376.005L62.85 376.005ZM65.07 372.825L69.915 372.825C69.75 373.26 69.465 373.86 69.225 374.325L65.73 374.325C65.625 373.905 65.37 373.29 65.07 372.825ZM66.645 370.92C66.825 371.205 67.005 371.58 67.155 371.91L61.77 371.91L61.77 372.825L64.92 372.825L64.035 373.035C64.245 373.425 64.47 373.92 64.575 374.325L61.095 374.325L61.095 375.24L73.995 375.24L73.995 374.325L70.38 374.325C70.605 373.935 70.845 373.485 71.085 373.02L70.215 372.825L73.215 372.825L73.215 371.91L68.415 371.91C68.235 371.505 67.98 371.025 67.725 370.665L66.645 370.92ZM82.77 378.93L82.77 382.665C82.77 383.91 83.205 384.24 84.675 384.24C84.975 384.24 87.015 384.24 87.345 384.24C88.725 384.24 89.055 383.67 89.205 381.315C88.89 381.255 88.425 381.075 88.17 380.88C88.11 382.905 87.99 383.19 87.27 383.19C86.82 383.19 85.11 383.19 84.75 383.19C84 383.19 83.88 383.115 83.88 382.65L83.88 378.93L82.77 378.93ZM81.78 374.175C81.645 379.485 81.45 382.35 75.69 383.64C75.93 383.88 76.23 384.315 76.35 384.6C82.395 383.13 82.8 379.86 82.965 374.175L81.78 374.175ZM77.67 371.64L77.67 380.22L78.84 380.22L78.84 372.78L86.085 372.78L86.085 380.22L87.3 380.22L87.3 371.64L77.67 371.64ZM102.06 370.935C99.9 371.55 95.91 371.925 92.535 372.09L92.535 376.08C92.535 378.42 92.4 381.675 90.825 383.985C91.11 384.105 91.59 384.435 91.8 384.645C93.36 382.35 93.66 378.945 93.69 376.47L94.695 376.47C95.385 378.45 96.36 380.085 97.665 381.39C96.345 382.38 94.815 383.085 93.21 383.505C93.435 383.76 93.72 384.21 93.855 384.525C95.565 384.015 97.17 383.25 98.55 382.17C99.855 383.205 101.445 383.97 103.35 384.465C103.5 384.15 103.815 383.7 104.055 383.475C102.225 383.07 100.68 382.38 99.42 381.435C100.935 379.995 102.12 378.105 102.78 375.645L102.015 375.315L101.79 375.375L93.69 375.375L93.69 373.05C96.945 372.9 100.575 372.51 102.99 371.835L102.06 370.935ZM101.31 376.47C100.695 378.165 99.735 379.575 98.52 380.67C97.335 379.545 96.435 378.135 95.835 376.47L101.31 376.47ZM111.255 377.385L111.255 382.065L112.305 382.065L112.305 378.3L117.15 378.3L117.15 382.065L118.23 382.065L118.23 377.385L111.255 377.385ZM115.065 382.8C116.28 383.265 117.75 384.045 118.47 384.63L119.025 383.82C118.275 383.25 116.79 382.515 115.575 382.065L115.065 382.8ZM114.195 379.065L114.195 380.505C114.195 381.735 113.58 382.95 110.265 383.76C110.46 383.94 110.76 384.405 110.865 384.645C114.42 383.73 115.26 382.14 115.26 380.55L115.26 379.065L114.195 379.065ZM107.265 370.815C106.935 373.05 106.35 375.225 105.435 376.65C105.675 376.785 106.11 377.145 106.275 377.31C106.8 376.455 107.25 375.345 107.595 374.115L109.53 374.115C109.29 374.865 108.99 375.63 108.705 376.155L109.56 376.455C110.01 375.675 110.475 374.415 110.835 373.32L110.115 373.08L109.935 373.125L107.865 373.125C108.03 372.435 108.165 371.73 108.285 371.01L107.265 370.815ZM107.265 384.495C107.46 384.21 107.835 383.895 110.43 381.9C110.325 381.675 110.175 381.285 110.1 381L108.51 382.17L108.51 376.2L107.49 376.2L107.49 382.23C107.49 382.98 106.935 383.52 106.635 383.745C106.83 383.91 107.145 384.285 107.265 384.495ZM111.33 371.805L111.33 374.685L114.285 374.685L114.285 375.66L110.565 375.66L110.565 376.545L119.415 376.545L119.415 375.66L115.32 375.66L115.32 374.685L118.395 374.685L118.395 371.805L115.32 371.805L115.32 370.815L114.285 370.815L114.285 371.805L111.33 371.805ZM112.275 372.6L114.285 372.6L114.285 373.89L112.275 373.89L112.275 372.6ZM115.32 372.6L117.405 372.6L117.405 373.89L115.32 373.89L115.32 372.6Z"></path></g><g ><path     fill="#B0D4F0"  d="M311.6 382.376L314.032 379.608L314.032 378.504L311.6 375.72L310.96 376.264L313.072 379.064L310.96 381.88L311.6 382.376Z"></path></g><g opacity="0.9"><rect  x="40" y="415" width="310" height="55" rx="14"    fill="#FFFFFF" ></rect></g><g ><path     fill="#2C5F8A"  d="M62.295 436.85L62.295 442.295C62.295 444.41 62.145 447.065 60.48 448.94C60.735 449.075 61.185 449.45 61.35 449.675C62.505 448.4 63.015 446.675 63.24 444.995L67.005 444.995L67.005 449.465L68.145 449.465L68.145 444.995L72.195 444.995L72.195 448.07C72.195 448.34 72.09 448.43 71.79 448.445C71.505 448.46 70.485 448.475 69.435 448.43C69.585 448.73 69.765 449.225 69.825 449.51C71.235 449.525 72.105 449.51 72.615 449.33C73.125 449.15 73.305 448.805 73.305 448.07L73.305 436.85L62.295 436.85ZM63.405 437.93L67.005 437.93L67.005 440.345L63.405 440.345L63.405 437.93ZM72.195 437.93L72.195 440.345L68.145 440.345L68.145 437.93L72.195 437.93ZM63.405 441.41L67.005 441.41L67.005 443.93L63.345 443.93C63.39 443.36 63.405 442.805 63.405 442.295L63.405 441.41ZM72.195 441.41L72.195 443.93L68.145 443.93L68.145 441.41L72.195 441.41ZM78.705 439.175L86.535 439.175L86.535 442.19L78.69 442.19L78.705 441.395L78.705 439.175ZM81.615 436.01C81.915 436.67 82.245 437.51 82.425 438.125L77.535 438.125L77.535 441.395C77.535 443.66 77.34 446.78 75.51 449.015C75.78 449.135 76.275 449.48 76.485 449.69C77.955 447.89 78.48 445.4 78.645 443.24L86.535 443.24L86.535 444.23L87.675 444.23L87.675 438.125L82.92 438.125L83.61 437.915C83.43 437.33 83.055 436.415 82.695 435.725L81.615 436.01ZM95.79 441.29C95.52 442.715 95.025 444.14 94.365 445.1C94.605 445.235 95.04 445.535 95.22 445.685C95.895 444.65 96.48 443.075 96.81 441.485L95.79 441.29ZM102.57 441.53C102.99 442.91 103.41 444.74 103.53 445.82L104.58 445.55C104.415 444.5 103.965 442.715 103.53 441.335L102.57 441.53ZM92.4 435.8L92.4 439.31L90.705 439.31L90.705 440.36L92.4 440.36L92.4 449.585L93.495 449.585L93.495 440.36L95.1 440.36L95.1 439.31L93.495 439.31L93.495 435.8L92.4 435.8ZM98.235 435.935L98.235 438.62L98.235 438.65L95.565 438.65L95.565 439.745L98.22 439.745C98.13 442.64 97.515 446.135 94.2 448.85C94.47 449.03 94.875 449.375 95.07 449.615C98.565 446.69 99.21 442.895 99.3 439.745L101.385 439.745C101.235 445.565 101.085 447.695 100.68 448.175C100.53 448.37 100.38 448.4 100.095 448.4C99.78 448.4 99 448.4 98.13 448.325C98.34 448.625 98.445 449.09 98.475 449.42C99.27 449.465 100.08 449.48 100.545 449.42C101.04 449.375 101.355 449.24 101.655 448.835C102.165 448.16 102.315 445.925 102.465 439.22C102.465 439.07 102.48 438.65 102.48 438.65L99.315 438.65L99.315 438.62L99.315 435.935L98.235 435.935ZM113.13 436.505C113.73 437.51 114.36 438.845 114.6 439.67L115.62 439.205C115.38 438.38 114.705 437.09 114.075 436.1L113.13 436.505ZM106.695 436.835C107.37 437.54 108.18 438.53 108.57 439.16L109.425 438.455C109.035 437.84 108.195 436.91 107.505 436.22L106.695 436.835ZM117.48 436.73C116.985 439.85 116.205 442.655 114.6 444.905C113.085 442.805 112.17 440.09 111.63 436.91L110.565 437.09C111.21 440.645 112.185 443.6 113.835 445.85C112.785 447.035 111.42 448.025 109.665 448.775C109.875 449.015 110.19 449.435 110.34 449.705C112.08 448.925 113.46 447.905 114.555 446.72C115.68 447.98 117.09 448.955 118.83 449.645C119.01 449.345 119.37 448.895 119.64 448.67C117.87 448.04 116.46 447.065 115.32 445.805C117.135 443.375 118.035 440.33 118.635 436.91L117.48 436.73ZM105.69 440.495L105.69 441.59L107.805 441.59L107.805 446.885C107.805 447.665 107.4 448.175 107.16 448.415C107.355 448.58 107.685 448.97 107.805 449.21C108.045 448.91 108.435 448.61 111.075 446.735C110.955 446.51 110.79 446.075 110.7 445.775L108.9 447.02L108.9 440.495L105.69 440.495Z"></path></g><g ><path     fill="#B0D4F0"  d="M311.6 447.376L314.032 444.608L314.032 443.504L311.6 440.72L310.96 441.264L313.072 444.064L310.96 446.88L311.6 447.376Z"></path></g><g opacity="0.9"><rect  x="40" y="480" width="310" height="55" rx="14"    fill="#FFFFFF" ></rect></g><g ><path     fill="#2C5F8A"  d="M67.17 510.88L67.17 513.13C67.17 514.18 67.485 514.465 68.79 514.465C69.06 514.465 70.725 514.465 70.995 514.465C72 514.465 72.315 514.12 72.435 512.59C72.135 512.53 71.715 512.38 71.505 512.215C71.46 513.37 71.37 513.505 70.89 513.505C70.53 513.505 69.135 513.505 68.88 513.505C68.295 513.505 68.19 513.445 68.19 513.13L68.19 510.88L67.17 510.88ZM65.835 510.835C65.595 511.72 65.145 512.89 64.65 513.61L65.505 514.165C66.015 513.355 66.45 512.11 66.705 511.21L65.835 510.835ZM68.115 510.25C68.94 510.85 69.99 511.69 70.5 512.245L71.205 511.555C70.68 511.03 69.63 510.205 68.805 509.665L68.115 510.25ZM71.835 511C72.51 511.93 73.2 513.175 73.47 514.015L74.4 513.61C74.1 512.785 73.41 511.57 72.72 510.655L71.835 511ZM68.115 500.935C67.59 501.94 66.645 503.215 65.37 504.175C65.61 504.31 65.94 504.625 66.12 504.85L66.15 504.82L66.15 505.345L72.435 505.345L72.435 506.575L66.495 506.575L66.495 507.43L72.435 507.43L72.435 508.765L66.06 508.765L66.06 509.65L73.5 509.65L73.5 504.46L70.875 504.46C71.415 503.845 72 503.11 72.39 502.435L71.7 501.985L71.55 502.03L68.61 502.03C68.82 501.715 69 501.415 69.165 501.115L68.115 500.935ZM66.57 504.46C67.095 503.965 67.575 503.44 67.995 502.9L70.905 502.9C70.56 503.44 70.095 504.025 69.705 504.46L66.57 504.46ZM61.215 501.445L61.215 514.6L62.22 514.6L62.22 502.465L64.23 502.465C63.9 503.485 63.465 504.85 63.03 505.945C64.11 507.115 64.38 508.12 64.38 508.945C64.38 509.395 64.305 509.8 64.08 509.965C63.945 510.055 63.795 510.085 63.6 510.1C63.36 510.115 63.075 510.1 62.73 510.085C62.895 510.37 62.985 510.805 63 511.075C63.345 511.09 63.72 511.075 64.02 511.045C64.335 511.015 64.59 510.925 64.8 510.775C65.22 510.49 65.4 509.86 65.4 509.05C65.4 508.12 65.145 507.055 64.05 505.81C64.545 504.61 65.115 503.08 65.535 501.835L64.815 501.4L64.635 501.445L61.215 501.445ZM81.54 513.7C81.96 513.475 82.59 513.355 87.78 512.545C87.975 513.13 88.14 513.685 88.26 514.15L89.385 513.685C88.95 511.975 87.81 509.17 86.79 506.995L85.755 507.385C86.34 508.66 86.94 510.16 87.435 511.54L82.905 512.2C84.045 509.14 85.11 505.12 85.785 501.415L84.585 501.205C83.97 505.015 82.68 509.305 82.26 510.445C81.84 511.645 81.495 512.455 81.15 512.575C81.27 512.905 81.48 513.46 81.54 513.7ZM81.285 501.01C79.995 501.55 77.745 502.03 75.855 502.315C75.975 502.555 76.125 502.945 76.17 503.2C76.935 503.095 77.745 502.96 78.54 502.81L78.54 505.03L75.885 505.03L75.885 506.08L78.36 506.08C77.655 507.82 76.47 509.77 75.39 510.82C75.585 511.105 75.855 511.57 75.975 511.885C76.875 510.91 77.82 509.335 78.54 507.745L78.54 514.57L79.62 514.57L79.62 507.4C80.22 508.18 81.015 509.275 81.315 509.785L82.005 508.87C81.675 508.435 80.115 506.71 79.62 506.245L79.62 506.08L82.095 506.08L82.095 505.03L79.62 505.03L79.62 502.6C80.475 502.405 81.285 502.18 81.945 501.925L81.285 501.01ZM99.195 500.8C98.775 503.05 98.085 505.225 97.095 506.77L97.095 506.23L95.04 506.23L95.04 502.945L97.665 502.945L97.665 501.865L90.765 501.865L90.765 502.945L93.945 502.945L93.945 511.36L92.43 511.69L92.43 505.225L91.395 505.225L91.395 511.9L90.495 512.08L90.72 513.22C92.58 512.785 95.25 512.17 97.74 511.57L97.635 510.535L95.04 511.12L95.04 507.31L96.72 507.31L96.66 507.385C96.915 507.565 97.38 507.94 97.56 508.15C97.92 507.67 98.235 507.13 98.535 506.53C98.925 508.12 99.42 509.56 100.095 510.805C99.24 512.005 98.13 512.95 96.645 513.655C96.87 513.895 97.2 514.375 97.32 514.63C98.73 513.895 99.84 512.965 100.71 511.825C101.52 513.01 102.51 513.955 103.755 514.6C103.935 514.3 104.28 513.88 104.535 513.655C103.23 513.055 102.21 512.065 101.385 510.82C102.36 509.185 102.975 507.145 103.365 504.64L104.385 504.64L104.385 503.59L99.675 503.59C99.915 502.75 100.14 501.88 100.32 500.98L99.195 500.8ZM99.33 504.64L102.225 504.64C101.94 506.635 101.475 508.315 100.755 509.71C100.05 508.315 99.555 506.68 99.225 504.91L99.33 504.64ZM113.67 500.74C113.19 502.09 112.305 503.35 111.255 504.175C111.45 504.28 111.75 504.475 111.975 504.64L111.975 505.165L106.02 505.165L106.02 506.155L111.975 506.155L111.975 507.325L107.1 507.325L107.1 511.21L108.27 511.21L108.27 508.3L111.975 508.3L111.975 509.605C110.64 511.255 108.135 512.59 105.645 513.175C105.9 513.4 106.2 513.835 106.365 514.12C108.42 513.535 110.505 512.41 111.975 510.955L111.975 514.6L113.175 514.6L113.175 510.985C114.48 512.2 116.46 513.43 118.8 514.045C118.965 513.76 119.295 513.31 119.52 513.07C116.76 512.455 114.375 511.06 113.175 509.725L113.175 508.3L116.925 508.3L116.925 510.115C116.925 510.265 116.88 510.31 116.715 510.31C116.535 510.325 115.965 510.325 115.35 510.31C115.485 510.55 115.665 510.91 115.725 511.195C116.58 511.195 117.18 511.195 117.57 511.045C117.975 510.88 118.08 510.64 118.08 510.115L118.08 507.325L113.175 507.325L113.175 506.155L118.935 506.155L118.935 505.165L113.175 505.165L113.175 504.205L112.845 504.205C113.145 503.86 113.445 503.485 113.715 503.08L114.84 503.08C115.23 503.665 115.59 504.34 115.74 504.82L116.745 504.46C116.61 504.085 116.325 503.56 116.01 503.08L119.13 503.08L119.13 502.12L114.285 502.12C114.465 501.76 114.63 501.385 114.78 501.01L113.67 500.74ZM107.865 500.74C107.355 502.06 106.47 503.35 105.495 504.205C105.765 504.355 106.23 504.67 106.44 504.835C106.92 504.355 107.4 503.755 107.85 503.08L108.57 503.08C108.9 503.68 109.215 504.385 109.365 504.85L110.355 504.475C110.235 504.1 109.98 503.575 109.71 503.08L112.275 503.08L112.275 502.12L108.405 502.12C108.6 501.76 108.78 501.4 108.93 501.025L107.865 500.74Z"></path></g><g ><path     fill="#B0D4F0"  d="M311.6 512.376L314.032 509.608L314.032 508.504L311.6 505.72L310.96 506.264L313.072 509.064L310.96 511.88L311.6 512.376Z"></path></g><g opacity="0.9"><rect  x="40" y="545" width="310" height="55" rx="14"    fill="#FFFFFF" ></rect></g><g ><path     fill="#2C5F8A"  d="M67.02 570.45L67.02 571.425L72.105 571.425L72.105 570.45L67.02 570.45ZM65.955 573.075C66.375 574.215 66.795 575.715 66.915 576.705L67.845 576.435C67.71 575.475 67.29 573.99 66.84 572.85L65.955 573.075ZM68.865 572.655C69.135 573.795 69.39 575.28 69.465 576.27L70.41 576.105C70.32 575.13 70.05 573.675 69.75 572.535L68.865 572.655ZM62.685 565.8L62.685 568.65L60.735 568.65L60.735 569.7L62.58 569.7C62.175 571.68 61.335 574.005 60.495 575.235C60.675 575.505 60.945 576 61.065 576.33C61.665 575.4 62.235 573.9 62.685 572.34L62.685 579.585L63.72 579.585L63.72 571.77C64.11 572.505 64.545 573.375 64.74 573.84L65.415 573.045C65.19 572.595 64.065 570.825 63.72 570.315L63.72 569.7L65.28 569.7L65.28 568.65L63.72 568.65L63.72 565.8L62.685 565.8ZM69.36 565.695C68.34 567.81 66.555 569.715 64.665 570.87C64.875 571.095 65.205 571.575 65.34 571.8C66.87 570.735 68.37 569.235 69.51 567.51C70.665 569.01 72.39 570.63 73.905 571.635C74.025 571.335 74.28 570.885 74.49 570.615C72.96 569.715 71.085 568.065 70.05 566.61L70.35 566.055L69.36 565.695ZM65.145 577.875L65.145 578.88L74.07 578.88L74.07 577.875L71.31 577.875C72.09 576.465 72.99 574.425 73.62 572.805L72.63 572.535C72.105 574.14 71.16 576.435 70.35 577.875L65.145 577.875ZM79.425 575.13L85.5 575.13L85.5 576.39L79.425 576.39L79.425 575.13ZM79.425 573.12L85.5 573.12L85.5 574.35L79.425 574.35L79.425 573.12ZM78.315 572.31L78.315 577.2L86.67 577.2L86.67 572.31L78.315 572.31ZM76.11 578.1L76.11 579.12L88.95 579.12L88.95 578.1L76.11 578.1ZM81.9 565.8L81.9 567.705L75.855 567.705L75.855 568.695L80.685 568.695C79.395 570.12 77.385 571.41 75.54 572.04C75.78 572.25 76.11 572.67 76.275 572.94C78.315 572.13 80.535 570.555 81.9 568.77L81.9 571.845L83.01 571.845L83.01 568.755C84.39 570.495 86.64 572.055 88.71 572.82C88.875 572.535 89.205 572.1 89.46 571.89C87.57 571.305 85.53 570.06 84.225 568.695L89.16 568.695L89.16 567.705L83.01 567.705L83.01 565.8L81.9 565.8ZM93.78 574.83L92.82 575.22C93.33 576.09 93.96 576.78 94.695 577.335C93.78 577.86 92.49 578.295 90.705 578.625C90.945 578.88 91.245 579.36 91.38 579.615C93.33 579.195 94.725 578.64 95.73 577.98C97.8 579.075 100.56 579.42 104.055 579.555C104.115 579.18 104.325 578.7 104.535 578.445C101.175 578.355 98.58 578.13 96.645 577.26C97.425 576.495 97.83 575.625 98.01 574.695L103.095 574.695L103.095 568.89L98.175 568.89L98.175 567.615L104.025 567.615L104.025 566.595L90.975 566.595L90.975 567.615L97.005 567.615L97.005 568.89L92.34 568.89L92.34 574.695L96.825 574.695C96.645 575.415 96.3 576.09 95.61 576.69C94.89 576.21 94.275 575.61 93.78 574.83ZM93.42 572.235L97.005 572.235L97.005 572.835C97.005 573.15 97.005 573.465 96.975 573.765L93.42 573.765L93.42 572.235ZM98.145 573.765C98.16 573.465 98.175 573.165 98.175 572.85L98.175 572.235L101.97 572.235L101.97 573.765L98.145 573.765ZM93.42 569.835L97.005 569.835L97.005 571.335L93.42 571.335L93.42 569.835ZM98.175 569.835L101.97 569.835L101.97 571.335L98.175 571.335L98.175 569.835ZM110.4 575.205C110.85 575.955 111.39 576.975 111.63 577.635L112.425 577.155C112.2 576.525 111.66 575.55 111.165 574.8L110.4 575.205ZM107.025 574.875C106.725 575.79 106.23 576.72 105.615 577.38C105.84 577.515 106.23 577.8 106.41 577.95C106.995 577.245 107.595 576.15 107.94 575.1L107.025 574.875ZM113.295 567.24L113.295 572.4C113.295 574.395 113.175 576.975 111.9 578.775C112.14 578.91 112.59 579.255 112.77 579.465C114.15 577.515 114.345 574.56 114.345 572.4L114.345 571.92L116.625 571.92L116.625 579.525L117.72 579.525L117.72 571.92L119.37 571.92L119.37 570.87L114.345 570.87L114.345 567.99C115.935 567.75 117.645 567.36 118.905 566.895L117.99 566.07C116.91 566.52 114.975 566.97 113.295 567.24ZM108.21 565.995C108.45 566.415 108.69 566.925 108.87 567.375L105.915 567.375L105.915 568.32L112.545 568.32L112.545 567.375L110.04 567.375C109.845 566.88 109.515 566.235 109.23 565.74L108.21 565.995ZM110.655 568.395C110.475 569.085 110.13 570.105 109.845 570.795L105.69 570.795L105.69 571.755L108.765 571.755L108.765 573.315L105.75 573.315L105.75 574.305L108.765 574.305L108.765 578.13C108.765 578.28 108.735 578.325 108.585 578.325C108.42 578.34 107.955 578.34 107.43 578.325C107.58 578.595 107.73 579.015 107.76 579.285C108.495 579.285 109.005 579.27 109.35 579.105C109.695 578.94 109.8 578.67 109.8 578.145L109.8 574.305L112.605 574.305L112.605 573.315L109.8 573.315L109.8 571.755L112.785 571.755L112.785 570.795L110.865 570.795C111.15 570.165 111.435 569.355 111.705 568.62L110.655 568.395ZM106.89 568.635C107.19 569.31 107.415 570.21 107.475 570.795L108.45 570.525C108.375 569.955 108.12 569.07 107.805 568.425L106.89 568.635Z"></path></g><g ><path     fill="#7BA8C9"  d="M229.116 568.584L229.116 569.484L236.964 569.484L236.964 572.64L230.664 572.64L230.664 570.66L229.752 570.66L229.752 576.696C229.752 578.184 230.364 578.544 232.308 578.544C232.764 578.544 236.34 578.544 236.82 578.544C238.8 578.544 239.196 577.884 239.424 575.676C239.16 575.628 238.752 575.472 238.512 575.304C238.344 577.236 238.14 577.656 236.832 577.656C236.016 577.656 232.896 577.656 232.26 577.656C230.94 577.656 230.664 577.476 230.664 576.708L230.664 573.528L236.964 573.528L236.964 574.128L237.9 574.128L237.9 568.584L229.116 568.584ZM242.832 570.636L249.084 570.636L249.084 571.62L242.832 571.62L242.832 570.636ZM242.832 569.016L249.084 569.016L249.084 569.988L242.832 569.988L242.832 569.016ZM241.968 568.332L241.968 572.304L249.996 572.304L249.996 568.332L241.968 568.332ZM242.772 574.332C242.46 576.084 241.692 577.44 240.42 578.268C240.624 578.4 240.972 578.736 241.104 578.892C241.896 578.328 242.52 577.56 242.976 576.612C243.96 578.268 245.508 578.64 247.932 578.64L251.22 578.64C251.268 578.388 251.412 577.992 251.556 577.776C250.932 577.788 248.424 577.8 247.968 577.788C247.464 577.788 246.984 577.776 246.552 577.728L246.552 576.072L250.536 576.072L250.536 575.28L246.552 575.28L246.552 573.936L251.316 573.936L251.316 573.132L240.708 573.132L240.708 573.936L245.652 573.936L245.652 577.572C244.608 577.308 243.84 576.744 243.372 575.64C243.492 575.268 243.588 574.872 243.672 574.452L242.772 574.332ZM254.976 570.3L261.036 570.3L261.036 571.152L254.976 571.152L254.976 570.3ZM254.976 568.86L261.036 568.86L261.036 569.7L254.976 569.7L254.976 568.86ZM254.112 568.224L254.112 571.788L261.936 571.788L261.936 568.224L254.112 568.224ZM256.752 573.216L256.752 574.02L254.568 574.02L254.568 573.216L256.752 573.216ZM252.564 577.404L252.648 578.208L256.752 577.716L256.752 578.88L257.616 578.88L257.616 577.608L258.264 577.524L258.264 576.792L257.616 576.864L257.616 573.216L263.388 573.216L263.388 572.46L252.588 572.46L252.588 573.216L253.74 573.216L253.74 577.296L252.564 577.404ZM258.084 573.96L258.084 574.704L258.804 574.704L258.564 574.776C258.924 575.652 259.416 576.432 260.052 577.08C259.392 577.572 258.648 577.944 257.892 578.184C258.048 578.34 258.264 578.652 258.348 578.844C259.152 578.556 259.944 578.148 260.64 577.608C261.312 578.16 262.116 578.58 263.028 578.844C263.148 578.628 263.376 578.304 263.568 578.136C262.692 577.92 261.912 577.548 261.252 577.068C262.044 576.3 262.668 575.34 263.04 574.152L262.524 573.924L262.356 573.96L258.084 573.96ZM259.356 574.704L261.984 574.704C261.672 575.412 261.204 576.036 260.652 576.564C260.1 576.036 259.668 575.412 259.356 574.704ZM256.752 574.692L256.752 575.544L254.568 575.544L254.568 574.692L256.752 574.692ZM256.752 576.216L256.752 576.96L254.568 577.212L254.568 576.216L256.752 576.216ZM268.32 575.364C268.68 575.964 269.112 576.78 269.304 577.308L269.94 576.924C269.76 576.42 269.328 575.64 268.932 575.04L268.32 575.364ZM265.62 575.1C265.38 575.832 264.984 576.576 264.492 577.104C264.672 577.212 264.984 577.44 265.128 577.56C265.596 576.996 266.076 576.12 266.352 575.28L265.62 575.1ZM270.636 568.992L270.636 573.12C270.636 574.716 270.54 576.78 269.52 578.22C269.712 578.328 270.072 578.604 270.216 578.772C271.32 577.212 271.476 574.848 271.476 573.12L271.476 572.736L273.3 572.736L273.3 578.82L274.176 578.82L274.176 572.736L275.496 572.736L275.496 571.896L271.476 571.896L271.476 569.592C272.748 569.4 274.116 569.088 275.124 568.716L274.392 568.056C273.528 568.416 271.98 568.776 270.636 568.992ZM266.568 567.996C266.76 568.332 266.952 568.74 267.096 569.1L264.732 569.1L264.732 569.856L270.036 569.856L270.036 569.1L268.032 569.1C267.876 568.704 267.612 568.188 267.384 567.792L266.568 567.996ZM268.524 569.916C268.38 570.468 268.104 571.284 267.876 571.836L264.552 571.836L264.552 572.604L267.012 572.604L267.012 573.852L264.6 573.852L264.6 574.644L267.012 574.644L267.012 577.704C267.012 577.824 266.988 577.86 266.868 577.86C266.736 577.872 266.364 577.872 265.944 577.86C266.064 578.076 266.184 578.412 266.208 578.628C266.796 578.628 267.204 578.616 267.48 578.484C267.756 578.352 267.84 578.136 267.84 577.716L267.84 574.644L270.084 574.644L270.084 573.852L267.84 573.852L267.84 572.604L270.228 572.604L270.228 571.836L268.692 571.836C268.92 571.332 269.148 570.684 269.364 570.096L268.524 569.916ZM265.512 570.108C265.752 570.648 265.932 571.368 265.98 571.836L266.76 571.62C266.7 571.164 266.496 570.456 266.244 569.94L265.512 570.108ZM277.26 568.08L277.26 572.856C277.26 574.668 277.152 576.828 276.36 578.364C276.564 578.484 276.864 578.748 277.008 578.916C277.716 577.68 277.968 576.108 278.052 574.524L279.708 574.524L279.708 578.868L280.536 578.868L280.536 573.708L278.076 573.708L278.088 572.844L278.088 571.968L281.268 571.968L281.268 571.164L280.212 571.164L280.212 567.816L279.384 567.816L279.384 571.164L278.088 571.164L278.088 568.08L277.26 568.08ZM286.224 572.172C285.96 573.54 285.504 574.704 284.916 575.664C284.328 574.656 283.908 573.468 283.632 572.172L286.224 572.172ZM281.796 568.656L281.796 572.796C281.796 574.584 281.688 576.84 280.764 578.436C280.98 578.544 281.328 578.784 281.484 578.94C282.516 577.224 282.66 574.812 282.66 572.796L282.66 572.172L282.912 572.172C283.224 573.78 283.704 575.208 284.4 576.384C283.752 577.188 282.996 577.788 282.168 578.172C282.36 578.34 282.588 578.688 282.708 578.904C283.524 578.484 284.268 577.896 284.904 577.14C285.468 577.884 286.14 578.472 286.944 578.904C287.076 578.676 287.352 578.352 287.556 578.184C286.716 577.788 286.008 577.2 285.432 576.444C286.284 575.184 286.896 573.54 287.184 571.452L286.644 571.308L286.5 571.344L282.66 571.344L282.66 569.376C284.304 569.244 286.092 569.016 287.376 568.704L286.812 567.936C285.6 568.248 283.56 568.512 281.796 568.656ZM293.52 567.852L293.52 570.372L288.78 570.372L288.78 571.284L292.404 571.284C291.528 573.324 290.04 575.268 288.444 576.24C288.66 576.42 288.96 576.744 289.104 576.972C290.844 575.784 292.392 573.636 293.328 571.284L293.52 571.284L293.52 575.724L290.712 575.724L290.712 576.636L293.52 576.636L293.52 578.88L294.468 578.88L294.468 576.636L297.264 576.636L297.264 575.724L294.468 575.724L294.468 571.284L294.636 571.284C295.548 573.636 297.096 575.796 298.872 576.948C299.04 576.696 299.352 576.348 299.58 576.168C297.912 575.208 296.4 573.312 295.536 571.284L299.244 571.284L299.244 570.372L294.468 570.372L294.468 567.852L293.52 567.852Z"></path></g></g><defs><clipPath id="clip-path-cW9-1Sw6DkYs45dmDc5IH"><path d="M0 844L390 844L390 0L0 0L0 844Z" fill="white"/></clipPath></defs></svg>