<svg xmlns="http://www.w3.org/2000/svg" xmlns:xlink="http://www.w3.org/1999/xlink" width="390.0001220703125" height="844" viewBox="0 0 390.0001220703125 844" fill="none"><rect x="0" y="0" width="390" height="54"   fill="#E8F4FD" ></rect><g ><path     fill="#333333"  d="M33.66 38.61C35.775 38.61 37.755 36.84 37.755 32.505C37.755 28.845 36.045 27.15 33.93 27.15C32.145 27.15 30.63 28.59 30.63 30.78C30.63 33.09 31.89 34.26 33.735 34.26C34.575 34.26 35.505 33.765 36.135 32.985C36.045 36.105 34.92 37.17 33.57 37.17C32.88 37.17 32.205 36.855 31.77 36.345L30.825 37.425C31.47 38.085 32.37 38.61 33.66 38.61ZM36.12 31.65C35.49 32.61 34.71 33 34.035 33C32.88 33 32.25 32.175 32.25 30.78C32.25 29.34 33 28.485 33.96 28.485C35.145 28.485 35.955 29.475 36.12 31.65ZM40.785 32.7C41.445 32.7 41.955 32.205 41.955 31.5C41.955 30.78 41.445 30.27 40.785 30.27C40.14 30.27 39.63 30.78 39.63 31.5C39.63 32.205 40.14 32.7 40.785 32.7ZM40.785 38.61C41.445 38.61 41.955 38.085 41.955 37.38C41.955 36.675 41.445 36.165 40.785 36.165C40.14 36.165 39.63 36.675 39.63 37.38C39.63 38.085 40.14 38.61 40.785 38.61ZM48.105 38.4L49.725 38.4L49.725 35.43L51.12 35.43L51.12 34.08L49.725 34.08L49.725 27.345L47.715 27.345L43.32 34.275L43.32 35.43L48.105 35.43L48.105 38.4ZM48.105 34.08L45.075 34.08L47.235 30.765C47.55 30.195 47.85 29.625 48.12 29.055L48.18 29.055C48.15 29.67 48.105 30.6 48.105 31.2L48.105 34.08ZM52.845 38.4L59.16 38.4L59.16 36.975L57.015 36.975L57.015 27.345L55.71 27.345C55.065 27.75 54.33 28.02 53.295 28.2L53.295 29.295L55.275 29.295L55.275 36.975L52.845 36.975L52.845 38.4Z"></path></g><g ><path     fill="#333333"  d="M341.5 40.2L353.5 40.2L353.5 25.2L341.5 25.2L341.5 40.2ZM347.5 32.085L342.73 25.95L352.27 25.95L347.5 32.085ZM347.98 32.7L352.75 26.565L352.75 38.835L347.98 32.7ZM342.73 39.45L347.5 33.315L352.27 39.45L342.73 39.45ZM342.25 26.565L347.02 32.7L342.25 38.835L342.25 26.565ZM356.5 40.2L368.5 40.2L368.5 25.2L356.5 25.2L356.5 40.2ZM362.5 32.085L357.73 25.95L367.27 25.95L362.5 32.085ZM362.98 32.7L367.75 26.565L367.75 38.835L362.98 32.7ZM357.73 39.45L362.5 33.315L367.27 39.45L357.73 39.45ZM357.25 26.565L362.02 32.7L357.25 38.835L357.25 26.565ZM371.5 40.2L383.5 40.2L383.5 25.2L371.5 25.2L371.5 40.2ZM377.5 32.085L372.73 25.95L382.27 25.95L377.5 32.085ZM377.98 32.7L382.75 26.565L382.75 38.835L377.98 32.7ZM372.73 39.45L377.5 33.315L382.27 39.45L372.73 39.45ZM372.25 26.565L377.02 32.7L372.25 38.835L372.25 26.565Z"></path></g><rect x="0" y="54" width="390" height="60"   fill="#E8F4FD" ></rect><g ><path     fill="#2C5F8A"  d="M171.672 82.948C172.716 83.866 173.94 85.18 174.498 86.044L175.596 85.252C175.002 84.406 173.742 83.128 172.698 82.228L171.672 82.948ZM173.976 89.194C173.364 90.346 172.554 91.48 171.6 92.506C171.294 91.3 171.042 89.896 170.862 88.366L176.028 88.366L176.028 87.088L170.718 87.088C170.574 85.468 170.502 83.722 170.502 81.904L169.08 81.904C169.098 83.686 169.188 85.432 169.332 87.088L165.21 87.088L165.21 83.92C166.308 83.686 167.352 83.416 168.234 83.11L167.28 81.976C165.552 82.624 162.636 83.236 160.116 83.614C160.278 83.938 160.458 84.424 160.53 84.748C161.592 84.604 162.744 84.424 163.86 84.208L163.86 87.088L160.008 87.088L160.008 88.366L163.86 88.366L163.86 91.552L159.738 92.362L160.134 93.73L163.86 92.884L163.86 96.574C163.86 96.88 163.752 96.97 163.446 96.988C163.122 97.006 162.06 97.006 160.908 96.97C161.106 97.348 161.34 97.96 161.394 98.338C162.888 98.338 163.86 98.302 164.418 98.086C165.012 97.87 165.21 97.456 165.21 96.574L165.21 92.56L168.54 91.786L168.432 90.58L165.21 91.264L165.21 88.366L169.458 88.366C169.692 90.328 170.034 92.128 170.466 93.64C169.17 94.828 167.712 95.836 166.182 96.574C166.524 96.862 166.92 97.312 167.118 97.636C168.468 96.934 169.764 96.034 170.934 94.99C171.744 97.096 172.86 98.374 174.282 98.374C175.632 98.374 176.136 97.492 176.37 94.504C176.01 94.378 175.524 94.072 175.236 93.766C175.128 96.088 174.912 97.006 174.408 97.006C173.508 97.006 172.68 95.854 172.032 93.946C173.274 92.668 174.354 91.228 175.164 89.698L173.976 89.194ZM186.936 89.266C187.926 90.58 189.15 92.38 189.69 93.478L190.842 92.758C190.248 91.696 189.006 89.95 187.98 88.672L186.936 89.266ZM181.32 81.724C181.176 82.588 180.87 83.776 180.582 84.658L178.566 84.658L178.566 97.852L179.808 97.852L179.808 96.43L184.83 96.43L184.83 84.658L181.824 84.658C182.13 83.884 182.472 82.876 182.778 81.976L181.32 81.724ZM179.808 85.864L183.588 85.864L183.588 89.662L179.808 89.662L179.808 85.864ZM179.808 95.206L179.808 90.85L183.588 90.85L183.588 95.206L179.808 95.206ZM187.764 81.688C187.188 84.172 186.216 86.656 184.974 88.258C185.298 88.438 185.856 88.816 186.108 89.032C186.72 88.168 187.296 87.07 187.8 85.846L192.408 85.846C192.192 93.064 191.904 95.836 191.328 96.448C191.112 96.7 190.914 96.754 190.554 96.754C190.14 96.754 189.06 96.736 187.872 96.646C188.124 96.988 188.286 97.564 188.322 97.942C189.33 97.996 190.392 98.032 191.004 97.978C191.652 97.906 192.048 97.762 192.462 97.222C193.182 96.34 193.434 93.55 193.704 85.288C193.722 85.108 193.722 84.604 193.722 84.604L188.286 84.604C188.574 83.758 188.844 82.858 189.06 81.976L187.764 81.688ZM195.738 95.926L195.972 97.276C197.754 96.916 200.202 96.43 202.542 95.962L202.434 94.738C199.986 95.188 197.412 95.674 195.738 95.926ZM196.08 89.248C196.386 89.104 196.854 89.014 199.374 88.708C198.474 89.842 197.646 90.742 197.268 91.084C196.638 91.732 196.188 92.164 195.756 92.254C195.918 92.614 196.152 93.28 196.224 93.568C196.62 93.352 197.286 93.208 202.362 92.416C202.326 92.128 202.29 91.588 202.308 91.246L198.276 91.804C199.842 90.256 201.408 88.33 202.758 86.35L201.57 85.576C201.192 86.224 200.76 86.872 200.31 87.484L197.628 87.718C198.816 86.206 200.004 84.28 200.958 82.372L199.626 81.796C198.726 83.956 197.232 86.242 196.764 86.836C196.332 87.43 195.99 87.844 195.63 87.916C195.792 88.276 196.008 88.942 196.08 89.248ZM203.28 82.93L203.28 84.262L209.832 84.262L209.832 88.834L203.568 88.834L203.568 95.818C203.568 97.528 204.162 97.96 206.088 97.96C206.502 97.96 209.4 97.96 209.85 97.96C211.722 97.96 212.154 97.132 212.334 94.234C211.956 94.144 211.38 93.91 211.056 93.658C210.948 96.214 210.786 96.682 209.778 96.682C209.13 96.682 206.682 96.682 206.196 96.682C205.134 96.682 204.954 96.52 204.954 95.818L204.954 90.13L209.832 90.13L209.832 91.048L211.182 91.048L211.182 82.93L203.28 82.93ZM225.096 92.704C224.502 93.748 223.674 94.558 222.576 95.206C221.262 94.882 219.912 94.594 218.58 94.342C218.958 93.856 219.39 93.298 219.804 92.704L225.096 92.704ZM215.142 85.27L215.142 89.932L219.948 89.932C219.696 90.436 219.39 90.976 219.048 91.516L213.972 91.516L213.972 92.704L218.238 92.704C217.608 93.586 216.942 94.414 216.348 95.062C217.878 95.35 219.372 95.656 220.794 95.998C219.03 96.61 216.798 96.952 214.062 97.114C214.296 97.42 214.512 97.906 214.62 98.284C218.022 97.996 220.704 97.474 222.738 96.484C225.024 97.096 227.004 97.726 228.48 98.32L229.632 97.276C228.192 96.736 226.302 96.16 224.214 95.602C225.24 94.846 226.032 93.892 226.59 92.704L230.046 92.704L230.046 91.516L220.596 91.516C220.884 91.048 221.154 90.58 221.388 90.13L220.56 89.932L228.984 89.932L228.984 85.27L224.646 85.27L224.646 83.74L229.74 83.74L229.74 82.534L214.242 82.534L214.242 83.74L219.156 83.74L219.156 85.27L215.142 85.27ZM220.434 83.74L223.368 83.74L223.368 85.27L220.434 85.27L220.434 83.74ZM216.42 86.386L219.156 86.386L219.156 88.834L216.42 88.834L216.42 86.386ZM220.434 86.386L223.368 86.386L223.368 88.834L220.434 88.834L220.434 86.386ZM224.646 86.386L227.652 86.386L227.652 88.834L224.646 88.834L224.646 86.386Z"></path></g><circle cx="195" cy="280" r="60"   fill="#E8F0F8" ></circle><g ><path     fill="#2C5F8A"  d="M151.17 358.966L151.17 361.666C151.17 363.142 151.026 365.086 149.874 366.544C150.162 366.67 150.684 367.012 150.918 367.228C151.872 366.04 152.214 364.366 152.322 362.908L154.752 362.908L154.752 367.192L156.012 367.192L156.012 362.908L158.118 362.908L158.118 361.81L152.376 361.81L152.376 361.684L152.376 359.884C154.212 359.74 156.228 359.452 157.632 359.02L156.876 358.012C155.526 358.462 153.168 358.804 151.17 358.966ZM145.428 371.116L154.59 371.116L154.59 372.61L145.428 372.61L145.428 371.116ZM145.428 370.126L145.428 368.65L154.59 368.65L154.59 370.126L145.428 370.126ZM144.15 367.588L144.15 374.32L145.428 374.32L145.428 373.69L154.59 373.69L154.59 374.284L155.922 374.284L155.922 367.588L144.15 367.588ZM141.99 364.924L142.098 366.058L146.238 365.608L146.238 367.228L147.498 367.228L147.498 365.464L150.252 365.158L150.234 364.132L147.498 364.402L147.498 363.052L150.342 363.052L150.342 361.954L147.498 361.954L147.498 360.784L146.238 360.784L146.238 361.954L143.916 361.954C144.402 361.378 144.906 360.73 145.374 360.028L150.306 360.028L150.306 358.966L146.058 358.966L146.562 358.084L145.212 357.706C145.032 358.138 144.816 358.552 144.6 358.966L141.954 358.966L141.954 360.028L143.97 360.028C143.592 360.622 143.25 361.09 143.088 361.288C142.764 361.72 142.458 362.008 142.17 362.062C142.332 362.422 142.53 363.034 142.602 363.304C142.764 363.16 143.304 363.052 144.06 363.052L146.238 363.052L146.238 364.528L141.99 364.924ZM161.052 358.966L161.052 360.298L167.028 360.298C166.974 361.576 166.92 362.944 166.704 364.294L159.936 364.294L159.936 365.608L166.452 365.608C165.714 368.704 163.968 371.602 159.702 373.222C160.044 373.492 160.44 373.978 160.62 374.32C165.264 372.466 167.064 369.136 167.82 365.608L168.198 365.608L168.198 371.8C168.198 373.438 168.702 373.906 170.574 373.906C170.952 373.906 173.526 373.906 173.94 373.906C175.668 373.906 176.1 373.15 176.28 370.27C175.884 370.18 175.29 369.946 174.966 369.694C174.876 372.16 174.732 372.574 173.85 372.574C173.292 372.574 171.132 372.574 170.7 372.574C169.782 372.574 169.602 372.448 169.602 371.8L169.602 365.608L176.118 365.608L176.118 364.294L168.054 364.294C168.252 362.944 168.342 361.594 168.378 360.298L175.092 360.298L175.092 358.966L161.052 358.966ZM179.826 373.924C180.51 373.672 181.518 373.6 191.058 372.79C191.472 373.33 191.832 373.852 192.084 374.302L193.29 373.564C192.498 372.214 190.788 370.27 189.168 368.83L188.034 369.442C188.736 370.09 189.456 370.846 190.104 371.602L181.914 372.232C183.192 371.044 184.47 369.604 185.586 368.128L193.524 368.128L193.524 366.814L178.602 366.814L178.602 368.128L183.75 368.128C182.58 369.73 181.212 371.152 180.726 371.584C180.168 372.106 179.754 372.448 179.358 372.538C179.52 372.898 179.754 373.618 179.826 373.924ZM186.072 357.76C184.452 360.172 181.284 362.458 177.756 363.952C178.08 364.204 178.548 364.78 178.746 365.122C179.79 364.636 180.798 364.096 181.752 363.502L181.752 364.6L190.338 364.6L190.338 363.34L181.986 363.34C183.534 362.332 184.92 361.198 186.054 359.956C187.134 361.072 188.646 362.296 190.338 363.34C191.31 363.952 192.354 364.492 193.38 364.906C193.596 364.546 194.046 363.988 194.334 363.718C191.418 362.71 188.484 360.748 186.828 359.038L187.368 358.318L186.072 357.76ZM204.756 358.606C205.476 359.812 206.232 361.414 206.52 362.404L207.744 361.846C207.456 360.856 206.646 359.308 205.89 358.12L204.756 358.606ZM197.034 359.002C197.844 359.848 198.816 361.036 199.284 361.792L200.31 360.946C199.842 360.208 198.834 359.092 198.006 358.264L197.034 359.002ZM209.976 358.876C209.382 362.62 208.446 365.986 206.52 368.686C204.702 366.166 203.604 362.908 202.956 359.092L201.678 359.308C202.452 363.574 203.622 367.12 205.602 369.82C204.342 371.242 202.704 372.43 200.598 373.33C200.85 373.618 201.228 374.122 201.408 374.446C203.496 373.51 205.152 372.286 206.466 370.864C207.816 372.376 209.508 373.546 211.596 374.374C211.812 374.014 212.244 373.474 212.568 373.204C210.444 372.448 208.752 371.278 207.384 369.766C209.562 366.85 210.642 363.196 211.362 359.092L209.976 358.876ZM195.828 363.394L195.828 364.708L198.366 364.708L198.366 371.062C198.366 371.998 197.88 372.61 197.592 372.898C197.826 373.096 198.222 373.564 198.366 373.852C198.654 373.492 199.122 373.132 202.29 370.882C202.146 370.612 201.948 370.09 201.84 369.73L199.68 371.224L199.68 363.394L195.828 363.394ZM213.738 371.926L213.972 373.276C215.754 372.916 218.202 372.43 220.542 371.962L220.434 370.738C217.986 371.188 215.412 371.674 213.738 371.926ZM214.08 365.248C214.386 365.104 214.854 365.014 217.374 364.708C216.474 365.842 215.646 366.742 215.268 367.084C214.638 367.732 214.188 368.164 213.756 368.254C213.918 368.614 214.152 369.28 214.224 369.568C214.62 369.352 215.286 369.208 220.362 368.416C220.326 368.128 220.29 367.588 220.308 367.246L216.276 367.804C217.842 366.256 219.408 364.33 220.758 362.35L219.57 361.576C219.192 362.224 218.76 362.872 218.31 363.484L215.628 363.718C216.816 362.206 218.004 360.28 218.958 358.372L217.626 357.796C216.726 359.956 215.232 362.242 214.764 362.836C214.332 363.43 213.99 363.844 213.63 363.916C213.792 364.276 214.008 364.942 214.08 365.248ZM221.28 358.93L221.28 360.262L227.832 360.262L227.832 364.834L221.568 364.834L221.568 371.818C221.568 373.528 222.162 373.96 224.088 373.96C224.502 373.96 227.4 373.96 227.85 373.96C229.722 373.96 230.154 373.132 230.334 370.234C229.956 370.144 229.38 369.91 229.056 369.658C228.948 372.214 228.786 372.682 227.778 372.682C227.13 372.682 224.682 372.682 224.196 372.682C223.134 372.682 222.954 372.52 222.954 371.818L222.954 366.13L227.832 366.13L227.832 367.048L229.182 367.048L229.182 358.93L221.28 358.93ZM243.096 368.704C242.502 369.748 241.674 370.558 240.576 371.206C239.262 370.882 237.912 370.594 236.58 370.342C236.958 369.856 237.39 369.298 237.804 368.704L243.096 368.704ZM233.142 361.27L233.142 365.932L237.948 365.932C237.696 366.436 237.39 366.976 237.048 367.516L231.972 367.516L231.972 368.704L236.238 368.704C235.608 369.586 234.942 370.414 234.348 371.062C235.878 371.35 237.372 371.656 238.794 371.998C237.03 372.61 234.798 372.952 232.062 373.114C232.296 373.42 232.512 373.906 232.62 374.284C236.022 373.996 238.704 373.474 240.738 372.484C243.024 373.096 245.004 373.726 246.48 374.32L247.632 373.276C246.192 372.736 244.302 372.16 242.214 371.602C243.24 370.846 244.032 369.892 244.59 368.704L248.046 368.704L248.046 367.516L238.596 367.516C238.884 367.048 239.154 366.58 239.388 366.13L238.56 365.932L246.984 365.932L246.984 361.27L242.646 361.27L242.646 359.74L247.74 359.74L247.74 358.534L232.242 358.534L232.242 359.74L237.156 359.74L237.156 361.27L233.142 361.27ZM238.434 359.74L241.368 359.74L241.368 361.27L238.434 361.27L238.434 359.74ZM234.42 362.386L237.156 362.386L237.156 364.834L234.42 364.834L234.42 362.386ZM238.434 362.386L241.368 362.386L241.368 364.834L238.434 364.834L238.434 362.386ZM242.646 362.386L245.652 362.386L245.652 364.834L242.646 364.834L242.646 362.386Z"></path></g><g ><path     fill="#A8C8E0"  d="M100.581 396.035L107.38 396.035L107.38 398.362L100.581 398.362L100.581 396.035ZM101.92 400.416C102.089 401.261 102.193 402.353 102.193 403.003L103.181 402.873C103.168 402.249 103.038 401.17 102.843 400.338L101.92 400.416ZM104.611 400.429C104.988 401.235 105.378 402.327 105.521 402.977L106.47 402.73C106.314 402.08 105.898 401.027 105.495 400.234L104.611 400.429ZM107.263 400.325C107.913 401.144 108.641 402.301 108.94 403.016L109.863 402.626C109.538 401.911 108.784 400.806 108.134 399.987L107.263 400.325ZM99.801 400.065C99.398 401.027 98.735 402.08 98.046 402.678L98.93 403.107C99.645 402.418 100.308 401.326 100.724 400.312L99.801 400.065ZM99.658 395.112L99.658 399.272L108.355 399.272L108.355 395.112L104.39 395.112L104.39 393.461L109.33 393.461L109.33 392.538L104.39 392.538L104.39 391.16L103.415 391.16L103.415 395.112L99.658 395.112ZM112.424 398.167L112.424 402.379L120.575 402.379L120.575 403.12L121.576 403.12L121.576 398.167L120.575 398.167L120.575 401.43L117.546 401.43L117.546 397.166L122.681 397.166L122.681 396.191L117.546 396.191L117.546 394.15L121.784 394.15L121.784 393.175L117.546 393.175L117.546 391.173L116.532 391.173L116.532 393.175L112.307 393.175L112.307 394.15L116.532 394.15L116.532 396.191L111.345 396.191L111.345 397.166L116.532 397.166L116.532 401.43L113.451 401.43L113.451 398.167L112.424 398.167ZM124.215 392.122L124.215 393.097L129.233 393.097L129.233 403.107L130.26 403.107L130.26 396.217C131.755 397.023 133.497 398.102 134.407 398.83L135.096 397.946C134.056 397.153 131.989 395.983 130.442 395.229L130.26 395.437L130.26 393.097L135.798 393.097L135.798 392.122L124.215 392.122ZM142.22 391.446C142.558 392.057 142.948 392.889 143.104 393.409L137.384 393.409L137.384 394.358L140.933 394.358C140.777 397.348 140.452 400.715 137.098 402.379C137.358 402.561 137.67 402.899 137.813 403.146C140.283 401.859 141.258 399.701 141.674 397.387L146.328 397.387C146.12 400.325 145.86 401.586 145.483 401.924C145.314 402.054 145.145 402.08 144.859 402.08C144.508 402.08 143.598 402.067 142.662 401.989C142.857 402.249 142.987 402.652 143.013 402.938C143.884 403.003 144.742 403.016 145.197 402.977C145.704 402.951 146.029 402.86 146.328 402.522C146.835 402.015 147.095 400.598 147.355 396.906C147.381 396.763 147.394 396.438 147.394 396.438L141.83 396.438C141.908 395.749 141.96 395.047 141.999 394.358L148.668 394.358L148.668 393.409L143.182 393.409L144.105 393.006C143.923 392.486 143.52 391.693 143.156 391.082L142.22 391.446ZM159.536 397.153C159.315 398.388 158.899 399.35 158.275 400.117C157.573 399.74 156.871 399.363 156.208 399.038C156.494 398.479 156.806 397.829 157.092 397.153L159.536 397.153ZM154.921 399.35C155.766 399.766 156.689 400.273 157.599 400.793C156.741 401.495 155.61 401.963 154.154 402.288C154.323 402.496 154.557 402.912 154.635 403.133C156.247 402.717 157.495 402.132 158.444 401.287C159.549 401.95 160.55 402.613 161.2 403.146L161.902 402.392C161.213 401.872 160.212 401.235 159.107 400.598C159.822 399.714 160.303 398.583 160.589 397.153L161.967 397.153L161.967 396.269L157.456 396.269C157.703 395.619 157.937 394.969 158.119 394.358L157.131 394.215C156.949 394.852 156.689 395.567 156.403 396.269L154.115 396.269L154.115 397.153L156.026 397.153C155.662 397.985 155.272 398.752 154.921 399.35ZM154.479 392.824L154.479 395.359L155.402 395.359L155.402 393.695L160.849 393.695L160.849 395.346L161.785 395.346L161.785 392.824L158.743 392.824C158.613 392.304 158.392 391.641 158.184 391.095L157.209 391.277C157.378 391.745 157.56 392.33 157.69 392.824L154.479 392.824ZM151.801 391.16L151.801 393.773L150.046 393.773L150.046 394.696L151.801 394.696L151.801 397.933L149.89 398.479L150.124 399.428L151.801 398.908L151.801 401.989C151.801 402.184 151.723 402.236 151.554 402.236C151.385 402.249 150.852 402.249 150.254 402.236C150.384 402.496 150.527 402.886 150.553 403.12C151.411 403.12 151.944 403.094 152.282 402.951C152.62 402.795 152.737 402.535 152.737 401.989L152.737 398.609L154.401 398.063L154.271 397.192L152.737 397.66L152.737 394.696L154.141 394.696L154.141 393.773L152.737 393.773L152.737 391.16L151.801 391.16ZM173.407 392.707C173.342 393.851 173.251 395.112 173.16 396.36L170.911 396.36C171.067 395.099 171.197 393.838 171.314 392.707L173.407 392.707ZM167.206 401.794L167.206 402.756L174.967 402.756L174.967 401.794L173.615 401.794C173.901 399.155 174.226 394.93 174.408 391.823L173.836 391.823L168.064 391.81L168.064 392.707L170.326 392.707C170.235 393.838 170.105 395.099 169.962 396.36L168.155 396.36L168.155 397.296L169.858 397.296C169.663 398.934 169.442 400.533 169.234 401.794L167.206 401.794ZM173.082 397.296C172.939 398.947 172.783 400.533 172.627 401.794L170.209 401.794C170.391 400.546 170.612 398.947 170.807 397.296L173.082 397.296ZM164.58 391.16C164.216 392.473 163.579 393.734 162.825 394.592C162.994 394.813 163.267 395.294 163.345 395.502C163.8 394.982 164.229 394.306 164.593 393.578L167.752 393.578L167.752 392.655L165.009 392.655C165.178 392.239 165.321 391.823 165.451 391.407L164.58 391.16ZM163.137 397.621L163.137 398.492L165.074 398.492L165.074 401.118C165.074 401.742 164.606 402.197 164.385 402.366C164.541 402.522 164.788 402.86 164.879 403.042C165.087 402.808 165.451 402.574 167.7 401.17C167.622 400.988 167.505 400.611 167.466 400.351L165.958 401.235L165.958 398.492L167.804 398.492L167.804 397.621L165.958 397.621L165.958 395.84L167.427 395.84L167.427 394.969L163.8 394.969L163.8 395.84L165.074 395.84L165.074 397.621L163.137 397.621ZM183.937 392.941L183.937 396.646L180.297 396.646L180.297 396.087L180.297 392.941L183.937 392.941ZM176.176 396.646L176.176 397.582L179.244 397.582C179.062 399.363 178.399 401.105 176.202 402.444C176.462 402.613 176.813 402.938 176.982 403.172C179.387 401.651 180.063 399.623 180.245 397.582L183.937 397.582L183.937 403.133L184.938 403.133L184.938 397.582L187.837 397.582L187.837 396.646L184.938 396.646L184.938 392.941L187.434 392.941L187.434 392.005L176.657 392.005L176.657 392.941L179.309 392.941L179.309 396.087L179.296 396.646L176.176 396.646ZM194.506 397.829L194.506 403.12L195.403 403.12L195.403 402.548L199.329 402.548L199.329 403.094L200.265 403.094L200.265 397.829L194.506 397.829ZM195.403 401.677L195.403 398.713L199.329 398.713L199.329 401.677L195.403 401.677ZM194.077 396.789C194.454 396.633 195.013 396.581 199.849 396.204C200.018 396.542 200.161 396.854 200.265 397.127L201.097 396.698C200.694 395.697 199.784 394.176 198.9 393.045L198.12 393.422C198.562 393.994 199.004 394.683 199.394 395.359L195.247 395.619C196.105 394.449 196.963 392.941 197.665 391.433L196.651 391.147C196.001 392.798 194.935 394.54 194.584 395.008C194.259 395.476 193.999 395.788 193.752 395.84C193.869 396.1 194.025 396.581 194.077 396.789ZM191.126 394.735L192.608 394.735C192.452 396.399 192.153 397.803 191.711 398.947C191.269 398.596 190.814 398.245 190.372 397.933C190.619 397.01 190.892 395.879 191.126 394.735ZM189.345 398.284C189.995 398.726 190.684 399.272 191.321 399.818C190.723 400.988 189.956 401.82 189.02 402.327C189.228 402.509 189.488 402.86 189.618 403.094C190.606 402.483 191.399 401.638 192.023 400.468C192.517 400.949 192.946 401.404 193.232 401.807L193.83 401.014C193.505 400.585 193.011 400.078 192.439 399.571C193.037 398.115 193.401 396.256 193.557 393.89L192.985 393.799L192.829 393.825L191.308 393.825C191.477 392.941 191.62 392.07 191.724 391.277L190.814 391.212C190.723 392.018 190.593 392.915 190.424 393.825L189.059 393.825L189.059 394.735L190.242 394.735C189.969 396.074 189.644 397.361 189.345 398.284ZM207.337 396.724C206.973 398.284 206.349 399.831 205.543 400.832C205.777 400.962 206.193 401.222 206.375 401.365C207.168 400.286 207.87 398.635 208.286 396.919L207.337 396.724ZM211.354 396.919C212.069 398.297 212.719 400.13 212.927 401.326L213.863 401.001C213.642 399.805 212.979 398.011 212.238 396.633L211.354 396.919ZM207.558 391.212C207.116 393.123 206.375 394.995 205.4 396.204C205.634 396.347 206.024 396.672 206.193 396.828C206.661 396.217 207.09 395.437 207.467 394.579L209.456 394.579L209.456 401.937C209.456 402.106 209.391 402.145 209.235 402.145C209.053 402.158 208.494 402.171 207.87 402.145C208.013 402.418 208.169 402.847 208.221 403.133C209.027 403.133 209.599 403.094 209.95 402.938C210.301 402.769 210.418 402.483 210.418 401.937L210.418 394.579L212.875 394.579C212.771 395.242 212.654 395.931 212.563 396.412L213.395 396.568C213.564 395.866 213.798 394.735 213.967 393.786L213.304 393.63L213.135 393.669L207.831 393.669C208.104 392.954 208.338 392.2 208.52 391.433L207.558 391.212ZM204.932 391.212C204.204 393.188 202.995 395.138 201.708 396.399C201.89 396.62 202.163 397.127 202.254 397.361C202.709 396.893 203.151 396.347 203.58 395.749L203.58 403.094L204.516 403.094L204.516 394.28C205.023 393.383 205.491 392.434 205.855 391.485L204.932 391.212ZM221.676 396.581C222.391 397.53 223.275 398.83 223.665 399.623L224.497 399.103C224.068 398.336 223.171 397.075 222.43 396.152L221.676 396.581ZM217.62 391.134C217.516 391.758 217.295 392.616 217.087 393.253L215.631 393.253L215.631 402.782L216.528 402.782L216.528 401.755L220.155 401.755L220.155 393.253L217.984 393.253C218.205 392.694 218.452 391.966 218.673 391.316L217.62 391.134ZM216.528 394.124L219.258 394.124L219.258 396.867L216.528 396.867L216.528 394.124ZM216.528 400.871L216.528 397.725L219.258 397.725L219.258 400.871L216.528 400.871ZM222.274 391.108C221.858 392.902 221.156 394.696 220.259 395.853C220.493 395.983 220.896 396.256 221.078 396.412C221.52 395.788 221.936 394.995 222.3 394.111L225.628 394.111C225.472 399.324 225.264 401.326 224.848 401.768C224.692 401.95 224.549 401.989 224.289 401.989C223.99 401.989 223.21 401.976 222.352 401.911C222.534 402.158 222.651 402.574 222.677 402.847C223.405 402.886 224.172 402.912 224.614 402.873C225.082 402.821 225.368 402.717 225.667 402.327C226.187 401.69 226.369 399.675 226.564 393.708C226.577 393.578 226.577 393.214 226.577 393.214L222.651 393.214C222.859 392.603 223.054 391.953 223.21 391.316L222.274 391.108ZM229.684 396.867C229.58 397.803 229.385 398.96 229.203 399.74L232.674 399.74C231.595 400.871 229.944 401.859 228.41 402.366C228.631 402.548 228.904 402.899 229.047 403.133C230.594 402.522 232.297 401.417 233.441 400.117L233.441 403.12L234.403 403.12L234.403 399.74L238.173 399.74C238.043 400.923 237.9 401.43 237.718 401.612C237.614 401.703 237.484 401.716 237.25 401.716C237.016 401.729 236.405 401.716 235.768 401.651C235.911 401.898 236.028 402.275 236.041 402.548C236.717 402.587 237.354 402.587 237.679 402.561C238.056 402.535 238.29 402.457 238.511 402.236C238.849 401.911 239.018 401.118 239.2 399.298C239.213 399.168 239.226 398.908 239.226 398.908L234.403 398.908L234.403 397.699L238.784 397.699L238.784 394.826L229.203 394.826L229.203 395.658L233.441 395.658L233.441 396.867L229.684 396.867ZM230.503 397.699L233.441 397.699L233.441 398.908L230.321 398.908L230.503 397.699ZM234.403 395.658L237.835 395.658L237.835 396.867L234.403 396.867L234.403 395.658ZM230.256 391.095C229.801 392.343 229.021 393.526 228.098 394.306C228.345 394.423 228.735 394.644 228.917 394.787C229.411 394.319 229.892 393.721 230.308 393.032L231.023 393.032C231.296 393.552 231.556 394.189 231.673 394.605L232.531 394.293C232.44 393.968 232.232 393.474 231.998 393.032L234.091 393.032L234.091 392.278L230.737 392.278C230.893 391.966 231.036 391.641 231.153 391.316L230.256 391.095ZM235.274 391.095C234.936 392.291 234.325 393.435 233.532 394.189C233.779 394.306 234.195 394.553 234.39 394.696C234.793 394.254 235.183 393.682 235.521 393.032L236.405 393.032C236.834 393.539 237.237 394.189 237.419 394.618L238.264 394.254C238.108 393.916 237.809 393.448 237.471 393.032L239.811 393.032L239.811 392.278L235.872 392.278C236.002 391.966 236.119 391.641 236.21 391.316L235.274 391.095ZM241.072 396.477L241.072 397.543L252.98 397.543L252.98 396.477L241.072 396.477ZM254.241 392.759C255.125 393.253 256.23 394.033 256.75 394.566L257.374 393.773C256.828 393.24 255.71 392.525 254.826 392.057L254.241 392.759ZM254.046 401.131L254.943 401.807C255.749 400.637 256.737 399.129 257.504 397.803L256.75 397.153C255.905 398.57 254.8 400.182 254.046 401.131ZM259.402 391.16C258.986 393.24 258.258 395.268 257.257 396.542C257.517 396.659 257.998 396.932 258.193 397.088C258.713 396.347 259.181 395.398 259.584 394.332L264.381 394.332C264.134 395.229 263.731 396.217 263.419 396.841C263.653 396.945 264.043 397.14 264.251 397.257C264.706 396.36 265.278 394.982 265.616 393.708L264.901 393.318L264.706 393.37L259.909 393.37C260.117 392.72 260.299 392.044 260.442 391.355L259.402 391.16ZM260.897 394.969L260.897 395.775C260.897 397.634 260.611 400.468 256.62 402.418C256.867 402.587 257.205 402.938 257.361 403.172C259.922 401.885 261.053 400.221 261.56 398.635C262.288 400.715 263.458 402.236 265.343 403.029C265.473 402.769 265.772 402.366 265.993 402.171C263.731 401.352 262.496 399.35 261.911 396.737C261.924 396.399 261.937 396.087 261.937 395.788L261.937 394.969L260.897 394.969ZM268.541 402.834C269.035 402.652 269.763 402.6 276.653 402.015C276.952 402.405 277.212 402.782 277.394 403.107L278.265 402.574C277.693 401.599 276.458 400.195 275.288 399.155L274.469 399.597C274.976 400.065 275.496 400.611 275.964 401.157L270.049 401.612C270.972 400.754 271.895 399.714 272.701 398.648L278.434 398.648L278.434 397.699L267.657 397.699L267.657 398.648L271.375 398.648C270.53 399.805 269.542 400.832 269.191 401.144C268.788 401.521 268.489 401.768 268.203 401.833C268.32 402.093 268.489 402.613 268.541 402.834ZM273.052 391.16C271.882 392.902 269.594 394.553 267.046 395.632C267.28 395.814 267.618 396.23 267.761 396.477C268.515 396.126 269.243 395.736 269.932 395.307L269.932 396.1L276.133 396.1L276.133 395.19L270.101 395.19C271.219 394.462 272.22 393.643 273.039 392.746C273.819 393.552 274.911 394.436 276.133 395.19C276.835 395.632 277.589 396.022 278.33 396.321C278.486 396.061 278.811 395.658 279.019 395.463C276.913 394.735 274.794 393.318 273.598 392.083L273.988 391.563L273.052 391.16ZM286.546 391.771C287.066 392.642 287.612 393.799 287.82 394.514L288.704 394.111C288.496 393.396 287.911 392.278 287.365 391.42L286.546 391.771ZM280.969 392.057C281.554 392.668 282.256 393.526 282.594 394.072L283.335 393.461C282.997 392.928 282.269 392.122 281.671 391.524L280.969 392.057ZM290.316 391.966C289.887 394.67 289.211 397.101 287.82 399.051C286.507 397.231 285.714 394.878 285.246 392.122L284.323 392.278C284.882 395.359 285.727 397.92 287.157 399.87C286.247 400.897 285.064 401.755 283.543 402.405C283.725 402.613 283.998 402.977 284.128 403.211C285.636 402.535 286.832 401.651 287.781 400.624C288.756 401.716 289.978 402.561 291.486 403.159C291.642 402.899 291.954 402.509 292.188 402.314C290.654 401.768 289.432 400.923 288.444 399.831C290.017 397.725 290.797 395.086 291.317 392.122L290.316 391.966ZM280.098 395.229L280.098 396.178L281.931 396.178L281.931 400.767C281.931 401.443 281.58 401.885 281.372 402.093C281.541 402.236 281.827 402.574 281.931 402.782C282.139 402.522 282.477 402.262 284.765 400.637C284.661 400.442 284.518 400.065 284.44 399.805L282.88 400.884L282.88 395.229L280.098 395.229Z"></path></g><rect  x="100" y="440" width="190" height="50" rx="25"    fill="#5B9BD5" ></rect><g ><path     fill="#FFFFFF"  d="M144.435 471.704L145.603 471.704L145.603 468.2L148.867 468.2L148.867 467.112L145.603 467.112L145.603 463.608L144.435 463.608L144.435 467.112L141.187 467.112L141.187 468.2L144.435 468.2L144.435 471.704ZM159.18 470.152C159.66 470.952 160.236 472.04 160.492 472.744L161.34 472.232C161.1 471.56 160.524 470.52 159.996 469.72L159.18 470.152ZM155.58 469.8C155.26 470.776 154.732 471.768 154.076 472.472C154.316 472.616 154.732 472.92 154.924 473.08C155.548 472.328 156.188 471.16 156.556 470.04L155.58 469.8ZM162.268 461.656L162.268 467.16C162.268 469.288 162.14 472.04 160.78 473.96C161.036 474.104 161.516 474.472 161.708 474.696C163.18 472.616 163.388 469.464 163.388 467.16L163.388 466.648L165.82 466.648L165.82 474.76L166.988 474.76L166.988 466.648L168.748 466.648L168.748 465.528L163.388 465.528L163.388 462.456C165.084 462.2 166.908 461.784 168.252 461.288L167.276 460.408C166.124 460.888 164.06 461.368 162.268 461.656ZM156.844 460.328C157.1 460.776 157.356 461.32 157.548 461.8L154.396 461.8L154.396 462.808L161.468 462.808L161.468 461.8L158.796 461.8C158.588 461.272 158.236 460.584 157.932 460.056L156.844 460.328ZM159.452 462.888C159.26 463.624 158.892 464.712 158.588 465.448L154.156 465.448L154.156 466.472L157.436 466.472L157.436 468.136L154.22 468.136L154.22 469.192L157.436 469.192L157.436 473.272C157.436 473.432 157.404 473.48 157.244 473.48C157.068 473.496 156.572 473.496 156.012 473.48C156.172 473.768 156.332 474.216 156.364 474.504C157.148 474.504 157.692 474.488 158.06 474.312C158.428 474.136 158.54 473.848 158.54 473.288L158.54 469.192L161.532 469.192L161.532 468.136L158.54 468.136L158.54 466.472L161.724 466.472L161.724 465.448L159.676 465.448C159.98 464.776 160.284 463.912 160.572 463.128L159.452 462.888ZM155.436 463.144C155.756 463.864 155.996 464.824 156.06 465.448L157.1 465.16C157.02 464.552 156.748 463.608 156.412 462.92L155.436 463.144ZM175.724 461.48L175.724 462.44L178.716 462.44L178.716 463.64L174.7 463.64L174.7 464.584L178.716 464.584L178.716 465.832L175.612 465.832L175.612 466.808L178.716 466.808L178.716 468.04L175.484 468.04L175.484 468.952L178.716 468.952L178.716 470.216L174.812 470.216L174.812 471.176L178.716 471.176L178.716 472.776L179.852 472.776L179.852 471.176L184.412 471.176L184.412 470.216L179.852 470.216L179.852 468.952L183.804 468.952L183.804 468.04L179.852 468.04L179.852 466.808L183.436 466.808L183.436 464.584L184.54 464.584L184.54 463.64L183.436 463.64L183.436 461.48L179.852 461.48L179.852 460.12L178.716 460.12L178.716 461.48L175.724 461.48ZM179.852 464.584L182.364 464.584L182.364 465.832L179.852 465.832L179.852 464.584ZM179.852 463.64L179.852 462.44L182.364 462.44L182.364 463.64L179.852 463.64ZM170.972 467.272C170.972 467.096 171.34 466.888 171.58 466.76L173.548 466.76C173.356 468.184 173.036 469.416 172.62 470.472C172.188 469.832 171.836 469.032 171.564 468.072L170.668 468.408C171.052 469.704 171.532 470.728 172.124 471.544C171.564 472.6 170.844 473.432 170.012 474.04C170.268 474.2 170.716 474.616 170.892 474.84C171.66 474.248 172.348 473.448 172.908 472.44C174.588 474.04 176.924 474.44 179.868 474.44L184.348 474.44C184.412 474.12 184.636 473.592 184.812 473.336C183.996 473.352 180.524 473.352 179.884 473.352C177.18 473.352 174.972 473 173.404 471.448C174.06 469.96 174.524 468.088 174.764 465.832L174.092 465.672L173.868 465.688L172.492 465.688C173.292 464.488 174.108 462.984 174.828 461.432L174.06 460.936L173.676 461.112L170.444 461.112L170.444 462.184L173.212 462.184C172.572 463.608 171.772 464.92 171.484 465.32C171.164 465.832 170.764 466.232 170.476 466.296C170.636 466.536 170.876 467.032 170.972 467.272ZM187.932 474.488C188.54 474.264 189.436 474.2 197.916 473.48C198.284 473.96 198.604 474.424 198.828 474.824L199.9 474.168C199.196 472.968 197.676 471.24 196.236 469.96L195.228 470.504C195.852 471.08 196.492 471.752 197.068 472.424L189.788 472.984C190.924 471.928 192.06 470.648 193.052 469.336L200.108 469.336L200.108 468.168L186.844 468.168L186.844 469.336L191.42 469.336C190.38 470.76 189.164 472.024 188.732 472.408C188.236 472.872 187.868 473.176 187.516 473.256C187.66 473.576 187.868 474.216 187.932 474.488ZM193.484 460.12C192.044 462.264 189.228 464.296 186.092 465.624C186.38 465.848 186.796 466.36 186.972 466.664C187.9 466.232 188.796 465.752 189.644 465.224L189.644 466.2L197.276 466.2L197.276 465.08L189.852 465.08C191.228 464.184 192.46 463.176 193.468 462.072C194.428 463.064 195.772 464.152 197.276 465.08C198.14 465.624 199.068 466.104 199.98 466.472C200.172 466.152 200.572 465.656 200.828 465.416C198.236 464.52 195.628 462.776 194.156 461.256L194.636 460.616L193.484 460.12ZM210.092 460.872C210.732 461.944 211.404 463.368 211.66 464.248L212.748 463.752C212.492 462.872 211.772 461.496 211.1 460.44L210.092 460.872ZM203.228 461.224C203.948 461.976 204.812 463.032 205.228 463.704L206.14 462.952C205.724 462.296 204.828 461.304 204.092 460.568L203.228 461.224ZM214.732 461.112C214.204 464.44 213.372 467.432 211.66 469.832C210.044 467.592 209.068 464.696 208.492 461.304L207.356 461.496C208.044 465.288 209.084 468.44 210.844 470.84C209.724 472.104 208.268 473.16 206.396 473.96C206.62 474.216 206.956 474.664 207.116 474.952C208.972 474.12 210.444 473.032 211.612 471.768C212.812 473.112 214.316 474.152 216.172 474.888C216.364 474.568 216.748 474.088 217.036 473.848C215.148 473.176 213.644 472.136 212.428 470.792C214.364 468.2 215.324 464.952 215.964 461.304L214.732 461.112ZM202.156 465.128L202.156 466.296L204.412 466.296L204.412 471.944C204.412 472.776 203.98 473.32 203.724 473.576C203.932 473.752 204.284 474.168 204.412 474.424C204.668 474.104 205.084 473.784 207.9 471.784C207.772 471.544 207.596 471.08 207.5 470.76L205.58 472.088L205.58 465.128L202.156 465.128ZM218.076 472.712L218.284 473.912C219.868 473.592 222.044 473.16 224.124 472.744L224.028 471.656C221.852 472.056 219.564 472.488 218.076 472.712ZM218.38 466.776C218.652 466.648 219.068 466.568 221.308 466.296C220.508 467.304 219.772 468.104 219.436 468.408C218.876 468.984 218.476 469.368 218.092 469.448C218.236 469.768 218.444 470.36 218.508 470.616C218.86 470.424 219.452 470.296 223.964 469.592C223.932 469.336 223.9 468.856 223.916 468.552L220.332 469.048C221.724 467.672 223.116 465.96 224.316 464.2L223.26 463.512C222.924 464.088 222.54 464.664 222.14 465.208L219.756 465.416C220.812 464.072 221.868 462.36 222.716 460.664L221.532 460.152C220.732 462.072 219.404 464.104 218.988 464.632C218.604 465.16 218.3 465.528 217.98 465.592C218.124 465.912 218.316 466.504 218.38 466.776ZM224.78 461.16L224.78 462.344L230.604 462.344L230.604 466.408L225.036 466.408L225.036 472.616C225.036 474.136 225.564 474.52 227.276 474.52C227.644 474.52 230.22 474.52 230.62 474.52C232.284 474.52 232.668 473.784 232.828 471.208C232.492 471.128 231.98 470.92 231.692 470.696C231.596 472.968 231.452 473.384 230.556 473.384C229.98 473.384 227.804 473.384 227.372 473.384C226.428 473.384 226.268 473.24 226.268 472.616L226.268 467.56L230.604 467.56L230.604 468.376L231.804 468.376L231.804 461.16L224.78 461.16ZM244.172 469.848C243.644 470.776 242.908 471.496 241.932 472.072C240.764 471.784 239.564 471.528 238.38 471.304C238.716 470.872 239.1 470.376 239.468 469.848L244.172 469.848ZM235.324 463.24L235.324 467.384L239.596 467.384C239.372 467.832 239.1 468.312 238.796 468.792L234.284 468.792L234.284 469.848L238.076 469.848C237.516 470.632 236.924 471.368 236.396 471.944C237.756 472.2 239.084 472.472 240.348 472.776C238.78 473.32 236.796 473.624 234.364 473.768C234.572 474.04 234.764 474.472 234.86 474.808C237.884 474.552 240.268 474.088 242.076 473.208C244.108 473.752 245.868 474.312 247.18 474.84L248.204 473.912C246.924 473.432 245.244 472.92 243.388 472.424C244.3 471.752 245.004 470.904 245.5 469.848L248.572 469.848L248.572 468.792L240.172 468.792C240.428 468.376 240.668 467.96 240.876 467.56L240.14 467.384L247.628 467.384L247.628 463.24L243.772 463.24L243.772 461.88L248.3 461.88L248.3 460.808L234.524 460.808L234.524 461.88L238.892 461.88L238.892 463.24L235.324 463.24ZM240.028 461.88L242.636 461.88L242.636 463.24L240.028 463.24L240.028 461.88ZM236.46 464.232L238.892 464.232L238.892 466.408L236.46 466.408L236.46 464.232ZM240.028 464.232L242.636 464.232L242.636 466.408L240.028 466.408L240.028 464.232ZM243.772 464.232L246.444 464.232L246.444 466.408L243.772 466.408L243.772 464.232Z"></path></g><g opacity="0.95"><rect x="0" y="780" width="390" height="64"   fill="#FFFFFF" ></rect></g><g ><path     fill="#A8C8E0"  d="M46.916 818.176L53.06 818.176L53.06 819.4L46.916 819.4L46.916 818.176ZM46.916 817.444L46.916 816.256L53.06 816.256L53.06 817.444L46.916 817.444ZM46.916 820.12L53.06 820.12L53.06 821.392L46.916 821.392L46.916 820.12ZM46.736 812.14C47.108 812.536 47.528 813.088 47.756 813.496L44.648 813.496L44.648 814.336L49.472 814.336C49.4 814.696 49.304 815.104 49.196 815.452L46.016 815.452L46.016 822.88L46.916 822.88L46.916 822.196L53.06 822.196L53.06 822.88L53.996 822.88L53.996 815.452L50.144 815.452L50.552 814.336L55.388 814.336L55.388 813.496L52.352 813.496C52.7 813.076 53.084 812.572 53.42 812.08L52.424 811.816C52.172 812.32 51.716 813.016 51.332 813.496L48.14 813.496L48.668 813.22C48.44 812.824 47.972 812.224 47.528 811.792L46.736 812.14ZM61.568 816.376L61.568 818.548C61.568 819.832 61.052 821.26 56.6 822.148C56.792 822.34 57.044 822.688 57.152 822.88C61.82 821.872 62.492 820.204 62.492 818.56L62.492 816.376L61.568 816.376ZM62.54 820.6C63.932 821.248 65.744 822.244 66.62 822.916L67.184 822.196C66.248 821.536 64.436 820.588 63.068 819.988L62.54 820.6ZM58.052 814.78L58.052 820.384L58.976 820.384L58.976 815.62L65.12 815.62L65.12 820.36L66.068 820.36L66.068 814.78L61.736 814.78C61.964 814.36 62.204 813.844 62.42 813.34L67.22 813.34L67.22 812.5L56.888 812.5L56.888 813.34L61.388 813.34C61.244 813.808 61.028 814.348 60.836 814.78L58.052 814.78Z"></path></g><g ><path     fill="#5B9BD5"  d="M134.432 821.176L134.624 822.304C135.848 822.052 137.504 821.74 139.088 821.416L139.004 820.396C137.336 820.696 135.584 821.008 134.432 821.176ZM134.72 816.88C134.924 816.784 135.236 816.712 136.724 816.556C136.184 817.216 135.704 817.72 135.476 817.936C135.044 818.356 134.744 818.632 134.432 818.692C134.564 818.992 134.756 819.556 134.804 819.784C135.116 819.628 135.596 819.508 138.956 818.992C138.92 818.74 138.896 818.308 138.908 818.008L136.496 818.344C137.504 817.36 138.488 816.172 139.316 814.96L138.332 814.288C138.08 814.708 137.804 815.128 137.516 815.524L135.944 815.668C136.724 814.696 137.492 813.472 138.092 812.272L136.964 811.78C136.388 813.208 135.428 814.684 135.116 815.08C134.816 815.464 134.588 815.728 134.336 815.788C134.468 816.088 134.648 816.64 134.72 816.88ZM139.496 812.512L139.496 813.64L143.732 813.64L143.732 816.412L139.664 816.412L139.664 821.008C139.664 822.304 140.096 822.652 141.5 822.652C141.788 822.652 143.492 822.652 143.816 822.652C145.136 822.652 145.472 822.088 145.616 820.096C145.304 820.036 144.812 819.832 144.548 819.628C144.476 821.284 144.368 821.584 143.744 821.584C143.348 821.584 141.92 821.584 141.62 821.584C140.96 821.584 140.84 821.488 140.84 820.996L140.84 817.492L143.732 817.492L143.732 818.104L144.884 818.104L144.884 812.512L139.496 812.512ZM153.86 819.244C153.512 819.82 153.044 820.288 152.444 820.66C151.652 820.468 150.836 820.276 150.008 820.108C150.224 819.844 150.44 819.556 150.656 819.244L153.86 819.244ZM147.368 814.132L147.368 817.36L150.5 817.36C150.356 817.648 150.176 817.96 149.984 818.26L146.6 818.26L146.6 819.244L149.324 819.244C148.94 819.784 148.532 820.288 148.16 820.696C149.12 820.888 150.068 821.092 150.98 821.32C149.852 821.668 148.436 821.86 146.72 821.944C146.9 822.196 147.068 822.604 147.152 822.928C149.456 822.736 151.244 822.4 152.6 821.74C154.028 822.136 155.276 822.544 156.2 822.916L157.124 822.028C156.224 821.704 155.06 821.344 153.764 820.996C154.328 820.528 154.772 819.952 155.12 819.244L157.412 819.244L157.412 818.26L151.304 818.26C151.46 818.008 151.604 817.744 151.724 817.504L151.124 817.36L156.74 817.36L156.74 814.132L153.848 814.132L153.848 813.268L157.184 813.268L157.184 812.272L146.78 812.272L146.78 813.268L150.008 813.268L150.008 814.132L147.368 814.132ZM151.088 813.268L152.78 813.268L152.78 814.132L151.088 814.132L151.088 813.268ZM148.424 815.044L150.008 815.044L150.008 816.46L148.424 816.46L148.424 815.044ZM151.088 815.044L152.78 815.044L152.78 816.46L151.088 816.46L151.088 815.044ZM153.848 815.044L155.612 815.044L155.612 816.46L153.848 816.46L153.848 815.044Z"></path></g><g opacity="0.15"><rect  x="134" y="795" width="24" height="24" rx="4"    fill="#5B9BD5" ></rect></g><g ><path     fill="#A8C8E0"  d="M225.608 818.116C226.388 818.548 227.336 819.232 227.792 819.688L228.428 819.064C227.948 818.608 226.976 817.972 226.22 817.564L225.608 818.116ZM225.608 812.512L225.608 813.34L232.88 813.34L232.832 814.444L225.968 814.444L225.968 815.272L232.784 815.272L232.712 816.376L224.804 816.376L224.804 817.18L229.532 817.18L229.532 819.376C227.792 820.096 225.98 820.828 224.816 821.272L225.296 822.076C226.472 821.572 228.044 820.9 229.532 820.24L229.532 821.896C229.532 822.064 229.472 822.112 229.28 822.124C229.088 822.136 228.416 822.136 227.708 822.112C227.828 822.34 227.972 822.676 228.02 822.904C228.956 822.904 229.568 822.904 229.94 822.772C230.324 822.64 230.444 822.424 230.444 821.908L230.444 819.088C231.476 820.648 232.976 821.812 234.848 822.4C234.968 822.16 235.244 821.812 235.436 821.62C234.14 821.272 233.012 820.636 232.1 819.796C232.868 819.328 233.768 818.656 234.488 818.044L233.72 817.48C233.18 818.02 232.292 818.728 231.548 819.232C231.104 818.728 230.732 818.152 230.444 817.54L230.444 817.18L235.28 817.18L235.28 816.376L233.648 816.376C233.756 815.14 233.84 813.664 233.864 812.512L233.156 812.464L233 812.512L225.608 812.512ZM241.22 811.924C241.4 812.224 241.568 812.596 241.688 812.932L237.344 812.932L237.344 813.748L246.764 813.748L246.764 812.932L242.696 812.932C242.576 812.56 242.36 812.092 242.108 811.744L241.22 811.924ZM238.976 814.012C239.288 814.528 239.564 815.236 239.672 815.752L236.66 815.752L236.66 816.568L247.352 816.568L247.352 815.752L244.316 815.752C244.616 815.248 244.916 814.588 245.192 814.012L244.22 813.772C244.016 814.348 243.656 815.188 243.356 815.752L240.188 815.752L240.62 815.644C240.512 815.14 240.212 814.384 239.828 813.82L238.976 814.012ZM239.204 820.36L244.88 820.36L244.88 821.668L239.204 821.668L239.204 820.36ZM239.204 819.64L239.204 818.392L244.88 818.392L244.88 819.64L239.204 819.64ZM238.316 817.624L238.316 822.892L239.204 822.892L239.204 822.436L244.88 822.436L244.88 822.868L245.816 822.868L245.816 817.624L238.316 817.624Z"></path></g><g ><path     fill="#A8C8E0"  d="M230.4 816.92L241.6 816.92L241.6 802.92L230.4 802.92L230.4 816.92ZM236 809.346L231.548 803.62L240.452 803.62L236 809.346ZM236.448 809.92L240.9 804.194L240.9 815.646L236.448 809.92ZM231.548 816.22L236 810.494L240.452 816.22L231.548 816.22ZM231.1 804.194L235.552 809.92L231.1 815.646L231.1 804.194Z"></path></g><g ><path     fill="#A8C8E0"  d="M322.448 812.632C323.144 813.244 323.96 814.12 324.332 814.696L325.064 814.168C324.668 813.604 323.828 812.752 323.132 812.152L322.448 812.632ZM323.984 816.796C323.576 817.564 323.036 818.32 322.4 819.004C322.196 818.2 322.028 817.264 321.908 816.244L325.352 816.244L325.352 815.392L321.812 815.392C321.716 814.312 321.668 813.148 321.668 811.936L320.72 811.936C320.732 813.124 320.792 814.288 320.888 815.392L318.14 815.392L318.14 813.28C318.872 813.124 319.568 812.944 320.156 812.74L319.52 811.984C318.368 812.416 316.424 812.824 314.744 813.076C314.852 813.292 314.972 813.616 315.02 813.832C315.728 813.736 316.496 813.616 317.24 813.472L317.24 815.392L314.672 815.392L314.672 816.244L317.24 816.244L317.24 818.368L314.492 818.908L314.756 819.82L317.24 819.256L317.24 821.716C317.24 821.92 317.168 821.98 316.964 821.992C316.748 822.004 316.04 822.004 315.272 821.98C315.404 822.232 315.56 822.64 315.596 822.892C316.592 822.892 317.24 822.868 317.612 822.724C318.008 822.58 318.14 822.304 318.14 821.716L318.14 819.04L320.36 818.524L320.288 817.72L318.14 818.176L318.14 816.244L320.972 816.244C321.128 817.552 321.356 818.752 321.644 819.76C320.78 820.552 319.808 821.224 318.788 821.716C319.016 821.908 319.28 822.208 319.412 822.424C320.312 821.956 321.176 821.356 321.956 820.66C322.496 822.064 323.24 822.916 324.188 822.916C325.088 822.916 325.424 822.328 325.58 820.336C325.34 820.252 325.016 820.048 324.824 819.844C324.752 821.392 324.608 822.004 324.272 822.004C323.672 822.004 323.12 821.236 322.688 819.964C323.516 819.112 324.236 818.152 324.776 817.132L323.984 816.796ZM332.624 816.844C333.284 817.72 334.1 818.92 334.46 819.652L335.228 819.172C334.832 818.464 334.004 817.3 333.32 816.448L332.624 816.844ZM328.88 811.816C328.784 812.392 328.58 813.184 328.388 813.772L327.044 813.772L327.044 822.568L327.872 822.568L327.872 821.62L331.22 821.62L331.22 813.772L329.216 813.772C329.42 813.256 329.648 812.584 329.852 811.984L328.88 811.816ZM327.872 814.576L330.392 814.576L330.392 817.108L327.872 817.108L327.872 814.576ZM327.872 820.804L327.872 817.9L330.392 817.9L330.392 820.804L327.872 820.804ZM333.176 811.792C332.792 813.448 332.144 815.104 331.316 816.172C331.532 816.292 331.904 816.544 332.072 816.688C332.48 816.112 332.864 815.38 333.2 814.564L336.272 814.564C336.128 819.376 335.936 821.224 335.552 821.632C335.408 821.8 335.276 821.836 335.036 821.836C334.76 821.836 334.04 821.824 333.248 821.764C333.416 821.992 333.524 822.376 333.548 822.628C334.22 822.664 334.928 822.688 335.336 822.652C335.768 822.604 336.032 822.508 336.308 822.148C336.788 821.56 336.956 819.7 337.136 814.192C337.148 814.072 337.148 813.736 337.148 813.736L333.524 813.736C333.716 813.172 333.896 812.572 334.04 811.984L333.176 811.792Z"></path></g><circle cx="330.0001220703125" cy="740" r="28" stroke="rgba(91, 155, 213, 1.00)" stroke-width="2"      fill="#FFFFFF" ></circle><g ><path     fill="#5B9BD5"  d="M329.124 747.056L330.876 747.056L330.876 741.8L335.772 741.8L335.772 740.168L330.876 740.168L330.876 734.912L329.124 734.912L329.124 740.168L324.252 740.168L324.252 741.8L329.124 741.8L329.124 747.056Z"></path></g></svg>