<svg xmlns="http://www.w3.org/2000/svg" xmlns:xlink="http://www.w3.org/1999/xlink" width="390" height="844" viewBox="0 0 390 844" fill="none"><g  clip-path="url(#clip-path-KpM6TMJDMzeexPPZgpK7m)"><rect x="0" y="0" width="390" height="54"   fill="#E8F4FD" ></rect><g ><path     fill="#333333"  d="M33.66 38.61C35.775 38.61 37.755 36.84 37.755 32.505C37.755 28.845 36.045 27.15 33.93 27.15C32.145 27.15 30.63 28.59 30.63 30.78C30.63 33.09 31.89 34.26 33.735 34.26C34.575 34.26 35.505 33.765 36.135 32.985C36.045 36.105 34.92 37.17 33.57 37.17C32.88 37.17 32.205 36.855 31.77 36.345L30.825 37.425C31.47 38.085 32.37 38.61 33.66 38.61ZM36.12 31.65C35.49 32.61 34.71 33 34.035 33C32.88 33 32.25 32.175 32.25 30.78C32.25 29.34 33 28.485 33.96 28.485C35.145 28.485 35.955 29.475 36.12 31.65ZM40.785 32.7C41.445 32.7 41.955 32.205 41.955 31.5C41.955 30.78 41.445 30.27 40.785 30.27C40.14 30.27 39.63 30.78 39.63 31.5C39.63 32.205 40.14 32.7 40.785 32.7ZM40.785 38.61C41.445 38.61 41.955 38.085 41.955 37.38C41.955 36.675 41.445 36.165 40.785 36.165C40.14 36.165 39.63 36.675 39.63 37.38C39.63 38.085 40.14 38.61 40.785 38.61ZM48.105 38.4L49.725 38.4L49.725 35.43L51.12 35.43L51.12 34.08L49.725 34.08L49.725 27.345L47.715 27.345L43.32 34.275L43.32 35.43L48.105 35.43L48.105 38.4ZM48.105 34.08L45.075 34.08L47.235 30.765C47.55 30.195 47.85 29.625 48.12 29.055L48.18 29.055C48.15 29.67 48.105 30.6 48.105 31.2L48.105 34.08ZM52.845 38.4L59.16 38.4L59.16 36.975L57.015 36.975L57.015 27.345L55.71 27.345C55.065 27.75 54.33 28.02 53.295 28.2L53.295 29.295L55.275 29.295L55.275 36.975L52.845 36.975L52.845 38.4Z"></path></g><g ><path     fill="#333333"  d="M341.5 40.2L353.5 40.2L353.5 25.2L341.5 25.2L341.5 40.2ZM347.5 32.085L342.73 25.95L352.27 25.95L347.5 32.085ZM347.98 32.7L352.75 26.565L352.75 38.835L347.98 32.7ZM342.73 39.45L347.5 33.315L352.27 39.45L342.73 39.45ZM342.25 26.565L347.02 32.7L342.25 38.835L342.25 26.565ZM356.5 40.2L368.5 40.2L368.5 25.2L356.5 25.2L356.5 40.2ZM362.5 32.085L357.73 25.95L367.27 25.95L362.5 32.085ZM362.98 32.7L367.75 26.565L367.75 38.835L362.98 32.7ZM357.73 39.45L362.5 33.315L367.27 39.45L357.73 39.45ZM357.25 26.565L362.02 32.7L357.25 38.835L357.25 26.565ZM371.5 40.2L383.5 40.2L383.5 25.2L371.5 25.2L371.5 40.2ZM377.5 32.085L372.73 25.95L382.27 25.95L377.5 32.085ZM377.98 32.7L382.75 26.565L382.75 38.835L377.98 32.7ZM372.73 39.45L377.5 33.315L382.27 39.45L372.73 39.45ZM372.25 26.565L377.02 32.7L372.25 38.835L372.25 26.565Z"></path></g><rect x="0" y="54" width="390" height="60"   fill="#E8F4FD" ></rect><g ></g><g ><path     fill="#2C5F8A"  d="M143.826 97.924C144.51 97.672 145.518 97.6 155.058 96.79C155.472 97.33 155.832 97.852 156.084 98.302L157.29 97.564C156.498 96.214 154.788 94.27 153.168 92.83L152.034 93.442C152.736 94.09 153.456 94.846 154.104 95.602L145.914 96.232C147.192 95.044 148.47 93.604 149.586 92.128L157.524 92.128L157.524 90.814L142.602 90.814L142.602 92.128L147.75 92.128C146.58 93.73 145.212 95.152 144.726 95.584C144.168 96.106 143.754 96.448 143.358 96.538C143.52 96.898 143.754 97.618 143.826 97.924ZM150.072 81.76C148.452 84.172 145.284 86.458 141.756 87.952C142.08 88.204 142.548 88.78 142.746 89.122C143.79 88.636 144.798 88.096 145.752 87.502L145.752 88.6L154.338 88.6L154.338 87.34L145.986 87.34C147.534 86.332 148.92 85.198 150.054 83.956C151.134 85.072 152.646 86.296 154.338 87.34C155.31 87.952 156.354 88.492 157.38 88.906C157.596 88.546 158.046 87.988 158.334 87.718C155.418 86.71 152.484 84.748 150.828 83.038L151.368 82.318L150.072 81.76ZM168.756 82.606C169.476 83.812 170.232 85.414 170.52 86.404L171.744 85.846C171.456 84.856 170.646 83.308 169.89 82.12L168.756 82.606ZM161.034 83.002C161.844 83.848 162.816 85.036 163.284 85.792L164.31 84.946C163.842 84.208 162.834 83.092 162.006 82.264L161.034 83.002ZM173.976 82.876C173.382 86.62 172.446 89.986 170.52 92.686C168.702 90.166 167.604 86.908 166.956 83.092L165.678 83.308C166.452 87.574 167.622 91.12 169.602 93.82C168.342 95.242 166.704 96.43 164.598 97.33C164.85 97.618 165.228 98.122 165.408 98.446C167.496 97.51 169.152 96.286 170.466 94.864C171.816 96.376 173.508 97.546 175.596 98.374C175.812 98.014 176.244 97.474 176.568 97.204C174.444 96.448 172.752 95.278 171.384 93.766C173.562 90.85 174.642 87.196 175.362 83.092L173.976 82.876ZM159.828 87.394L159.828 88.708L162.366 88.708L162.366 95.062C162.366 95.998 161.88 96.61 161.592 96.898C161.826 97.096 162.222 97.564 162.366 97.852C162.654 97.492 163.122 97.132 166.29 94.882C166.146 94.612 165.948 94.09 165.84 93.73L163.68 95.224L163.68 87.394L159.828 87.394ZM177.738 95.926L177.972 97.276C179.754 96.916 182.202 96.43 184.542 95.962L184.434 94.738C181.986 95.188 179.412 95.674 177.738 95.926ZM178.08 89.248C178.386 89.104 178.854 89.014 181.374 88.708C180.474 89.842 179.646 90.742 179.268 91.084C178.638 91.732 178.188 92.164 177.756 92.254C177.918 92.614 178.152 93.28 178.224 93.568C178.62 93.352 179.286 93.208 184.362 92.416C184.326 92.128 184.29 91.588 184.308 91.246L180.276 91.804C181.842 90.256 183.408 88.33 184.758 86.35L183.57 85.576C183.192 86.224 182.76 86.872 182.31 87.484L179.628 87.718C180.816 86.206 182.004 84.28 182.958 82.372L181.626 81.796C180.726 83.956 179.232 86.242 178.764 86.836C178.332 87.43 177.99 87.844 177.63 87.916C177.792 88.276 178.008 88.942 178.08 89.248ZM185.28 82.93L185.28 84.262L191.832 84.262L191.832 88.834L185.568 88.834L185.568 95.818C185.568 97.528 186.162 97.96 188.088 97.96C188.502 97.96 191.4 97.96 191.85 97.96C193.722 97.96 194.154 97.132 194.334 94.234C193.956 94.144 193.38 93.91 193.056 93.658C192.948 96.214 192.786 96.682 191.778 96.682C191.13 96.682 188.682 96.682 188.196 96.682C187.134 96.682 186.954 96.52 186.954 95.818L186.954 90.13L191.832 90.13L191.832 91.048L193.182 91.048L193.182 82.93L185.28 82.93ZM207.096 92.704C206.502 93.748 205.674 94.558 204.576 95.206C203.262 94.882 201.912 94.594 200.58 94.342C200.958 93.856 201.39 93.298 201.804 92.704L207.096 92.704ZM197.142 85.27L197.142 89.932L201.948 89.932C201.696 90.436 201.39 90.976 201.048 91.516L195.972 91.516L195.972 92.704L200.238 92.704C199.608 93.586 198.942 94.414 198.348 95.062C199.878 95.35 201.372 95.656 202.794 95.998C201.03 96.61 198.798 96.952 196.062 97.114C196.296 97.42 196.512 97.906 196.62 98.284C200.022 97.996 202.704 97.474 204.738 96.484C207.024 97.096 209.004 97.726 210.48 98.32L211.632 97.276C210.192 96.736 208.302 96.16 206.214 95.602C207.24 94.846 208.032 93.892 208.59 92.704L212.046 92.704L212.046 91.516L202.596 91.516C202.884 91.048 203.154 90.58 203.388 90.13L202.56 89.932L210.984 89.932L210.984 85.27L206.646 85.27L206.646 83.74L211.74 83.74L211.74 82.534L196.242 82.534L196.242 83.74L201.156 83.74L201.156 85.27L197.142 85.27ZM202.434 83.74L205.368 83.74L205.368 85.27L202.434 85.27L202.434 83.74ZM198.42 86.386L201.156 86.386L201.156 88.834L198.42 88.834L198.42 86.386ZM202.434 86.386L205.368 86.386L205.368 88.834L202.434 88.834L202.434 86.386ZM206.646 86.386L209.652 86.386L209.652 88.834L206.646 88.834L206.646 86.386ZM214.926 83.056C215.898 83.884 217.122 85.054 217.716 85.81L218.616 84.82C218.04 84.082 216.78 82.966 215.79 82.174L214.926 83.056ZM221.172 82.282C221.784 83.2 222.45 84.424 222.702 85.198L223.944 84.676C223.674 83.902 222.99 82.732 222.36 81.832L221.172 82.282ZM216.366 97.96L216.366 97.942C216.636 97.582 217.122 97.186 220.038 94.882C219.894 94.63 219.696 94.126 219.57 93.748L217.788 95.098L217.788 87.412L213.72 87.412L213.72 88.726L216.51 88.726L216.51 95.242C216.51 96.124 215.952 96.718 215.628 96.988C215.862 97.186 216.24 97.672 216.366 97.96ZM227.868 81.706C227.472 82.768 226.806 84.208 226.176 85.216L220.182 85.216L220.182 86.458L224.34 86.458L224.34 88.942L220.74 88.942L220.74 90.184L224.34 90.184L224.34 92.722L219.75 92.722L219.75 94L224.34 94L224.34 98.302L225.69 98.302L225.69 94L230.154 94L230.154 92.722L225.69 92.722L225.69 90.184L229.182 90.184L229.182 88.942L225.69 88.942L225.69 86.458L229.758 86.458L229.758 85.216L227.616 85.216C228.156 84.316 228.75 83.182 229.236 82.174L227.868 81.706ZM233.736 81.76L233.736 98.302L234.96 98.302L234.96 81.76L233.736 81.76ZM232.314 85.234C232.206 86.638 231.918 88.636 231.486 89.86L232.548 90.22C232.962 88.87 233.25 86.782 233.322 85.36L232.314 85.234ZM235.122 84.748C235.5 85.594 235.914 86.728 236.076 87.412L237.03 86.944C236.85 86.296 236.418 85.216 236.022 84.388L235.122 84.748ZM239.028 93.1L245.544 93.1L245.544 94.468L239.028 94.468L239.028 93.1ZM239.028 92.074L239.028 90.724L245.544 90.724L245.544 92.074L239.028 92.074ZM241.62 81.76L241.62 83.164L237.012 83.164L237.012 84.208L241.62 84.208L241.62 85.36L237.444 85.36L237.444 86.35L241.62 86.35L241.62 87.592L236.472 87.592L236.472 88.636L248.244 88.636L248.244 87.592L242.952 87.592L242.952 86.35L247.254 86.35L247.254 85.36L242.952 85.36L242.952 84.208L247.704 84.208L247.704 83.164L242.952 83.164L242.952 81.76L241.62 81.76ZM237.768 89.68L237.768 98.302L239.028 98.302L239.028 95.494L245.544 95.494L245.544 96.79C245.544 97.006 245.454 97.078 245.22 97.096C244.968 97.114 244.104 97.114 243.186 97.078C243.348 97.402 243.528 97.906 243.582 98.248C244.86 98.248 245.67 98.248 246.174 98.032C246.678 97.834 246.822 97.474 246.822 96.808L246.822 89.68L237.768 89.68Z"></path></g><g ><path     fill="#5B9BD5"  d="M300 88.784C299.056 88.784 298.304 89.536 298.304 90.48C298.304 91.424 299.056 92.176 300 92.176C300.944 92.176 301.696 91.424 301.696 90.48C301.696 89.536 300.944 88.784 300 88.784ZM316 88.784C315.056 88.784 314.304 89.536 314.304 90.48C314.304 91.424 315.056 92.176 316 92.176C316.944 92.176 317.696 91.424 317.696 90.48C317.696 89.536 316.944 88.784 316 88.784ZM332 88.784C331.056 88.784 330.304 89.536 330.304 90.48C330.304 91.424 331.056 92.176 332 92.176C332.944 92.176 333.696 91.424 333.696 90.48C333.696 89.536 332.944 88.784 332 88.784Z"></path></g><g opacity="0.95"><rect  x="40" y="125" width="310" height="70" rx="14"    fill="#FFFFFF" ></rect></g><g ><path     fill="#2C5F8A"  d="M63.682 143.672C64.144 144.302 64.662 145.156 64.872 145.716L65.824 145.282C65.6 144.736 65.054 143.896 64.592 143.294L63.682 143.672ZM69.646 143.364C69.394 144.078 68.904 145.086 68.498 145.744L61.736 145.744L61.736 147.662C61.736 149.146 61.61 151.218 60.49 152.744C60.728 152.87 61.19 153.248 61.358 153.458C62.59 151.806 62.828 149.356 62.828 147.69L62.828 146.78L72.992 146.78L72.992 145.744L69.562 145.744C69.954 145.156 70.402 144.414 70.78 143.756L69.646 143.364ZM65.95 140.746C66.272 141.166 66.608 141.712 66.804 142.16L61.54 142.16L61.54 143.168L72.628 143.168L72.628 142.16L68.008 142.16L68.05 142.146C67.854 141.67 67.42 140.97 67 140.466L65.95 140.746ZM78.228 142.076L83.814 142.076L83.814 144.736L78.228 144.736L78.228 142.076ZM77.206 141.082L77.206 145.744L84.892 145.744L84.892 141.082L77.206 141.082ZM75.162 147.242L75.162 153.36L76.17 153.36L76.17 152.604L79.096 152.604L79.096 153.234L80.146 153.234L80.146 147.242L75.162 147.242ZM76.17 151.582L76.17 148.236L79.096 148.236L79.096 151.582L76.17 151.582ZM81.686 147.242L81.686 153.36L82.694 153.36L82.694 152.604L85.886 152.604L85.886 153.276L86.95 153.276L86.95 147.242L81.686 147.242ZM82.694 151.582L82.694 148.236L85.886 148.236L85.886 151.582L82.694 151.582ZM90.716 144.246L90.716 144.946L93.726 144.946L93.726 144.246L90.716 144.246ZM90.408 145.716L90.408 146.416L93.74 146.416L93.74 145.716L90.408 145.716ZM96.19 145.716L96.19 146.43L99.62 146.43L99.62 145.716L96.19 145.716ZM96.19 144.246L96.19 144.946L99.284 144.946L99.284 144.246L96.19 144.246ZM89.064 142.706L89.064 145.38L90.016 145.38L90.016 143.476L94.454 143.476L94.454 146.794L95.462 146.794L95.462 143.476L99.97 143.476L99.97 145.38L100.95 145.38L100.95 142.706L95.462 142.706L95.462 141.88L100.11 141.88L100.11 141.04L89.876 141.04L89.876 141.88L94.454 141.88L94.454 142.706L89.064 142.706ZM90.002 149.104L90.002 153.332L90.996 153.332L90.996 149.972L93.068 149.972L93.068 153.248L94.034 153.248L94.034 149.972L96.176 149.972L96.176 153.248L97.142 153.248L97.142 149.972L99.326 149.972L99.326 152.296C99.326 152.436 99.298 152.478 99.13 152.478C98.99 152.492 98.514 152.492 97.94 152.478C98.066 152.73 98.22 153.094 98.276 153.36C99.032 153.36 99.564 153.36 99.914 153.192C100.264 153.052 100.348 152.8 100.348 152.31L100.348 149.104L95.056 149.104L95.434 148.11L101.132 148.11L101.132 147.256L88.91 147.256L88.91 148.11L94.342 148.11C94.258 148.432 94.16 148.782 94.048 149.104L90.002 149.104ZM103.638 145.226C104.52 146.024 105.528 147.158 105.962 147.914L106.816 147.284C106.354 146.528 105.318 145.45 104.436 144.68L103.638 145.226ZM102.602 150.994L103.26 151.946C104.702 151.12 106.62 149.972 108.44 148.852L108.44 151.932C108.44 152.212 108.342 152.282 108.076 152.296C107.796 152.296 106.886 152.31 105.92 152.268C106.088 152.59 106.242 153.08 106.312 153.388C107.544 153.388 108.384 153.36 108.86 153.178C109.322 152.996 109.518 152.674 109.518 151.932L109.518 146.36C110.722 148.95 112.486 151.092 114.768 152.184C114.936 151.904 115.286 151.484 115.538 151.274C114.012 150.616 112.682 149.468 111.618 148.054C112.542 147.256 113.69 146.122 114.544 145.128L113.648 144.484C113.004 145.352 111.954 146.472 111.072 147.27C110.428 146.276 109.91 145.17 109.518 144.036L109.518 143.854L115.146 143.854L115.146 142.832L113.424 142.832L114.026 142.146C113.452 141.684 112.318 141.012 111.436 140.564L110.806 141.236C111.66 141.67 112.71 142.342 113.284 142.832L109.518 142.832L109.518 140.508L108.44 140.508L108.44 142.832L102.91 142.832L102.91 143.854L108.44 143.854L108.44 147.76C106.312 148.978 104.03 150.266 102.602 150.994ZM127.564 142.944C127.382 144.008 126.962 145.562 126.626 146.5L127.466 146.738C127.83 145.842 128.25 144.386 128.6 143.196L127.564 142.944ZM121.488 143.196C121.866 144.302 122.202 145.73 122.286 146.682L123.238 146.416C123.14 145.492 122.804 144.064 122.384 142.958L121.488 143.196ZM117.358 141.572C118.1 142.244 119.024 143.168 119.458 143.77L120.158 143.028C119.724 142.454 118.772 141.558 118.03 140.942L117.358 141.572ZM121.012 141.194L121.012 142.188L124.442 142.188L124.442 147.354L120.62 147.354L120.62 148.362L124.442 148.362L124.442 153.346L125.506 153.346L125.506 148.362L129.454 148.362L129.454 147.354L125.506 147.354L125.506 142.188L128.824 142.188L128.824 141.194L121.012 141.194ZM116.602 144.876L116.602 145.884L118.548 145.884L118.548 151.064C118.548 151.666 118.156 152.03 117.89 152.184C118.072 152.394 118.31 152.828 118.408 153.08C118.604 152.8 118.968 152.52 121.292 150.728C121.166 150.532 120.984 150.126 120.9 149.846L119.528 150.882L119.528 144.862L118.548 144.876L116.602 144.876ZM136.006 140.676C136.23 141.068 136.468 141.572 136.636 141.978L131.162 141.978L131.162 144.274L132.212 144.274L132.212 142.986L141.746 142.986L141.746 144.274L142.838 144.274L142.838 141.978L137.616 141.978L137.84 141.908C137.7 141.502 137.364 140.858 137.084 140.382L136.006 140.676ZM133.038 148.18L136.44 148.18L136.44 149.762L133.038 149.762L133.038 148.18ZM133.038 147.27L133.038 145.73L136.44 145.73L136.44 147.27L133.038 147.27ZM140.92 148.18L140.92 149.762L137.532 149.762L137.532 148.18L140.92 148.18ZM140.92 147.27L137.532 147.27L137.532 145.73L140.92 145.73L140.92 147.27ZM136.44 143.448L136.44 144.806L132.03 144.806L132.03 151.484L133.038 151.484L133.038 150.7L136.44 150.7L136.44 153.332L137.532 153.332L137.532 150.7L140.92 150.7L140.92 151.414L141.97 151.414L141.97 144.806L137.532 144.806L137.532 143.448L136.44 143.448ZM146.198 153.052C146.73 152.856 147.514 152.8 154.934 152.17C155.256 152.59 155.536 152.996 155.732 153.346L156.67 152.772C156.054 151.722 154.724 150.21 153.464 149.09L152.582 149.566C153.128 150.07 153.688 150.658 154.192 151.246L147.822 151.736C148.816 150.812 149.81 149.692 150.678 148.544L156.852 148.544L156.852 147.522L145.246 147.522L145.246 148.544L149.25 148.544C148.34 149.79 147.276 150.896 146.898 151.232C146.464 151.638 146.142 151.904 145.834 151.974C145.96 152.254 146.142 152.814 146.198 153.052ZM151.056 140.48C149.796 142.356 147.332 144.134 144.588 145.296C144.84 145.492 145.204 145.94 145.358 146.206C146.17 145.828 146.954 145.408 147.696 144.946L147.696 145.8L154.374 145.8L154.374 144.82L147.878 144.82C149.082 144.036 150.16 143.154 151.042 142.188C151.882 143.056 153.058 144.008 154.374 144.82C155.13 145.296 155.942 145.716 156.74 146.038C156.908 145.758 157.258 145.324 157.482 145.114C155.214 144.33 152.932 142.804 151.644 141.474L152.064 140.914L151.056 140.48Z"></path></g><g ><path     fill="#7BA8C9"  d="M60.484 171.76L65.555 171.76L65.555 170.891L63.322 170.891C62.915 170.891 62.42 170.935 62.002 170.968C63.894 169.175 65.17 167.536 65.17 165.919C65.17 164.489 64.257 163.554 62.816 163.554C61.793 163.554 61.089 164.016 60.44 164.731L61.023 165.303C61.474 164.764 62.035 164.368 62.695 164.368C63.696 164.368 64.18 165.039 64.18 165.963C64.18 167.349 63.014 168.955 60.484 171.166L60.484 171.76ZM69.163 171.903C70.692 171.903 71.671 170.517 71.671 167.701C71.671 164.907 70.692 163.554 69.163 163.554C67.623 163.554 66.655 164.907 66.655 167.701C66.655 170.517 67.623 171.903 69.163 171.903ZM69.163 171.089C68.25 171.089 67.623 170.066 67.623 167.701C67.623 165.347 68.25 164.346 69.163 164.346C70.076 164.346 70.703 165.347 70.703 167.701C70.703 170.066 70.076 171.089 69.163 171.089ZM72.694 171.76L77.765 171.76L77.765 170.891L75.532 170.891C75.125 170.891 74.63 170.935 74.212 170.968C76.104 169.175 77.38 167.536 77.38 165.919C77.38 164.489 76.467 163.554 75.026 163.554C74.003 163.554 73.299 164.016 72.65 164.731L73.233 165.303C73.684 164.764 74.245 164.368 74.905 164.368C75.906 164.368 76.39 165.039 76.39 165.963C76.39 167.349 75.224 168.955 72.694 171.166L72.694 171.76ZM81.197 171.903C82.55 171.903 83.837 170.902 83.837 169.142C83.837 167.36 82.737 166.568 81.406 166.568C80.922 166.568 80.559 166.689 80.196 166.887L80.405 164.555L83.441 164.555L83.441 163.697L79.525 163.697L79.261 167.459L79.8 167.8C80.262 167.492 80.603 167.327 81.142 167.327C82.154 167.327 82.814 168.009 82.814 169.164C82.814 170.341 82.055 171.067 81.098 171.067C80.163 171.067 79.569 170.638 79.118 170.176L78.612 170.836C79.162 171.375 79.932 171.903 81.197 171.903ZM84.926 169.065L87.742 169.065L87.742 168.295L84.926 168.295L84.926 169.065ZM91.295 171.903C92.824 171.903 93.803 170.517 93.803 167.701C93.803 164.907 92.824 163.554 91.295 163.554C89.755 163.554 88.787 164.907 88.787 167.701C88.787 170.517 89.755 171.903 91.295 171.903ZM91.295 171.089C90.382 171.089 89.755 170.066 89.755 167.701C89.755 165.347 90.382 164.346 91.295 164.346C92.208 164.346 92.835 165.347 92.835 167.701C92.835 170.066 92.208 171.089 91.295 171.089ZM95.31 171.76L99.732 171.76L99.732 170.924L98.115 170.924L98.115 163.697L97.345 163.697C96.905 163.95 96.388 164.137 95.673 164.269L95.673 164.907L97.114 164.907L97.114 170.924L95.31 170.924L95.31 171.76ZM100.953 169.065L103.769 169.065L103.769 168.295L100.953 168.295L100.953 169.065ZM105.232 171.76L109.654 171.76L109.654 170.924L108.037 170.924L108.037 163.697L107.267 163.697C106.827 163.95 106.31 164.137 105.595 164.269L105.595 164.907L107.036 164.907L107.036 170.924L105.232 170.924L105.232 171.76ZM113.251 171.903C114.604 171.903 115.891 170.902 115.891 169.142C115.891 167.36 114.791 166.568 113.46 166.568C112.976 166.568 112.613 166.689 112.25 166.887L112.459 164.555L115.495 164.555L115.495 163.697L111.579 163.697L111.315 167.459L111.854 167.8C112.316 167.492 112.657 167.327 113.196 167.327C114.208 167.327 114.868 168.009 114.868 169.164C114.868 170.341 114.109 171.067 113.152 171.067C112.217 171.067 111.623 170.638 111.172 170.176L110.666 170.836C111.216 171.375 111.986 171.903 113.251 171.903ZM120.165 171.76L124.587 171.76L124.587 170.924L122.97 170.924L122.97 163.697L122.2 163.697C121.76 163.95 121.243 164.137 120.528 164.269L120.528 164.907L121.969 164.907L121.969 170.924L120.165 170.924L120.165 171.76ZM129.042 171.76L129.988 171.76L129.988 169.538L131.066 169.538L131.066 168.735L129.988 168.735L129.988 163.697L128.877 163.697L125.522 168.878L125.522 169.538L129.042 169.538L129.042 171.76ZM129.042 168.735L126.567 168.735L128.404 165.985C128.635 165.589 128.855 165.182 129.053 164.797L129.097 164.797C129.075 165.204 129.042 165.864 129.042 166.26L129.042 168.735ZM132.936 167.47C133.332 167.47 133.662 167.162 133.662 166.7C133.662 166.249 133.332 165.93 132.936 165.93C132.529 165.93 132.21 166.249 132.21 166.7C132.21 167.162 132.529 167.47 132.936 167.47ZM132.936 171.903C133.332 171.903 133.662 171.595 133.662 171.144C133.662 170.682 133.332 170.374 132.936 170.374C132.529 170.374 132.21 170.682 132.21 171.144C132.21 171.595 132.529 171.903 132.936 171.903ZM137.358 171.903C138.799 171.903 139.954 171.045 139.954 169.604C139.954 168.493 139.195 167.789 138.249 167.558L138.249 167.503C139.107 167.206 139.679 166.546 139.679 165.567C139.679 164.291 138.689 163.554 137.325 163.554C136.401 163.554 135.686 163.961 135.081 164.511L135.62 165.149C136.082 164.687 136.643 164.368 137.292 164.368C138.139 164.368 138.656 164.874 138.656 165.644C138.656 166.513 138.095 167.184 136.423 167.184L136.423 167.954C138.293 167.954 138.931 168.592 138.931 169.571C138.931 170.495 138.26 171.067 137.292 171.067C136.379 171.067 135.774 170.627 135.301 170.143L134.784 170.792C135.312 171.375 136.104 171.903 137.358 171.903ZM143.628 171.903C145.157 171.903 146.136 170.517 146.136 167.701C146.136 164.907 145.157 163.554 143.628 163.554C142.088 163.554 141.12 164.907 141.12 167.701C141.12 170.517 142.088 171.903 143.628 171.903ZM143.628 171.089C142.715 171.089 142.088 170.066 142.088 167.701C142.088 165.347 142.715 164.346 143.628 164.346C144.541 164.346 145.168 165.347 145.168 167.701C145.168 170.066 144.541 171.089 143.628 171.089ZM154.898 166.414C154.249 166.414 153.732 166.931 153.732 167.58C153.732 168.229 154.249 168.746 154.898 168.746C155.547 168.746 156.064 168.229 156.064 167.58C156.064 166.931 155.547 166.414 154.898 166.414ZM166.432 171.903C167.686 171.903 168.753 170.847 168.753 169.285C168.753 167.591 167.873 166.755 166.509 166.755C165.882 166.755 165.178 167.118 164.683 167.723C164.727 165.226 165.64 164.379 166.762 164.379C167.246 164.379 167.73 164.621 168.038 164.995L168.61 164.379C168.159 163.895 167.554 163.554 166.718 163.554C165.156 163.554 163.737 164.753 163.737 167.91C163.737 170.572 164.892 171.903 166.432 171.903ZM164.705 168.526C165.233 167.778 165.849 167.503 166.344 167.503C167.323 167.503 167.796 168.196 167.796 169.285C167.796 170.385 167.202 171.111 166.432 171.111C165.42 171.111 164.815 170.198 164.705 168.526ZM174.253 162.553C174.22 164.247 174.286 169.626 169.699 171.947C169.952 172.123 170.216 172.387 170.37 172.596C173.065 171.155 174.231 168.691 174.748 166.48C175.287 168.537 176.475 171.254 179.236 172.552C179.368 172.321 179.61 172.035 179.841 171.859C175.947 170.11 175.265 165.501 175.1 164.181C175.155 163.521 175.166 162.96 175.177 162.553L174.253 162.553ZM186.254 167.349C185.506 167.877 184.109 168.372 183.02 168.636C183.218 168.801 183.427 169.043 183.548 169.219C184.67 168.9 186.056 168.35 186.936 167.712L186.254 167.349ZM187.211 168.636C186.243 169.351 184.417 169.934 182.855 170.22C183.02 170.396 183.218 170.66 183.328 170.858C184.989 170.495 186.804 169.846 187.904 168.977L187.211 168.636ZM188.597 169.813C187.365 171.001 184.868 171.672 182.162 171.947C182.327 172.134 182.481 172.442 182.569 172.662C185.396 172.31 187.959 171.562 189.345 170.176L188.597 169.813ZM182.195 165.259C182.448 165.171 182.789 165.138 184.67 165.039C184.516 165.402 184.34 165.743 184.142 166.073L180.809 166.073L180.809 166.81L183.603 166.81C182.833 167.745 181.821 168.471 180.655 168.977C180.842 169.131 181.161 169.461 181.282 169.626C182.602 168.966 183.768 168.042 184.637 166.81L186.892 166.81C187.717 167.965 189.037 169.01 190.291 169.571C190.412 169.362 190.676 169.054 190.852 168.889C189.763 168.482 188.597 167.69 187.827 166.81L190.676 166.81L190.676 166.073L185.099 166.073C185.286 165.732 185.462 165.369 185.605 164.995L188.685 164.852C188.971 165.105 189.213 165.347 189.389 165.556L190.071 165.061C189.466 164.39 188.234 163.466 187.233 162.85L186.595 163.279C187.013 163.554 187.475 163.873 187.915 164.214L183.658 164.368C184.351 163.95 185.055 163.433 185.715 162.872L184.967 162.465C184.175 163.235 183.086 163.95 182.734 164.137C182.426 164.324 182.173 164.445 181.953 164.467C182.041 164.687 182.151 165.083 182.195 165.259ZM191.853 169.142L191.853 169.934L198.717 169.934L198.717 169.142L191.853 169.142ZM194.097 162.762C193.822 164.28 193.371 166.359 193.03 167.58L193.723 167.591L193.899 167.591L200.103 167.591C199.85 170.11 199.564 171.265 199.157 171.595C199.014 171.716 198.86 171.727 198.585 171.727C198.266 171.727 197.408 171.716 196.55 171.639C196.715 171.87 196.836 172.211 196.858 172.464C197.639 172.508 198.431 172.53 198.827 172.508C199.3 172.475 199.586 172.409 199.872 172.123C200.378 171.639 200.675 170.363 200.994 167.217C201.016 167.096 201.027 166.81 201.027 166.81L194.097 166.81C194.229 166.216 194.383 165.523 194.526 164.83L200.862 164.83L200.862 164.038L194.691 164.038L194.922 162.85L194.097 162.762ZM210.45 166.414C209.801 166.414 209.284 166.931 209.284 167.58C209.284 168.229 209.801 168.746 210.45 168.746C211.099 168.746 211.616 168.229 211.616 167.58C211.616 166.931 211.099 166.414 210.45 166.414ZM221.731 171.903C223.26 171.903 224.239 170.517 224.239 167.701C224.239 164.907 223.26 163.554 221.731 163.554C220.191 163.554 219.223 164.907 219.223 167.701C219.223 170.517 220.191 171.903 221.731 171.903ZM221.731 171.089C220.818 171.089 220.191 170.066 220.191 167.701C220.191 165.347 220.818 164.346 221.731 164.346C222.644 164.346 223.271 165.347 223.271 167.701C223.271 170.066 222.644 171.089 221.731 171.089ZM227.836 171.903C229.365 171.903 230.344 170.517 230.344 167.701C230.344 164.907 229.365 163.554 227.836 163.554C226.296 163.554 225.328 164.907 225.328 167.701C225.328 170.517 226.296 171.903 227.836 171.903ZM227.836 171.089C226.923 171.089 226.296 170.066 226.296 167.701C226.296 165.347 226.923 164.346 227.836 164.346C228.749 164.346 229.376 165.347 229.376 167.701C229.376 170.066 228.749 171.089 227.836 171.089ZM232.412 167.47C232.808 167.47 233.138 167.162 233.138 166.7C233.138 166.249 232.808 165.93 232.412 165.93C232.005 165.93 231.686 166.249 231.686 166.7C231.686 167.162 232.005 167.47 232.412 167.47ZM232.412 171.903C232.808 171.903 233.138 171.595 233.138 171.144C233.138 170.682 232.808 170.374 232.412 170.374C232.005 170.374 231.686 170.682 231.686 171.144C231.686 171.595 232.005 171.903 232.412 171.903ZM236.834 171.903C238.275 171.903 239.43 171.045 239.43 169.604C239.43 168.493 238.671 167.789 237.725 167.558L237.725 167.503C238.583 167.206 239.155 166.546 239.155 165.567C239.155 164.291 238.165 163.554 236.801 163.554C235.877 163.554 235.162 163.961 234.557 164.511L235.096 165.149C235.558 164.687 236.119 164.368 236.768 164.368C237.615 164.368 238.132 164.874 238.132 165.644C238.132 166.513 237.571 167.184 235.899 167.184L235.899 167.954C237.769 167.954 238.407 168.592 238.407 169.571C238.407 170.495 237.736 171.067 236.768 171.067C235.855 171.067 235.25 170.627 234.777 170.143L234.26 170.792C234.788 171.375 235.58 171.903 236.834 171.903ZM240.53 171.76L245.601 171.76L245.601 170.891L243.368 170.891C242.961 170.891 242.466 170.935 242.048 170.968C243.94 169.175 245.216 167.536 245.216 165.919C245.216 164.489 244.303 163.554 242.862 163.554C241.839 163.554 241.135 164.016 240.486 164.731L241.069 165.303C241.52 164.764 242.081 164.368 242.741 164.368C243.742 164.368 244.226 165.039 244.226 165.963C244.226 167.349 243.06 168.955 240.53 171.166L240.53 171.76ZM247.68 167.47C248.076 167.47 248.406 167.162 248.406 166.7C248.406 166.249 248.076 165.93 247.68 165.93C247.273 165.93 246.954 166.249 246.954 166.7C246.954 167.162 247.273 167.47 247.68 167.47ZM247.68 171.903C248.076 171.903 248.406 171.595 248.406 171.144C248.406 170.682 248.076 170.374 247.68 170.374C247.273 170.374 246.954 170.682 246.954 171.144C246.954 171.595 247.273 171.903 247.68 171.903ZM250.177 171.76L254.599 171.76L254.599 170.924L252.982 170.924L252.982 163.697L252.212 163.697C251.772 163.95 251.255 164.137 250.54 164.269L250.54 164.907L251.981 164.907L251.981 170.924L250.177 170.924L250.177 171.76ZM258.196 171.903C259.549 171.903 260.836 170.902 260.836 169.142C260.836 167.36 259.736 166.568 258.405 166.568C257.921 166.568 257.558 166.689 257.195 166.887L257.404 164.555L260.44 164.555L260.44 163.697L256.524 163.697L256.26 167.459L256.799 167.8C257.261 167.492 257.602 167.327 258.141 167.327C259.153 167.327 259.813 168.009 259.813 169.164C259.813 170.341 259.054 171.067 258.097 171.067C257.162 171.067 256.568 170.638 256.117 170.176L255.611 170.836C256.161 171.375 256.931 171.903 258.196 171.903Z"></path></g><g opacity="0.9"><rect  x="40" y="210" width="310" height="40" rx="10"    fill="#FFFFFF" ></rect></g><g ><path     fill="#7BA8C9"  d="M69.92 226.852L69.92 229.264L68.528 229.264L68.528 230.104L69.92 230.104L69.92 232.78C69.32 232.948 68.78 233.104 68.336 233.212L68.564 234.1L69.92 233.68L69.92 236.776C69.92 236.944 69.872 236.992 69.716 236.992C69.572 237.004 69.104 237.004 68.588 236.98C68.708 237.232 68.816 237.616 68.852 237.832C69.608 237.844 70.076 237.808 70.364 237.664C70.676 237.52 70.784 237.268 70.784 236.776L70.784 233.404L71.996 233.02L71.888 232.192L70.784 232.516L70.784 230.104L71.912 230.104L71.912 229.264L70.784 229.264L70.784 226.852L69.92 226.852ZM73.52 228.796C73.712 229.204 73.904 229.744 73.988 230.104L72.392 230.104L72.392 237.868L73.244 237.868L73.244 230.86L75.368 230.86L75.368 231.952L73.7 231.952L73.7 232.612L75.368 232.612L75.368 233.668L74.072 233.668L74.072 236.656L74.744 236.656L74.744 236.14L77.348 236.14L77.348 233.668L76.1 233.668L76.1 232.612L77.756 232.612L77.756 231.952L76.1 231.952L76.1 230.86L78.152 230.86L78.152 236.86C78.152 237.016 78.104 237.052 77.96 237.064C77.816 237.064 77.324 237.076 76.808 237.052C76.916 237.268 77.048 237.616 77.084 237.832C77.828 237.832 78.308 237.82 78.608 237.688C78.92 237.556 79.016 237.316 79.016 236.872L79.016 230.104L77.372 230.104C77.576 229.696 77.792 229.192 77.984 228.736L77.42 228.592L79.388 228.592L79.388 227.836L76.244 227.836C76.16 227.5 75.98 227.08 75.788 226.744L74.996 226.984C75.14 227.248 75.26 227.548 75.356 227.836L72.2 227.836L72.2 228.592L77.12 228.592C77 229.036 76.76 229.672 76.556 230.104L74.204 230.104L74.828 229.924C74.768 229.564 74.552 229 74.312 228.592L73.52 228.796ZM74.744 234.292L76.664 234.292L76.664 235.528L74.744 235.528L74.744 234.292ZM88.064 234.136C87.668 234.832 87.116 235.372 86.384 235.804C85.508 235.588 84.608 235.396 83.72 235.228C83.972 234.904 84.26 234.532 84.536 234.136L88.064 234.136ZM81.428 229.18L81.428 232.288L84.632 232.288C84.464 232.624 84.26 232.984 84.032 233.344L80.648 233.344L80.648 234.136L83.492 234.136C83.072 234.724 82.628 235.276 82.232 235.708C83.252 235.9 84.248 236.104 85.196 236.332C84.02 236.74 82.532 236.968 80.708 237.076C80.864 237.28 81.008 237.604 81.08 237.856C83.348 237.664 85.136 237.316 86.492 236.656C88.016 237.064 89.336 237.484 90.32 237.88L91.088 237.184C90.128 236.824 88.868 236.44 87.476 236.068C88.16 235.564 88.688 234.928 89.06 234.136L91.364 234.136L91.364 233.344L85.064 233.344C85.256 233.032 85.436 232.72 85.592 232.42L85.04 232.288L90.656 232.288L90.656 229.18L87.764 229.18L87.764 228.16L91.16 228.16L91.16 227.356L80.828 227.356L80.828 228.16L84.104 228.16L84.104 229.18L81.428 229.18ZM84.956 228.16L86.912 228.16L86.912 229.18L84.956 229.18L84.956 228.16ZM82.28 229.924L84.104 229.924L84.104 231.556L82.28 231.556L82.28 229.924ZM84.956 229.924L86.912 229.924L86.912 231.556L84.956 231.556L84.956 229.924ZM87.764 229.924L89.768 229.924L89.768 231.556L87.764 231.556L87.764 229.924Z"></path></g><rect  x="105" y="215" width="70" height="30" rx="8"    fill="#5B9BD5" ></rect><g ><path     fill="#FFFFFF"  d="M133.904 232.24C134.456 233.068 134.996 234.196 135.176 234.904L136.16 234.412C135.968 233.692 135.392 232.612 134.816 231.796L133.904 232.24ZM128.948 231.544C129.668 232.18 130.424 232.924 131.12 233.692C130.436 235.156 129.536 236.284 128.468 236.98C128.744 237.196 129.092 237.628 129.272 237.904C130.34 237.112 131.24 236.044 131.936 234.664C132.452 235.288 132.872 235.888 133.148 236.404L134.036 235.564C133.688 234.94 133.124 234.208 132.464 233.476C133.004 232.072 133.376 230.416 133.58 228.484L132.848 228.28L132.656 228.316L128.816 228.316L128.816 229.396L132.344 229.396C132.176 230.536 131.924 231.592 131.588 232.54C130.988 231.928 130.34 231.34 129.74 230.824L128.948 231.544ZM137.048 226.792L137.048 229.588L133.808 229.588L133.808 230.68L137.048 230.68L137.048 236.452C137.048 236.668 136.964 236.728 136.76 236.728C136.556 236.74 135.896 236.74 135.176 236.716C135.332 237.052 135.5 237.592 135.548 237.916C136.556 237.916 137.216 237.88 137.624 237.688C138.032 237.484 138.176 237.148 138.176 236.464L138.176 230.68L139.544 230.68L139.544 229.588L138.176 229.588L138.176 226.792L137.048 226.792ZM141.08 227.74C141.704 228.304 142.496 229.084 142.856 229.588L143.636 228.796C143.252 228.304 142.424 227.572 141.812 227.044L141.08 227.74ZM144.98 233.392L144.98 237.928L146.108 237.928L146.108 237.472L149.732 237.472L149.732 237.88L150.92 237.88L150.92 233.392L148.484 233.392L148.484 231.52L151.544 231.52L151.544 230.44L148.484 230.44L148.484 228.316C149.408 228.172 150.272 227.98 150.992 227.764L150.224 226.852C148.82 227.296 146.432 227.644 144.368 227.848C144.488 228.088 144.632 228.508 144.68 228.772C145.532 228.7 146.444 228.616 147.344 228.496L147.344 230.44L144.32 230.44L144.32 231.52L147.344 231.52L147.344 233.392L144.98 233.392ZM146.108 236.44L146.108 234.424L149.732 234.424L149.732 236.44L146.108 236.44ZM140.48 230.524L140.48 231.616L142.028 231.616L142.028 235.516C142.028 236.104 141.62 236.572 141.368 236.764C141.572 236.956 141.908 237.4 142.016 237.652C142.208 237.388 142.568 237.088 144.68 235.36C144.536 235.144 144.332 234.7 144.236 234.388L143.096 235.312L143.096 230.524L140.48 230.524Z"></path></g><g ><path     fill="#7BA8C9"  d="M192.98 234.472C193.544 235.12 194.156 236.02 194.408 236.608L195.176 236.152C194.912 235.576 194.276 234.712 193.724 234.088L192.98 234.472ZM191.06 226.864C190.544 227.716 189.464 228.724 188.528 229.336C188.66 229.516 188.9 229.876 188.996 230.08C190.052 229.36 191.204 228.244 191.9 227.2L191.06 226.864ZM195.272 226.9L195.272 228.4L192.632 228.4L192.632 229.216L195.272 229.216L195.272 230.74L191.924 230.74L191.924 231.568L196.964 231.568L196.964 232.912L192.068 232.912L192.068 233.74L196.964 233.74L196.964 236.788C196.964 236.944 196.904 237.004 196.712 237.004C196.52 237.016 195.848 237.028 195.128 236.992C195.248 237.244 195.392 237.616 195.428 237.856C196.364 237.856 196.976 237.856 197.36 237.712C197.732 237.568 197.852 237.316 197.852 236.788L197.852 233.74L199.46 233.74L199.46 232.912L197.852 232.912L197.852 231.568L199.544 231.568L199.544 230.74L196.172 230.74L196.172 229.216L198.92 229.216L198.92 228.4L196.172 228.4L196.172 226.9L195.272 226.9ZM191.264 229.516C190.58 230.752 189.428 231.988 188.348 232.78C188.504 232.996 188.756 233.464 188.828 233.668C189.284 233.284 189.764 232.828 190.22 232.336L190.22 237.868L191.084 237.868L191.084 231.304C191.444 230.824 191.78 230.32 192.056 229.828L191.264 229.516ZM202.196 230.98C201.86 232.036 201.26 233.368 200.54 234.22L201.368 234.7C202.064 233.788 202.652 232.384 203.012 231.316L202.196 230.98ZM209.336 231.148C209.888 232.36 210.452 233.944 210.632 234.916L211.52 234.592C211.316 233.62 210.728 232.06 210.164 230.872L209.336 231.148ZM204.668 226.852L204.668 228.94L204.668 229.048L201.044 229.048L201.044 229.948L204.644 229.948C204.536 232.288 203.876 235.132 200.504 237.208C200.732 237.364 201.08 237.712 201.236 237.928C204.824 235.672 205.496 232.528 205.604 229.948L208.052 229.948C207.884 234.436 207.692 236.176 207.308 236.572C207.176 236.728 207.044 236.764 206.792 236.752C206.492 236.752 205.748 236.752 204.944 236.68C205.112 236.944 205.232 237.352 205.256 237.64C205.988 237.664 206.756 237.7 207.188 237.652C207.632 237.604 207.92 237.496 208.196 237.136C208.676 236.56 208.856 234.736 209.048 229.552C209.048 229.408 209.06 229.048 209.06 229.048L205.628 229.048L205.628 228.952L205.628 226.852L204.668 226.852Z"></path></g><g ><path     fill="#7BA8C9"  d="M252.612 227.752C253.296 228.508 254.112 229.54 254.46 230.212L255.228 229.696C254.844 229.036 254.004 228.04 253.308 227.32L252.612 227.752ZM252.456 236.788L253.236 237.328C253.884 236.188 254.64 234.664 255.216 233.356L254.544 232.804C253.908 234.208 253.044 235.828 252.456 236.788ZM261.468 232.372L259.572 232.372C259.632 231.856 259.644 231.34 259.644 230.848L259.644 229.6L261.468 229.6L261.468 232.372ZM258.696 226.864L258.696 228.736L256.296 228.736L256.296 229.6L258.696 229.6L258.696 230.848C258.696 231.34 258.684 231.844 258.636 232.372L255.672 232.372L255.672 233.236L258.492 233.236C258.168 234.7 257.292 236.14 254.988 237.184C255.204 237.364 255.504 237.712 255.636 237.904C257.952 236.752 258.936 235.18 259.356 233.572C260.016 235.624 261.156 237.112 263.004 237.856C263.148 237.616 263.412 237.268 263.616 237.076C261.84 236.464 260.712 235.084 260.124 233.236L263.544 233.236L263.544 232.372L262.332 232.372L262.332 228.736L259.644 228.736L259.644 226.864L258.696 226.864ZM270.936 226.792C270.552 227.872 269.844 228.88 269.004 229.54C269.16 229.624 269.4 229.78 269.58 229.912L269.58 230.332L264.816 230.332L264.816 231.124L269.58 231.124L269.58 232.06L265.68 232.06L265.68 235.168L266.616 235.168L266.616 232.84L269.58 232.84L269.58 233.884C268.512 235.204 266.508 236.272 264.516 236.74C264.72 236.92 264.96 237.268 265.092 237.496C266.736 237.028 268.404 236.128 269.58 234.964L269.58 237.88L270.54 237.88L270.54 234.988C271.584 235.96 273.168 236.944 275.04 237.436C275.172 237.208 275.436 236.848 275.616 236.656C273.408 236.164 271.5 235.048 270.54 233.98L270.54 232.84L273.54 232.84L273.54 234.292C273.54 234.412 273.504 234.448 273.372 234.448C273.228 234.46 272.772 234.46 272.28 234.448C272.388 234.64 272.532 234.928 272.58 235.156C273.264 235.156 273.744 235.156 274.056 235.036C274.38 234.904 274.464 234.712 274.464 234.292L274.464 232.06L270.54 232.06L270.54 231.124L275.148 231.124L275.148 230.332L270.54 230.332L270.54 229.564L270.276 229.564C270.516 229.288 270.756 228.988 270.972 228.664L271.872 228.664C272.184 229.132 272.472 229.672 272.592 230.056L273.396 229.768C273.288 229.468 273.06 229.048 272.808 228.664L275.304 228.664L275.304 227.896L271.428 227.896C271.572 227.608 271.704 227.308 271.824 227.008L270.936 226.792ZM266.292 226.792C265.884 227.848 265.176 228.88 264.396 229.564C264.612 229.684 264.984 229.936 265.152 230.068C265.536 229.684 265.92 229.204 266.28 228.664L266.856 228.664C267.12 229.144 267.372 229.708 267.492 230.08L268.284 229.78C268.188 229.48 267.984 229.06 267.768 228.664L269.82 228.664L269.82 227.896L266.724 227.896C266.88 227.608 267.024 227.32 267.144 227.02L266.292 226.792ZM278.844 231.34L285.12 231.34L285.12 233.488L278.844 233.488L278.844 231.34ZM280.08 235.384C280.236 236.164 280.332 237.172 280.332 237.772L281.244 237.652C281.232 237.076 281.112 236.08 280.932 235.312L280.08 235.384ZM282.564 235.396C282.912 236.14 283.272 237.148 283.404 237.748L284.28 237.52C284.136 236.92 283.752 235.948 283.38 235.216L282.564 235.396ZM285.012 235.3C285.612 236.056 286.284 237.124 286.56 237.784L287.412 237.424C287.112 236.764 286.416 235.744 285.816 234.988L285.012 235.3ZM278.124 235.06C277.752 235.948 277.14 236.92 276.504 237.472L277.32 237.868C277.98 237.232 278.592 236.224 278.976 235.288L278.124 235.06ZM277.992 230.488L277.992 234.328L286.02 234.328L286.02 230.488L282.36 230.488L282.36 228.964L286.92 228.964L286.92 228.112L282.36 228.112L282.36 226.84L281.46 226.84L281.46 230.488L277.992 230.488Z"></path></g><rect  x="40" y="265" width="310" height="40" rx="10"    fill="#E8F0F8" ></rect><circle cx="65" cy="285" r="12"   fill="#5B9BD5" ></circle><path d="M61 279L61 291L71 285L61 279Z"   fill="#FFFFFF" ></path><g ><path     fill="#2C5F8A"  d="M93.058 290.903C94.587 290.903 95.566 289.517 95.566 286.701C95.566 283.907 94.587 282.554 93.058 282.554C91.518 282.554 90.55 283.907 90.55 286.701C90.55 289.517 91.518 290.903 93.058 290.903ZM93.058 290.089C92.145 290.089 91.518 289.066 91.518 286.701C91.518 284.347 92.145 283.346 93.058 283.346C93.971 283.346 94.598 284.347 94.598 286.701C94.598 289.066 93.971 290.089 93.058 290.089ZM99.163 290.903C100.692 290.903 101.671 289.517 101.671 286.701C101.671 283.907 100.692 282.554 99.163 282.554C97.623 282.554 96.655 283.907 96.655 286.701C96.655 289.517 97.623 290.903 99.163 290.903ZM99.163 290.089C98.25 290.089 97.623 289.066 97.623 286.701C97.623 284.347 98.25 283.346 99.163 283.346C100.076 283.346 100.703 284.347 100.703 286.701C100.703 289.066 100.076 290.089 99.163 290.089ZM103.739 286.47C104.135 286.47 104.465 286.162 104.465 285.7C104.465 285.249 104.135 284.93 103.739 284.93C103.332 284.93 103.013 285.249 103.013 285.7C103.013 286.162 103.332 286.47 103.739 286.47ZM103.739 290.903C104.135 290.903 104.465 290.595 104.465 290.144C104.465 289.682 104.135 289.374 103.739 289.374C103.332 289.374 103.013 289.682 103.013 290.144C103.013 290.595 103.332 290.903 103.739 290.903ZM106.236 290.76L110.658 290.76L110.658 289.924L109.041 289.924L109.041 282.697L108.271 282.697C107.831 282.95 107.314 283.137 106.599 283.269L106.599 283.907L108.04 283.907L108.04 289.924L106.236 289.924L106.236 290.76ZM114.255 290.903C115.608 290.903 116.895 289.902 116.895 288.142C116.895 286.36 115.795 285.568 114.464 285.568C113.98 285.568 113.617 285.689 113.254 285.887L113.463 283.555L116.499 283.555L116.499 282.697L112.583 282.697L112.319 286.459L112.858 286.8C113.32 286.492 113.661 286.327 114.2 286.327C115.212 286.327 115.872 287.009 115.872 288.164C115.872 289.341 115.113 290.067 114.156 290.067C113.221 290.067 112.627 289.638 112.176 289.176L111.67 289.836C112.22 290.375 112.99 290.903 114.255 290.903ZM119.007 286.47C119.403 286.47 119.733 286.162 119.733 285.7C119.733 285.249 119.403 284.93 119.007 284.93C118.6 284.93 118.281 285.249 118.281 285.7C118.281 286.162 118.6 286.47 119.007 286.47ZM119.007 290.903C119.403 290.903 119.733 290.595 119.733 290.144C119.733 289.682 119.403 289.374 119.007 289.374C118.6 289.374 118.281 289.682 118.281 290.144C118.281 290.595 118.6 290.903 119.007 290.903ZM123.429 290.903C124.87 290.903 126.025 290.045 126.025 288.604C126.025 287.493 125.266 286.789 124.32 286.558L124.32 286.503C125.178 286.206 125.75 285.546 125.75 284.567C125.75 283.291 124.76 282.554 123.396 282.554C122.472 282.554 121.757 282.961 121.152 283.511L121.691 284.149C122.153 283.687 122.714 283.368 123.363 283.368C124.21 283.368 124.727 283.874 124.727 284.644C124.727 285.513 124.166 286.184 122.494 286.184L122.494 286.954C124.364 286.954 125.002 287.592 125.002 288.571C125.002 289.495 124.331 290.067 123.363 290.067C122.45 290.067 121.845 289.627 121.372 289.143L120.855 289.792C121.383 290.375 122.175 290.903 123.429 290.903ZM129.699 290.903C131.228 290.903 132.207 289.517 132.207 286.701C132.207 283.907 131.228 282.554 129.699 282.554C128.159 282.554 127.191 283.907 127.191 286.701C127.191 289.517 128.159 290.903 129.699 290.903ZM129.699 290.089C128.786 290.089 128.159 289.066 128.159 286.701C128.159 284.347 128.786 283.346 129.699 283.346C130.612 283.346 131.239 284.347 131.239 286.701C131.239 289.066 130.612 290.089 129.699 290.089ZM135.59 292.729L136.327 292.729L139.616 282.026L138.89 282.026L135.59 292.729ZM145.562 290.903C147.091 290.903 148.07 289.517 148.07 286.701C148.07 283.907 147.091 282.554 145.562 282.554C144.022 282.554 143.054 283.907 143.054 286.701C143.054 289.517 144.022 290.903 145.562 290.903ZM145.562 290.089C144.649 290.089 144.022 289.066 144.022 286.701C144.022 284.347 144.649 283.346 145.562 283.346C146.475 283.346 147.102 284.347 147.102 286.701C147.102 289.066 146.475 290.089 145.562 290.089ZM151.667 290.903C153.196 290.903 154.175 289.517 154.175 286.701C154.175 283.907 153.196 282.554 151.667 282.554C150.127 282.554 149.159 283.907 149.159 286.701C149.159 289.517 150.127 290.903 151.667 290.903ZM151.667 290.089C150.754 290.089 150.127 289.066 150.127 286.701C150.127 284.347 150.754 283.346 151.667 283.346C152.58 283.346 153.207 284.347 153.207 286.701C153.207 289.066 152.58 290.089 151.667 290.089ZM156.243 286.47C156.639 286.47 156.969 286.162 156.969 285.7C156.969 285.249 156.639 284.93 156.243 284.93C155.836 284.93 155.517 285.249 155.517 285.7C155.517 286.162 155.836 286.47 156.243 286.47ZM156.243 290.903C156.639 290.903 156.969 290.595 156.969 290.144C156.969 289.682 156.639 289.374 156.243 289.374C155.836 289.374 155.517 289.682 155.517 290.144C155.517 290.595 155.836 290.903 156.243 290.903ZM160.665 290.903C162.106 290.903 163.261 290.045 163.261 288.604C163.261 287.493 162.502 286.789 161.556 286.558L161.556 286.503C162.414 286.206 162.986 285.546 162.986 284.567C162.986 283.291 161.996 282.554 160.632 282.554C159.708 282.554 158.993 282.961 158.388 283.511L158.927 284.149C159.389 283.687 159.95 283.368 160.599 283.368C161.446 283.368 161.963 283.874 161.963 284.644C161.963 285.513 161.402 286.184 159.73 286.184L159.73 286.954C161.6 286.954 162.238 287.592 162.238 288.571C162.238 289.495 161.567 290.067 160.599 290.067C159.686 290.067 159.081 289.627 158.608 289.143L158.091 289.792C158.619 290.375 159.411 290.903 160.665 290.903ZM164.361 290.76L169.432 290.76L169.432 289.891L167.199 289.891C166.792 289.891 166.297 289.935 165.879 289.968C167.771 288.175 169.047 286.536 169.047 284.919C169.047 283.489 168.134 282.554 166.693 282.554C165.67 282.554 164.966 283.016 164.317 283.731L164.9 284.303C165.351 283.764 165.912 283.368 166.572 283.368C167.573 283.368 168.057 284.039 168.057 284.963C168.057 286.349 166.891 287.955 164.361 290.166L164.361 290.76ZM171.511 286.47C171.907 286.47 172.237 286.162 172.237 285.7C172.237 285.249 171.907 284.93 171.511 284.93C171.104 284.93 170.785 285.249 170.785 285.7C170.785 286.162 171.104 286.47 171.511 286.47ZM171.511 290.903C171.907 290.903 172.237 290.595 172.237 290.144C172.237 289.682 171.907 289.374 171.511 289.374C171.104 289.374 170.785 289.682 170.785 290.144C170.785 290.595 171.104 290.903 171.511 290.903ZM174.008 290.76L178.43 290.76L178.43 289.924L176.813 289.924L176.813 282.697L176.043 282.697C175.603 282.95 175.086 283.137 174.371 283.269L174.371 283.907L175.812 283.907L175.812 289.924L174.008 289.924L174.008 290.76ZM182.027 290.903C183.38 290.903 184.667 289.902 184.667 288.142C184.667 286.36 183.567 285.568 182.236 285.568C181.752 285.568 181.389 285.689 181.026 285.887L181.235 283.555L184.271 283.555L184.271 282.697L180.355 282.697L180.091 286.459L180.63 286.8C181.092 286.492 181.433 286.327 181.972 286.327C182.984 286.327 183.644 287.009 183.644 288.164C183.644 289.341 182.885 290.067 181.928 290.067C180.993 290.067 180.399 289.638 179.948 289.176L179.442 289.836C179.992 290.375 180.762 290.903 182.027 290.903Z"></path></g><g ><path     fill="#5B9BD5"  d="M299.65 282.785L301.421 282.785L301.421 284.743L299.65 284.743L299.65 282.785ZM302.29 283.269C302.741 284.006 303.137 284.985 303.258 285.645L303.962 285.326C303.819 284.677 303.412 283.709 302.928 282.983L302.29 283.269ZM298.385 290.188L298.572 290.958C299.639 290.672 301.08 290.298 302.444 289.935L302.345 289.22L300.992 289.561L300.992 287.57L302.18 287.57L302.18 286.833L300.992 286.833L300.992 285.447L302.136 285.447L302.136 282.081L298.957 282.081L298.957 285.447L300.299 285.447L300.299 289.737L299.595 289.902L299.595 286.316L298.979 286.316L298.979 290.056L298.385 290.188ZM307.713 282.895C307.438 283.665 306.899 284.732 306.492 285.392L307.086 285.7C307.526 285.073 308.054 284.083 308.483 283.28L307.713 282.895ZM305.711 281.509L305.711 290.232C305.711 291.222 305.92 291.475 306.668 291.475C306.822 291.475 307.559 291.475 307.724 291.475C308.395 291.475 308.582 291.024 308.659 289.781C308.439 289.737 308.142 289.594 307.966 289.451C307.933 290.441 307.889 290.716 307.68 290.716C307.515 290.716 306.91 290.716 306.789 290.716C306.536 290.716 306.492 290.65 306.492 290.232L306.492 287.284C307.097 287.79 307.757 288.395 308.098 288.802L308.648 288.219C308.23 287.746 307.339 286.998 306.657 286.47L306.492 286.635L306.492 281.509L305.711 281.509ZM304.006 281.509L304.006 286.173L303.995 286.888C303.236 287.383 302.477 287.878 301.949 288.164L302.411 288.912L303.94 287.735C303.797 289.044 303.335 290.353 301.883 291.057C302.048 291.211 302.301 291.497 302.411 291.662C304.567 290.463 304.765 288.142 304.765 286.173L304.765 281.509L304.006 281.509ZM309.891 287.108C309.979 287.02 310.32 286.954 310.694 286.954L311.673 286.954L311.673 288.549L309.44 288.923L309.616 289.726L311.673 289.33L311.673 291.596L312.465 291.596L312.465 289.176L313.95 288.879L313.917 288.164L312.465 288.417L312.465 286.954L313.598 286.954L313.598 286.206L312.465 286.206L312.465 284.523L311.673 284.523L311.673 286.206L310.595 286.206C310.947 285.436 311.288 284.523 311.574 283.577L313.587 283.577L313.587 282.807L311.805 282.807C311.904 282.433 311.992 282.059 312.08 281.685L311.266 281.52C311.2 281.949 311.112 282.378 311.013 282.807L309.506 282.807L309.506 283.577L310.815 283.577C310.562 284.479 310.298 285.227 310.177 285.502C309.979 285.975 309.825 286.338 309.638 286.382C309.737 286.58 309.847 286.954 309.891 287.108ZM313.686 284.875L313.686 285.656L315.303 285.656C315.072 286.426 314.841 287.141 314.643 287.702L317.811 287.702C317.426 288.252 316.953 288.912 316.502 289.495C316.117 289.242 315.732 289 315.369 288.791L314.841 289.319C315.963 289.99 317.272 291.002 317.91 291.651L318.46 291.013C318.13 290.694 317.657 290.32 317.118 289.924C317.822 289.022 318.581 287.977 319.131 287.163L318.548 286.877L318.416 286.932L315.776 286.932L316.15 285.656L319.549 285.656L319.549 284.875L316.381 284.875L316.733 283.577L319.153 283.577L319.153 282.807L316.942 282.807L317.25 281.63L316.425 281.52L316.106 282.807L314.115 282.807L314.115 283.577L315.897 283.577L315.534 284.875L313.686 284.875Z"></path></g></g><defs><clipPath id="clip-path-KpM6TMJDMzeexPPZgpK7m"><path d="M0 844L390 844L390 0L0 0L0 844Z" fill="white"/></clipPath></defs></svg>