<svg xmlns="http://www.w3.org/2000/svg" xmlns:xlink="http://www.w3.org/1999/xlink" width="390" height="844" viewBox="0 0 390 844" fill="none"><g  clip-path="url(#clip-path-UpAN8M1_2AyWqgSLE3EcL)"><rect x="0" y="0" width="390" height="54"   fill="#E8F4FD" ></rect><g ><path     fill="#333333"  d="M33.66 38.61C35.775 38.61 37.755 36.84 37.755 32.505C37.755 28.845 36.045 27.15 33.93 27.15C32.145 27.15 30.63 28.59 30.63 30.78C30.63 33.09 31.89 34.26 33.735 34.26C34.575 34.26 35.505 33.765 36.135 32.985C36.045 36.105 34.92 37.17 33.57 37.17C32.88 37.17 32.205 36.855 31.77 36.345L30.825 37.425C31.47 38.085 32.37 38.61 33.66 38.61ZM36.12 31.65C35.49 32.61 34.71 33 34.035 33C32.88 33 32.25 32.175 32.25 30.78C32.25 29.34 33 28.485 33.96 28.485C35.145 28.485 35.955 29.475 36.12 31.65ZM40.785 32.7C41.445 32.7 41.955 32.205 41.955 31.5C41.955 30.78 41.445 30.27 40.785 30.27C40.14 30.27 39.63 30.78 39.63 31.5C39.63 32.205 40.14 32.7 40.785 32.7ZM40.785 38.61C41.445 38.61 41.955 38.085 41.955 37.38C41.955 36.675 41.445 36.165 40.785 36.165C40.14 36.165 39.63 36.675 39.63 37.38C39.63 38.085 40.14 38.61 40.785 38.61ZM48.105 38.4L49.725 38.4L49.725 35.43L51.12 35.43L51.12 34.08L49.725 34.08L49.725 27.345L47.715 27.345L43.32 34.275L43.32 35.43L48.105 35.43L48.105 38.4ZM48.105 34.08L45.075 34.08L47.235 30.765C47.55 30.195 47.85 29.625 48.12 29.055L48.18 29.055C48.15 29.67 48.105 30.6 48.105 31.2L48.105 34.08ZM52.845 38.4L59.16 38.4L59.16 36.975L57.015 36.975L57.015 27.345L55.71 27.345C55.065 27.75 54.33 28.02 53.295 28.2L53.295 29.295L55.275 29.295L55.275 36.975L52.845 36.975L52.845 38.4Z"></path></g><g ><path     fill="#333333"  d="M341.5 40.2L353.5 40.2L353.5 25.2L341.5 25.2L341.5 40.2ZM347.5 32.085L342.73 25.95L352.27 25.95L347.5 32.085ZM347.98 32.7L352.75 26.565L352.75 38.835L347.98 32.7ZM342.73 39.45L347.5 33.315L352.27 39.45L342.73 39.45ZM342.25 26.565L347.02 32.7L342.25 38.835L342.25 26.565ZM356.5 40.2L368.5 40.2L368.5 25.2L356.5 25.2L356.5 40.2ZM362.5 32.085L357.73 25.95L367.27 25.95L362.5 32.085ZM362.98 32.7L367.75 26.565L367.75 38.835L362.98 32.7ZM357.73 39.45L362.5 33.315L367.27 39.45L357.73 39.45ZM357.25 26.565L362.02 32.7L357.25 38.835L357.25 26.565ZM371.5 40.2L383.5 40.2L383.5 25.2L371.5 25.2L371.5 40.2ZM377.5 32.085L372.73 25.95L382.27 25.95L377.5 32.085ZM377.98 32.7L382.75 26.565L382.75 38.835L377.98 32.7ZM372.73 39.45L377.5 33.315L382.27 39.45L372.73 39.45ZM372.25 26.565L377.02 32.7L372.25 38.835L372.25 26.565Z"></path></g><rect x="0" y="54" width="390" height="60"   fill="#E8F4FD" ></rect><g ></g><g ><path     fill="#2C5F8A"  d="M162.798 93.604C163.932 94.54 165.21 95.926 165.732 96.862L166.74 95.962C166.182 95.08 164.958 93.82 163.86 92.902L170.664 92.902L170.664 96.682C170.664 96.952 170.556 97.042 170.196 97.06C169.854 97.06 168.558 97.078 167.226 97.042C167.424 97.384 167.64 97.888 167.712 98.248C169.44 98.248 170.538 98.248 171.186 98.05C171.834 97.87 172.05 97.51 172.05 96.718L172.05 92.902L175.992 92.902L175.992 91.642L172.05 91.642L172.05 90.238L170.664 90.238L170.664 91.642L160.116 91.642L160.116 92.902L163.608 92.902L162.798 93.604ZM161.43 83.02L161.43 87.736C161.43 89.428 162.33 89.788 165.3 89.788C165.966 89.788 171.762 89.788 172.482 89.788C174.75 89.788 175.344 89.356 175.578 87.502C175.164 87.448 174.624 87.286 174.264 87.088C174.12 88.42 173.868 88.672 172.392 88.672C171.132 88.672 166.146 88.672 165.192 88.672C163.194 88.672 162.834 88.474 162.834 87.718L162.834 86.764L173.868 86.764L173.868 82.48L161.43 82.48L161.43 83.02ZM162.834 83.668L172.536 83.668L172.536 85.558L162.834 85.558L162.834 83.668ZM178.872 90.742L178.872 97.258L191.652 97.258L191.652 98.284L193.11 98.284L193.11 90.742L191.652 90.742L191.652 95.908L186.702 95.908L186.702 89.608L192.39 89.608L192.39 83.38L190.932 83.38L190.932 88.294L186.702 88.294L186.702 81.778L185.226 81.778L185.226 88.294L181.104 88.294L181.104 83.398L179.7 83.398L179.7 89.608L185.226 89.608L185.226 95.908L180.366 95.908L180.366 90.742L178.872 90.742ZM195.738 95.926L195.972 97.276C197.754 96.916 200.202 96.43 202.542 95.962L202.434 94.738C199.986 95.188 197.412 95.674 195.738 95.926ZM196.08 89.248C196.386 89.104 196.854 89.014 199.374 88.708C198.474 89.842 197.646 90.742 197.268 91.084C196.638 91.732 196.188 92.164 195.756 92.254C195.918 92.614 196.152 93.28 196.224 93.568C196.62 93.352 197.286 93.208 202.362 92.416C202.326 92.128 202.29 91.588 202.308 91.246L198.276 91.804C199.842 90.256 201.408 88.33 202.758 86.35L201.57 85.576C201.192 86.224 200.76 86.872 200.31 87.484L197.628 87.718C198.816 86.206 200.004 84.28 200.958 82.372L199.626 81.796C198.726 83.956 197.232 86.242 196.764 86.836C196.332 87.43 195.99 87.844 195.63 87.916C195.792 88.276 196.008 88.942 196.08 89.248ZM203.28 82.93L203.28 84.262L209.832 84.262L209.832 88.834L203.568 88.834L203.568 95.818C203.568 97.528 204.162 97.96 206.088 97.96C206.502 97.96 209.4 97.96 209.85 97.96C211.722 97.96 212.154 97.132 212.334 94.234C211.956 94.144 211.38 93.91 211.056 93.658C210.948 96.214 210.786 96.682 209.778 96.682C209.13 96.682 206.682 96.682 206.196 96.682C205.134 96.682 204.954 96.52 204.954 95.818L204.954 90.13L209.832 90.13L209.832 91.048L211.182 91.048L211.182 82.93L203.28 82.93ZM225.096 92.704C224.502 93.748 223.674 94.558 222.576 95.206C221.262 94.882 219.912 94.594 218.58 94.342C218.958 93.856 219.39 93.298 219.804 92.704L225.096 92.704ZM215.142 85.27L215.142 89.932L219.948 89.932C219.696 90.436 219.39 90.976 219.048 91.516L213.972 91.516L213.972 92.704L218.238 92.704C217.608 93.586 216.942 94.414 216.348 95.062C217.878 95.35 219.372 95.656 220.794 95.998C219.03 96.61 216.798 96.952 214.062 97.114C214.296 97.42 214.512 97.906 214.62 98.284C218.022 97.996 220.704 97.474 222.738 96.484C225.024 97.096 227.004 97.726 228.48 98.32L229.632 97.276C228.192 96.736 226.302 96.16 224.214 95.602C225.24 94.846 226.032 93.892 226.59 92.704L230.046 92.704L230.046 91.516L220.596 91.516C220.884 91.048 221.154 90.58 221.388 90.13L220.56 89.932L228.984 89.932L228.984 85.27L224.646 85.27L224.646 83.74L229.74 83.74L229.74 82.534L214.242 82.534L214.242 83.74L219.156 83.74L219.156 85.27L215.142 85.27ZM220.434 83.74L223.368 83.74L223.368 85.27L220.434 85.27L220.434 83.74ZM216.42 86.386L219.156 86.386L219.156 88.834L216.42 88.834L216.42 86.386ZM220.434 86.386L223.368 86.386L223.368 88.834L220.434 88.834L220.434 86.386ZM224.646 86.386L227.652 86.386L227.652 88.834L224.646 88.834L224.646 86.386Z"></path></g><g ><path     fill="#4A6A85"  d="M40.854 136.53C41.666 137.216 42.618 138.196 43.024 138.882L43.892 138.224C43.444 137.552 42.478 136.6 41.652 135.956L40.854 136.53ZM46.244 135.9C45.908 137.146 45.32 138.378 44.564 139.204C44.816 139.33 45.264 139.61 45.46 139.764C45.782 139.372 46.09 138.882 46.37 138.336L48.442 138.336L48.442 140.38L44.48 140.38L44.48 141.318L47.014 141.318C46.776 143.152 46.202 144.482 44.102 145.224C44.326 145.42 44.634 145.812 44.746 146.078C47.098 145.154 47.798 143.544 48.064 141.318L49.506 141.318L49.506 144.566C49.506 145.63 49.744 145.938 50.794 145.938C51.004 145.938 51.956 145.938 52.166 145.938C53.048 145.938 53.328 145.49 53.426 143.712C53.132 143.642 52.698 143.488 52.502 143.292C52.46 144.762 52.404 144.958 52.054 144.958C51.858 144.958 51.088 144.958 50.948 144.958C50.584 144.958 50.542 144.916 50.542 144.566L50.542 141.318L53.314 141.318L53.314 140.38L49.492 140.38L49.492 138.336L52.726 138.336L52.726 137.426L49.492 137.426L49.492 135.536L48.442 135.536L48.442 137.426L46.79 137.426C46.972 137.006 47.126 136.558 47.252 136.11L46.244 135.9ZM43.514 140.856L40.784 140.856L40.784 141.836L42.506 141.836L42.506 146.078C41.904 146.358 41.26 146.862 40.63 147.45L41.33 148.36C42.128 147.492 42.884 146.764 43.402 146.764C43.71 146.764 44.144 147.17 44.69 147.506C45.614 148.052 46.776 148.192 48.4 148.192C49.772 148.192 52.138 148.122 53.23 148.052C53.244 147.744 53.412 147.226 53.524 146.96C52.138 147.1 50.01 147.198 48.414 147.198C46.93 147.198 45.754 147.114 44.886 146.596C44.214 146.204 43.892 145.868 43.514 145.84L43.514 140.856ZM56.478 135.494L56.478 138.294L54.644 138.294L54.644 139.274L56.478 139.274L56.478 142.256C55.736 142.48 55.05 142.676 54.504 142.83L54.77 143.852L56.478 143.306L56.478 147.072C56.478 147.254 56.408 147.31 56.24 147.324C56.072 147.324 55.526 147.338 54.924 147.31C55.064 147.604 55.19 148.038 55.232 148.304C56.128 148.304 56.674 148.29 57.024 148.108C57.374 147.94 57.5 147.646 57.5 147.072L57.5 142.97L59.124 142.438L58.984 141.472L57.5 141.934L57.5 139.274L59.166 139.274L59.166 138.294L57.5 138.294L57.5 135.494L56.478 135.494ZM65.256 137.174C64.752 137.902 64.066 138.546 63.268 139.106C62.54 138.546 61.924 137.902 61.448 137.174L65.256 137.174ZM59.544 136.222L59.544 137.174L60.44 137.174C60.958 138.112 61.644 138.924 62.456 139.624C61.364 140.282 60.132 140.772 58.942 141.066C59.138 141.276 59.39 141.668 59.502 141.92C60.776 141.542 62.078 140.982 63.24 140.24C64.332 140.996 65.606 141.57 66.992 141.934C67.132 141.654 67.426 141.262 67.636 141.052C66.32 140.772 65.116 140.296 64.08 139.652C65.186 138.812 66.124 137.762 66.726 136.53L66.096 136.18L65.914 136.222L59.544 136.222ZM62.68 141.472L62.68 142.704L59.838 142.704L59.838 143.656L62.68 143.656L62.68 145.098L59.124 145.098L59.124 146.05L62.68 146.05L62.68 148.388L63.73 148.388L63.73 146.05L67.398 146.05L67.398 145.098L63.73 145.098L63.73 143.656L66.39 143.656L66.39 142.704L63.73 142.704L63.73 141.472L62.68 141.472ZM70.954 144.692C71.836 145.42 72.83 146.498 73.236 147.226L74.02 146.526C73.586 145.84 72.634 144.86 71.78 144.146L77.072 144.146L77.072 147.086C77.072 147.296 76.988 147.366 76.708 147.38C76.442 147.38 75.434 147.394 74.398 147.366C74.552 147.632 74.72 148.024 74.776 148.304C76.12 148.304 76.974 148.304 77.478 148.15C77.982 148.01 78.15 147.73 78.15 147.114L78.15 144.146L81.216 144.146L81.216 143.166L78.15 143.166L78.15 142.074L77.072 142.074L77.072 143.166L68.868 143.166L68.868 144.146L71.584 144.146L70.954 144.692ZM69.89 136.46L69.89 140.128C69.89 141.444 70.59 141.724 72.9 141.724C73.418 141.724 77.926 141.724 78.486 141.724C80.25 141.724 80.712 141.388 80.894 139.946C80.572 139.904 80.152 139.778 79.872 139.624C79.76 140.66 79.564 140.856 78.416 140.856C77.436 140.856 73.558 140.856 72.816 140.856C71.262 140.856 70.982 140.702 70.982 140.114L70.982 139.372L79.564 139.372L79.564 136.04L69.89 136.04L69.89 136.46ZM70.982 136.964L78.528 136.964L78.528 138.434L70.982 138.434L70.982 136.964ZM83.456 142.466L83.456 147.534L93.396 147.534L93.396 148.332L94.53 148.332L94.53 142.466L93.396 142.466L93.396 146.484L89.546 146.484L89.546 141.584L93.97 141.584L93.97 136.74L92.836 136.74L92.836 140.562L89.546 140.562L89.546 135.494L88.398 135.494L88.398 140.562L85.192 140.562L85.192 136.754L84.1 136.754L84.1 141.584L88.398 141.584L88.398 146.484L84.618 146.484L84.618 142.466L83.456 142.466ZM104.05 137.902L107.116 137.902C106.696 138.784 106.122 139.596 105.45 140.296C104.778 139.61 104.26 138.882 103.882 138.168L104.05 137.902ZM98.828 135.48L98.828 138.476L96.728 138.476L96.728 139.47L98.702 139.47C98.268 141.402 97.33 143.6 96.392 144.79C96.574 145.028 96.84 145.434 96.938 145.714C97.638 144.79 98.31 143.264 98.828 141.682L98.828 148.346L99.822 148.346L99.822 141.29C100.256 141.906 100.746 142.662 100.97 143.054L101.6 142.256C101.348 141.892 100.2 140.506 99.822 140.086L99.822 139.47L101.418 139.47L101.082 139.75C101.32 139.918 101.726 140.282 101.908 140.464C102.384 140.044 102.86 139.54 103.294 138.98C103.672 139.638 104.162 140.31 104.764 140.94C103.574 141.962 102.174 142.718 100.774 143.166C100.984 143.376 101.25 143.768 101.376 144.02C101.74 143.88 102.104 143.74 102.468 143.572L102.468 148.374L103.448 148.374L103.448 147.758L107.354 147.758L107.354 148.318L108.376 148.318L108.376 143.46L109.02 143.712C109.174 143.446 109.468 143.04 109.678 142.83C108.292 142.41 107.116 141.752 106.164 140.954C107.144 139.932 107.942 138.7 108.446 137.258L107.788 136.95L107.592 136.992L104.568 136.992C104.792 136.586 104.988 136.166 105.156 135.732L104.148 135.466C103.602 136.894 102.692 138.266 101.642 139.26L101.642 138.476L99.822 138.476L99.822 135.48L98.828 135.48ZM103.448 146.834L103.448 144.132L107.354 144.132L107.354 146.834L103.448 146.834ZM103.154 143.222C103.98 142.788 104.75 142.256 105.464 141.626C106.15 142.228 106.948 142.774 107.858 143.222L103.154 143.222ZM119.926 136.166C120.654 136.67 121.522 137.426 121.942 137.93L122.67 137.272C122.25 136.782 121.354 136.068 120.64 135.578L119.926 136.166ZM117.91 135.536C117.91 136.404 117.938 137.258 117.98 138.098L110.77 138.098L110.77 139.12L118.05 139.12C118.414 144.328 119.59 148.388 121.886 148.388C122.964 148.388 123.356 147.674 123.538 145.224C123.244 145.112 122.852 144.874 122.614 144.636C122.516 146.512 122.362 147.296 121.97 147.296C120.584 147.296 119.492 143.866 119.142 139.12L123.258 139.12L123.258 138.098L119.086 138.098C119.044 137.272 119.03 136.418 119.03 135.536L117.91 135.536ZM110.826 146.904L111.162 147.94C112.954 147.548 115.53 146.96 117.91 146.4L117.826 145.448L114.83 146.092L114.83 142.228L117.448 142.228L117.448 141.206L111.26 141.206L111.26 142.228L113.78 142.228L113.78 146.302L110.826 146.904Z"></path></g><g opacity="0.9"><rect  x="40" y="160" width="310" height="55" rx="14"    fill="#FFFFFF" ></rect></g><g ><path     fill="#2C5F8A"  d="M96.515 194.4L97.895 194.4L97.895 190.02L99.71 190.02C102.125 190.02 103.76 188.955 103.76 186.63C103.76 184.23 102.11 183.405 99.65 183.405L96.515 183.405L96.515 194.4ZM97.895 188.895L97.895 184.53L99.47 184.53C101.405 184.53 102.38 185.025 102.38 186.63C102.38 188.205 101.465 188.895 99.53 188.895L97.895 188.895ZM106.01 194.4L108.815 194.4C112.13 194.4 113.93 192.345 113.93 188.865C113.93 185.355 112.13 183.405 108.755 183.405L106.01 183.405L106.01 194.4ZM107.39 193.26L107.39 184.53L108.635 184.53C111.23 184.53 112.505 186.075 112.505 188.865C112.505 191.64 111.23 193.26 108.635 193.26L107.39 193.26ZM116.33 194.4L117.71 194.4L117.71 189.465L121.91 189.465L121.91 188.295L117.71 188.295L117.71 184.575L122.66 184.575L122.66 183.405L116.33 183.405L116.33 194.4ZM133.153 182.055C133.603 182.79 134.083 183.795 134.263 184.41L135.508 184.005C135.298 183.39 134.773 182.415 134.323 181.695L133.153 182.055ZM127.558 184.44L127.558 185.55L129.898 185.55C130.783 187.83 131.968 189.795 133.513 191.4C131.863 192.78 129.838 193.8 127.348 194.505C127.573 194.775 127.933 195.3 128.053 195.57C130.558 194.76 132.643 193.68 134.338 192.21C136.033 193.71 138.073 194.82 140.533 195.495C140.728 195.18 141.058 194.7 141.313 194.46C138.913 193.86 136.873 192.795 135.208 191.385C136.723 189.84 137.878 187.92 138.748 185.55L141.118 185.55L141.118 184.44L127.558 184.44ZM134.368 190.605C132.958 189.18 131.848 187.47 131.068 185.55L137.473 185.55C136.723 187.575 135.688 189.24 134.368 190.605ZM154.573 182.76C154.258 183.87 153.628 185.445 153.103 186.39L154.003 186.675C154.528 185.775 155.173 184.305 155.683 183.075L154.573 182.76ZM147.763 183.135C148.258 184.215 148.843 185.67 149.098 186.585L150.073 186.195C149.803 185.28 149.203 183.885 148.678 182.79L147.763 183.135ZM144.703 181.8L144.703 185.01L142.513 185.01L142.513 186.075L144.523 186.075C144.073 188.13 143.128 190.5 142.198 191.775C142.378 192.03 142.648 192.48 142.783 192.78C143.503 191.775 144.193 190.095 144.703 188.385L144.703 195.585L145.768 195.585L145.768 188.04C146.233 188.79 146.788 189.72 147.013 190.215L147.703 189.345C147.433 188.925 146.173 187.17 145.768 186.66L145.768 186.075L147.658 186.075L147.658 185.01L145.768 185.01L145.768 181.8L144.703 181.8ZM147.343 193.455L147.343 194.535L154.438 194.535L154.438 195.465L155.548 195.465L155.548 187.335L152.218 187.335L152.218 181.845L151.123 181.845L151.123 187.335L147.688 187.335L147.688 188.43L154.438 188.43L154.438 190.365L147.868 190.365L147.868 191.385L154.438 191.385L154.438 193.455L147.343 193.455Z"></path></g><g ><path     fill="#5B9BD5"  d="M301.776 194.912L303.296 194.736C304.656 189.92 307.248 185.856 310.08 183.216L309.12 182.336C306.32 185.088 303.76 189.472 302.512 193.712L302.432 193.712C301.872 192.128 301.056 190.448 300.064 188.976L299.072 189.648C300.192 191.264 301.056 192.96 301.776 194.912Z"></path></g><g opacity="0.85"><rect  x="40" y="225" width="310" height="55" rx="14"    fill="#FFFFFF" ></rect></g><g ><path     fill="#2C5F8A"  d="M100.625 255.215C101.825 255.47 103.355 255.995 104.195 256.415L104.66 255.65C103.82 255.26 102.305 254.765 101.105 254.525L100.625 255.215ZM99.125 257.12C101.195 257.375 103.79 257.975 105.23 258.485L105.725 257.645C104.27 257.165 101.675 256.58 99.65 256.355L99.125 257.12ZM96.26 247.46L96.26 260.6L97.34 260.6L97.34 259.97L107.63 259.97L107.63 260.6L108.755 260.6L108.755 247.46L96.26 247.46ZM97.34 258.965L97.34 248.48L107.63 248.48L107.63 258.965L97.34 258.965ZM101.21 248.78C100.46 250.01 99.17 251.18 97.88 251.945C98.12 252.095 98.51 252.44 98.675 252.62C99.125 252.32 99.59 251.96 100.055 251.555C100.505 252.035 101.06 252.485 101.66 252.89C100.385 253.49 98.945 253.94 97.61 254.21C97.805 254.42 98.045 254.855 98.15 255.125C99.62 254.78 101.195 254.225 102.62 253.46C103.865 254.135 105.29 254.645 106.715 254.96C106.85 254.69 107.135 254.3 107.345 254.105C106.025 253.865 104.705 253.46 103.535 252.92C104.66 252.185 105.605 251.33 106.235 250.31L105.59 249.935L105.425 249.98L101.54 249.98C101.765 249.695 101.975 249.41 102.155 249.11L101.21 248.78ZM100.67 250.955L100.775 250.85L104.66 250.85C104.12 251.435 103.4 251.96 102.59 252.425C101.825 251.99 101.165 251.495 100.67 250.955ZM112.7 247.19L112.7 252.185C112.7 254.84 112.49 257.615 110.57 259.745C110.855 259.94 111.26 260.36 111.455 260.63C112.835 259.115 113.45 257.285 113.69 255.395L120.02 255.395L120.02 260.6L121.235 260.6L121.235 254.24L113.81 254.24C113.855 253.55 113.87 252.875 113.87 252.185L113.87 251.84L123.545 251.84L123.545 250.685L119.315 250.685L119.315 246.815L118.13 246.815L118.13 250.685L113.87 250.685L113.87 247.19L112.7 247.19ZM132.298 262.34L133.138 261.965C131.848 259.835 131.233 257.285 131.233 254.735C131.233 252.2 131.848 249.665 133.138 247.52L132.298 247.13C130.918 249.38 130.093 251.795 130.093 254.735C130.093 257.69 130.918 260.105 132.298 262.34ZM135.298 259.4L136.678 259.4L136.678 255.02L138.493 255.02C140.908 255.02 142.543 253.955 142.543 251.63C142.543 249.23 140.893 248.405 138.433 248.405L135.298 248.405L135.298 259.4ZM136.678 253.895L136.678 249.53L138.253 249.53C140.188 249.53 141.163 250.025 141.163 251.63C141.163 253.205 140.248 253.895 138.313 253.895L136.678 253.895ZM144.793 259.4L146.098 259.4L146.098 253.625C146.098 252.47 145.993 251.3 145.933 250.19L145.993 250.19L147.178 252.455L151.183 259.4L152.608 259.4L152.608 248.405L151.288 248.405L151.288 254.12C151.288 255.26 151.393 256.505 151.483 257.6L151.408 257.6L150.223 255.335L146.203 248.405L144.793 248.405L144.793 259.4ZM159.958 259.595C161.428 259.595 162.643 259.055 163.348 258.32L163.348 253.7L159.733 253.7L159.733 254.855L162.073 254.855L162.073 257.735C161.638 258.14 160.873 258.38 160.093 258.38C157.738 258.38 156.418 256.64 156.418 253.865C156.418 251.12 157.858 249.425 160.078 249.425C161.173 249.425 161.893 249.89 162.448 250.46L163.198 249.56C162.568 248.9 161.563 248.21 160.033 248.21C157.123 248.21 154.993 250.355 154.993 253.91C154.993 257.48 157.063 259.595 159.958 259.595ZM165.943 262.34C167.323 260.105 168.148 257.69 168.148 254.735C168.148 251.795 167.323 249.38 165.943 247.13L165.088 247.52C166.378 249.665 167.023 252.2 167.023 254.735C167.023 257.285 166.378 259.835 165.088 261.965L165.943 262.34Z"></path></g><g opacity="0.85"><rect  x="40" y="290" width="310" height="55" rx="14"    fill="#FFFFFF" ></rect></g><g ><path     fill="#2C5F8A"  d="M95.705 323.575L95.915 324.67C97.34 324.31 99.26 323.83 101.105 323.365L101 322.405C99.035 322.87 97.025 323.32 95.705 323.575ZM95.975 318.055C96.2 317.95 96.545 317.86 98.495 317.605C97.805 318.595 97.175 319.375 96.89 319.675C96.41 320.215 96.05 320.605 95.735 320.665C95.84 320.935 96.02 321.445 96.08 321.67C96.395 321.49 96.92 321.34 100.925 320.53C100.91 320.305 100.91 319.885 100.94 319.585L97.685 320.185C98.87 318.835 100.04 317.185 101.03 315.535L100.115 314.98C99.83 315.535 99.485 316.09 99.155 316.615L97.085 316.84C97.985 315.535 98.87 313.87 99.53 312.265L98.495 311.785C97.895 313.6 96.815 315.565 96.455 316.06C96.125 316.585 95.87 316.945 95.6 317.005C95.735 317.29 95.915 317.83 95.975 318.055ZM101.555 316.27L101.555 321.37L104.555 321.37L104.555 323.425C104.555 324.715 104.72 325.015 105.035 325.24C105.365 325.435 105.83 325.51 106.205 325.51C106.46 325.51 107.24 325.51 107.51 325.51C107.885 325.51 108.32 325.465 108.62 325.375C108.905 325.27 109.13 325.09 109.25 324.775C109.37 324.49 109.445 323.77 109.475 323.17C109.115 323.08 108.71 322.87 108.44 322.645C108.425 323.305 108.38 323.815 108.35 324.04C108.29 324.265 108.155 324.355 108.02 324.4C107.885 324.445 107.645 324.46 107.405 324.46C107.12 324.46 106.64 324.46 106.43 324.46C106.205 324.46 106.055 324.43 105.89 324.37C105.725 324.28 105.665 323.995 105.665 323.545L105.665 321.37L107.6 321.37L107.6 322.375L108.68 322.375L108.68 316.255L107.6 316.255L107.6 320.32L105.665 320.32L105.665 314.86L109.31 314.86L109.31 313.81L105.665 313.81L105.665 311.83L104.555 311.83L104.555 313.81L101.21 313.81L101.21 314.86L104.555 314.86L104.555 320.32L102.62 320.32L102.62 316.27L101.555 316.27ZM116.345 312.055C116.795 312.79 117.275 313.795 117.455 314.41L118.7 314.005C118.49 313.39 117.965 312.415 117.515 311.695L116.345 312.055ZM110.75 314.44L110.75 315.55L113.09 315.55C113.975 317.83 115.16 319.795 116.705 321.4C115.055 322.78 113.03 323.8 110.54 324.505C110.765 324.775 111.125 325.3 111.245 325.57C113.75 324.76 115.835 323.68 117.53 322.21C119.225 323.71 121.265 324.82 123.725 325.495C123.92 325.18 124.25 324.7 124.505 324.46C122.105 323.86 120.065 322.795 118.4 321.385C119.915 319.84 121.07 317.92 121.94 315.55L124.31 315.55L124.31 314.44L110.75 314.44ZM117.56 320.605C116.15 319.18 115.04 317.47 114.26 315.55L120.665 315.55C119.915 317.575 118.88 319.24 117.56 320.605ZM131.9 311.815L131.9 314.965L125.975 314.965L125.975 316.105L130.505 316.105C129.41 318.655 127.55 321.085 125.555 322.3C125.825 322.525 126.2 322.93 126.38 323.215C128.555 321.73 130.49 319.045 131.66 316.105L131.9 316.105L131.9 321.655L128.39 321.655L128.39 322.795L131.9 322.795L131.9 325.6L133.085 325.6L133.085 322.795L136.58 322.795L136.58 321.655L133.085 321.655L133.085 316.105L133.295 316.105C134.435 319.045 136.37 321.745 138.59 323.185C138.8 322.87 139.19 322.435 139.475 322.21C137.39 321.01 135.5 318.64 134.42 316.105L139.055 316.105L139.055 314.965L133.085 314.965L133.085 311.815L131.9 311.815ZM147.298 327.34L148.138 326.965C146.848 324.835 146.233 322.285 146.233 319.735C146.233 317.2 146.848 314.665 148.138 312.52L147.298 312.13C145.918 314.38 145.093 316.795 145.093 319.735C145.093 322.69 145.918 325.105 147.298 327.34ZM152.578 324.4L153.973 324.4L153.973 314.575L157.303 314.575L157.303 313.405L149.248 313.405L149.248 314.575L152.578 314.575L152.578 324.4ZM158.023 324.4L159.493 324.4L161.068 321.43C161.353 320.875 161.638 320.32 161.953 319.645L162.013 319.645C162.373 320.32 162.673 320.875 162.958 321.43L164.593 324.4L166.123 324.4L162.898 318.79L165.898 313.405L164.443 313.405L162.973 316.21C162.703 316.72 162.493 317.185 162.193 317.83L162.133 317.83C161.773 317.185 161.548 316.72 161.263 316.21L159.763 313.405L158.233 313.405L161.233 318.715L158.023 324.4ZM170.158 324.4L171.553 324.4L171.553 314.575L174.883 314.575L174.883 313.405L166.828 313.405L166.828 314.575L170.158 314.575L170.158 324.4ZM176.833 327.34C178.213 325.105 179.038 322.69 179.038 319.735C179.038 316.795 178.213 314.38 176.833 312.13L175.978 312.52C177.268 314.665 177.913 317.2 177.913 319.735C177.913 322.285 177.268 324.835 175.978 326.965L176.833 327.34Z"></path></g><g opacity="0.85"><rect  x="40" y="355" width="310" height="55" rx="14"    fill="#FFFFFF" ></rect></g><g ><path     fill="#2C5F8A"  d="M97.715 389.4L99.365 389.4L101 382.77C101.18 381.9 101.39 381.105 101.555 380.265L101.615 380.265C101.795 381.105 101.96 381.9 102.155 382.77L103.82 389.4L105.5 389.4L107.765 378.405L106.445 378.405L105.26 384.39C105.065 385.575 104.855 386.76 104.66 387.96L104.57 387.96C104.3 386.76 104.06 385.56 103.79 384.39L102.26 378.405L100.985 378.405L99.47 384.39C99.2 385.575 98.93 386.76 98.69 387.96L98.63 387.96C98.405 386.76 98.195 385.575 97.97 384.39L96.815 378.405L95.39 378.405L97.715 389.4ZM112.715 389.595C114.71 389.595 116.48 388.035 116.48 385.335C116.48 382.62 114.71 381.045 112.715 381.045C110.72 381.045 108.95 382.62 108.95 385.335C108.95 388.035 110.72 389.595 112.715 389.595ZM112.715 388.455C111.305 388.455 110.36 387.21 110.36 385.335C110.36 383.46 111.305 382.2 112.715 382.2C114.125 382.2 115.085 383.46 115.085 385.335C115.085 387.21 114.125 388.455 112.715 388.455ZM118.64 389.4L120.02 389.4L120.02 384.165C120.56 382.785 121.385 382.275 122.06 382.275C122.405 382.275 122.585 382.32 122.855 382.41L123.11 381.225C122.855 381.09 122.6 381.045 122.24 381.045C121.34 381.045 120.5 381.705 119.93 382.74L119.9 382.74L119.765 381.255L118.64 381.255L118.64 389.4ZM127.235 389.595C128.21 389.595 129.08 389.07 129.71 388.44L129.755 388.44L129.875 389.4L131 389.4L131 377.46L129.62 377.46L129.62 380.595L129.695 381.99C128.975 381.405 128.36 381.045 127.4 381.045C125.54 381.045 123.875 382.695 123.875 385.335C123.875 388.05 125.195 389.595 127.235 389.595ZM127.535 388.44C126.11 388.44 125.285 387.285 125.285 385.32C125.285 383.46 126.335 382.2 127.64 382.2C128.315 382.2 128.945 382.44 129.62 383.055L129.62 387.33C128.945 388.08 128.285 388.44 127.535 388.44ZM142.438 377.055C142.888 377.79 143.368 378.795 143.548 379.41L144.793 379.005C144.583 378.39 144.058 377.415 143.608 376.695L142.438 377.055ZM136.843 379.44L136.843 380.55L139.183 380.55C140.068 382.83 141.253 384.795 142.798 386.4C141.148 387.78 139.123 388.8 136.633 389.505C136.858 389.775 137.218 390.3 137.338 390.57C139.843 389.76 141.928 388.68 143.623 387.21C145.318 388.71 147.358 389.82 149.818 390.495C150.013 390.18 150.343 389.7 150.598 389.46C148.198 388.86 146.158 387.795 144.493 386.385C146.008 384.84 147.163 382.92 148.033 380.55L150.403 380.55L150.403 379.44L136.843 379.44ZM143.653 385.605C142.243 384.18 141.133 382.47 140.353 380.55L146.758 380.55C146.008 382.575 144.973 384.24 143.653 385.605ZM163.858 377.76C163.543 378.87 162.913 380.445 162.388 381.39L163.288 381.675C163.813 380.775 164.458 379.305 164.968 378.075L163.858 377.76ZM157.048 378.135C157.543 379.215 158.128 380.67 158.383 381.585L159.358 381.195C159.088 380.28 158.488 378.885 157.963 377.79L157.048 378.135ZM153.988 376.8L153.988 380.01L151.798 380.01L151.798 381.075L153.808 381.075C153.358 383.13 152.413 385.5 151.483 386.775C151.663 387.03 151.933 387.48 152.068 387.78C152.788 386.775 153.478 385.095 153.988 383.385L153.988 390.585L155.053 390.585L155.053 383.04C155.518 383.79 156.073 384.72 156.298 385.215L156.988 384.345C156.718 383.925 155.458 382.17 155.053 381.66L155.053 381.075L156.943 381.075L156.943 380.01L155.053 380.01L155.053 376.8L153.988 376.8ZM156.628 388.455L156.628 389.535L163.723 389.535L163.723 390.465L164.833 390.465L164.833 382.335L161.503 382.335L161.503 376.845L160.408 376.845L160.408 382.335L156.973 382.335L156.973 383.43L163.723 383.43L163.723 385.365L157.153 385.365L157.153 386.385L163.723 386.385L163.723 388.455L156.628 388.455ZM173.392 392.34L174.232 391.965C172.942 389.835 172.327 387.285 172.327 384.735C172.327 382.2 172.942 379.665 174.232 377.52L173.392 377.13C172.012 379.38 171.187 381.795 171.187 384.735C171.187 387.69 172.012 390.105 173.392 392.34ZM176.392 389.4L179.197 389.4C182.512 389.4 184.312 387.345 184.312 383.865C184.312 380.355 182.512 378.405 179.137 378.405L176.392 378.405L176.392 389.4ZM177.772 388.26L177.772 379.53L179.017 379.53C181.612 379.53 182.887 381.075 182.887 383.865C182.887 386.64 181.612 388.26 179.017 388.26L177.772 388.26ZM190.762 389.595C193.522 389.595 195.457 387.39 195.457 383.865C195.457 380.34 193.522 378.21 190.762 378.21C188.002 378.21 186.067 380.34 186.067 383.865C186.067 387.39 188.002 389.595 190.762 389.595ZM190.762 388.38C188.782 388.38 187.492 386.61 187.492 383.865C187.492 381.12 188.782 379.425 190.762 379.425C192.742 379.425 194.032 381.12 194.032 383.865C194.032 386.61 192.742 388.38 190.762 388.38ZM201.982 389.595C203.407 389.595 204.487 389.025 205.357 388.02L204.592 387.135C203.887 387.915 203.092 388.38 202.042 388.38C199.942 388.38 198.622 386.64 198.622 383.865C198.622 381.12 200.017 379.425 202.087 379.425C203.032 379.425 203.752 379.845 204.337 380.46L205.087 379.56C204.457 378.855 203.407 378.21 202.072 378.21C199.282 378.21 197.197 380.355 197.197 383.91C197.197 387.48 199.237 389.595 201.982 389.595ZM206.152 389.4L207.622 389.4L209.197 386.43C209.482 385.875 209.767 385.32 210.082 384.645L210.142 384.645C210.502 385.32 210.802 385.875 211.087 386.43L212.722 389.4L214.252 389.4L211.027 383.79L214.027 378.405L212.572 378.405L211.102 381.21C210.832 381.72 210.622 382.185 210.322 382.83L210.262 382.83C209.902 382.185 209.677 381.72 209.392 381.21L207.892 378.405L206.362 378.405L209.362 383.715L206.152 389.4ZM215.977 392.34C217.357 390.105 218.182 387.69 218.182 384.735C218.182 381.795 217.357 379.38 215.977 377.13L215.122 377.52C216.412 379.665 217.057 382.2 217.057 384.735C217.057 387.285 216.412 389.835 215.122 391.965L215.977 392.34Z"></path></g><g opacity="0.85"><rect  x="40" y="420" width="310" height="55" rx="14"    fill="#FFFFFF" ></rect></g><g ><path     fill="#2C5F8A"  d="M96.515 454.4L103.01 454.4L103.01 453.215L97.895 453.215L97.895 449.21L102.065 449.21L102.065 448.025L97.895 448.025L97.895 444.575L102.845 444.575L102.845 443.405L96.515 443.405L96.515 454.4ZM104.06 454.4L105.5 454.4L106.595 452.495C106.88 452 107.135 451.505 107.42 451.04L107.495 451.04C107.81 451.505 108.11 452 108.38 452.495L109.58 454.4L111.08 454.4L108.395 450.29L110.87 446.255L109.445 446.255L108.44 448.04C108.185 448.505 107.96 448.94 107.72 449.405L107.645 449.405C107.375 448.94 107.09 448.505 106.85 448.04L105.755 446.255L104.27 446.255L106.745 450.155L104.06 454.4ZM115.895 454.595C116.87 454.595 117.8 454.205 118.535 453.575L117.935 452.645C117.425 453.095 116.765 453.455 116.015 453.455C114.515 453.455 113.495 452.21 113.495 450.335C113.495 448.46 114.575 447.2 116.06 447.2C116.69 447.2 117.215 447.485 117.68 447.905L118.37 447.005C117.8 446.495 117.065 446.045 116 446.045C113.9 446.045 112.085 447.62 112.085 450.335C112.085 453.035 113.735 454.595 115.895 454.595ZM123.635 454.595C124.73 454.595 125.6 454.235 126.305 453.77L125.825 452.855C125.21 453.26 124.58 453.5 123.785 453.5C122.24 453.5 121.175 452.39 121.085 450.65L126.575 450.65C126.605 450.44 126.635 450.17 126.635 449.87C126.635 447.545 125.465 446.045 123.38 446.045C121.52 446.045 119.735 447.68 119.735 450.335C119.735 453.02 121.46 454.595 123.635 454.595ZM121.07 449.675C121.235 448.055 122.255 447.14 123.41 447.14C124.685 447.14 125.435 448.025 125.435 449.675L121.07 449.675ZM130.085 454.595C130.46 454.595 130.685 454.535 130.88 454.475L130.685 453.425C130.535 453.455 130.475 453.455 130.4 453.455C130.19 453.455 130.025 453.29 130.025 452.87L130.025 442.46L128.645 442.46L128.645 452.78C128.645 453.935 129.065 454.595 130.085 454.595ZM139.018 455.585C139.363 455.36 139.918 455.165 144.103 453.83C144.043 453.59 143.953 453.155 143.923 452.84L140.263 453.935L140.263 450.635C141.163 450.02 141.973 449.345 142.618 448.625C143.788 451.775 145.888 454.055 148.993 455.09C149.158 454.79 149.488 454.355 149.743 454.115C148.258 453.68 146.983 452.945 145.948 451.97C146.893 451.385 147.988 450.605 148.858 449.87L147.928 449.21C147.268 449.855 146.218 450.665 145.318 451.295C144.658 450.515 144.118 449.615 143.728 448.625L149.248 448.625L149.248 447.65L143.278 447.65L143.278 446.315L148.108 446.315L148.108 445.385L143.278 445.385L143.278 444.11L148.768 444.11L148.768 443.135L143.278 443.135L143.278 441.8L142.138 441.8L142.138 443.135L136.813 443.135L136.813 444.11L142.138 444.11L142.138 445.385L137.578 445.385L137.578 446.315L142.138 446.315L142.138 447.65L136.213 447.65L136.213 448.625L141.193 448.625C139.768 449.9 137.638 451.055 135.778 451.655C136.018 451.88 136.348 452.3 136.528 452.57C137.368 452.27 138.253 451.85 139.108 451.355L139.108 453.575C139.108 454.175 138.778 454.43 138.523 454.565C138.703 454.805 138.943 455.315 139.018 455.585ZM158.863 444.395L162.148 444.395C161.698 445.34 161.083 446.21 160.363 446.96C159.643 446.225 159.088 445.445 158.683 444.68L158.863 444.395ZM153.268 441.8L153.268 445.01L151.018 445.01L151.018 446.075L153.133 446.075C152.668 448.145 151.663 450.5 150.658 451.775C150.853 452.03 151.138 452.465 151.243 452.765C151.993 451.775 152.713 450.14 153.268 448.445L153.268 455.585L154.333 455.585L154.333 448.025C154.798 448.685 155.323 449.495 155.563 449.915L156.238 449.06C155.968 448.67 154.738 447.185 154.333 446.735L154.333 446.075L156.043 446.075L155.683 446.375C155.938 446.555 156.373 446.945 156.568 447.14C157.078 446.69 157.588 446.15 158.053 445.55C158.458 446.255 158.983 446.975 159.628 447.65C158.353 448.745 156.853 449.555 155.353 450.035C155.578 450.26 155.863 450.68 155.998 450.95C156.388 450.8 156.778 450.65 157.168 450.47L157.168 455.615L158.218 455.615L158.218 454.955L162.403 454.955L162.403 455.555L163.498 455.555L163.498 450.35L164.188 450.62C164.353 450.335 164.668 449.9 164.893 449.675C163.408 449.225 162.148 448.52 161.128 447.665C162.178 446.57 163.033 445.25 163.573 443.705L162.868 443.375L162.658 443.42L159.418 443.42C159.658 442.985 159.868 442.535 160.048 442.07L158.968 441.785C158.383 443.315 157.408 444.785 156.283 445.85L156.283 445.01L154.333 445.01L154.333 441.8L153.268 441.8ZM158.218 453.965L158.218 451.07L162.403 451.07L162.403 453.965L158.218 453.965ZM157.903 450.095C158.788 449.63 159.613 449.06 160.378 448.385C161.113 449.03 161.968 449.615 162.943 450.095L157.903 450.095ZM172.537 457.34L173.377 456.965C172.087 454.835 171.472 452.285 171.472 449.735C171.472 447.2 172.087 444.665 173.377 442.52L172.537 442.13C171.157 444.38 170.332 446.795 170.332 449.735C170.332 452.69 171.157 455.105 172.537 457.34ZM174.277 454.4L175.747 454.4L177.322 451.43C177.607 450.875 177.892 450.32 178.207 449.645L178.267 449.645C178.627 450.32 178.927 450.875 179.212 451.43L180.847 454.4L182.377 454.4L179.152 448.79L182.152 443.405L180.697 443.405L179.227 446.21C178.957 446.72 178.747 447.185 178.447 447.83L178.387 447.83C178.027 447.185 177.802 446.72 177.517 446.21L176.017 443.405L174.487 443.405L177.487 448.715L174.277 454.4ZM184.132 454.4L190.327 454.4L190.327 453.215L185.512 453.215L185.512 443.405L184.132 443.405L184.132 454.4ZM195.322 454.595C197.617 454.595 199.057 453.215 199.057 451.475C199.057 449.84 198.067 449.09 196.792 448.535L195.232 447.86C194.377 447.5 193.402 447.095 193.402 446.015C193.402 445.04 194.212 444.425 195.457 444.425C196.477 444.425 197.287 444.815 197.962 445.445L198.682 444.56C197.917 443.765 196.762 443.21 195.457 443.21C193.462 443.21 191.992 444.425 191.992 446.12C191.992 447.725 193.207 448.505 194.227 448.94L195.802 449.63C196.852 450.095 197.647 450.455 197.647 451.595C197.647 452.66 196.792 453.38 195.337 453.38C194.197 453.38 193.087 452.84 192.307 452.015L191.482 452.975C192.427 453.965 193.762 454.595 195.322 454.595ZM199.957 454.4L201.427 454.4L203.002 451.43C203.287 450.875 203.572 450.32 203.887 449.645L203.947 449.645C204.307 450.32 204.607 450.875 204.892 451.43L206.527 454.4L208.057 454.4L204.832 448.79L207.832 443.405L206.377 443.405L204.907 446.21C204.637 446.72 204.427 447.185 204.127 447.83L204.067 447.83C203.707 447.185 203.482 446.72 203.197 446.21L201.697 443.405L200.167 443.405L203.167 448.715L199.957 454.4ZM209.782 457.34C211.162 455.105 211.987 452.69 211.987 449.735C211.987 446.795 211.162 444.38 209.782 442.13L208.927 442.52C210.217 444.665 210.862 447.2 210.862 449.735C210.862 452.285 210.217 454.835 208.927 456.965L209.782 457.34Z"></path></g><g ><path     fill="#4A6A85"  d="M49.422 505.732L48.456 506.124C49.45 508.196 51.13 510.478 52.6 511.738C52.81 511.458 53.188 511.066 53.454 510.856C51.998 509.764 50.29 507.622 49.422 505.732ZM44.536 505.76C43.724 507.902 42.296 509.848 40.616 511.052C40.868 511.248 41.33 511.654 41.512 511.864C41.89 511.556 42.254 511.22 42.618 510.842L42.618 511.808L45.32 511.808C44.998 514.188 44.228 516.414 40.91 517.506C41.148 517.73 41.428 518.136 41.554 518.402C45.124 517.114 46.048 514.58 46.426 511.808L50.234 511.808C50.08 515.308 49.87 516.68 49.52 517.044C49.38 517.184 49.212 517.212 48.918 517.212C48.596 517.212 47.728 517.212 46.818 517.128C47.014 517.422 47.14 517.87 47.168 518.178C48.05 518.234 48.904 518.248 49.38 518.206C49.856 518.164 50.178 518.066 50.472 517.716C50.962 517.17 51.144 515.574 51.354 511.276C51.368 511.136 51.368 510.772 51.368 510.772L42.688 510.772C43.878 509.498 44.928 507.86 45.656 506.068L44.536 505.76ZM57.71 509.302L64.318 509.302L64.318 510.562L57.71 510.562L57.71 509.302ZM56.66 508.518L56.66 511.346L65.424 511.346L65.424 508.518L56.66 508.518ZM64.962 512.186L64.682 512.2L56.072 512.2L56.072 513.054L63.282 513.054C62.4 513.39 61.364 513.698 60.44 513.908L60.426 514.734L54.756 514.734L54.756 515.658L60.426 515.658L60.426 517.254C60.426 517.45 60.356 517.506 60.104 517.52C59.852 517.534 58.9 517.548 57.934 517.506C58.088 517.772 58.242 518.108 58.312 518.388C59.572 518.388 60.37 518.388 60.86 518.262C61.364 518.122 61.532 517.87 61.532 517.282L61.532 515.658L67.272 515.658L67.272 514.734L61.532 514.734L61.532 514.384C63.086 513.992 64.71 513.418 65.9 512.746L65.2 512.144L64.962 512.186ZM60.048 505.578C60.216 505.914 60.398 506.32 60.538 506.698L54.896 506.698L54.896 507.608L67.09 507.608L67.09 506.698L61.714 506.698C61.56 506.278 61.336 505.774 61.098 505.382L60.048 505.578ZM76.974 506.684L76.974 515.168L77.954 515.168L77.954 506.684L76.974 506.684ZM79.746 505.704L79.746 516.722C79.746 516.96 79.676 517.03 79.438 517.03C79.2 517.044 78.43 517.044 77.604 517.016C77.772 517.296 77.94 517.772 77.996 518.066C79.018 518.066 79.76 518.038 80.194 517.856C80.614 517.688 80.768 517.38 80.768 516.722L80.768 505.704L79.746 505.704ZM68.868 516.652L69.106 517.66C70.954 517.296 73.614 516.792 76.106 516.302L76.05 515.378L73.11 515.924L73.11 513.726L75.91 513.726L75.91 512.788L73.11 512.788L73.11 511.29L72.116 511.29L72.116 512.788L69.358 512.788L69.358 513.726L72.116 513.726L72.116 516.092L68.868 516.652ZM69.666 511.094C70.002 510.94 70.52 510.884 74.902 510.464C75.098 510.786 75.266 511.08 75.392 511.332L76.19 510.8C75.784 510.002 74.86 508.728 74.076 507.79L73.306 508.238C73.656 508.658 74.02 509.162 74.356 509.638L70.772 509.946C71.346 509.19 71.92 508.252 72.396 507.328L76.19 507.328L76.19 506.404L68.994 506.404L68.994 507.328L71.22 507.328C70.772 508.322 70.198 509.218 69.988 509.484C69.75 509.82 69.54 510.058 69.316 510.1C69.442 510.38 69.596 510.87 69.666 511.094Z"></path></g><g opacity="0.9"><rect  x="40" y="530" width="145" height="55" rx="14"    fill="#FFFFFF" ></rect></g><g ><path     fill="#7BA8C9"  d="M103.178 570.52C102.782 571.246 102.001 572.137 101.308 572.709C101.44 572.852 101.649 573.16 101.748 573.336C102.54 572.676 103.387 571.686 103.937 570.795L103.178 570.52ZM104.597 576.262L104.597 577.538C104.597 578.308 104.498 579.298 103.783 580.057C103.926 580.156 104.212 580.453 104.311 580.596C105.136 579.727 105.312 578.484 105.312 577.56L105.312 576.922L106.753 576.922L106.753 578.187C106.753 578.627 106.577 578.803 106.445 578.88C106.555 579.056 106.698 579.397 106.753 579.584C106.907 579.386 107.149 579.177 108.48 578.286C108.414 578.143 108.315 577.879 108.271 577.681L107.435 578.209L107.435 576.262L104.597 576.262ZM109.107 573.512L110.449 573.512C110.295 574.854 110.064 576.031 109.668 577.032C109.36 576.097 109.14 575.052 108.997 573.952L109.107 573.512ZM104.124 574.854L104.124 575.569L107.787 575.569L107.787 575.448C107.941 575.602 108.117 575.811 108.194 575.921C108.326 575.69 108.458 575.437 108.568 575.173C108.744 576.163 108.964 577.087 109.272 577.912C108.788 578.792 108.139 579.507 107.27 580.057C107.424 580.2 107.666 580.508 107.743 580.662C108.524 580.134 109.14 579.485 109.624 578.726C110.009 579.518 110.493 580.156 111.109 580.596C111.23 580.398 111.483 580.09 111.659 579.947C110.977 579.529 110.449 578.836 110.042 577.956C110.625 576.746 110.966 575.283 111.175 573.512L111.571 573.512L111.571 572.786L109.272 572.786C109.415 572.104 109.525 571.378 109.613 570.641L108.843 570.531C108.667 572.236 108.37 573.897 107.787 575.052L107.787 574.854L104.124 574.854ZM104.333 571.411L104.333 574.051L107.776 574.051L107.776 571.411L107.171 571.411L107.171 573.369L106.39 573.369L106.39 570.52L105.752 570.52L105.752 573.369L104.905 573.369L104.905 571.411L104.333 571.411ZM103.409 572.72C102.87 573.886 102.012 575.052 101.187 575.844C101.33 576.02 101.572 576.394 101.66 576.559C101.979 576.24 102.298 575.866 102.617 575.448L102.617 580.618L103.376 580.618L103.376 574.348C103.662 573.897 103.926 573.435 104.146 572.973L103.409 572.72ZM116.202 573.919L116.202 574.601L121.559 574.601L121.559 573.919L116.202 573.919ZM116.202 575.481L116.202 576.152L121.559 576.152L121.559 575.481L116.202 575.481ZM115.41 572.335L115.41 573.039L122.417 573.039L122.417 572.335L115.41 572.335ZM117.951 570.795C118.248 571.257 118.578 571.884 118.732 572.28L119.469 571.95C119.315 571.565 118.985 570.971 118.666 570.52L117.951 570.795ZM116.059 577.087L116.059 580.64L116.774 580.64L116.774 580.2L120.921 580.2L120.921 580.607L121.669 580.607L121.669 577.087L116.059 577.087ZM116.774 579.518L116.774 577.769L120.921 577.769L120.921 579.518L116.774 579.518ZM114.816 570.564C114.255 572.225 113.342 573.875 112.352 574.953C112.495 575.14 112.737 575.547 112.814 575.723C113.177 575.316 113.529 574.832 113.859 574.315L113.859 580.673L114.618 580.673L114.618 572.984C114.981 572.28 115.3 571.532 115.553 570.784L114.816 570.564Z"></path></g><g opacity="0.9"><rect  x="205" y="530" width="145" height="55" rx="14"    fill="#FFFFFF" ></rect></g><g ><path     fill="#7BA8C9"  d="M267.661 575.965L269.014 575.965L269.014 578.495L267.661 578.495L267.661 575.965ZM267.661 575.25L267.661 572.929L269.014 572.929L269.014 575.25L267.661 575.25ZM271.06 575.965L271.06 578.495L269.74 578.495L269.74 575.965L271.06 575.965ZM271.06 575.25L269.74 575.25L269.74 572.929L271.06 572.929L271.06 575.25ZM268.97 570.531L268.97 572.203L266.935 572.203L266.935 579.936L267.661 579.936L267.661 579.21L271.06 579.21L271.06 579.782L271.819 579.782L271.819 572.203L269.784 572.203L269.784 570.531L268.97 570.531ZM272.886 571.114L272.886 580.629L273.612 580.629L273.612 571.895L275.394 571.895C275.086 572.764 274.646 573.908 274.228 574.832C275.24 575.833 275.526 576.647 275.526 577.329C275.537 577.714 275.46 578.055 275.229 578.198C275.108 578.264 274.943 578.297 274.767 578.308C274.536 578.319 274.228 578.319 273.887 578.286C274.019 578.517 274.096 578.847 274.118 579.067C274.448 579.078 274.811 579.089 275.097 579.056C275.361 579.023 275.603 578.957 275.779 578.825C276.153 578.583 276.296 578.044 276.296 577.395C276.296 576.636 276.054 575.767 275.053 574.733C275.515 573.699 276.043 572.456 276.439 571.444L275.867 571.081L275.735 571.114L272.886 571.114ZM280.487 576.009L280.487 576.812L283.644 576.812L283.644 580.64L284.469 580.64L284.469 576.812L287.483 576.812L287.483 576.009L284.469 576.009L284.469 573.578L286.999 573.578L286.999 572.775L284.469 572.775L284.469 570.652L283.644 570.652L283.644 572.775L282.17 572.775C282.313 572.28 282.434 571.752 282.544 571.235L281.752 571.07C281.499 572.511 281.037 573.93 280.399 574.843C280.597 574.942 280.949 575.14 281.103 575.261C281.4 574.799 281.675 574.216 281.906 573.578L283.644 573.578L283.644 576.009L280.487 576.009ZM279.948 570.564C279.354 572.225 278.386 573.875 277.352 574.953C277.495 575.14 277.737 575.569 277.825 575.767C278.177 575.393 278.507 574.953 278.837 574.48L278.837 580.618L279.629 580.618L279.629 573.193C280.047 572.423 280.421 571.609 280.729 570.795L279.948 570.564Z"></path></g><g opacity="0.85"><rect  x="40" y="600" width="145" height="55" rx="14"    fill="#FFFFFF" ></rect></g><g ><path     fill="#7BA8C9"  d="M106.203 641.488L106.203 642.291L109.008 642.291L109.008 649.474C109.008 649.65 108.942 649.705 108.744 649.716C108.568 649.716 107.941 649.716 107.237 649.705C107.369 649.936 107.523 650.321 107.567 650.563C108.458 650.563 109.019 650.541 109.371 650.387C109.712 650.244 109.844 650.002 109.844 649.474L109.844 642.291L111.582 642.291L111.582 641.488L106.203 641.488ZM103.046 640.542C102.694 641.576 102.067 642.555 101.363 643.204C101.506 643.38 101.726 643.809 101.792 643.974C102.188 643.589 102.573 643.094 102.903 642.555L105.785 642.555L105.785 641.774L103.343 641.774C103.508 641.444 103.662 641.103 103.783 640.762L103.046 640.542ZM103.244 650.574C103.431 650.398 103.739 650.222 105.939 649.144C105.895 648.957 105.829 648.627 105.807 648.407L104.168 649.155L104.168 646.735L106.027 646.735L106.027 645.987L104.168 645.987L104.168 644.491L105.664 644.491L105.664 643.743L102.177 643.743L102.177 644.491L103.365 644.491L103.365 645.987L101.671 645.987L101.671 646.735L103.365 646.735L103.365 649.056C103.365 649.507 103.068 649.749 102.881 649.848C103.002 650.024 103.178 650.376 103.244 650.574ZM117.203 641.488L117.203 642.291L120.008 642.291L120.008 649.474C120.008 649.65 119.942 649.705 119.744 649.716C119.568 649.716 118.941 649.716 118.237 649.705C118.369 649.936 118.523 650.321 118.567 650.563C119.458 650.563 120.019 650.541 120.371 650.387C120.712 650.244 120.844 650.002 120.844 649.474L120.844 642.291L122.582 642.291L122.582 641.488L117.203 641.488ZM114.046 640.542C113.694 641.576 113.067 642.555 112.363 643.204C112.506 643.38 112.726 643.809 112.792 643.974C113.188 643.589 113.573 643.094 113.903 642.555L116.785 642.555L116.785 641.774L114.343 641.774C114.508 641.444 114.662 641.103 114.783 640.762L114.046 640.542ZM114.244 650.574C114.431 650.398 114.739 650.222 116.939 649.144C116.895 648.957 116.829 648.627 116.807 648.407L115.168 649.155L115.168 646.735L117.027 646.735L117.027 645.987L115.168 645.987L115.168 644.491L116.664 644.491L116.664 643.743L113.177 643.743L113.177 644.491L114.365 644.491L114.365 645.987L112.671 645.987L112.671 646.735L114.365 646.735L114.365 649.056C114.365 649.507 114.068 649.749 113.881 649.848C114.002 650.024 114.178 650.376 114.244 650.574Z"></path></g><g opacity="0.85"><rect  x="205" y="600" width="145" height="55" rx="14"    fill="#FFFFFF" ></rect></g><g ><path     fill="#7BA8C9"  d="M259.972 641.774L264.064 641.774L264.064 643.798L259.972 643.798L259.972 641.774ZM259.18 641.037L259.18 644.546L261.578 644.546L261.578 645.91L258.366 645.91L258.366 646.669L261.094 646.669C260.346 647.835 259.18 648.946 258.047 649.507C258.234 649.661 258.487 649.958 258.619 650.156C259.697 649.529 260.808 648.429 261.578 647.208L261.578 650.64L262.403 650.64L262.403 647.175C263.14 648.385 264.196 649.54 265.208 650.178C265.351 649.969 265.604 649.683 265.791 649.518C264.724 648.946 263.602 647.835 262.898 646.669L265.494 646.669L265.494 645.91L262.403 645.91L262.403 644.546L264.889 644.546L264.889 641.037L259.18 641.037ZM258.047 640.553C257.409 642.214 256.353 643.853 255.253 644.909C255.396 645.096 255.638 645.536 255.715 645.723C256.122 645.316 256.518 644.832 256.903 644.304L256.903 650.607L257.695 650.607L257.695 643.083C258.124 642.357 258.509 641.576 258.817 640.795L258.047 640.553ZM272.743 645.921L272.743 646.834L269.685 646.834L269.685 647.604L272.743 647.604L272.743 649.65C272.743 649.804 272.71 649.848 272.512 649.859C272.314 649.87 271.654 649.87 270.928 649.848C271.038 650.079 271.148 650.398 271.181 650.629C272.127 650.629 272.743 650.629 273.117 650.508C273.48 650.376 273.579 650.145 273.579 649.661L273.579 647.604L276.527 647.604L276.527 646.834L273.579 646.834L273.579 646.196C274.382 645.69 275.24 645.008 275.834 644.348L275.306 643.941L275.141 643.985L270.62 643.985L270.62 644.744L274.371 644.744C273.898 645.184 273.293 645.635 272.743 645.921ZM270.235 640.52C270.103 640.993 269.949 641.477 269.762 641.961L266.693 641.961L266.693 642.753L269.421 642.753C268.706 644.271 267.683 645.69 266.341 646.636C266.473 646.823 266.671 647.175 266.759 647.384C267.232 647.043 267.672 646.658 268.068 646.24L268.068 650.618L268.904 650.618L268.904 645.239C269.476 644.469 269.938 643.633 270.334 642.753L276.329 642.753L276.329 641.961L270.664 641.961C270.818 641.554 270.961 641.136 271.082 640.729L270.235 640.52ZM282.06 640.531L282.06 642.841L277.715 642.841L277.715 643.677L281.037 643.677C280.234 645.547 278.87 647.329 277.407 648.22C277.605 648.385 277.88 648.682 278.012 648.891C279.607 647.802 281.026 645.833 281.884 643.677L282.06 643.677L282.06 647.747L279.486 647.747L279.486 648.583L282.06 648.583L282.06 650.64L282.929 650.64L282.929 648.583L285.492 648.583L285.492 647.747L282.929 647.747L282.929 643.677L283.083 643.677C283.919 645.833 285.338 647.813 286.966 648.869C287.12 648.638 287.406 648.319 287.615 648.154C286.086 647.274 284.7 645.536 283.908 643.677L287.307 643.677L287.307 642.841L282.929 642.841L282.929 640.531L282.06 640.531ZM292.719 641.543L292.719 644.557L291.531 645.052L291.839 645.789L292.719 645.415L292.719 648.891C292.719 650.09 293.082 650.387 294.347 650.387C294.633 650.387 296.756 650.387 297.064 650.387C298.208 650.387 298.483 649.903 298.604 648.385C298.384 648.352 298.054 648.22 297.867 648.077C297.79 649.342 297.68 649.639 297.031 649.639C296.591 649.639 294.743 649.639 294.38 649.639C293.643 649.639 293.511 649.518 293.511 648.913L293.511 645.074L294.985 644.447L294.985 648.187L295.766 648.187L295.766 644.117L297.306 643.457C297.306 645.228 297.284 646.449 297.229 646.713C297.174 646.966 297.075 647.01 296.899 647.01C296.789 647.01 296.426 647.01 296.162 646.988C296.261 647.175 296.327 647.494 296.36 647.714C296.668 647.714 297.108 647.714 297.394 647.626C297.724 647.549 297.933 647.351 297.999 646.9C298.076 646.471 298.098 644.821 298.098 642.753L298.142 642.599L297.559 642.379L297.405 642.5L297.24 642.654L295.766 643.27L295.766 640.52L294.985 640.52L294.985 643.6L293.511 644.216L293.511 641.543L292.719 641.543ZM288.363 648.066L288.693 648.891C289.661 648.462 290.915 647.901 292.092 647.351L291.905 646.614L290.651 647.142L290.651 643.952L291.949 643.952L291.949 643.171L290.651 643.171L290.651 640.652L289.87 640.652L289.87 643.171L288.462 643.171L288.462 643.952L289.87 643.952L289.87 647.472C289.298 647.703 288.781 647.912 288.363 648.066Z"></path></g><rect  x="40" y="690" width="310" height="50" rx="25"    fill="#5B9BD5" ></rect><g ><path     fill="#FFFFFF"  d="M173.384 712.312L173.384 716.872L168.904 716.872L168.904 716.184L168.904 712.312L173.384 712.312ZM163.832 716.872L163.832 718.024L167.608 718.024C167.384 720.216 166.568 722.36 163.864 724.008C164.184 724.216 164.616 724.616 164.824 724.904C167.784 723.032 168.616 720.536 168.84 718.024L173.384 718.024L173.384 724.856L174.616 724.856L174.616 718.024L178.184 718.024L178.184 716.872L174.616 716.872L174.616 712.312L177.688 712.312L177.688 711.16L164.424 711.16L164.424 712.312L167.688 712.312L167.688 716.184L167.672 716.872L163.832 716.872ZM186.392 718.328L186.392 724.84L187.496 724.84L187.496 724.136L192.328 724.136L192.328 724.808L193.48 724.808L193.48 718.328L186.392 718.328ZM187.496 723.064L187.496 719.416L192.328 719.416L192.328 723.064L187.496 723.064ZM185.864 717.048C186.328 716.856 187.016 716.792 192.968 716.328C193.176 716.744 193.352 717.128 193.48 717.464L194.504 716.936C194.008 715.704 192.888 713.832 191.8 712.44L190.84 712.904C191.384 713.608 191.928 714.456 192.408 715.288L187.304 715.608C188.36 714.168 189.416 712.312 190.28 710.456L189.032 710.104C188.232 712.136 186.92 714.28 186.488 714.856C186.088 715.432 185.768 715.816 185.464 715.88C185.608 716.2 185.8 716.792 185.864 717.048ZM182.232 714.52L184.056 714.52C183.864 716.568 183.496 718.296 182.952 719.704C182.408 719.272 181.848 718.84 181.304 718.456C181.608 717.32 181.944 715.928 182.232 714.52ZM180.04 718.888C180.84 719.432 181.688 720.104 182.472 720.776C181.736 722.216 180.792 723.24 179.64 723.864C179.896 724.088 180.216 724.52 180.376 724.808C181.592 724.056 182.568 723.016 183.336 721.576C183.944 722.168 184.472 722.728 184.824 723.224L185.56 722.248C185.16 721.72 184.552 721.096 183.848 720.472C184.584 718.68 185.032 716.392 185.224 713.48L184.52 713.368L184.328 713.4L182.456 713.4C182.664 712.312 182.84 711.24 182.968 710.264L181.848 710.184C181.736 711.176 181.576 712.28 181.368 713.4L179.688 713.4L179.688 714.52L181.144 714.52C180.808 716.168 180.408 717.752 180.04 718.888ZM198.376 720.648C199.384 721.48 200.52 722.712 200.984 723.544L201.88 722.744C201.384 721.96 200.296 720.84 199.32 720.024L205.368 720.024L205.368 723.384C205.368 723.624 205.272 723.704 204.952 723.72C204.648 723.72 203.496 723.736 202.312 723.704C202.488 724.008 202.68 724.456 202.744 724.776C204.28 724.776 205.256 724.776 205.832 724.6C206.408 724.44 206.6 724.12 206.6 723.416L206.6 720.024L210.104 720.024L210.104 718.904L206.6 718.904L206.6 717.656L205.368 717.656L205.368 718.904L195.992 718.904L195.992 720.024L199.096 720.024L198.376 720.648ZM197.16 711.24L197.16 715.432C197.16 716.936 197.96 717.256 200.6 717.256C201.192 717.256 206.344 717.256 206.984 717.256C209 717.256 209.528 716.872 209.736 715.224C209.368 715.176 208.888 715.032 208.568 714.856C208.44 716.04 208.216 716.264 206.904 716.264C205.784 716.264 201.352 716.264 200.504 716.264C198.728 716.264 198.408 716.088 198.408 715.416L198.408 714.568L208.216 714.568L208.216 710.76L197.16 710.76L197.16 711.24ZM198.408 711.816L207.032 711.816L207.032 713.496L198.408 713.496L198.408 711.816ZM212.664 718.104L212.664 723.896L224.024 723.896L224.024 724.808L225.32 724.808L225.32 718.104L224.024 718.104L224.024 722.696L219.624 722.696L219.624 717.096L224.68 717.096L224.68 711.56L223.384 711.56L223.384 715.928L219.624 715.928L219.624 710.136L218.312 710.136L218.312 715.928L214.648 715.928L214.648 711.576L213.4 711.576L213.4 717.096L218.312 717.096L218.312 722.696L213.992 722.696L213.992 718.104L212.664 718.104Z"></path></g></g><defs><clipPath id="clip-path-UpAN8M1_2AyWqgSLE3EcL"><path d="M0 844L390 844L390 0L0 0L0 844Z" fill="white"/></clipPath></defs></svg>