<svg xmlns="http://www.w3.org/2000/svg" xmlns:xlink="http://www.w3.org/1999/xlink" width="390.00006103515625" height="844" viewBox="0 0 390.00006103515625 844" fill="none"><g  clip-path="url(#clip-path-nEycd0qyXTvKUcGmzhc-1)"><rect x="0" y="0" width="390" height="54"   fill="#E8F4FD" ></rect><g ><path     fill="#333333"  d="M33.66 38.61C35.775 38.61 37.755 36.84 37.755 32.505C37.755 28.845 36.045 27.15 33.93 27.15C32.145 27.15 30.63 28.59 30.63 30.78C30.63 33.09 31.89 34.26 33.735 34.26C34.575 34.26 35.505 33.765 36.135 32.985C36.045 36.105 34.92 37.17 33.57 37.17C32.88 37.17 32.205 36.855 31.77 36.345L30.825 37.425C31.47 38.085 32.37 38.61 33.66 38.61ZM36.12 31.65C35.49 32.61 34.71 33 34.035 33C32.88 33 32.25 32.175 32.25 30.78C32.25 29.34 33 28.485 33.96 28.485C35.145 28.485 35.955 29.475 36.12 31.65ZM40.785 32.7C41.445 32.7 41.955 32.205 41.955 31.5C41.955 30.78 41.445 30.27 40.785 30.27C40.14 30.27 39.63 30.78 39.63 31.5C39.63 32.205 40.14 32.7 40.785 32.7ZM40.785 38.61C41.445 38.61 41.955 38.085 41.955 37.38C41.955 36.675 41.445 36.165 40.785 36.165C40.14 36.165 39.63 36.675 39.63 37.38C39.63 38.085 40.14 38.61 40.785 38.61ZM48.105 38.4L49.725 38.4L49.725 35.43L51.12 35.43L51.12 34.08L49.725 34.08L49.725 27.345L47.715 27.345L43.32 34.275L43.32 35.43L48.105 35.43L48.105 38.4ZM48.105 34.08L45.075 34.08L47.235 30.765C47.55 30.195 47.85 29.625 48.12 29.055L48.18 29.055C48.15 29.67 48.105 30.6 48.105 31.2L48.105 34.08ZM52.845 38.4L59.16 38.4L59.16 36.975L57.015 36.975L57.015 27.345L55.71 27.345C55.065 27.75 54.33 28.02 53.295 28.2L53.295 29.295L55.275 29.295L55.275 36.975L52.845 36.975L52.845 38.4Z"></path></g><g ><path     fill="#333333"  d="M341.5 40.2L353.5 40.2L353.5 25.2L341.5 25.2L341.5 40.2ZM347.5 32.085L342.73 25.95L352.27 25.95L347.5 32.085ZM347.98 32.7L352.75 26.565L352.75 38.835L347.98 32.7ZM342.73 39.45L347.5 33.315L352.27 39.45L342.73 39.45ZM342.25 26.565L347.02 32.7L342.25 38.835L342.25 26.565ZM356.5 40.2L368.5 40.2L368.5 25.2L356.5 25.2L356.5 40.2ZM362.5 32.085L357.73 25.95L367.27 25.95L362.5 32.085ZM362.98 32.7L367.75 26.565L367.75 38.835L362.98 32.7ZM357.73 39.45L362.5 33.315L367.27 39.45L357.73 39.45ZM357.25 26.565L362.02 32.7L357.25 38.835L357.25 26.565ZM371.5 40.2L383.5 40.2L383.5 25.2L371.5 25.2L371.5 40.2ZM377.5 32.085L372.73 25.95L382.27 25.95L377.5 32.085ZM377.98 32.7L382.75 26.565L382.75 38.835L377.98 32.7ZM372.73 39.45L377.5 33.315L382.27 39.45L372.73 39.45ZM372.25 26.565L377.02 32.7L372.25 38.835L372.25 26.565Z"></path></g><path d="M0 54L390 54L390 114L0 114L0 54Z"   fill="#E8F4FD" ></path><g ></g><g ><path     fill="#2C5F8A"  d="M171.168 82.876C172.05 83.65 173.112 84.802 173.598 85.558L174.678 84.766C174.174 84.028 173.076 82.948 172.194 82.192L171.168 82.876ZM162.402 81.76L162.402 85.396L159.828 85.396L159.828 86.656L162.402 86.656L162.402 90.544C161.358 90.832 160.386 91.084 159.612 91.282L160.008 92.596L162.402 91.894L162.402 96.61C162.402 96.862 162.312 96.934 162.06 96.952C161.826 96.952 161.034 96.97 160.206 96.934C160.368 97.276 160.548 97.834 160.602 98.176C161.844 98.176 162.6 98.158 163.068 97.942C163.536 97.726 163.716 97.366 163.716 96.61L163.716 91.498L166.11 90.778L165.948 89.536L163.716 90.184L163.716 86.656L165.912 86.656L165.912 85.396L163.716 85.396L163.716 81.76L162.402 81.76ZM173.922 88.51C173.31 89.878 172.428 91.228 171.348 92.452C170.952 91.12 170.628 89.5 170.394 87.7L175.938 87.106L175.794 85.846L170.25 86.422C170.088 84.982 169.98 83.434 169.926 81.814L168.558 81.814C168.63 83.488 168.756 85.072 168.9 86.566L166.128 86.854L166.272 88.132L169.044 87.844C169.314 90.058 169.71 92.002 170.232 93.604C168.864 94.918 167.262 95.98 165.606 96.646C165.966 96.916 166.416 97.33 166.65 97.69C168.09 97.042 169.494 96.088 170.754 94.954C171.636 96.916 172.824 98.104 174.444 98.23C175.362 98.302 176.082 97.384 176.478 94.45C176.19 94.342 175.614 94 175.326 93.712C175.164 95.71 174.876 96.682 174.39 96.646C173.364 96.538 172.5 95.53 171.834 93.874C173.166 92.452 174.282 90.832 175.038 89.176L173.922 88.51ZM183.732 87.88L188.124 87.88L188.124 92.002L183.732 92.002L183.732 87.88ZM182.454 86.656L182.454 93.208L189.456 93.208L189.456 86.656L182.454 86.656ZM178.476 82.498L178.476 98.302L179.862 98.302L179.862 97.33L192.102 97.33L192.102 98.302L193.542 98.302L193.542 82.498L178.476 82.498ZM179.862 96.052L179.862 83.848L192.102 83.848L192.102 96.052L179.862 96.052ZM198.276 86.926C197.772 88.024 196.908 89.338 195.846 90.13L196.944 90.796C197.988 89.932 198.798 88.564 199.374 87.43L198.276 86.926ZM201.336 85.576C202.452 86.098 203.784 86.926 204.432 87.556L205.152 86.674C204.486 86.08 203.118 85.27 202.02 84.784L201.336 85.576ZM208.122 87.682C209.274 88.672 210.588 90.112 211.164 91.066L212.19 90.31C211.596 89.356 210.246 87.988 209.112 87.016L208.122 87.682ZM207.384 85.396C205.998 87.088 203.982 88.492 201.66 89.608L201.66 86.638L200.436 86.638L200.436 90.112L200.436 90.166C198.924 90.796 197.304 91.318 195.684 91.714C195.936 91.984 196.332 92.56 196.494 92.848C197.934 92.434 199.392 91.93 200.778 91.336C201.12 91.696 201.75 91.804 202.848 91.804C203.244 91.804 206.25 91.804 206.682 91.804C208.248 91.804 208.644 91.282 208.824 89.14C208.482 89.068 207.978 88.888 207.672 88.69C207.618 90.436 207.456 90.688 206.592 90.688C205.926 90.688 203.406 90.688 202.92 90.688L202.236 90.652C204.72 89.446 206.952 87.898 208.536 85.972L207.384 85.396ZM197.898 93.352L197.898 97.492L208.878 97.492L208.878 98.284L210.228 98.284L210.228 93.208L208.878 93.208L208.878 96.214L204.648 96.214L204.648 92.38L203.28 92.38L203.28 96.214L199.23 96.214L199.23 93.352L197.898 93.352ZM202.956 81.796C203.136 82.246 203.298 82.822 203.406 83.308L196.386 83.308L196.386 86.836L197.718 86.836L197.718 84.532L210.282 84.532L210.282 86.836L211.65 86.836L211.65 83.308L204.81 83.308C204.702 82.786 204.468 82.12 204.234 81.58L202.956 81.796ZM220.38 93.19L220.38 94.414L227.256 94.414L227.256 93.19L220.38 93.19ZM221.838 85.18C221.712 86.962 221.478 89.374 221.244 90.814L221.604 90.814L228.534 90.832C228.192 94.774 227.796 96.376 227.328 96.844C227.148 97.024 226.968 97.06 226.644 97.042C226.32 97.042 225.51 97.042 224.646 96.952C224.862 97.294 224.988 97.816 225.024 98.194C225.888 98.248 226.716 98.248 227.184 98.212C227.724 98.176 228.066 98.05 228.408 97.654C229.056 97.006 229.47 95.116 229.884 90.256C229.902 90.058 229.92 89.662 229.92 89.662L227.688 89.662C227.976 87.43 228.264 84.73 228.408 82.858L227.454 82.75L227.238 82.822L220.974 82.822L220.974 84.064L227.004 84.064C226.86 85.648 226.626 87.844 226.41 89.662L222.666 89.662C222.828 88.33 223.008 86.638 223.098 85.27L221.838 85.18ZM213.918 82.714L213.918 83.956L216.114 83.956C215.61 86.71 214.8 89.266 213.522 90.976C213.738 91.336 214.044 92.092 214.134 92.434C214.476 91.984 214.8 91.498 215.088 90.958L215.088 97.492L216.258 97.492L216.258 96.052L219.57 96.052L219.57 88.258L216.276 88.258C216.744 86.908 217.122 85.45 217.41 83.956L220.092 83.956L220.092 82.714L213.918 82.714ZM216.258 89.482L218.382 89.482L218.382 94.846L216.258 94.846L216.258 89.482Z"></path></g><rect  x="80" y="140" width="30" height="30" rx="15"    fill="#5B9BD5" ></rect><g ><path     fill="#FFFFFF"  d="M92.347 162.24L97.975 162.24L97.975 161.176L95.917 161.176L95.917 151.978L94.937 151.978C94.377 152.3 93.719 152.538 92.809 152.706L92.809 153.518L94.643 153.518L94.643 161.176L92.347 161.176L92.347 162.24Z"></path></g><g ><path     fill="#5B9BD5"  d="M125.312 160.036L125.528 160.96C126.416 160.732 127.508 160.444 128.564 160.168L128.468 159.304C127.304 159.592 126.14 159.88 125.312 160.036ZM130.568 157.636C130.88 158.548 131.192 159.736 131.288 160.516L132.212 160.264C132.092 159.496 131.78 158.32 131.444 157.42L130.568 157.636ZM132.68 157.324C132.872 158.224 133.088 159.412 133.148 160.192L134.06 160.048C134 159.268 133.784 158.116 133.556 157.204L132.68 157.324ZM126.164 154.108C126.104 155.428 125.96 157.216 125.816 158.284L128.996 158.284C128.852 160.6 128.684 161.524 128.456 161.776C128.336 161.908 128.228 161.92 128.024 161.92C127.808 161.92 127.268 161.908 126.704 161.86C126.872 162.124 126.98 162.508 127.004 162.784C127.58 162.82 128.144 162.82 128.456 162.796C128.816 162.76 129.068 162.664 129.296 162.4C129.656 161.992 129.824 160.84 130.004 157.816C130.016 157.684 130.016 157.384 130.016 157.384L129.08 157.384C129.236 156.052 129.392 153.916 129.488 152.284L125.672 152.284L125.672 153.256L128.48 153.256C128.396 154.672 128.252 156.268 128.12 157.384L126.872 157.384C126.98 156.4 127.076 155.164 127.136 154.156L126.164 154.108ZM131.372 155.488L131.372 156.46L135.02 156.46L135.02 155.56C135.416 155.92 135.824 156.232 136.208 156.508C136.316 156.196 136.544 155.68 136.736 155.416C135.656 154.768 134.408 153.616 133.628 152.584L133.916 152.02L132.92 151.684C132.188 153.292 130.856 154.732 129.428 155.62C129.62 155.836 129.956 156.316 130.088 156.532C131.168 155.776 132.224 154.708 133.064 153.484C133.604 154.168 134.264 154.876 134.936 155.488L131.372 155.488ZM130.232 161.392L130.232 162.364L136.4 162.364L136.4 161.392L134.744 161.392C135.296 160.312 135.896 158.812 136.364 157.564L135.344 157.324C134.984 158.56 134.336 160.288 133.784 161.392L130.232 161.392ZM138.116 152.74C138.764 153.304 139.604 154.096 139.988 154.624L140.768 153.832C140.372 153.328 139.508 152.572 138.86 152.044L138.116 152.74ZM141.248 161.404L141.248 162.46L148.58 162.46L148.58 161.404L145.916 161.404L145.916 157.708L148.112 157.708L148.112 156.652L145.916 156.652L145.916 153.7L148.34 153.7L148.34 152.632L141.608 152.632L141.608 153.7L144.752 153.7L144.752 161.404L143.336 161.404L143.336 155.764L142.208 155.764L142.208 161.404L141.248 161.404ZM137.54 155.524L137.54 156.616L139.112 156.616L139.112 160.468C139.112 161.152 138.668 161.668 138.404 161.896C138.608 162.052 138.968 162.424 139.1 162.652C139.292 162.376 139.652 162.088 141.764 160.348C141.632 160.132 141.416 159.664 141.32 159.364L140.216 160.24L140.216 155.524L137.54 155.524ZM157.256 155.668L157.256 156.604L152.588 156.604L152.588 155.668L157.256 155.668ZM157.256 154.828L152.588 154.828L152.588 153.94L157.256 153.94L157.256 154.828ZM157.256 157.444L157.256 158.236L157.04 158.428L152.588 158.428L152.588 157.444L157.256 157.444ZM149.888 158.428L149.888 159.424L155.708 159.424C153.92 160.612 151.796 161.488 149.516 162.088C149.72 162.316 150.068 162.772 150.2 163.012C152.816 162.244 155.252 161.116 157.256 159.556L157.256 161.44C157.256 161.668 157.172 161.752 156.932 161.764C156.68 161.776 155.804 161.776 154.928 161.74C155.084 162.052 155.264 162.556 155.324 162.88C156.5 162.88 157.268 162.856 157.748 162.664C158.216 162.484 158.36 162.136 158.36 161.452L158.36 158.62C159.104 157.924 159.776 157.144 160.352 156.292L159.38 155.812C159.08 156.28 158.732 156.724 158.36 157.144L158.36 152.956L155.156 152.956C155.348 152.632 155.54 152.272 155.708 151.924L154.388 151.756C154.304 152.104 154.136 152.548 153.956 152.956L151.472 152.956L151.472 158.428L149.888 158.428ZM164 151.84C163.4 153.604 162.38 155.368 161.312 156.508C161.516 156.772 161.84 157.384 161.948 157.66C162.248 157.324 162.536 156.952 162.824 156.544L162.824 162.928L163.94 162.928L163.94 154.708C164.372 153.892 164.756 153.016 165.068 152.164L164 151.84ZM170.18 152.032L169.148 152.224C169.556 154.072 170.096 155.368 171.02 156.436L166.04 156.436C166.928 155.332 167.6 153.916 168.032 152.356L166.916 152.116C166.46 153.916 165.572 155.5 164.348 156.46C164.564 156.7 164.912 157.228 165.032 157.48C165.296 157.252 165.548 157.012 165.788 156.736L165.788 157.492L167.132 157.492C166.904 159.724 166.196 161.248 164.552 162.112C164.78 162.304 165.176 162.736 165.32 162.952C167.132 161.872 167.948 160.156 168.26 157.492L170.156 157.492C170.036 160.312 169.868 161.392 169.64 161.68C169.52 161.812 169.412 161.836 169.22 161.836C169.004 161.836 168.524 161.836 168.008 161.788C168.188 162.076 168.308 162.52 168.332 162.832C168.884 162.856 169.424 162.856 169.748 162.82C170.108 162.772 170.372 162.676 170.612 162.364C170.984 161.92 171.14 160.576 171.296 156.916L171.308 156.736C171.512 156.952 171.74 157.156 171.98 157.36C172.124 157.024 172.46 156.64 172.748 156.4C171.392 155.368 170.672 154.144 170.18 152.032Z"></path></g><path     fill="#000000"  d="M170 155L200 155"></path><path    stroke="rgba(176, 212, 240, 1.00)" stroke-width="2"    d="M170 155L200 155"></path><rect  x="210" y="140" width="30" height="30" rx="15"    fill="#E8F0F8" ></rect><g ><path     fill="#A8C8E0"  d="M221.731 162.24L228.185 162.24L228.185 161.134L225.343 161.134C224.825 161.134 224.195 161.19 223.663 161.232C226.071 158.95 227.695 156.864 227.695 154.806C227.695 152.986 226.533 151.796 224.699 151.796C223.397 151.796 222.501 152.384 221.675 153.294L222.417 154.022C222.991 153.336 223.705 152.832 224.545 152.832C225.819 152.832 226.435 153.686 226.435 154.862C226.435 156.626 224.951 158.67 221.731 161.484L221.731 162.24Z"></path></g><g ><path     fill="#A8C8E0"  d="M256.908 155.44L256.908 159.172L260.508 159.172L260.508 160L256.524 160L256.524 160.72L260.508 160.72L260.508 161.764L255.624 161.764L255.624 162.496L266.388 162.496L266.388 161.764L261.408 161.764L261.408 160.72L265.632 160.72L265.632 160L261.408 160L261.408 159.172L265.176 159.172L265.176 155.44L261.408 155.44L261.408 154.708L266.328 154.708L266.328 153.964L261.408 153.964L261.408 153.04C262.812 152.932 264.132 152.788 265.164 152.608L264.684 151.912C262.788 152.248 259.392 152.476 256.596 152.548C256.68 152.728 256.776 153.052 256.788 153.256C257.964 153.232 259.248 153.184 260.508 153.112L260.508 153.964L255.696 153.964L255.696 154.708L260.508 154.708L260.508 155.44L256.908 155.44ZM257.784 157.6L260.508 157.6L260.508 158.512L257.784 158.512L257.784 157.6ZM261.408 157.6L264.264 157.6L264.264 158.512L261.408 158.512L261.408 157.6ZM257.784 156.088L260.508 156.088L260.508 156.988L257.784 156.988L257.784 156.088ZM261.408 156.088L264.264 156.088L264.264 156.988L261.408 156.988L261.408 156.088ZM274.812 152.944L276.84 152.944L276.84 154.024L274.812 154.024L274.812 152.944ZM272.004 152.944L273.984 152.944L273.984 154.024L272.004 154.024L272.004 152.944ZM269.268 152.944L271.176 152.944L271.176 154.024L269.268 154.024L269.268 152.944ZM269.28 156.796L269.28 161.848L267.684 161.848L267.684 162.52L278.34 162.52L278.34 161.848L276.696 161.848L276.696 156.796L272.94 156.796L273.108 156.088L278.064 156.088L278.064 155.38L273.24 155.38L273.372 154.684L277.74 154.684L277.74 152.296L268.404 152.296L268.404 154.684L272.448 154.684L272.352 155.38L267.816 155.38L267.816 156.088L272.232 156.088L272.088 156.796L269.28 156.796ZM270.144 161.848L270.144 161.104L275.808 161.104L275.808 161.848L270.144 161.848ZM270.144 158.62L275.808 158.62L275.808 159.316L270.144 159.316L270.144 158.62ZM270.144 158.08L270.144 157.408L275.808 157.408L275.808 158.08L270.144 158.08ZM270.144 159.856L275.808 159.856L275.808 160.564L270.144 160.564L270.144 159.856ZM281.184 155.284C280.848 156.016 280.272 156.892 279.564 157.42L280.296 157.864C280.992 157.288 281.532 156.376 281.916 155.62L281.184 155.284ZM283.224 154.384C283.968 154.732 284.856 155.284 285.288 155.704L285.768 155.116C285.324 154.72 284.412 154.18 283.68 153.856L283.224 154.384ZM287.748 155.788C288.516 156.448 289.392 157.408 289.776 158.044L290.46 157.54C290.064 156.904 289.164 155.992 288.408 155.344L287.748 155.788ZM287.256 154.264C286.332 155.392 284.988 156.328 283.44 157.072L283.44 155.092L282.624 155.092L282.624 157.408L282.624 157.444C281.616 157.864 280.536 158.212 279.456 158.476C279.624 158.656 279.888 159.04 279.996 159.232C280.956 158.956 281.928 158.62 282.852 158.224C283.08 158.464 283.5 158.536 284.232 158.536C284.496 158.536 286.5 158.536 286.788 158.536C287.832 158.536 288.096 158.188 288.216 156.76C287.988 156.712 287.652 156.592 287.448 156.46C287.412 157.624 287.304 157.792 286.728 157.792C286.284 157.792 284.604 157.792 284.28 157.792L283.824 157.768C285.48 156.964 286.968 155.932 288.024 154.648L287.256 154.264ZM280.932 159.568L280.932 162.328L288.252 162.328L288.252 162.856L289.152 162.856L289.152 159.472L288.252 159.472L288.252 161.476L285.432 161.476L285.432 158.92L284.52 158.92L284.52 161.476L281.82 161.476L281.82 159.568L280.932 159.568ZM284.304 151.864C284.424 152.164 284.532 152.548 284.604 152.872L279.924 152.872L279.924 155.224L280.812 155.224L280.812 153.688L289.188 153.688L289.188 155.224L290.1 155.224L290.1 152.872L285.54 152.872C285.468 152.524 285.312 152.08 285.156 151.72L284.304 151.864ZM295.92 159.46L295.92 160.276L300.504 160.276L300.504 159.46L295.92 159.46ZM296.892 154.12C296.808 155.308 296.652 156.916 296.496 157.876L296.736 157.876L301.356 157.888C301.128 160.516 300.864 161.584 300.552 161.896C300.432 162.016 300.312 162.04 300.096 162.028C299.88 162.028 299.34 162.028 298.764 161.968C298.908 162.196 298.992 162.544 299.016 162.796C299.592 162.832 300.144 162.832 300.456 162.808C300.816 162.784 301.044 162.7 301.272 162.436C301.704 162.004 301.98 160.744 302.256 157.504C302.268 157.372 302.28 157.108 302.28 157.108L300.792 157.108C300.984 155.62 301.176 153.82 301.272 152.572L300.636 152.5L300.492 152.548L296.316 152.548L296.316 153.376L300.336 153.376C300.24 154.432 300.084 155.896 299.94 157.108L297.444 157.108C297.552 156.22 297.672 155.092 297.732 154.18L296.892 154.12ZM291.612 152.476L291.612 153.304L293.076 153.304C292.74 155.14 292.2 156.844 291.348 157.984C291.492 158.224 291.696 158.728 291.756 158.956C291.984 158.656 292.2 158.332 292.392 157.972L292.392 162.328L293.172 162.328L293.172 161.368L295.38 161.368L295.38 156.172L293.184 156.172C293.496 155.272 293.748 154.3 293.94 153.304L295.728 153.304L295.728 152.476L291.612 152.476ZM293.172 156.988L294.588 156.988L294.588 160.564L293.172 160.564L293.172 156.988Z"></path></g><path     fill="#000000"  d="M300 155L330 155"></path><path    stroke="rgba(232, 240, 248, 1.00)" stroke-width="2"    d="M300 155L330 155"></path><rect  x="340.00006103515625" y="140" width="30" height="30" rx="15"    fill="#E8F0F8" ></rect><g ><path     fill="#A8C8E0"  d="M354.797 162.422C356.631 162.422 358.101 161.33 358.101 159.496C358.101 158.082 357.135 157.186 355.931 156.892L355.931 156.822C357.023 156.444 357.751 155.604 357.751 154.358C357.751 152.734 356.491 151.796 354.755 151.796C353.579 151.796 352.669 152.314 351.899 153.014L352.585 153.826C353.173 153.238 353.887 152.832 354.713 152.832C355.791 152.832 356.449 153.476 356.449 154.456C356.449 155.562 355.735 156.416 353.607 156.416L353.607 157.396C355.987 157.396 356.799 158.208 356.799 159.454C356.799 160.63 355.945 161.358 354.713 161.358C353.551 161.358 352.781 160.798 352.179 160.182L351.521 161.008C352.193 161.75 353.201 162.422 354.797 162.422Z"></path></g><g ><path     fill="#4A6A85"  d="M40.644 217.662L40.644 218.95L46.328 218.95L46.328 221.694C46.328 221.988 46.216 222.086 45.894 222.086C45.572 222.1 44.438 222.1 43.318 222.072C43.528 222.422 43.78 223.01 43.878 223.374C45.334 223.388 46.286 223.36 46.888 223.15C47.476 222.94 47.714 222.576 47.714 221.722L47.714 218.95L53.384 218.95L53.384 217.662L47.714 217.662L47.714 215.646L52.572 215.646L52.572 214.386L47.714 214.386L47.714 212.3C49.324 212.104 50.836 211.852 52.054 211.502L51.074 210.424C48.862 211.054 44.886 211.432 41.526 211.586C41.652 211.88 41.82 212.412 41.862 212.748C43.276 212.692 44.816 212.594 46.328 212.454L46.328 214.386L41.596 214.386L41.596 215.646L46.328 215.646L46.328 217.662L40.644 217.662ZM60.902 211.222L60.902 215.73C60.902 217.872 60.734 220.644 58.844 222.562C59.152 222.73 59.656 223.164 59.866 223.402C61.896 221.358 62.19 218.096 62.19 215.744L62.19 212.482L64.444 212.482L64.444 221.218C64.444 222.436 64.542 222.716 64.794 222.954C65.004 223.178 65.368 223.276 65.676 223.276C65.858 223.276 66.194 223.276 66.404 223.276C66.712 223.276 66.992 223.206 67.216 223.052C67.426 222.898 67.552 222.646 67.636 222.24C67.692 221.862 67.748 220.84 67.762 220.07C67.44 219.958 67.048 219.748 66.782 219.51C66.782 220.42 66.754 221.12 66.726 221.442C66.712 221.75 66.67 221.876 66.614 221.96C66.558 222.03 66.46 222.058 66.362 222.058C66.264 222.058 66.124 222.058 66.04 222.058C65.956 222.058 65.886 222.03 65.83 221.974C65.774 221.904 65.76 221.666 65.76 221.246L65.76 211.222L60.902 211.222ZM56.898 210.424L56.898 213.378L54.686 213.378L54.686 214.638L56.73 214.638C56.24 216.472 55.302 218.53 54.336 219.664C54.56 219.986 54.868 220.532 55.008 220.896C55.708 220 56.38 218.614 56.898 217.144L56.898 223.402L58.172 223.402L58.172 217.2C58.662 217.872 59.222 218.67 59.474 219.132L60.258 218.054C59.95 217.69 58.662 216.192 58.172 215.702L58.172 214.638L60.132 214.638L60.132 213.378L58.172 213.378L58.172 210.424L56.898 210.424ZM71.836 212.118L78.08 212.118L78.08 213.77L71.836 213.77L71.836 212.118ZM70.52 210.956L70.52 214.932L79.48 214.932L79.48 210.956L70.52 210.956ZM68.812 216.024L68.812 217.228L71.584 217.228C71.304 218.124 70.968 219.076 70.674 219.762L77.94 219.762C77.716 221.12 77.478 221.806 77.156 222.044C76.988 222.17 76.806 222.184 76.484 222.184C76.078 222.184 75.042 222.17 74.076 222.072C74.328 222.436 74.51 222.954 74.538 223.346C75.504 223.388 76.428 223.388 76.932 223.374C77.534 223.346 77.926 223.248 78.29 222.926C78.808 222.464 79.144 221.414 79.452 219.146C79.494 218.95 79.522 218.558 79.522 218.558L72.634 218.558L73.082 217.228L81.118 217.228L81.118 216.024L68.812 216.024Z"></path></g><g opacity="0.9"><rect  x="40" y="230" width="310" height="48" rx="12"    fill="#FFFFFF" ></rect></g><g ><path     fill="#B0C4DE"  d="M61.605 251.82C62.385 252.525 63.375 253.515 63.84 254.145L64.605 253.35C64.14 252.735 63.12 251.805 62.325 251.13L61.605 251.82ZM60.63 255.51L60.63 256.59L62.88 256.59L62.88 262.08C62.88 262.74 62.43 263.19 62.16 263.37C62.355 263.595 62.655 264.06 62.76 264.33C62.97 264.015 63.36 263.7 65.895 261.75C65.775 261.525 65.595 261.09 65.52 260.79L63.96 261.96L63.96 255.51L60.63 255.51ZM67.41 260.22L72.12 260.22L72.12 261.45L67.41 261.45L67.41 260.22ZM67.41 259.425L67.41 258.27L72.12 258.27L72.12 259.425L67.41 259.425ZM69.21 250.8L69.21 251.97L65.73 251.97L65.73 252.84L69.21 252.84L69.21 253.8L66.105 253.8L66.105 254.625L69.21 254.625L69.21 255.66L65.28 255.66L65.28 256.53L74.4 256.53L74.4 255.66L70.32 255.66L70.32 254.625L73.485 254.625L73.485 253.8L70.32 253.8L70.32 252.84L73.935 252.84L73.935 251.97L70.32 251.97L70.32 250.8L69.21 250.8ZM66.36 257.4L66.36 264.585L67.41 264.585L67.41 262.275L72.12 262.275L72.12 263.325C72.12 263.505 72.045 263.565 71.85 263.58C71.64 263.595 70.92 263.595 70.155 263.565C70.305 263.835 70.44 264.255 70.485 264.54C71.55 264.54 72.24 264.54 72.645 264.36C73.08 264.195 73.2 263.895 73.2 263.34L73.2 257.4L66.36 257.4ZM86.01 256.695L86.01 262.125L86.895 262.125L86.895 256.695L86.01 256.695ZM87.915 256.14L87.915 263.325C87.915 263.49 87.855 263.535 87.69 263.55C87.495 263.55 86.895 263.55 86.205 263.535C86.355 263.805 86.475 264.21 86.505 264.465C87.39 264.465 87.99 264.45 88.35 264.3C88.725 264.135 88.83 263.865 88.83 263.325L88.83 256.14L87.915 256.14ZM76.065 258.45C76.185 258.33 76.62 258.24 77.1 258.24L78.285 258.24L78.285 260.31C77.28 260.55 76.35 260.76 75.63 260.895L75.885 261.96L78.285 261.345L78.285 264.585L79.275 264.585L79.275 261.09L80.52 260.76L80.43 259.815L79.275 260.085L79.275 258.24L80.475 258.24L80.475 257.205L79.275 257.205L79.275 254.925L78.285 254.925L78.285 257.205L76.98 257.205C77.37 256.155 77.745 254.91 78.045 253.62L80.505 253.62L80.505 252.6L78.255 252.6C78.375 252.06 78.465 251.52 78.54 250.995L77.49 250.815C77.43 251.4 77.355 252.015 77.25 252.6L75.705 252.6L75.705 253.62L77.055 253.62C76.785 254.865 76.5 255.885 76.365 256.275C76.155 256.95 75.975 257.43 75.72 257.505C75.84 257.76 76.005 258.24 76.065 258.45ZM84.885 250.755C83.895 252.33 82.035 253.815 80.22 254.655C80.49 254.88 80.79 255.225 80.955 255.495C81.36 255.285 81.765 255.045 82.155 254.79L82.155 255.42L87.705 255.42L87.705 254.685C88.08 254.91 88.485 255.135 88.89 255.345C89.025 255.045 89.34 254.685 89.61 254.46C88.035 253.785 86.61 252.93 85.47 251.655L85.8 251.16L84.885 250.755ZM82.59 254.49C83.43 253.875 84.225 253.155 84.885 252.39C85.65 253.23 86.475 253.905 87.39 254.49L82.59 254.49ZM84.21 257.31L84.21 258.495L82.155 258.495L82.155 257.31L84.21 257.31ZM81.225 256.41L81.225 264.54L82.155 264.54L82.155 261.45L84.21 261.45L84.21 263.415C84.21 263.55 84.18 263.58 84.06 263.595C83.91 263.595 83.52 263.595 83.055 263.58C83.19 263.85 83.31 264.255 83.34 264.51C83.985 264.51 84.45 264.51 84.765 264.345C85.08 264.18 85.155 263.895 85.155 263.415L85.155 256.41L81.225 256.41ZM82.155 259.365L84.21 259.365L84.21 260.595L82.155 260.595L82.155 259.365ZM94.425 252.075C95.415 252.765 96.18 253.605 96.84 254.535C95.865 258.81 93.99 261.855 90.615 263.595C90.915 263.805 91.44 264.27 91.65 264.495C94.695 262.725 96.615 259.965 97.755 256.035C99.405 259.065 100.47 262.53 103.905 264.45C103.965 264.09 104.265 263.49 104.46 263.175C99.465 260.19 99.915 254.55 95.115 251.115L94.425 252.075ZM106.41 251.79C107.385 252.255 108.63 252.975 109.26 253.47L109.905 252.54C109.26 252.075 108 251.4 107.04 250.98L106.41 251.79ZM105.63 255.945C106.575 256.395 107.805 257.1 108.405 257.58L109.035 256.635C108.405 256.17 107.16 255.51 106.245 255.105L105.63 255.945ZM106.065 263.67L107.01 264.435C107.91 263.04 108.945 261.15 109.74 259.575L108.93 258.825C108.06 260.535 106.875 262.515 106.065 263.67ZM113.22 251.115C113.73 251.895 114.255 252.945 114.465 253.605L115.56 253.17C115.335 252.51 114.765 251.505 114.24 250.74L113.22 251.115ZM110.01 253.665L110.01 254.73L113.955 254.73L113.955 258.12L110.58 258.12L110.58 259.185L113.955 259.185L113.955 263.055L109.53 263.055L109.53 264.135L119.43 264.135L119.43 263.055L115.125 263.055L115.125 259.185L118.53 259.185L118.53 258.12L115.125 258.12L115.125 254.73L119.07 254.73L119.07 253.665L110.01 253.665ZM128.16 251.775L128.16 256.44L128.16 256.755L126.6 256.755L126.6 251.775L122.31 251.775L122.31 256.41L122.31 256.755L120.63 256.755L120.63 257.835L122.28 257.835C122.19 259.86 121.86 262.155 120.6 263.895C120.84 264.045 121.26 264.45 121.425 264.69C122.805 262.8 123.24 260.1 123.36 257.835L125.505 257.835L125.505 263.175C125.505 263.4 125.43 263.46 125.22 263.475C125.01 263.49 124.32 263.49 123.555 263.46C123.705 263.745 123.885 264.21 123.93 264.48C124.98 264.48 125.64 264.465 126.045 264.285C126.45 264.105 126.6 263.79 126.6 263.19L126.6 257.835L128.13 257.835C128.055 259.83 127.755 262.125 126.645 263.865C126.87 264 127.32 264.42 127.485 264.63C128.745 262.755 129.135 260.07 129.225 257.835L131.655 257.835L131.655 263.22C131.655 263.445 131.58 263.52 131.34 263.535C131.145 263.55 130.41 263.55 129.63 263.535C129.795 263.82 129.945 264.3 130.005 264.585C131.1 264.585 131.775 264.57 132.195 264.39C132.615 264.21 132.765 263.865 132.765 263.235L132.765 257.835L134.37 257.835L134.37 256.755L132.765 256.755L132.765 251.775L128.16 251.775ZM123.39 252.84L125.505 252.84L125.505 256.755L123.39 256.755L123.39 256.41L123.39 252.84ZM129.255 256.755L129.255 256.44L129.255 252.84L131.655 252.84L131.655 256.755L129.255 256.755ZM135.75 258.57L135.75 259.68L141.945 259.68L141.945 263.025C141.945 263.325 141.81 263.43 141.48 263.445C141.135 263.445 139.95 263.46 138.69 263.43C138.87 263.73 139.08 264.225 139.17 264.54C140.745 264.555 141.735 264.54 142.305 264.345C142.86 264.165 143.1 263.835 143.1 263.025L143.1 259.68L149.295 259.68L149.295 258.57L143.1 258.57L143.1 256.14L148.44 256.14L148.44 255.06L143.1 255.06L143.1 252.615C144.87 252.405 146.52 252.105 147.795 251.73L146.97 250.815C144.675 251.535 140.31 251.925 136.74 252.105C136.845 252.345 136.98 252.795 137.01 253.08C138.57 253.02 140.28 252.915 141.945 252.75L141.945 255.06L136.755 255.06L136.755 256.14L141.945 256.14L141.945 258.57L135.75 258.57ZM157.47 251.655L157.47 256.47C157.47 258.795 157.26 261.78 155.235 263.88C155.49 264.015 155.925 264.39 156.09 264.6C158.25 262.38 158.565 258.975 158.565 256.47L158.565 252.72L161.385 252.72L161.385 262.38C161.385 263.67 161.475 263.94 161.73 264.165C161.955 264.36 162.285 264.45 162.585 264.45C162.78 264.45 163.125 264.45 163.35 264.45C163.665 264.45 163.935 264.39 164.145 264.24C164.37 264.09 164.49 263.835 164.565 263.4C164.625 263.025 164.685 261.915 164.685 261.06C164.4 260.97 164.055 260.79 163.83 260.58C163.815 261.585 163.8 262.38 163.755 262.725C163.74 263.07 163.695 263.205 163.605 263.295C163.545 263.37 163.425 263.4 163.305 263.4C163.155 263.4 162.975 263.4 162.87 263.4C162.75 263.4 162.675 263.37 162.6 263.31C162.525 263.25 162.495 262.965 162.495 262.47L162.495 251.655L157.47 251.655ZM153.27 250.8L153.27 254.01L150.78 254.01L150.78 255.09L153.12 255.09C152.58 257.175 151.485 259.515 150.42 260.775C150.6 261.045 150.885 261.495 151.005 261.795C151.845 260.76 152.655 259.065 153.27 257.31L153.27 264.585L154.365 264.585L154.365 257.7C154.95 258.45 155.655 259.38 155.955 259.89L156.66 258.96C156.315 258.57 154.89 256.965 154.365 256.44L154.365 255.09L156.585 255.09L156.585 254.01L154.365 254.01L154.365 250.8L153.27 250.8ZM168.9 252.42L176.04 252.42L176.04 254.46L168.9 254.46L168.9 252.42ZM167.775 251.415L167.775 255.45L177.225 255.45L177.225 251.415L167.775 251.415ZM165.945 256.8L165.945 257.835L169.035 257.835C168.735 258.765 168.36 259.8 168.045 260.535L175.905 260.535C175.62 262.275 175.32 263.115 174.945 263.415C174.765 263.535 174.585 263.55 174.225 263.55C173.805 263.55 172.71 263.535 171.66 263.43C171.87 263.745 172.02 264.18 172.05 264.51C173.085 264.57 174.075 264.585 174.585 264.555C175.17 264.54 175.53 264.45 175.89 264.15C176.445 263.67 176.82 262.545 177.18 260.025C177.21 259.86 177.24 259.515 177.24 259.515L169.725 259.515L170.28 257.835L178.995 257.835L178.995 256.8L165.945 256.8Z"></path></g><g ><path     fill="#4A6A85"  d="M40.364 310.042L40.616 311.12C41.652 310.854 42.926 310.518 44.158 310.196L44.046 309.188C42.688 309.524 41.33 309.86 40.364 310.042ZM46.496 307.242C46.86 308.306 47.224 309.692 47.336 310.602L48.414 310.308C48.274 309.412 47.91 308.04 47.518 306.99L46.496 307.242ZM48.96 306.878C49.184 307.928 49.436 309.314 49.506 310.224L50.57 310.056C50.5 309.146 50.248 307.802 49.982 306.738L48.96 306.878ZM41.358 303.126C41.288 304.666 41.12 306.752 40.952 307.998L44.662 307.998C44.494 310.7 44.298 311.778 44.032 312.072C43.892 312.226 43.766 312.24 43.528 312.24C43.276 312.24 42.646 312.226 41.988 312.17C42.184 312.478 42.31 312.926 42.338 313.248C43.01 313.29 43.668 313.29 44.032 313.262C44.452 313.22 44.746 313.108 45.012 312.8C45.432 312.324 45.628 310.98 45.838 307.452C45.852 307.298 45.852 306.948 45.852 306.948L44.76 306.948C44.942 305.394 45.124 302.902 45.236 300.998L40.784 300.998L40.784 302.132L44.06 302.132C43.962 303.784 43.794 305.646 43.64 306.948L42.184 306.948C42.31 305.8 42.422 304.358 42.492 303.182L41.358 303.126ZM47.434 304.736L47.434 305.87L51.69 305.87L51.69 304.82C52.152 305.24 52.628 305.604 53.076 305.926C53.202 305.562 53.468 304.96 53.692 304.652C52.432 303.896 50.976 302.552 50.066 301.348L50.402 300.69L49.24 300.298C48.386 302.174 46.832 303.854 45.166 304.89C45.39 305.142 45.782 305.702 45.936 305.954C47.196 305.072 48.428 303.826 49.408 302.398C50.038 303.196 50.808 304.022 51.592 304.736L47.434 304.736ZM46.104 311.624L46.104 312.758L53.3 312.758L53.3 311.624L51.368 311.624C52.012 310.364 52.712 308.614 53.258 307.158L52.068 306.878C51.648 308.32 50.892 310.336 50.248 311.624L46.104 311.624ZM55.302 301.53C56.058 302.188 57.038 303.112 57.486 303.728L58.396 302.804C57.934 302.216 56.926 301.334 56.17 300.718L55.302 301.53ZM58.956 311.638L58.956 312.87L67.51 312.87L67.51 311.638L64.402 311.638L64.402 307.326L66.964 307.326L66.964 306.094L64.402 306.094L64.402 302.65L67.23 302.65L67.23 301.404L59.376 301.404L59.376 302.65L63.044 302.65L63.044 311.638L61.392 311.638L61.392 305.058L60.076 305.058L60.076 311.638L58.956 311.638ZM54.63 304.778L54.63 306.052L56.464 306.052L56.464 310.546C56.464 311.344 55.946 311.946 55.638 312.212C55.876 312.394 56.296 312.828 56.45 313.094C56.674 312.772 57.094 312.436 59.558 310.406C59.404 310.154 59.152 309.608 59.04 309.258L57.752 310.28L57.752 304.778L54.63 304.778ZM73.796 309.3L73.796 310.476L78.99 310.476L78.99 309.3L73.796 309.3ZM74.846 303.126C74.748 304.568 74.552 306.486 74.37 307.662L79.872 307.662C79.634 310.518 79.34 311.694 78.99 312.03C78.864 312.184 78.71 312.212 78.486 312.198C78.22 312.198 77.632 312.198 77.002 312.128C77.198 312.464 77.338 312.982 77.352 313.332C78.038 313.374 78.668 313.36 79.032 313.332C79.48 313.29 79.774 313.178 80.068 312.842C80.558 312.324 80.88 310.826 81.174 307.088C81.202 306.906 81.216 306.528 81.216 306.528L79.564 306.528C79.788 304.778 79.998 302.748 80.11 301.236L79.172 301.138L78.962 301.194L74.174 301.194L74.174 302.398L78.752 302.398C78.64 303.602 78.472 305.17 78.304 306.528L75.756 306.528C75.896 305.492 76.008 304.246 76.092 303.21L74.846 303.126ZM68.658 301.11L68.658 302.314L70.282 302.314C69.918 304.33 69.288 306.206 68.35 307.466C68.546 307.83 68.826 308.628 68.882 308.964C69.12 308.67 69.344 308.348 69.554 307.998L69.554 312.772L70.688 312.772L70.688 311.68L73.222 311.68L73.222 305.45L70.702 305.45C71.052 304.456 71.318 303.392 71.528 302.314L73.572 302.314L73.572 301.11L68.658 301.11ZM70.688 306.612L72.06 306.612L72.06 310.504L70.688 310.504L70.688 306.612Z"></path></g><g opacity="0.9"><rect  x="40" y="320" width="190" height="48" rx="12"    fill="#FFFFFF" ></rect></g><g ><path     fill="#B0C4DE"  d="M61.605 341.82C62.385 342.525 63.375 343.515 63.84 344.145L64.605 343.35C64.14 342.735 63.12 341.805 62.325 341.13L61.605 341.82ZM60.63 345.51L60.63 346.59L62.88 346.59L62.88 352.08C62.88 352.74 62.43 353.19 62.16 353.37C62.355 353.595 62.655 354.06 62.76 354.33C62.97 354.015 63.36 353.7 65.895 351.75C65.775 351.525 65.595 351.09 65.52 350.79L63.96 351.96L63.96 345.51L60.63 345.51ZM67.41 350.22L72.12 350.22L72.12 351.45L67.41 351.45L67.41 350.22ZM67.41 349.425L67.41 348.27L72.12 348.27L72.12 349.425L67.41 349.425ZM69.21 340.8L69.21 341.97L65.73 341.97L65.73 342.84L69.21 342.84L69.21 343.8L66.105 343.8L66.105 344.625L69.21 344.625L69.21 345.66L65.28 345.66L65.28 346.53L74.4 346.53L74.4 345.66L70.32 345.66L70.32 344.625L73.485 344.625L73.485 343.8L70.32 343.8L70.32 342.84L73.935 342.84L73.935 341.97L70.32 341.97L70.32 340.8L69.21 340.8ZM66.36 347.4L66.36 354.585L67.41 354.585L67.41 352.275L72.12 352.275L72.12 353.325C72.12 353.505 72.045 353.565 71.85 353.58C71.64 353.595 70.92 353.595 70.155 353.565C70.305 353.835 70.44 354.255 70.485 354.54C71.55 354.54 72.24 354.54 72.645 354.36C73.08 354.195 73.2 353.895 73.2 353.34L73.2 347.4L66.36 347.4ZM86.01 346.695L86.01 352.125L86.895 352.125L86.895 346.695L86.01 346.695ZM87.915 346.14L87.915 353.325C87.915 353.49 87.855 353.535 87.69 353.55C87.495 353.55 86.895 353.55 86.205 353.535C86.355 353.805 86.475 354.21 86.505 354.465C87.39 354.465 87.99 354.45 88.35 354.3C88.725 354.135 88.83 353.865 88.83 353.325L88.83 346.14L87.915 346.14ZM76.065 348.45C76.185 348.33 76.62 348.24 77.1 348.24L78.285 348.24L78.285 350.31C77.28 350.55 76.35 350.76 75.63 350.895L75.885 351.96L78.285 351.345L78.285 354.585L79.275 354.585L79.275 351.09L80.52 350.76L80.43 349.815L79.275 350.085L79.275 348.24L80.475 348.24L80.475 347.205L79.275 347.205L79.275 344.925L78.285 344.925L78.285 347.205L76.98 347.205C77.37 346.155 77.745 344.91 78.045 343.62L80.505 343.62L80.505 342.6L78.255 342.6C78.375 342.06 78.465 341.52 78.54 340.995L77.49 340.815C77.43 341.4 77.355 342.015 77.25 342.6L75.705 342.6L75.705 343.62L77.055 343.62C76.785 344.865 76.5 345.885 76.365 346.275C76.155 346.95 75.975 347.43 75.72 347.505C75.84 347.76 76.005 348.24 76.065 348.45ZM84.885 340.755C83.895 342.33 82.035 343.815 80.22 344.655C80.49 344.88 80.79 345.225 80.955 345.495C81.36 345.285 81.765 345.045 82.155 344.79L82.155 345.42L87.705 345.42L87.705 344.685C88.08 344.91 88.485 345.135 88.89 345.345C89.025 345.045 89.34 344.685 89.61 344.46C88.035 343.785 86.61 342.93 85.47 341.655L85.8 341.16L84.885 340.755ZM82.59 344.49C83.43 343.875 84.225 343.155 84.885 342.39C85.65 343.23 86.475 343.905 87.39 344.49L82.59 344.49ZM84.21 347.31L84.21 348.495L82.155 348.495L82.155 347.31L84.21 347.31ZM81.225 346.41L81.225 354.54L82.155 354.54L82.155 351.45L84.21 351.45L84.21 353.415C84.21 353.55 84.18 353.58 84.06 353.595C83.91 353.595 83.52 353.595 83.055 353.58C83.19 353.85 83.31 354.255 83.34 354.51C83.985 354.51 84.45 354.51 84.765 354.345C85.08 354.18 85.155 353.895 85.155 353.415L85.155 346.41L81.225 346.41ZM82.155 349.365L84.21 349.365L84.21 350.595L82.155 350.595L82.155 349.365ZM94.425 342.075C95.415 342.765 96.18 343.605 96.84 344.535C95.865 348.81 93.99 351.855 90.615 353.595C90.915 353.805 91.44 354.27 91.65 354.495C94.695 352.725 96.615 349.965 97.755 346.035C99.405 349.065 100.47 352.53 103.905 354.45C103.965 354.09 104.265 353.49 104.46 353.175C99.465 350.19 99.915 344.55 95.115 341.115L94.425 342.075ZM105.465 351.18L105.705 352.125C106.83 351.81 108.21 351.435 109.56 351.045L109.455 350.175C107.97 350.565 106.515 350.955 105.465 351.18ZM112.995 345.45L112.995 346.425L117.465 346.425L117.465 345.45L112.995 345.45ZM112.005 347.97C112.44 349.11 112.845 350.61 112.965 351.585L113.895 351.33C113.76 350.355 113.325 348.885 112.89 347.76L112.005 347.97ZM114.66 347.595C114.915 348.72 115.185 350.22 115.26 351.195L116.19 351.045C116.1 350.07 115.83 348.6 115.53 347.46L114.66 347.595ZM106.605 343.56C106.5 345.18 106.32 347.415 106.125 348.735L110.16 348.735C109.965 351.825 109.725 353.04 109.41 353.37C109.29 353.52 109.125 353.55 108.885 353.55C108.6 353.55 107.91 353.535 107.175 353.46C107.34 353.73 107.46 354.12 107.475 354.405C108.195 354.45 108.9 354.465 109.275 354.435C109.725 354.39 109.995 354.3 110.25 353.985C110.73 353.505 110.94 352.095 111.18 348.27C111.195 348.135 111.21 347.805 111.21 347.805L110.205 347.82L110.025 347.82C110.205 346.2 110.43 343.5 110.58 341.475L105.96 341.475L105.96 342.45L109.545 342.45C109.425 344.25 109.23 346.38 109.05 347.82L107.205 347.82C107.34 346.56 107.475 344.925 107.565 343.62L106.605 343.56ZM115.005 340.695C114.075 342.795 112.425 344.64 110.625 345.78C110.835 346.005 111.165 346.455 111.3 346.68C112.71 345.69 114.075 344.28 115.11 342.63C116.16 344.085 117.675 345.645 119.04 346.635C119.16 346.335 119.415 345.855 119.61 345.6C118.215 344.7 116.595 343.11 115.65 341.685L115.98 341.01L115.005 340.695ZM111.525 352.875L111.525 353.865L119.175 353.865L119.175 352.875L116.88 352.875C117.615 351.495 118.455 349.515 119.07 347.925L118.05 347.67C117.555 349.245 116.64 351.48 115.905 352.875L111.525 352.875ZM121.53 341.865C122.34 342.57 123.36 343.545 123.855 344.175L124.635 343.395C124.14 342.78 123.09 341.835 122.265 341.19L121.53 341.865ZM125.28 352.95L125.28 354L134.43 354L134.43 352.95L130.86 352.95L130.86 348L133.83 348L133.83 346.935L130.86 346.935L130.86 343.005L134.1 343.005L134.1 341.955L125.79 341.955L125.79 343.005L129.705 343.005L129.705 352.95L127.68 352.95L127.68 345.72L126.57 345.72L126.57 352.95L125.28 352.95ZM120.75 345.51L120.75 346.59L122.865 346.59L122.865 351.795C122.865 352.59 122.31 353.175 122.025 353.415C122.22 353.58 122.58 353.955 122.715 354.18C122.94 353.88 123.345 353.55 125.91 351.54C125.775 351.315 125.565 350.865 125.46 350.58L123.96 351.72L123.96 345.51L120.75 345.51ZM141.15 350.325L141.15 351.345L146.88 351.345L146.88 350.325L141.15 350.325ZM142.365 343.65C142.26 345.135 142.065 347.145 141.87 348.345L142.17 348.345L147.945 348.36C147.66 351.645 147.33 352.98 146.94 353.37C146.79 353.52 146.64 353.55 146.37 353.535C146.1 353.535 145.425 353.535 144.705 353.46C144.885 353.745 144.99 354.18 145.02 354.495C145.74 354.54 146.43 354.54 146.82 354.51C147.27 354.48 147.555 354.375 147.84 354.045C148.38 353.505 148.725 351.93 149.07 347.88C149.085 347.715 149.1 347.385 149.1 347.385L147.24 347.385C147.48 345.525 147.72 343.275 147.84 341.715L147.045 341.625L146.865 341.685L141.645 341.685L141.645 342.72L146.67 342.72C146.55 344.04 146.355 345.87 146.175 347.385L143.055 347.385C143.19 346.275 143.34 344.865 143.415 343.725L142.365 343.65ZM135.765 341.595L135.765 342.63L137.595 342.63C137.175 344.925 136.5 347.055 135.435 348.48C135.615 348.78 135.87 349.41 135.945 349.695C136.23 349.32 136.5 348.915 136.74 348.465L136.74 353.91L137.715 353.91L137.715 352.71L140.475 352.71L140.475 346.215L137.73 346.215C138.12 345.09 138.435 343.875 138.675 342.63L140.91 342.63L140.91 341.595L135.765 341.595ZM137.715 347.235L139.485 347.235L139.485 351.705L137.715 351.705L137.715 347.235Z"></path></g><g opacity="0.85"><rect  x="245" y="320" width="105" height="48" rx="12"    fill="#5B9BD5" ></rect></g><g ><path     fill="#FFFFFF"  d="M273.769 345.891C274.38 346.359 275.082 347.048 275.407 347.529L276.278 346.879C275.953 346.385 275.225 345.735 274.601 345.306L273.769 345.891ZM272.339 345.332L272.339 347.282L272.339 347.568L269.453 347.568L269.453 348.712L272.235 348.712C272.001 350.259 271.26 352.001 269.037 353.405C269.349 353.613 269.739 353.951 269.947 354.198C271.715 353.08 272.612 351.702 273.067 350.337C273.704 352.053 274.692 353.379 276.161 354.146C276.33 353.821 276.681 353.366 276.954 353.145C275.225 352.391 274.146 350.753 273.6 348.712L276.746 348.712L276.746 347.568L273.483 347.568L273.483 347.295L273.483 345.332L272.339 345.332ZM272.625 342.108L272.625 343.083L269.453 343.083L269.453 342.108L268.231 342.108L268.231 343.083L265.267 343.083L265.267 344.188L268.231 344.188L268.231 345.176L269.453 345.176L269.453 344.188L272.625 344.188L272.625 345.072L273.847 345.072L273.847 344.188L276.772 344.188L276.772 343.083L273.847 343.083L273.847 342.108L272.625 342.108ZM268.595 345.345C268.361 345.618 268.062 345.891 267.724 346.164C267.386 345.813 266.957 345.462 266.437 345.137L265.631 345.787C266.138 346.112 266.541 346.45 266.866 346.801C266.268 347.204 265.618 347.555 264.968 347.828C265.202 348.036 265.527 348.4 265.696 348.647C266.294 348.374 266.892 348.036 267.464 347.659C267.646 347.984 267.763 348.309 267.854 348.647C267.217 349.531 265.982 350.48 264.942 350.922C265.202 351.143 265.514 351.546 265.67 351.819C266.45 351.39 267.334 350.675 268.036 349.96L268.036 350.311C268.036 351.572 267.932 352.443 267.633 352.807C267.529 352.937 267.425 353.002 267.23 353.015C266.957 353.054 266.463 353.054 265.852 353.015C266.073 353.327 266.203 353.743 266.216 354.094C266.788 354.12 267.282 354.107 267.737 354.016C268.036 353.977 268.283 353.834 268.452 353.626C269.011 353.002 269.18 351.845 269.18 350.376C269.18 349.206 269.05 348.062 268.4 347.009C268.842 346.658 269.258 346.281 269.596 345.891L268.595 345.345ZM288.394 344.682C288.108 346.424 287.64 347.971 287.016 349.284C286.431 347.932 286.028 346.372 285.755 344.682L288.394 344.682ZM284.104 343.525L284.104 344.682L284.65 344.682C285.027 346.918 285.547 348.894 286.34 350.532C285.599 351.715 284.715 352.651 283.714 353.262C283.987 353.47 284.325 353.886 284.507 354.185C285.443 353.548 286.275 352.729 286.99 351.702C287.614 352.664 288.368 353.47 289.291 354.081C289.486 353.769 289.863 353.34 290.136 353.119C289.135 352.521 288.329 351.663 287.692 350.597C288.667 348.803 289.356 346.515 289.681 343.681L288.914 343.486L288.706 343.525L284.104 343.525ZM277.968 351.286L278.228 352.469L281.959 351.819L281.959 354.146L283.168 354.146L283.168 351.598L284.299 351.39L284.234 350.363L283.168 350.532L283.168 343.785L284.039 343.785L284.039 342.68L278.111 342.68L278.111 343.785L278.917 343.785L278.917 351.156L277.968 351.286ZM280.087 343.785L281.959 343.785L281.959 345.384L280.087 345.384L280.087 343.785ZM280.087 346.45L281.959 346.45L281.959 348.127L280.087 348.127L280.087 346.45ZM280.087 349.18L281.959 349.18L281.959 350.714L280.087 350.987L280.087 349.18ZM290.838 351.039L291.072 352.04C292.034 351.793 293.217 351.481 294.361 351.182L294.257 350.246C292.996 350.558 291.735 350.87 290.838 351.039ZM296.532 348.439C296.87 349.427 297.208 350.714 297.312 351.559L298.313 351.286C298.183 350.454 297.845 349.18 297.481 348.205L296.532 348.439ZM298.82 348.101C299.028 349.076 299.262 350.363 299.327 351.208L300.315 351.052C300.25 350.207 300.016 348.959 299.769 347.971L298.82 348.101ZM291.761 344.617C291.696 346.047 291.54 347.984 291.384 349.141L294.829 349.141C294.673 351.65 294.491 352.651 294.244 352.924C294.114 353.067 293.997 353.08 293.776 353.08C293.542 353.08 292.957 353.067 292.346 353.015C292.528 353.301 292.645 353.717 292.671 354.016C293.295 354.055 293.906 354.055 294.244 354.029C294.634 353.99 294.907 353.886 295.154 353.6C295.544 353.158 295.726 351.91 295.921 348.634C295.934 348.491 295.934 348.166 295.934 348.166L294.92 348.166C295.089 346.723 295.258 344.409 295.362 342.641L291.228 342.641L291.228 343.694L294.27 343.694C294.179 345.228 294.023 346.957 293.88 348.166L292.528 348.166C292.645 347.1 292.749 345.761 292.814 344.669L291.761 344.617ZM297.403 346.112L297.403 347.165L301.355 347.165L301.355 346.19C301.784 346.58 302.226 346.918 302.642 347.217C302.759 346.879 303.006 346.32 303.214 346.034C302.044 345.332 300.692 344.084 299.847 342.966L300.159 342.355L299.08 341.991C298.287 343.733 296.844 345.293 295.297 346.255C295.505 346.489 295.869 347.009 296.012 347.243C297.182 346.424 298.326 345.267 299.236 343.941C299.821 344.682 300.536 345.449 301.264 346.112L297.403 346.112ZM296.168 352.508L296.168 353.561L302.85 353.561L302.85 352.508L301.056 352.508C301.654 351.338 302.304 349.713 302.811 348.361L301.706 348.101C301.316 349.44 300.614 351.312 300.016 352.508L296.168 352.508ZM304.709 343.135C305.411 343.746 306.321 344.604 306.737 345.176L307.582 344.318C307.153 343.772 306.217 342.953 305.515 342.381L304.709 343.135ZM308.102 352.521L308.102 353.665L316.045 353.665L316.045 352.521L313.159 352.521L313.159 348.517L315.538 348.517L315.538 347.373L313.159 347.373L313.159 344.175L315.785 344.175L315.785 343.018L308.492 343.018L308.492 344.175L311.898 344.175L311.898 352.521L310.364 352.521L310.364 346.411L309.142 346.411L309.142 352.521L308.102 352.521ZM304.085 346.151L304.085 347.334L305.788 347.334L305.788 351.507C305.788 352.248 305.307 352.807 305.021 353.054C305.242 353.223 305.632 353.626 305.775 353.873C305.983 353.574 306.373 353.262 308.661 351.377C308.518 351.143 308.284 350.636 308.18 350.311L306.984 351.26L306.984 346.151L304.085 346.151ZM321.882 350.35L321.882 351.442L326.705 351.442L326.705 350.35L321.882 350.35ZM322.857 344.617C322.766 345.956 322.584 347.737 322.415 348.829L327.524 348.829C327.303 351.481 327.03 352.573 326.705 352.885C326.588 353.028 326.445 353.054 326.237 353.041C325.99 353.041 325.444 353.041 324.859 352.976C325.041 353.288 325.171 353.769 325.184 354.094C325.821 354.133 326.406 354.12 326.744 354.094C327.16 354.055 327.433 353.951 327.706 353.639C328.161 353.158 328.46 351.767 328.733 348.296C328.759 348.127 328.772 347.776 328.772 347.776L327.238 347.776C327.446 346.151 327.641 344.266 327.745 342.862L326.874 342.771L326.679 342.823L322.233 342.823L322.233 343.941L326.484 343.941C326.38 345.059 326.224 346.515 326.068 347.776L323.702 347.776C323.832 346.814 323.936 345.657 324.014 344.695L322.857 344.617ZM317.111 342.745L317.111 343.863L318.619 343.863C318.281 345.735 317.696 347.477 316.825 348.647C317.007 348.985 317.267 349.726 317.319 350.038C317.54 349.765 317.748 349.466 317.943 349.141L317.943 353.574L318.996 353.574L318.996 352.56L321.349 352.56L321.349 346.775L319.009 346.775C319.334 345.852 319.581 344.864 319.776 343.863L321.674 343.863L321.674 342.745L317.111 342.745ZM318.996 347.854L320.27 347.854L320.27 351.468L318.996 351.468L318.996 347.854Z"></path></g><rect  x="40" y="410" width="310" height="50" rx="25"    fill="url(#linear_fill_b9Rr4Y8fxryH2HXjDg_3h_0)" ></rect><g ><path     fill="#FFFFFF"  d="M171.88 431.304L171.88 432.504L178.056 432.504L178.056 444.824L179.32 444.824L179.32 436.344C181.16 437.336 183.304 438.664 184.424 439.56L185.272 438.472C183.992 437.496 181.448 436.056 179.544 435.128L179.32 435.384L179.32 432.504L186.136 432.504L186.136 431.304L171.88 431.304ZM187.704 436.664L187.704 437.976L202.36 437.976L202.36 436.664L187.704 436.664ZM207.656 436.84C206.904 438.152 205.624 439.448 204.424 440.296C204.696 440.504 205.128 440.968 205.32 441.208C206.552 440.216 207.928 438.712 208.808 437.224L207.656 436.84ZM206.36 431.368L206.36 435L203.96 435L203.96 436.152L210.44 436.152L210.44 441.224L211.592 441.224C209.576 442.424 206.984 443.176 203.816 443.608C204.072 443.928 204.328 444.408 204.44 444.76C210.568 443.816 214.648 441.672 216.744 437.512L215.608 436.984C214.728 438.744 213.432 440.12 211.704 441.16L211.704 436.152L217.992 436.152L217.992 435L211.816 435L211.816 432.952L216.536 432.952L216.536 431.832L211.816 431.832L211.816 430.12L210.552 430.12L210.552 435L207.576 435L207.576 431.368L206.36 431.368Z"></path></g></g><defs><clipPath id="clip-path-nEycd0qyXTvKUcGmzhc-1"><path d="M0 844L390 844L390 0L0 0L0 844Z" fill="white"/></clipPath><linearGradient id="linear_fill_b9Rr4Y8fxryH2HXjDg_3h_0" x1="40" y1="410" x2="350" y2="410" gradientUnits="userSpaceOnUse"><stop offset="0" stop-color="#5B9BD5"  /><stop offset="1" stop-color="#4A86C8"  /></linearGradient></defs></svg>