<svg xmlns="http://www.w3.org/2000/svg" xmlns:xlink="http://www.w3.org/1999/xlink" width="390" height="844" viewBox="0 0 390 844" fill="none"><g  clip-path="url(#clip-path-tbkgZs5Fy4qkNO9Zig-PK)"><rect x="0" y="0" width="390" height="54"   fill="#E8F4FD" ></rect><g ><path     fill="#333333"  d="M33.66 38.61C35.775 38.61 37.755 36.84 37.755 32.505C37.755 28.845 36.045 27.15 33.93 27.15C32.145 27.15 30.63 28.59 30.63 30.78C30.63 33.09 31.89 34.26 33.735 34.26C34.575 34.26 35.505 33.765 36.135 32.985C36.045 36.105 34.92 37.17 33.57 37.17C32.88 37.17 32.205 36.855 31.77 36.345L30.825 37.425C31.47 38.085 32.37 38.61 33.66 38.61ZM36.12 31.65C35.49 32.61 34.71 33 34.035 33C32.88 33 32.25 32.175 32.25 30.78C32.25 29.34 33 28.485 33.96 28.485C35.145 28.485 35.955 29.475 36.12 31.65ZM40.785 32.7C41.445 32.7 41.955 32.205 41.955 31.5C41.955 30.78 41.445 30.27 40.785 30.27C40.14 30.27 39.63 30.78 39.63 31.5C39.63 32.205 40.14 32.7 40.785 32.7ZM40.785 38.61C41.445 38.61 41.955 38.085 41.955 37.38C41.955 36.675 41.445 36.165 40.785 36.165C40.14 36.165 39.63 36.675 39.63 37.38C39.63 38.085 40.14 38.61 40.785 38.61ZM48.105 38.4L49.725 38.4L49.725 35.43L51.12 35.43L51.12 34.08L49.725 34.08L49.725 27.345L47.715 27.345L43.32 34.275L43.32 35.43L48.105 35.43L48.105 38.4ZM48.105 34.08L45.075 34.08L47.235 30.765C47.55 30.195 47.85 29.625 48.12 29.055L48.18 29.055C48.15 29.67 48.105 30.6 48.105 31.2L48.105 34.08ZM52.845 38.4L59.16 38.4L59.16 36.975L57.015 36.975L57.015 27.345L55.71 27.345C55.065 27.75 54.33 28.02 53.295 28.2L53.295 29.295L55.275 29.295L55.275 36.975L52.845 36.975L52.845 38.4Z"></path></g><g ><path     fill="#333333"  d="M341.5 40.2L353.5 40.2L353.5 25.2L341.5 25.2L341.5 40.2ZM347.5 32.085L342.73 25.95L352.27 25.95L347.5 32.085ZM347.98 32.7L352.75 26.565L352.75 38.835L347.98 32.7ZM342.73 39.45L347.5 33.315L352.27 39.45L342.73 39.45ZM342.25 26.565L347.02 32.7L342.25 38.835L342.25 26.565ZM356.5 40.2L368.5 40.2L368.5 25.2L356.5 25.2L356.5 40.2ZM362.5 32.085L357.73 25.95L367.27 25.95L362.5 32.085ZM362.98 32.7L367.75 26.565L367.75 38.835L362.98 32.7ZM357.73 39.45L362.5 33.315L367.27 39.45L357.73 39.45ZM357.25 26.565L362.02 32.7L357.25 38.835L357.25 26.565ZM371.5 40.2L383.5 40.2L383.5 25.2L371.5 25.2L371.5 40.2ZM377.5 32.085L372.73 25.95L382.27 25.95L377.5 32.085ZM377.98 32.7L382.75 26.565L382.75 38.835L377.98 32.7ZM372.73 39.45L377.5 33.315L382.27 39.45L372.73 39.45ZM372.25 26.565L377.02 32.7L372.25 38.835L372.25 26.565Z"></path></g><rect x="0" y="54" width="390" height="60"   fill="#E8F4FD" ></rect><g ></g><g ><path     fill="#2C5F8A"  d="M160.458 90.904C160.602 90.76 161.16 90.652 161.772 90.652L163.374 90.652L163.374 93.262L159.72 93.874L160.008 95.188L163.374 94.54L163.374 98.248L164.67 98.248L164.67 94.288L167.1 93.802L167.046 92.632L164.67 93.046L164.67 90.652L166.524 90.652L166.524 89.428L164.67 89.428L164.67 86.674L163.374 86.674L163.374 89.428L161.61 89.428C162.186 88.168 162.744 86.674 163.212 85.126L166.506 85.126L166.506 83.866L163.59 83.866C163.752 83.254 163.896 82.642 164.04 82.03L162.708 81.76C162.6 82.462 162.456 83.164 162.294 83.866L159.828 83.866L159.828 85.126L161.97 85.126C161.556 86.602 161.124 87.826 160.926 88.276C160.602 89.05 160.35 89.644 160.044 89.716C160.206 90.04 160.386 90.652 160.458 90.904ZM166.668 87.25L166.668 88.528L169.314 88.528C168.936 89.788 168.558 90.958 168.234 91.876L173.418 91.876C172.788 92.776 172.014 93.856 171.276 94.81C170.646 94.396 170.016 94 169.422 93.658L168.558 94.522C170.394 95.62 172.536 97.276 173.58 98.338L174.48 97.294C173.94 96.772 173.166 96.16 172.284 95.512C173.436 94.036 174.678 92.326 175.578 90.994L174.624 90.526L174.408 90.616L170.088 90.616L170.7 88.528L176.262 88.528L176.262 87.25L171.078 87.25L171.654 85.126L175.614 85.126L175.614 83.866L171.996 83.866L172.5 81.94L171.15 81.76L170.628 83.866L167.37 83.866L167.37 85.126L170.286 85.126L169.692 87.25L166.668 87.25ZM178.404 82.732L178.404 86.26L179.754 86.26L179.754 83.992L192.21 83.992L192.21 86.26L193.596 86.26L193.596 82.732L178.404 82.732ZM178.638 93.082L178.638 94.324L188.844 94.324L188.844 93.082L178.638 93.082ZM182.4 84.352C182.004 86.476 181.356 89.41 180.87 91.138L190.41 91.138C190.068 94.684 189.672 96.232 189.15 96.682C188.952 96.862 188.736 96.88 188.322 96.88C187.854 96.88 186.648 96.862 185.388 96.754C185.64 97.114 185.802 97.654 185.838 98.032C187.008 98.104 188.178 98.122 188.772 98.086C189.456 98.05 189.87 97.924 190.284 97.51C190.986 96.826 191.382 95.026 191.814 90.544C191.85 90.346 191.868 89.914 191.868 89.914L182.58 89.914L183.102 87.628L191.382 87.628L191.382 86.44L183.354 86.44L183.75 84.496L182.4 84.352ZM196.458 82.876C197.448 83.776 198.654 85.09 199.212 85.918L200.256 85.054C199.662 84.262 198.42 83.02 197.43 82.138L196.458 82.876ZM207.96 82.138L207.96 85.036L204.99 85.036L204.99 82.138L203.658 82.138L203.658 85.036L201.102 85.036L201.102 86.332L203.658 86.332L203.658 88.438L203.622 89.554L200.994 89.554L200.994 90.85L203.478 90.85C203.208 92.218 202.614 93.55 201.264 94.576C201.552 94.774 202.056 95.278 202.236 95.548C203.838 94.324 204.54 92.578 204.81 90.85L207.96 90.85L207.96 95.44L209.31 95.44L209.31 90.85L211.992 90.85L211.992 89.554L209.31 89.554L209.31 86.332L211.632 86.332L211.632 85.036L209.31 85.036L209.31 82.138L207.96 82.138ZM204.99 86.332L207.96 86.332L207.96 89.554L204.954 89.554L204.99 88.456L204.99 86.332ZM199.716 88.276L195.9 88.276L195.9 89.536L198.384 89.536L198.384 94.702C197.574 95.008 196.638 95.8 195.684 96.844L196.584 98.068C197.52 96.844 198.402 95.782 199.014 95.782C199.41 95.782 199.986 96.376 200.742 96.844C201.984 97.636 203.496 97.834 205.728 97.834C207.438 97.834 210.678 97.726 211.956 97.654C211.974 97.258 212.19 96.61 212.352 96.25C210.606 96.448 207.888 96.592 205.764 96.592C203.73 96.592 202.218 96.466 201.03 95.728C200.436 95.35 200.058 95.008 199.716 94.81L199.716 88.276ZM219.948 85.288L219.948 86.854L217.05 86.854L217.05 87.97L219.948 87.97L219.948 90.958L226.95 90.958L226.95 87.97L229.866 87.97L229.866 86.854L226.95 86.854L226.95 85.288L225.618 85.288L225.618 86.854L221.244 86.854L221.244 85.288L219.948 85.288ZM225.618 87.97L225.618 89.878L221.244 89.878L221.244 87.97L225.618 87.97ZM226.626 93.226C225.834 94.162 224.718 94.9 223.422 95.476C222.144 94.882 221.1 94.126 220.344 93.226L226.626 93.226ZM217.302 92.11L217.302 93.226L219.642 93.226L219.03 93.478C219.768 94.486 220.758 95.332 221.946 96.034C220.254 96.574 218.364 96.898 216.456 97.06C216.654 97.366 216.906 97.888 216.996 98.212C219.246 97.96 221.442 97.51 223.368 96.754C225.15 97.546 227.256 98.05 229.524 98.32C229.686 97.978 230.028 97.438 230.316 97.15C228.336 96.97 226.482 96.61 224.88 96.052C226.464 95.206 227.778 94.054 228.606 92.506L227.76 92.056L227.526 92.11L217.302 92.11ZM221.514 81.994C221.766 82.462 222.036 83.038 222.234 83.542L215.268 83.542L215.268 88.456C215.268 91.138 215.142 94.99 213.666 97.708C214.008 97.816 214.602 98.104 214.872 98.32C216.384 95.476 216.618 91.318 216.618 88.438L216.618 84.82L230.064 84.82L230.064 83.542L223.764 83.542C223.548 82.966 223.188 82.246 222.864 81.67L221.514 81.994Z"></path></g><g opacity="0.95"><rect  x="40" y="130" width="310" height="80" rx="14"    fill="#FFFFFF" ></rect></g><g ><path     fill="#2C5F8A"  d="M65.565 159.44C63.585 159.44 62.295 157.67 62.295 154.865C62.295 152.12 63.585 150.425 65.565 150.425C67.545 150.425 68.835 152.12 68.835 154.865C68.835 157.67 67.545 159.44 65.565 159.44ZM68.925 163.16C69.585 163.16 70.17 163.055 70.5 162.905L70.23 161.84C69.945 161.93 69.57 162.005 69.075 162.005C67.89 162.005 66.87 161.51 66.375 160.535C68.7 160.13 70.26 158.03 70.26 154.865C70.26 151.34 68.325 149.21 65.565 149.21C62.805 149.21 60.87 151.34 60.87 154.865C60.87 158.09 62.49 160.22 64.89 160.55C65.505 162.05 66.9 163.16 68.925 163.16ZM72.45 160.4L78.48 160.4L78.48 159.26L76.275 159.26L76.275 149.405L75.225 149.405C74.625 149.75 73.92 150.005 72.945 150.185L72.945 151.055L74.91 151.055L74.91 159.26L72.45 159.26L72.45 160.4ZM89.505 152.975L89.505 155.975C89.505 157.52 89.16 159.545 85.605 160.715C85.86 160.925 86.16 161.3 86.295 161.525C90.105 160.13 90.57 157.88 90.57 155.99L90.57 152.975L89.505 152.975ZM90.33 159.08C91.275 159.83 92.49 160.91 93.075 161.585L93.855 160.79C93.255 160.145 92.01 159.11 91.08 158.39L90.33 159.08ZM80.775 151.28C81.69 151.895 82.86 152.72 83.685 153.35L80.025 153.35L80.025 154.355L82.5 154.355L82.5 160.25C82.5 160.445 82.44 160.49 82.215 160.505C82.005 160.505 81.315 160.505 80.535 160.49C80.7 160.805 80.85 161.255 80.895 161.57C81.93 161.57 82.605 161.555 83.025 161.375C83.46 161.195 83.58 160.88 83.58 160.28L83.58 154.355L85.185 154.355C84.915 155.165 84.615 155.99 84.345 156.56L85.2 156.785C85.605 155.975 86.07 154.655 86.46 153.5L85.755 153.305L85.59 153.35L84.57 153.35L84.87 152.96C84.525 152.69 84.045 152.33 83.505 151.97C84.39 151.175 85.365 150.02 86.01 148.94L85.32 148.46L85.125 148.52L80.34 148.52L80.34 149.525L84.375 149.525C83.91 150.2 83.295 150.935 82.725 151.43L81.39 150.56L80.775 151.28ZM86.955 150.98L86.955 158.12L88.005 158.12L88.005 152.015L92.145 152.015L92.145 158.09L93.24 158.09L93.24 150.98L90.315 150.98L90.84 149.48L93.84 149.48L93.84 148.46L86.415 148.46L86.415 149.48L89.61 149.48C89.505 149.975 89.37 150.515 89.235 150.98L86.955 150.98ZM98.235 153.545L105.915 153.545L105.915 154.43L98.235 154.43L98.235 153.545ZM98.235 155.15L105.915 155.15L105.915 156.05L98.235 156.05L98.235 155.15ZM98.235 151.97L105.915 151.97L105.915 152.825L98.235 152.825L98.235 151.97ZM103.095 147.725C102.675 148.88 101.91 149.975 100.995 150.695C101.25 150.8 101.685 151.04 101.91 151.205L98.895 151.205L99.75 150.89C99.645 150.605 99.42 150.2 99.18 149.84L101.76 149.84L101.76 148.91L97.8 148.91C97.965 148.61 98.115 148.31 98.25 148.01L97.2 147.725C96.72 148.895 95.895 150.065 94.98 150.83C95.235 150.98 95.685 151.28 95.895 151.46C96.36 151.025 96.825 150.455 97.23 149.84L98.01 149.84C98.31 150.29 98.61 150.845 98.76 151.205L97.11 151.205L97.11 156.815L99.12 156.815L99.12 157.79L99.105 158.12L95.295 158.12L95.295 159.05L98.745 159.05C98.325 159.68 97.425 160.31 95.535 160.775C95.775 160.985 96.09 161.375 96.24 161.615C98.64 160.925 99.645 159.98 100.035 159.05L104.085 159.05L104.085 161.57L105.24 161.57L105.24 159.05L108.675 159.05L108.675 158.12L105.24 158.12L105.24 156.815L107.085 156.815L107.085 151.205L105.585 151.205L106.395 150.83C106.245 150.545 105.975 150.185 105.675 149.84L108.555 149.84L108.555 148.91L103.755 148.91C103.92 148.61 104.055 148.295 104.175 147.98L103.095 147.725ZM104.085 158.12L100.245 158.12L100.26 157.82L100.26 156.815L104.085 156.815L104.085 158.12ZM102.03 151.205C102.435 150.83 102.84 150.365 103.2 149.84L104.4 149.84C104.805 150.275 105.225 150.815 105.42 151.205L102.03 151.205ZM111.81 161.27C112.38 161.06 113.22 161 121.17 160.325C121.515 160.775 121.815 161.21 122.025 161.585L123.03 160.97C122.37 159.845 120.945 158.225 119.595 157.025L118.65 157.535C119.235 158.075 119.835 158.705 120.375 159.335L113.55 159.86C114.615 158.87 115.68 157.67 116.61 156.44L123.225 156.44L123.225 155.345L110.79 155.345L110.79 156.44L115.08 156.44C114.105 157.775 112.965 158.96 112.56 159.32C112.095 159.755 111.75 160.04 111.42 160.115C111.555 160.415 111.75 161.015 111.81 161.27ZM117.015 147.8C115.665 149.81 113.025 151.715 110.085 152.96C110.355 153.17 110.745 153.65 110.91 153.935C111.78 153.53 112.62 153.08 113.415 152.585L113.415 153.5L120.57 153.5L120.57 152.45L113.61 152.45C114.9 151.61 116.055 150.665 117 149.63C117.9 150.56 119.16 151.58 120.57 152.45C121.38 152.96 122.25 153.41 123.105 153.755C123.285 153.455 123.66 152.99 123.9 152.765C121.47 151.925 119.025 150.29 117.645 148.865L118.095 148.265L117.015 147.8ZM132.585 148.505C133.185 149.51 133.815 150.845 134.055 151.67L135.075 151.205C134.835 150.38 134.16 149.09 133.53 148.1L132.585 148.505ZM126.15 148.835C126.825 149.54 127.635 150.53 128.025 151.16L128.88 150.455C128.49 149.84 127.65 148.91 126.96 148.22L126.15 148.835ZM136.935 148.73C136.44 151.85 135.66 154.655 134.055 156.905C132.54 154.805 131.625 152.09 131.085 148.91L130.02 149.09C130.665 152.645 131.64 155.6 133.29 157.85C132.24 159.035 130.875 160.025 129.12 160.775C129.33 161.015 129.645 161.435 129.795 161.705C131.535 160.925 132.915 159.905 134.01 158.72C135.135 159.98 136.545 160.955 138.285 161.645C138.465 161.345 138.825 160.895 139.095 160.67C137.325 160.04 135.915 159.065 134.775 157.805C136.59 155.375 137.49 152.33 138.09 148.91L136.935 148.73ZM125.145 152.495L125.145 153.59L127.26 153.59L127.26 158.885C127.26 159.665 126.855 160.175 126.615 160.415C126.81 160.58 127.14 160.97 127.26 161.21C127.5 160.91 127.89 160.61 130.53 158.735C130.41 158.51 130.245 158.075 130.155 157.775L128.355 159.02L128.355 152.495L125.145 152.495ZM141.465 155.645C142.44 156.185 143.625 157.04 144.195 157.61L144.99 156.83C144.39 156.26 143.175 155.465 142.23 154.955L141.465 155.645ZM141.465 148.64L141.465 149.675L150.555 149.675L150.495 151.055L141.915 151.055L141.915 152.09L150.435 152.09L150.345 153.47L140.46 153.47L140.46 154.475L146.37 154.475L146.37 157.22C144.195 158.12 141.93 159.035 140.475 159.59L141.075 160.595C142.545 159.965 144.51 159.125 146.37 158.3L146.37 160.37C146.37 160.58 146.295 160.64 146.055 160.655C145.815 160.67 144.975 160.67 144.09 160.64C144.24 160.925 144.42 161.345 144.48 161.63C145.65 161.63 146.415 161.63 146.88 161.465C147.36 161.3 147.51 161.03 147.51 160.385L147.51 156.86C148.8 158.81 150.675 160.265 153.015 161C153.165 160.7 153.51 160.265 153.75 160.025C152.13 159.59 150.72 158.795 149.58 157.745C150.54 157.16 151.665 156.32 152.565 155.555L151.605 154.85C150.93 155.525 149.82 156.41 148.89 157.04C148.335 156.41 147.87 155.69 147.51 154.925L147.51 154.475L153.555 154.475L153.555 153.47L151.515 153.47C151.65 151.925 151.755 150.08 151.785 148.64L150.9 148.58L150.705 148.64L141.465 148.64ZM160.98 147.905C161.205 148.28 161.415 148.745 161.565 149.165L156.135 149.165L156.135 150.185L167.91 150.185L167.91 149.165L162.825 149.165C162.675 148.7 162.405 148.115 162.09 147.68L160.98 147.905ZM158.175 150.515C158.565 151.16 158.91 152.045 159.045 152.69L155.28 152.69L155.28 153.71L168.645 153.71L168.645 152.69L164.85 152.69C165.225 152.06 165.6 151.235 165.945 150.515L164.73 150.215C164.475 150.935 164.025 151.985 163.65 152.69L159.69 152.69L160.23 152.555C160.095 151.925 159.72 150.98 159.24 150.275L158.175 150.515ZM158.46 158.45L165.555 158.45L165.555 160.085L158.46 160.085L158.46 158.45ZM158.46 157.55L158.46 155.99L165.555 155.99L165.555 157.55L158.46 157.55ZM157.35 155.03L157.35 161.615L158.46 161.615L158.46 161.045L165.555 161.045L165.555 161.585L166.725 161.585L166.725 155.03L157.35 155.03ZM171.54 160.595C172.08 160.595 172.53 160.175 172.53 159.56C172.53 158.93 172.08 158.51 171.54 158.51C170.985 158.51 170.55 158.93 170.55 159.56C170.55 160.175 170.985 160.595 171.54 160.595ZM175.005 160.4L176.385 160.4L176.385 154.49C177.12 153.65 177.81 153.245 178.425 153.245C179.46 153.245 179.94 153.89 179.94 155.42L179.94 160.4L181.305 160.4L181.305 154.49C182.07 153.65 182.73 153.245 183.36 153.245C184.395 153.245 184.875 153.89 184.875 155.42L184.875 160.4L186.24 160.4L186.24 155.24C186.24 153.17 185.445 152.045 183.78 152.045C182.775 152.045 181.935 152.69 181.08 153.605C180.75 152.645 180.09 152.045 178.83 152.045C177.855 152.045 177.015 152.66 176.295 153.44L176.265 153.44L176.13 152.255L175.005 152.255L175.005 160.4ZM188.895 163.835L190.275 163.835L190.275 161.075L190.23 159.65C190.965 160.265 191.745 160.595 192.48 160.595C194.34 160.595 196.02 158.99 196.02 156.2C196.02 153.68 194.88 152.045 192.78 152.045C191.835 152.045 190.92 152.585 190.185 153.2L190.155 153.2L190.02 152.255L188.895 152.255L188.895 163.835ZM192.255 159.44C191.715 159.44 190.995 159.23 190.275 158.6L190.275 154.31C191.055 153.59 191.76 153.2 192.435 153.2C193.995 153.2 194.595 154.4 194.595 156.215C194.595 158.225 193.605 159.44 192.255 159.44ZM200.76 160.595C202.725 160.595 204.3 159.425 204.3 157.46C204.3 155.945 203.265 154.985 201.975 154.67L201.975 154.595C203.145 154.19 203.925 153.29 203.925 151.955C203.925 150.215 202.575 149.21 200.715 149.21C199.455 149.21 198.48 149.765 197.655 150.515L198.39 151.385C199.02 150.755 199.785 150.32 200.67 150.32C201.825 150.32 202.53 151.01 202.53 152.06C202.53 153.245 201.765 154.16 199.485 154.16L199.485 155.21C202.035 155.21 202.905 156.08 202.905 157.415C202.905 158.675 201.99 159.455 200.67 159.455C199.425 159.455 198.6 158.855 197.955 158.195L197.25 159.08C197.97 159.875 199.05 160.595 200.76 160.595Z"></path></g><g ><path     fill="#7BA8C9"  d="M64.08 179.92L65.112 179.92L65.112 177.496L66.288 177.496L66.288 176.62L65.112 176.62L65.112 171.124L63.9 171.124L60.24 176.776L60.24 177.496L64.08 177.496L64.08 179.92ZM64.08 176.62L61.38 176.62L63.384 173.62C63.636 173.188 63.876 172.744 64.092 172.324L64.14 172.324C64.116 172.768 64.08 173.488 64.08 173.92L64.08 176.62ZM69.804 180.076C71.28 180.076 72.684 178.984 72.684 177.064C72.684 175.12 71.484 174.256 70.032 174.256C69.504 174.256 69.108 174.388 68.712 174.604L68.94 172.06L72.252 172.06L72.252 171.124L67.98 171.124L67.692 175.228L68.28 175.6C68.784 175.264 69.156 175.084 69.744 175.084C70.848 175.084 71.568 175.828 71.568 177.088C71.568 178.372 70.74 179.164 69.696 179.164C68.676 179.164 68.028 178.696 67.536 178.192L66.984 178.912C67.584 179.5 68.424 180.076 69.804 180.076ZM74.988 180.076C75.42 180.076 75.78 179.74 75.78 179.248C75.78 178.744 75.42 178.408 74.988 178.408C74.544 178.408 74.196 178.744 74.196 179.248C74.196 179.74 74.544 180.076 74.988 180.076ZM77.184 179.92L82.716 179.92L82.716 178.972L80.28 178.972C79.836 178.972 79.296 179.02 78.84 179.056C80.904 177.1 82.296 175.312 82.296 173.548C82.296 171.988 81.3 170.968 79.728 170.968C78.612 170.968 77.844 171.472 77.136 172.252L77.772 172.876C78.264 172.288 78.876 171.856 79.596 171.856C80.688 171.856 81.216 172.588 81.216 173.596C81.216 175.108 79.944 176.86 77.184 179.272L77.184 179.92ZM87.4987 179.92L88.4947 179.92L88.4947 175.048C88.4947 174.292 88.4227 173.224 88.3507 172.456L88.3987 172.456L89.1067 174.46L90.7747 179.032L91.5187 179.032L93.1747 174.46L93.8827 172.456L93.9307 172.456C93.8707 173.224 93.7867 174.292 93.7867 175.048L93.7867 179.92L94.8187 179.92L94.8187 171.124L93.4867 171.124L91.8067 175.828C91.6027 176.428 91.4227 177.052 91.1947 177.664L91.1467 177.664C90.9307 177.052 90.7387 176.428 90.5107 175.828L88.8307 171.124L87.4987 171.124L87.4987 179.92ZM97.2427 179.92L100.039 179.92C102.007 179.92 103.375 179.068 103.375 177.34C103.375 176.14 102.631 175.444 101.587 175.24L101.587 175.18C102.415 174.916 102.871 174.148 102.871 173.272C102.871 171.724 101.623 171.124 99.8467 171.124L97.2427 171.124L97.2427 179.92ZM98.3467 174.856L98.3467 172L99.7027 172C101.083 172 101.779 172.384 101.779 173.416C101.779 174.316 101.167 174.856 99.6547 174.856L98.3467 174.856ZM98.3467 179.032L98.3467 175.72L99.8827 175.72C101.431 175.72 102.283 176.212 102.283 177.304C102.283 178.492 101.395 179.032 99.8827 179.032L98.3467 179.032ZM112.885 174.088C112.177 174.088 111.613 174.652 111.613 175.36C111.613 176.068 112.177 176.632 112.885 176.632C113.593 176.632 114.157 176.068 114.157 175.36C114.157 174.652 113.593 174.088 112.885 174.088ZM125.192 180.076C126.86 180.076 127.928 178.564 127.928 175.492C127.928 172.444 126.86 170.968 125.192 170.968C123.512 170.968 122.456 172.444 122.456 175.492C122.456 178.564 123.512 180.076 125.192 180.076ZM125.192 179.188C124.196 179.188 123.512 178.072 123.512 175.492C123.512 172.924 124.196 171.832 125.192 171.832C126.188 171.832 126.872 172.924 126.872 175.492C126.872 178.072 126.188 179.188 125.192 179.188ZM131.852 180.076C133.52 180.076 134.588 178.564 134.588 175.492C134.588 172.444 133.52 170.968 131.852 170.968C130.172 170.968 129.116 172.444 129.116 175.492C129.116 178.564 130.172 180.076 131.852 180.076ZM131.852 179.188C130.856 179.188 130.172 178.072 130.172 175.492C130.172 172.924 130.856 171.832 131.852 171.832C132.848 171.832 133.532 172.924 133.532 175.492C133.532 178.072 132.848 179.188 131.852 179.188ZM136.844 175.24C137.276 175.24 137.636 174.904 137.636 174.4C137.636 173.908 137.276 173.56 136.844 173.56C136.4 173.56 136.052 173.908 136.052 174.4C136.052 174.904 136.4 175.24 136.844 175.24ZM136.844 180.076C137.276 180.076 137.636 179.74 137.636 179.248C137.636 178.744 137.276 178.408 136.844 178.408C136.4 178.408 136.052 178.744 136.052 179.248C136.052 179.74 136.4 180.076 136.844 180.076ZM141.668 180.076C143.24 180.076 144.5 179.14 144.5 177.568C144.5 176.356 143.672 175.588 142.64 175.336L142.64 175.276C143.576 174.952 144.2 174.232 144.2 173.164C144.2 171.772 143.12 170.968 141.632 170.968C140.624 170.968 139.844 171.412 139.184 172.012L139.772 172.708C140.276 172.204 140.888 171.856 141.596 171.856C142.52 171.856 143.084 172.408 143.084 173.248C143.084 174.196 142.472 174.928 140.648 174.928L140.648 175.768C142.688 175.768 143.384 176.464 143.384 177.532C143.384 178.54 142.652 179.164 141.596 179.164C140.6 179.164 139.94 178.684 139.424 178.156L138.86 178.864C139.436 179.5 140.3 180.076 141.668 180.076ZM145.7 179.92L151.232 179.92L151.232 178.972L148.796 178.972C148.352 178.972 147.812 179.02 147.356 179.056C149.42 177.1 150.812 175.312 150.812 173.548C150.812 171.988 149.816 170.968 148.244 170.968C147.128 170.968 146.36 171.472 145.652 172.252L146.288 172.876C146.78 172.288 147.392 171.856 148.112 171.856C149.204 171.856 149.732 172.588 149.732 173.596C149.732 175.108 148.46 176.86 145.7 179.272L145.7 179.92ZM153.5 175.24C153.932 175.24 154.292 174.904 154.292 174.4C154.292 173.908 153.932 173.56 153.5 173.56C153.056 173.56 152.708 173.908 152.708 174.4C152.708 174.904 153.056 175.24 153.5 175.24ZM153.5 180.076C153.932 180.076 154.292 179.74 154.292 179.248C154.292 178.744 153.932 178.408 153.5 178.408C153.056 178.408 152.708 178.744 152.708 179.248C152.708 179.74 153.056 180.076 153.5 180.076ZM156.224 179.92L161.048 179.92L161.048 179.008L159.284 179.008L159.284 171.124L158.444 171.124C157.964 171.4 157.4 171.604 156.62 171.748L156.62 172.444L158.192 172.444L158.192 179.008L156.224 179.008L156.224 179.92ZM164.972 180.076C166.448 180.076 167.852 178.984 167.852 177.064C167.852 175.12 166.652 174.256 165.2 174.256C164.672 174.256 164.276 174.388 163.88 174.604L164.108 172.06L167.42 172.06L167.42 171.124L163.148 171.124L162.86 175.228L163.448 175.6C163.952 175.264 164.324 175.084 164.912 175.084C166.016 175.084 166.736 175.828 166.736 177.088C166.736 178.372 165.908 179.164 164.864 179.164C163.844 179.164 163.196 178.696 162.704 178.192L162.152 178.912C162.752 179.5 163.592 180.076 164.972 180.076ZM177.459 174.088C176.751 174.088 176.187 174.652 176.187 175.36C176.187 176.068 176.751 176.632 177.459 176.632C178.167 176.632 178.731 176.068 178.731 175.36C178.731 174.652 178.167 174.088 177.459 174.088ZM191.554 170.02L191.554 179.404L187.042 179.404L187.042 180.304L197.83 180.304L197.83 179.404L192.502 179.404L192.502 174.628L197.002 174.628L197.002 173.728L192.502 173.728L192.502 170.02L191.554 170.02ZM201.622 169.888C200.95 171.712 199.822 173.512 198.646 174.676C198.802 174.88 199.054 175.348 199.15 175.564C199.558 175.144 199.966 174.64 200.35 174.1L200.35 180.856L201.214 180.856L201.214 172.756C201.694 171.928 202.126 171.028 202.474 170.14L201.622 169.888ZM204.046 178.42C205.186 179.116 206.542 180.196 207.202 180.88L207.874 180.208C207.55 179.884 207.082 179.5 206.554 179.104C207.478 178.108 208.486 176.968 209.218 176.116L208.582 175.72L208.438 175.78L204.586 175.78L205.018 174.352L209.878 174.352L209.878 173.5L205.258 173.5L205.654 172.072L209.326 172.072L209.326 171.232L205.882 171.232L206.194 170.02L205.306 169.9L204.97 171.232L202.606 171.232L202.606 172.072L204.742 172.072L204.346 173.5L201.922 173.5L201.922 174.352L204.094 174.352C203.842 175.204 203.578 175.996 203.362 176.62L207.658 176.62C207.13 177.22 206.482 177.952 205.858 178.612C205.474 178.348 205.078 178.096 204.706 177.868L204.046 178.42ZM211.918 170.692L211.918 171.592L216.07 171.592L216.07 174.628L211.09 174.628L211.09 175.528L216.07 175.528L216.07 179.56C216.07 179.812 215.974 179.884 215.71 179.884C215.446 179.896 214.522 179.908 213.538 179.872C213.682 180.136 213.85 180.556 213.91 180.82C215.146 180.82 215.938 180.808 216.382 180.652C216.838 180.508 217.018 180.22 217.018 179.56L217.018 175.528L221.782 175.528L221.782 174.628L217.018 174.628L217.018 171.592L220.942 171.592L220.942 170.692L211.918 170.692ZM226.456 179.92L231.28 179.92L231.28 179.008L229.516 179.008L229.516 171.124L228.676 171.124C228.196 171.4 227.632 171.604 226.852 171.748L226.852 172.444L228.424 172.444L228.424 179.008L226.456 179.008L226.456 179.92ZM236.14 179.92L237.172 179.92L237.172 177.496L238.348 177.496L238.348 176.62L237.172 176.62L237.172 171.124L235.96 171.124L232.3 176.776L232.3 177.496L236.14 177.496L236.14 179.92ZM236.14 176.62L233.44 176.62L235.444 173.62C235.696 173.188 235.936 172.744 236.152 172.324L236.2 172.324C236.176 172.768 236.14 173.488 236.14 173.92L236.14 176.62ZM240.388 175.24C240.82 175.24 241.18 174.904 241.18 174.4C241.18 173.908 240.82 173.56 240.388 173.56C239.944 173.56 239.596 173.908 239.596 174.4C239.596 174.904 239.944 175.24 240.388 175.24ZM240.388 180.076C240.82 180.076 241.18 179.74 241.18 179.248C241.18 178.744 240.82 178.408 240.388 178.408C239.944 178.408 239.596 178.744 239.596 179.248C239.596 179.74 239.944 180.076 240.388 180.076ZM245.212 180.076C246.784 180.076 248.044 179.14 248.044 177.568C248.044 176.356 247.216 175.588 246.184 175.336L246.184 175.276C247.12 174.952 247.744 174.232 247.744 173.164C247.744 171.772 246.664 170.968 245.176 170.968C244.168 170.968 243.388 171.412 242.728 172.012L243.316 172.708C243.82 172.204 244.432 171.856 245.14 171.856C246.064 171.856 246.628 172.408 246.628 173.248C246.628 174.196 246.016 174.928 244.192 174.928L244.192 175.768C246.232 175.768 246.928 176.464 246.928 177.532C246.928 178.54 246.196 179.164 245.14 179.164C244.144 179.164 243.484 178.684 242.968 178.156L242.404 178.864C242.98 179.5 243.844 180.076 245.212 180.076ZM252.052 180.076C253.72 180.076 254.788 178.564 254.788 175.492C254.788 172.444 253.72 170.968 252.052 170.968C250.372 170.968 249.316 172.444 249.316 175.492C249.316 178.564 250.372 180.076 252.052 180.076ZM252.052 179.188C251.056 179.188 250.372 178.072 250.372 175.492C250.372 172.924 251.056 171.832 252.052 171.832C253.048 171.832 253.732 172.924 253.732 175.492C253.732 178.072 253.048 179.188 252.052 179.188Z"></path></g><circle cx="195" cy="310" r="60" stroke="rgba(232, 240, 248, 1.00)" stroke-width="8"   ></circle><path    stroke="rgba(91, 155, 213, 1.00)" stroke-width="8"  stroke-linecap="round"  d="M181 251.669C181.784 251.477 182.571 251.301 183.362 251.142C184.152 250.983 184.946 250.84 185.742 250.714C186.538 250.588 187.336 250.478 188.136 250.386C188.936 250.292 189.738 250.216 190.542 250.157C191.345 250.098 192.149 250.055 192.954 250.03C193.759 250.004 194.564 249.995 195.369 250.003C196.174 250.01 196.979 250.035 197.784 250.077C198.588 250.118 199.391 250.176 200.194 250.251C200.995 250.326 201.796 250.418 202.594 250.525C203.393 250.634 204.189 250.759 204.983 250.901C205.776 251.042 206.567 251.2 207.355 251.375C208.142 251.549 208.926 251.74 209.706 251.947C210.487 252.155 211.262 252.378 212.034 252.618C212.805 252.858 213.572 253.114 214.334 253.385C215.096 253.657 215.852 253.945 216.602 254.248C217.353 254.551 218.098 254.87 218.836 255.204C219.575 255.538 220.306 255.888 221.031 256.253C221.756 256.618 222.473 256.997 223.183 257.392C223.894 257.787 224.596 258.196 225.29 258.62C225.985 259.045 226.671 259.483 227.349 259.936C228.026 260.389 228.694 260.855 229.353 261.336C230.013 261.817 230.663 262.311 231.303 262.819C231.944 263.326 232.575 263.847 233.195 264.382C233.814 264.916 234.424 265.462 235.023 266.022C235.623 266.582 236.211 267.153 236.788 267.737C237.365 268.321 237.931 268.917 238.484 269.525C239.039 270.133 239.581 270.752 240.112 271.382C240.642 272.012 241.16 272.653 241.665 273.305C242.17 273.957 242.663 274.62 243.143 275.292C243.623 275.965 244.089 276.647 244.543 277.338C244.997 278.031 245.437 278.732 245.863 279.443C246.29 280.153 246.703 280.872 247.101 281.599C247.5 282.327 247.885 283.062 248.255 283.806C248.625 284.549 248.981 285.301 249.323 286.059C249.664 286.818 249.991 287.583 250.303 288.356C250.615 289.128 250.912 289.906 251.193 290.691C251.475 291.475 251.742 292.264 251.993 293.06C252.244 293.856 252.48 294.656 252.701 295.462C252.921 296.267 253.126 297.077 253.315 297.892C253.504 298.705 253.678 299.523 253.836 300.344C253.994 301.166 254.135 301.99 254.261 302.817C254.387 303.644 254.497 304.474 254.59 305.305C254.684 306.137 254.762 306.971 254.824 307.806C254.885 308.641 254.931 309.477 254.96 310.313C254.99 311.151 255.003 311.988 254.999 312.826C254.997 313.663 254.978 314.5 254.942 315.337C254.908 316.174 254.856 317.009 254.789 317.843C254.721 318.678 254.638 319.51 254.538 320.342C254.438 321.173 254.323 322.002 254.191 322.828C254.06 323.654 253.912 324.477 253.748 325.297C253.585 326.117 253.406 326.934 253.212 327.746C253.016 328.558 252.806 329.367 252.58 330.171C252.354 330.975 252.112 331.774 251.855 332.567C251.599 333.361 251.327 334.149 251.04 334.931C250.752 335.714 250.45 336.49 250.133 337.259C249.815 338.029 249.483 338.792 249.137 339.548C248.79 340.304 248.429 341.052 248.053 341.793C247.677 342.534 247.288 343.267 246.884 343.991C246.48 344.716 246.063 345.431 245.631 346.139C245.2 346.846 244.755 347.544 244.296 348.231C243.838 348.92 243.366 349.599 242.882 350.268C242.397 350.937 241.9 351.596 241.39 352.244C240.879 352.892 240.357 353.529 239.823 354.155C239.288 354.782 238.742 355.396 238.184 356"></path><g ><path     fill="#2C5F8A"  d="M173.846 319.872C177.374 319.872 180.342 317.184 180.342 312.928C180.342 308.504 177.85 306.432 174.378 306.432C173.062 306.432 171.298 307.216 170.15 308.616C170.346 303.464 172.278 301.672 174.686 301.672C175.862 301.672 177.122 302.372 177.85 303.184L180.034 300.72C178.802 299.432 176.954 298.368 174.406 298.368C170.234 298.368 166.398 301.672 166.398 309.4C166.398 316.68 169.926 319.872 173.846 319.872ZM170.234 311.528C171.27 309.96 172.53 309.344 173.622 309.344C175.414 309.344 176.59 310.464 176.59 312.928C176.59 315.448 175.33 316.764 173.762 316.764C172.026 316.764 170.626 315.308 170.234 311.528ZM182.722 319.48L196.61 319.48L196.61 316.008L192.13 316.008C191.15 316.008 189.778 316.12 188.714 316.26C192.494 312.536 195.63 308.504 195.63 304.752C195.63 300.888 193.026 298.368 189.106 298.368C186.278 298.368 184.43 299.46 182.498 301.532L184.794 303.744C185.83 302.596 187.062 301.616 188.574 301.616C190.562 301.616 191.682 302.904 191.682 304.948C191.682 308.168 188.378 312.06 182.722 317.1L182.722 319.48ZM203.974 311.5C206.942 311.5 209.042 309.064 209.042 304.892C209.042 300.748 206.942 298.368 203.974 298.368C201.006 298.368 198.934 300.748 198.934 304.892C198.934 309.064 201.006 311.5 203.974 311.5ZM203.974 309.176C202.77 309.176 201.818 307.944 201.818 304.892C201.818 301.868 202.77 300.692 203.974 300.692C205.178 300.692 206.13 301.868 206.13 304.892C206.13 307.944 205.178 309.176 203.974 309.176ZM204.646 319.872L207.11 319.872L218.366 298.368L215.93 298.368L204.646 319.872ZM219.066 319.872C222.006 319.872 224.106 317.436 224.106 313.264C224.106 309.12 222.006 306.712 219.066 306.712C216.098 306.712 213.998 309.12 213.998 313.264C213.998 317.436 216.098 319.872 219.066 319.872ZM219.066 317.52C217.834 317.52 216.91 316.288 216.91 313.264C216.91 310.184 217.834 309.064 219.066 309.064C220.27 309.064 221.194 310.184 221.194 313.264C221.194 316.288 220.27 317.52 219.066 317.52Z"></path></g><g ><path     fill="#5B9BD5"  d="M129.612 367.732C129.738 367.606 130.2 367.522 130.662 367.522L131.824 367.522L131.824 369.37L129.024 369.79L129.29 371.078L131.824 370.602L131.824 373.374L133.098 373.374L133.098 370.364L134.848 370.042L134.792 368.894L133.098 369.16L133.098 367.522L134.358 367.522L134.358 366.332L133.098 366.332L133.098 364.26L131.824 364.26L131.824 366.332L130.676 366.332C131.096 365.408 131.516 364.33 131.88 363.21L134.414 363.21L134.414 361.992L132.23 361.992C132.356 361.544 132.468 361.096 132.566 360.662L131.264 360.424C131.194 360.942 131.096 361.474 130.97 361.992L129.108 361.992L129.108 363.21L130.662 363.21C130.368 364.288 130.06 365.156 129.934 365.478C129.682 366.08 129.472 366.514 129.22 366.584C129.36 366.906 129.556 367.48 129.612 367.732ZM134.512 364.624L134.512 365.856L136.402 365.856C136.108 366.85 135.828 367.76 135.562 368.488L139.482 368.488C139.034 369.104 138.516 369.804 138.012 370.462C137.55 370.168 137.074 369.888 136.626 369.636L135.786 370.49C137.242 371.33 138.978 372.632 139.832 373.458L140.7 372.422C140.28 372.044 139.692 371.596 139.02 371.134C139.916 369.972 140.882 368.684 141.596 367.634L140.658 367.172L140.448 367.256L137.354 367.256L137.76 365.856L142.002 365.856L142.002 364.624L138.11 364.624L138.488 363.21L141.512 363.21L141.512 361.992L138.81 361.992L139.16 360.592L137.844 360.438L137.466 361.992L135.03 361.992L135.03 363.21L137.144 363.21L136.766 364.624L134.512 364.624ZM143.556 361.138L143.556 364.064L144.872 364.064L144.872 362.37L154.154 362.37L154.154 364.064L155.526 364.064L155.526 361.138L143.556 361.138ZM143.78 369.188L143.78 370.406L151.648 370.406L151.648 369.188L143.78 369.188ZM146.622 362.594C146.328 364.288 145.852 366.556 145.46 367.914L152.81 367.914C152.558 370.448 152.278 371.596 151.886 371.932C151.718 372.072 151.55 372.086 151.228 372.086C150.85 372.086 149.912 372.072 148.96 371.988C149.198 372.338 149.38 372.87 149.408 373.234C150.318 373.276 151.214 373.304 151.69 373.262C152.264 373.22 152.642 373.108 152.992 372.744C153.538 372.198 153.86 370.77 154.182 367.326C154.21 367.144 154.238 366.738 154.238 366.738L147.112 366.738L147.448 365.226L153.734 365.226L153.734 364.078L147.686 364.078L147.952 362.72L146.622 362.594ZM162.806 360.424L162.806 362.888L157.836 362.888L157.836 369.748L159.152 369.748L159.152 368.908L162.806 368.908L162.806 373.402L164.192 373.402L164.192 368.908L167.86 368.908L167.86 369.678L169.232 369.678L169.232 362.888L164.192 362.888L164.192 360.424L162.806 360.424ZM159.152 367.606L159.152 364.19L162.806 364.19L162.806 367.606L159.152 367.606ZM167.86 367.606L164.192 367.606L164.192 364.19L167.86 364.19L167.86 367.606ZM181 365.296C180.104 365.296 179.376 366.024 179.376 366.92C179.376 367.816 180.104 368.544 181 368.544C181.896 368.544 182.624 367.816 182.624 366.92C182.624 366.024 181.896 365.296 181 365.296ZM197.416 360.522C197.612 360.844 197.794 361.25 197.92 361.628L192.992 361.628L192.992 362.818L200.846 362.818C200.664 363.434 200.314 364.302 200.006 364.89L196.772 364.89L196.954 364.848C196.842 364.288 196.506 363.448 196.114 362.846L194.826 363.112C195.12 363.63 195.4 364.344 195.526 364.89L192.208 364.89L192.208 366.08L204.738 366.08L204.738 364.89L201.448 364.89C201.728 364.358 202.05 363.714 202.33 363.112L200.986 362.818L204.066 362.818L204.066 361.628L199.404 361.628C199.278 361.194 199.04 360.69 198.774 360.298L197.416 360.522ZM195.372 370.518L201.658 370.518L201.658 371.82L195.372 371.82L195.372 370.518ZM195.372 369.482L195.372 368.25L201.658 368.25L201.658 369.482L195.372 369.482ZM194.056 367.144L194.056 373.43L195.372 373.43L195.372 372.926L201.658 372.926L201.658 373.416L203.03 373.416L203.03 367.144L194.056 367.144ZM215.196 365.366C215.168 370.14 215.056 371.652 211.724 372.534C211.948 372.758 212.256 373.192 212.354 373.472C216.008 372.436 216.26 370.504 216.274 365.366L215.196 365.366ZM215.616 371.162C216.54 371.848 217.73 372.828 218.29 373.444L219.074 372.632C218.472 372.016 217.254 371.078 216.358 370.434L215.616 371.162ZM207.16 366.654C206.894 367.662 206.46 368.712 205.9 369.412C206.166 369.552 206.642 369.846 206.852 370.014C207.426 369.244 207.958 368.054 208.266 366.892L207.16 366.654ZM213.026 363.742L213.026 370.35L214.132 370.35L214.132 364.75L217.296 364.75L217.296 370.308L218.458 370.308L218.458 363.742L215.994 363.742L216.526 362.384L218.808 362.384L218.808 361.236L212.69 361.236L212.69 362.384L215.266 362.384C215.14 362.832 214.958 363.322 214.804 363.742L213.026 363.742ZM211.332 366.822C211.038 368.026 210.618 369.034 210.002 369.86L210.002 365.87L212.508 365.87L212.508 364.694L210.254 364.694L210.254 363.154L212.186 363.154L212.186 362.048L210.254 362.048L210.254 360.41L209.078 360.41L209.078 364.694L207.986 364.694L207.986 361.642L206.922 361.642L206.922 364.694L205.956 364.694L205.956 365.87L208.784 365.87L208.784 370.112L209.806 370.112C208.924 371.204 207.692 371.96 206.026 372.436C206.292 372.702 206.572 373.136 206.698 373.458C209.96 372.366 211.682 370.406 212.466 367.074L211.332 366.822ZM228.734 365.422L228.734 368.11C228.734 369.496 228.37 371.33 225.15 372.408C225.444 372.646 225.808 373.08 225.962 373.346C229.476 372.03 229.98 369.93 229.98 368.124L229.98 365.422L228.734 365.422ZM229.602 371.134C230.456 371.834 231.562 372.814 232.094 373.43L233.004 372.52C232.444 371.932 231.296 370.994 230.47 370.336L229.602 371.134ZM220.572 363.896C221.342 364.386 222.322 365.044 223.078 365.604L219.928 365.604L219.928 366.794L222.14 366.794L222.14 371.918C222.14 372.086 222.084 372.128 221.874 372.128C221.678 372.142 221.034 372.142 220.362 372.128C220.544 372.478 220.726 373.024 220.768 373.388C221.734 373.388 222.392 373.36 222.826 373.164C223.288 372.954 223.414 372.59 223.414 371.932L223.414 366.794L224.604 366.794C224.408 367.508 224.17 368.222 223.974 368.712L224.968 368.95C225.318 368.152 225.724 366.892 226.06 365.772L225.248 365.562L225.066 365.604L224.254 365.604L224.562 365.198C224.268 364.974 223.848 364.68 223.386 364.386C224.198 363.616 225.066 362.538 225.668 361.544L224.87 360.998L224.632 361.068L220.236 361.068L220.236 362.216L223.792 362.216C223.4 362.776 222.91 363.364 222.462 363.784L221.286 363.042L220.572 363.896ZM226.396 363.406L226.396 370.126L227.628 370.126L227.628 364.61L231.128 364.61L231.128 370.084L232.416 370.084L232.416 363.406L229.784 363.406L230.204 362.174L232.962 362.174L232.962 361.012L225.906 361.012L225.906 362.174L228.776 362.174C228.706 362.58 228.608 363.014 228.51 363.406L226.396 363.406ZM239.234 363.868C238.996 365.646 238.576 367.116 238.002 368.32C237.498 367.438 237.064 366.346 236.728 364.974L237.078 363.868L239.234 363.868ZM236.406 360.466C236.014 363.224 235.174 365.926 234.11 367.368C234.46 367.536 234.936 367.886 235.188 368.11C235.496 367.704 235.776 367.214 236.042 366.654C236.392 367.802 236.812 368.768 237.302 369.552C236.406 370.854 235.258 371.778 233.872 372.422C234.208 372.632 234.754 373.15 234.978 373.458C236.224 372.828 237.288 371.946 238.156 370.728C239.836 372.604 242.02 373.052 244.4 373.052L246.556 373.052C246.626 372.674 246.864 371.988 247.074 371.666C246.472 371.68 244.946 371.68 244.47 371.68C242.398 371.68 240.41 371.302 238.884 369.566C239.808 367.858 240.438 365.646 240.732 362.832L239.85 362.594L239.598 362.636L237.414 362.636C237.568 362.02 237.694 361.404 237.806 360.774L236.406 360.466ZM241.922 360.438L241.922 370.812L243.336 370.812L243.336 365.212C244.19 366.276 245.072 367.466 245.52 368.278L246.696 367.564C246.08 366.528 244.764 364.946 243.728 363.784L243.336 364.008L243.336 360.438L241.922 360.438ZM254.354 364.764L256.202 364.764L256.202 366.304L254.354 366.304L254.354 364.764ZM257.336 364.764L259.142 364.764L259.142 366.304L257.336 366.304L257.336 364.764ZM254.354 362.174L256.202 362.174L256.202 363.7L254.354 363.7L254.354 362.174ZM257.336 362.174L259.142 362.174L259.142 363.7L257.336 363.7L257.336 362.174ZM251.988 371.764L251.988 372.968L261.046 372.968L261.046 371.764L257.434 371.764L257.434 370.084L260.584 370.084L260.584 368.88L257.434 368.88L257.434 367.438L260.402 367.438L260.402 361.04L253.15 361.04L253.15 367.438L256.09 367.438L256.09 368.88L253.024 368.88L253.024 370.084L256.09 370.084L256.09 371.764L251.988 371.764ZM247.886 370.686L248.208 372.044C249.482 371.624 251.134 371.064 252.66 370.546L252.436 369.286L250.966 369.762L250.966 366.57L252.324 366.57L252.324 365.352L250.966 365.352L250.966 362.538L252.534 362.538L252.534 361.306L248.04 361.306L248.04 362.538L249.706 362.538L249.706 365.352L248.18 365.352L248.18 366.57L249.706 366.57L249.706 370.154C249.034 370.364 248.404 370.546 247.886 370.686Z"></path></g><g ><path     fill="#A8C8E0"  d="M160.739 390.98L160.739 393.38C160.739 394.616 160.463 396.236 157.619 397.172C157.823 397.34 158.063 397.64 158.171 397.82C161.219 396.704 161.591 394.904 161.591 393.392L161.591 390.98L160.739 390.98ZM161.399 395.864C162.155 396.464 163.127 397.328 163.595 397.868L164.219 397.232C163.739 396.716 162.743 395.888 161.999 395.312L161.399 395.864ZM153.755 389.624C154.487 390.116 155.423 390.776 156.083 391.28L153.155 391.28L153.155 392.084L155.135 392.084L155.135 396.8C155.135 396.956 155.087 396.992 154.907 397.004C154.739 397.004 154.187 397.004 153.563 396.992C153.695 397.244 153.815 397.604 153.851 397.856C154.679 397.856 155.219 397.844 155.555 397.7C155.903 397.556 155.999 397.304 155.999 396.824L155.999 392.084L157.283 392.084C157.067 392.732 156.827 393.392 156.611 393.848L157.295 394.028C157.619 393.38 157.991 392.324 158.303 391.4L157.739 391.244L157.607 391.28L156.791 391.28L157.031 390.968C156.755 390.752 156.371 390.464 155.939 390.176C156.647 389.54 157.427 388.616 157.943 387.752L157.391 387.368L157.235 387.416L153.407 387.416L153.407 388.22L156.635 388.22C156.263 388.76 155.771 389.348 155.315 389.744L154.247 389.048L153.755 389.624ZM158.699 389.384L158.699 395.096L159.539 395.096L159.539 390.212L162.851 390.212L162.851 395.072L163.727 395.072L163.727 389.384L161.387 389.384L161.807 388.184L164.207 388.184L164.207 387.368L158.267 387.368L158.267 388.184L160.823 388.184C160.739 388.58 160.631 389.012 160.523 389.384L158.699 389.384ZM166.343 387.62C167.015 388.184 167.855 389 168.239 389.516L168.851 388.844C168.443 388.352 167.591 387.584 166.931 387.044L166.343 387.62ZM165.251 390.608L165.251 391.496L167.159 391.496L167.159 395.804C167.159 396.32 166.787 396.68 166.559 396.824C166.727 397.004 166.967 397.412 167.051 397.652C167.243 397.4 167.579 397.136 169.847 395.528C169.751 395.36 169.607 394.976 169.547 394.736L168.071 395.744L168.071 390.608L165.251 390.608ZM172.211 386.876L172.211 390.824L169.163 390.824L169.163 391.748L172.211 391.748L172.211 397.88L173.159 397.88L173.159 391.748L176.207 391.748L176.207 390.824L173.159 390.824L173.159 386.876L172.211 386.876ZM184.967 388.28L184.967 394.94L185.783 394.94L185.783 388.28L184.967 388.28ZM186.863 386.96L186.863 396.728C186.863 396.932 186.791 396.992 186.587 397.004C186.395 397.016 185.771 397.016 185.075 396.992C185.207 397.244 185.327 397.616 185.363 397.856C186.335 397.856 186.899 397.832 187.247 397.7C187.595 397.544 187.739 397.292 187.739 396.728L187.739 386.96L186.863 386.96ZM177.371 393.092L177.575 393.764L179.027 393.356L179.027 394.112L179.735 394.112L179.735 390.296L179.027 390.296L179.027 391.16L177.563 391.16L177.563 391.82L179.027 391.82L179.027 392.72C178.391 392.876 177.839 392.996 177.371 393.092ZM183.239 386.888C182.003 387.296 179.639 387.536 177.695 387.656C177.803 387.848 177.899 388.172 177.935 388.364C178.739 388.328 179.603 388.268 180.455 388.184L180.455 389.192L177.359 389.192L177.359 389.96L180.455 389.96L180.455 393.572C179.687 394.832 178.343 396.14 177.203 396.812C177.395 396.956 177.671 397.268 177.803 397.484C178.691 396.884 179.675 395.9 180.455 394.832L180.455 397.82L181.307 397.82L181.307 394.7C182.135 395.324 183.251 396.236 183.707 396.656L184.211 395.912C183.755 395.576 182.075 394.376 181.307 393.872L181.307 389.96L184.427 389.96L184.427 389.192L181.307 389.192L181.307 388.076C182.279 387.956 183.179 387.776 183.875 387.548L183.239 386.888ZM181.991 390.296L181.991 393.164C181.991 393.86 182.147 394.04 182.819 394.04C182.939 394.04 183.527 394.04 183.659 394.04C184.163 394.04 184.355 393.776 184.415 392.828C184.223 392.792 183.959 392.696 183.827 392.576C183.803 393.332 183.755 393.428 183.563 393.428C183.443 393.428 182.999 393.428 182.915 393.428C182.711 393.428 182.675 393.404 182.675 393.164L182.675 392.204C183.191 392 183.779 391.7 184.247 391.4L183.719 390.884C183.467 391.112 183.071 391.352 182.675 391.556L182.675 390.296L181.991 390.296ZM196.463 394.88C197.387 395.636 198.503 396.704 199.031 397.4L199.811 396.872C199.259 396.176 198.107 395.144 197.195 394.424L196.463 394.88ZM191.975 394.46C191.327 395.336 190.331 396.248 189.383 396.836C189.587 396.968 189.923 397.28 190.079 397.436C191.015 396.776 192.095 395.756 192.815 394.772L191.975 394.46ZM194.735 386.72C193.427 388.412 191.123 390.02 188.999 390.932C189.227 391.136 189.467 391.436 189.623 391.676C190.259 391.364 190.919 390.992 191.567 390.572L191.567 391.34L194.279 391.34L194.279 392.864L189.839 392.864L189.839 393.716L194.279 393.716L194.279 396.788C194.279 396.968 194.219 397.016 194.027 397.028C193.823 397.04 193.139 397.04 192.407 397.016C192.551 397.256 192.719 397.64 192.767 397.88C193.727 397.892 194.327 397.868 194.699 397.724C195.095 397.58 195.227 397.328 195.227 396.8L195.227 393.716L199.655 393.716L199.655 392.864L195.227 392.864L195.227 391.34L197.819 391.34L197.819 390.512L191.651 390.512C192.755 389.78 193.823 388.904 194.687 387.98C196.199 389.612 197.855 390.656 199.823 391.532C199.955 391.268 200.207 390.956 200.435 390.764C198.407 389.96 196.667 388.952 195.227 387.38L195.431 387.116L194.735 386.72ZM204.198 396.92L209.73 396.92L209.73 395.972L207.294 395.972C206.85 395.972 206.31 396.02 205.854 396.056C207.918 394.1 209.31 392.312 209.31 390.548C209.31 388.988 208.314 387.968 206.742 387.968C205.626 387.968 204.858 388.472 204.15 389.252L204.786 389.876C205.278 389.288 205.89 388.856 206.61 388.856C207.702 388.856 208.23 389.588 208.23 390.596C208.23 392.108 206.958 393.86 204.198 396.272L204.198 396.92ZM221.377 387.056L220.549 387.392C221.401 389.168 222.841 391.124 224.101 392.204C224.281 391.964 224.605 391.628 224.833 391.448C223.585 390.512 222.121 388.676 221.377 387.056ZM217.189 387.08C216.493 388.916 215.269 390.584 213.829 391.616C214.045 391.784 214.441 392.132 214.597 392.312C214.921 392.048 215.233 391.76 215.545 391.436L215.545 392.264L217.861 392.264C217.585 394.304 216.925 396.212 214.081 397.148C214.285 397.34 214.525 397.688 214.633 397.916C217.693 396.812 218.485 394.64 218.809 392.264L222.073 392.264C221.941 395.264 221.761 396.44 221.461 396.752C221.341 396.872 221.197 396.896 220.945 396.896C220.669 396.896 219.925 396.896 219.145 396.824C219.313 397.076 219.421 397.46 219.445 397.724C220.201 397.772 220.933 397.784 221.341 397.748C221.749 397.712 222.025 397.628 222.277 397.328C222.697 396.86 222.853 395.492 223.033 391.808C223.045 391.688 223.045 391.376 223.045 391.376L215.605 391.376C216.625 390.284 217.525 388.88 218.149 387.344L217.189 387.08ZM233.137 390.248L233.137 393.104L231.493 393.104L231.493 390.248L233.137 390.248ZM234.025 390.248L235.681 390.248L235.681 393.104L234.025 393.104L234.025 390.248ZM233.137 386.864L233.137 389.372L230.677 389.372L230.677 394.712L231.493 394.712L231.493 393.98L233.137 393.98L233.137 397.892L234.025 397.892L234.025 393.98L235.681 393.98L235.681 394.64L236.545 394.64L236.545 389.372L234.025 389.372L234.025 386.864L233.137 386.864ZM227.461 386.876C227.101 387.992 226.453 389.072 225.733 389.78C225.877 389.972 226.117 390.428 226.201 390.62C226.621 390.188 227.017 389.648 227.377 389.048L230.281 389.048L230.281 388.22L227.821 388.22C227.989 387.86 228.145 387.476 228.277 387.104L227.461 386.876ZM226.021 392.792L226.021 393.62L227.761 393.62L227.761 396.044C227.761 396.608 227.353 396.968 227.125 397.124C227.281 397.28 227.509 397.604 227.605 397.796C227.797 397.604 228.145 397.4 230.425 396.212C230.353 396.02 230.281 395.672 230.257 395.432L228.625 396.248L228.625 393.62L230.317 393.62L230.317 392.792L228.625 392.792L228.625 391.172L230.029 391.172L230.029 390.356L226.645 390.356L226.645 391.172L227.761 391.172L227.761 392.792L226.021 392.792Z"></path></g><g opacity="0.9"><rect  x="40" y="430" width="310" height="140" rx="14"    fill="#FFFFFF" ></rect></g><circle cx="65" cy="460" r="10"   fill="#5B9BD5" ></circle><g ><path     fill="#FFFFFF"  d="M63.275 465.82L64.225 465.71C65.075 462.7 66.695 460.16 68.465 458.51L67.865 457.96C66.115 459.68 64.515 462.42 63.735 465.07L63.685 465.07C63.335 464.08 62.825 463.03 62.205 462.11L61.585 462.53C62.285 463.54 62.825 464.6 63.275 465.82Z"></path></g><g ><path     fill="#2C5F8A"  d="M96.09 454.578C96.3 454.928 96.496 455.362 96.636 455.754L91.568 455.754L91.568 456.706L102.558 456.706L102.558 455.754L97.812 455.754C97.672 455.32 97.42 454.774 97.126 454.368L96.09 454.578ZM93.472 457.014C93.836 457.616 94.158 458.442 94.284 459.044L90.77 459.044L90.77 459.996L103.244 459.996L103.244 459.044L99.702 459.044C100.052 458.456 100.402 457.686 100.724 457.014L99.59 456.734C99.352 457.406 98.932 458.386 98.582 459.044L94.886 459.044L95.39 458.918C95.264 458.33 94.914 457.448 94.466 456.79L93.472 457.014ZM93.738 464.42L100.36 464.42L100.36 465.946L93.738 465.946L93.738 464.42ZM93.738 463.58L93.738 462.124L100.36 462.124L100.36 463.58L93.738 463.58ZM92.702 461.228L92.702 467.374L93.738 467.374L93.738 466.842L100.36 466.842L100.36 467.346L101.452 467.346L101.452 461.228L92.702 461.228ZM113.814 459.226C113.786 464.126 113.632 465.75 110.244 466.66C110.426 466.842 110.678 467.178 110.762 467.402C114.402 466.366 114.668 464.434 114.696 459.226L113.814 459.226ZM114.192 465.064C115.13 465.764 116.334 466.772 116.922 467.388L117.552 466.716C116.95 466.114 115.718 465.148 114.78 464.476L114.192 465.064ZM109.992 460.836C109.264 463.748 107.654 465.652 104.686 466.59C104.896 466.8 105.134 467.15 105.232 467.402C108.41 466.282 110.132 464.224 110.902 461.046L109.992 460.836ZM105.862 460.682C105.582 461.718 105.12 462.768 104.518 463.482C104.756 463.594 105.134 463.832 105.302 463.972C105.89 463.202 106.436 462.026 106.744 460.878L105.862 460.682ZM111.616 457.714L111.616 464.322L112.512 464.322L112.512 458.54L115.956 458.54L115.956 464.294L116.908 464.294L116.908 457.714L114.388 457.714L114.948 456.244L117.3 456.244L117.3 455.306L111.252 455.306L111.252 456.244L113.926 456.244C113.786 456.72 113.604 457.28 113.408 457.714L111.616 457.714ZM105.596 455.698L105.596 458.834L104.546 458.834L104.546 459.786L107.472 459.786L107.472 464.028L108.424 464.028L108.424 459.786L111.028 459.786L111.028 458.834L108.676 458.834L108.676 457.112L110.706 457.112L110.706 456.216L108.676 456.216L108.676 454.466L107.724 454.466L107.724 458.834L106.464 458.834L106.464 455.698L105.596 455.698ZM123.978 454.69L123.978 465.638L118.714 465.638L118.714 466.688L131.3 466.688L131.3 465.638L125.084 465.638L125.084 460.066L130.334 460.066L130.334 459.016L125.084 459.016L125.084 454.69L123.978 454.69ZM135.724 454.536C134.94 456.664 133.624 458.764 132.252 460.122C132.434 460.36 132.728 460.906 132.84 461.158C133.316 460.668 133.792 460.08 134.24 459.45L134.24 467.332L135.248 467.332L135.248 457.882C135.808 456.916 136.312 455.866 136.718 454.83L135.724 454.536ZM138.552 464.49C139.882 465.302 141.464 466.562 142.234 467.36L143.018 466.576C142.64 466.198 142.094 465.75 141.478 465.288C142.556 464.126 143.732 462.796 144.586 461.802L143.844 461.34L143.676 461.41L139.182 461.41L139.686 459.744L145.356 459.744L145.356 458.75L139.966 458.75L140.428 457.084L144.712 457.084L144.712 456.104L140.694 456.104L141.058 454.69L140.022 454.55L139.63 456.104L136.872 456.104L136.872 457.084L139.364 457.084L138.902 458.75L136.074 458.75L136.074 459.744L138.608 459.744C138.314 460.738 138.006 461.662 137.754 462.39L142.766 462.39C142.15 463.09 141.394 463.944 140.666 464.714C140.218 464.406 139.756 464.112 139.322 463.846L138.552 464.49Z"></path></g><g ><path     fill="#5B9BD5"  d="M275.116 456.584L275.116 457.484L282.964 457.484L282.964 460.64L276.664 460.64L276.664 458.66L275.752 458.66L275.752 464.696C275.752 466.184 276.364 466.544 278.308 466.544C278.764 466.544 282.34 466.544 282.82 466.544C284.8 466.544 285.196 465.884 285.424 463.676C285.16 463.628 284.752 463.472 284.512 463.304C284.344 465.236 284.14 465.656 282.832 465.656C282.016 465.656 278.896 465.656 278.26 465.656C276.94 465.656 276.664 465.476 276.664 464.708L276.664 461.528L282.964 461.528L282.964 462.128L283.9 462.128L283.9 456.584L275.116 456.584ZM288.724 459.368L288.724 460.196L295.252 460.196L295.252 459.368L288.724 459.368ZM286.672 461.6L286.672 462.44L289.9 462.44C289.756 464.576 289.264 465.62 286.528 466.148C286.696 466.328 286.936 466.664 287.008 466.892C290.008 466.256 290.644 464.948 290.824 462.44L292.936 462.44L292.936 465.452C292.936 466.412 293.212 466.688 294.328 466.688C294.556 466.688 295.924 466.688 296.164 466.688C297.124 466.688 297.376 466.268 297.484 464.624C297.244 464.552 296.86 464.408 296.656 464.264C296.62 465.644 296.548 465.86 296.092 465.86C295.78 465.86 294.652 465.86 294.412 465.86C293.92 465.86 293.836 465.8 293.836 465.452L293.836 462.44L297.316 462.44L297.316 461.6L286.672 461.6ZM291.052 455.996C291.268 456.368 291.496 456.824 291.652 457.22L286.984 457.22L286.984 459.884L287.884 459.884L287.884 458.084L296.056 458.084L296.056 459.884L296.992 459.884L296.992 457.22L292.72 457.22C292.552 456.776 292.24 456.176 291.952 455.732L291.052 455.996ZM304.528 455.852C304.528 456.536 304.552 457.22 304.588 457.88L299.536 457.88L299.536 461.252C299.536 462.812 299.428 464.888 298.432 466.364C298.648 466.472 299.032 466.784 299.188 466.964C300.292 465.38 300.472 462.956 300.472 461.264L300.472 461.18L302.668 461.18C302.62 463.244 302.56 464.012 302.404 464.192C302.308 464.3 302.2 464.324 302.02 464.324C301.816 464.324 301.3 464.324 300.748 464.264C300.892 464.492 300.988 464.852 301 465.104C301.588 465.14 302.14 465.14 302.452 465.116C302.776 465.08 302.98 464.996 303.172 464.768C303.424 464.444 303.484 463.424 303.544 460.724C303.544 460.604 303.556 460.34 303.556 460.34L300.472 460.34L300.472 458.756L304.648 458.756C304.792 460.7 305.08 462.476 305.536 463.856C304.744 464.768 303.82 465.512 302.752 466.076C302.944 466.256 303.268 466.628 303.412 466.82C304.336 466.268 305.164 465.608 305.896 464.816C306.448 466.052 307.168 466.796 308.092 466.796C309.016 466.796 309.352 466.196 309.508 464.144C309.268 464.06 308.932 463.856 308.728 463.652C308.656 465.248 308.512 465.872 308.164 465.872C307.552 465.872 307.012 465.188 306.568 464.012C307.456 462.86 308.164 461.492 308.68 459.92L307.78 459.692C307.396 460.904 306.88 461.996 306.232 462.956C305.92 461.792 305.692 460.364 305.56 458.756L309.412 458.756L309.412 457.88L305.512 457.88C305.476 457.22 305.464 456.548 305.464 455.852L304.528 455.852ZM306.052 456.44C306.82 456.836 307.744 457.448 308.2 457.88L308.764 457.256C308.296 456.848 307.348 456.26 306.592 455.888L306.052 456.44Z"></path></g><circle cx="65" cy="500" r="10"   fill="#5B9BD5" ></circle><g ><path     fill="#FFFFFF"  d="M63.275 505.82L64.225 505.71C65.075 502.7 66.695 500.16 68.465 498.51L67.865 497.96C66.115 499.68 64.515 502.42 63.735 505.07L63.685 505.07C63.335 504.08 62.825 503.03 62.205 502.11L61.585 502.53C62.285 503.54 62.825 504.6 63.275 505.82Z"></path></g><g ><path     fill="#2C5F8A"  d="M100.976 496.552C100.542 497.182 99.954 497.742 99.282 498.218C98.652 497.77 98.134 497.252 97.742 496.678L97.854 496.552L100.976 496.552ZM98.134 494.48C97.56 495.53 96.51 496.804 95.054 497.742C95.278 497.896 95.586 498.232 95.74 498.456C96.258 498.092 96.72 497.714 97.126 497.308C97.518 497.826 97.966 498.302 98.484 498.736C97.392 499.366 96.132 499.828 94.872 500.108C95.054 500.318 95.306 500.696 95.404 500.948C96.776 500.598 98.12 500.066 99.296 499.338C100.346 500.024 101.564 500.528 102.88 500.822C103.02 500.556 103.3 500.164 103.524 499.968C102.292 499.73 101.116 499.31 100.122 498.764C101.088 498.008 101.886 497.098 102.404 495.978L101.746 495.656L101.578 495.698L98.526 495.698C98.764 495.362 98.988 495.012 99.184 494.676L98.134 494.48ZM95.754 501.452L95.754 502.376L99.002 502.376L99.002 504.28L96.636 504.28L97.028 502.908L96.076 502.782C95.894 503.566 95.6 504.546 95.348 505.204L99.002 505.204L99.002 507.36L100.024 507.36L100.024 505.204L103.202 505.204L103.202 504.28L100.024 504.28L100.024 502.376L102.768 502.376L102.768 501.452L100.024 501.452L100.024 500.374L99.002 500.374L99.002 501.452L95.754 501.452ZM91.092 495.054L91.092 507.332L92.03 507.332L92.03 496.006L93.906 496.006C93.556 496.944 93.108 498.176 92.646 499.17C93.78 500.29 94.074 501.242 94.088 502.012C94.088 502.46 94.004 502.852 93.752 502.992C93.64 503.09 93.472 503.118 93.276 503.132C93.038 503.146 92.73 503.146 92.38 503.104C92.548 503.384 92.646 503.776 92.66 504.042C92.996 504.056 93.36 504.056 93.668 504.014C93.976 503.986 94.228 503.902 94.438 503.762C94.844 503.468 95.026 502.866 95.026 502.11C95.026 501.228 94.76 500.22 93.626 499.058C94.158 497.938 94.718 496.58 95.166 495.432L94.48 495.012L94.326 495.054L91.092 495.054ZM111.378 495.852L114.612 495.852L114.612 497.322L111.378 497.322L111.378 495.852ZM110.454 495.054L110.454 498.12L115.578 498.12L115.578 495.054L110.454 495.054ZM109.88 499.52L111.728 499.52L111.728 501.116L109.88 501.116L109.88 499.52ZM114.22 499.52L116.124 499.52L116.124 501.116L114.22 501.116L114.22 499.52ZM105.05 495.754L105.05 505.05L105.918 505.05L105.918 503.958L108.27 503.958L108.27 495.754L105.05 495.754ZM105.918 496.762L107.402 496.762L107.402 502.936L105.918 502.936L105.918 496.762ZM112.484 501.9L112.484 502.964L108.788 502.964L108.788 503.846L111.826 503.846C110.86 504.882 109.334 505.778 107.878 506.226C108.088 506.422 108.396 506.8 108.536 507.052C109.964 506.534 111.462 505.568 112.484 504.42L112.484 507.374L113.478 507.374L113.478 504.35C114.36 505.414 115.662 506.408 116.852 506.926C117.02 506.674 117.314 506.31 117.538 506.114C116.306 505.68 114.962 504.798 114.108 503.846L117.314 503.846L117.314 502.964L113.478 502.964L113.478 501.9L117.006 501.9L117.006 498.75L113.38 498.75L113.38 501.9L112.582 501.9L112.582 498.75L109.054 498.75L109.054 501.9L112.484 501.9ZM118.798 502.908L118.798 503.916L127.534 503.916L127.534 502.908L118.798 502.908ZM121.654 494.788C121.304 496.72 120.73 499.366 120.296 500.92L121.178 500.934L121.402 500.934L129.298 500.934C128.976 504.14 128.612 505.61 128.094 506.03C127.912 506.184 127.716 506.198 127.366 506.198C126.96 506.198 125.868 506.184 124.776 506.086C124.986 506.38 125.14 506.814 125.168 507.136C126.162 507.192 127.17 507.22 127.674 507.192C128.276 507.15 128.64 507.066 129.004 506.702C129.648 506.086 130.026 504.462 130.432 500.458C130.46 500.304 130.474 499.94 130.474 499.94L121.654 499.94C121.822 499.184 122.018 498.302 122.2 497.42L130.264 497.42L130.264 496.412L122.41 496.412L122.704 494.9L121.654 494.788ZM141.38 499.31L141.38 502.11C141.38 503.552 141.058 505.442 137.74 506.534C137.978 506.73 138.258 507.08 138.384 507.29C141.94 505.988 142.374 503.888 142.374 502.124L142.374 499.31L141.38 499.31ZM142.15 505.008C143.032 505.708 144.166 506.716 144.712 507.346L145.44 506.604C144.88 506.002 143.718 505.036 142.85 504.364L142.15 505.008ZM133.232 497.728C134.086 498.302 135.178 499.072 135.948 499.66L132.532 499.66L132.532 500.598L134.842 500.598L134.842 506.1C134.842 506.282 134.786 506.324 134.576 506.338C134.38 506.338 133.736 506.338 133.008 506.324C133.162 506.618 133.302 507.038 133.344 507.332C134.31 507.332 134.94 507.318 135.332 507.15C135.738 506.982 135.85 506.688 135.85 506.128L135.85 500.598L137.348 500.598C137.096 501.354 136.816 502.124 136.564 502.656L137.362 502.866C137.74 502.11 138.174 500.878 138.538 499.8L137.88 499.618L137.726 499.66L136.774 499.66L137.054 499.296C136.732 499.044 136.284 498.708 135.78 498.372C136.606 497.63 137.516 496.552 138.118 495.544L137.474 495.096L137.292 495.152L132.826 495.152L132.826 496.09L136.592 496.09C136.158 496.72 135.584 497.406 135.052 497.868L133.806 497.056L133.232 497.728ZM139 497.448L139 504.112L139.98 504.112L139.98 498.414L143.844 498.414L143.844 504.084L144.866 504.084L144.866 497.448L142.136 497.448L142.626 496.048L145.426 496.048L145.426 495.096L138.496 495.096L138.496 496.048L141.478 496.048C141.38 496.51 141.254 497.014 141.128 497.448L139 497.448ZM151.964 497.672C151.698 499.646 151.208 501.256 150.536 502.572C149.962 501.62 149.5 500.402 149.15 498.848C149.276 498.47 149.402 498.078 149.528 497.672L151.964 497.672ZM149.08 494.536C148.702 497.28 147.834 499.926 146.728 501.382C147.008 501.522 147.386 501.802 147.582 501.97C147.946 501.48 148.282 500.892 148.59 500.22C148.968 501.564 149.43 502.656 149.976 503.524C149.052 504.91 147.876 505.89 146.476 506.562C146.742 506.716 147.162 507.136 147.344 507.374C148.632 506.716 149.738 505.764 150.648 504.462C152.356 506.478 154.61 506.926 157.018 506.926L159.076 506.926C159.146 506.618 159.328 506.1 159.51 505.834C158.964 505.848 157.508 505.848 157.074 505.848C154.918 505.848 152.804 505.456 151.222 503.552C152.174 501.844 152.832 499.66 153.14 496.86L152.454 496.664L152.244 496.706L149.78 496.706C149.934 496.09 150.074 495.446 150.186 494.802L149.08 494.536ZM154.61 494.508L154.61 504.812L155.73 504.812L155.73 498.96C156.682 500.066 157.704 501.382 158.194 502.25L159.118 501.676C158.488 500.668 157.158 499.086 156.094 497.924L155.73 498.134L155.73 494.508L154.61 494.508ZM166.664 498.68L168.806 498.68L168.806 500.486L166.664 500.486L166.664 498.68ZM169.716 498.68L171.858 498.68L171.858 500.486L169.716 500.486L169.716 498.68ZM166.664 496.048L168.806 496.048L168.806 497.826L166.664 497.826L166.664 496.048ZM169.716 496.048L171.858 496.048L171.858 497.826L169.716 497.826L169.716 496.048ZM164.452 505.932L164.452 506.898L173.538 506.898L173.538 505.932L169.8 505.932L169.8 504L173.062 504L173.062 503.048L169.8 503.048L169.8 501.396L172.866 501.396L172.866 495.124L165.698 495.124L165.698 501.396L168.722 501.396L168.722 503.048L165.53 503.048L165.53 504L168.722 504L168.722 505.932L164.452 505.932ZM160.49 504.84L160.756 505.904C161.988 505.498 163.598 504.952 165.11 504.448L164.928 503.426L163.388 503.944L163.388 500.458L164.802 500.458L164.802 499.478L163.388 499.478L163.388 496.412L165.012 496.412L165.012 495.432L160.644 495.432L160.644 496.412L162.38 496.412L162.38 499.478L160.784 499.478L160.784 500.458L162.38 500.458L162.38 504.266C161.666 504.49 161.022 504.686 160.49 504.84Z"></path></g><g ><path     fill="#5B9BD5"  d="M275.116 496.584L275.116 497.484L282.964 497.484L282.964 500.64L276.664 500.64L276.664 498.66L275.752 498.66L275.752 504.696C275.752 506.184 276.364 506.544 278.308 506.544C278.764 506.544 282.34 506.544 282.82 506.544C284.8 506.544 285.196 505.884 285.424 503.676C285.16 503.628 284.752 503.472 284.512 503.304C284.344 505.236 284.14 505.656 282.832 505.656C282.016 505.656 278.896 505.656 278.26 505.656C276.94 505.656 276.664 505.476 276.664 504.708L276.664 501.528L282.964 501.528L282.964 502.128L283.9 502.128L283.9 496.584L275.116 496.584ZM288.724 499.368L288.724 500.196L295.252 500.196L295.252 499.368L288.724 499.368ZM286.672 501.6L286.672 502.44L289.9 502.44C289.756 504.576 289.264 505.62 286.528 506.148C286.696 506.328 286.936 506.664 287.008 506.892C290.008 506.256 290.644 504.948 290.824 502.44L292.936 502.44L292.936 505.452C292.936 506.412 293.212 506.688 294.328 506.688C294.556 506.688 295.924 506.688 296.164 506.688C297.124 506.688 297.376 506.268 297.484 504.624C297.244 504.552 296.86 504.408 296.656 504.264C296.62 505.644 296.548 505.86 296.092 505.86C295.78 505.86 294.652 505.86 294.412 505.86C293.92 505.86 293.836 505.8 293.836 505.452L293.836 502.44L297.316 502.44L297.316 501.6L286.672 501.6ZM291.052 495.996C291.268 496.368 291.496 496.824 291.652 497.22L286.984 497.22L286.984 499.884L287.884 499.884L287.884 498.084L296.056 498.084L296.056 499.884L296.992 499.884L296.992 497.22L292.72 497.22C292.552 496.776 292.24 496.176 291.952 495.732L291.052 495.996ZM304.528 495.852C304.528 496.536 304.552 497.22 304.588 497.88L299.536 497.88L299.536 501.252C299.536 502.812 299.428 504.888 298.432 506.364C298.648 506.472 299.032 506.784 299.188 506.964C300.292 505.38 300.472 502.956 300.472 501.264L300.472 501.18L302.668 501.18C302.62 503.244 302.56 504.012 302.404 504.192C302.308 504.3 302.2 504.324 302.02 504.324C301.816 504.324 301.3 504.324 300.748 504.264C300.892 504.492 300.988 504.852 301 505.104C301.588 505.14 302.14 505.14 302.452 505.116C302.776 505.08 302.98 504.996 303.172 504.768C303.424 504.444 303.484 503.424 303.544 500.724C303.544 500.604 303.556 500.34 303.556 500.34L300.472 500.34L300.472 498.756L304.648 498.756C304.792 500.7 305.08 502.476 305.536 503.856C304.744 504.768 303.82 505.512 302.752 506.076C302.944 506.256 303.268 506.628 303.412 506.82C304.336 506.268 305.164 505.608 305.896 504.816C306.448 506.052 307.168 506.796 308.092 506.796C309.016 506.796 309.352 506.196 309.508 504.144C309.268 504.06 308.932 503.856 308.728 503.652C308.656 505.248 308.512 505.872 308.164 505.872C307.552 505.872 307.012 505.188 306.568 504.012C307.456 502.86 308.164 501.492 308.68 499.92L307.78 499.692C307.396 500.904 306.88 501.996 306.232 502.956C305.92 501.792 305.692 500.364 305.56 498.756L309.412 498.756L309.412 497.88L305.512 497.88C305.476 497.22 305.464 496.548 305.464 495.852L304.528 495.852ZM306.052 496.44C306.82 496.836 307.744 497.448 308.2 497.88L308.764 497.256C308.296 496.848 307.348 496.26 306.592 495.888L306.052 496.44Z"></path></g><g opacity="0.3"><circle cx="65" cy="540" r="10"   fill="#5B9BD5" ></circle></g><g ><path     fill="#5B9BD5"  d="M60.5 541.8C60.5 544.29 62.51 546.3 65 546.3C67.49 546.3 69.5 544.29 69.5 541.8C69.5 539.31 67.49 537.3 65 537.3C62.51 537.3 60.5 539.31 60.5 541.8Z"></path></g><g ><path     fill="#5B9BD5"  d="M91.246 535.53C92.002 536.202 92.954 537.154 93.402 537.77L94.298 536.832C93.85 536.244 92.842 535.348 92.1 534.732L91.246 535.53ZM95.432 537.42L95.432 538.568L97.154 538.568L96.762 540.192L94.452 540.192L94.452 541.396L103.482 541.396L103.482 540.192L101.886 540.192C101.984 539.31 102.082 538.33 102.124 537.434L101.2 537.364L101.004 537.42L98.736 537.42L99.002 536.076L103.006 536.076L103.006 534.9L94.942 534.9L94.942 536.076L97.672 536.076L97.392 537.42L95.432 537.42ZM98.106 540.192L98.484 538.568L100.794 538.568L100.64 540.192L98.106 540.192ZM95.558 542.404L95.558 547.416L96.818 547.416L96.818 546.898L101.242 546.898L101.242 547.374L102.558 547.374L102.558 542.404L95.558 542.404ZM96.818 545.75L96.818 543.566L101.242 543.566L101.242 545.75L96.818 545.75ZM92.492 547.094C92.716 546.814 93.122 546.506 95.516 544.84C95.404 544.574 95.236 544.07 95.18 543.72L93.626 544.742L93.626 538.764L90.574 538.764L90.574 540.038L92.394 540.038L92.394 544.784C92.394 545.386 92.072 545.764 91.82 545.932C92.058 546.212 92.38 546.786 92.492 547.094ZM109.95 534.522C110.146 534.844 110.328 535.25 110.454 535.628L105.526 535.628L105.526 536.818L113.38 536.818C113.198 537.434 112.848 538.302 112.54 538.89L109.306 538.89L109.488 538.848C109.376 538.288 109.04 537.448 108.648 536.846L107.36 537.112C107.654 537.63 107.934 538.344 108.06 538.89L104.742 538.89L104.742 540.08L117.272 540.08L117.272 538.89L113.982 538.89C114.262 538.358 114.584 537.714 114.864 537.112L113.52 536.818L116.6 536.818L116.6 535.628L111.938 535.628C111.812 535.194 111.574 534.69 111.308 534.298L109.95 534.522ZM107.906 544.518L114.192 544.518L114.192 545.82L107.906 545.82L107.906 544.518ZM107.906 543.482L107.906 542.25L114.192 542.25L114.192 543.482L107.906 543.482ZM106.59 541.144L106.59 547.43L107.906 547.43L107.906 546.926L114.192 546.926L114.192 547.416L115.564 547.416L115.564 541.144L106.59 541.144ZM119.078 541.732C119.204 541.606 119.666 541.522 120.128 541.522L121.29 541.522L121.29 543.37L118.49 543.79L118.756 545.078L121.29 544.602L121.29 547.374L122.564 547.374L122.564 544.364L124.314 544.042L124.258 542.894L122.564 543.16L122.564 541.522L123.824 541.522L123.824 540.332L122.564 540.332L122.564 538.26L121.29 538.26L121.29 540.332L120.142 540.332C120.562 539.408 120.982 538.33 121.346 537.21L123.88 537.21L123.88 535.992L121.696 535.992C121.822 535.544 121.934 535.096 122.032 534.662L120.73 534.424C120.66 534.942 120.562 535.474 120.436 535.992L118.574 535.992L118.574 537.21L120.128 537.21C119.834 538.288 119.526 539.156 119.4 539.478C119.148 540.08 118.938 540.514 118.686 540.584C118.826 540.906 119.022 541.48 119.078 541.732ZM123.978 538.624L123.978 539.856L125.868 539.856C125.574 540.85 125.294 541.76 125.028 542.488L128.948 542.488C128.5 543.104 127.982 543.804 127.478 544.462C127.016 544.168 126.54 543.888 126.092 543.636L125.252 544.49C126.708 545.33 128.444 546.632 129.298 547.458L130.166 546.422C129.746 546.044 129.158 545.596 128.486 545.134C129.382 543.972 130.348 542.684 131.062 541.634L130.124 541.172L129.914 541.256L126.82 541.256L127.226 539.856L131.468 539.856L131.468 538.624L127.576 538.624L127.954 537.21L130.978 537.21L130.978 535.992L128.276 535.992L128.626 534.592L127.31 534.438L126.932 535.992L124.496 535.992L124.496 537.21L126.61 537.21L126.232 538.624L123.978 538.624ZM137.852 534.718C138.244 535.39 138.636 536.272 138.804 536.846L132.672 536.846L132.672 538.134L134.856 538.134C135.654 540.192 136.704 541.97 138.062 543.426C136.564 544.658 134.702 545.526 132.434 546.142C132.7 546.45 133.106 547.066 133.26 547.388C135.556 546.674 137.474 545.708 139.042 544.378C140.568 545.708 142.444 546.702 144.712 547.318C144.922 546.94 145.314 546.38 145.608 546.086C143.424 545.554 141.59 544.63 140.078 543.412C141.408 541.998 142.444 540.262 143.2 538.134L145.398 538.134L145.398 536.846L139.042 536.846L140.288 536.454C140.106 535.866 139.658 534.97 139.252 534.298L137.852 534.718ZM139.07 542.502C137.852 541.256 136.9 539.786 136.228 538.134L141.702 538.134C141.072 539.884 140.204 541.312 139.07 542.502ZM152.286 541.144L152.286 541.97L146.924 541.97L146.924 543.23L152.286 543.23L152.286 545.82C152.286 546.016 152.202 546.086 151.95 546.086C151.684 546.1 150.704 546.1 149.808 546.072C150.032 546.422 150.284 547.01 150.382 547.402C151.544 547.402 152.356 547.388 152.93 547.178C153.518 546.968 153.7 546.604 153.7 545.862L153.7 543.23L159.062 543.23L159.062 541.97L153.7 541.97L153.7 541.564C154.918 540.892 156.094 539.968 156.948 539.086L156.066 538.4L155.744 538.47L149.276 538.47L149.276 539.702L154.414 539.702C153.784 540.248 153.014 540.78 152.286 541.144ZM151.81 534.718C152.048 535.04 152.272 535.446 152.454 535.824L147.05 535.824L147.05 538.862L148.352 538.862L148.352 537.084L157.578 537.084L157.578 538.862L158.95 538.862L158.95 535.824L154.022 535.824C153.826 535.362 153.49 534.774 153.126 534.312L151.81 534.718Z"></path></g><g ><path     fill="#5B9BD5"  d="M274.972 536.584C275.632 537.184 276.436 538.06 276.808 538.612L277.504 538.036C277.108 537.508 276.28 536.68 275.62 536.092L274.972 536.584ZM282.64 536.092L282.64 538.024L280.66 538.024L280.66 536.092L279.772 536.092L279.772 538.024L278.068 538.024L278.068 538.888L279.772 538.888L279.772 540.292L279.748 541.036L277.996 541.036L277.996 541.9L279.652 541.9C279.472 542.812 279.076 543.7 278.176 544.384C278.368 544.516 278.704 544.852 278.824 545.032C279.892 544.216 280.36 543.052 280.54 541.9L282.64 541.9L282.64 544.96L283.54 544.96L283.54 541.9L285.328 541.9L285.328 541.036L283.54 541.036L283.54 538.888L285.088 538.888L285.088 538.024L283.54 538.024L283.54 536.092L282.64 536.092ZM280.66 538.888L282.64 538.888L282.64 541.036L280.636 541.036L280.66 540.304L280.66 538.888ZM277.144 540.184L274.6 540.184L274.6 541.024L276.256 541.024L276.256 544.468C275.716 544.672 275.092 545.2 274.456 545.896L275.056 546.712C275.68 545.896 276.268 545.188 276.676 545.188C276.94 545.188 277.324 545.584 277.828 545.896C278.656 546.424 279.664 546.556 281.152 546.556C282.292 546.556 284.452 546.484 285.304 546.436C285.316 546.172 285.46 545.74 285.568 545.5C284.404 545.632 282.592 545.728 281.176 545.728C279.82 545.728 278.812 545.644 278.02 545.152C277.624 544.9 277.372 544.672 277.144 544.54L277.144 540.184ZM291.22 536.56L291.22 537.424L297.124 537.424L297.124 536.56L291.22 536.56ZM289.204 535.828C288.592 536.704 287.428 537.772 286.42 538.456C286.576 538.624 286.828 538.972 286.948 539.176C288.028 538.408 289.264 537.232 290.068 536.188L289.204 535.828ZM290.692 539.872L290.692 540.736L294.736 540.736L294.736 545.716C294.736 545.908 294.652 545.968 294.424 545.98C294.208 545.992 293.392 545.992 292.54 545.956C292.672 546.22 292.804 546.592 292.84 546.844C294.016 546.844 294.7 546.844 295.108 546.712C295.504 546.556 295.648 546.28 295.648 545.728L295.648 540.736L297.46 540.736L297.46 539.872L290.692 539.872ZM289.684 538.408C288.856 539.776 287.536 541.168 286.3 542.056C286.48 542.236 286.804 542.632 286.936 542.812C287.38 542.452 287.848 542.02 288.304 541.552L288.304 546.916L289.192 546.916L289.192 540.568C289.696 539.968 290.152 539.344 290.536 538.72L289.684 538.408ZM303.496 535.84L303.496 537.988L299.152 537.988L299.152 543.688L300.052 543.688L300.052 542.944L303.496 542.944L303.496 546.868L304.444 546.868L304.444 542.944L307.9 542.944L307.9 543.628L308.824 543.628L308.824 537.988L304.444 537.988L304.444 535.84L303.496 535.84ZM300.052 542.056L300.052 538.864L303.496 538.864L303.496 542.056L300.052 542.056ZM307.9 542.056L304.444 542.056L304.444 538.864L307.9 538.864L307.9 542.056Z"></path></g><g opacity="0.9"><rect  x="40" y="600" width="145" height="44" rx="22"    fill="#FFFFFF" ></rect></g><g ><path     fill="#7BA8C9"  d="M86.114 618.74L86.114 622.366C86.114 624.536 85.96 627.532 84.448 629.66C84.7 629.8 85.148 630.164 85.33 630.388C86.94 628.106 87.178 624.704 87.178 622.366L97.356 622.366L97.356 621.358L87.178 621.358L87.178 619.622C90.384 619.412 93.954 619.034 96.39 618.446L95.494 617.592C93.338 618.138 89.432 618.544 86.114 618.74ZM88.368 624.368L88.368 630.374L89.418 630.374L89.418 629.646L95.228 629.646L95.228 630.346L96.334 630.346L96.334 624.368L88.368 624.368ZM89.418 628.666L89.418 625.348L95.228 625.348L95.228 628.666L89.418 628.666ZM100.506 624.452L100.506 630.346L101.57 630.346L101.57 629.59L108.374 629.59L108.374 630.318L109.494 630.318L109.494 624.452L100.506 624.452ZM101.57 628.568L101.57 625.46L108.374 625.46L108.374 628.568L101.57 628.568ZM99.764 623.276C100.31 623.066 101.136 623.038 109.2 622.604C109.55 623.038 109.844 623.444 110.054 623.808L110.95 623.164C110.222 621.988 108.584 620.266 107.212 619.062L106.386 619.622C107.058 620.224 107.786 620.966 108.43 621.68L101.234 622.016C102.48 620.868 103.74 619.426 104.86 617.886L103.81 617.424C102.704 619.16 101.066 620.938 100.562 621.414C100.086 621.876 99.736 622.17 99.414 622.24C99.54 622.52 99.708 623.052 99.764 623.276ZM112.588 628.442L112.784 629.422C114.044 629.114 115.738 628.694 117.348 628.288L117.264 627.406C115.514 627.812 113.75 628.218 112.588 628.442ZM124.138 618.46C123.914 619.258 123.466 620.406 123.116 621.12L123.774 621.358C124.152 620.672 124.614 619.608 124.992 618.712L124.138 618.46ZM119.42 618.67C119.742 619.524 120.12 620.63 120.274 621.358L121.03 621.12C120.862 620.42 120.47 619.328 120.134 618.474L119.42 618.67ZM117.81 618.04L117.81 629.618L125.342 629.618L125.342 628.68L118.776 628.68L118.776 618.04L117.81 618.04ZM112.84 623.318C113.05 623.22 113.372 623.136 115.08 622.912C114.464 623.822 113.904 624.55 113.652 624.83C113.232 625.334 112.91 625.698 112.616 625.754C112.714 626.006 112.882 626.482 112.938 626.692C113.218 626.524 113.694 626.384 117.18 625.684C117.166 625.474 117.152 625.068 117.18 624.802L114.38 625.306C115.458 624.046 116.494 622.506 117.376 620.952L116.522 620.448C116.27 620.966 115.962 621.498 115.668 621.988L113.876 622.184C114.674 620.966 115.458 619.398 116.032 617.914L115.038 617.466C114.534 619.16 113.582 620.994 113.26 621.456C112.98 621.946 112.742 622.268 112.504 622.338C112.63 622.604 112.784 623.108 112.84 623.318ZM121.716 617.592L121.716 621.946L119.168 621.946L119.168 622.856L121.422 622.856C120.862 624.13 119.994 625.474 119.182 626.23C119.336 626.468 119.56 626.846 119.644 627.098C120.4 626.37 121.156 625.138 121.716 623.878L121.716 628.148L122.612 628.148L122.612 623.878C123.284 624.774 124.18 626.034 124.516 626.65L125.174 625.922C124.81 625.432 123.27 623.528 122.654 622.856L125.23 622.856L125.23 621.946L122.612 621.946L122.612 617.592L121.716 617.592ZM132.636 622.912C133.252 623.276 133.994 623.808 134.358 624.214L134.862 623.626C134.498 623.234 133.742 622.716 133.126 622.394L132.636 622.912ZM131.614 624.186C132.272 624.55 133.042 625.138 133.406 625.544L133.924 624.942C133.532 624.536 132.762 623.99 132.118 623.64L131.614 624.186ZM135.646 627.77C136.752 628.526 138.082 629.646 138.712 630.388L139.398 629.73C138.74 629.002 137.382 627.924 136.29 627.196L135.646 627.77ZM126.602 628.428L126.84 629.408C128.03 628.96 129.584 628.358 131.054 627.798L130.886 626.93C129.29 627.504 127.68 628.092 126.602 628.428ZM131.614 620.938L131.614 621.848L137.914 621.848C137.718 622.45 137.494 623.066 137.298 623.5L138.138 623.724C138.46 623.052 138.824 622.002 139.118 621.064L138.446 620.896L138.278 620.938L135.702 620.938L135.702 619.678L138.39 619.678L138.39 618.782L135.702 618.782L135.702 617.48L134.666 617.48L134.666 618.782L132.132 618.782L132.132 619.678L134.666 619.678L134.666 620.938L131.614 620.938ZM135.072 622.394L135.072 624.06C135.072 624.578 135.044 625.152 134.904 625.726L131.32 625.726L131.32 626.65L134.582 626.65C134.064 627.714 133.056 628.764 131.054 629.604C131.25 629.8 131.544 630.15 131.67 630.388C134.064 629.352 135.17 628.008 135.66 626.65L139.146 626.65L139.146 625.726L135.912 625.726C136.024 625.166 136.052 624.606 136.052 624.088L136.052 622.394L135.072 622.394ZM126.854 623.318C127.05 623.22 127.372 623.136 129.01 622.926C128.422 623.836 127.89 624.564 127.652 624.844C127.232 625.376 126.924 625.74 126.644 625.796C126.742 626.034 126.896 626.496 126.952 626.692C127.218 626.496 127.68 626.342 130.956 625.446C130.928 625.25 130.9 624.844 130.9 624.564L128.464 625.166C129.444 623.92 130.41 622.422 131.208 620.924L130.382 620.448C130.144 620.98 129.85 621.512 129.556 622.016L127.89 622.184C128.716 620.966 129.542 619.426 130.144 617.928L129.234 617.508C128.66 619.202 127.652 621.036 127.33 621.512C127.022 621.988 126.784 622.324 126.532 622.38C126.644 622.646 126.798 623.122 126.854 623.318Z"></path></g><g opacity="0.85"><rect  x="205" y="600" width="145" height="44" rx="22"    fill="#FF6B6B" ></rect></g><g ><path     fill="#FFFFFF"  d="M260.732 620.196C260.424 622.072 259.92 623.738 259.248 625.152C258.618 623.696 258.184 622.016 257.89 620.196L260.732 620.196ZM256.112 618.95L256.112 620.196L256.7 620.196C257.106 622.604 257.666 624.732 258.52 626.496C257.722 627.77 256.77 628.778 255.692 629.436C255.986 629.66 256.35 630.108 256.546 630.43C257.554 629.744 258.45 628.862 259.22 627.756C259.892 628.792 260.704 629.66 261.698 630.318C261.908 629.982 262.314 629.52 262.608 629.282C261.53 628.638 260.662 627.714 259.976 626.566C261.026 624.634 261.768 622.17 262.118 619.118L261.292 618.908L261.068 618.95L256.112 618.95ZM249.504 627.308L249.784 628.582L253.802 627.882L253.802 630.388L255.104 630.388L255.104 627.644L256.322 627.42L256.252 626.314L255.104 626.496L255.104 619.23L256.042 619.23L256.042 618.04L249.658 618.04L249.658 619.23L250.526 619.23L250.526 627.168L249.504 627.308ZM251.786 619.23L253.802 619.23L253.802 620.952L251.786 620.952L251.786 619.23ZM251.786 622.1L253.802 622.1L253.802 623.906L251.786 623.906L251.786 622.1ZM251.786 625.04L253.802 625.04L253.802 626.692L251.786 626.986L251.786 625.04ZM274.942 617.774C274.634 618.614 274.032 619.734 273.57 620.448L274.718 620.91C275.18 620.224 275.754 619.216 276.23 618.264L274.942 617.774ZM267.872 618.362C268.446 619.174 269.02 620.28 269.216 620.994L270.42 620.42C270.182 619.706 269.566 618.642 268.992 617.872L267.872 618.362ZM264.134 618.474C265.002 618.936 266.066 619.664 266.556 620.196L267.382 619.174C266.85 618.656 265.772 617.984 264.904 617.564L264.134 618.474ZM263.476 622.212C264.358 622.66 265.45 623.402 265.968 623.906L266.766 622.87C266.22 622.366 265.1 621.694 264.232 621.274L263.476 622.212ZM263.896 629.45L265.044 630.304C265.786 628.946 266.626 627.238 267.27 625.74L266.29 624.942C265.548 626.552 264.582 628.372 263.896 629.45ZM269.58 625.04L274.354 625.04L274.354 626.356L269.58 626.356L269.58 625.04ZM269.58 623.906L269.58 622.618L274.354 622.618L274.354 623.906L269.58 623.906ZM271.344 617.41L271.344 621.386L268.278 621.386L268.278 630.402L269.58 630.402L269.58 627.49L274.354 627.49L274.354 628.862C274.354 629.058 274.284 629.114 274.074 629.128C273.85 629.142 273.108 629.142 272.38 629.1C272.548 629.45 272.744 630.01 272.786 630.36C273.85 630.36 274.578 630.346 275.04 630.136C275.516 629.926 275.642 629.562 275.642 628.876L275.642 621.386L272.688 621.386L272.688 617.41L271.344 617.41ZM278.078 624.732C278.204 624.606 278.666 624.522 279.128 624.522L280.29 624.522L280.29 626.37L277.49 626.79L277.756 628.078L280.29 627.602L280.29 630.374L281.564 630.374L281.564 627.364L283.314 627.042L283.258 625.894L281.564 626.16L281.564 624.522L282.824 624.522L282.824 623.332L281.564 623.332L281.564 621.26L280.29 621.26L280.29 623.332L279.142 623.332C279.562 622.408 279.982 621.33 280.346 620.21L282.88 620.21L282.88 618.992L280.696 618.992C280.822 618.544 280.934 618.096 281.032 617.662L279.73 617.424C279.66 617.942 279.562 618.474 279.436 618.992L277.574 618.992L277.574 620.21L279.128 620.21C278.834 621.288 278.526 622.156 278.4 622.478C278.148 623.08 277.938 623.514 277.686 623.584C277.826 623.906 278.022 624.48 278.078 624.732ZM282.978 621.624L282.978 622.856L284.868 622.856C284.574 623.85 284.294 624.76 284.028 625.488L287.948 625.488C287.5 626.104 286.982 626.804 286.478 627.462C286.016 627.168 285.54 626.888 285.092 626.636L284.252 627.49C285.708 628.33 287.444 629.632 288.298 630.458L289.166 629.422C288.746 629.044 288.158 628.596 287.486 628.134C288.382 626.972 289.348 625.684 290.062 624.634L289.124 624.172L288.914 624.256L285.82 624.256L286.226 622.856L290.468 622.856L290.468 621.624L286.576 621.624L286.954 620.21L289.978 620.21L289.978 618.992L287.276 618.992L287.626 617.592L286.31 617.438L285.932 618.992L283.496 618.992L283.496 620.21L285.61 620.21L285.232 621.624L282.978 621.624ZM292.022 618.138L292.022 621.064L293.338 621.064L293.338 619.37L302.62 619.37L302.62 621.064L303.992 621.064L303.992 618.138L292.022 618.138ZM292.246 626.188L292.246 627.406L300.114 627.406L300.114 626.188L292.246 626.188ZM295.088 619.594C294.794 621.288 294.318 623.556 293.926 624.914L301.276 624.914C301.024 627.448 300.744 628.596 300.352 628.932C300.184 629.072 300.016 629.086 299.694 629.086C299.316 629.086 298.378 629.072 297.426 628.988C297.664 629.338 297.846 629.87 297.874 630.234C298.784 630.276 299.68 630.304 300.156 630.262C300.73 630.22 301.108 630.108 301.458 629.744C302.004 629.198 302.326 627.77 302.648 624.326C302.676 624.144 302.704 623.738 302.704 623.738L295.578 623.738L295.914 622.226L302.2 622.226L302.2 621.078L296.152 621.078L296.418 619.72L295.088 619.594Z"></path></g></g><defs><clipPath id="clip-path-tbkgZs5Fy4qkNO9Zig-PK"><path d="M0 844L390 844L390 0L0 0L0 844Z" fill="white"/></clipPath></defs></svg>