<svg xmlns="http://www.w3.org/2000/svg" xmlns:xlink="http://www.w3.org/1999/xlink" width="389.99998474121094" height="844" viewBox="0 0 389.99998474121094 844" fill="none"><g  clip-path="url(#clip-path-2Z0iWVDATCpW80BUCaPzb)"><rect x="0" y="0" width="390" height="54"   fill="#E8F4FD" ></rect><g ><path     fill="#333333"  d="M33.66 38.61C35.775 38.61 37.755 36.84 37.755 32.505C37.755 28.845 36.045 27.15 33.93 27.15C32.145 27.15 30.63 28.59 30.63 30.78C30.63 33.09 31.89 34.26 33.735 34.26C34.575 34.26 35.505 33.765 36.135 32.985C36.045 36.105 34.92 37.17 33.57 37.17C32.88 37.17 32.205 36.855 31.77 36.345L30.825 37.425C31.47 38.085 32.37 38.61 33.66 38.61ZM36.12 31.65C35.49 32.61 34.71 33 34.035 33C32.88 33 32.25 32.175 32.25 30.78C32.25 29.34 33 28.485 33.96 28.485C35.145 28.485 35.955 29.475 36.12 31.65ZM40.785 32.7C41.445 32.7 41.955 32.205 41.955 31.5C41.955 30.78 41.445 30.27 40.785 30.27C40.14 30.27 39.63 30.78 39.63 31.5C39.63 32.205 40.14 32.7 40.785 32.7ZM40.785 38.61C41.445 38.61 41.955 38.085 41.955 37.38C41.955 36.675 41.445 36.165 40.785 36.165C40.14 36.165 39.63 36.675 39.63 37.38C39.63 38.085 40.14 38.61 40.785 38.61ZM48.105 38.4L49.725 38.4L49.725 35.43L51.12 35.43L51.12 34.08L49.725 34.08L49.725 27.345L47.715 27.345L43.32 34.275L43.32 35.43L48.105 35.43L48.105 38.4ZM48.105 34.08L45.075 34.08L47.235 30.765C47.55 30.195 47.85 29.625 48.12 29.055L48.18 29.055C48.15 29.67 48.105 30.6 48.105 31.2L48.105 34.08ZM52.845 38.4L59.16 38.4L59.16 36.975L57.015 36.975L57.015 27.345L55.71 27.345C55.065 27.75 54.33 28.02 53.295 28.2L53.295 29.295L55.275 29.295L55.275 36.975L52.845 36.975L52.845 38.4Z"></path></g><g ><path     fill="#333333"  d="M341.5 40.2L353.5 40.2L353.5 25.2L341.5 25.2L341.5 40.2ZM347.5 32.085L342.73 25.95L352.27 25.95L347.5 32.085ZM347.98 32.7L352.75 26.565L352.75 38.835L347.98 32.7ZM342.73 39.45L347.5 33.315L352.27 39.45L342.73 39.45ZM342.25 26.565L347.02 32.7L342.25 38.835L342.25 26.565ZM356.5 40.2L368.5 40.2L368.5 25.2L356.5 25.2L356.5 40.2ZM362.5 32.085L357.73 25.95L367.27 25.95L362.5 32.085ZM362.98 32.7L367.75 26.565L367.75 38.835L362.98 32.7ZM357.73 39.45L362.5 33.315L367.27 39.45L357.73 39.45ZM357.25 26.565L362.02 32.7L357.25 38.835L357.25 26.565ZM371.5 40.2L383.5 40.2L383.5 25.2L371.5 25.2L371.5 40.2ZM377.5 32.085L372.73 25.95L382.27 25.95L377.5 32.085ZM377.98 32.7L382.75 26.565L382.75 38.835L377.98 32.7ZM372.73 39.45L377.5 33.315L382.27 39.45L372.73 39.45ZM372.25 26.565L377.02 32.7L372.25 38.835L372.25 26.565Z"></path></g><g ></g><g opacity="0.15"><circle cx="194.99998474121094" cy="130" r="42"   fill="#5B9BD5" ></circle></g><g opacity="0.25"><circle cx="194.99998474121094" cy="130" r="30"   fill="#5B9BD5" ></circle></g><circle cx="194.99998474121094" cy="130" r="20"   fill="#5B9BD5" ></circle><path    stroke="rgba(255, 255, 255, 1.00)" stroke-width="2.5"  stroke-linecap="round"  d="M195 115L195 142"></path><path   fill="rgba(255, 255, 255, 1.00)"  d="M195 117C199.418 117 203 120.582 203 125L203 133C203 137.418 199.418 141 195 141C190.582 141 187 137.418 187 133L187 125C187 120.582 190.582 117 195 117ZM195 119C191.686 119 189 121.686 189 125L189 133C189 136.314 191.686 139 195 139C198.314 139 201 136.314 201 133L201 125C201 121.686 198.314 119 195 119Z"></path><path     fill="#000000"  d="M191 128L199 136"></path><path    stroke="rgba(255, 255, 255, 1.00)" stroke-width="1.5"  stroke-linecap="round"  d="M191 128L199 136"></path><path     fill="#000000"  d="M199 128L191 136"></path><path    stroke="rgba(255, 255, 255, 1.00)" stroke-width="1.5"  stroke-linecap="round"  d="M199 128L191 136"></path><g ><path     fill="#2C5F8A"  d="M142.068 181.492C143.498 182.174 145.324 183.23 146.248 183.956L147.194 182.592C146.248 181.91 144.4 180.92 142.992 180.304L142.068 181.492ZM140.924 187.586C142.31 188.246 144.114 189.28 144.994 189.984L145.918 188.598C144.994 187.916 143.168 186.948 141.826 186.354L140.924 187.586ZM141.562 198.916L142.948 200.038C144.268 197.992 145.786 195.22 146.952 192.91L145.764 191.81C144.488 194.318 142.75 197.222 141.562 198.916ZM152.056 180.502C152.804 181.646 153.574 183.186 153.882 184.154L155.488 183.516C155.158 182.548 154.322 181.074 153.552 179.952L152.056 180.502ZM147.348 184.242L147.348 185.804L153.134 185.804L153.134 190.776L148.184 190.776L148.184 192.338L153.134 192.338L153.134 198.014L146.644 198.014L146.644 199.598L161.164 199.598L161.164 198.014L154.85 198.014L154.85 192.338L159.844 192.338L159.844 190.776L154.85 190.776L154.85 185.804L160.636 185.804L160.636 184.242L147.348 184.242ZM173.968 181.47L173.968 188.312L173.968 188.774L171.68 188.774L171.68 181.47L165.388 181.47L165.388 188.268L165.388 188.774L162.924 188.774L162.924 190.358L165.344 190.358C165.212 193.328 164.728 196.694 162.88 199.246C163.232 199.466 163.848 200.06 164.09 200.412C166.114 197.64 166.752 193.68 166.928 190.358L170.074 190.358L170.074 198.19C170.074 198.52 169.964 198.608 169.656 198.63C169.348 198.652 168.336 198.652 167.214 198.608C167.434 199.026 167.698 199.708 167.764 200.104C169.304 200.104 170.272 200.082 170.866 199.818C171.46 199.554 171.68 199.092 171.68 198.212L171.68 190.358L173.924 190.358C173.814 193.284 173.374 196.65 171.746 199.202C172.076 199.4 172.736 200.016 172.978 200.324C174.826 197.574 175.398 193.636 175.53 190.358L179.094 190.358L179.094 198.256C179.094 198.586 178.984 198.696 178.632 198.718C178.346 198.74 177.268 198.74 176.124 198.718C176.366 199.136 176.586 199.84 176.674 200.258C178.28 200.258 179.27 200.236 179.886 199.972C180.502 199.708 180.722 199.202 180.722 198.278L180.722 190.358L183.076 190.358L183.076 188.774L180.722 188.774L180.722 181.47L173.968 181.47ZM166.972 183.032L170.074 183.032L170.074 188.774L166.972 188.774L166.972 188.268L166.972 183.032ZM175.574 188.774L175.574 188.312L175.574 183.032L179.094 183.032L179.094 188.774L175.574 188.774ZM191.92 193.834C192.58 194.934 193.372 196.43 193.724 197.398L194.89 196.694C194.56 195.77 193.768 194.34 193.042 193.24L191.92 193.834ZM186.97 193.35C186.53 194.692 185.804 196.056 184.902 197.024C185.232 197.222 185.804 197.64 186.068 197.86C186.926 196.826 187.806 195.22 188.312 193.68L186.97 193.35ZM196.166 182.152L196.166 189.72C196.166 192.646 195.99 196.43 194.12 199.07C194.472 199.268 195.132 199.774 195.396 200.082C197.42 197.222 197.706 192.888 197.706 189.72L197.706 189.016L201.05 189.016L201.05 200.17L202.656 200.17L202.656 189.016L205.076 189.016L205.076 187.476L197.706 187.476L197.706 183.252C200.038 182.9 202.546 182.328 204.394 181.646L203.052 180.436C201.468 181.096 198.63 181.756 196.166 182.152ZM188.708 180.326C189.06 180.942 189.412 181.69 189.676 182.35L185.342 182.35L185.342 183.736L195.066 183.736L195.066 182.35L191.392 182.35C191.106 181.624 190.622 180.678 190.204 179.952L188.708 180.326ZM192.294 183.846C192.03 184.858 191.524 186.354 191.106 187.366L185.012 187.366L185.012 188.774L189.522 188.774L189.522 191.062L185.1 191.062L185.1 192.514L189.522 192.514L189.522 198.124C189.522 198.344 189.478 198.41 189.258 198.41C189.016 198.432 188.334 198.432 187.564 198.41C187.784 198.806 188.004 199.422 188.048 199.818C189.126 199.818 189.874 199.796 190.38 199.554C190.886 199.312 191.04 198.916 191.04 198.146L191.04 192.514L195.154 192.514L195.154 191.062L191.04 191.062L191.04 188.774L195.418 188.774L195.418 187.366L192.602 187.366C193.02 186.442 193.438 185.254 193.834 184.176L192.294 183.846ZM186.772 184.198C187.212 185.188 187.542 186.508 187.63 187.366L189.06 186.97C188.95 186.134 188.576 184.836 188.114 183.89L186.772 184.198ZM210.686 183.868L210.686 190.16C210.686 192.976 210.466 196.958 206.814 199.158C207.122 199.4 207.54 199.884 207.716 200.148C211.588 197.618 212.006 193.394 212.006 190.16L212.006 183.868L210.686 183.868ZM211.478 195.66C212.49 196.87 213.678 198.542 214.184 199.598L215.306 198.696C214.756 197.706 213.524 196.1 212.512 194.912L211.478 195.66ZM207.87 181.074L207.87 194.626L209.168 194.626L209.168 182.438L213.436 182.438L213.436 194.56L214.756 194.56L214.756 181.074L207.87 181.074ZM224.502 181.008C223.402 183.208 221.532 185.342 219.574 186.706C219.948 186.992 220.52 187.608 220.784 187.916C222.742 186.376 224.766 183.978 226.042 181.492L224.502 181.008ZM217 200.39C217.352 200.104 217.99 199.84 222.236 198.102C222.148 197.75 222.082 197.112 222.082 196.65L218.848 197.816L218.848 190.138L220.652 190.138C221.642 194.318 223.446 197.882 226.108 199.796C226.372 199.378 226.878 198.806 227.23 198.52C224.788 196.936 223.072 193.746 222.17 190.138L226.79 190.138L226.79 188.598L218.848 188.598L218.848 180.48L217.286 180.48L217.286 188.598L215.328 188.598L215.328 190.138L217.286 190.138L217.286 197.596C217.286 198.476 216.714 198.872 216.318 199.048C216.582 199.378 216.89 200.016 217 200.39ZM233.72 182.416L244.192 182.416L244.192 185.408L233.72 185.408L233.72 182.416ZM232.07 180.942L232.07 186.86L245.93 186.86L245.93 180.942L232.07 180.942ZM229.386 188.84L229.386 190.358L233.918 190.358C233.478 191.722 232.928 193.24 232.466 194.318L243.994 194.318C243.576 196.87 243.136 198.102 242.586 198.542C242.322 198.718 242.058 198.74 241.53 198.74C240.914 198.74 239.308 198.718 237.768 198.564C238.076 199.026 238.296 199.664 238.34 200.148C239.858 200.236 241.31 200.258 242.058 200.214C242.916 200.192 243.444 200.06 243.972 199.62C244.786 198.916 245.336 197.266 245.864 193.57C245.908 193.328 245.952 192.822 245.952 192.822L234.93 192.822L235.744 190.358L248.526 190.358L248.526 188.84L229.386 188.84Z"></path></g><g ><path     fill="#4A6A85"  d="M40.644 247.662L40.644 248.95L46.328 248.95L46.328 251.694C46.328 251.988 46.216 252.086 45.894 252.086C45.572 252.1 44.438 252.1 43.318 252.072C43.528 252.422 43.78 253.01 43.878 253.374C45.334 253.388 46.286 253.36 46.888 253.15C47.476 252.94 47.714 252.576 47.714 251.722L47.714 248.95L53.384 248.95L53.384 247.662L47.714 247.662L47.714 245.646L52.572 245.646L52.572 244.386L47.714 244.386L47.714 242.3C49.324 242.104 50.836 241.852 52.054 241.502L51.074 240.424C48.862 241.054 44.886 241.432 41.526 241.586C41.652 241.88 41.82 242.412 41.862 242.748C43.276 242.692 44.816 242.594 46.328 242.454L46.328 244.386L41.596 244.386L41.596 245.646L46.328 245.646L46.328 247.662L40.644 247.662ZM60.902 241.222L60.902 245.73C60.902 247.872 60.734 250.644 58.844 252.562C59.152 252.73 59.656 253.164 59.866 253.402C61.896 251.358 62.19 248.096 62.19 245.744L62.19 242.482L64.444 242.482L64.444 251.218C64.444 252.436 64.542 252.716 64.794 252.954C65.004 253.178 65.368 253.276 65.676 253.276C65.858 253.276 66.194 253.276 66.404 253.276C66.712 253.276 66.992 253.206 67.216 253.052C67.426 252.898 67.552 252.646 67.636 252.24C67.692 251.862 67.748 250.84 67.762 250.07C67.44 249.958 67.048 249.748 66.782 249.51C66.782 250.42 66.754 251.12 66.726 251.442C66.712 251.75 66.67 251.876 66.614 251.96C66.558 252.03 66.46 252.058 66.362 252.058C66.264 252.058 66.124 252.058 66.04 252.058C65.956 252.058 65.886 252.03 65.83 251.974C65.774 251.904 65.76 251.666 65.76 251.246L65.76 241.222L60.902 241.222ZM56.898 240.424L56.898 243.378L54.686 243.378L54.686 244.638L56.73 244.638C56.24 246.472 55.302 248.53 54.336 249.664C54.56 249.986 54.868 250.532 55.008 250.896C55.708 250 56.38 248.614 56.898 247.144L56.898 253.402L58.172 253.402L58.172 247.2C58.662 247.872 59.222 248.67 59.474 249.132L60.258 248.054C59.95 247.69 58.662 246.192 58.172 245.702L58.172 244.638L60.132 244.638L60.132 243.378L58.172 243.378L58.172 240.424L56.898 240.424ZM71.836 242.118L78.08 242.118L78.08 243.77L71.836 243.77L71.836 242.118ZM70.52 240.956L70.52 244.932L79.48 244.932L79.48 240.956L70.52 240.956ZM68.812 246.024L68.812 247.228L71.584 247.228C71.304 248.124 70.968 249.076 70.674 249.762L77.94 249.762C77.716 251.12 77.478 251.806 77.156 252.044C76.988 252.17 76.806 252.184 76.484 252.184C76.078 252.184 75.042 252.17 74.076 252.072C74.328 252.436 74.51 252.954 74.538 253.346C75.504 253.388 76.428 253.388 76.932 253.374C77.534 253.346 77.926 253.248 78.29 252.926C78.808 252.464 79.144 251.414 79.452 249.146C79.494 248.95 79.522 248.558 79.522 248.558L72.634 248.558L73.082 247.228L81.118 247.228L81.118 246.024L68.812 246.024Z"></path></g><g opacity="0.8"><rect  x="40" y="260" width="310" height="48" rx="12"    fill="#FFFFFF" ></rect></g><g ><path     fill="#B0C4DE"  d="M61.605 281.82C62.385 282.525 63.375 283.515 63.84 284.145L64.605 283.35C64.14 282.735 63.12 281.805 62.325 281.13L61.605 281.82ZM60.63 285.51L60.63 286.59L62.88 286.59L62.88 292.08C62.88 292.74 62.43 293.19 62.16 293.37C62.355 293.595 62.655 294.06 62.76 294.33C62.97 294.015 63.36 293.7 65.895 291.75C65.775 291.525 65.595 291.09 65.52 290.79L63.96 291.96L63.96 285.51L60.63 285.51ZM67.41 290.22L72.12 290.22L72.12 291.45L67.41 291.45L67.41 290.22ZM67.41 289.425L67.41 288.27L72.12 288.27L72.12 289.425L67.41 289.425ZM69.21 280.8L69.21 281.97L65.73 281.97L65.73 282.84L69.21 282.84L69.21 283.8L66.105 283.8L66.105 284.625L69.21 284.625L69.21 285.66L65.28 285.66L65.28 286.53L74.4 286.53L74.4 285.66L70.32 285.66L70.32 284.625L73.485 284.625L73.485 283.8L70.32 283.8L70.32 282.84L73.935 282.84L73.935 281.97L70.32 281.97L70.32 280.8L69.21 280.8ZM66.36 287.4L66.36 294.585L67.41 294.585L67.41 292.275L72.12 292.275L72.12 293.325C72.12 293.505 72.045 293.565 71.85 293.58C71.64 293.595 70.92 293.595 70.155 293.565C70.305 293.835 70.44 294.255 70.485 294.54C71.55 294.54 72.24 294.54 72.645 294.36C73.08 294.195 73.2 293.895 73.2 293.34L73.2 287.4L66.36 287.4ZM86.01 286.695L86.01 292.125L86.895 292.125L86.895 286.695L86.01 286.695ZM87.915 286.14L87.915 293.325C87.915 293.49 87.855 293.535 87.69 293.55C87.495 293.55 86.895 293.55 86.205 293.535C86.355 293.805 86.475 294.21 86.505 294.465C87.39 294.465 87.99 294.45 88.35 294.3C88.725 294.135 88.83 293.865 88.83 293.325L88.83 286.14L87.915 286.14ZM76.065 288.45C76.185 288.33 76.62 288.24 77.1 288.24L78.285 288.24L78.285 290.31C77.28 290.55 76.35 290.76 75.63 290.895L75.885 291.96L78.285 291.345L78.285 294.585L79.275 294.585L79.275 291.09L80.52 290.76L80.43 289.815L79.275 290.085L79.275 288.24L80.475 288.24L80.475 287.205L79.275 287.205L79.275 284.925L78.285 284.925L78.285 287.205L76.98 287.205C77.37 286.155 77.745 284.91 78.045 283.62L80.505 283.62L80.505 282.6L78.255 282.6C78.375 282.06 78.465 281.52 78.54 280.995L77.49 280.815C77.43 281.4 77.355 282.015 77.25 282.6L75.705 282.6L75.705 283.62L77.055 283.62C76.785 284.865 76.5 285.885 76.365 286.275C76.155 286.95 75.975 287.43 75.72 287.505C75.84 287.76 76.005 288.24 76.065 288.45ZM84.885 280.755C83.895 282.33 82.035 283.815 80.22 284.655C80.49 284.88 80.79 285.225 80.955 285.495C81.36 285.285 81.765 285.045 82.155 284.79L82.155 285.42L87.705 285.42L87.705 284.685C88.08 284.91 88.485 285.135 88.89 285.345C89.025 285.045 89.34 284.685 89.61 284.46C88.035 283.785 86.61 282.93 85.47 281.655L85.8 281.16L84.885 280.755ZM82.59 284.49C83.43 283.875 84.225 283.155 84.885 282.39C85.65 283.23 86.475 283.905 87.39 284.49L82.59 284.49ZM84.21 287.31L84.21 288.495L82.155 288.495L82.155 287.31L84.21 287.31ZM81.225 286.41L81.225 294.54L82.155 294.54L82.155 291.45L84.21 291.45L84.21 293.415C84.21 293.55 84.18 293.58 84.06 293.595C83.91 293.595 83.52 293.595 83.055 293.58C83.19 293.85 83.31 294.255 83.34 294.51C83.985 294.51 84.45 294.51 84.765 294.345C85.08 294.18 85.155 293.895 85.155 293.415L85.155 286.41L81.225 286.41ZM82.155 289.365L84.21 289.365L84.21 290.595L82.155 290.595L82.155 289.365ZM94.425 282.075C95.415 282.765 96.18 283.605 96.84 284.535C95.865 288.81 93.99 291.855 90.615 293.595C90.915 293.805 91.44 294.27 91.65 294.495C94.695 292.725 96.615 289.965 97.755 286.035C99.405 289.065 100.47 292.53 103.905 294.45C103.965 294.09 104.265 293.49 104.46 293.175C99.465 290.19 99.915 284.55 95.115 281.115L94.425 282.075ZM105.75 288.57L105.75 289.68L111.945 289.68L111.945 293.025C111.945 293.325 111.81 293.43 111.48 293.445C111.135 293.445 109.95 293.46 108.69 293.43C108.87 293.73 109.08 294.225 109.17 294.54C110.745 294.555 111.735 294.54 112.305 294.345C112.86 294.165 113.1 293.835 113.1 293.025L113.1 289.68L119.295 289.68L119.295 288.57L113.1 288.57L113.1 286.14L118.44 286.14L118.44 285.06L113.1 285.06L113.1 282.615C114.87 282.405 116.52 282.105 117.795 281.73L116.97 280.815C114.675 281.535 110.31 281.925 106.74 282.105C106.845 282.345 106.98 282.795 107.01 283.08C108.57 283.02 110.28 282.915 111.945 282.75L111.945 285.06L106.755 285.06L106.755 286.14L111.945 286.14L111.945 288.57L105.75 288.57ZM127.47 281.655L127.47 286.47C127.47 288.795 127.26 291.78 125.235 293.88C125.49 294.015 125.925 294.39 126.09 294.6C128.25 292.38 128.565 288.975 128.565 286.47L128.565 282.72L131.385 282.72L131.385 292.38C131.385 293.67 131.475 293.94 131.73 294.165C131.955 294.36 132.285 294.45 132.585 294.45C132.78 294.45 133.125 294.45 133.35 294.45C133.665 294.45 133.935 294.39 134.145 294.24C134.37 294.09 134.49 293.835 134.565 293.4C134.625 293.025 134.685 291.915 134.685 291.06C134.4 290.97 134.055 290.79 133.83 290.58C133.815 291.585 133.8 292.38 133.755 292.725C133.74 293.07 133.695 293.205 133.605 293.295C133.545 293.37 133.425 293.4 133.305 293.4C133.155 293.4 132.975 293.4 132.87 293.4C132.75 293.4 132.675 293.37 132.6 293.31C132.525 293.25 132.495 292.965 132.495 292.47L132.495 281.655L127.47 281.655ZM123.27 280.8L123.27 284.01L120.78 284.01L120.78 285.09L123.12 285.09C122.58 287.175 121.485 289.515 120.42 290.775C120.6 291.045 120.885 291.495 121.005 291.795C121.845 290.76 122.655 289.065 123.27 287.31L123.27 294.585L124.365 294.585L124.365 287.7C124.95 288.45 125.655 289.38 125.955 289.89L126.66 288.96C126.315 288.57 124.89 286.965 124.365 286.44L124.365 285.09L126.585 285.09L126.585 284.01L124.365 284.01L124.365 280.8L123.27 280.8ZM138.9 282.42L146.04 282.42L146.04 284.46L138.9 284.46L138.9 282.42ZM137.775 281.415L137.775 285.45L147.225 285.45L147.225 281.415L137.775 281.415ZM135.945 286.8L135.945 287.835L139.035 287.835C138.735 288.765 138.36 289.8 138.045 290.535L145.905 290.535C145.62 292.275 145.32 293.115 144.945 293.415C144.765 293.535 144.585 293.55 144.225 293.55C143.805 293.55 142.71 293.535 141.66 293.43C141.87 293.745 142.02 294.18 142.05 294.51C143.085 294.57 144.075 294.585 144.585 294.555C145.17 294.54 145.53 294.45 145.89 294.15C146.445 293.67 146.82 292.545 147.18 290.025C147.21 289.86 147.24 289.515 147.24 289.515L139.725 289.515L140.28 287.835L148.995 287.835L148.995 286.8L135.945 286.8Z"></path></g><g ><path     fill="#4A6A85"  d="M40.364 340.042L40.616 341.12C41.652 340.854 42.926 340.518 44.158 340.196L44.046 339.188C42.688 339.524 41.33 339.86 40.364 340.042ZM46.496 337.242C46.86 338.306 47.224 339.692 47.336 340.602L48.414 340.308C48.274 339.412 47.91 338.04 47.518 336.99L46.496 337.242ZM48.96 336.878C49.184 337.928 49.436 339.314 49.506 340.224L50.57 340.056C50.5 339.146 50.248 337.802 49.982 336.738L48.96 336.878ZM41.358 333.126C41.288 334.666 41.12 336.752 40.952 337.998L44.662 337.998C44.494 340.7 44.298 341.778 44.032 342.072C43.892 342.226 43.766 342.24 43.528 342.24C43.276 342.24 42.646 342.226 41.988 342.17C42.184 342.478 42.31 342.926 42.338 343.248C43.01 343.29 43.668 343.29 44.032 343.262C44.452 343.22 44.746 343.108 45.012 342.8C45.432 342.324 45.628 340.98 45.838 337.452C45.852 337.298 45.852 336.948 45.852 336.948L44.76 336.948C44.942 335.394 45.124 332.902 45.236 330.998L40.784 330.998L40.784 332.132L44.06 332.132C43.962 333.784 43.794 335.646 43.64 336.948L42.184 336.948C42.31 335.8 42.422 334.358 42.492 333.182L41.358 333.126ZM47.434 334.736L47.434 335.87L51.69 335.87L51.69 334.82C52.152 335.24 52.628 335.604 53.076 335.926C53.202 335.562 53.468 334.96 53.692 334.652C52.432 333.896 50.976 332.552 50.066 331.348L50.402 330.69L49.24 330.298C48.386 332.174 46.832 333.854 45.166 334.89C45.39 335.142 45.782 335.702 45.936 335.954C47.196 335.072 48.428 333.826 49.408 332.398C50.038 333.196 50.808 334.022 51.592 334.736L47.434 334.736ZM46.104 341.624L46.104 342.758L53.3 342.758L53.3 341.624L51.368 341.624C52.012 340.364 52.712 338.614 53.258 337.158L52.068 336.878C51.648 338.32 50.892 340.336 50.248 341.624L46.104 341.624ZM55.302 331.53C56.058 332.188 57.038 333.112 57.486 333.728L58.396 332.804C57.934 332.216 56.926 331.334 56.17 330.718L55.302 331.53ZM58.956 341.638L58.956 342.87L67.51 342.87L67.51 341.638L64.402 341.638L64.402 337.326L66.964 337.326L66.964 336.094L64.402 336.094L64.402 332.65L67.23 332.65L67.23 331.404L59.376 331.404L59.376 332.65L63.044 332.65L63.044 341.638L61.392 341.638L61.392 335.058L60.076 335.058L60.076 341.638L58.956 341.638ZM54.63 334.778L54.63 336.052L56.464 336.052L56.464 340.546C56.464 341.344 55.946 341.946 55.638 342.212C55.876 342.394 56.296 342.828 56.45 343.094C56.674 342.772 57.094 342.436 59.558 340.406C59.404 340.154 59.152 339.608 59.04 339.258L57.752 340.28L57.752 334.778L54.63 334.778ZM73.796 339.3L73.796 340.476L78.99 340.476L78.99 339.3L73.796 339.3ZM74.846 333.126C74.748 334.568 74.552 336.486 74.37 337.662L79.872 337.662C79.634 340.518 79.34 341.694 78.99 342.03C78.864 342.184 78.71 342.212 78.486 342.198C78.22 342.198 77.632 342.198 77.002 342.128C77.198 342.464 77.338 342.982 77.352 343.332C78.038 343.374 78.668 343.36 79.032 343.332C79.48 343.29 79.774 343.178 80.068 342.842C80.558 342.324 80.88 340.826 81.174 337.088C81.202 336.906 81.216 336.528 81.216 336.528L79.564 336.528C79.788 334.778 79.998 332.748 80.11 331.236L79.172 331.138L78.962 331.194L74.174 331.194L74.174 332.398L78.752 332.398C78.64 333.602 78.472 335.17 78.304 336.528L75.756 336.528C75.896 335.492 76.008 334.246 76.092 333.21L74.846 333.126ZM68.658 331.11L68.658 332.314L70.282 332.314C69.918 334.33 69.288 336.206 68.35 337.466C68.546 337.83 68.826 338.628 68.882 338.964C69.12 338.67 69.344 338.348 69.554 337.998L69.554 342.772L70.688 342.772L70.688 341.68L73.222 341.68L73.222 335.45L70.702 335.45C71.052 334.456 71.318 333.392 71.528 332.314L73.572 332.314L73.572 331.11L68.658 331.11ZM70.688 336.612L72.06 336.612L72.06 340.504L70.688 340.504L70.688 336.612Z"></path></g><g opacity="0.8"><rect  x="40" y="350" width="190" height="48" rx="12"    fill="#FFFFFF" ></rect></g><g ><path     fill="#B0C4DE"  d="M61.605 371.82C62.385 372.525 63.375 373.515 63.84 374.145L64.605 373.35C64.14 372.735 63.12 371.805 62.325 371.13L61.605 371.82ZM60.63 375.51L60.63 376.59L62.88 376.59L62.88 382.08C62.88 382.74 62.43 383.19 62.16 383.37C62.355 383.595 62.655 384.06 62.76 384.33C62.97 384.015 63.36 383.7 65.895 381.75C65.775 381.525 65.595 381.09 65.52 380.79L63.96 381.96L63.96 375.51L60.63 375.51ZM67.41 380.22L72.12 380.22L72.12 381.45L67.41 381.45L67.41 380.22ZM67.41 379.425L67.41 378.27L72.12 378.27L72.12 379.425L67.41 379.425ZM69.21 370.8L69.21 371.97L65.73 371.97L65.73 372.84L69.21 372.84L69.21 373.8L66.105 373.8L66.105 374.625L69.21 374.625L69.21 375.66L65.28 375.66L65.28 376.53L74.4 376.53L74.4 375.66L70.32 375.66L70.32 374.625L73.485 374.625L73.485 373.8L70.32 373.8L70.32 372.84L73.935 372.84L73.935 371.97L70.32 371.97L70.32 370.8L69.21 370.8ZM66.36 377.4L66.36 384.585L67.41 384.585L67.41 382.275L72.12 382.275L72.12 383.325C72.12 383.505 72.045 383.565 71.85 383.58C71.64 383.595 70.92 383.595 70.155 383.565C70.305 383.835 70.44 384.255 70.485 384.54C71.55 384.54 72.24 384.54 72.645 384.36C73.08 384.195 73.2 383.895 73.2 383.34L73.2 377.4L66.36 377.4ZM86.01 376.695L86.01 382.125L86.895 382.125L86.895 376.695L86.01 376.695ZM87.915 376.14L87.915 383.325C87.915 383.49 87.855 383.535 87.69 383.55C87.495 383.55 86.895 383.55 86.205 383.535C86.355 383.805 86.475 384.21 86.505 384.465C87.39 384.465 87.99 384.45 88.35 384.3C88.725 384.135 88.83 383.865 88.83 383.325L88.83 376.14L87.915 376.14ZM76.065 378.45C76.185 378.33 76.62 378.24 77.1 378.24L78.285 378.24L78.285 380.31C77.28 380.55 76.35 380.76 75.63 380.895L75.885 381.96L78.285 381.345L78.285 384.585L79.275 384.585L79.275 381.09L80.52 380.76L80.43 379.815L79.275 380.085L79.275 378.24L80.475 378.24L80.475 377.205L79.275 377.205L79.275 374.925L78.285 374.925L78.285 377.205L76.98 377.205C77.37 376.155 77.745 374.91 78.045 373.62L80.505 373.62L80.505 372.6L78.255 372.6C78.375 372.06 78.465 371.52 78.54 370.995L77.49 370.815C77.43 371.4 77.355 372.015 77.25 372.6L75.705 372.6L75.705 373.62L77.055 373.62C76.785 374.865 76.5 375.885 76.365 376.275C76.155 376.95 75.975 377.43 75.72 377.505C75.84 377.76 76.005 378.24 76.065 378.45ZM84.885 370.755C83.895 372.33 82.035 373.815 80.22 374.655C80.49 374.88 80.79 375.225 80.955 375.495C81.36 375.285 81.765 375.045 82.155 374.79L82.155 375.42L87.705 375.42L87.705 374.685C88.08 374.91 88.485 375.135 88.89 375.345C89.025 375.045 89.34 374.685 89.61 374.46C88.035 373.785 86.61 372.93 85.47 371.655L85.8 371.16L84.885 370.755ZM82.59 374.49C83.43 373.875 84.225 373.155 84.885 372.39C85.65 373.23 86.475 373.905 87.39 374.49L82.59 374.49ZM84.21 377.31L84.21 378.495L82.155 378.495L82.155 377.31L84.21 377.31ZM81.225 376.41L81.225 384.54L82.155 384.54L82.155 381.45L84.21 381.45L84.21 383.415C84.21 383.55 84.18 383.58 84.06 383.595C83.91 383.595 83.52 383.595 83.055 383.58C83.19 383.85 83.31 384.255 83.34 384.51C83.985 384.51 84.45 384.51 84.765 384.345C85.08 384.18 85.155 383.895 85.155 383.415L85.155 376.41L81.225 376.41ZM82.155 379.365L84.21 379.365L84.21 380.595L82.155 380.595L82.155 379.365ZM94.425 372.075C95.415 372.765 96.18 373.605 96.84 374.535C95.865 378.81 93.99 381.855 90.615 383.595C90.915 383.805 91.44 384.27 91.65 384.495C94.695 382.725 96.615 379.965 97.755 376.035C99.405 379.065 100.47 382.53 103.905 384.45C103.965 384.09 104.265 383.49 104.46 383.175C99.465 380.19 99.915 374.55 95.115 371.115L94.425 372.075ZM105.465 381.18L105.705 382.125C106.83 381.81 108.21 381.435 109.56 381.045L109.455 380.175C107.97 380.565 106.515 380.955 105.465 381.18ZM112.995 375.45L112.995 376.425L117.465 376.425L117.465 375.45L112.995 375.45ZM112.005 377.97C112.44 379.11 112.845 380.61 112.965 381.585L113.895 381.33C113.76 380.355 113.325 378.885 112.89 377.76L112.005 377.97ZM114.66 377.595C114.915 378.72 115.185 380.22 115.26 381.195L116.19 381.045C116.1 380.07 115.83 378.6 115.53 377.46L114.66 377.595ZM106.605 373.56C106.5 375.18 106.32 377.415 106.125 378.735L110.16 378.735C109.965 381.825 109.725 383.04 109.41 383.37C109.29 383.52 109.125 383.55 108.885 383.55C108.6 383.55 107.91 383.535 107.175 383.46C107.34 383.73 107.46 384.12 107.475 384.405C108.195 384.45 108.9 384.465 109.275 384.435C109.725 384.39 109.995 384.3 110.25 383.985C110.73 383.505 110.94 382.095 111.18 378.27C111.195 378.135 111.21 377.805 111.21 377.805L110.205 377.82L110.025 377.82C110.205 376.2 110.43 373.5 110.58 371.475L105.96 371.475L105.96 372.45L109.545 372.45C109.425 374.25 109.23 376.38 109.05 377.82L107.205 377.82C107.34 376.56 107.475 374.925 107.565 373.62L106.605 373.56ZM115.005 370.695C114.075 372.795 112.425 374.64 110.625 375.78C110.835 376.005 111.165 376.455 111.3 376.68C112.71 375.69 114.075 374.28 115.11 372.63C116.16 374.085 117.675 375.645 119.04 376.635C119.16 376.335 119.415 375.855 119.61 375.6C118.215 374.7 116.595 373.11 115.65 371.685L115.98 371.01L115.005 370.695ZM111.525 382.875L111.525 383.865L119.175 383.865L119.175 382.875L116.88 382.875C117.615 381.495 118.455 379.515 119.07 377.925L118.05 377.67C117.555 379.245 116.64 381.48 115.905 382.875L111.525 382.875ZM121.53 371.865C122.34 372.57 123.36 373.545 123.855 374.175L124.635 373.395C124.14 372.78 123.09 371.835 122.265 371.19L121.53 371.865ZM125.28 382.95L125.28 384L134.43 384L134.43 382.95L130.86 382.95L130.86 378L133.83 378L133.83 376.935L130.86 376.935L130.86 373.005L134.1 373.005L134.1 371.955L125.79 371.955L125.79 373.005L129.705 373.005L129.705 382.95L127.68 382.95L127.68 375.72L126.57 375.72L126.57 382.95L125.28 382.95ZM120.75 375.51L120.75 376.59L122.865 376.59L122.865 381.795C122.865 382.59 122.31 383.175 122.025 383.415C122.22 383.58 122.58 383.955 122.715 384.18C122.94 383.88 123.345 383.55 125.91 381.54C125.775 381.315 125.565 380.865 125.46 380.58L123.96 381.72L123.96 375.51L120.75 375.51ZM141.15 380.325L141.15 381.345L146.88 381.345L146.88 380.325L141.15 380.325ZM142.365 373.65C142.26 375.135 142.065 377.145 141.87 378.345L142.17 378.345L147.945 378.36C147.66 381.645 147.33 382.98 146.94 383.37C146.79 383.52 146.64 383.55 146.37 383.535C146.1 383.535 145.425 383.535 144.705 383.46C144.885 383.745 144.99 384.18 145.02 384.495C145.74 384.54 146.43 384.54 146.82 384.51C147.27 384.48 147.555 384.375 147.84 384.045C148.38 383.505 148.725 381.93 149.07 377.88C149.085 377.715 149.1 377.385 149.1 377.385L147.24 377.385C147.48 375.525 147.72 373.275 147.84 371.715L147.045 371.625L146.865 371.685L141.645 371.685L141.645 372.72L146.67 372.72C146.55 374.04 146.355 375.87 146.175 377.385L143.055 377.385C143.19 376.275 143.34 374.865 143.415 373.725L142.365 373.65ZM135.765 371.595L135.765 372.63L137.595 372.63C137.175 374.925 136.5 377.055 135.435 378.48C135.615 378.78 135.87 379.41 135.945 379.695C136.23 379.32 136.5 378.915 136.74 378.465L136.74 383.91L137.715 383.91L137.715 382.71L140.475 382.71L140.475 376.215L137.73 376.215C138.12 375.09 138.435 373.875 138.675 372.63L140.91 372.63L140.91 371.595L135.765 371.595ZM137.715 377.235L139.485 377.235L139.485 381.705L137.715 381.705L137.715 377.235Z"></path></g><g opacity="0.85"><rect  x="244.99998474121094" y="350" width="105" height="48" rx="12"    fill="#5B9BD5" ></rect></g><g ><path     fill="#FFFFFF"  d="M273.769 375.891C274.38 376.359 275.082 377.048 275.407 377.529L276.278 376.879C275.953 376.385 275.225 375.735 274.601 375.306L273.769 375.891ZM272.339 375.332L272.339 377.282L272.339 377.568L269.453 377.568L269.453 378.712L272.235 378.712C272.001 380.259 271.26 382.001 269.037 383.405C269.349 383.613 269.739 383.951 269.947 384.198C271.715 383.08 272.612 381.702 273.067 380.337C273.704 382.053 274.692 383.379 276.161 384.146C276.33 383.821 276.681 383.366 276.954 383.145C275.225 382.391 274.146 380.753 273.6 378.712L276.746 378.712L276.746 377.568L273.483 377.568L273.483 377.295L273.483 375.332L272.339 375.332ZM272.625 372.108L272.625 373.083L269.453 373.083L269.453 372.108L268.231 372.108L268.231 373.083L265.267 373.083L265.267 374.188L268.231 374.188L268.231 375.176L269.453 375.176L269.453 374.188L272.625 374.188L272.625 375.072L273.847 375.072L273.847 374.188L276.772 374.188L276.772 373.083L273.847 373.083L273.847 372.108L272.625 372.108ZM268.595 375.345C268.361 375.618 268.062 375.891 267.724 376.164C267.386 375.813 266.957 375.462 266.437 375.137L265.631 375.787C266.138 376.112 266.541 376.45 266.866 376.801C266.268 377.204 265.618 377.555 264.968 377.828C265.202 378.036 265.527 378.4 265.696 378.647C266.294 378.374 266.892 378.036 267.464 377.659C267.646 377.984 267.763 378.309 267.854 378.647C267.217 379.531 265.982 380.48 264.942 380.922C265.202 381.143 265.514 381.546 265.67 381.819C266.45 381.39 267.334 380.675 268.036 379.96L268.036 380.311C268.036 381.572 267.932 382.443 267.633 382.807C267.529 382.937 267.425 383.002 267.23 383.015C266.957 383.054 266.463 383.054 265.852 383.015C266.073 383.327 266.203 383.743 266.216 384.094C266.788 384.12 267.282 384.107 267.737 384.016C268.036 383.977 268.283 383.834 268.452 383.626C269.011 383.002 269.18 381.845 269.18 380.376C269.18 379.206 269.05 378.062 268.4 377.009C268.842 376.658 269.258 376.281 269.596 375.891L268.595 375.345ZM288.394 374.682C288.108 376.424 287.64 377.971 287.016 379.284C286.431 377.932 286.028 376.372 285.755 374.682L288.394 374.682ZM284.104 373.525L284.104 374.682L284.65 374.682C285.027 376.918 285.547 378.894 286.34 380.532C285.599 381.715 284.715 382.651 283.714 383.262C283.987 383.47 284.325 383.886 284.507 384.185C285.443 383.548 286.275 382.729 286.99 381.702C287.614 382.664 288.368 383.47 289.291 384.081C289.486 383.769 289.863 383.34 290.136 383.119C289.135 382.521 288.329 381.663 287.692 380.597C288.667 378.803 289.356 376.515 289.681 373.681L288.914 373.486L288.706 373.525L284.104 373.525ZM277.968 381.286L278.228 382.469L281.959 381.819L281.959 384.146L283.168 384.146L283.168 381.598L284.299 381.39L284.234 380.363L283.168 380.532L283.168 373.785L284.039 373.785L284.039 372.68L278.111 372.68L278.111 373.785L278.917 373.785L278.917 381.156L277.968 381.286ZM280.087 373.785L281.959 373.785L281.959 375.384L280.087 375.384L280.087 373.785ZM280.087 376.45L281.959 376.45L281.959 378.127L280.087 378.127L280.087 376.45ZM280.087 379.18L281.959 379.18L281.959 380.714L280.087 380.987L280.087 379.18ZM290.838 381.039L291.072 382.04C292.034 381.793 293.217 381.481 294.361 381.182L294.257 380.246C292.996 380.558 291.735 380.87 290.838 381.039ZM296.532 378.439C296.87 379.427 297.208 380.714 297.312 381.559L298.313 381.286C298.183 380.454 297.845 379.18 297.481 378.205L296.532 378.439ZM298.82 378.101C299.028 379.076 299.262 380.363 299.327 381.208L300.315 381.052C300.25 380.207 300.016 378.959 299.769 377.971L298.82 378.101ZM291.761 374.617C291.696 376.047 291.54 377.984 291.384 379.141L294.829 379.141C294.673 381.65 294.491 382.651 294.244 382.924C294.114 383.067 293.997 383.08 293.776 383.08C293.542 383.08 292.957 383.067 292.346 383.015C292.528 383.301 292.645 383.717 292.671 384.016C293.295 384.055 293.906 384.055 294.244 384.029C294.634 383.99 294.907 383.886 295.154 383.6C295.544 383.158 295.726 381.91 295.921 378.634C295.934 378.491 295.934 378.166 295.934 378.166L294.92 378.166C295.089 376.723 295.258 374.409 295.362 372.641L291.228 372.641L291.228 373.694L294.27 373.694C294.179 375.228 294.023 376.957 293.88 378.166L292.528 378.166C292.645 377.1 292.749 375.761 292.814 374.669L291.761 374.617ZM297.403 376.112L297.403 377.165L301.355 377.165L301.355 376.19C301.784 376.58 302.226 376.918 302.642 377.217C302.759 376.879 303.006 376.32 303.214 376.034C302.044 375.332 300.692 374.084 299.847 372.966L300.159 372.355L299.08 371.991C298.287 373.733 296.844 375.293 295.297 376.255C295.505 376.489 295.869 377.009 296.012 377.243C297.182 376.424 298.326 375.267 299.236 373.941C299.821 374.682 300.536 375.449 301.264 376.112L297.403 376.112ZM296.168 382.508L296.168 383.561L302.85 383.561L302.85 382.508L301.056 382.508C301.654 381.338 302.304 379.713 302.811 378.361L301.706 378.101C301.316 379.44 300.614 381.312 300.016 382.508L296.168 382.508ZM304.709 373.135C305.411 373.746 306.321 374.604 306.737 375.176L307.582 374.318C307.153 373.772 306.217 372.953 305.515 372.381L304.709 373.135ZM308.102 382.521L308.102 383.665L316.045 383.665L316.045 382.521L313.159 382.521L313.159 378.517L315.538 378.517L315.538 377.373L313.159 377.373L313.159 374.175L315.785 374.175L315.785 373.018L308.492 373.018L308.492 374.175L311.898 374.175L311.898 382.521L310.364 382.521L310.364 376.411L309.142 376.411L309.142 382.521L308.102 382.521ZM304.085 376.151L304.085 377.334L305.788 377.334L305.788 381.507C305.788 382.248 305.307 382.807 305.021 383.054C305.242 383.223 305.632 383.626 305.775 383.873C305.983 383.574 306.373 383.262 308.661 381.377C308.518 381.143 308.284 380.636 308.18 380.311L306.984 381.26L306.984 376.151L304.085 376.151ZM321.882 380.35L321.882 381.442L326.705 381.442L326.705 380.35L321.882 380.35ZM322.857 374.617C322.766 375.956 322.584 377.737 322.415 378.829L327.524 378.829C327.303 381.481 327.03 382.573 326.705 382.885C326.588 383.028 326.445 383.054 326.237 383.041C325.99 383.041 325.444 383.041 324.859 382.976C325.041 383.288 325.171 383.769 325.184 384.094C325.821 384.133 326.406 384.12 326.744 384.094C327.16 384.055 327.433 383.951 327.706 383.639C328.161 383.158 328.46 381.767 328.733 378.296C328.759 378.127 328.772 377.776 328.772 377.776L327.238 377.776C327.446 376.151 327.641 374.266 327.745 372.862L326.874 372.771L326.679 372.823L322.233 372.823L322.233 373.941L326.484 373.941C326.38 375.059 326.224 376.515 326.068 377.776L323.702 377.776C323.832 376.814 323.936 375.657 324.014 374.695L322.857 374.617ZM317.111 372.745L317.111 373.863L318.619 373.863C318.281 375.735 317.696 377.477 316.825 378.647C317.007 378.985 317.267 379.726 317.319 380.038C317.54 379.765 317.748 379.466 317.943 379.141L317.943 383.574L318.996 383.574L318.996 382.56L321.349 382.56L321.349 376.775L319.009 376.775C319.334 375.852 319.581 374.864 319.776 373.863L321.674 373.863L321.674 372.745L317.111 372.745ZM318.996 377.854L320.27 377.854L320.27 381.468L318.996 381.468L318.996 377.854Z"></path></g><g ><path     fill="#4A6A85"  d="M42.45 424.456C42.072 425.296 41.4 426.276 40.616 426.878L41.68 427.522C42.478 426.864 43.08 425.814 43.528 424.932L42.45 424.456ZM44.816 423.56C45.684 423.924 46.72 424.54 47.238 425.002L47.91 424.162C47.378 423.7 46.314 423.126 45.46 422.776L44.816 423.56ZM50.15 425.17C51.018 425.954 52.012 427.06 52.446 427.788L53.454 427.06C52.992 426.332 51.956 425.268 51.102 424.54L50.15 425.17ZM49.52 423.252C48.512 424.498 47.042 425.548 45.348 426.388L45.348 424.274L44.158 424.274L44.158 426.836L44.158 426.934C42.982 427.424 41.736 427.816 40.476 428.124C40.714 428.39 41.078 428.936 41.232 429.216C42.352 428.894 43.472 428.502 44.564 428.04C44.872 428.264 45.376 428.348 46.202 428.348C46.524 428.348 48.666 428.348 49.016 428.348C50.318 428.348 50.682 427.942 50.836 426.276C50.5 426.206 50.01 426.038 49.744 425.842C49.688 427.102 49.562 427.298 48.918 427.298C48.428 427.298 46.65 427.298 46.286 427.298L46.118 427.298C47.896 426.374 49.478 425.212 50.64 423.812L49.52 423.252ZM42.184 429.468L42.184 432.828L50.584 432.828L50.584 433.36L51.914 433.36L51.914 429.3L50.584 429.3L50.584 431.582L47.644 431.582L47.644 428.754L46.3 428.754L46.3 431.582L43.486 431.582L43.486 429.468L42.184 429.468ZM46.048 420.466C46.16 420.802 46.286 421.194 46.37 421.558L41.036 421.558L41.036 424.386L42.338 424.386L42.338 422.734L51.648 422.734L51.648 424.386L52.992 424.386L52.992 421.558L47.742 421.558C47.644 421.152 47.49 420.648 47.308 420.256L46.048 420.466ZM59.796 429.3L59.796 430.476L64.99 430.476L64.99 429.3L59.796 429.3ZM60.846 423.126C60.748 424.568 60.552 426.486 60.37 427.662L65.872 427.662C65.634 430.518 65.34 431.694 64.99 432.03C64.864 432.184 64.71 432.212 64.486 432.198C64.22 432.198 63.632 432.198 63.002 432.128C63.198 432.464 63.338 432.982 63.352 433.332C64.038 433.374 64.668 433.36 65.032 433.332C65.48 433.29 65.774 433.178 66.068 432.842C66.558 432.324 66.88 430.826 67.174 427.088C67.202 426.906 67.216 426.528 67.216 426.528L65.564 426.528C65.788 424.778 65.998 422.748 66.11 421.236L65.172 421.138L64.962 421.194L60.174 421.194L60.174 422.398L64.752 422.398C64.64 423.602 64.472 425.17 64.304 426.528L61.756 426.528C61.896 425.492 62.008 424.246 62.092 423.21L60.846 423.126ZM54.658 421.11L54.658 422.314L56.282 422.314C55.918 424.33 55.288 426.206 54.35 427.466C54.546 427.83 54.826 428.628 54.882 428.964C55.12 428.67 55.344 428.348 55.554 427.998L55.554 432.772L56.688 432.772L56.688 431.68L59.222 431.68L59.222 425.45L56.702 425.45C57.052 424.456 57.318 423.392 57.528 422.314L59.572 422.314L59.572 421.11L54.658 421.11ZM56.688 426.612L58.06 426.612L58.06 430.504L56.688 430.504L56.688 426.612Z"></path></g><g opacity="0.8"><rect  x="40" y="440" width="310" height="48" rx="12"    fill="#FFFFFF" ></rect></g><g ><path     fill="#B0C4DE"  d="M61.605 461.82C62.385 462.525 63.375 463.515 63.84 464.145L64.605 463.35C64.14 462.735 63.12 461.805 62.325 461.13L61.605 461.82ZM60.63 465.51L60.63 466.59L62.88 466.59L62.88 472.08C62.88 472.74 62.43 473.19 62.16 473.37C62.355 473.595 62.655 474.06 62.76 474.33C62.97 474.015 63.36 473.7 65.895 471.75C65.775 471.525 65.595 471.09 65.52 470.79L63.96 471.96L63.96 465.51L60.63 465.51ZM67.41 470.22L72.12 470.22L72.12 471.45L67.41 471.45L67.41 470.22ZM67.41 469.425L67.41 468.27L72.12 468.27L72.12 469.425L67.41 469.425ZM69.21 460.8L69.21 461.97L65.73 461.97L65.73 462.84L69.21 462.84L69.21 463.8L66.105 463.8L66.105 464.625L69.21 464.625L69.21 465.66L65.28 465.66L65.28 466.53L74.4 466.53L74.4 465.66L70.32 465.66L70.32 464.625L73.485 464.625L73.485 463.8L70.32 463.8L70.32 462.84L73.935 462.84L73.935 461.97L70.32 461.97L70.32 460.8L69.21 460.8ZM66.36 467.4L66.36 474.585L67.41 474.585L67.41 472.275L72.12 472.275L72.12 473.325C72.12 473.505 72.045 473.565 71.85 473.58C71.64 473.595 70.92 473.595 70.155 473.565C70.305 473.835 70.44 474.255 70.485 474.54C71.55 474.54 72.24 474.54 72.645 474.36C73.08 474.195 73.2 473.895 73.2 473.34L73.2 467.4L66.36 467.4ZM76.83 461.76C77.625 462.465 78.63 463.47 79.095 464.115L79.86 463.32C79.38 462.705 78.375 461.73 77.565 461.07L76.83 461.76ZM75.645 465.51L75.645 466.59L77.76 466.59L77.76 471.975C77.76 472.665 77.295 473.16 77.01 473.34C77.22 473.565 77.52 474.03 77.625 474.3C77.85 474 78.255 473.7 80.925 471.72C80.79 471.495 80.61 471.075 80.52 470.775L78.855 471.99L78.855 465.51L75.645 465.51ZM82.365 461.34L82.365 463.005C82.365 464.115 82.035 465.36 80.055 466.26C80.265 466.44 80.655 466.875 80.79 467.1C82.95 466.065 83.43 464.445 83.43 463.035L83.43 462.39L86.085 462.39L86.085 464.805C86.085 465.945 86.295 466.365 87.345 466.365C87.51 466.365 88.245 466.365 88.47 466.365C88.77 466.365 89.085 466.35 89.265 466.29C89.22 466.035 89.19 465.6 89.16 465.315C88.98 465.36 88.665 465.39 88.455 465.39C88.26 465.39 87.585 465.39 87.42 465.39C87.18 465.39 87.15 465.255 87.15 464.82L87.15 461.34L82.365 461.34ZM87.075 468.48C86.535 469.68 85.725 470.67 84.735 471.465C83.73 470.64 82.935 469.635 82.395 468.48L87.075 468.48ZM80.76 467.43L80.76 468.48L81.54 468.48L81.33 468.555C81.93 469.935 82.785 471.135 83.85 472.11C82.725 472.83 81.435 473.325 80.115 473.625C80.325 473.865 80.565 474.315 80.655 474.6C82.11 474.21 83.49 473.64 84.705 472.815C85.845 473.655 87.21 474.27 88.755 474.645C88.89 474.33 89.205 473.88 89.445 473.64C88.005 473.34 86.715 472.815 85.62 472.11C86.895 471 87.915 469.56 88.515 467.685L87.825 467.385L87.63 467.43L80.76 467.43ZM99.765 462.18L102.3 462.18L102.3 463.53L99.765 463.53L99.765 462.18ZM96.255 462.18L98.73 462.18L98.73 463.53L96.255 463.53L96.255 462.18ZM92.835 462.18L95.22 462.18L95.22 463.53L92.835 463.53L92.835 462.18ZM92.85 466.995L92.85 473.31L90.855 473.31L90.855 474.15L104.175 474.15L104.175 473.31L102.12 473.31L102.12 466.995L97.425 466.995L97.635 466.11L103.83 466.11L103.83 465.225L97.8 465.225L97.965 464.355L103.425 464.355L103.425 461.37L91.755 461.37L91.755 464.355L96.81 464.355L96.69 465.225L91.02 465.225L91.02 466.11L96.54 466.11L96.36 466.995L92.85 466.995ZM93.93 473.31L93.93 472.38L101.01 472.38L101.01 473.31L93.93 473.31ZM93.93 469.275L101.01 469.275L101.01 470.145L93.93 470.145L93.93 469.275ZM93.93 468.6L93.93 467.76L101.01 467.76L101.01 468.6L93.93 468.6ZM93.93 470.82L101.01 470.82L101.01 471.705L93.93 471.705L93.93 470.82ZM107.73 465.105C107.31 466.02 106.59 467.115 105.705 467.775L106.62 468.33C107.49 467.61 108.165 466.47 108.645 465.525L107.73 465.105ZM110.28 463.98C111.21 464.415 112.32 465.105 112.86 465.63L113.46 464.895C112.905 464.4 111.765 463.725 110.85 463.32L110.28 463.98ZM115.935 465.735C116.895 466.56 117.99 467.76 118.47 468.555L119.325 467.925C118.83 467.13 117.705 465.99 116.76 465.18L115.935 465.735ZM115.32 463.83C114.165 465.24 112.485 466.41 110.55 467.34L110.55 464.865L109.53 464.865L109.53 467.76L109.53 467.805C108.27 468.33 106.92 468.765 105.57 469.095C105.78 469.32 106.11 469.8 106.245 470.04C107.445 469.695 108.66 469.275 109.815 468.78C110.1 469.08 110.625 469.17 111.54 469.17C111.87 469.17 114.375 469.17 114.735 469.17C116.04 469.17 116.37 468.735 116.52 466.95C116.235 466.89 115.815 466.74 115.56 466.575C115.515 468.03 115.38 468.24 114.66 468.24C114.105 468.24 112.005 468.24 111.6 468.24L111.03 468.21C113.1 467.205 114.96 465.915 116.28 464.31L115.32 463.83ZM107.415 470.46L107.415 473.91L116.565 473.91L116.565 474.57L117.69 474.57L117.69 470.34L116.565 470.34L116.565 472.845L113.04 472.845L113.04 469.65L111.9 469.65L111.9 472.845L108.525 472.845L108.525 470.46L107.415 470.46ZM111.63 460.83C111.78 461.205 111.915 461.685 112.005 462.09L106.155 462.09L106.155 465.03L107.265 465.03L107.265 463.11L117.735 463.11L117.735 465.03L118.875 465.03L118.875 462.09L113.175 462.09C113.085 461.655 112.89 461.1 112.695 460.65L111.63 460.83ZM126.15 470.325L126.15 471.345L131.88 471.345L131.88 470.325L126.15 470.325ZM127.365 463.65C127.26 465.135 127.065 467.145 126.87 468.345L127.17 468.345L132.945 468.36C132.66 471.645 132.33 472.98 131.94 473.37C131.79 473.52 131.64 473.55 131.37 473.535C131.1 473.535 130.425 473.535 129.705 473.46C129.885 473.745 129.99 474.18 130.02 474.495C130.74 474.54 131.43 474.54 131.82 474.51C132.27 474.48 132.555 474.375 132.84 474.045C133.38 473.505 133.725 471.93 134.07 467.88C134.085 467.715 134.1 467.385 134.1 467.385L132.24 467.385C132.48 465.525 132.72 463.275 132.84 461.715L132.045 461.625L131.865 461.685L126.645 461.685L126.645 462.72L131.67 462.72C131.55 464.04 131.355 465.87 131.175 467.385L128.055 467.385C128.19 466.275 128.34 464.865 128.415 463.725L127.365 463.65ZM120.765 461.595L120.765 462.63L122.595 462.63C122.175 464.925 121.5 467.055 120.435 468.48C120.615 468.78 120.87 469.41 120.945 469.695C121.23 469.32 121.5 468.915 121.74 468.465L121.74 473.91L122.715 473.91L122.715 472.71L125.475 472.71L125.475 466.215L122.73 466.215C123.12 465.09 123.435 463.875 123.675 462.63L125.91 462.63L125.91 461.595L120.765 461.595ZM122.715 467.235L124.485 467.235L124.485 471.705L122.715 471.705L122.715 467.235Z"></path></g><g ><path     fill="#4A6A85"  d="M47.574 510.382C47 512.048 45.992 513.602 44.802 514.596C45.04 514.834 45.418 515.366 45.558 515.618C45.768 515.436 45.964 515.24 46.16 515.03L46.16 517.634C46.16 519.23 46.02 521.288 44.718 522.73C45.012 522.856 45.53 523.22 45.754 523.43C46.594 522.506 47.014 521.274 47.21 520.056L48.932 520.056L48.932 522.856L50.108 522.856L50.108 520.056L51.788 520.056L51.788 521.946C51.788 522.114 51.732 522.156 51.578 522.17C51.438 522.17 50.948 522.17 50.43 522.156C50.584 522.478 50.71 522.968 50.738 523.304C51.578 523.304 52.18 523.29 52.558 523.094C52.936 522.898 53.048 522.576 53.048 521.96L53.048 514.008L50.654 514.008C51.13 513.406 51.62 512.706 51.956 512.104L51.102 511.53L50.892 511.586L48.372 511.586C48.498 511.292 48.61 510.998 48.722 510.69L47.574 510.382ZM48.932 518.908L47.35 518.908C47.378 518.474 47.392 518.04 47.392 517.648L47.392 517.494L48.932 517.494L48.932 518.908ZM50.108 518.908L50.108 517.494L51.788 517.494L51.788 518.908L50.108 518.908ZM48.932 516.458L47.392 516.458L47.392 515.142L48.932 515.142L48.932 516.458ZM50.108 516.458L50.108 515.142L51.788 515.142L51.788 516.458L50.108 516.458ZM47.07 514.008L46.986 514.008C47.294 513.588 47.574 513.14 47.826 512.678L50.164 512.678C49.898 513.14 49.576 513.63 49.268 514.008L47.07 514.008ZM40.728 511.11L40.728 512.314L42.31 512.314C41.96 514.316 41.358 516.206 40.42 517.466C40.616 517.83 40.896 518.628 40.952 518.964C41.19 518.67 41.4 518.348 41.61 517.998L41.61 522.772L42.73 522.772L42.73 521.68L45.138 521.68L45.138 515.45L42.744 515.45C43.08 514.456 43.346 513.392 43.556 512.314L45.53 512.314L45.53 511.11L40.728 511.11ZM42.73 516.612L44.032 516.612L44.032 520.504L42.73 520.504L42.73 516.612ZM55.834 511.474C56.548 512.132 57.528 513.056 58.004 513.616L58.914 512.65C58.424 512.118 57.416 511.25 56.716 510.634L55.834 511.474ZM62.582 510.452C62.554 515.114 62.652 519.916 59.11 522.45C59.474 522.674 59.894 523.08 60.118 523.416C61.882 522.086 62.82 520.238 63.324 518.11C63.87 520 64.836 522.128 66.67 523.416C66.88 523.08 67.258 522.674 67.622 522.422C64.542 520.364 63.996 516.01 63.814 514.624C63.912 513.252 63.926 511.852 63.94 510.452L62.582 510.452ZM54.602 514.778L54.602 516.052L56.856 516.052L56.856 520.616C56.856 521.316 56.366 521.82 56.058 522.044C56.282 522.254 56.632 522.716 56.758 522.996C56.982 522.702 57.388 522.366 60.048 520.476C59.922 520.21 59.74 519.706 59.656 519.356L58.144 520.378L58.144 514.778L54.602 514.778ZM70.45 514.456C70.072 515.296 69.4 516.276 68.616 516.878L69.68 517.522C70.478 516.864 71.08 515.814 71.528 514.932L70.45 514.456ZM72.816 513.56C73.684 513.924 74.72 514.54 75.238 515.002L75.91 514.162C75.378 513.7 74.314 513.126 73.46 512.776L72.816 513.56ZM78.15 515.17C79.018 515.954 80.012 517.06 80.446 517.788L81.454 517.06C80.992 516.332 79.956 515.268 79.102 514.54L78.15 515.17ZM77.52 513.252C76.512 514.498 75.042 515.548 73.348 516.388L73.348 514.274L72.158 514.274L72.158 516.836L72.158 516.934C70.982 517.424 69.736 517.816 68.476 518.124C68.714 518.39 69.078 518.936 69.232 519.216C70.352 518.894 71.472 518.502 72.564 518.04C72.872 518.264 73.376 518.348 74.202 518.348C74.524 518.348 76.666 518.348 77.016 518.348C78.318 518.348 78.682 517.942 78.836 516.276C78.5 516.206 78.01 516.038 77.744 515.842C77.688 517.102 77.562 517.298 76.918 517.298C76.428 517.298 74.65 517.298 74.286 517.298L74.118 517.298C75.896 516.374 77.478 515.212 78.64 513.812L77.52 513.252ZM70.184 519.468L70.184 522.828L78.584 522.828L78.584 523.36L79.914 523.36L79.914 519.3L78.584 519.3L78.584 521.582L75.644 521.582L75.644 518.754L74.3 518.754L74.3 521.582L71.486 521.582L71.486 519.468L70.184 519.468ZM74.048 510.466C74.16 510.802 74.286 511.194 74.37 511.558L69.036 511.558L69.036 514.386L70.338 514.386L70.338 512.734L79.648 512.734L79.648 514.386L80.992 514.386L80.992 511.558L75.742 511.558C75.644 511.152 75.49 510.648 75.308 510.256L74.048 510.466ZM87.796 519.3L87.796 520.476L92.99 520.476L92.99 519.3L87.796 519.3ZM88.846 513.126C88.748 514.568 88.552 516.486 88.37 517.662L93.872 517.662C93.634 520.518 93.34 521.694 92.99 522.03C92.864 522.184 92.71 522.212 92.486 522.198C92.22 522.198 91.632 522.198 91.002 522.128C91.198 522.464 91.338 522.982 91.352 523.332C92.038 523.374 92.668 523.36 93.032 523.332C93.48 523.29 93.774 523.178 94.068 522.842C94.558 522.324 94.88 520.826 95.174 517.088C95.202 516.906 95.216 516.528 95.216 516.528L93.564 516.528C93.788 514.778 93.998 512.748 94.11 511.236L93.172 511.138L92.962 511.194L88.174 511.194L88.174 512.398L92.752 512.398C92.64 513.602 92.472 515.17 92.304 516.528L89.756 516.528C89.896 515.492 90.008 514.246 90.092 513.21L88.846 513.126ZM82.658 511.11L82.658 512.314L84.282 512.314C83.918 514.33 83.288 516.206 82.35 517.466C82.546 517.83 82.826 518.628 82.882 518.964C83.12 518.67 83.344 518.348 83.554 517.998L83.554 522.772L84.688 522.772L84.688 521.68L87.222 521.68L87.222 515.45L84.702 515.45C85.052 514.456 85.318 513.392 85.528 512.314L87.572 512.314L87.572 511.11L82.658 511.11ZM84.688 516.612L86.06 516.612L86.06 520.504L84.688 520.504L84.688 516.612Z"></path></g><g opacity="0.8"><rect  x="40" y="530" width="310" height="48" rx="12"    fill="#FFFFFF" ></rect></g><g ><path     fill="#B0C4DE"  d="M61.605 551.82C62.385 552.525 63.375 553.515 63.84 554.145L64.605 553.35C64.14 552.735 63.12 551.805 62.325 551.13L61.605 551.82ZM60.63 555.51L60.63 556.59L62.88 556.59L62.88 562.08C62.88 562.74 62.43 563.19 62.16 563.37C62.355 563.595 62.655 564.06 62.76 564.33C62.97 564.015 63.36 563.7 65.895 561.75C65.775 561.525 65.595 561.09 65.52 560.79L63.96 561.96L63.96 555.51L60.63 555.51ZM67.41 560.22L72.12 560.22L72.12 561.45L67.41 561.45L67.41 560.22ZM67.41 559.425L67.41 558.27L72.12 558.27L72.12 559.425L67.41 559.425ZM69.21 550.8L69.21 551.97L65.73 551.97L65.73 552.84L69.21 552.84L69.21 553.8L66.105 553.8L66.105 554.625L69.21 554.625L69.21 555.66L65.28 555.66L65.28 556.53L74.4 556.53L74.4 555.66L70.32 555.66L70.32 554.625L73.485 554.625L73.485 553.8L70.32 553.8L70.32 552.84L73.935 552.84L73.935 551.97L70.32 551.97L70.32 550.8L69.21 550.8ZM66.36 557.4L66.36 564.585L67.41 564.585L67.41 562.275L72.12 562.275L72.12 563.325C72.12 563.505 72.045 563.565 71.85 563.58C71.64 563.595 70.92 563.595 70.155 563.565C70.305 563.835 70.44 564.255 70.485 564.54C71.55 564.54 72.24 564.54 72.645 564.36C73.08 564.195 73.2 563.895 73.2 563.34L73.2 557.4L66.36 557.4ZM77.37 554.235L77.37 559.92L75.6 559.92L75.6 560.97L77.37 560.97L77.37 564.63L78.48 564.63L78.48 560.97L86.505 560.97L86.505 563.205C86.505 563.46 86.415 563.535 86.13 563.55C85.875 563.565 84.9 563.58 83.91 563.535C84.09 563.835 84.255 564.315 84.33 564.615C85.62 564.615 86.46 564.6 86.955 564.42C87.45 564.24 87.615 563.91 87.615 563.22L87.615 560.97L89.43 560.97L89.43 559.92L87.615 559.92L87.615 554.235L83.01 554.235L83.01 552.765L88.875 552.765L88.875 551.715L76.155 551.715L76.155 552.765L81.87 552.765L81.87 554.235L77.37 554.235ZM86.505 559.92L83.01 559.92L83.01 558.06L86.505 558.06L86.505 559.92ZM78.48 559.92L78.48 558.06L81.87 558.06L81.87 559.92L78.48 559.92ZM86.505 557.07L83.01 557.07L83.01 555.27L86.505 555.27L86.505 557.07ZM78.48 557.07L78.48 555.27L81.87 555.27L81.87 557.07L78.48 557.07ZM90.855 552.645C91.875 553.215 93.15 554.115 93.75 554.73L94.47 553.815C93.84 553.2 92.55 552.375 91.53 551.835L90.855 552.645ZM90.63 562.305L91.665 563.085C92.595 561.735 93.735 559.995 94.62 558.465L93.75 557.715C92.775 559.35 91.5 561.21 90.63 562.305ZM96.81 550.8C96.33 553.2 95.49 555.54 94.335 557.01C94.635 557.145 95.19 557.46 95.415 557.64C96.015 556.785 96.555 555.69 97.02 554.46L102.555 554.46C102.27 555.495 101.805 556.635 101.445 557.355C101.715 557.475 102.165 557.7 102.405 557.835C102.93 556.8 103.59 555.21 103.98 553.74L103.155 553.29L102.93 553.35L97.395 553.35C97.635 552.6 97.845 551.82 98.01 551.025L96.81 550.8ZM98.535 555.195L98.535 556.125C98.535 558.27 98.205 561.54 93.6 563.79C93.885 563.985 94.275 564.39 94.455 564.66C97.41 563.175 98.715 561.255 99.3 559.425C100.14 561.825 101.49 563.58 103.665 564.495C103.815 564.195 104.16 563.73 104.415 563.505C101.805 562.56 100.38 560.25 99.705 557.235C99.72 556.845 99.735 556.485 99.735 556.14L99.735 555.195L98.535 555.195ZM116.01 556.695L116.01 562.125L116.895 562.125L116.895 556.695L116.01 556.695ZM117.915 556.14L117.915 563.325C117.915 563.49 117.855 563.535 117.69 563.55C117.495 563.55 116.895 563.55 116.205 563.535C116.355 563.805 116.475 564.21 116.505 564.465C117.39 564.465 117.99 564.45 118.35 564.3C118.725 564.135 118.83 563.865 118.83 563.325L118.83 556.14L117.915 556.14ZM106.065 558.45C106.185 558.33 106.62 558.24 107.1 558.24L108.285 558.24L108.285 560.31C107.28 560.55 106.35 560.76 105.63 560.895L105.885 561.96L108.285 561.345L108.285 564.585L109.275 564.585L109.275 561.09L110.52 560.76L110.43 559.815L109.275 560.085L109.275 558.24L110.475 558.24L110.475 557.205L109.275 557.205L109.275 554.925L108.285 554.925L108.285 557.205L106.98 557.205C107.37 556.155 107.745 554.91 108.045 553.62L110.505 553.62L110.505 552.6L108.255 552.6C108.375 552.06 108.465 551.52 108.54 550.995L107.49 550.815C107.43 551.4 107.355 552.015 107.25 552.6L105.705 552.6L105.705 553.62L107.055 553.62C106.785 554.865 106.5 555.885 106.365 556.275C106.155 556.95 105.975 557.43 105.72 557.505C105.84 557.76 106.005 558.24 106.065 558.45ZM114.885 550.755C113.895 552.33 112.035 553.815 110.22 554.655C110.49 554.88 110.79 555.225 110.955 555.495C111.36 555.285 111.765 555.045 112.155 554.79L112.155 555.42L117.705 555.42L117.705 554.685C118.08 554.91 118.485 555.135 118.89 555.345C119.025 555.045 119.34 554.685 119.61 554.46C118.035 553.785 116.61 552.93 115.47 551.655L115.8 551.16L114.885 550.755ZM112.59 554.49C113.43 553.875 114.225 553.155 114.885 552.39C115.65 553.23 116.475 553.905 117.39 554.49L112.59 554.49ZM114.21 557.31L114.21 558.495L112.155 558.495L112.155 557.31L114.21 557.31ZM111.225 556.41L111.225 564.54L112.155 564.54L112.155 561.45L114.21 561.45L114.21 563.415C114.21 563.55 114.18 563.58 114.06 563.595C113.91 563.595 113.52 563.595 113.055 563.58C113.19 563.85 113.31 564.255 113.34 564.51C113.985 564.51 114.45 564.51 114.765 564.345C115.08 564.18 115.155 563.895 115.155 563.415L115.155 556.41L111.225 556.41ZM112.155 559.365L114.21 559.365L114.21 560.595L112.155 560.595L112.155 559.365ZM124.425 552.075C125.415 552.765 126.18 553.605 126.84 554.535C125.865 558.81 123.99 561.855 120.615 563.595C120.915 563.805 121.44 564.27 121.65 564.495C124.695 562.725 126.615 559.965 127.755 556.035C129.405 559.065 130.47 562.53 133.905 564.45C133.965 564.09 134.265 563.49 134.46 563.175C129.465 560.19 129.915 554.55 125.115 551.115L124.425 552.075ZM137.73 555.105C137.31 556.02 136.59 557.115 135.705 557.775L136.62 558.33C137.49 557.61 138.165 556.47 138.645 555.525L137.73 555.105ZM140.28 553.98C141.21 554.415 142.32 555.105 142.86 555.63L143.46 554.895C142.905 554.4 141.765 553.725 140.85 553.32L140.28 553.98ZM145.935 555.735C146.895 556.56 147.99 557.76 148.47 558.555L149.325 557.925C148.83 557.13 147.705 555.99 146.76 555.18L145.935 555.735ZM145.32 553.83C144.165 555.24 142.485 556.41 140.55 557.34L140.55 554.865L139.53 554.865L139.53 557.76L139.53 557.805C138.27 558.33 136.92 558.765 135.57 559.095C135.78 559.32 136.11 559.8 136.245 560.04C137.445 559.695 138.66 559.275 139.815 558.78C140.1 559.08 140.625 559.17 141.54 559.17C141.87 559.17 144.375 559.17 144.735 559.17C146.04 559.17 146.37 558.735 146.52 556.95C146.235 556.89 145.815 556.74 145.56 556.575C145.515 558.03 145.38 558.24 144.66 558.24C144.105 558.24 142.005 558.24 141.6 558.24L141.03 558.21C143.1 557.205 144.96 555.915 146.28 554.31L145.32 553.83ZM137.415 560.46L137.415 563.91L146.565 563.91L146.565 564.57L147.69 564.57L147.69 560.34L146.565 560.34L146.565 562.845L143.04 562.845L143.04 559.65L141.9 559.65L141.9 562.845L138.525 562.845L138.525 560.46L137.415 560.46ZM141.63 550.83C141.78 551.205 141.915 551.685 142.005 552.09L136.155 552.09L136.155 555.03L137.265 555.03L137.265 553.11L147.735 553.11L147.735 555.03L148.875 555.03L148.875 552.09L143.175 552.09C143.085 551.655 142.89 551.1 142.695 550.65L141.63 550.83ZM156.15 560.325L156.15 561.345L161.88 561.345L161.88 560.325L156.15 560.325ZM157.365 553.65C157.26 555.135 157.065 557.145 156.87 558.345L157.17 558.345L162.945 558.36C162.66 561.645 162.33 562.98 161.94 563.37C161.79 563.52 161.64 563.55 161.37 563.535C161.1 563.535 160.425 563.535 159.705 563.46C159.885 563.745 159.99 564.18 160.02 564.495C160.74 564.54 161.43 564.54 161.82 564.51C162.27 564.48 162.555 564.375 162.84 564.045C163.38 563.505 163.725 561.93 164.07 557.88C164.085 557.715 164.1 557.385 164.1 557.385L162.24 557.385C162.48 555.525 162.72 553.275 162.84 551.715L162.045 551.625L161.865 551.685L156.645 551.685L156.645 552.72L161.67 552.72C161.55 554.04 161.355 555.87 161.175 557.385L158.055 557.385C158.19 556.275 158.34 554.865 158.415 553.725L157.365 553.65ZM150.765 551.595L150.765 552.63L152.595 552.63C152.175 554.925 151.5 557.055 150.435 558.48C150.615 558.78 150.87 559.41 150.945 559.695C151.23 559.32 151.5 558.915 151.74 558.465L151.74 563.91L152.715 563.91L152.715 562.71L155.475 562.71L155.475 556.215L152.73 556.215C153.12 555.09 153.435 553.875 153.675 552.63L155.91 552.63L155.91 551.595L150.765 551.595ZM152.715 557.235L154.485 557.235L154.485 561.705L152.715 561.705L152.715 557.235Z"></path></g><rect  x="40" y="610" width="310" height="50" rx="25"    fill="url(#linear_fill_AYlawf3UfWm9En5V7_eoZ_0)" ></rect><g ><path     fill="#FFFFFF"  d="M178.524 631.176C179.564 631.672 180.892 632.44 181.564 632.968L182.252 631.976C181.564 631.48 180.22 630.76 179.196 630.312L178.524 631.176ZM177.692 635.608C178.7 636.088 180.012 636.84 180.652 637.352L181.324 636.344C180.652 635.848 179.324 635.144 178.348 634.712L177.692 635.608ZM178.156 643.848L179.164 644.664C180.124 643.176 181.228 641.16 182.076 639.48L181.212 638.68C180.284 640.504 179.02 642.616 178.156 643.848ZM185.788 630.456C186.332 631.288 186.892 632.408 187.116 633.112L188.284 632.648C188.044 631.944 187.436 630.872 186.876 630.056L185.788 630.456ZM182.364 633.176L182.364 634.312L186.572 634.312L186.572 637.928L182.972 637.928L182.972 639.064L186.572 639.064L186.572 643.192L181.852 643.192L181.852 644.344L192.412 644.344L192.412 643.192L187.82 643.192L187.82 639.064L191.452 639.064L191.452 637.928L187.82 637.928L187.82 634.312L192.028 634.312L192.028 633.176L182.364 633.176ZM205.684 631.16L205.684 636.136L205.684 636.472L204.02 636.472L204.02 631.16L199.444 631.16L199.444 636.104L199.444 636.472L197.652 636.472L197.652 637.624L199.412 637.624C199.316 639.784 198.964 642.232 197.62 644.088C197.876 644.248 198.324 644.68 198.5 644.936C199.972 642.92 200.436 640.04 200.564 637.624L202.852 637.624L202.852 643.32C202.852 643.56 202.772 643.624 202.548 643.64C202.324 643.656 201.588 643.656 200.772 643.624C200.932 643.928 201.124 644.424 201.172 644.712C202.292 644.712 202.996 644.696 203.428 644.504C203.86 644.312 204.02 643.976 204.02 643.336L204.02 637.624L205.652 637.624C205.572 639.752 205.252 642.2 204.068 644.056C204.308 644.2 204.788 644.648 204.964 644.872C206.308 642.872 206.724 640.008 206.82 637.624L209.412 637.624L209.412 643.368C209.412 643.608 209.332 643.688 209.076 643.704C208.868 643.72 208.084 643.72 207.252 643.704C207.428 644.008 207.588 644.52 207.652 644.824C208.82 644.824 209.54 644.808 209.988 644.616C210.436 644.424 210.596 644.056 210.596 643.384L210.596 637.624L212.308 637.624L212.308 636.472L210.596 636.472L210.596 631.16L205.684 631.16ZM200.596 632.296L202.852 632.296L202.852 636.472L200.596 636.472L200.596 636.104L200.596 632.296ZM206.852 636.472L206.852 636.136L206.852 632.296L209.412 632.296L209.412 636.472L206.852 636.472Z"></path></g><g ><path     fill="#7BA8C9"  d="M161.302 681.348L161.302 682.398L170.458 682.398L170.458 686.08L163.108 686.08L163.108 683.77L162.044 683.77L162.044 690.812C162.044 692.548 162.758 692.968 165.026 692.968C165.558 692.968 169.73 692.968 170.29 692.968C172.6 692.968 173.062 692.198 173.328 689.622C173.02 689.566 172.544 689.384 172.264 689.188C172.068 691.442 171.83 691.932 170.304 691.932C169.352 691.932 165.712 691.932 164.97 691.932C163.43 691.932 163.108 691.722 163.108 690.826L163.108 687.116L170.458 687.116L170.458 687.816L171.55 687.816L171.55 681.348L161.302 681.348ZM179.474 680.48C179.306 681.082 179.11 681.698 178.858 682.3L174.882 682.3L174.882 683.28L178.424 683.28C177.528 685.128 176.24 686.836 174.56 687.984C174.756 688.18 175.092 688.558 175.232 688.796C176.114 688.166 176.898 687.41 177.57 686.556L177.57 693.346L178.606 693.346L178.606 690.574L184.472 690.574L184.472 692.03C184.472 692.24 184.402 692.324 184.164 692.324C183.898 692.338 183.044 692.352 182.12 692.31C182.26 692.604 182.414 693.038 182.47 693.318C183.674 693.318 184.444 693.318 184.906 693.164C185.368 692.982 185.508 692.66 185.508 692.044L185.508 684.904L178.704 684.904C179.026 684.372 179.306 683.84 179.558 683.28L187.146 683.28L187.146 682.3L179.978 682.3C180.188 681.782 180.37 681.25 180.538 680.732L179.474 680.48ZM178.606 688.194L184.472 688.194L184.472 689.664L178.606 689.664L178.606 688.194ZM178.606 687.298L178.606 685.856L184.472 685.856L184.472 687.298L178.606 687.298ZM190.982 682.916L190.982 686.92C190.982 688.712 190.842 691.246 188.518 692.646C188.714 692.8 188.98 693.108 189.092 693.276C191.556 691.666 191.822 688.978 191.822 686.92L191.822 682.916L190.982 682.916ZM191.486 690.42C192.13 691.19 192.886 692.254 193.208 692.926L193.922 692.352C193.572 691.722 192.788 690.7 192.144 689.944L191.486 690.42ZM189.19 681.138L189.19 689.762L190.016 689.762L190.016 682.006L192.732 682.006L192.732 689.72L193.572 689.72L193.572 681.138L189.19 681.138ZM199.774 681.096C199.074 682.496 197.884 683.854 196.638 684.722C196.876 684.904 197.24 685.296 197.408 685.492C198.654 684.512 199.942 682.986 200.754 681.404L199.774 681.096ZM195 693.43C195.224 693.248 195.63 693.08 198.332 691.974C198.276 691.75 198.234 691.344 198.234 691.05L196.176 691.792L196.176 686.906L197.324 686.906C197.954 689.566 199.102 691.834 200.796 693.052C200.964 692.786 201.286 692.422 201.51 692.24C199.956 691.232 198.864 689.202 198.29 686.906L201.23 686.906L201.23 685.926L196.176 685.926L196.176 680.76L195.182 680.76L195.182 685.926L193.936 685.926L193.936 686.906L195.182 686.906L195.182 691.652C195.182 692.212 194.818 692.464 194.566 692.576C194.734 692.786 194.93 693.192 195 693.43ZM205.64 681.992L212.304 681.992L212.304 683.896L205.64 683.896L205.64 681.992ZM204.59 681.054L204.59 684.82L213.41 684.82L213.41 681.054L204.59 681.054ZM202.882 686.08L202.882 687.046L205.766 687.046C205.486 687.914 205.136 688.88 204.842 689.566L212.178 689.566C211.912 691.19 211.632 691.974 211.282 692.254C211.114 692.366 210.946 692.38 210.61 692.38C210.218 692.38 209.196 692.366 208.216 692.268C208.412 692.562 208.552 692.968 208.58 693.276C209.546 693.332 210.47 693.346 210.946 693.318C211.492 693.304 211.828 693.22 212.164 692.94C212.682 692.492 213.032 691.442 213.368 689.09C213.396 688.936 213.424 688.614 213.424 688.614L206.41 688.614L206.928 687.046L215.062 687.046L215.062 686.08L202.882 686.08ZM218.73 688.852L219.878 688.852C219.5 686.738 222.454 686.29 222.454 684.148C222.454 682.58 221.348 681.586 219.612 681.586C218.254 681.586 217.316 682.202 216.462 683.098L217.218 683.798C217.918 683.028 218.66 682.636 219.472 682.636C220.662 682.636 221.208 683.336 221.208 684.26C221.208 685.856 218.296 686.5 218.73 688.852ZM219.332 692.31C219.822 692.31 220.228 691.946 220.228 691.386C220.228 690.826 219.822 690.448 219.332 690.448C218.828 690.448 218.422 690.826 218.422 691.386C218.422 691.946 218.828 692.31 219.332 692.31Z"></path></g><g ><path     fill="#5B9BD5"  d="M174.675 716.09C175.26 715.85 176.1 715.805 184.275 715.16C184.575 715.625 184.83 716.06 185.01 716.45L186.09 715.865C185.4 714.545 183.945 712.55 182.58 711.065L181.575 711.545C182.265 712.31 182.985 713.24 183.615 714.14L176.175 714.68C177.3 713.435 178.455 711.875 179.445 710.24L186.765 710.24L186.765 709.115L180.585 709.115L180.585 706.28L185.655 706.28L185.655 705.155L180.585 705.155L180.585 702.785L179.4 702.785L179.4 705.155L174.45 705.155L174.45 706.28L179.4 706.28L179.4 709.115L173.295 709.115L173.295 710.24L178.05 710.24C177.09 711.935 175.815 713.555 175.41 714.005C174.96 714.545 174.615 714.89 174.285 714.965C174.435 715.28 174.615 715.85 174.675 716.09ZM191.745 710.12L198 710.12L198 712.01L191.745 712.01L191.745 710.12ZM190.62 709.175L190.62 712.94L199.2 712.94L199.2 709.175L190.62 709.175ZM200.7 704.69C200.175 705.245 199.32 705.965 198.585 706.52C198.225 706.16 197.88 705.785 197.565 705.38C198.3 704.87 199.17 704.18 199.875 703.535L199.005 702.92C198.525 703.46 197.745 704.165 197.055 704.69C196.635 704.105 196.29 703.475 196.005 702.83L195.03 703.16C195.645 704.555 196.5 705.875 197.535 706.985L192.555 706.985C193.41 706.04 194.145 704.93 194.61 703.7L193.875 703.325L193.665 703.37L189.015 703.37L189.015 704.315L193.14 704.315C192.75 705.065 192.225 705.77 191.625 706.415C191.145 705.905 190.335 705.32 189.645 704.93L189.03 705.545C189.705 705.965 190.47 706.58 190.95 707.075C190.005 707.93 188.925 708.635 187.89 709.07C188.115 709.28 188.43 709.67 188.58 709.925C189.87 709.31 191.205 708.395 192.33 707.225L192.33 707.945L197.73 707.945L197.73 707.195C198.78 708.29 200.01 709.19 201.315 709.79C201.495 709.49 201.825 709.055 202.095 708.845C201.075 708.44 200.115 707.84 199.245 707.12C199.995 706.595 200.85 705.92 201.54 705.29L200.7 704.69ZM197.265 713.03C197.025 713.69 196.575 714.62 196.185 715.265L192.69 715.265L193.62 714.935C193.47 714.425 193.095 713.63 192.705 713.06L191.685 713.39C192.045 713.96 192.405 714.755 192.54 715.265L188.4 715.265L188.4 716.24L201.615 716.24L201.615 715.265L197.34 715.265C197.67 714.695 198.03 713.99 198.36 713.33L197.265 713.03ZM204.51 710.645C205.485 711.185 206.67 712.04 207.24 712.61L208.035 711.83C207.435 711.26 206.22 710.465 205.275 709.955L204.51 710.645ZM204.51 703.64L204.51 704.675L213.6 704.675L213.54 706.055L204.96 706.055L204.96 707.09L213.48 707.09L213.39 708.47L203.505 708.47L203.505 709.475L209.415 709.475L209.415 712.22C207.24 713.12 204.975 714.035 203.52 714.59L204.12 715.595C205.59 714.965 207.555 714.125 209.415 713.3L209.415 715.37C209.415 715.58 209.34 715.64 209.1 715.655C208.86 715.67 208.02 715.67 207.135 715.64C207.285 715.925 207.465 716.345 207.525 716.63C208.695 716.63 209.46 716.63 209.925 716.465C210.405 716.3 210.555 716.03 210.555 715.385L210.555 711.86C211.845 713.81 213.72 715.265 216.06 716C216.21 715.7 216.555 715.265 216.795 715.025C215.175 714.59 213.765 713.795 212.625 712.745C213.585 712.16 214.71 711.32 215.61 710.555L214.65 709.85C213.975 710.525 212.865 711.41 211.935 712.04C211.38 711.41 210.915 710.69 210.555 709.925L210.555 709.475L216.6 709.475L216.6 708.47L214.56 708.47C214.695 706.925 214.8 705.08 214.83 703.64L213.945 703.58L213.75 703.64L204.51 703.64Z"></path></g><g ><path     fill="#B0C4DE"  d="M86.034 793.246C86.749 793.587 87.662 794.115 88.124 794.478L88.597 793.796C88.124 793.455 87.2 792.96 86.496 792.652L86.034 793.246ZM85.462 796.293C86.155 796.623 87.057 797.14 87.497 797.492L87.959 796.799C87.497 796.458 86.584 795.974 85.913 795.677L85.462 796.293ZM85.781 801.958L86.474 802.519C87.134 801.496 87.893 800.11 88.476 798.955L87.882 798.405C87.244 799.659 86.375 801.111 85.781 801.958ZM91.028 792.751C91.402 793.323 91.787 794.093 91.941 794.577L92.744 794.258C92.579 793.774 92.161 793.037 91.776 792.476L91.028 792.751ZM88.674 794.621L88.674 795.402L91.567 795.402L91.567 797.888L89.092 797.888L89.092 798.669L91.567 798.669L91.567 801.507L88.322 801.507L88.322 802.299L95.582 802.299L95.582 801.507L92.425 801.507L92.425 798.669L94.922 798.669L94.922 797.888L92.425 797.888L92.425 795.402L95.318 795.402L95.318 794.621L88.674 794.621ZM101.984 793.235L101.984 796.656L101.984 796.887L100.84 796.887L100.84 793.235L97.694 793.235L97.694 796.634L97.694 796.887L96.462 796.887L96.462 797.679L97.672 797.679C97.606 799.164 97.364 800.847 96.44 802.123C96.616 802.233 96.924 802.53 97.045 802.706C98.057 801.32 98.376 799.34 98.464 797.679L100.037 797.679L100.037 801.595C100.037 801.76 99.982 801.804 99.828 801.815C99.674 801.826 99.168 801.826 98.607 801.804C98.717 802.013 98.849 802.354 98.882 802.552C99.652 802.552 100.136 802.541 100.433 802.409C100.73 802.277 100.84 802.046 100.84 801.606L100.84 797.679L101.962 797.679C101.907 799.142 101.687 800.825 100.873 802.101C101.038 802.2 101.368 802.508 101.489 802.662C102.413 801.287 102.699 799.318 102.765 797.679L104.547 797.679L104.547 801.628C104.547 801.793 104.492 801.848 104.316 801.859C104.173 801.87 103.634 801.87 103.062 801.859C103.183 802.068 103.293 802.42 103.337 802.629C104.14 802.629 104.635 802.618 104.943 802.486C105.251 802.354 105.361 802.101 105.361 801.639L105.361 797.679L106.538 797.679L106.538 796.887L105.361 796.887L105.361 793.235L101.984 793.235ZM98.486 794.016L100.037 794.016L100.037 796.887L98.486 796.887L98.486 796.634L98.486 794.016ZM102.787 796.887L102.787 796.656L102.787 794.016L104.547 794.016L104.547 796.887L102.787 796.887ZM111.598 796.029L111.598 797.547L109.013 797.547L109.013 796.029L111.598 796.029ZM111.598 795.27L109.013 795.27L109.013 793.84L111.598 793.84L111.598 795.27ZM110.465 799.197C110.674 799.549 110.894 799.934 111.114 800.33L109.013 801.012L109.013 798.295L112.423 798.295L112.423 793.103L108.188 793.103L108.188 800.759C108.188 801.177 107.902 801.375 107.715 801.474C107.847 801.672 108.012 802.068 108.067 802.31C108.298 802.123 108.661 801.98 111.455 800.99C111.664 801.397 111.84 801.793 111.961 802.09L112.709 801.683C112.412 800.957 111.73 799.758 111.158 798.856L110.465 799.197ZM113.424 793.169L113.424 802.64L114.238 802.64L114.238 793.939L116.24 793.939L116.24 799.505C116.24 799.659 116.196 799.703 116.031 799.703C115.888 799.714 115.371 799.714 114.81 799.692C114.92 799.923 115.03 800.264 115.052 800.484C115.855 800.495 116.35 800.484 116.658 800.341C116.966 800.209 117.054 799.967 117.054 799.516L117.054 793.169L113.424 793.169ZM125.865 793.147C126.514 793.697 127.284 794.467 127.647 794.962L128.285 794.522C127.911 794.027 127.119 793.279 126.459 792.751L125.865 793.147ZM124.028 792.674C124.072 793.84 124.149 794.94 124.248 795.952L121.564 796.293L121.685 797.074L124.336 796.744C124.754 800.198 125.634 802.497 127.46 802.629C128.043 802.662 128.483 802.09 128.725 800.187C128.56 800.11 128.197 799.912 128.032 799.747C127.922 801.023 127.746 801.672 127.427 801.661C126.25 801.54 125.524 799.56 125.15 796.634L128.505 796.216L128.384 795.435L125.062 795.853C124.952 794.874 124.886 793.796 124.853 792.674L124.028 792.674ZM121.443 792.63C120.717 794.379 119.496 796.062 118.231 797.14C118.374 797.327 118.627 797.745 118.715 797.932C119.221 797.481 119.716 796.931 120.189 796.326L120.189 802.618L121.036 802.618L121.036 795.116C121.487 794.412 121.894 793.653 122.224 792.883L121.443 792.63ZM131.772 802.629C132.025 802.464 132.432 802.321 135.501 801.342C135.457 801.166 135.391 800.847 135.369 800.616L132.685 801.419L132.685 798.999C133.345 798.548 133.939 798.053 134.412 797.525C135.27 799.835 136.81 801.507 139.087 802.266C139.208 802.046 139.45 801.727 139.637 801.551C138.548 801.232 137.613 800.693 136.854 799.978C137.547 799.549 138.35 798.977 138.988 798.438L138.306 797.954C137.822 798.427 137.052 799.021 136.392 799.483C135.908 798.911 135.512 798.251 135.226 797.525L139.274 797.525L139.274 796.81L134.896 796.81L134.896 795.831L138.438 795.831L138.438 795.149L134.896 795.149L134.896 794.214L138.922 794.214L138.922 793.499L134.896 793.499L134.896 792.52L134.06 792.52L134.06 793.499L130.155 793.499L130.155 794.214L134.06 794.214L134.06 795.149L130.716 795.149L130.716 795.831L134.06 795.831L134.06 796.81L129.715 796.81L129.715 797.525L133.367 797.525C132.322 798.46 130.76 799.307 129.396 799.747C129.572 799.912 129.814 800.22 129.946 800.418C130.562 800.198 131.211 799.89 131.838 799.527L131.838 801.155C131.838 801.595 131.596 801.782 131.409 801.881C131.541 802.057 131.717 802.431 131.772 802.629ZM142.728 795.028L142.728 795.743L148.316 795.743L148.316 795.028L142.728 795.028ZM144.048 797.602L146.952 797.602L146.952 799.692L144.048 799.692L144.048 797.602ZM143.289 796.898L143.289 801.199L144.048 801.199L144.048 800.396L147.722 800.396L147.722 796.898L143.289 796.898ZM140.968 793.092L140.968 802.662L141.771 802.662L141.771 793.873L149.24 793.873L149.24 801.584C149.24 801.782 149.174 801.848 148.976 801.859C148.789 801.859 148.151 801.87 147.458 801.848C147.59 802.057 147.711 802.431 147.755 802.651C148.701 802.651 149.262 802.629 149.592 802.497C149.933 802.365 150.054 802.101 150.054 801.595L150.054 793.092L140.968 793.092ZM154.278 800.121L154.278 801.54C154.278 802.343 154.564 802.541 155.686 802.541C155.917 802.541 157.523 802.541 157.765 802.541C158.667 802.541 158.909 802.255 159.008 801.012C158.788 800.968 158.469 800.858 158.282 800.737C158.238 801.716 158.172 801.848 157.699 801.848C157.336 801.848 156.005 801.848 155.752 801.848C155.18 801.848 155.081 801.804 155.081 801.54L155.081 800.121L154.278 800.121ZM159.151 800.22C159.712 800.814 160.317 801.628 160.559 802.167L161.252 801.826C160.988 801.287 160.372 800.495 159.8 799.923L159.151 800.22ZM152.991 800.033C152.716 800.671 152.232 801.463 151.671 801.947L152.353 802.354C152.914 801.826 153.365 801.001 153.684 800.341L152.991 800.033ZM153.871 798.207L159.162 798.207L159.162 798.977L153.871 798.977L153.871 798.207ZM153.871 796.909L159.162 796.909L159.162 797.657L153.871 797.657L153.871 796.909ZM153.09 796.337L153.09 799.549L155.873 799.549L155.488 799.912C156.093 800.253 156.852 800.781 157.204 801.144L157.721 800.627C157.38 800.297 156.731 799.857 156.159 799.549L159.987 799.549L159.987 796.337L153.09 796.337ZM154.718 794.005L158.271 794.005C158.15 794.324 157.941 794.764 157.765 795.105L155.202 795.105C155.125 794.797 154.938 794.346 154.718 794.005ZM155.873 792.608C156.005 792.817 156.137 793.092 156.247 793.334L152.298 793.334L152.298 794.005L154.608 794.005L153.959 794.159C154.113 794.445 154.278 794.808 154.355 795.105L151.803 795.105L151.803 795.776L161.263 795.776L161.263 795.105L158.612 795.105C158.777 794.819 158.953 794.489 159.129 794.148L158.491 794.005L160.691 794.005L160.691 793.334L157.171 793.334C157.039 793.037 156.852 792.685 156.665 792.421L155.873 792.608ZM170.866 802.508L168.49 797.58L170.866 792.652L170.261 792.454L167.819 797.58L170.261 802.706L170.866 802.508ZM172.593 802.508L170.228 797.58L172.593 792.652L171.999 792.454L169.557 797.58L171.999 802.706L172.593 802.508ZM174.683 793.29L174.683 797.283C174.683 798.834 174.573 800.781 173.352 802.156C173.539 802.255 173.869 802.53 173.99 802.695C174.837 801.76 175.211 800.495 175.376 799.263L178.137 799.263L178.137 802.541L178.973 802.541L178.973 799.263L181.943 799.263L181.943 801.518C181.943 801.716 181.866 801.782 181.646 801.793C181.437 801.804 180.689 801.815 179.919 801.782C180.029 802.002 180.161 802.365 180.205 802.574C181.239 802.585 181.877 802.574 182.251 802.442C182.625 802.31 182.757 802.057 182.757 801.518L182.757 793.29L174.683 793.29ZM175.497 794.082L178.137 794.082L178.137 795.853L175.497 795.853L175.497 794.082ZM181.943 794.082L181.943 795.853L178.973 795.853L178.973 794.082L181.943 794.082ZM175.497 796.634L178.137 796.634L178.137 798.482L175.453 798.482C175.486 798.064 175.497 797.657 175.497 797.283L175.497 796.634ZM181.943 796.634L181.943 798.482L178.973 798.482L178.973 796.634L181.943 796.634ZM186.717 794.995L192.459 794.995L192.459 797.206L186.706 797.206L186.717 796.623L186.717 794.995ZM188.851 792.674C189.071 793.158 189.313 793.774 189.445 794.225L185.859 794.225L185.859 796.623C185.859 798.284 185.716 800.572 184.374 802.211C184.572 802.299 184.935 802.552 185.089 802.706C186.167 801.386 186.552 799.56 186.673 797.976L192.459 797.976L192.459 798.702L193.295 798.702L193.295 794.225L189.808 794.225L190.314 794.071C190.182 793.642 189.907 792.971 189.643 792.465L188.851 792.674ZM199.246 796.546C199.048 797.591 198.685 798.636 198.201 799.34C198.377 799.439 198.696 799.659 198.828 799.769C199.323 799.01 199.752 797.855 199.994 796.689L199.246 796.546ZM204.218 796.722C204.526 797.734 204.834 799.076 204.922 799.868L205.692 799.67C205.571 798.9 205.241 797.591 204.922 796.579L204.218 796.722ZM196.76 792.52L196.76 795.094L195.517 795.094L195.517 795.864L196.76 795.864L196.76 802.629L197.563 802.629L197.563 795.864L198.74 795.864L198.74 795.094L197.563 795.094L197.563 792.52L196.76 792.52ZM201.039 792.619L201.039 794.588L201.039 794.61L199.081 794.61L199.081 795.413L201.028 795.413C200.962 797.536 200.511 800.099 198.08 802.09C198.278 802.222 198.575 802.475 198.718 802.651C201.281 800.506 201.754 797.723 201.82 795.413L203.349 795.413C203.239 799.681 203.129 801.243 202.832 801.595C202.722 801.738 202.612 801.76 202.403 801.76C202.172 801.76 201.6 801.76 200.962 801.705C201.116 801.925 201.193 802.266 201.215 802.508C201.798 802.541 202.392 802.552 202.733 802.508C203.096 802.475 203.327 802.376 203.547 802.079C203.921 801.584 204.031 799.945 204.141 795.028C204.141 794.918 204.152 794.61 204.152 794.61L201.831 794.61L201.831 794.588L201.831 792.619L201.039 792.619ZM211.962 793.037C212.402 793.774 212.864 794.753 213.04 795.358L213.788 795.017C213.612 794.412 213.117 793.466 212.655 792.74L211.962 793.037ZM207.243 793.279C207.738 793.796 208.332 794.522 208.618 794.984L209.245 794.467C208.959 794.016 208.343 793.334 207.837 792.828L207.243 793.279ZM215.152 793.202C214.789 795.49 214.217 797.547 213.04 799.197C211.929 797.657 211.258 795.666 210.862 793.334L210.081 793.466C210.554 796.073 211.269 798.24 212.479 799.89C211.709 800.759 210.708 801.485 209.421 802.035C209.575 802.211 209.806 802.519 209.916 802.717C211.192 802.145 212.204 801.397 213.007 800.528C213.832 801.452 214.866 802.167 216.142 802.673C216.274 802.453 216.538 802.123 216.736 801.958C215.438 801.496 214.404 800.781 213.568 799.857C214.899 798.075 215.559 795.842 215.999 793.334L215.152 793.202ZM206.506 795.963L206.506 796.766L208.057 796.766L208.057 800.649C208.057 801.221 207.76 801.595 207.584 801.771C207.727 801.892 207.969 802.178 208.057 802.354C208.233 802.134 208.519 801.914 210.455 800.539C210.367 800.374 210.246 800.055 210.18 799.835L208.86 800.748L208.86 795.963L206.506 795.963ZM219.134 802.508L219.728 802.706L222.17 797.58L219.728 792.454L219.134 792.652L221.499 797.58L219.134 802.508ZM217.396 802.508L217.99 802.706L220.432 797.58L217.99 792.454L217.396 792.652L219.761 797.58L217.396 802.508ZM233.841 793.543L233.841 802.145L234.644 802.145L234.644 801.243L237.097 801.243L237.097 802.068L237.933 802.068L237.933 793.543L233.841 793.543ZM234.644 800.451L234.644 794.335L237.097 794.335L237.097 800.451L234.644 800.451ZM232.829 792.619C231.861 793.015 230.123 793.345 228.66 793.543C228.748 793.73 228.858 794.016 228.891 794.203C229.474 794.137 230.101 794.049 230.717 793.939L230.717 795.776L228.55 795.776L228.55 796.546L230.508 796.546C230.002 797.932 229.122 799.439 228.286 800.286C228.429 800.495 228.638 800.814 228.737 801.056C229.452 800.297 230.178 799.032 230.717 797.734L230.717 802.618L231.531 802.618L231.531 797.767C232.004 798.394 232.62 799.23 232.873 799.648L233.379 798.966C233.115 798.625 231.938 797.239 231.531 796.821L231.531 796.546L233.456 796.546L233.456 795.776L231.531 795.776L231.531 793.774C232.224 793.631 232.862 793.466 233.379 793.268L232.829 792.619ZM247.866 802.508L245.49 797.58L247.866 792.652L247.261 792.454L244.819 797.58L247.261 802.706L247.866 802.508ZM249.593 802.508L247.228 797.58L249.593 792.652L248.999 792.454L246.557 797.58L248.999 802.706L249.593 802.508ZM255.258 799.912L255.258 801.562C255.258 802.332 255.489 802.541 256.446 802.541C256.644 802.541 257.865 802.541 258.063 802.541C258.8 802.541 259.031 802.288 259.119 801.166C258.899 801.122 258.591 801.012 258.437 800.891C258.404 801.738 258.338 801.837 257.986 801.837C257.722 801.837 256.699 801.837 256.512 801.837C256.083 801.837 256.006 801.793 256.006 801.562L256.006 799.912L255.258 799.912ZM254.279 799.879C254.103 800.528 253.773 801.386 253.41 801.914L254.037 802.321C254.411 801.727 254.73 800.814 254.917 800.154L254.279 799.879ZM255.951 799.45C256.556 799.89 257.326 800.506 257.7 800.913L258.217 800.407C257.832 800.022 257.062 799.417 256.457 799.021L255.951 799.45ZM258.679 800C259.174 800.682 259.68 801.595 259.878 802.211L260.56 801.914C260.34 801.309 259.834 800.418 259.328 799.747L258.679 800ZM255.951 792.619C255.566 793.356 254.873 794.291 253.938 794.995C254.114 795.094 254.356 795.325 254.488 795.49L254.51 795.468L254.51 795.853L259.119 795.853L259.119 796.755L254.763 796.755L254.763 797.382L259.119 797.382L259.119 798.361L254.444 798.361L254.444 799.01L259.9 799.01L259.9 795.204L257.975 795.204C258.371 794.753 258.8 794.214 259.086 793.719L258.58 793.389L258.47 793.422L256.314 793.422C256.468 793.191 256.6 792.971 256.721 792.751L255.951 792.619ZM254.818 795.204C255.203 794.841 255.555 794.456 255.863 794.06L257.997 794.06C257.744 794.456 257.403 794.885 257.117 795.204L254.818 795.204ZM250.891 792.993L250.891 802.64L251.628 802.64L251.628 793.741L253.102 793.741C252.86 794.489 252.541 795.49 252.222 796.293C253.014 797.151 253.212 797.888 253.212 798.493C253.212 798.823 253.157 799.12 252.992 799.241C252.893 799.307 252.783 799.329 252.64 799.34C252.464 799.351 252.255 799.34 252.002 799.329C252.123 799.538 252.189 799.857 252.2 800.055C252.453 800.066 252.728 800.055 252.948 800.033C253.179 800.011 253.366 799.945 253.52 799.835C253.828 799.626 253.96 799.164 253.96 798.57C253.96 797.888 253.773 797.107 252.97 796.194C253.333 795.314 253.751 794.192 254.059 793.279L253.531 792.96L253.399 792.993L250.891 792.993ZM265.796 801.98C266.104 801.815 266.566 801.727 270.372 801.133C270.515 801.562 270.636 801.969 270.724 802.31L271.549 801.969C271.23 800.715 270.394 798.658 269.646 797.063L268.887 797.349C269.316 798.284 269.756 799.384 270.119 800.396L266.797 800.88C267.633 798.636 268.414 795.688 268.909 792.971L268.029 792.817C267.578 795.611 266.632 798.757 266.324 799.593C266.016 800.473 265.763 801.067 265.51 801.155C265.598 801.397 265.752 801.804 265.796 801.98ZM265.609 792.674C264.663 793.07 263.013 793.422 261.627 793.631C261.715 793.807 261.825 794.093 261.858 794.28C262.419 794.203 263.013 794.104 263.596 793.994L263.596 795.622L261.649 795.622L261.649 796.392L263.464 796.392C262.947 797.668 262.078 799.098 261.286 799.868C261.429 800.077 261.627 800.418 261.715 800.649C262.375 799.934 263.068 798.779 263.596 797.613L263.596 802.618L264.388 802.618L264.388 797.36C264.828 797.932 265.411 798.735 265.631 799.109L266.137 798.438C265.895 798.119 264.751 796.854 264.388 796.513L264.388 796.392L266.203 796.392L266.203 795.622L264.388 795.622L264.388 793.84C265.015 793.697 265.609 793.532 266.093 793.345L265.609 792.674ZM278.743 792.52C278.435 794.17 277.929 795.765 277.203 796.898L277.203 796.502L275.696 796.502L275.696 794.093L277.621 794.093L277.621 793.301L272.561 793.301L272.561 794.093L274.893 794.093L274.893 800.264L273.782 800.506L273.782 795.765L273.023 795.765L273.023 800.66L272.363 800.792L272.528 801.628C273.892 801.309 275.85 800.858 277.676 800.418L277.599 799.659L275.696 800.088L275.696 797.294L276.928 797.294L276.884 797.349C277.071 797.481 277.412 797.756 277.544 797.91C277.808 797.558 278.039 797.162 278.259 796.722C278.545 797.888 278.908 798.944 279.403 799.857C278.776 800.737 277.962 801.43 276.873 801.947C277.038 802.123 277.28 802.475 277.368 802.662C278.402 802.123 279.216 801.441 279.854 800.605C280.448 801.474 281.174 802.167 282.087 802.64C282.219 802.42 282.472 802.112 282.659 801.947C281.702 801.507 280.954 800.781 280.349 799.868C281.064 798.669 281.515 797.173 281.801 795.336L282.549 795.336L282.549 794.566L279.095 794.566C279.271 793.95 279.436 793.312 279.568 792.652L278.743 792.52ZM278.842 795.336L280.965 795.336C280.756 796.799 280.415 798.031 279.887 799.054C279.37 798.031 279.007 796.832 278.765 795.534L278.842 795.336ZM289.358 792.476C289.006 793.466 288.357 794.39 287.587 794.995C287.73 795.072 287.95 795.215 288.115 795.336L288.115 795.721L283.748 795.721L283.748 796.447L288.115 796.447L288.115 797.305L284.54 797.305L284.54 800.154L285.398 800.154L285.398 798.02L288.115 798.02L288.115 798.977C287.136 800.187 285.299 801.166 283.473 801.595C283.66 801.76 283.88 802.079 284.001 802.288C285.508 801.859 287.037 801.034 288.115 799.967L288.115 802.64L288.995 802.64L288.995 799.989C289.952 800.88 291.404 801.782 293.12 802.233C293.241 802.024 293.483 801.694 293.648 801.518C291.624 801.067 289.875 800.044 288.995 799.065L288.995 798.02L291.745 798.02L291.745 799.351C291.745 799.461 291.712 799.494 291.591 799.494C291.459 799.505 291.041 799.505 290.59 799.494C290.689 799.67 290.821 799.934 290.865 800.143C291.492 800.143 291.932 800.143 292.218 800.033C292.515 799.912 292.592 799.736 292.592 799.351L292.592 797.305L288.995 797.305L288.995 796.447L293.219 796.447L293.219 795.721L288.995 795.721L288.995 795.017L288.753 795.017C288.973 794.764 289.193 794.489 289.391 794.192L290.216 794.192C290.502 794.621 290.766 795.116 290.876 795.468L291.613 795.204C291.514 794.929 291.305 794.544 291.074 794.192L293.362 794.192L293.362 793.488L289.809 793.488C289.941 793.224 290.062 792.949 290.172 792.674L289.358 792.476ZM285.101 792.476C284.727 793.444 284.078 794.39 283.363 795.017C283.561 795.127 283.902 795.358 284.056 795.479C284.408 795.127 284.76 794.687 285.09 794.192L285.618 794.192C285.86 794.632 286.091 795.149 286.201 795.49L286.927 795.215C286.839 794.94 286.652 794.555 286.454 794.192L288.335 794.192L288.335 793.488L285.497 793.488C285.64 793.224 285.772 792.96 285.882 792.685L285.101 792.476ZM296.134 802.508L296.728 802.706L299.17 797.58L296.728 792.454L296.134 792.652L298.499 797.58L296.134 802.508ZM294.396 802.508L294.99 802.706L297.432 797.58L294.99 792.454L294.396 792.652L296.761 797.58L294.396 802.508Z"></path></g></g><defs><clipPath id="clip-path-2Z0iWVDATCpW80BUCaPzb"><path d="M0 844L390 844L390 0L0 0L0 844Z" fill="white"/></clipPath><linearGradient id="linear_fill_AYlawf3UfWm9En5V7_eoZ_0" x1="40" y1="610" x2="350" y2="610" gradientUnits="userSpaceOnUse"><stop offset="0" stop-color="#5B9BD5"  /><stop offset="1" stop-color="#4A86C8"  /></linearGradient></defs></svg>