<svg xmlns="http://www.w3.org/2000/svg" xmlns:xlink="http://www.w3.org/1999/xlink" width="389.99998474121094" height="844" viewBox="0 0 389.99998474121094 844" fill="none"><g  clip-path="url(#clip-path-z4asT78Tr7irq_8dwZq1L)"><rect x="0" y="0" width="390" height="54"   fill="#E8F4FD" ></rect><g ><path     fill="#333333"  d="M33.66 38.61C35.775 38.61 37.755 36.84 37.755 32.505C37.755 28.845 36.045 27.15 33.93 27.15C32.145 27.15 30.63 28.59 30.63 30.78C30.63 33.09 31.89 34.26 33.735 34.26C34.575 34.26 35.505 33.765 36.135 32.985C36.045 36.105 34.92 37.17 33.57 37.17C32.88 37.17 32.205 36.855 31.77 36.345L30.825 37.425C31.47 38.085 32.37 38.61 33.66 38.61ZM36.12 31.65C35.49 32.61 34.71 33 34.035 33C32.88 33 32.25 32.175 32.25 30.78C32.25 29.34 33 28.485 33.96 28.485C35.145 28.485 35.955 29.475 36.12 31.65ZM40.785 32.7C41.445 32.7 41.955 32.205 41.955 31.5C41.955 30.78 41.445 30.27 40.785 30.27C40.14 30.27 39.63 30.78 39.63 31.5C39.63 32.205 40.14 32.7 40.785 32.7ZM40.785 38.61C41.445 38.61 41.955 38.085 41.955 37.38C41.955 36.675 41.445 36.165 40.785 36.165C40.14 36.165 39.63 36.675 39.63 37.38C39.63 38.085 40.14 38.61 40.785 38.61ZM48.105 38.4L49.725 38.4L49.725 35.43L51.12 35.43L51.12 34.08L49.725 34.08L49.725 27.345L47.715 27.345L43.32 34.275L43.32 35.43L48.105 35.43L48.105 38.4ZM48.105 34.08L45.075 34.08L47.235 30.765C47.55 30.195 47.85 29.625 48.12 29.055L48.18 29.055C48.15 29.67 48.105 30.6 48.105 31.2L48.105 34.08ZM52.845 38.4L59.16 38.4L59.16 36.975L57.015 36.975L57.015 27.345L55.71 27.345C55.065 27.75 54.33 28.02 53.295 28.2L53.295 29.295L55.275 29.295L55.275 36.975L52.845 36.975L52.845 38.4Z"></path></g><g ><path     fill="#333333"  d="M341.5 40.2L353.5 40.2L353.5 25.2L341.5 25.2L341.5 40.2ZM347.5 32.085L342.73 25.95L352.27 25.95L347.5 32.085ZM347.98 32.7L352.75 26.565L352.75 38.835L347.98 32.7ZM342.73 39.45L347.5 33.315L352.27 39.45L342.73 39.45ZM342.25 26.565L347.02 32.7L342.25 38.835L342.25 26.565ZM356.5 40.2L368.5 40.2L368.5 25.2L356.5 25.2L356.5 40.2ZM362.5 32.085L357.73 25.95L367.27 25.95L362.5 32.085ZM362.98 32.7L367.75 26.565L367.75 38.835L362.98 32.7ZM357.73 39.45L362.5 33.315L367.27 39.45L357.73 39.45ZM357.25 26.565L362.02 32.7L357.25 38.835L357.25 26.565ZM371.5 40.2L383.5 40.2L383.5 25.2L371.5 25.2L371.5 40.2ZM377.5 32.085L372.73 25.95L382.27 25.95L377.5 32.085ZM377.98 32.7L382.75 26.565L382.75 38.835L377.98 32.7ZM372.73 39.45L377.5 33.315L382.27 39.45L372.73 39.45ZM372.25 26.565L377.02 32.7L372.25 38.835L372.25 26.565Z"></path></g><rect x="0" y="54" width="390" height="60"   fill="#E8F4FD" ></rect><g ></g><g ><path     fill="#2C5F8A"  d="M147.48 91.046C148.02 91.946 148.668 93.17 148.956 93.962L149.91 93.386C149.64 92.63 148.992 91.46 148.398 90.56L147.48 91.046ZM143.43 90.65C143.07 91.748 142.476 92.864 141.738 93.656C142.008 93.818 142.476 94.16 142.692 94.34C143.394 93.494 144.114 92.18 144.528 90.92L143.43 90.65ZM150.954 81.488L150.954 87.68C150.954 90.074 150.81 93.17 149.28 95.33C149.568 95.492 150.108 95.906 150.324 96.158C151.98 93.818 152.214 90.272 152.214 87.68L152.214 87.104L154.95 87.104L154.95 96.23L156.264 96.23L156.264 87.104L158.244 87.104L158.244 85.844L152.214 85.844L152.214 82.388C154.122 82.1 156.174 81.632 157.686 81.074L156.588 80.084C155.292 80.624 152.97 81.164 150.954 81.488ZM144.852 79.994C145.14 80.498 145.428 81.11 145.644 81.65L142.098 81.65L142.098 82.784L150.054 82.784L150.054 81.65L147.048 81.65C146.814 81.056 146.418 80.282 146.076 79.688L144.852 79.994ZM147.786 82.874C147.57 83.702 147.156 84.926 146.814 85.754L141.828 85.754L141.828 86.906L145.518 86.906L145.518 88.778L141.9 88.778L141.9 89.966L145.518 89.966L145.518 94.556C145.518 94.736 145.482 94.79 145.302 94.79C145.104 94.808 144.546 94.808 143.916 94.79C144.096 95.114 144.276 95.618 144.312 95.942C145.194 95.942 145.806 95.924 146.22 95.726C146.634 95.528 146.76 95.204 146.76 94.574L146.76 89.966L150.126 89.966L150.126 88.778L146.76 88.778L146.76 86.906L150.342 86.906L150.342 85.754L148.038 85.754C148.38 84.998 148.722 84.026 149.046 83.144L147.786 82.874ZM143.268 83.162C143.628 83.972 143.898 85.052 143.97 85.754L145.14 85.43C145.05 84.746 144.744 83.684 144.366 82.91L143.268 83.162ZM166.092 81.29L166.092 82.37L169.458 82.37L169.458 83.72L164.94 83.72L164.94 84.782L169.458 84.782L169.458 86.186L165.966 86.186L165.966 87.284L169.458 87.284L169.458 88.67L165.822 88.67L165.822 89.696L169.458 89.696L169.458 91.118L165.066 91.118L165.066 92.198L169.458 92.198L169.458 93.998L170.736 93.998L170.736 92.198L175.866 92.198L175.866 91.118L170.736 91.118L170.736 89.696L175.182 89.696L175.182 88.67L170.736 88.67L170.736 87.284L174.768 87.284L174.768 84.782L176.01 84.782L176.01 83.72L174.768 83.72L174.768 81.29L170.736 81.29L170.736 79.76L169.458 79.76L169.458 81.29L166.092 81.29ZM170.736 84.782L173.562 84.782L173.562 86.186L170.736 86.186L170.736 84.782ZM170.736 83.72L170.736 82.37L173.562 82.37L173.562 83.72L170.736 83.72ZM160.746 87.806C160.746 87.608 161.16 87.374 161.43 87.23L163.644 87.23C163.428 88.832 163.068 90.218 162.6 91.406C162.114 90.686 161.718 89.786 161.412 88.706L160.404 89.084C160.836 90.542 161.376 91.694 162.042 92.612C161.412 93.8 160.602 94.736 159.666 95.42C159.954 95.6 160.458 96.068 160.656 96.32C161.52 95.654 162.294 94.754 162.924 93.62C164.814 95.42 167.442 95.87 170.754 95.87L175.794 95.87C175.866 95.51 176.118 94.916 176.316 94.628C175.398 94.646 171.492 94.646 170.772 94.646C167.73 94.646 165.246 94.25 163.482 92.504C164.22 90.83 164.742 88.724 165.012 86.186L164.256 86.006L164.004 86.024L162.456 86.024C163.356 84.674 164.274 82.982 165.084 81.236L164.22 80.678L163.788 80.876L160.152 80.876L160.152 82.082L163.266 82.082C162.546 83.684 161.646 85.16 161.322 85.61C160.962 86.186 160.512 86.636 160.188 86.708C160.368 86.978 160.638 87.536 160.746 87.806ZM179.826 95.924C180.51 95.672 181.518 95.6 191.058 94.79C191.472 95.33 191.832 95.852 192.084 96.302L193.29 95.564C192.498 94.214 190.788 92.27 189.168 90.83L188.034 91.442C188.736 92.09 189.456 92.846 190.104 93.602L181.914 94.232C183.192 93.044 184.47 91.604 185.586 90.128L193.524 90.128L193.524 88.814L178.602 88.814L178.602 90.128L183.75 90.128C182.58 91.73 181.212 93.152 180.726 93.584C180.168 94.106 179.754 94.448 179.358 94.538C179.52 94.898 179.754 95.618 179.826 95.924ZM186.072 79.76C184.452 82.172 181.284 84.458 177.756 85.952C178.08 86.204 178.548 86.78 178.746 87.122C179.79 86.636 180.798 86.096 181.752 85.502L181.752 86.6L190.338 86.6L190.338 85.34L181.986 85.34C183.534 84.332 184.92 83.198 186.054 81.956C187.134 83.072 188.646 84.296 190.338 85.34C191.31 85.952 192.354 86.492 193.38 86.906C193.596 86.546 194.046 85.988 194.334 85.718C191.418 84.71 188.484 82.748 186.828 81.038L187.368 80.318L186.072 79.76ZM204.756 80.606C205.476 81.812 206.232 83.414 206.52 84.404L207.744 83.846C207.456 82.856 206.646 81.308 205.89 80.12L204.756 80.606ZM197.034 81.002C197.844 81.848 198.816 83.036 199.284 83.792L200.31 82.946C199.842 82.208 198.834 81.092 198.006 80.264L197.034 81.002ZM209.976 80.876C209.382 84.62 208.446 87.986 206.52 90.686C204.702 88.166 203.604 84.908 202.956 81.092L201.678 81.308C202.452 85.574 203.622 89.12 205.602 91.82C204.342 93.242 202.704 94.43 200.598 95.33C200.85 95.618 201.228 96.122 201.408 96.446C203.496 95.51 205.152 94.286 206.466 92.864C207.816 94.376 209.508 95.546 211.596 96.374C211.812 96.014 212.244 95.474 212.568 95.204C210.444 94.448 208.752 93.278 207.384 91.766C209.562 88.85 210.642 85.196 211.362 81.092L209.976 80.876ZM195.828 85.394L195.828 86.708L198.366 86.708L198.366 93.062C198.366 93.998 197.88 94.61 197.592 94.898C197.826 95.096 198.222 95.564 198.366 95.852C198.654 95.492 199.122 95.132 202.29 92.882C202.146 92.612 201.948 92.09 201.84 91.73L199.68 93.224L199.68 85.394L195.828 85.394ZM213.738 93.926L213.972 95.276C215.754 94.916 218.202 94.43 220.542 93.962L220.434 92.738C217.986 93.188 215.412 93.674 213.738 93.926ZM214.08 87.248C214.386 87.104 214.854 87.014 217.374 86.708C216.474 87.842 215.646 88.742 215.268 89.084C214.638 89.732 214.188 90.164 213.756 90.254C213.918 90.614 214.152 91.28 214.224 91.568C214.62 91.352 215.286 91.208 220.362 90.416C220.326 90.128 220.29 89.588 220.308 89.246L216.276 89.804C217.842 88.256 219.408 86.33 220.758 84.35L219.57 83.576C219.192 84.224 218.76 84.872 218.31 85.484L215.628 85.718C216.816 84.206 218.004 82.28 218.958 80.372L217.626 79.796C216.726 81.956 215.232 84.242 214.764 84.836C214.332 85.43 213.99 85.844 213.63 85.916C213.792 86.276 214.008 86.942 214.08 87.248ZM221.28 80.93L221.28 82.262L227.832 82.262L227.832 86.834L221.568 86.834L221.568 93.818C221.568 95.528 222.162 95.96 224.088 95.96C224.502 95.96 227.4 95.96 227.85 95.96C229.722 95.96 230.154 95.132 230.334 92.234C229.956 92.144 229.38 91.91 229.056 91.658C228.948 94.214 228.786 94.682 227.778 94.682C227.13 94.682 224.682 94.682 224.196 94.682C223.134 94.682 222.954 94.52 222.954 93.818L222.954 88.13L227.832 88.13L227.832 89.048L229.182 89.048L229.182 80.93L221.28 80.93ZM243.096 90.704C242.502 91.748 241.674 92.558 240.576 93.206C239.262 92.882 237.912 92.594 236.58 92.342C236.958 91.856 237.39 91.298 237.804 90.704L243.096 90.704ZM233.142 83.27L233.142 87.932L237.948 87.932C237.696 88.436 237.39 88.976 237.048 89.516L231.972 89.516L231.972 90.704L236.238 90.704C235.608 91.586 234.942 92.414 234.348 93.062C235.878 93.35 237.372 93.656 238.794 93.998C237.03 94.61 234.798 94.952 232.062 95.114C232.296 95.42 232.512 95.906 232.62 96.284C236.022 95.996 238.704 95.474 240.738 94.484C243.024 95.096 245.004 95.726 246.48 96.32L247.632 95.276C246.192 94.736 244.302 94.16 242.214 93.602C243.24 92.846 244.032 91.892 244.59 90.704L248.046 90.704L248.046 89.516L238.596 89.516C238.884 89.048 239.154 88.58 239.388 88.13L238.56 87.932L246.984 87.932L246.984 83.27L242.646 83.27L242.646 81.74L247.74 81.74L247.74 80.534L232.242 80.534L232.242 81.74L237.156 81.74L237.156 83.27L233.142 83.27ZM238.434 81.74L241.368 81.74L241.368 83.27L238.434 83.27L238.434 81.74ZM234.42 84.386L237.156 84.386L237.156 86.834L234.42 86.834L234.42 84.386ZM238.434 84.386L241.368 84.386L241.368 86.834L238.434 86.834L238.434 84.386ZM242.646 84.386L245.652 84.386L245.652 86.834L242.646 86.834L242.646 84.386Z"></path></g><g opacity="0.3"><rect x="0" y="114" width="390" height="730"   fill="#2C5F8A" ></rect></g><rect  x="0" y="440" width="390" height="404" rx="24"    fill="#FFFFFF" ></rect><rect  x="164.99998474121094" y="456" width="60" height="4" rx="2"    fill="#C8DCE8" ></rect><g ><path     fill="#2C5F8A"  d="M147.976 480.32C148.904 481.104 149.992 482.224 150.456 483.008L151.448 482.256C150.936 481.488 149.832 480.4 148.888 479.664L147.976 480.32ZM154.136 479.6C153.752 481.024 153.08 482.432 152.216 483.376C152.504 483.52 153.016 483.84 153.24 484.016C153.608 483.568 153.96 483.008 154.28 482.384L156.648 482.384L156.648 484.72L152.12 484.72L152.12 485.792L155.016 485.792C154.744 487.888 154.088 489.408 151.688 490.256C151.944 490.48 152.296 490.928 152.424 491.232C155.112 490.176 155.912 488.336 156.216 485.792L157.864 485.792L157.864 489.504C157.864 490.72 158.136 491.072 159.336 491.072C159.576 491.072 160.664 491.072 160.904 491.072C161.912 491.072 162.232 490.56 162.344 488.528C162.008 488.448 161.512 488.272 161.288 488.048C161.24 489.728 161.176 489.952 160.776 489.952C160.552 489.952 159.672 489.952 159.512 489.952C159.096 489.952 159.048 489.904 159.048 489.504L159.048 485.792L162.216 485.792L162.216 484.72L157.848 484.72L157.848 482.384L161.544 482.384L161.544 481.344L157.848 481.344L157.848 479.184L156.648 479.184L156.648 481.344L154.76 481.344C154.968 480.864 155.144 480.352 155.288 479.84L154.136 479.6ZM151.016 485.264L147.896 485.264L147.896 486.384L149.864 486.384L149.864 491.232C149.176 491.552 148.44 492.128 147.72 492.8L148.52 493.84C149.432 492.848 150.296 492.016 150.888 492.016C151.24 492.016 151.736 492.48 152.36 492.864C153.416 493.488 154.744 493.648 156.6 493.648C158.168 493.648 160.872 493.568 162.12 493.488C162.136 493.136 162.328 492.544 162.456 492.24C160.872 492.4 158.44 492.512 156.616 492.512C154.92 492.512 153.576 492.416 152.584 491.824C151.816 491.376 151.448 490.992 151.016 490.96L151.016 485.264ZM165.832 479.136L165.832 482.336L163.736 482.336L163.736 483.456L165.832 483.456L165.832 486.864C164.984 487.12 164.2 487.344 163.576 487.52L163.88 488.688L165.832 488.064L165.832 492.368C165.832 492.576 165.752 492.64 165.56 492.656C165.368 492.656 164.744 492.672 164.056 492.64C164.216 492.976 164.36 493.472 164.408 493.776C165.432 493.776 166.056 493.76 166.456 493.552C166.856 493.36 167 493.024 167 492.368L167 487.68L168.856 487.072L168.696 485.968L167 486.496L167 483.456L168.904 483.456L168.904 482.336L167 482.336L167 479.136L165.832 479.136ZM175.864 481.056C175.288 481.888 174.504 482.624 173.592 483.264C172.76 482.624 172.056 481.888 171.512 481.056L175.864 481.056ZM169.336 479.968L169.336 481.056L170.36 481.056C170.952 482.128 171.736 483.056 172.664 483.856C171.416 484.608 170.008 485.168 168.648 485.504C168.872 485.744 169.16 486.192 169.288 486.48C170.744 486.048 172.232 485.408 173.56 484.56C174.808 485.424 176.264 486.08 177.848 486.496C178.008 486.176 178.344 485.728 178.584 485.488C177.08 485.168 175.704 484.624 174.52 483.888C175.784 482.928 176.856 481.728 177.544 480.32L176.824 479.92L176.616 479.968L169.336 479.968ZM172.92 485.968L172.92 487.376L169.672 487.376L169.672 488.464L172.92 488.464L172.92 490.112L168.856 490.112L168.856 491.2L172.92 491.2L172.92 493.872L174.12 493.872L174.12 491.2L178.312 491.2L178.312 490.112L174.12 490.112L174.12 488.464L177.16 488.464L177.16 487.376L174.12 487.376L174.12 485.968L172.92 485.968ZM190.744 485.408L190.744 491.2L191.688 491.2L191.688 485.408L190.744 485.408ZM192.776 484.816L192.776 492.48C192.776 492.656 192.712 492.704 192.536 492.72C192.328 492.72 191.688 492.72 190.952 492.704C191.112 492.992 191.24 493.424 191.272 493.696C192.216 493.696 192.856 493.68 193.24 493.52C193.64 493.344 193.752 493.056 193.752 492.48L193.752 484.816L192.776 484.816ZM180.136 487.28C180.264 487.152 180.728 487.056 181.24 487.056L182.504 487.056L182.504 489.264C181.432 489.52 180.44 489.744 179.672 489.888L179.944 491.024L182.504 490.368L182.504 493.824L183.56 493.824L183.56 490.096L184.888 489.744L184.792 488.736L183.56 489.024L183.56 487.056L184.84 487.056L184.84 485.952L183.56 485.952L183.56 483.52L182.504 483.52L182.504 485.952L181.112 485.952C181.528 484.832 181.928 483.504 182.248 482.128L184.872 482.128L184.872 481.04L182.472 481.04C182.6 480.464 182.696 479.888 182.776 479.328L181.656 479.136C181.592 479.76 181.512 480.416 181.4 481.04L179.752 481.04L179.752 482.128L181.192 482.128C180.904 483.456 180.6 484.544 180.456 484.96C180.232 485.68 180.04 486.192 179.768 486.272C179.896 486.544 180.072 487.056 180.136 487.28ZM189.544 479.072C188.488 480.752 186.504 482.336 184.568 483.232C184.856 483.472 185.176 483.84 185.352 484.128C185.784 483.904 186.216 483.648 186.632 483.376L186.632 484.048L192.552 484.048L192.552 483.264C192.952 483.504 193.384 483.744 193.816 483.968C193.96 483.648 194.296 483.264 194.584 483.024C192.904 482.304 191.384 481.392 190.168 480.032L190.52 479.504L189.544 479.072ZM187.096 483.056C187.992 482.4 188.84 481.632 189.544 480.816C190.36 481.712 191.24 482.432 192.216 483.056L187.096 483.056ZM188.824 486.064L188.824 487.328L186.632 487.328L186.632 486.064L188.824 486.064ZM185.64 485.104L185.64 493.776L186.632 493.776L186.632 490.48L188.824 490.48L188.824 492.576C188.824 492.72 188.792 492.752 188.664 492.768C188.504 492.768 188.088 492.768 187.592 492.752C187.736 493.04 187.864 493.472 187.896 493.744C188.584 493.744 189.08 493.744 189.416 493.568C189.752 493.392 189.832 493.088 189.832 492.576L189.832 485.104L185.64 485.104ZM186.632 488.256L188.824 488.256L188.824 489.568L186.632 489.568L186.632 488.256ZM199.72 480.48C200.776 481.216 201.592 482.112 202.296 483.104C201.256 487.664 199.256 490.912 195.656 492.768C195.976 492.992 196.536 493.488 196.76 493.728C200.008 491.84 202.056 488.896 203.272 484.704C205.032 487.936 206.168 491.632 209.832 493.68C209.896 493.296 210.216 492.656 210.424 492.32C205.096 489.136 205.576 483.12 200.456 479.456L199.72 480.48ZM218.04 479.472C218.456 480.224 218.936 481.248 219.128 481.888L212.088 481.888L212.088 483.056L216.456 483.056C216.264 486.736 215.864 490.88 211.736 492.928C212.056 493.152 212.44 493.568 212.616 493.872C215.656 492.288 216.856 489.632 217.368 486.784L223.096 486.784C222.84 490.4 222.52 491.952 222.056 492.368C221.848 492.528 221.64 492.56 221.288 492.56C220.856 492.56 219.736 492.544 218.584 492.448C218.824 492.768 218.984 493.264 219.016 493.616C220.088 493.696 221.144 493.712 221.704 493.664C222.328 493.632 222.728 493.52 223.096 493.104C223.72 492.48 224.04 490.736 224.36 486.192C224.392 486.016 224.408 485.616 224.408 485.616L217.56 485.616C217.656 484.768 217.72 483.904 217.768 483.056L225.976 483.056L225.976 481.888L219.224 481.888L220.36 481.392C220.136 480.752 219.64 479.776 219.192 479.024L218.04 479.472ZM238.344 479.904C239.176 480.48 240.168 481.344 240.648 481.92L241.48 481.168C241 480.608 239.976 479.792 239.16 479.232L238.344 479.904ZM236.04 479.184C236.04 480.176 236.072 481.152 236.12 482.112L227.88 482.112L227.88 483.28L236.2 483.28C236.616 489.232 237.96 493.872 240.584 493.872C241.816 493.872 242.264 493.056 242.472 490.256C242.136 490.128 241.688 489.856 241.416 489.584C241.304 491.728 241.128 492.624 240.68 492.624C239.096 492.624 237.848 488.704 237.448 483.28L242.152 483.28L242.152 482.112L237.384 482.112C237.336 481.168 237.32 480.192 237.32 479.184L236.04 479.184ZM227.944 492.176L228.328 493.36C230.376 492.912 233.32 492.24 236.04 491.6L235.944 490.512L232.52 491.248L232.52 486.832L235.512 486.832L235.512 485.664L228.44 485.664L228.44 486.832L231.32 486.832L231.32 491.488L227.944 492.176Z"></path></g><rect  x="24" y="510" width="342" height="56" rx="14"    fill="#F0F7FC" ></rect><g ><path     fill="#000000"  d="M58.2 549.16L75.8 549.16L75.8 527.16L58.2 527.16L58.2 549.16ZM67 537.258L60.004 528.26L73.996 528.26L67 537.258ZM67.704 538.16L74.7 529.162L74.7 547.158L67.704 538.16ZM60.004 548.06L67 539.062L73.996 548.06L60.004 548.06ZM59.3 529.162L66.296 538.16L59.3 547.158L59.3 529.162Z"></path></g><g ><path     fill="#2C5F8A"  d="M96.544 539.136C98.64 539.856 100.768 540.896 102.032 541.824L102.944 540.624C101.632 539.744 99.376 538.72 97.264 538.016L96.544 539.136ZM91.792 531.728C92.64 532.224 93.648 533.008 94.112 533.568L95.072 532.48C94.56 531.92 93.536 531.2 92.688 530.752L91.792 531.728ZM90.176 534.192C91.056 534.672 92.128 535.424 92.624 536L93.536 534.848C93.008 534.32 91.936 533.6 91.056 533.168L90.176 534.192ZM89.344 528.736L89.344 532.176L90.848 532.176L90.848 530.144L101.12 530.144L101.12 532.176L102.688 532.176L102.688 528.736L97.232 528.736C97.008 528.176 96.592 527.456 96.24 526.912L94.736 527.376C94.976 527.776 95.232 528.272 95.44 528.736L89.344 528.736ZM89.12 536.336L89.12 537.632L94.64 537.632C93.728 538.992 92.128 539.936 89.264 540.56C89.584 540.88 89.968 541.472 90.112 541.872C93.68 541.024 95.504 539.632 96.432 537.632L102.976 537.632L102.976 536.336L96.912 536.336C97.328 534.816 97.44 533.008 97.504 530.896L95.904 530.896C95.84 533.088 95.776 534.896 95.264 536.336L89.12 536.336ZM111.472 533.488C112.288 534.704 113.36 536.352 113.856 537.312L115.184 536.528C114.656 535.584 113.552 534 112.72 532.832L111.472 533.488ZM109.008 534.24L109.008 537.584L106.624 537.584L106.624 534.24L109.008 534.24ZM109.008 532.912L106.624 532.912L106.624 529.712L109.008 529.712L109.008 532.912ZM105.2 528.352L105.2 540.224L106.624 540.224L106.624 538.944L110.432 538.944L110.432 528.352L105.2 528.352ZM116.112 527.152L116.112 530.144L111.088 530.144L111.088 531.648L116.112 531.648L116.112 539.76C116.112 540.096 115.984 540.192 115.648 540.208C115.296 540.208 114.112 540.208 112.912 540.176C113.136 540.608 113.376 541.28 113.456 541.712C115.056 541.712 116.128 541.68 116.768 541.44C117.408 541.2 117.648 540.768 117.648 539.776L117.648 531.648L119.456 531.648L119.456 530.144L117.648 530.144L117.648 527.152L116.112 527.152ZM122.016 535.632C123.04 536.224 124.32 537.12 124.928 537.728L126 536.688C125.344 536.064 124.032 535.248 123.04 534.72L122.016 535.632ZM122.064 527.888L122.064 529.296L131.6 529.296L131.552 530.496L122.56 530.496L122.56 531.856L131.472 531.856L131.392 533.072L121.024 533.072L121.024 534.4L127.184 534.4L127.184 537.168C124.896 538.08 122.512 539.024 120.976 539.568L121.792 540.912C123.312 540.288 125.296 539.44 127.184 538.592L127.184 540.352C127.184 540.576 127.104 540.656 126.848 540.656C126.592 540.672 125.696 540.672 124.832 540.64C125.024 541.008 125.264 541.552 125.344 541.952C126.576 541.952 127.408 541.936 127.984 541.728C128.56 541.536 128.736 541.168 128.736 540.384L128.736 537.28C130.08 539.152 131.952 540.544 134.272 541.296C134.48 540.88 134.928 540.288 135.264 539.968C133.632 539.536 132.208 538.784 131.056 537.792C132.048 537.168 133.184 536.336 134.128 535.536L132.832 534.592C132.144 535.312 131.056 536.208 130.112 536.864C129.568 536.24 129.104 535.552 128.736 534.816L128.736 534.4L135.056 534.4L135.056 533.072L132.976 533.072C133.136 531.424 133.248 529.488 133.28 527.904L132.064 527.84L131.792 527.888L122.064 527.888ZM142.8 527.168C143.024 527.536 143.232 528 143.376 528.432L137.744 528.432L137.744 529.792L146.72 529.792C146.512 530.496 146.112 531.488 145.76 532.16L142.064 532.16L142.272 532.112C142.144 531.472 141.76 530.512 141.312 529.824L139.84 530.128C140.176 530.72 140.496 531.536 140.64 532.16L136.848 532.16L136.848 533.52L151.168 533.52L151.168 532.16L147.408 532.16C147.728 531.552 148.096 530.816 148.416 530.128L146.88 529.792L150.4 529.792L150.4 528.432L145.072 528.432C144.928 527.936 144.656 527.36 144.352 526.912L142.8 527.168ZM140.464 538.592L147.648 538.592L147.648 540.08L140.464 540.08L140.464 538.592ZM140.464 537.408L140.464 536L147.648 536L147.648 537.408L140.464 537.408ZM138.96 534.736L138.96 541.92L140.464 541.92L140.464 541.344L147.648 541.344L147.648 541.904L149.216 541.904L149.216 534.736L138.96 534.736Z"></path></g><g ><path     fill="#A8C8E0"  d="M93.049 548.52L93.049 550.203L88.847 550.203L88.847 551.017L93.049 551.017L93.049 552.722L89.353 552.722L89.353 553.525L90.53 553.525L90.288 553.613C90.882 554.801 91.707 555.78 92.741 556.55C91.465 557.188 89.969 557.595 88.396 557.848C88.561 558.035 88.77 558.42 88.847 558.64C90.53 558.332 92.125 557.837 93.511 557.067C94.776 557.815 96.294 558.31 98.087 558.574C98.208 558.354 98.428 557.991 98.615 557.793C96.965 557.584 95.524 557.166 94.336 556.55C95.59 555.692 96.602 554.537 97.229 553.03L96.657 552.689L96.503 552.722L93.907 552.722L93.907 551.017L98.131 551.017L98.131 550.203L93.907 550.203L93.907 548.52L93.049 548.52ZM91.146 553.525L96.019 553.525C95.447 554.603 94.6 555.45 93.544 556.099C92.51 555.428 91.696 554.57 91.146 553.525ZM103.928 555.516C104.401 556.11 104.929 556.946 105.138 557.474L105.82 557.045C105.589 556.517 105.039 555.725 104.566 555.153L103.928 555.516ZM105.886 548.575L105.886 549.95L103.543 549.95L103.543 550.698L105.886 550.698L105.886 552.095L102.982 552.095L102.982 552.854L107.338 552.854L107.338 554.086L103.103 554.086L103.103 554.845L107.338 554.845L107.338 557.639C107.338 557.782 107.294 557.837 107.129 557.837C106.964 557.848 106.381 557.859 105.765 557.826C105.875 558.057 105.985 558.398 106.018 558.629C106.832 558.629 107.371 558.618 107.69 558.497C108.031 558.365 108.13 558.134 108.13 557.639L108.13 554.845L109.494 554.845L109.494 554.086L108.13 554.086L108.13 552.854L109.56 552.854L109.56 552.095L106.678 552.095L106.678 550.698L109.032 550.698L109.032 549.95L106.678 549.95L106.678 548.575L105.886 548.575ZM100.881 548.531L100.881 550.742L99.462 550.742L99.462 551.512L100.881 551.512L100.881 553.899C100.287 554.086 99.737 554.24 99.308 554.361L99.517 555.175L100.881 554.735L100.881 557.639C100.881 557.804 100.826 557.848 100.694 557.848C100.562 557.848 100.133 557.848 99.66 557.837C99.759 558.068 99.869 558.409 99.891 558.607C100.584 558.618 101.013 558.585 101.277 558.453C101.552 558.321 101.651 558.101 101.651 557.65L101.651 554.482L102.85 554.086L102.74 553.327L101.651 553.668L101.651 551.512L102.817 551.512L102.817 550.742L101.651 550.742L101.651 548.531L100.881 548.531ZM116.215 549.257L116.215 550.907C116.215 551.809 116.127 552.997 115.423 553.888C115.599 553.965 115.918 554.174 116.061 554.306C116.644 553.58 116.853 552.557 116.919 551.666L118.404 551.666L118.404 554.284L119.174 554.284L119.174 551.666L120.461 551.666L120.461 550.995L116.952 550.995L116.952 550.918L116.952 549.818C118.074 549.73 119.306 549.554 120.164 549.29L119.702 548.674C118.877 548.949 117.436 549.158 116.215 549.257ZM112.706 556.682L118.305 556.682L118.305 557.595L112.706 557.595L112.706 556.682ZM112.706 556.077L112.706 555.175L118.305 555.175L118.305 556.077L112.706 556.077ZM111.925 554.526L111.925 558.64L112.706 558.64L112.706 558.255L118.305 558.255L118.305 558.618L119.119 558.618L119.119 554.526L111.925 554.526ZM110.605 552.898L110.671 553.591L113.201 553.316L113.201 554.306L113.971 554.306L113.971 553.228L115.654 553.041L115.643 552.414L113.971 552.579L113.971 551.754L115.709 551.754L115.709 551.083L113.971 551.083L113.971 550.368L113.201 550.368L113.201 551.083L111.782 551.083C112.079 550.731 112.387 550.335 112.673 549.906L115.687 549.906L115.687 549.257L113.091 549.257L113.399 548.718L112.574 548.487C112.464 548.751 112.332 549.004 112.2 549.257L110.583 549.257L110.583 549.906L111.815 549.906C111.584 550.269 111.375 550.555 111.276 550.676C111.078 550.94 110.891 551.116 110.715 551.149C110.814 551.369 110.935 551.743 110.979 551.908C111.078 551.82 111.408 551.754 111.87 551.754L113.201 551.754L113.201 552.656L110.605 552.898ZM126.137 551.402L129.745 551.402L129.745 552.326L126.137 552.326L126.137 551.402ZM125.378 550.808L125.378 552.92L130.537 552.92L130.537 550.808L125.378 550.808ZM124.399 553.613L124.399 555.406L125.125 555.406L125.125 554.295L130.713 554.295L130.713 555.406L131.461 555.406L131.461 553.613L124.399 553.613ZM127.204 548.685C127.358 548.927 127.512 549.235 127.633 549.51L124.575 549.51L124.575 550.214L131.461 550.214L131.461 549.51L128.524 549.51C128.392 549.191 128.161 548.773 127.952 548.465L127.204 548.685ZM125.378 555.12L125.378 555.791L127.534 555.791L127.534 557.705C127.534 557.837 127.49 557.881 127.314 557.892C127.149 557.892 126.533 557.892 125.873 557.881C125.983 558.09 126.093 558.376 126.137 558.596C126.995 558.596 127.556 558.596 127.919 558.497C128.271 558.376 128.359 558.156 128.359 557.727L128.359 555.791L130.46 555.791L130.46 555.12L125.378 555.12ZM123.893 548.542C123.321 550.203 122.364 551.853 121.352 552.931C121.495 553.118 121.726 553.547 121.814 553.745C122.133 553.393 122.452 552.986 122.749 552.535L122.749 558.629L123.508 558.629L123.508 551.292C123.948 550.489 124.333 549.631 124.652 548.773L123.893 548.542ZM132.462 557.133L132.616 557.903C133.606 557.661 134.937 557.331 136.202 557.012L136.136 556.319C134.761 556.638 133.375 556.957 132.462 557.133ZM141.537 549.29C141.361 549.917 141.009 550.819 140.734 551.38L141.251 551.567C141.548 551.028 141.911 550.192 142.208 549.488L141.537 549.29ZM137.83 549.455C138.083 550.126 138.38 550.995 138.501 551.567L139.095 551.38C138.963 550.83 138.655 549.972 138.391 549.301L137.83 549.455ZM136.565 548.96L136.565 558.057L142.483 558.057L142.483 557.32L137.324 557.32L137.324 548.96L136.565 548.96ZM132.66 553.107C132.825 553.03 133.078 552.964 134.42 552.788C133.936 553.503 133.496 554.075 133.298 554.295C132.968 554.691 132.715 554.977 132.484 555.021C132.561 555.219 132.693 555.593 132.737 555.758C132.957 555.626 133.331 555.516 136.07 554.966C136.059 554.801 136.048 554.482 136.07 554.273L133.87 554.669C134.717 553.679 135.531 552.469 136.224 551.248L135.553 550.852C135.355 551.259 135.113 551.677 134.882 552.062L133.474 552.216C134.101 551.259 134.717 550.027 135.168 548.861L134.387 548.509C133.991 549.84 133.243 551.281 132.99 551.644C132.77 552.029 132.583 552.282 132.396 552.337C132.495 552.546 132.616 552.942 132.66 553.107ZM139.634 548.608L139.634 552.029L137.632 552.029L137.632 552.744L139.403 552.744C138.963 553.745 138.281 554.801 137.643 555.395C137.764 555.582 137.94 555.879 138.006 556.077C138.6 555.505 139.194 554.537 139.634 553.547L139.634 556.902L140.338 556.902L140.338 553.547C140.866 554.251 141.57 555.241 141.834 555.725L142.351 555.153C142.065 554.768 140.855 553.272 140.371 552.744L142.395 552.744L142.395 552.029L140.338 552.029L140.338 548.608L139.634 548.608ZM148.214 552.788C148.698 553.074 149.281 553.492 149.567 553.811L149.963 553.349C149.677 553.041 149.083 552.634 148.599 552.381L148.214 552.788ZM147.411 553.789C147.928 554.075 148.533 554.537 148.819 554.856L149.226 554.383C148.918 554.064 148.313 553.635 147.807 553.36L147.411 553.789ZM150.579 556.605C151.448 557.199 152.493 558.079 152.988 558.662L153.527 558.145C153.01 557.573 151.943 556.726 151.085 556.154L150.579 556.605ZM143.473 557.122L143.66 557.892C144.595 557.54 145.816 557.067 146.971 556.627L146.839 555.945C145.585 556.396 144.32 556.858 143.473 557.122ZM147.411 551.237L147.411 551.952L152.361 551.952C152.207 552.425 152.031 552.909 151.877 553.25L152.537 553.426C152.79 552.898 153.076 552.073 153.307 551.336L152.779 551.204L152.647 551.237L150.623 551.237L150.623 550.247L152.735 550.247L152.735 549.543L150.623 549.543L150.623 548.52L149.809 548.52L149.809 549.543L147.818 549.543L147.818 550.247L149.809 550.247L149.809 551.237L147.411 551.237ZM150.128 552.381L150.128 553.69C150.128 554.097 150.106 554.548 149.996 554.999L147.18 554.999L147.18 555.725L149.743 555.725C149.336 556.561 148.544 557.386 146.971 558.046C147.125 558.2 147.356 558.475 147.455 558.662C149.336 557.848 150.205 556.792 150.59 555.725L153.329 555.725L153.329 554.999L150.788 554.999C150.876 554.559 150.898 554.119 150.898 553.712L150.898 552.381L150.128 552.381ZM143.671 553.107C143.825 553.03 144.078 552.964 145.365 552.799C144.903 553.514 144.485 554.086 144.298 554.306C143.968 554.724 143.726 555.01 143.506 555.054C143.583 555.241 143.704 555.604 143.748 555.758C143.957 555.604 144.32 555.483 146.894 554.779C146.872 554.625 146.85 554.306 146.85 554.086L144.936 554.559C145.706 553.58 146.465 552.403 147.092 551.226L146.443 550.852C146.256 551.27 146.025 551.688 145.794 552.084L144.485 552.216C145.134 551.259 145.783 550.049 146.256 548.872L145.541 548.542C145.09 549.873 144.298 551.314 144.045 551.688C143.803 552.062 143.616 552.326 143.418 552.37C143.506 552.579 143.627 552.953 143.671 553.107ZM155.727 558.937C156.882 558.53 157.63 557.628 157.63 556.44C157.63 555.67 157.3 555.175 156.695 555.175C156.244 555.175 155.859 555.45 155.859 555.967C155.859 556.484 156.233 556.748 156.684 556.748L156.871 556.726C156.816 557.485 156.332 558.002 155.485 558.354L155.727 558.937ZM166.012 549.213C166.661 549.565 167.497 550.104 167.915 550.478L168.399 549.818C167.981 549.455 167.134 548.949 166.485 548.63L166.012 549.213ZM165.418 552.194C166.089 552.513 166.947 553.019 167.365 553.382L167.838 552.7C167.409 552.359 166.54 551.875 165.88 551.578L165.418 552.194ZM165.682 557.991L166.408 558.497C166.98 557.474 167.64 556.099 168.135 554.944L167.486 554.449C166.947 555.692 166.21 557.144 165.682 557.991ZM171.567 550.885L171.567 552.832L169.686 552.832L169.686 550.885L171.567 550.885ZM168.894 550.115L168.894 552.898C168.894 554.493 168.773 556.682 167.574 558.222C167.772 558.299 168.113 558.497 168.256 558.629C169.345 557.221 169.62 555.197 169.675 553.569L169.961 553.569C170.379 554.713 170.962 555.703 171.721 556.528C170.951 557.177 170.038 557.65 169.048 557.98C169.224 558.123 169.477 558.464 169.587 558.662C170.577 558.31 171.49 557.793 172.293 557.1C173.074 557.782 174.009 558.31 175.098 558.64C175.219 558.42 175.45 558.101 175.637 557.936C174.57 557.65 173.646 557.166 172.865 556.528C173.701 555.626 174.361 554.471 174.746 553.03L174.229 552.799L174.075 552.832L172.37 552.832L172.37 550.885L174.449 550.885C174.273 551.391 174.064 551.897 173.877 552.249L174.592 552.48C174.9 551.919 175.252 551.028 175.527 550.236L174.933 550.082L174.79 550.115L172.37 550.115L172.37 548.509L171.567 548.509L171.567 550.115L168.894 550.115ZM170.742 553.569L173.723 553.569C173.393 554.526 172.898 555.329 172.282 555.989C171.622 555.307 171.105 554.482 170.742 553.569ZM185.306 548.696C184.624 549.587 183.37 550.522 182.314 551.05C182.523 551.204 182.765 551.446 182.908 551.633C184.03 551.017 185.262 550.027 186.076 549.015L185.306 548.696ZM185.625 551.732C184.888 552.689 183.557 553.679 182.424 554.251C182.633 554.416 182.875 554.669 183.018 554.834C184.195 554.185 185.526 553.118 186.373 552.04L185.625 551.732ZM185.878 554.702C185.053 556.077 183.491 557.298 181.852 557.969C182.072 558.145 182.314 558.431 182.446 558.629C184.14 557.848 185.713 556.539 186.648 555.01L185.878 554.702ZM180.444 549.972L180.444 552.821L178.673 552.821L178.673 549.972L180.444 549.972ZM176.451 552.821L176.451 553.591L177.881 553.591C177.837 555.23 177.595 556.847 176.407 558.156C176.605 558.266 176.891 558.53 177.023 558.706C178.343 557.265 178.618 555.439 178.662 553.591L180.444 553.591L180.444 558.629L181.258 558.629L181.258 553.591L182.446 553.591L182.446 552.821L181.258 552.821L181.258 549.972L182.303 549.972L182.303 549.202L176.638 549.202L176.638 549.972L177.892 549.972L177.892 552.821L176.451 552.821ZM189.684 551.49L195.327 551.49L195.327 552.634L189.684 552.634L189.684 551.49ZM189.684 549.719L195.327 549.719L195.327 550.852L189.684 550.852L189.684 549.719ZM188.881 549.059L188.881 553.305L196.163 553.305L196.163 549.059L188.881 549.059ZM196.02 554.13C195.657 554.834 194.997 555.78 194.502 556.374L195.14 556.693C195.646 556.099 196.262 555.23 196.735 554.46L196.02 554.13ZM188.364 554.493C188.815 555.197 189.343 556.165 189.596 556.737L190.267 556.407C190.025 555.846 189.464 554.9 189.013 554.218L188.364 554.493ZM193.281 553.745L193.281 557.331L191.653 557.331L191.653 553.745L190.872 553.745L190.872 557.331L187.44 557.331L187.44 558.123L197.56 558.123L197.56 557.331L194.073 557.331L194.073 553.745L193.281 553.745ZM200.574 553.899C200.101 555.142 199.287 556.363 198.385 557.144C198.594 557.254 198.968 557.496 199.144 557.639C200.013 556.792 200.882 555.483 201.421 554.13L200.574 553.899ZM205.524 554.24C206.316 555.296 207.152 556.726 207.449 557.65L208.274 557.276C207.944 556.341 207.086 554.955 206.283 553.921L205.524 554.24ZM199.639 549.334L199.639 550.148L207.383 550.148L207.383 549.334L199.639 549.334ZM198.66 552.007L198.66 552.821L203.071 552.821L203.071 557.551C203.071 557.727 203.005 557.771 202.807 557.782C202.598 557.793 201.872 557.793 201.124 557.76C201.256 558.013 201.388 558.376 201.421 558.629C202.4 558.629 203.049 558.618 203.434 558.486C203.83 558.343 203.962 558.101 203.962 557.562L203.962 552.821L208.351 552.821L208.351 552.007L198.66 552.007Z"></path></g><g ><path     fill="#B0D4F0"  d="M346.8 544.548L349.536 541.434L349.536 540.192L346.8 537.06L346.08 537.672L348.456 540.822L346.08 543.99L346.8 544.548Z"></path></g><rect  x="24" y="576" width="342" height="56" rx="14"    fill="#F0F7FC" ></rect><g ><path     fill="#2C5F8A"  d="M95.184 597.856L95.184 603.504L91.68 603.504C93.024 601.952 94.176 599.984 94.992 597.856L95.184 597.856ZM96.784 597.856L96.944 597.856C97.744 599.968 98.88 601.952 100.24 603.504L96.784 603.504L96.784 597.856ZM95.184 593.056L95.184 596.304L88.992 596.304L88.992 597.856L93.44 597.856C92.352 600.448 90.528 602.912 88.496 604.208C88.864 604.496 89.36 605.056 89.616 605.424C90.32 604.912 90.992 604.288 91.616 603.568L91.616 605.04L95.184 605.04L95.184 607.904L96.784 607.904L96.784 605.04L100.352 605.04L100.352 603.632C100.96 604.304 101.6 604.896 102.288 605.376C102.56 604.96 103.104 604.368 103.488 604.048C101.408 602.8 99.568 600.4 98.48 597.856L103.04 597.856L103.04 596.304L96.784 596.304L96.784 593.056L95.184 593.056ZM110.8 594.576L110.8 598.88L109.136 599.584L109.712 600.928L110.8 600.464L110.8 605.12C110.8 607.056 111.376 607.568 113.36 607.568C113.808 607.568 116.608 607.568 117.088 607.568C118.848 607.568 119.312 606.832 119.52 604.608C119.104 604.528 118.528 604.288 118.176 604.048C118.064 605.808 117.904 606.208 116.992 606.208C116.4 606.208 113.952 606.208 113.456 606.208C112.416 606.208 112.256 606.032 112.256 605.136L112.256 599.824L114.048 599.056L114.048 604.256L115.472 604.256L115.472 598.448L117.328 597.648C117.328 600.112 117.312 601.616 117.248 601.936C117.184 602.272 117.04 602.32 116.816 602.32C116.656 602.32 116.208 602.32 115.888 602.304C116.048 602.624 116.176 603.2 116.224 603.6C116.688 603.6 117.344 603.584 117.792 603.424C118.288 603.28 118.576 602.928 118.64 602.256C118.736 601.616 118.784 599.424 118.784 596.384L118.848 596.128L117.776 595.728L117.504 595.936L117.2 596.176L115.472 596.912L115.472 593.056L114.048 593.056L114.048 597.504L112.256 598.272L112.256 594.576L110.8 594.576ZM104.448 603.968L105.04 605.488C106.496 604.848 108.32 604 110.032 603.184L109.696 601.84L108.016 602.544L108.016 598.272L109.792 598.272L109.792 596.848L108.016 596.848L108.016 593.248L106.592 593.248L106.592 596.848L104.608 596.848L104.608 598.272L106.592 598.272L106.592 603.136C105.776 603.472 105.04 603.76 104.448 603.968ZM126.8 593.168C127.024 593.536 127.232 594 127.376 594.432L121.744 594.432L121.744 595.792L130.72 595.792C130.512 596.496 130.112 597.488 129.76 598.16L126.064 598.16L126.272 598.112C126.144 597.472 125.76 596.512 125.312 595.824L123.84 596.128C124.176 596.72 124.496 597.536 124.64 598.16L120.848 598.16L120.848 599.52L135.168 599.52L135.168 598.16L131.408 598.16C131.728 597.552 132.096 596.816 132.416 596.128L130.88 595.792L134.4 595.792L134.4 594.432L129.072 594.432C128.928 593.936 128.656 593.36 128.352 592.912L126.8 593.168ZM124.464 604.592L131.648 604.592L131.648 606.08L124.464 606.08L124.464 604.592ZM124.464 603.408L124.464 602L131.648 602L131.648 603.408L124.464 603.408ZM122.96 600.736L122.96 607.92L124.464 607.92L124.464 607.344L131.648 607.344L131.648 607.904L133.216 607.904L133.216 600.736L122.96 600.736ZM147.12 598.704C147.088 604.16 146.96 605.888 143.152 606.896C143.408 607.152 143.76 607.648 143.872 607.968C148.048 606.784 148.336 604.576 148.352 598.704L147.12 598.704ZM147.6 605.328C148.656 606.112 150.016 607.232 150.656 607.936L151.552 607.008C150.864 606.304 149.472 605.232 148.448 604.496L147.6 605.328ZM137.936 600.176C137.632 601.328 137.136 602.528 136.496 603.328C136.8 603.488 137.344 603.824 137.584 604.016C138.24 603.136 138.848 601.776 139.2 600.448L137.936 600.176ZM144.64 596.848L144.64 604.4L145.904 604.4L145.904 598L149.52 598L149.52 604.352L150.848 604.352L150.848 596.848L148.032 596.848L148.64 595.296L151.248 595.296L151.248 593.984L144.256 593.984L144.256 595.296L147.2 595.296C147.056 595.808 146.848 596.368 146.672 596.848L144.64 596.848ZM142.704 600.368C142.368 601.744 141.888 602.896 141.184 603.84L141.184 599.28L144.048 599.28L144.048 597.936L141.472 597.936L141.472 596.176L143.68 596.176L143.68 594.912L141.472 594.912L141.472 593.04L140.128 593.04L140.128 597.936L138.88 597.936L138.88 594.448L137.664 594.448L137.664 597.936L136.56 597.936L136.56 599.28L139.792 599.28L139.792 604.128L140.96 604.128C139.952 605.376 138.544 606.24 136.64 606.784C136.944 607.088 137.264 607.584 137.408 607.952C141.136 606.704 143.104 604.464 144 600.656L142.704 600.368ZM158.688 593.392C159.136 594.16 159.584 595.168 159.776 595.824L152.768 595.824L152.768 597.296L155.264 597.296C156.176 599.648 157.376 601.68 158.928 603.344C157.216 604.752 155.088 605.744 152.496 606.448C152.8 606.8 153.264 607.504 153.44 607.872C156.064 607.056 158.256 605.952 160.048 604.432C161.792 605.952 163.936 607.088 166.528 607.792C166.768 607.36 167.216 606.72 167.552 606.384C165.056 605.776 162.96 604.72 161.232 603.328C162.752 601.712 163.936 599.728 164.8 597.296L167.312 597.296L167.312 595.824L160.048 595.824L161.472 595.376C161.264 594.704 160.752 593.68 160.288 592.912L158.688 593.392ZM160.08 602.288C158.688 600.864 157.6 599.184 156.832 597.296L163.088 597.296C162.368 599.296 161.376 600.928 160.08 602.288ZM173.056 600.928L173.056 602.416L177.552 602.416L177.552 607.904L179.072 607.904L179.072 602.416L183.344 602.416L183.344 600.928L179.072 600.928L179.072 597.744L182.608 597.744L182.608 596.256L179.072 596.256L179.072 593.248L177.552 593.248L177.552 596.256L175.76 596.256C175.952 595.584 176.112 594.896 176.256 594.192L174.8 593.888C174.448 595.92 173.776 597.984 172.864 599.28C173.248 599.44 173.888 599.808 174.176 600.016C174.576 599.392 174.944 598.608 175.264 597.744L177.552 597.744L177.552 600.928L173.056 600.928ZM172.112 593.12C171.28 595.472 169.888 597.824 168.416 599.344C168.672 599.696 169.104 600.512 169.248 600.88C169.68 600.416 170.096 599.904 170.496 599.344L170.496 607.888L171.952 607.888L171.952 597.024C172.56 595.904 173.104 594.72 173.536 593.552L172.112 593.12ZM187.232 603.84C188.24 604.64 189.408 605.808 189.904 606.624L191.008 605.6C190.528 604.896 189.536 603.92 188.608 603.184L194.144 603.184L194.144 606.208C194.144 606.448 194.048 606.528 193.728 606.528C193.424 606.544 192.224 606.544 191.12 606.512C191.328 606.896 191.568 607.472 191.648 607.872C193.168 607.872 194.176 607.856 194.832 607.664C195.488 607.456 195.712 607.072 195.712 606.24L195.712 603.184L199.12 603.184L199.12 601.776L195.712 601.776L195.712 600.672L194.144 600.672L194.144 601.776L184.944 601.776L184.944 603.184L187.952 603.184L187.232 603.84ZM186.064 594.288L186.064 598.256C186.064 599.92 186.944 600.288 189.792 600.288C190.448 600.288 195.152 600.288 195.84 600.288C197.984 600.288 198.592 599.92 198.832 598.288C198.384 598.208 197.76 598.048 197.376 597.84C197.248 598.864 196.992 599.056 195.712 599.056C194.64 599.056 190.544 599.056 189.728 599.056C187.968 599.056 187.648 598.912 187.648 598.24L187.648 597.632L197.216 597.632L197.216 593.6L186.064 593.6L186.064 594.288ZM187.648 594.912L195.728 594.912L195.728 596.304L187.648 596.304L187.648 594.912ZM204.56 594.592C205.6 595.296 206.416 596.176 207.104 597.136C206.096 601.568 204.112 604.752 200.592 606.544C200.992 606.816 201.712 607.456 201.984 607.76C205.072 605.952 207.104 603.104 208.336 599.168C210.032 602.288 211.28 605.792 214.784 607.76C214.864 607.28 215.264 606.448 215.52 606.032C210.256 602.816 210.608 596.976 205.488 593.28L204.56 594.592Z"></path></g><g ><path     fill="#A8C8E0"  d="M93.049 614.52L93.049 616.203L88.847 616.203L88.847 617.017L93.049 617.017L93.049 618.722L89.353 618.722L89.353 619.525L90.53 619.525L90.288 619.613C90.882 620.801 91.707 621.78 92.741 622.55C91.465 623.188 89.969 623.595 88.396 623.848C88.561 624.035 88.77 624.42 88.847 624.64C90.53 624.332 92.125 623.837 93.511 623.067C94.776 623.815 96.294 624.31 98.087 624.574C98.208 624.354 98.428 623.991 98.615 623.793C96.965 623.584 95.524 623.166 94.336 622.55C95.59 621.692 96.602 620.537 97.229 619.03L96.657 618.689L96.503 618.722L93.907 618.722L93.907 617.017L98.131 617.017L98.131 616.203L93.907 616.203L93.907 614.52L93.049 614.52ZM91.146 619.525L96.019 619.525C95.447 620.603 94.6 621.45 93.544 622.099C92.51 621.428 91.696 620.57 91.146 619.525ZM103.928 621.516C104.401 622.11 104.929 622.946 105.138 623.474L105.82 623.045C105.589 622.517 105.039 621.725 104.566 621.153L103.928 621.516ZM105.886 614.575L105.886 615.95L103.543 615.95L103.543 616.698L105.886 616.698L105.886 618.095L102.982 618.095L102.982 618.854L107.338 618.854L107.338 620.086L103.103 620.086L103.103 620.845L107.338 620.845L107.338 623.639C107.338 623.782 107.294 623.837 107.129 623.837C106.964 623.848 106.381 623.859 105.765 623.826C105.875 624.057 105.985 624.398 106.018 624.629C106.832 624.629 107.371 624.618 107.69 624.497C108.031 624.365 108.13 624.134 108.13 623.639L108.13 620.845L109.494 620.845L109.494 620.086L108.13 620.086L108.13 618.854L109.56 618.854L109.56 618.095L106.678 618.095L106.678 616.698L109.032 616.698L109.032 615.95L106.678 615.95L106.678 614.575L105.886 614.575ZM100.881 614.531L100.881 616.742L99.462 616.742L99.462 617.512L100.881 617.512L100.881 619.899C100.287 620.086 99.737 620.24 99.308 620.361L99.517 621.175L100.881 620.735L100.881 623.639C100.881 623.804 100.826 623.848 100.694 623.848C100.562 623.848 100.133 623.848 99.66 623.837C99.759 624.068 99.869 624.409 99.891 624.607C100.584 624.618 101.013 624.585 101.277 624.453C101.552 624.321 101.651 624.101 101.651 623.65L101.651 620.482L102.85 620.086L102.74 619.327L101.651 619.668L101.651 617.512L102.817 617.512L102.817 616.742L101.651 616.742L101.651 614.531L100.881 614.531ZM113.834 623.76L114.747 623.76L114.747 619.294C114.747 618.601 114.681 617.622 114.615 616.918L114.659 616.918L115.308 618.755L116.837 622.946L117.519 622.946L119.037 618.755L119.686 616.918L119.73 616.918C119.675 617.622 119.598 618.601 119.598 619.294L119.598 623.76L120.544 623.76L120.544 615.697L119.323 615.697L117.783 620.009C117.596 620.559 117.431 621.131 117.222 621.692L117.178 621.692C116.98 621.131 116.804 620.559 116.595 620.009L115.055 615.697L113.834 615.697L113.834 623.76ZM122.766 623.76L123.778 623.76L123.778 620.548L125.109 620.548C126.88 620.548 128.079 619.767 128.079 618.062C128.079 616.302 126.869 615.697 125.065 615.697L122.766 615.697L122.766 623.76ZM123.778 619.723L123.778 616.522L124.933 616.522C126.352 616.522 127.067 616.885 127.067 618.062C127.067 619.217 126.396 619.723 124.977 619.723L123.778 619.723ZM131.511 623.903C132.952 623.903 134.107 623.045 134.107 621.604C134.107 620.493 133.348 619.789 132.402 619.558L132.402 619.503C133.26 619.206 133.832 618.546 133.832 617.567C133.832 616.291 132.842 615.554 131.478 615.554C130.554 615.554 129.839 615.961 129.234 616.511L129.773 617.149C130.235 616.687 130.796 616.368 131.445 616.368C132.292 616.368 132.809 616.874 132.809 617.644C132.809 618.513 132.248 619.184 130.576 619.184L130.576 619.954C132.446 619.954 133.084 620.592 133.084 621.571C133.084 622.495 132.413 623.067 131.445 623.067C130.532 623.067 129.927 622.627 129.454 622.143L128.937 622.792C129.465 623.375 130.257 623.903 131.511 623.903ZM137.567 625.729L138.304 625.729L141.593 615.026L140.867 615.026L137.567 625.729ZM145.592 623.76L146.505 623.76L146.505 619.294C146.505 618.601 146.439 617.622 146.373 616.918L146.417 616.918L147.066 618.755L148.595 622.946L149.277 622.946L150.795 618.755L151.444 616.918L151.488 616.918C151.433 617.622 151.356 618.601 151.356 619.294L151.356 623.76L152.302 623.76L152.302 615.697L151.081 615.697L149.541 620.009C149.354 620.559 149.189 621.131 148.98 621.692L148.936 621.692C148.738 621.131 148.562 620.559 148.353 620.009L146.813 615.697L145.592 615.697L145.592 623.76ZM157.153 623.76L158.099 623.76L158.099 621.538L159.177 621.538L159.177 620.735L158.099 620.735L158.099 615.697L156.988 615.697L153.633 620.878L153.633 621.538L157.153 621.538L157.153 623.76ZM157.153 620.735L154.678 620.735L156.515 617.985C156.746 617.589 156.966 617.182 157.164 616.797L157.208 616.797C157.186 617.204 157.153 617.864 157.153 618.26L157.153 620.735ZM159.562 623.76L160.585 623.76L161.366 621.296L164.314 621.296L165.084 623.76L166.162 623.76L163.423 615.697L162.29 615.697L159.562 623.76ZM161.619 620.493L162.015 619.25C162.301 618.337 162.565 617.468 162.818 616.522L162.862 616.522C163.126 617.457 163.379 618.337 163.676 619.25L164.061 620.493L161.619 620.493ZM169.051 625.729L169.788 625.729L173.077 615.026L172.351 615.026L169.051 625.729ZM177.956 623.76L179.166 623.76L180.365 618.898C180.497 618.26 180.651 617.677 180.772 617.061L180.816 617.061C180.948 617.677 181.069 618.26 181.212 618.898L182.433 623.76L183.665 623.76L185.326 615.697L184.358 615.697L183.489 620.086C183.346 620.955 183.192 621.824 183.049 622.704L182.983 622.704C182.785 621.824 182.609 620.944 182.411 620.086L181.289 615.697L180.354 615.697L179.243 620.086C179.045 620.955 178.847 621.824 178.671 622.704L178.627 622.704C178.462 621.824 178.308 620.955 178.143 620.086L177.296 615.697L176.251 615.697L177.956 623.76ZM185.667 623.76L186.69 623.76L187.471 621.296L190.419 621.296L191.189 623.76L192.267 623.76L189.528 615.697L188.395 615.697L185.667 623.76ZM187.724 620.493L188.12 619.25C188.406 618.337 188.67 617.468 188.923 616.522L188.967 616.522C189.231 617.457 189.484 618.337 189.781 619.25L190.166 620.493L187.724 620.493ZM194.896 623.76L196.073 623.76L198.636 615.697L197.602 615.697L196.304 620.064C196.029 621.01 195.831 621.78 195.523 622.726L195.479 622.726C195.182 621.78 194.973 621.01 194.698 620.064L193.389 615.697L192.322 615.697L194.896 623.76Z"></path></g><g ><path     fill="#B0D4F0"  d="M346.8 610.548L349.536 607.434L349.536 606.192L346.8 603.06L346.08 603.672L348.456 606.822L346.08 609.99L346.8 610.548Z"></path></g><rect  x="24" y="642" width="342" height="56" rx="14"    fill="#F0F7FC" ></rect><g ><path     fill="#2C5F8A"  d="M91.984 659.36C91.776 665.248 91.136 670.064 88.528 672.8C88.944 673.024 89.76 673.584 90.016 673.84C91.552 672 92.432 669.52 92.96 666.512C93.856 667.68 94.704 669.008 95.136 669.936L96.272 668.848C95.696 667.664 94.432 665.888 93.248 664.544C93.44 662.96 93.568 661.232 93.648 659.408L91.984 659.36ZM98.16 659.344C97.872 665.44 97.04 670.128 93.936 672.752C94.352 672.992 95.152 673.568 95.424 673.808C97.024 672.272 98.048 670.224 98.72 667.696C99.424 669.936 100.56 672.24 102.32 673.664C102.576 673.232 103.12 672.576 103.456 672.272C101.104 670.656 99.888 667.296 99.328 664.656C99.568 663.04 99.712 661.296 99.824 659.408L98.16 659.344ZM106.624 660.24L106.624 661.792L117.52 661.792L117.52 660.24L106.624 660.24ZM106.208 673.328C106.96 673.04 107.984 672.992 116.48 672.288C116.848 672.912 117.184 673.488 117.424 673.984L118.88 673.104C118.096 671.616 116.512 669.296 115.168 667.504L113.776 668.224C114.352 669.008 114.976 669.936 115.568 670.848L108.256 671.36C109.44 669.904 110.672 668.128 111.68 666.288L119.184 666.288L119.184 664.736L104.832 664.736L104.832 666.288L109.552 666.288C108.576 668.208 107.344 669.984 106.896 670.496C106.384 671.136 106.032 671.536 105.616 671.648C105.84 672.128 106.128 672.976 106.208 673.328ZM126.128 665.952C127.04 666.368 128.192 667.056 128.752 667.536L129.52 666.576C128.928 666.096 127.76 665.472 126.88 665.072L126.128 665.952ZM127.28 658.896C127.184 659.28 126.976 659.792 126.784 660.24L123.264 660.24L123.264 663.024L123.248 663.68L120.784 663.68L120.784 664.992L123.008 664.992C122.736 665.856 122.192 666.688 121.104 667.376C121.424 667.584 122 668.128 122.208 668.432C123.616 667.536 124.272 666.256 124.56 664.992L131.68 664.992L131.68 666.48C131.68 666.656 131.616 666.72 131.392 666.72C131.184 666.736 130.432 666.736 129.728 666.72C129.92 667.072 130.128 667.616 130.192 667.984C131.28 667.984 132.032 667.984 132.528 667.76C133.04 667.552 133.2 667.184 133.2 666.512L133.2 664.992L135.328 664.992L135.328 663.68L133.2 663.68L133.2 660.24L128.432 660.24L128.928 659.2L127.28 658.896ZM126.288 662.432C127.04 662.736 127.936 663.248 128.496 663.68L124.736 663.68L124.752 663.072L124.752 661.456L131.68 661.456L131.68 663.68L128.976 663.68L129.552 662.976C128.976 662.496 127.888 661.888 127.008 661.552L126.288 662.432ZM122.464 668.336L122.464 672.144L120.704 672.144L120.704 673.456L135.296 673.456L135.296 672.144L133.568 672.144L133.568 668.336L122.464 668.336ZM123.888 672.144L123.888 669.536L125.68 669.536L125.68 672.144L123.888 672.144ZM127.072 672.144L127.072 669.536L128.88 669.536L128.88 672.144L127.072 672.144ZM130.272 672.144L130.272 669.536L132.096 669.536L132.096 672.144L130.272 672.144ZM140.153 675.44L141.449 675.44L145.865 659.776L144.601 659.776L140.153 675.44ZM153.234 659.04C152.674 660.08 151.554 661.376 150.546 662.176C150.786 662.448 151.154 663.024 151.33 663.328C152.498 662.368 153.778 660.896 154.61 659.552L153.234 659.04ZM155.378 667.424L155.378 669.28C155.378 670.368 155.234 671.76 154.242 672.816C154.498 673.008 155.026 673.552 155.202 673.824C156.402 672.544 156.658 670.688 156.658 669.296L156.658 668.608L158.386 668.608L158.386 670.144C158.386 670.784 158.13 671.072 157.906 671.2C158.114 671.504 158.37 672.112 158.45 672.448C158.69 672.144 159.058 671.808 161.09 670.496C160.978 670.256 160.818 669.76 160.754 669.424L159.602 670.096L159.602 667.424L155.378 667.424ZM162.098 663.584L163.73 663.584C163.538 665.328 163.25 666.864 162.786 668.192C162.386 666.96 162.114 665.6 161.922 664.16L162.098 663.584ZM154.722 665.328L154.722 666.608L160.082 666.608L160.082 666.288C160.306 666.56 160.546 666.864 160.674 667.056C160.85 666.784 160.994 666.496 161.154 666.192C161.378 667.504 161.682 668.736 162.066 669.824C161.394 671.072 160.498 672.08 159.266 672.848C159.522 673.104 159.954 673.664 160.098 673.952C161.17 673.216 162.034 672.336 162.706 671.296C163.25 672.352 163.922 673.216 164.786 673.84C165.01 673.472 165.458 672.912 165.762 672.64C164.802 672.048 164.05 671.104 163.474 669.92C164.274 668.192 164.754 666.096 165.042 663.584L165.586 663.584L165.586 662.288L162.402 662.288C162.61 661.328 162.77 660.304 162.898 659.28L161.506 659.072C161.266 661.408 160.834 663.696 160.018 665.328L154.722 665.328ZM154.962 660.368L154.962 664.304L160.098 664.304L160.098 660.368L159.042 660.368L159.042 663.088L158.098 663.088L158.098 659.056L156.978 659.056L156.978 663.088L155.97 663.088L155.97 660.368L154.962 660.368ZM153.538 662.336C152.77 663.968 151.554 665.648 150.386 666.768C150.642 667.072 151.074 667.792 151.234 668.112C151.634 667.712 152.018 667.248 152.418 666.736L152.418 673.888L153.794 673.888L153.794 664.736C154.194 664.096 154.562 663.44 154.866 662.8L153.538 662.336ZM172.29 663.984L172.29 665.2L180.194 665.2L180.194 663.984L172.29 663.984ZM172.29 666.272L172.29 667.488L180.194 667.488L180.194 666.272L172.29 666.272ZM172.066 668.64L172.066 673.888L173.362 673.888L173.362 673.328L179.026 673.328L179.026 673.84L180.37 673.84L180.37 668.64L172.066 668.64ZM173.362 672.096L173.362 669.872L179.026 669.872L179.026 672.096L173.362 672.096ZM174.802 659.536C175.218 660.176 175.666 661.04 175.906 661.632L171.138 661.632L171.138 662.88L181.41 662.88L181.41 661.632L176.146 661.632L177.266 661.136C177.042 660.56 176.546 659.696 176.098 659.04L174.802 659.536ZM170.114 659.12C169.33 661.472 168.018 663.808 166.61 665.344C166.866 665.68 167.282 666.464 167.426 666.8C167.89 666.272 168.354 665.664 168.786 664.992L168.786 673.952L170.178 673.952L170.178 662.56C170.674 661.568 171.106 660.544 171.458 659.52L170.114 659.12ZM185.394 669.84C186.402 670.64 187.57 671.808 188.066 672.624L189.17 671.6C188.69 670.896 187.698 669.92 186.77 669.184L192.306 669.184L192.306 672.208C192.306 672.448 192.21 672.528 191.89 672.528C191.586 672.544 190.386 672.544 189.282 672.512C189.49 672.896 189.73 673.472 189.81 673.872C191.33 673.872 192.338 673.856 192.994 673.664C193.65 673.456 193.874 673.072 193.874 672.24L193.874 669.184L197.282 669.184L197.282 667.776L193.874 667.776L193.874 666.672L192.306 666.672L192.306 667.776L183.106 667.776L183.106 669.184L186.114 669.184L185.394 669.84ZM184.226 660.288L184.226 664.256C184.226 665.92 185.106 666.288 187.954 666.288C188.61 666.288 193.314 666.288 194.002 666.288C196.146 666.288 196.754 665.92 196.994 664.288C196.546 664.208 195.922 664.048 195.538 663.84C195.41 664.864 195.154 665.056 193.874 665.056C192.802 665.056 188.706 665.056 187.89 665.056C186.13 665.056 185.81 664.912 185.81 664.24L185.81 663.632L195.378 663.632L195.378 659.6L184.226 659.6L184.226 660.288ZM185.81 660.912L193.89 660.912L193.89 662.304L185.81 662.304L185.81 660.912ZM202.722 660.592C203.762 661.296 204.578 662.176 205.266 663.136C204.258 667.568 202.274 670.752 198.754 672.544C199.154 672.816 199.874 673.456 200.146 673.76C203.234 671.952 205.266 669.104 206.498 665.168C208.194 668.288 209.442 671.792 212.946 673.76C213.026 673.28 213.426 672.448 213.682 672.032C208.418 668.816 208.77 662.976 203.65 659.28L202.722 660.592Z"></path></g><g ><path     fill="#A8C8E0"  d="M93.049 680.52L93.049 682.203L88.847 682.203L88.847 683.017L93.049 683.017L93.049 684.722L89.353 684.722L89.353 685.525L90.53 685.525L90.288 685.613C90.882 686.801 91.707 687.78 92.741 688.55C91.465 689.188 89.969 689.595 88.396 689.848C88.561 690.035 88.77 690.42 88.847 690.64C90.53 690.332 92.125 689.837 93.511 689.067C94.776 689.815 96.294 690.31 98.087 690.574C98.208 690.354 98.428 689.991 98.615 689.793C96.965 689.584 95.524 689.166 94.336 688.55C95.59 687.692 96.602 686.537 97.229 685.03L96.657 684.689L96.503 684.722L93.907 684.722L93.907 683.017L98.131 683.017L98.131 682.203L93.907 682.203L93.907 680.52L93.049 680.52ZM91.146 685.525L96.019 685.525C95.447 686.603 94.6 687.45 93.544 688.099C92.51 687.428 91.696 686.57 91.146 685.525ZM103.928 687.516C104.401 688.11 104.929 688.946 105.138 689.474L105.82 689.045C105.589 688.517 105.039 687.725 104.566 687.153L103.928 687.516ZM105.886 680.575L105.886 681.95L103.543 681.95L103.543 682.698L105.886 682.698L105.886 684.095L102.982 684.095L102.982 684.854L107.338 684.854L107.338 686.086L103.103 686.086L103.103 686.845L107.338 686.845L107.338 689.639C107.338 689.782 107.294 689.837 107.129 689.837C106.964 689.848 106.381 689.859 105.765 689.826C105.875 690.057 105.985 690.398 106.018 690.629C106.832 690.629 107.371 690.618 107.69 690.497C108.031 690.365 108.13 690.134 108.13 689.639L108.13 686.845L109.494 686.845L109.494 686.086L108.13 686.086L108.13 684.854L109.56 684.854L109.56 684.095L106.678 684.095L106.678 682.698L109.032 682.698L109.032 681.95L106.678 681.95L106.678 680.575L105.886 680.575ZM100.881 680.531L100.881 682.742L99.462 682.742L99.462 683.512L100.881 683.512L100.881 685.899C100.287 686.086 99.737 686.24 99.308 686.361L99.517 687.175L100.881 686.735L100.881 689.639C100.881 689.804 100.826 689.848 100.694 689.848C100.562 689.848 100.133 689.848 99.66 689.837C99.759 690.068 99.869 690.409 99.891 690.607C100.584 690.618 101.013 690.585 101.277 690.453C101.552 690.321 101.651 690.101 101.651 689.65L101.651 686.482L102.85 686.086L102.74 685.327L101.651 685.668L101.651 683.512L102.817 683.512L102.817 682.742L101.651 682.742L101.651 680.531L100.881 680.531ZM117.403 680.718L116.644 681.026C117.425 682.654 118.745 684.447 119.9 685.437C120.065 685.217 120.362 684.909 120.571 684.744C119.427 683.886 118.085 682.203 117.403 680.718ZM113.564 680.74C112.926 682.423 111.804 683.952 110.484 684.898C110.682 685.052 111.045 685.371 111.188 685.536C111.485 685.294 111.771 685.03 112.057 684.733L112.057 685.492L114.18 685.492C113.927 687.362 113.322 689.111 110.715 689.969C110.902 690.145 111.122 690.464 111.221 690.673C114.026 689.661 114.752 687.67 115.049 685.492L118.041 685.492C117.92 688.242 117.755 689.32 117.48 689.606C117.37 689.716 117.238 689.738 117.007 689.738C116.754 689.738 116.072 689.738 115.357 689.672C115.511 689.903 115.61 690.255 115.632 690.497C116.325 690.541 116.996 690.552 117.37 690.519C117.744 690.486 117.997 690.409 118.228 690.134C118.613 689.705 118.756 688.451 118.921 685.074C118.932 684.964 118.932 684.678 118.932 684.678L112.112 684.678C113.047 683.677 113.872 682.39 114.444 680.982L113.564 680.74ZM123.915 683.523L129.107 683.523L129.107 684.513L123.915 684.513L123.915 683.523ZM123.09 682.907L123.09 685.129L129.976 685.129L129.976 682.907L123.09 682.907ZM129.613 685.789L129.393 685.8L122.628 685.8L122.628 686.471L128.293 686.471C127.6 686.735 126.786 686.977 126.06 687.142L126.049 687.791L121.594 687.791L121.594 688.517L126.049 688.517L126.049 689.771C126.049 689.925 125.994 689.969 125.796 689.98C125.598 689.991 124.85 690.002 124.091 689.969C124.212 690.178 124.333 690.442 124.388 690.662C125.378 690.662 126.005 690.662 126.39 690.563C126.786 690.453 126.918 690.255 126.918 689.793L126.918 688.517L131.428 688.517L131.428 687.791L126.918 687.791L126.918 687.516C128.139 687.208 129.415 686.757 130.35 686.229L129.8 685.756L129.613 685.789ZM125.752 680.597C125.884 680.861 126.027 681.18 126.137 681.477L121.704 681.477L121.704 682.192L131.285 682.192L131.285 681.477L127.061 681.477C126.94 681.147 126.764 680.751 126.577 680.443L125.752 680.597ZM133.914 680.531L133.914 682.742L132.605 682.742L132.605 683.523L133.914 683.523L133.914 685.943C133.353 686.108 132.847 686.251 132.44 686.361L132.66 687.197L133.914 686.79L133.914 689.606C133.914 689.76 133.859 689.804 133.727 689.804C133.595 689.815 133.166 689.815 132.693 689.804C132.803 690.035 132.913 690.387 132.935 690.596C133.628 690.607 134.068 690.574 134.332 690.431C134.618 690.299 134.717 690.068 134.717 689.606L134.717 686.526L135.949 686.13L135.839 685.349L134.717 685.701L134.717 683.523L135.916 683.523L135.916 682.742L134.717 682.742L134.717 680.531L133.914 680.531ZM138.721 680.828C138.952 681.246 139.227 681.785 139.381 682.192L136.642 682.192L136.642 684.942C136.642 686.537 136.521 688.693 135.3 690.222C135.498 690.31 135.839 690.541 135.982 690.695C137.269 689.078 137.467 686.658 137.467 684.953L137.467 682.984L142.483 682.984L142.483 682.192L139.865 682.192L140.206 682.06C140.052 681.664 139.733 681.048 139.447 680.586L138.721 680.828ZM146.443 690.651L146.443 690.64C146.652 690.508 147.004 690.42 149.765 689.727C149.743 689.573 149.765 689.254 149.798 689.045L147.422 689.573L147.422 687.318L148.94 687.318C149.699 689.012 151.096 690.145 153.076 690.651C153.175 690.431 153.395 690.134 153.571 689.969C152.614 689.771 151.778 689.419 151.107 688.924C151.679 688.616 152.35 688.209 152.867 687.813L152.24 687.373C151.833 687.714 151.162 688.165 150.601 688.484C150.249 688.143 149.952 687.758 149.721 687.318L153.45 687.318L153.45 686.592L151.151 686.592L151.151 685.437L153.01 685.437L153.01 684.733L151.151 684.733L151.151 683.71L150.37 683.71L150.37 684.733L148.159 684.733L148.159 683.71L147.4 683.71L147.4 684.733L145.739 684.733L145.739 685.437L147.4 685.437L147.4 686.592L145.431 686.592L145.431 687.318L146.641 687.318L146.641 689.1C146.641 689.595 146.311 689.848 146.102 689.958C146.223 690.112 146.388 690.453 146.443 690.651ZM148.159 685.437L150.37 685.437L150.37 686.592L148.159 686.592L148.159 685.437ZM145.376 681.763L151.965 681.763L151.965 682.885L145.376 682.885L145.376 681.763ZM144.551 681.048L144.551 684.282C144.551 686.042 144.452 688.495 143.341 690.222C143.55 690.31 143.913 690.519 144.078 690.651C145.222 688.847 145.376 686.152 145.376 684.282L145.376 683.611L152.79 683.611L152.79 681.048L144.551 681.048Z"></path></g><g ><path     fill="#B0D4F0"  d="M346.8 676.548L349.536 673.434L349.536 672.192L346.8 669.06L346.08 669.672L348.456 672.822L346.08 675.99L346.8 676.548Z"></path></g><rect  x="24" y="708" width="342" height="56" rx="14"    fill="#F0F7FC" ></rect><g ><path     fill="#2C5F8A"  d="M94.736 725.328C94.896 725.664 95.072 726.064 95.216 726.448L88.976 726.448L88.976 727.744L103.072 727.744L103.072 726.448L96.784 726.448C96.592 725.984 96.32 725.392 96.08 724.928L94.736 725.328ZM92.736 738.336C93.136 738.144 93.76 738.048 98.496 737.52C98.688 737.808 98.864 738.08 98.992 738.304L100 737.584C99.584 736.928 98.72 735.824 98.064 735.024L100.944 735.024L100.944 738.448C100.944 738.656 100.864 738.72 100.608 738.736C100.368 738.736 99.376 738.752 98.528 738.72C98.72 739.04 98.96 739.52 99.04 739.872C100.256 739.872 101.104 739.872 101.68 739.696C102.24 739.504 102.432 739.168 102.432 738.448L102.432 733.744L96.368 733.744L96.912 732.736L101.424 732.736L101.424 728.24L99.92 728.24L99.92 731.568L92.128 731.568L92.128 728.24L90.688 728.24L90.688 732.736L95.216 732.736L94.704 733.744L89.648 733.744L89.648 739.888L91.12 739.888L91.12 735.024L93.936 735.024C93.648 735.488 93.392 735.84 93.248 736.016C92.88 736.496 92.576 736.832 92.256 736.912C92.432 737.296 92.672 738.048 92.736 738.336ZM97.056 735.6L97.728 736.464L94.272 736.816C94.72 736.256 95.152 735.664 95.568 735.024L97.984 735.024L97.056 735.6ZM98.048 727.888C97.52 728.288 96.896 728.688 96.192 729.072C95.344 728.672 94.464 728.272 93.712 727.952L93.104 728.656L95.136 729.616C94.32 730.016 93.488 730.368 92.704 730.64C92.928 730.832 93.296 731.248 93.456 731.472C94.304 731.104 95.264 730.64 96.192 730.144C97.136 730.608 98 731.056 98.576 731.408L99.216 730.576C98.704 730.288 98 729.92 97.216 729.552C97.872 729.168 98.48 728.752 98.992 728.352L98.048 727.888ZM104.816 737.568L105.136 739.024C106.64 738.544 108.576 737.92 110.432 737.312L110.208 736.064C108.208 736.64 106.16 737.248 104.816 737.568ZM115.28 726.096C116.016 726.496 116.976 727.136 117.456 727.584L118.352 726.656C117.872 726.24 116.896 725.648 116.16 725.28L115.28 726.096ZM105.168 731.856C105.408 731.728 105.792 731.648 107.504 731.44C106.88 732.336 106.32 733.04 106.032 733.328C105.536 733.936 105.184 734.304 104.8 734.384C104.976 734.768 105.2 735.44 105.264 735.728C105.632 735.52 106.224 735.36 110.192 734.56C110.16 734.256 110.176 733.68 110.224 733.296L107.328 733.792C108.496 732.416 109.632 730.784 110.592 729.136L109.344 728.352C109.04 728.944 108.704 729.552 108.352 730.112L106.624 730.256C107.568 728.96 108.464 727.328 109.12 725.76L107.712 725.088C107.104 726.96 105.968 728.976 105.616 729.488C105.264 730.016 104.992 730.368 104.672 730.448C104.848 730.848 105.088 731.568 105.168 731.856ZM118.016 732.96C117.44 733.856 116.688 734.688 115.808 735.424C115.6 734.656 115.408 733.776 115.264 732.8L119.168 732.064L118.928 730.736L115.072 731.44C115.008 730.864 114.944 730.24 114.896 729.616L118.736 729.024L118.48 727.696L114.816 728.24C114.768 727.2 114.736 726.112 114.752 725.008L113.264 725.008C113.264 726.176 113.296 727.328 113.36 728.464L110.912 728.832L111.168 730.192L113.44 729.84C113.488 730.48 113.552 731.104 113.616 731.712L110.592 732.272L110.832 733.632L113.808 733.072C114 734.288 114.24 735.392 114.528 736.352C113.2 737.216 111.664 737.92 110.048 738.4C110.4 738.736 110.784 739.264 110.976 739.648C112.416 739.136 113.792 738.48 115.04 737.68C115.68 739.056 116.528 739.872 117.616 739.872C118.8 739.872 119.232 739.36 119.488 737.488C119.152 737.328 118.688 737.008 118.384 736.656C118.32 738.016 118.16 738.416 117.776 738.416C117.216 738.416 116.704 737.824 116.272 736.8C117.472 735.856 118.496 734.784 119.28 733.552L118.016 732.96ZM127.824 731.984L132.896 731.984L132.896 732.928L127.824 732.928L127.824 731.984ZM127.824 730L132.896 730L132.896 730.944L127.824 730.944L127.824 730ZM131.632 725.056L131.632 726.272L129.424 726.272L129.424 725.056L128 725.056L128 726.272L125.856 726.272L125.856 727.536L128 727.536L128 728.624L129.424 728.624L129.424 727.536L131.632 727.536L131.632 728.624L133.088 728.624L133.088 727.536L135.152 727.536L135.152 726.272L133.088 726.272L133.088 725.056L131.632 725.056ZM126.416 728.912L126.416 734.016L129.6 734.016C129.552 734.432 129.488 734.816 129.408 735.184L125.536 735.184L125.536 736.432L128.96 736.432C128.368 737.504 127.248 738.24 125.024 738.704C125.312 738.992 125.68 739.552 125.808 739.904C128.544 739.264 129.84 738.176 130.496 736.608C131.312 738.24 132.672 739.36 134.624 739.888C134.816 739.52 135.232 738.944 135.552 738.64C133.904 738.304 132.64 737.536 131.888 736.432L135.152 736.432L135.152 735.184L130.912 735.184C130.992 734.816 131.04 734.432 131.088 734.016L134.352 734.016L134.352 728.912L126.416 728.912ZM122.624 725.056L122.624 728.096L120.752 728.096L120.752 729.504L122.624 729.504L122.624 729.696C122.176 731.728 121.328 734.032 120.416 735.312C120.672 735.696 121.024 736.368 121.184 736.8C121.712 735.984 122.208 734.8 122.624 733.488L122.624 739.888L124.064 739.888L124.064 732.064C124.464 732.848 124.88 733.728 125.072 734.24L126 733.168C125.728 732.656 124.48 730.688 124.064 730.112L124.064 729.504L125.632 729.504L125.632 728.096L124.064 728.096L124.064 725.056L122.624 725.056ZM147.376 725.952C148.176 726.512 149.12 727.36 149.568 727.92L150.624 726.976C150.144 726.432 149.168 725.648 148.384 725.104L147.376 725.952ZM144.88 725.12C144.88 726.064 144.912 727.008 144.944 727.92L136.848 727.92L136.848 729.408L145.04 729.408C145.456 735.216 146.72 739.92 149.408 739.92C150.752 739.92 151.296 739.136 151.552 736.24C151.12 736.08 150.56 735.712 150.208 735.376C150.112 737.472 149.936 738.336 149.536 738.336C148.128 738.336 147.008 734.496 146.64 729.408L151.184 729.408L151.184 727.92L146.544 727.92C146.512 727.008 146.496 726.08 146.512 725.12L144.88 725.12ZM136.896 737.936L137.328 739.44C139.392 738.992 142.304 738.368 144.976 737.744L144.864 736.4L141.616 737.04L141.616 733.024L144.432 733.024L144.432 731.552L137.424 731.552L137.424 733.024L140.112 733.024L140.112 737.344L136.896 737.936ZM153.232 733.408C153.376 733.264 153.904 733.168 154.432 733.168L155.76 733.168L155.76 735.28L152.56 735.76L152.864 737.232L155.76 736.688L155.76 739.856L157.216 739.856L157.216 736.416L159.216 736.048L159.152 734.736L157.216 735.04L157.216 733.168L158.656 733.168L158.656 731.808L157.216 731.808L157.216 729.44L155.76 729.44L155.76 731.808L154.448 731.808C154.928 730.752 155.408 729.52 155.824 728.24L158.72 728.24L158.72 726.848L156.224 726.848C156.368 726.336 156.496 725.824 156.608 725.328L155.12 725.056C155.04 725.648 154.928 726.256 154.784 726.848L152.656 726.848L152.656 728.24L154.432 728.24C154.096 729.472 153.744 730.464 153.6 730.832C153.312 731.52 153.072 732.016 152.784 732.096C152.944 732.464 153.168 733.12 153.232 733.408ZM158.832 729.856L158.832 731.264L160.992 731.264C160.656 732.4 160.336 733.44 160.032 734.272L164.512 734.272C164 734.976 163.408 735.776 162.832 736.528C162.304 736.192 161.76 735.872 161.248 735.584L160.288 736.56C161.952 737.52 163.936 739.008 164.912 739.952L165.904 738.768C165.424 738.336 164.752 737.824 163.984 737.296C165.008 735.968 166.112 734.496 166.928 733.296L165.856 732.768L165.616 732.864L162.08 732.864L162.544 731.264L167.392 731.264L167.392 729.856L162.944 729.856L163.376 728.24L166.832 728.24L166.832 726.848L163.744 726.848L164.144 725.248L162.64 725.072L162.208 726.848L159.424 726.848L159.424 728.24L161.84 728.24L161.408 729.856L158.832 729.856ZM169.168 725.872L169.168 729.216L170.672 729.216L170.672 727.28L181.28 727.28L181.28 729.216L182.848 729.216L182.848 725.872L169.168 725.872ZM169.424 735.072L169.424 736.464L178.416 736.464L178.416 735.072L169.424 735.072ZM172.672 727.536C172.336 729.472 171.792 732.064 171.344 733.616L179.744 733.616C179.456 736.512 179.136 737.824 178.688 738.208C178.496 738.368 178.304 738.384 177.936 738.384C177.504 738.384 176.432 738.368 175.344 738.272C175.616 738.672 175.824 739.28 175.856 739.696C176.896 739.744 177.92 739.776 178.464 739.728C179.12 739.68 179.552 739.552 179.952 739.136C180.576 738.512 180.944 736.88 181.312 732.944C181.344 732.736 181.376 732.272 181.376 732.272L173.232 732.272L173.616 730.544L180.8 730.544L180.8 729.232L173.888 729.232L174.192 727.68L172.672 727.536Z"></path></g><g ><path     fill="#A8C8E0"  d="M93.06 746.531L93.06 748.841L88.715 748.841L88.715 749.677L92.037 749.677C91.234 751.547 89.87 753.329 88.407 754.22C88.605 754.385 88.88 754.682 89.012 754.891C90.607 753.802 92.026 751.833 92.884 749.677L93.06 749.677L93.06 753.747L90.486 753.747L90.486 754.583L93.06 754.583L93.06 756.64L93.929 756.64L93.929 754.583L96.492 754.583L96.492 753.747L93.929 753.747L93.929 749.677L94.083 749.677C94.919 751.833 96.338 753.813 97.966 754.869C98.12 754.638 98.406 754.319 98.615 754.154C97.086 753.274 95.7 751.536 94.908 749.677L98.307 749.677L98.307 748.841L93.929 748.841L93.929 746.531L93.06 746.531ZM103.719 747.543L103.719 750.557L102.531 751.052L102.839 751.789L103.719 751.415L103.719 754.891C103.719 756.09 104.082 756.387 105.347 756.387C105.633 756.387 107.756 756.387 108.064 756.387C109.208 756.387 109.483 755.903 109.604 754.385C109.384 754.352 109.054 754.22 108.867 754.077C108.79 755.342 108.68 755.639 108.031 755.639C107.591 755.639 105.743 755.639 105.38 755.639C104.643 755.639 104.511 755.518 104.511 754.913L104.511 751.074L105.985 750.447L105.985 754.187L106.766 754.187L106.766 750.117L108.306 749.457C108.306 751.228 108.284 752.449 108.229 752.713C108.174 752.966 108.075 753.01 107.899 753.01C107.789 753.01 107.426 753.01 107.162 752.988C107.261 753.175 107.327 753.494 107.36 753.714C107.668 753.714 108.108 753.714 108.394 753.626C108.724 753.549 108.933 753.351 108.999 752.9C109.076 752.471 109.098 750.821 109.098 748.753L109.142 748.599L108.559 748.379L108.405 748.5L108.24 748.654L106.766 749.27L106.766 746.52L105.985 746.52L105.985 749.6L104.511 750.216L104.511 747.543L103.719 747.543ZM99.363 754.066L99.693 754.891C100.661 754.462 101.915 753.901 103.092 753.351L102.905 752.614L101.651 753.142L101.651 749.952L102.949 749.952L102.949 749.171L101.651 749.171L101.651 746.652L100.87 746.652L100.87 749.171L99.462 749.171L99.462 749.952L100.87 749.952L100.87 753.472C100.298 753.703 99.781 753.912 99.363 754.066ZM110.891 752.108C110.979 752.02 111.32 751.954 111.694 751.954L112.695 751.954L112.695 753.538L110.44 753.923L110.616 754.726L112.695 754.319L112.695 756.585L113.465 756.585L113.465 754.165L114.697 753.912L114.653 753.186L113.465 753.406L113.465 751.954L114.576 751.954L114.576 751.206L113.465 751.206L113.465 749.501L112.695 749.501L112.695 751.206L111.628 751.206C111.936 750.447 112.244 749.545 112.508 748.599L114.675 748.599L114.675 747.818L112.706 747.818C112.805 747.444 112.882 747.059 112.959 746.685L112.156 746.52C112.101 746.949 112.013 747.389 111.914 747.818L110.539 747.818L110.539 748.599L111.727 748.599C111.507 749.49 111.265 750.216 111.155 750.491C110.968 750.975 110.825 751.327 110.638 751.382C110.726 751.58 110.847 751.954 110.891 752.108ZM115.192 747.103L115.192 747.862L118.712 747.862C117.821 749.259 116.171 750.436 114.609 751.041C114.785 751.206 115.027 751.514 115.137 751.712C115.973 751.349 116.82 750.865 117.59 750.26C118.492 750.7 119.482 751.261 120.021 751.657L120.516 750.997C119.999 750.645 119.053 750.15 118.195 749.743C118.921 749.061 119.537 748.269 119.944 747.356L119.372 747.07L119.207 747.103L115.192 747.103ZM115.247 752.108L115.247 752.867L117.216 752.867L117.216 755.562L114.62 755.562L114.62 756.332L120.472 756.332L120.472 755.562L118.041 755.562L118.041 752.867L119.999 752.867L119.999 752.108L115.247 752.108ZM123.75 748.445L129.217 748.445L129.217 749.05L123.75 749.05L123.75 748.445ZM123.75 747.367L129.217 747.367L129.217 747.961L123.75 747.961L123.75 747.367ZM122.947 746.872L122.947 749.545L130.042 749.545L130.042 746.872L122.947 746.872ZM121.572 750.018L121.572 750.645L131.439 750.645L131.439 750.018L121.572 750.018ZM123.53 752.757L126.082 752.757L126.082 753.395L123.53 753.395L123.53 752.757ZM126.885 752.757L129.547 752.757L129.547 753.395L126.885 753.395L126.885 752.757ZM123.53 751.657L126.082 751.657L126.082 752.273L123.53 752.273L123.53 751.657ZM126.885 751.657L129.547 751.657L129.547 752.273L126.885 752.273L126.885 751.657ZM121.517 755.727L121.517 756.365L131.505 756.365L131.505 755.727L126.885 755.727L126.885 755.089L130.603 755.089L130.603 754.506L126.885 754.506L126.885 753.901L130.361 753.901L130.361 751.14L122.749 751.14L122.749 753.901L126.082 753.901L126.082 754.506L122.441 754.506L122.441 755.089L126.082 755.089L126.082 755.727L121.517 755.727ZM132.462 755.144L132.66 755.958C133.705 755.562 135.08 755.034 136.378 754.517L136.213 753.802C134.838 754.308 133.397 754.836 132.462 755.144ZM136.4 747.235L136.4 748.005L137.632 748.005C137.5 751.536 137.115 754.396 135.619 756.156C135.817 756.266 136.202 756.53 136.345 756.662C137.291 755.43 137.808 753.813 138.105 751.855C138.479 752.757 138.941 753.593 139.48 754.33C138.82 755.067 138.028 755.628 137.17 756.024C137.346 756.156 137.632 756.464 137.753 756.662C138.567 756.255 139.326 755.694 139.986 754.957C140.591 755.65 141.284 756.222 142.065 756.618C142.186 756.409 142.439 756.112 142.626 755.958C141.834 755.584 141.119 755.023 140.503 754.33C141.262 753.307 141.845 752.009 142.186 750.414L141.669 750.205L141.515 750.238L140.393 750.238C140.668 749.336 140.987 748.181 141.24 747.235L136.4 747.235ZM138.457 748.005L140.206 748.005C139.942 749.039 139.612 750.194 139.337 750.964L141.229 750.964C140.954 752.031 140.525 752.933 139.986 753.703C139.249 752.702 138.677 751.514 138.292 750.271C138.369 749.556 138.413 748.797 138.457 748.005ZM132.605 751.107C132.77 751.03 133.034 750.964 134.453 750.777C133.947 751.503 133.474 752.086 133.265 752.317C132.924 752.735 132.66 753.01 132.418 753.054C132.506 753.263 132.627 753.648 132.671 753.813C132.913 753.637 133.287 753.494 136.224 752.614C136.191 752.438 136.169 752.119 136.169 751.921L134.013 752.526C134.827 751.558 135.63 750.403 136.323 749.237L135.63 748.819C135.421 749.237 135.179 749.644 134.926 750.04L133.474 750.194C134.145 749.237 134.805 748.027 135.311 746.861L134.552 746.509C134.079 747.851 133.243 749.281 132.99 749.655C132.737 750.029 132.55 750.282 132.341 750.337C132.44 750.546 132.561 750.942 132.605 751.107ZM145.767 755.76L146.79 755.76L147.571 753.296L150.519 753.296L151.289 755.76L152.367 755.76L149.628 747.697L148.495 747.697L145.767 755.76ZM147.824 752.493L148.22 751.25C148.506 750.337 148.77 749.468 149.023 748.522L149.067 748.522C149.331 749.457 149.584 750.337 149.881 751.25L150.266 752.493L147.824 752.493ZM155.755 755.903C157.438 755.903 158.494 754.891 158.494 753.615C158.494 752.416 157.768 751.866 156.833 751.459L155.689 750.964C155.062 750.7 154.347 750.403 154.347 749.611C154.347 748.896 154.941 748.445 155.854 748.445C156.602 748.445 157.196 748.731 157.691 749.193L158.219 748.544C157.658 747.961 156.811 747.554 155.854 747.554C154.391 747.554 153.313 748.445 153.313 749.688C153.313 750.865 154.204 751.437 154.952 751.756L156.107 752.262C156.877 752.603 157.46 752.867 157.46 753.703C157.46 754.484 156.833 755.012 155.766 755.012C154.93 755.012 154.116 754.616 153.544 754.011L152.939 754.715C153.632 755.441 154.611 755.903 155.755 755.903ZM161.09 751.525L161.09 748.522L162.443 748.522C163.708 748.522 164.401 748.896 164.401 749.952C164.401 751.008 163.708 751.525 162.443 751.525L161.09 751.525ZM164.5 755.76L165.644 755.76L163.598 752.229C164.687 751.965 165.413 751.217 165.413 749.952C165.413 748.28 164.236 747.697 162.597 747.697L160.078 747.697L160.078 755.76L161.09 755.76L161.09 752.339L162.542 752.339L164.5 755.76ZM173.867 751.173L177.695 751.173L177.695 751.965L173.867 751.965L173.867 751.173ZM173.867 749.798L177.695 749.798L177.695 750.568L173.867 750.568L173.867 749.798ZM176.727 746.52L176.727 747.433L175.033 747.433L175.033 746.52L174.252 746.52L174.252 747.433L172.635 747.433L172.635 748.137L174.252 748.137L174.252 748.962L175.033 748.962L175.033 748.137L176.727 748.137L176.727 748.962L177.53 748.962L177.53 748.137L179.07 748.137L179.07 747.433L177.53 747.433L177.53 746.52L176.727 746.52ZM173.097 749.171L173.097 752.581L175.341 752.581C175.297 752.911 175.253 753.208 175.176 753.494L172.415 753.494L172.415 754.198L174.934 754.198C174.516 755.045 173.724 755.628 172.107 755.98C172.261 756.145 172.47 756.453 172.547 756.64C174.461 756.178 175.352 755.386 175.792 754.22C176.342 755.43 177.365 756.255 178.795 756.64C178.905 756.431 179.125 756.123 179.301 755.958C178.058 755.694 177.112 755.089 176.584 754.198L179.048 754.198L179.048 753.494L176.001 753.494C176.056 753.208 176.111 752.9 176.144 752.581L178.498 752.581L178.498 749.171L173.097 749.171ZM170.6 746.52L170.6 748.643L169.225 748.643L169.225 749.413L170.6 749.413L170.6 749.424C170.303 750.92 169.665 752.669 169.027 753.593C169.17 753.791 169.368 754.154 169.467 754.396C169.885 753.747 170.281 752.746 170.6 751.668L170.6 756.629L171.392 756.629L171.392 750.964C171.689 751.547 172.03 752.251 172.173 752.614L172.701 752.02C172.514 751.679 171.678 750.304 171.392 749.875L171.392 749.413L172.525 749.413L172.525 748.643L171.392 748.643L171.392 746.52L170.6 746.52ZM186.66 747.147L186.66 750.832L187.419 750.832L187.419 747.147L186.66 747.147ZM188.717 746.586L188.717 751.503C188.717 751.646 188.673 751.69 188.497 751.701C188.332 751.712 187.782 751.712 187.155 751.69C187.276 751.91 187.386 752.229 187.43 752.449C188.211 752.449 188.75 752.438 189.08 752.306C189.41 752.185 189.498 751.976 189.498 751.514L189.498 746.586L188.717 746.586ZM183.943 747.697L183.943 749.215L182.579 749.215L182.579 749.149L182.579 747.697L183.943 747.697ZM180.412 749.215L180.412 749.952L181.754 749.952C181.633 750.689 181.27 751.437 180.324 752.02C180.478 752.13 180.753 752.438 180.863 752.592C181.985 751.899 182.403 750.909 182.524 749.952L183.943 749.952L183.943 752.317L184.724 752.317L184.724 749.952L185.978 749.952L185.978 749.215L184.724 749.215L184.724 747.697L185.747 747.697L185.747 746.971L180.775 746.971L180.775 747.697L181.82 747.697L181.82 749.138L181.82 749.215L180.412 749.215ZM184.812 752.108L184.812 753.329L181.336 753.329L181.336 754.088L184.812 754.088L184.812 755.485L180.192 755.485L180.192 756.255L190.147 756.255L190.147 755.485L185.659 755.485L185.659 754.088L189.003 754.088L189.003 753.329L185.659 753.329L185.659 752.108L184.812 752.108Z"></path></g><g ><path     fill="#B0D4F0"  d="M346.8 742.548L349.536 739.434L349.536 738.192L346.8 735.06L346.08 735.672L348.456 738.822L346.08 741.99L346.8 742.548Z"></path></g><rect  x="24" y="774" width="342" height="56" rx="14"    fill="#F0F7FC" ></rect><g ><path     fill="#2C5F8A"  d="M96.544 803.136C98.64 803.856 100.768 804.896 102.032 805.824L102.944 804.624C101.632 803.744 99.376 802.72 97.264 802.016L96.544 803.136ZM91.792 795.728C92.64 796.224 93.648 797.008 94.112 797.568L95.072 796.48C94.56 795.92 93.536 795.2 92.688 794.752L91.792 795.728ZM90.176 798.192C91.056 798.672 92.128 799.424 92.624 800L93.536 798.848C93.008 798.32 91.936 797.6 91.056 797.168L90.176 798.192ZM89.344 792.736L89.344 796.176L90.848 796.176L90.848 794.144L101.12 794.144L101.12 796.176L102.688 796.176L102.688 792.736L97.232 792.736C97.008 792.176 96.592 791.456 96.24 790.912L94.736 791.376C94.976 791.776 95.232 792.272 95.44 792.736L89.344 792.736ZM89.12 800.336L89.12 801.632L94.64 801.632C93.728 802.992 92.128 803.936 89.264 804.56C89.584 804.88 89.968 805.472 90.112 805.872C93.68 805.024 95.504 803.632 96.432 801.632L102.976 801.632L102.976 800.336L96.912 800.336C97.328 798.816 97.44 797.008 97.504 794.896L95.904 794.896C95.84 797.088 95.776 798.896 95.264 800.336L89.12 800.336ZM111.472 797.488C112.288 798.704 113.36 800.352 113.856 801.312L115.184 800.528C114.656 799.584 113.552 798 112.72 796.832L111.472 797.488ZM109.008 798.24L109.008 801.584L106.624 801.584L106.624 798.24L109.008 798.24ZM109.008 796.912L106.624 796.912L106.624 793.712L109.008 793.712L109.008 796.912ZM105.2 792.352L105.2 804.224L106.624 804.224L106.624 802.944L110.432 802.944L110.432 792.352L105.2 792.352ZM116.112 791.152L116.112 794.144L111.088 794.144L111.088 795.648L116.112 795.648L116.112 803.76C116.112 804.096 115.984 804.192 115.648 804.208C115.296 804.208 114.112 804.208 112.912 804.176C113.136 804.608 113.376 805.28 113.456 805.712C115.056 805.712 116.128 805.68 116.768 805.44C117.408 805.2 117.648 804.768 117.648 803.776L117.648 795.648L119.456 795.648L119.456 794.144L117.648 794.144L117.648 791.152L116.112 791.152ZM121.232 799.408C121.376 799.264 121.904 799.168 122.432 799.168L123.76 799.168L123.76 801.28L120.56 801.76L120.864 803.232L123.76 802.688L123.76 805.856L125.216 805.856L125.216 802.416L127.216 802.048L127.152 800.736L125.216 801.04L125.216 799.168L126.656 799.168L126.656 797.808L125.216 797.808L125.216 795.44L123.76 795.44L123.76 797.808L122.448 797.808C122.928 796.752 123.408 795.52 123.824 794.24L126.72 794.24L126.72 792.848L124.224 792.848C124.368 792.336 124.496 791.824 124.608 791.328L123.12 791.056C123.04 791.648 122.928 792.256 122.784 792.848L120.656 792.848L120.656 794.24L122.432 794.24C122.096 795.472 121.744 796.464 121.6 796.832C121.312 797.52 121.072 798.016 120.784 798.096C120.944 798.464 121.168 799.12 121.232 799.408ZM126.832 795.856L126.832 797.264L128.992 797.264C128.656 798.4 128.336 799.44 128.032 800.272L132.512 800.272C132 800.976 131.408 801.776 130.832 802.528C130.304 802.192 129.76 801.872 129.248 801.584L128.288 802.56C129.952 803.52 131.936 805.008 132.912 805.952L133.904 804.768C133.424 804.336 132.752 803.824 131.984 803.296C133.008 801.968 134.112 800.496 134.928 799.296L133.856 798.768L133.616 798.864L130.08 798.864L130.544 797.264L135.392 797.264L135.392 795.856L130.944 795.856L131.376 794.24L134.832 794.24L134.832 792.848L131.744 792.848L132.144 791.248L130.64 791.072L130.208 792.848L127.424 792.848L127.424 794.24L129.84 794.24L129.408 795.856L126.832 795.856ZM137.168 791.872L137.168 795.216L138.672 795.216L138.672 793.28L149.28 793.28L149.28 795.216L150.848 795.216L150.848 791.872L137.168 791.872ZM137.424 801.072L137.424 802.464L146.416 802.464L146.416 801.072L137.424 801.072ZM140.672 793.536C140.336 795.472 139.792 798.064 139.344 799.616L147.744 799.616C147.456 802.512 147.136 803.824 146.688 804.208C146.496 804.368 146.304 804.384 145.936 804.384C145.504 804.384 144.432 804.368 143.344 804.272C143.616 804.672 143.824 805.28 143.856 805.696C144.896 805.744 145.92 805.776 146.464 805.728C147.12 805.68 147.552 805.552 147.952 805.136C148.576 804.512 148.944 802.88 149.312 798.944C149.344 798.736 149.376 798.272 149.376 798.272L141.232 798.272L141.616 796.544L148.8 796.544L148.8 795.232L141.888 795.232L142.192 793.68L140.672 793.536Z"></path></g><g ><path     fill="#A8C8E0"  d="M88.902 813.136C89.507 813.708 90.244 814.511 90.596 815.028L91.267 814.5C90.904 814.005 90.145 813.235 89.54 812.685L88.902 813.136ZM94.083 812.685C94.072 813.301 94.061 813.906 94.028 814.489L91.762 814.489L91.762 815.281L93.973 815.281C93.786 817.393 93.236 819.153 91.443 820.22C91.663 820.363 91.916 820.627 92.037 820.825C93.984 819.593 94.6 817.635 94.831 815.281L97.273 815.281C97.13 818.372 96.976 819.582 96.701 819.879C96.591 820 96.47 820.022 96.261 820.011C96.008 820.011 95.392 820.011 94.743 819.956C94.897 820.198 95.007 820.55 95.029 820.803C95.634 820.825 96.261 820.847 96.591 820.814C96.965 820.781 97.207 820.693 97.438 820.407C97.812 819.956 97.966 818.625 98.12 814.885C98.131 814.775 98.131 814.489 98.131 814.489L94.886 814.489C94.919 813.906 94.941 813.301 94.952 812.685L94.083 812.685ZM90.728 816.249L88.462 816.249L88.462 817.063L89.903 817.063L89.903 820.484C89.419 820.682 88.858 821.199 88.264 821.859L88.88 822.662C89.419 821.892 89.936 821.188 90.288 821.188C90.53 821.188 90.904 821.584 91.366 821.892C92.158 822.398 93.093 822.519 94.523 822.519C95.634 822.519 97.669 822.453 98.45 822.398C98.472 822.145 98.604 821.705 98.714 821.474C97.603 821.595 95.92 821.694 94.556 821.694C93.269 821.694 92.301 821.617 91.575 821.144C91.19 820.902 90.937 820.682 90.728 820.55L90.728 816.249ZM100.221 813.257C100.815 813.796 101.552 814.566 101.893 815.05L102.487 814.467C102.135 814.005 101.376 813.268 100.782 812.751L100.221 813.257ZM104.027 815.479L107.767 815.479L107.767 817.481L104.027 817.481L104.027 815.479ZM100.936 822.222C101.09 822.002 101.398 821.749 103.466 820.231C103.378 820.066 103.246 819.736 103.18 819.494L101.926 820.374L101.926 815.974L99.495 815.974L99.495 816.777L101.101 816.777L101.101 820.451C101.101 820.935 100.672 821.32 100.452 821.463C100.617 821.639 100.848 822.002 100.936 822.222ZM103.224 814.731L103.224 818.229L104.621 818.229C104.478 820.033 104.104 821.32 102.267 822.013C102.443 822.167 102.674 822.453 102.773 822.651C104.808 821.815 105.281 820.33 105.457 818.229L106.436 818.229L106.436 821.386C106.436 822.244 106.634 822.486 107.448 822.486C107.624 822.486 108.394 822.486 108.548 822.486C109.252 822.486 109.461 822.112 109.549 820.693C109.318 820.627 108.977 820.495 108.801 820.352C108.79 821.551 108.735 821.716 108.471 821.716C108.317 821.716 107.69 821.716 107.569 821.716C107.294 821.716 107.25 821.672 107.25 821.375L107.25 818.229L108.592 818.229L108.592 814.731L107.448 814.731C107.756 814.148 108.086 813.444 108.372 812.795L107.514 812.531C107.305 813.191 106.909 814.104 106.568 814.731L104.698 814.731L105.435 814.412C105.259 813.906 104.819 813.125 104.39 812.553L103.686 812.839C104.104 813.433 104.511 814.225 104.676 814.731L103.224 814.731ZM110.902 813.136C111.507 813.708 112.244 814.511 112.596 815.028L113.267 814.5C112.904 814.005 112.145 813.235 111.54 812.685L110.902 813.136ZM116.083 812.685C116.072 813.301 116.061 813.906 116.028 814.489L113.762 814.489L113.762 815.281L115.973 815.281C115.786 817.393 115.236 819.153 113.443 820.22C113.663 820.363 113.916 820.627 114.037 820.825C115.984 819.593 116.6 817.635 116.831 815.281L119.273 815.281C119.13 818.372 118.976 819.582 118.701 819.879C118.591 820 118.47 820.022 118.261 820.011C118.008 820.011 117.392 820.011 116.743 819.956C116.897 820.198 117.007 820.55 117.029 820.803C117.634 820.825 118.261 820.847 118.591 820.814C118.965 820.781 119.207 820.693 119.438 820.407C119.812 819.956 119.966 818.625 120.12 814.885C120.131 814.775 120.131 814.489 120.131 814.489L116.886 814.489C116.919 813.906 116.941 813.301 116.952 812.685L116.083 812.685ZM112.728 816.249L110.462 816.249L110.462 817.063L111.903 817.063L111.903 820.484C111.419 820.682 110.858 821.199 110.264 821.859L110.88 822.662C111.419 821.892 111.936 821.188 112.288 821.188C112.53 821.188 112.904 821.584 113.366 821.892C114.158 822.398 115.093 822.519 116.523 822.519C117.634 822.519 119.669 822.453 120.45 822.398C120.472 822.145 120.604 821.705 120.714 821.474C119.603 821.595 117.92 821.694 116.556 821.694C115.269 821.694 114.301 821.617 113.575 821.144C113.19 820.902 112.937 820.682 112.728 820.55L112.728 816.249ZM122.144 818.009L122.144 821.991L129.954 821.991L129.954 822.618L130.845 822.618L130.845 818.009L129.954 818.009L129.954 821.166L126.929 821.166L126.929 817.316L130.405 817.316L130.405 813.51L129.514 813.51L129.514 816.513L126.929 816.513L126.929 812.531L126.027 812.531L126.027 816.513L123.508 816.513L123.508 813.521L122.65 813.521L122.65 817.316L126.027 817.316L126.027 821.166L123.057 821.166L123.057 818.009L122.144 818.009ZM136.653 812.707C136.983 813.246 137.335 813.983 137.467 814.434L138.38 814.137C138.226 813.686 137.841 812.971 137.511 812.443L136.653 812.707ZM132.55 814.456L132.55 815.27L134.266 815.27C134.915 816.942 135.784 818.383 136.917 819.56C135.707 820.572 134.222 821.32 132.396 821.837C132.561 822.035 132.825 822.42 132.913 822.618C134.75 822.024 136.279 821.232 137.522 820.154C138.765 821.254 140.261 822.068 142.065 822.563C142.208 822.332 142.45 821.98 142.637 821.804C140.877 821.364 139.381 820.583 138.16 819.549C139.271 818.416 140.118 817.008 140.756 815.27L142.494 815.27L142.494 814.456L132.55 814.456ZM137.544 818.977C136.51 817.932 135.696 816.678 135.124 815.27L139.821 815.27C139.271 816.755 138.512 817.976 137.544 818.977ZM148.06 817.767L148.06 818.46L143.759 818.46L143.759 819.252L148.06 819.252L148.06 821.606C148.06 821.76 148.005 821.815 147.807 821.826C147.609 821.826 146.894 821.826 146.157 821.804C146.3 822.024 146.454 822.398 146.509 822.629C147.444 822.629 148.027 822.618 148.412 822.497C148.808 822.354 148.929 822.112 148.929 821.628L148.929 819.252L153.23 819.252L153.23 818.46L148.929 818.46L148.929 818.053C149.897 817.536 150.887 816.788 151.569 816.084L151.008 815.655L150.821 815.699L145.563 815.699L145.563 816.48L149.985 816.48C149.424 816.964 148.709 817.448 148.06 817.767ZM147.664 812.696C147.873 812.982 148.082 813.345 148.225 813.664L143.88 813.664L143.88 815.941L144.694 815.941L144.694 814.456L152.273 814.456L152.273 815.941L153.12 815.941L153.12 813.664L149.193 813.664C149.039 813.301 148.753 812.806 148.467 812.443L147.664 812.696ZM155.727 822.937C156.882 822.53 157.63 821.628 157.63 820.44C157.63 819.67 157.3 819.175 156.695 819.175C156.244 819.175 155.859 819.45 155.859 819.967C155.859 820.484 156.233 820.748 156.684 820.748L156.871 820.726C156.816 821.485 156.332 822.002 155.485 822.354L155.727 822.937ZM165.616 813.301L165.616 814.126L173.217 814.126L173.217 821.441C173.217 821.672 173.14 821.738 172.898 821.76C172.634 821.76 171.732 821.771 170.852 821.727C170.984 821.969 171.138 822.376 171.193 822.618C172.282 822.618 173.052 822.618 173.492 822.475C173.921 822.332 174.075 822.046 174.075 821.452L174.075 814.126L175.428 814.126L175.428 813.301L165.616 813.301ZM167.541 816.535L170.434 816.535L170.434 819.065L167.541 819.065L167.541 816.535ZM166.738 815.743L166.738 820.737L167.541 820.737L167.541 819.857L171.248 819.857L171.248 815.743L166.738 815.743ZM176.671 813.345C177.309 813.884 178.057 814.654 178.376 815.193L179.058 814.676C178.706 814.148 177.947 813.4 177.298 812.894L176.671 813.345ZM180.906 812.85C180.642 813.829 180.18 814.797 179.586 815.446C179.784 815.545 180.136 815.765 180.29 815.886C180.543 815.578 180.785 815.193 181.005 814.764L182.633 814.764L182.633 816.37L179.52 816.37L179.52 817.107L181.511 817.107C181.324 818.548 180.873 819.593 179.223 820.176C179.399 820.33 179.641 820.638 179.729 820.847C181.577 820.121 182.127 818.856 182.336 817.107L183.469 817.107L183.469 819.659C183.469 820.495 183.656 820.737 184.481 820.737C184.646 820.737 185.394 820.737 185.559 820.737C186.252 820.737 186.472 820.385 186.549 818.988C186.318 818.933 185.977 818.812 185.823 818.658C185.79 819.813 185.746 819.967 185.471 819.967C185.317 819.967 184.712 819.967 184.602 819.967C184.316 819.967 184.283 819.934 184.283 819.659L184.283 817.107L186.461 817.107L186.461 816.37L183.458 816.37L183.458 814.764L185.999 814.764L185.999 814.049L183.458 814.049L183.458 812.564L182.633 812.564L182.633 814.049L181.335 814.049C181.478 813.719 181.599 813.367 181.698 813.015L180.906 812.85ZM178.761 816.744L176.616 816.744L176.616 817.514L177.969 817.514L177.969 820.847C177.496 821.067 176.99 821.463 176.495 821.925L177.045 822.64C177.672 821.958 178.266 821.386 178.673 821.386C178.915 821.386 179.256 821.705 179.685 821.969C180.411 822.398 181.324 822.508 182.6 822.508C183.678 822.508 185.537 822.453 186.395 822.398C186.406 822.156 186.538 821.749 186.626 821.54C185.537 821.65 183.865 821.727 182.611 821.727C181.445 821.727 180.521 821.661 179.839 821.254C179.311 820.946 179.058 820.682 178.761 820.66L178.761 816.744Z"></path></g><g ><path     fill="#B0D4F0"  d="M346.8 808.548L349.536 805.434L349.536 804.192L346.8 801.06L346.08 801.672L348.456 804.822L346.08 807.99L346.8 808.548Z"></path></g><rect x="0" y="840" width="390" height="4"   fill="#FFFFFF" ></rect></g><defs><clipPath id="clip-path-z4asT78Tr7irq_8dwZq1L"><path d="M0 844L390 844L390 0L0 0L0 844Z" fill="white"/></clipPath></defs></svg>