<svg xmlns="http://www.w3.org/2000/svg" xmlns:xlink="http://www.w3.org/1999/xlink" width="390" height="844" viewBox="0 0 390 844" fill="none"><g  clip-path="url(#clip-path-w_v3zwP85MB7VEvOW-yqH)"><rect x="0" y="0" width="390" height="54"   fill="#E8F4FD" ></rect><g ><path     fill="#333333"  d="M33.66 38.61C35.775 38.61 37.755 36.84 37.755 32.505C37.755 28.845 36.045 27.15 33.93 27.15C32.145 27.15 30.63 28.59 30.63 30.78C30.63 33.09 31.89 34.26 33.735 34.26C34.575 34.26 35.505 33.765 36.135 32.985C36.045 36.105 34.92 37.17 33.57 37.17C32.88 37.17 32.205 36.855 31.77 36.345L30.825 37.425C31.47 38.085 32.37 38.61 33.66 38.61ZM36.12 31.65C35.49 32.61 34.71 33 34.035 33C32.88 33 32.25 32.175 32.25 30.78C32.25 29.34 33 28.485 33.96 28.485C35.145 28.485 35.955 29.475 36.12 31.65ZM40.785 32.7C41.445 32.7 41.955 32.205 41.955 31.5C41.955 30.78 41.445 30.27 40.785 30.27C40.14 30.27 39.63 30.78 39.63 31.5C39.63 32.205 40.14 32.7 40.785 32.7ZM40.785 38.61C41.445 38.61 41.955 38.085 41.955 37.38C41.955 36.675 41.445 36.165 40.785 36.165C40.14 36.165 39.63 36.675 39.63 37.38C39.63 38.085 40.14 38.61 40.785 38.61ZM48.105 38.4L49.725 38.4L49.725 35.43L51.12 35.43L51.12 34.08L49.725 34.08L49.725 27.345L47.715 27.345L43.32 34.275L43.32 35.43L48.105 35.43L48.105 38.4ZM48.105 34.08L45.075 34.08L47.235 30.765C47.55 30.195 47.85 29.625 48.12 29.055L48.18 29.055C48.15 29.67 48.105 30.6 48.105 31.2L48.105 34.08ZM52.845 38.4L59.16 38.4L59.16 36.975L57.015 36.975L57.015 27.345L55.71 27.345C55.065 27.75 54.33 28.02 53.295 28.2L53.295 29.295L55.275 29.295L55.275 36.975L52.845 36.975L52.845 38.4Z"></path></g><g ><path     fill="#333333"  d="M341.5 40.2L353.5 40.2L353.5 25.2L341.5 25.2L341.5 40.2ZM347.5 32.085L342.73 25.95L352.27 25.95L347.5 32.085ZM347.98 32.7L352.75 26.565L352.75 38.835L347.98 32.7ZM342.73 39.45L347.5 33.315L352.27 39.45L342.73 39.45ZM342.25 26.565L347.02 32.7L342.25 38.835L342.25 26.565ZM356.5 40.2L368.5 40.2L368.5 25.2L356.5 25.2L356.5 40.2ZM362.5 32.085L357.73 25.95L367.27 25.95L362.5 32.085ZM362.98 32.7L367.75 26.565L367.75 38.835L362.98 32.7ZM357.73 39.45L362.5 33.315L367.27 39.45L357.73 39.45ZM357.25 26.565L362.02 32.7L357.25 38.835L357.25 26.565ZM371.5 40.2L383.5 40.2L383.5 25.2L371.5 25.2L371.5 40.2ZM377.5 32.085L372.73 25.95L382.27 25.95L377.5 32.085ZM377.98 32.7L382.75 26.565L382.75 38.835L377.98 32.7ZM372.73 39.45L377.5 33.315L382.27 39.45L372.73 39.45ZM372.25 26.565L377.02 32.7L372.25 38.835L372.25 26.565Z"></path></g><rect x="0" y="54" width="390" height="60"   fill="#E8F4FD" ></rect><g ></g><g ><path     fill="#2C5F8A"  d="M161.754 83.02L161.754 89.554C161.754 92.092 161.574 95.278 159.576 97.528C159.882 97.69 160.422 98.14 160.62 98.41C162.006 96.88 162.618 94.81 162.888 92.794L167.406 92.794L167.406 98.158L168.774 98.158L168.774 92.794L173.634 92.794L173.634 96.484C173.634 96.808 173.508 96.916 173.148 96.934C172.806 96.952 171.582 96.97 170.322 96.916C170.502 97.276 170.718 97.87 170.79 98.212C172.482 98.23 173.526 98.212 174.138 97.996C174.75 97.78 174.966 97.366 174.966 96.484L174.966 83.02L161.754 83.02ZM163.086 84.316L167.406 84.316L167.406 87.214L163.086 87.214L163.086 84.316ZM173.634 84.316L173.634 87.214L168.774 87.214L168.774 84.316L173.634 84.316ZM163.086 88.492L167.406 88.492L167.406 91.516L163.014 91.516C163.068 90.832 163.086 90.166 163.086 89.554L163.086 88.492ZM173.634 88.492L173.634 91.516L168.774 91.516L168.774 88.492L173.634 88.492ZM181.5 84.91L190.446 84.91L190.446 85.9L181.5 85.9L181.5 84.91ZM181.5 83.146L190.446 83.146L190.446 84.118L181.5 84.118L181.5 83.146ZM180.186 82.336L180.186 86.71L191.796 86.71L191.796 82.336L180.186 82.336ZM177.936 87.484L177.936 88.51L194.082 88.51L194.082 87.484L177.936 87.484ZM181.14 91.966L185.316 91.966L185.316 93.01L181.14 93.01L181.14 91.966ZM186.63 91.966L190.986 91.966L190.986 93.01L186.63 93.01L186.63 91.966ZM181.14 90.166L185.316 90.166L185.316 91.174L181.14 91.174L181.14 90.166ZM186.63 90.166L190.986 90.166L190.986 91.174L186.63 91.174L186.63 90.166ZM177.846 96.826L177.846 97.87L194.19 97.87L194.19 96.826L186.63 96.826L186.63 95.782L192.714 95.782L192.714 94.828L186.63 94.828L186.63 93.838L192.318 93.838L192.318 89.32L179.862 89.32L179.862 93.838L185.316 93.838L185.316 94.828L179.358 94.828L179.358 95.782L185.316 95.782L185.316 96.826L177.846 96.826ZM207.564 90.544L207.564 96.232C207.564 97.564 207.87 97.96 209.13 97.96C209.382 97.96 210.462 97.96 210.714 97.96C211.83 97.96 212.154 97.276 212.244 94.828C211.902 94.738 211.362 94.522 211.092 94.27C211.038 96.448 210.966 96.772 210.57 96.772C210.354 96.772 209.508 96.772 209.346 96.772C208.95 96.772 208.896 96.718 208.896 96.232L208.896 90.544L207.564 90.544ZM204.18 90.58C204.072 94.144 203.658 96.07 200.706 97.168C201.012 97.42 201.39 97.924 201.552 98.266C204.81 96.934 205.368 94.612 205.512 90.58L204.18 90.58ZM195.756 95.926L196.062 97.258C197.682 96.736 199.806 96.07 201.822 95.404L201.606 94.234C199.428 94.882 197.214 95.548 195.756 95.926ZM205.71 82.048C206.052 82.786 206.502 83.758 206.682 84.37L202.326 84.37L202.326 85.594L205.566 85.594C204.756 86.71 203.514 88.366 203.1 88.762C202.758 89.086 202.308 89.212 201.966 89.302C202.11 89.59 202.362 90.274 202.416 90.616C202.92 90.4 203.676 90.31 210.21 89.698C210.498 90.184 210.768 90.652 210.948 91.012L212.082 90.382C211.542 89.338 210.372 87.646 209.4 86.386L208.338 86.926C208.734 87.448 209.148 88.042 209.526 88.636L204.576 89.05C205.386 88.06 206.412 86.656 207.168 85.594L212.064 85.594L212.064 84.37L206.88 84.37L208.032 84.01C207.816 83.434 207.366 82.444 206.952 81.724L205.71 82.048ZM196.08 89.266C196.35 89.14 196.764 89.05 198.924 88.744C198.15 89.878 197.448 90.76 197.124 91.102C196.548 91.768 196.134 92.218 195.738 92.29C195.9 92.65 196.116 93.316 196.188 93.604C196.566 93.37 197.178 93.172 201.642 92.2C201.606 91.912 201.588 91.39 201.624 91.012L198.222 91.678C199.59 90.094 200.94 88.168 202.074 86.224L200.868 85.504C200.526 86.17 200.148 86.854 199.734 87.484L197.52 87.718C198.636 86.17 199.752 84.208 200.58 82.318L199.212 81.688C198.42 83.866 197.088 86.188 196.656 86.782C196.26 87.394 195.918 87.808 195.594 87.88C195.774 88.258 195.99 88.978 196.08 89.266ZM215.466 82.93C216.474 83.776 217.734 85 218.31 85.774L219.228 84.766C218.616 84.028 217.338 82.876 216.348 82.066L215.466 82.93ZM213.828 87.412L213.828 88.744L216.69 88.744L216.69 95.206C216.69 95.98 216.132 96.52 215.79 96.736C216.042 97.006 216.402 97.618 216.528 97.978C216.816 97.6 217.32 97.204 220.722 94.792C220.578 94.54 220.362 93.964 220.272 93.604L218.058 95.116L218.058 87.412L213.828 87.412ZM224.268 81.814L224.268 87.736L219.696 87.736L219.696 89.122L224.268 89.122L224.268 98.32L225.69 98.32L225.69 89.122L230.262 89.122L230.262 87.736L225.69 87.736L225.69 81.814L224.268 81.814Z"></path></g><g opacity="0.15"><rect  x="40" y="135" width="310" height="36" rx="12"    fill="#FFD700" ></rect></g><g ><path     fill="#8B4513"  d="M87.0473 159.612C88.4903 160.119 89.9723 160.73 90.8563 161.172L91.7403 160.34C90.7783 159.911 89.1923 159.3 87.7493 158.832L87.0473 159.612ZM83.9923 158.845C83.1603 159.378 81.5093 160.015 80.1703 160.34C80.4433 160.574 80.8203 160.964 81.0153 161.211C82.3413 160.86 84.0183 160.223 85.0583 159.573L83.9923 158.845ZM81.5093 154.243L81.5093 158.78L90.5443 158.78L90.5443 154.243L86.6053 154.243L86.6053 153.437L91.8313 153.437L91.8313 152.306L88.6723 152.306L88.6723 151.266L90.9473 151.266L90.9473 150.174L88.6723 150.174L88.6723 149.108L87.4113 149.108L87.4113 150.174L84.5643 150.174L84.5643 149.108L83.3163 149.108L83.3163 150.174L81.0803 150.174L81.0803 151.266L83.3163 151.266L83.3163 152.306L80.1573 152.306L80.1573 153.437L85.3313 153.437L85.3313 154.243L81.5093 154.243ZM84.5643 152.306L84.5643 151.266L87.4113 151.266L87.4113 152.306L84.5643 152.306ZM82.7053 156.921L85.3313 156.921L85.3313 157.896L82.7053 157.896L82.7053 156.921ZM86.6053 156.921L89.3093 156.921L89.3093 157.896L86.6053 157.896L86.6053 156.921ZM82.7053 155.127L85.3313 155.127L85.3313 156.089L82.7053 156.089L82.7053 155.127ZM86.6053 155.127L89.3093 155.127L89.3093 156.089L86.6053 156.089L86.6053 155.127ZM94.9383 157.324C95.4193 158.039 95.9263 159.04 96.1083 159.651L97.1743 159.183C96.9793 158.559 96.4333 157.61 95.9393 156.921L94.9383 157.324ZM101.867 156.921C101.568 157.636 101.022 158.637 100.593 159.261L101.529 159.664C101.984 159.079 102.556 158.169 103.037 157.363L101.867 156.921ZM98.8903 148.978C97.6423 150.915 95.2633 152.345 92.8063 153.099C93.1183 153.411 93.4563 153.879 93.6383 154.23C94.2883 153.996 94.9253 153.723 95.5363 153.411L95.5363 154.087L98.2793 154.087L98.2793 155.673L93.9503 155.673L93.9503 156.791L98.2793 156.791L98.2793 159.703L93.3393 159.703L93.3393 160.834L104.623 160.834L104.623 159.703L99.5923 159.703L99.5923 156.791L103.986 156.791L103.986 155.673L99.5923 155.673L99.5923 154.087L102.361 154.087L102.361 153.294C103.011 153.645 103.674 153.944 104.311 154.178C104.506 153.853 104.883 153.372 105.169 153.099C103.206 152.514 100.97 151.279 99.6963 149.992L100.034 149.498L98.8903 148.978ZM101.75 152.943L96.3553 152.943C97.3433 152.345 98.2273 151.643 98.9943 150.837C99.7743 151.604 100.736 152.332 101.75 152.943ZM107.522 160.912C108.094 160.691 108.887 160.652 115.582 160.119C115.868 160.496 116.102 160.86 116.271 161.159L117.376 160.496C116.791 159.508 115.582 158.13 114.425 157.103L113.372 157.649C113.827 158.065 114.295 158.559 114.724 159.053L109.381 159.417C110.239 158.637 111.071 157.727 111.786 156.804L117.402 156.804L117.402 155.595L106.612 155.595L106.612 156.804L110.083 156.804C109.303 157.831 108.445 158.702 108.107 158.988C107.704 159.365 107.405 159.599 107.106 159.651C107.249 160.002 107.444 160.639 107.522 160.912ZM111.981 149.082C110.772 150.785 108.445 152.41 105.936 153.424C106.222 153.671 106.638 154.204 106.82 154.516C107.548 154.191 108.25 153.814 108.913 153.398L108.913 154.23L115.075 154.23L115.075 153.294C115.764 153.71 116.479 154.087 117.194 154.373C117.389 154.035 117.792 153.541 118.065 153.294C116.037 152.618 113.931 151.305 112.696 150.148L113.125 149.589L111.981 149.082ZM109.407 153.086C110.369 152.449 111.24 151.734 111.994 150.941C112.722 151.656 113.684 152.41 114.737 153.086L109.407 153.086ZM122.16 150.72L127.815 150.72L127.815 151.981L122.16 151.981L122.16 150.72ZM120.873 149.667L120.873 153.047L129.167 153.047L129.167 149.667L120.873 149.667ZM124.227 155.933L124.227 157.103C124.227 158.065 123.85 159.378 119.261 160.249C119.56 160.509 119.924 160.977 120.08 161.25C124.877 160.184 125.566 158.507 125.566 157.129L125.566 155.933L124.227 155.933ZM125.384 159.365C126.931 159.885 129.037 160.704 130.103 161.237L130.727 160.197C129.609 159.677 127.477 158.91 125.982 158.455L125.384 159.365ZM120.379 154.061L120.379 158.858L121.64 158.858L121.64 155.205L128.387 155.205L128.387 158.728L129.713 158.728L129.713 154.061L120.379 154.061ZM141.187 153.632C140.355 153.632 139.679 154.308 139.679 155.14C139.679 155.972 140.355 156.648 141.187 156.648C142.019 156.648 142.695 155.972 142.695 155.14C142.695 154.308 142.019 153.632 141.187 153.632ZM154.532 152.826L160.278 152.826L160.278 153.801L154.532 153.801L154.532 152.826ZM153.31 151.942L153.31 154.672L161.578 154.672L161.578 151.942L153.31 151.942ZM156.729 156.986L156.729 157.675L151.581 157.675L151.581 158.728L156.729 158.728L156.729 159.937C156.729 160.132 156.651 160.184 156.417 160.197C156.183 160.197 155.234 160.21 154.415 160.171C154.584 160.47 154.766 160.873 154.844 161.185C155.988 161.185 156.794 161.198 157.314 161.055C157.847 160.899 158.029 160.626 158.029 159.989L158.029 158.728L163.255 158.728L163.255 157.675L158.029 157.675L158.029 157.506C159.459 157.129 160.889 156.583 161.981 155.985L161.188 155.296L160.915 155.348L152.816 155.348L152.816 156.323L158.965 156.323C158.263 156.583 157.457 156.817 156.729 156.986ZM156.404 149.238C156.534 149.524 156.664 149.862 156.768 150.174L151.724 150.174L151.724 151.214L163.06 151.214L163.06 150.174L158.159 150.174C158.029 149.797 157.847 149.355 157.652 149.004L156.404 149.238ZM174.578 149.043C172.277 149.524 168.299 149.849 164.906 149.979C165.023 150.252 165.166 150.72 165.192 151.032C168.611 150.915 172.667 150.59 175.423 150.044L174.578 149.043ZM173.772 150.746C173.525 151.37 173.122 152.228 172.732 152.852L170.119 152.852L171.224 152.579C171.146 152.085 170.86 151.331 170.574 150.772L169.469 151.006C169.742 151.591 169.989 152.358 170.067 152.852L167.194 152.852L167.935 152.618C167.792 152.176 167.441 151.5 167.09 150.98L166.024 151.292C166.323 151.773 166.635 152.41 166.778 152.852L164.789 152.852L164.789 155.582L165.946 155.582L165.946 153.931L174.838 153.931L174.838 155.582L176.034 155.582L176.034 152.852L173.98 152.852C174.331 152.319 174.734 151.669 175.059 151.071L173.772 150.746ZM172.602 156.336C172.056 157.116 171.315 157.74 170.431 158.26C169.495 157.727 168.715 157.09 168.13 156.336L172.602 156.336ZM166.505 155.192L166.505 156.336L167.064 156.336L166.817 156.44C167.454 157.389 168.26 158.195 169.209 158.858C167.831 159.43 166.219 159.794 164.503 160.002C164.763 160.262 165.101 160.795 165.218 161.094C167.09 160.808 168.871 160.327 170.405 159.573C171.861 160.327 173.59 160.821 175.527 161.081C175.696 160.743 176.021 160.21 176.281 159.937C174.565 159.755 173.005 159.391 171.666 158.845C172.849 158.039 173.811 156.999 174.448 155.647L173.616 155.14L173.395 155.192L166.505 155.192ZM178.348 149.953L178.348 151.162L182.547 151.162C182.521 152.007 182.482 152.878 182.365 153.736L177.542 153.736L177.542 154.945L182.131 154.945C181.598 157.077 180.35 159.027 177.36 160.145C177.672 160.405 178.023 160.847 178.192 161.172C181.533 159.82 182.846 157.467 183.405 154.945L183.509 154.945L183.509 159.105C183.509 160.457 183.899 160.86 185.381 160.86C185.68 160.86 187.279 160.86 187.591 160.86C188.917 160.86 189.294 160.301 189.437 158.156C189.086 158.065 188.527 157.857 188.254 157.636C188.189 159.365 188.098 159.651 187.5 159.651C187.136 159.651 185.81 159.651 185.524 159.651C184.9 159.651 184.796 159.573 184.796 159.092L184.796 154.945L189.32 154.945L189.32 153.736L183.613 153.736C183.73 152.878 183.769 152.007 183.808 151.162L188.592 151.162L188.592 149.953L178.348 149.953ZM191.01 149.628L191.01 161.146L192.089 161.146L192.089 150.733L193.714 150.733C193.467 151.591 193.142 152.696 192.817 153.567C193.662 154.555 193.857 155.426 193.857 156.102C193.857 156.492 193.792 156.83 193.61 156.96C193.506 157.025 193.376 157.064 193.233 157.064C193.051 157.09 192.817 157.077 192.557 157.051C192.739 157.363 192.843 157.831 192.843 158.117C193.142 158.13 193.454 158.13 193.701 158.104C193.974 158.065 194.221 157.974 194.403 157.844C194.793 157.558 194.962 156.999 194.962 156.232C194.962 155.439 194.754 154.503 193.883 153.437C194.299 152.423 194.741 151.123 195.105 150.044L194.299 149.589L194.117 149.628L191.01 149.628ZM200.266 153.06L200.266 154.425L196.847 154.425L196.847 153.06L200.266 153.06ZM200.266 152.046L196.847 152.046L196.847 150.733L200.266 150.733L200.266 152.046ZM195.638 161.185C195.911 161.003 196.366 160.847 198.992 160.145C198.953 159.885 198.927 159.378 198.94 159.04L196.847 159.521L196.847 155.491L197.9 155.491C198.537 158.078 199.681 160.08 201.683 161.094C201.865 160.769 202.242 160.275 202.515 160.041C201.54 159.625 200.76 158.962 200.162 158.104C200.812 157.701 201.592 157.155 202.229 156.648L201.423 155.79C200.968 156.232 200.253 156.791 199.629 157.22C199.356 156.687 199.135 156.102 198.953 155.491L201.449 155.491L201.449 149.654L195.638 149.654L195.638 159.183C195.638 159.755 195.339 160.067 195.105 160.197C195.287 160.431 195.547 160.912 195.638 161.185ZM203.555 150.876C204.439 151.396 205.57 152.189 206.103 152.735L206.883 151.721C206.324 151.188 205.18 150.46 204.296 149.992L203.555 150.876ZM203.373 159.079L204.517 159.924C205.323 158.702 206.246 157.233 206.987 155.868L206.025 155.062C205.193 156.518 204.114 158.117 203.373 159.079ZM208.703 149.108C208.313 151.201 207.559 153.255 206.519 154.503C206.844 154.659 207.455 154.997 207.715 155.192C208.235 154.464 208.716 153.528 209.119 152.462L213.591 152.462C213.344 153.32 213.006 154.217 212.72 154.815C213.019 154.945 213.513 155.192 213.773 155.335C214.228 154.399 214.8 152.995 215.138 151.682L214.228 151.162L213.994 151.24L209.535 151.24C209.73 150.629 209.886 149.992 210.029 149.342L208.703 149.108ZM210.185 152.982L210.185 153.801C210.185 155.595 209.873 158.416 206.038 160.275C206.35 160.509 206.792 160.951 206.987 161.25C209.327 160.067 210.471 158.507 211.017 157.012C211.745 158.91 212.863 160.314 214.657 161.081C214.839 160.756 215.216 160.236 215.489 159.989C213.253 159.183 212.07 157.246 211.485 154.75C211.498 154.425 211.511 154.113 211.511 153.827L211.511 152.982L210.185 152.982ZM217.959 160.912C218.531 160.691 219.324 160.652 226.019 160.119C226.305 160.496 226.539 160.86 226.708 161.159L227.813 160.496C227.228 159.508 226.019 158.13 224.862 157.103L223.809 157.649C224.264 158.065 224.732 158.559 225.161 159.053L219.818 159.417C220.676 158.637 221.508 157.727 222.223 156.804L227.839 156.804L227.839 155.595L217.049 155.595L217.049 156.804L220.52 156.804C219.74 157.831 218.882 158.702 218.544 158.988C218.141 159.365 217.842 159.599 217.543 159.651C217.686 160.002 217.881 160.639 217.959 160.912ZM222.418 149.082C221.209 150.785 218.882 152.41 216.373 153.424C216.659 153.671 217.075 154.204 217.257 154.516C217.985 154.191 218.687 153.814 219.35 153.398L219.35 154.23L225.512 154.23L225.512 153.294C226.201 153.71 226.916 154.087 227.631 154.373C227.826 154.035 228.229 153.541 228.502 153.294C226.474 152.618 224.368 151.305 223.133 150.148L223.562 149.589L222.418 149.082ZM219.844 153.086C220.806 152.449 221.677 151.734 222.431 150.941C223.159 151.656 224.121 152.41 225.174 153.086L219.844 153.086ZM235.86 149.719C236.354 150.616 236.861 151.812 237.043 152.54L238.161 152.059C237.979 151.318 237.433 150.174 236.913 149.29L235.86 149.719ZM230.244 150.057C230.816 150.707 231.492 151.591 231.804 152.176L232.753 151.422C232.428 150.876 231.713 150.018 231.128 149.407L230.244 150.057ZM239.565 149.953C239.162 152.527 238.538 154.88 237.238 156.804C235.99 155.023 235.249 152.735 234.794 150.083L233.65 150.265C234.209 153.333 235.028 155.894 236.419 157.844C235.535 158.832 234.404 159.651 232.961 160.275C233.182 160.535 233.52 161.003 233.676 161.289C235.119 160.626 236.276 159.794 237.199 158.806C238.148 159.833 239.318 160.639 240.774 161.224C240.969 160.899 241.359 160.392 241.645 160.145C240.176 159.625 238.993 158.819 238.031 157.792C239.565 155.686 240.319 153.06 240.813 150.148L239.565 149.953ZM229.464 153.151L229.464 154.334L231.18 154.334L231.18 158.611C231.18 159.313 230.816 159.807 230.556 160.028C230.764 160.197 231.128 160.626 231.258 160.886C231.466 160.6 231.856 160.301 234.222 158.598C234.105 158.351 233.923 157.87 233.845 157.545L232.363 158.572L232.363 153.151L229.464 153.151ZM252.773 151.448C252.383 153.515 251.694 155.27 250.758 156.674C249.913 155.27 249.393 153.593 249.003 151.448L252.773 151.448ZM253.124 150.252L252.929 150.265L247.469 150.265L247.469 151.448L247.976 151.448L247.846 151.474C248.301 154.087 248.912 156.076 249.965 157.714C249.029 158.806 247.911 159.612 246.676 160.132C246.949 160.366 247.274 160.847 247.443 161.146C248.665 160.561 249.77 159.768 250.706 158.728C251.473 159.651 252.435 160.47 253.631 161.237C253.8 160.873 254.177 160.444 254.515 160.21C253.254 159.469 252.279 158.676 251.512 157.727C252.799 155.92 253.696 153.528 254.112 150.447L253.332 150.213L253.124 150.252ZM244.544 149.108L244.544 151.773L242.464 151.773L242.464 152.93L244.271 152.93C243.829 154.646 242.984 156.609 242.1 157.662C242.321 157.987 242.646 158.546 242.789 158.923C243.452 158.052 244.076 156.674 244.544 155.218L244.544 161.159L245.74 161.159L245.74 154.88C246.273 155.556 246.923 156.427 247.209 156.908L247.937 155.777C247.625 155.439 246.182 153.892 245.74 153.502L245.74 152.93L247.391 152.93L247.391 151.773L245.74 151.773L245.74 149.108L244.544 149.108ZM262.523 153.957C263.823 154.451 265.604 155.244 266.501 155.751L267.164 154.763C266.228 154.269 264.421 153.541 263.147 153.099L262.523 153.957ZM259.377 153.073C258.545 153.736 256.868 154.581 255.685 154.971C255.945 155.231 256.244 155.673 256.413 155.959C257.609 155.413 259.286 154.451 260.235 153.684L259.377 153.073ZM257.089 155.725L257.089 159.677L255.477 159.677L255.477 160.769L267.346 160.769L267.346 159.677L265.799 159.677L265.799 155.725L257.089 155.725ZM258.194 159.677L258.194 156.778L259.572 156.778L259.572 159.677L258.194 159.677ZM260.703 159.677L260.703 156.778L262.094 156.778L262.094 159.677L260.703 159.677ZM263.225 159.677L263.225 156.778L264.642 156.778L264.642 159.677L263.225 159.677ZM264.005 149.108C263.719 149.797 263.16 150.746 262.718 151.357L263.446 151.617L259.403 151.617L260.118 151.253C259.858 150.655 259.286 149.784 258.74 149.121L257.687 149.576C258.155 150.2 258.662 151.019 258.935 151.617L255.685 151.617L255.685 152.709L267.112 152.709L267.112 151.617L263.823 151.617C264.265 151.045 264.798 150.226 265.253 149.485L264.005 149.108Z"></path></g><g ><path     fill="#7BA8C9"  d="M45.98 191.173L45.98 193.903L40.845 193.903L40.845 194.891L44.771 194.891C43.822 197.101 42.21 199.207 40.481 200.26C40.715 200.455 41.04 200.806 41.196 201.053C43.081 199.766 44.758 197.439 45.772 194.891L45.98 194.891L45.98 199.701L42.938 199.701L42.938 200.689L45.98 200.689L45.98 203.12L47.007 203.12L47.007 200.689L50.036 200.689L50.036 199.701L47.007 199.701L47.007 194.891L47.189 194.891C48.177 197.439 49.854 199.779 51.778 201.027C51.96 200.754 52.298 200.377 52.545 200.182C50.738 199.142 49.1 197.088 48.164 194.891L52.181 194.891L52.181 193.903L47.007 193.903L47.007 191.173L45.98 191.173ZM55.691 191.849L55.691 195.853C55.691 197.946 55.483 200.585 53.377 202.431C53.598 202.561 53.975 202.925 54.118 203.133C55.392 202.015 56.042 200.546 56.367 199.064L62.646 199.064L62.646 201.664C62.646 201.95 62.555 202.041 62.243 202.054C61.944 202.067 60.891 202.08 59.812 202.041C59.981 202.314 60.163 202.769 60.228 203.068C61.619 203.068 62.49 203.055 62.997 202.873C63.478 202.704 63.673 202.379 63.673 201.677L63.673 191.849L55.691 191.849ZM56.679 192.798L62.646 192.798L62.646 194.982L56.679 194.982L56.679 192.798ZM56.679 195.905L62.646 195.905L62.646 198.115L56.536 198.115C56.64 197.348 56.679 196.594 56.679 195.905ZM73.787 191.212L73.787 192.603L70.173 192.603L70.173 193.5L73.787 193.5L73.787 194.774L70.55 194.774L70.55 198.375L73.722 198.375C73.631 199.09 73.436 199.766 73.02 200.377C72.331 199.896 71.772 199.311 71.369 198.635L70.55 198.908C71.031 199.74 71.668 200.442 72.435 201.027C71.837 201.573 70.953 202.028 69.692 202.353C69.9 202.561 70.173 202.938 70.29 203.159C71.642 202.756 72.578 202.21 73.241 201.573C74.554 202.366 76.192 202.886 78.051 203.146C78.181 202.86 78.428 202.483 78.636 202.262C76.764 202.054 75.126 201.599 73.813 200.884C74.333 200.117 74.567 199.272 74.671 198.375L78.077 198.375L78.077 194.774L74.736 194.774L74.736 193.5L78.506 193.5L78.506 192.603L74.736 192.603L74.736 191.212L73.787 191.212ZM71.46 195.593L73.787 195.593L73.787 196.958L73.774 197.543L71.46 197.543L71.46 195.593ZM74.736 195.593L77.141 195.593L77.141 197.543L74.723 197.543L74.736 196.958L74.736 195.593ZM69.614 191.134C68.847 193.11 67.586 195.034 66.273 196.282C66.442 196.516 66.715 197.023 66.819 197.244C67.313 196.75 67.794 196.178 68.249 195.541L68.249 203.172L69.185 203.172L69.185 194.124C69.692 193.253 70.16 192.343 70.524 191.42L69.614 191.134ZM80.989 192.07L80.989 196.789C80.989 198.622 80.859 200.923 79.416 202.548C79.637 202.665 80.027 202.99 80.17 203.185C81.171 202.08 81.613 200.585 81.808 199.129L85.071 199.129L85.071 203.003L86.059 203.003L86.059 199.129L89.569 199.129L89.569 201.794C89.569 202.028 89.478 202.106 89.218 202.119C88.971 202.132 88.087 202.145 87.177 202.106C87.307 202.366 87.463 202.795 87.515 203.042C88.737 203.055 89.491 203.042 89.933 202.886C90.375 202.73 90.531 202.431 90.531 201.794L90.531 192.07L80.989 192.07ZM81.951 193.006L85.071 193.006L85.071 195.099L81.951 195.099L81.951 193.006ZM89.569 193.006L89.569 195.099L86.059 195.099L86.059 193.006L89.569 193.006ZM81.951 196.022L85.071 196.022L85.071 198.206L81.899 198.206C81.938 197.712 81.951 197.231 81.951 196.789L81.951 196.022ZM89.569 196.022L89.569 198.206L86.059 198.206L86.059 196.022L89.569 196.022ZM93.976 191.16L93.976 203.107L94.86 203.107L94.86 191.16L93.976 191.16ZM92.949 193.669C92.871 194.683 92.663 196.126 92.351 197.01L93.118 197.27C93.417 196.295 93.625 194.787 93.677 193.76L92.949 193.669ZM94.977 193.318C95.25 193.929 95.549 194.748 95.666 195.242L96.355 194.904C96.225 194.436 95.913 193.656 95.627 193.058L94.977 193.318ZM97.798 199.35L102.504 199.35L102.504 200.338L97.798 200.338L97.798 199.35ZM97.798 198.609L97.798 197.634L102.504 197.634L102.504 198.609L97.798 198.609ZM99.67 191.16L99.67 192.174L96.342 192.174L96.342 192.928L99.67 192.928L99.67 193.76L96.654 193.76L96.654 194.475L99.67 194.475L99.67 195.372L95.952 195.372L95.952 196.126L104.454 196.126L104.454 195.372L100.632 195.372L100.632 194.475L103.739 194.475L103.739 193.76L100.632 193.76L100.632 192.928L104.064 192.928L104.064 192.174L100.632 192.174L100.632 191.16L99.67 191.16ZM96.888 196.88L96.888 203.107L97.798 203.107L97.798 201.079L102.504 201.079L102.504 202.015C102.504 202.171 102.439 202.223 102.27 202.236C102.088 202.249 101.464 202.249 100.801 202.223C100.918 202.457 101.048 202.821 101.087 203.068C102.01 203.068 102.595 203.068 102.959 202.912C103.323 202.769 103.427 202.509 103.427 202.028L103.427 196.88L96.888 196.88ZM105.923 192.538C106.742 193.188 107.691 194.15 108.12 194.8L108.848 194.072C108.393 193.435 107.418 192.525 106.599 191.901L105.923 192.538ZM105.52 200.923L106.3 201.612C107.093 200.403 108.055 198.739 108.77 197.348L108.107 196.685C107.314 198.167 106.248 199.909 105.52 200.923ZM110.707 192.707L115.673 192.707L115.673 196.23L110.707 196.23L110.707 192.707ZM109.771 191.771L109.771 197.166L111.266 197.166C111.123 199.779 110.694 201.456 108.159 202.353C108.38 202.535 108.653 202.886 108.77 203.12C111.526 202.067 112.072 200.13 112.254 197.166L113.788 197.166L113.788 201.599C113.788 202.626 114.035 202.925 115.023 202.925C115.218 202.925 116.141 202.925 116.362 202.925C117.259 202.925 117.493 202.405 117.584 200.416C117.324 200.338 116.921 200.195 116.713 200.026C116.674 201.755 116.622 202.041 116.258 202.041C116.063 202.041 115.296 202.041 115.153 202.041C114.802 202.041 114.724 201.976 114.724 201.586L114.724 197.166L116.661 197.166L116.661 191.771L109.771 191.771Z"></path></g><g opacity="0.9"><rect  x="40" y="215" width="145" height="90" rx="14"    fill="#FFFFFF" ></rect></g><g ><path     fill="#7BA8C9"  d="M89.884 247.616C90.34 247.448 91.012 247.4 97.372 246.86C97.648 247.22 97.888 247.568 98.056 247.868L98.86 247.376C98.332 246.476 97.192 245.18 96.112 244.22L95.356 244.628C95.824 245.06 96.304 245.564 96.736 246.068L91.276 246.488C92.128 245.696 92.98 244.736 93.724 243.752L99.016 243.752L99.016 242.876L89.068 242.876L89.068 243.752L92.5 243.752C91.72 244.82 90.808 245.768 90.484 246.056C90.112 246.404 89.836 246.632 89.572 246.692C89.68 246.932 89.836 247.412 89.884 247.616ZM94.048 236.84C92.968 238.448 90.856 239.972 88.504 240.968C88.72 241.136 89.032 241.52 89.164 241.748C89.86 241.424 90.532 241.064 91.168 240.668L91.168 241.4L96.892 241.4L96.892 240.56L91.324 240.56C92.356 239.888 93.28 239.132 94.036 238.304C94.756 239.048 95.764 239.864 96.892 240.56C97.54 240.968 98.236 241.328 98.92 241.604C99.064 241.364 99.364 240.992 99.556 240.812C97.612 240.14 95.656 238.832 94.552 237.692L94.912 237.212L94.048 236.84ZM106.504 237.404C106.984 238.208 107.488 239.276 107.68 239.936L108.496 239.564C108.304 238.904 107.764 237.872 107.26 237.08L106.504 237.404ZM101.356 237.668C101.896 238.232 102.544 239.024 102.856 239.528L103.54 238.964C103.228 238.472 102.556 237.728 102.004 237.176L101.356 237.668ZM109.984 237.584C109.588 240.08 108.964 242.324 107.68 244.124C106.468 242.444 105.736 240.272 105.304 237.728L104.452 237.872C104.968 240.716 105.748 243.08 107.068 244.88C106.228 245.828 105.136 246.62 103.732 247.22C103.9 247.412 104.152 247.748 104.272 247.964C105.664 247.34 106.768 246.524 107.644 245.576C108.544 246.584 109.672 247.364 111.064 247.916C111.208 247.676 111.496 247.316 111.712 247.136C110.296 246.632 109.168 245.852 108.256 244.844C109.708 242.9 110.428 240.464 110.908 237.728L109.984 237.584ZM100.552 240.596L100.552 241.472L102.244 241.472L102.244 245.708C102.244 246.332 101.92 246.74 101.728 246.932C101.884 247.064 102.148 247.376 102.244 247.568C102.436 247.328 102.748 247.088 104.86 245.588C104.764 245.408 104.632 245.06 104.56 244.82L103.12 245.816L103.12 240.596L100.552 240.596ZM112.684 238.316C113.5 238.772 114.52 239.492 115 239.984L115.576 239.252C115.072 238.76 114.04 238.1 113.224 237.668L112.684 238.316ZM112.504 246.044L113.332 246.668C114.076 245.588 114.988 244.196 115.696 242.972L115 242.372C114.22 243.68 113.2 245.168 112.504 246.044ZM117.448 236.84C117.064 238.76 116.392 240.632 115.468 241.808C115.708 241.916 116.152 242.168 116.332 242.312C116.812 241.628 117.244 240.752 117.616 239.768L122.044 239.768C121.816 240.596 121.444 241.508 121.156 242.084C121.372 242.18 121.732 242.36 121.924 242.468C122.344 241.64 122.872 240.368 123.184 239.192L122.524 238.832L122.344 238.88L117.916 238.88C118.108 238.28 118.276 237.656 118.408 237.02L117.448 236.84ZM118.828 240.356L118.828 241.1C118.828 242.816 118.564 245.432 114.88 247.232C115.108 247.388 115.42 247.712 115.564 247.928C117.928 246.74 118.972 245.204 119.44 243.74C120.112 245.66 121.192 247.064 122.932 247.796C123.052 247.556 123.328 247.184 123.532 247.004C121.444 246.248 120.304 244.4 119.764 241.988C119.776 241.676 119.788 241.388 119.788 241.112L119.788 240.356L118.828 240.356ZM129.316 237.068C129.1 237.536 128.716 238.244 128.416 238.664L129.004 238.952C129.316 238.556 129.724 237.956 130.072 237.404L129.316 237.068ZM125.056 237.404C125.368 237.908 125.692 238.568 125.8 238.988L126.484 238.688C126.376 238.256 126.052 237.608 125.716 237.14L125.056 237.404ZM128.92 243.8C128.644 244.424 128.26 244.952 127.804 245.408C127.348 245.18 126.88 244.952 126.436 244.76C126.604 244.472 126.796 244.148 126.964 243.8L128.92 243.8ZM125.32 245.084C125.908 245.312 126.568 245.612 127.168 245.924C126.4 246.476 125.476 246.86 124.492 247.088C124.648 247.256 124.84 247.568 124.924 247.784C126.028 247.484 127.048 247.016 127.912 246.32C128.308 246.56 128.668 246.788 128.944 246.992L129.52 246.404C129.244 246.212 128.896 245.996 128.5 245.78C129.136 245.096 129.64 244.256 129.94 243.212L129.448 243.008L129.304 243.044L127.336 243.044L127.6 242.42L126.796 242.276C126.712 242.516 126.592 242.78 126.472 243.044L124.84 243.044L124.84 243.8L126.1 243.8C125.848 244.28 125.572 244.724 125.32 245.084ZM127.084 236.828L127.084 239.072L124.6 239.072L124.6 239.816L126.808 239.816C126.232 240.596 125.308 241.34 124.468 241.7C124.648 241.868 124.852 242.18 124.96 242.384C125.692 241.988 126.484 241.316 127.084 240.608L127.084 242.072L127.924 242.072L127.924 240.44C128.5 240.86 129.232 241.424 129.532 241.7L130.036 241.052C129.748 240.848 128.692 240.176 128.104 239.816L130.372 239.816L130.372 239.072L127.924 239.072L127.924 236.828L127.084 236.828ZM131.548 236.936C131.248 239.048 130.708 241.064 129.772 242.324C129.964 242.444 130.312 242.732 130.456 242.876C130.768 242.432 131.032 241.904 131.272 241.316C131.536 242.492 131.884 243.584 132.328 244.532C131.656 245.672 130.72 246.548 129.412 247.184C129.58 247.364 129.832 247.724 129.916 247.916C131.14 247.256 132.064 246.428 132.772 245.372C133.372 246.392 134.116 247.208 135.052 247.772C135.196 247.544 135.46 247.232 135.664 247.064C134.656 246.524 133.864 245.648 133.252 244.544C133.888 243.308 134.296 241.808 134.56 240.008L135.376 240.008L135.376 239.168L131.956 239.168C132.124 238.496 132.268 237.788 132.376 237.068L131.548 236.936ZM133.708 240.008C133.516 241.388 133.228 242.588 132.796 243.608C132.34 242.528 132.004 241.304 131.776 240.008L133.708 240.008Z"></path></g><g ><path     fill="#2C5F8A"  d="M112 284.176C115.576 284.176 117.976 282.112 117.976 279.424C117.976 277 116.632 275.56 114.976 274.672L114.976 274.552C116.128 273.712 117.256 272.248 117.256 270.496C117.256 267.664 115.24 265.768 112.096 265.768C109 265.768 106.744 267.592 106.744 270.472C106.744 272.344 107.728 273.688 109.096 274.672L109.096 274.792C107.44 275.656 106.048 277.144 106.048 279.424C106.048 282.208 108.568 284.176 112 284.176ZM113.104 273.688C111.256 272.944 109.864 272.128 109.864 270.472C109.864 269.032 110.824 268.24 112.024 268.24C113.512 268.24 114.376 269.272 114.376 270.712C114.376 271.768 113.968 272.8 113.104 273.688ZM112.072 281.68C110.416 281.68 109.096 280.648 109.096 279.04C109.096 277.696 109.768 276.52 110.728 275.728C113.032 276.712 114.688 277.456 114.688 279.304C114.688 280.84 113.584 281.68 112.072 281.68Z"></path></g><g ><path     fill="#5B9BD5"  d="M136.103 283.729L136.84 283.729L140.129 273.026L139.403 273.026L136.103 283.729ZM151.389 275.435C150.124 275.435 149.211 276.161 148.518 277.03C147.825 276.161 146.912 275.435 145.636 275.435C144.569 275.435 143.392 276.172 143.392 277.624C143.392 279.087 144.569 279.824 145.636 279.824C146.912 279.824 147.825 279.098 148.518 278.229C149.211 279.098 150.124 279.824 151.389 279.824C152.456 279.824 153.633 279.087 153.633 277.624C153.633 276.172 152.456 275.435 151.389 275.435ZM145.625 279.065C144.855 279.065 144.151 278.548 144.151 277.624C144.151 276.711 144.855 276.194 145.625 276.194C146.626 276.194 147.407 276.788 148.034 277.624C147.407 278.471 146.626 279.065 145.625 279.065ZM151.411 279.065C150.399 279.065 149.629 278.471 149.002 277.624C149.629 276.788 150.399 276.194 151.411 276.194C152.17 276.194 152.874 276.711 152.874 277.624C152.874 278.548 152.17 279.065 151.411 279.065Z"></path></g><g opacity="0.9"><rect  x="205" y="215" width="145" height="90" rx="14"    fill="#FFFFFF" ></rect></g><g ><path     fill="#7BA8C9"  d="M260.356 242.732L260.356 243.728L257.02 243.728L257.02 244.568L260.356 244.568L260.356 246.8C260.356 246.968 260.32 247.016 260.104 247.028C259.888 247.04 259.168 247.04 258.376 247.016C258.496 247.268 258.616 247.616 258.652 247.868C259.684 247.868 260.356 247.868 260.764 247.736C261.16 247.592 261.268 247.34 261.268 246.812L261.268 244.568L264.484 244.568L264.484 243.728L261.268 243.728L261.268 243.032C262.144 242.48 263.08 241.736 263.728 241.016L263.152 240.572L262.972 240.62L258.04 240.62L258.04 241.448L262.132 241.448C261.616 241.928 260.956 242.42 260.356 242.732ZM257.62 236.84C257.476 237.356 257.308 237.884 257.104 238.412L253.756 238.412L253.756 239.276L256.732 239.276C255.952 240.932 254.836 242.48 253.372 243.512C253.516 243.716 253.732 244.1 253.828 244.328C254.344 243.956 254.824 243.536 255.256 243.08L255.256 247.856L256.168 247.856L256.168 241.988C256.792 241.148 257.296 240.236 257.728 239.276L264.268 239.276L264.268 238.412L258.088 238.412C258.256 237.968 258.412 237.512 258.544 237.068L257.62 236.84ZM268.48 237.932C268.996 238.448 269.572 239.18 269.824 239.66L270.484 239.18C270.22 238.7 269.62 238.004 269.092 237.512L268.48 237.932ZM270.664 240.488L270.664 241.304L272.944 241.304C272.152 242.132 271.264 242.828 270.304 243.38C270.484 243.536 270.784 243.896 270.892 244.064C271.192 243.872 271.492 243.668 271.78 243.452L271.78 247.832L272.56 247.832L272.56 247.22L275.164 247.22L275.164 247.796L275.98 247.796L275.98 242.588L272.812 242.588C273.244 242.192 273.652 241.76 274.036 241.304L276.508 241.304L276.508 240.488L274.684 240.488C275.356 239.576 275.932 238.556 276.4 237.464L275.596 237.236C275.368 237.788 275.104 238.316 274.804 238.832L274.804 238.196L273.412 238.196L273.412 236.84L272.584 236.84L272.584 238.196L271.012 238.196L271.012 238.976L272.584 238.976L272.584 240.488L270.664 240.488ZM273.412 238.976L274.72 238.976C274.396 239.504 274.048 240.008 273.664 240.488L273.412 240.488L273.412 238.976ZM272.56 245.228L275.164 245.228L275.164 246.476L272.56 246.476L272.56 245.228ZM272.56 244.544L272.56 243.332L275.164 243.332L275.164 244.544L272.56 244.544ZM269.152 247.448C269.32 247.232 269.62 247.04 271.312 245.984C271.252 245.816 271.144 245.492 271.096 245.264L269.932 245.936L269.932 240.668L267.964 240.668L267.964 241.532L269.152 241.532L269.152 245.78C269.152 246.284 268.888 246.584 268.708 246.704C268.864 246.872 269.08 247.244 269.152 247.448ZM267.592 236.816C267.076 238.664 266.248 240.5 265.3 241.724C265.432 241.928 265.672 242.372 265.744 242.564C266.068 242.144 266.38 241.664 266.668 241.136L266.668 247.844L267.46 247.844L267.46 239.528C267.808 238.724 268.108 237.872 268.36 237.032L267.592 236.816ZM283.768 240.476C284.992 241.112 286.624 242.06 287.428 242.636L288.028 241.94C287.176 241.376 285.52 240.476 284.332 239.876L283.768 240.476ZM281.608 239.84C280.684 240.644 279.436 241.46 278.02 241.964L278.548 242.744C279.952 242.144 281.272 241.232 282.232 240.392L281.608 239.84ZM277.924 246.656L277.924 247.472L288.124 247.472L288.124 246.656L283.456 246.656L283.456 243.62L286.9 243.62L286.9 242.804L279.184 242.804L279.184 243.62L282.508 243.62L282.508 246.656L277.924 246.656ZM282.088 237.032C282.28 237.416 282.508 237.896 282.676 238.304L277.912 238.304L277.912 241.016L278.8 241.016L278.8 239.132L287.188 239.132L287.188 240.716L288.112 240.716L288.112 238.304L283.78 238.304C283.6 237.86 283.288 237.236 283.024 236.768L282.088 237.032ZM290.092 239.54L290.092 247.88L291.016 247.88L291.016 239.54L290.092 239.54ZM290.272 237.428C290.824 237.956 291.448 238.712 291.724 239.192L292.468 238.712C292.18 238.208 291.532 237.5 290.968 236.996L290.272 237.428ZM293.548 243.38L296.428 243.38L296.428 245L293.548 245L293.548 243.38ZM293.548 241.028L296.428 241.028L296.428 242.624L293.548 242.624L293.548 241.028ZM292.732 240.272L292.732 245.744L297.28 245.744L297.28 240.272L292.732 240.272ZM293.224 237.512L293.224 238.364L299.032 238.364L299.032 246.788C299.032 246.944 298.984 246.992 298.828 247.004C298.672 247.004 298.18 247.016 297.676 246.992C297.796 247.22 297.916 247.604 297.964 247.82C298.696 247.82 299.212 247.82 299.536 247.676C299.848 247.52 299.956 247.292 299.956 246.788L299.956 237.512L293.224 237.512Z"></path></g><g ><path     fill="#2C5F8A"  d="M259.972 283.84L271.876 283.84L271.876 280.864L268.036 280.864C267.196 280.864 266.02 280.96 265.108 281.08C268.348 277.888 271.036 274.432 271.036 271.216C271.036 267.904 268.804 265.744 265.444 265.744C263.02 265.744 261.436 266.68 259.78 268.456L261.748 270.352C262.636 269.368 263.692 268.528 264.988 268.528C266.692 268.528 267.652 269.632 267.652 271.384C267.652 274.144 264.82 277.48 259.972 281.8L259.972 283.84ZM277.012 284.176C278.26 284.176 279.196 283.168 279.196 281.872C279.196 280.552 278.26 279.568 277.012 279.568C275.74 279.568 274.804 280.552 274.804 281.872C274.804 283.168 275.74 284.176 277.012 284.176ZM288.988 283.84L292.276 283.84L292.276 279.232L294.388 279.232L294.388 276.544L292.276 276.544L292.276 266.056L288.028 266.056L281.404 276.832L281.404 279.232L288.988 279.232L288.988 283.84ZM288.988 276.544L284.836 276.544L287.596 272.128C288.1 271.168 288.58 270.184 289.012 269.224L289.132 269.224C289.06 270.28 288.988 271.888 288.988 272.92L288.988 276.544Z"></path></g><g ><path     fill="#7BA8C9"  d="M288.095 283.729L288.832 283.729L292.121 273.026L291.395 273.026L288.095 283.729ZM295.493 281.76L300.565 281.76L300.565 280.891L298.332 280.891C297.924 280.891 297.43 280.935 297.012 280.968C298.904 279.175 300.18 277.536 300.18 275.919C300.18 274.489 299.267 273.554 297.826 273.554C296.803 273.554 296.099 274.016 295.45 274.731L296.033 275.303C296.484 274.764 297.044 274.368 297.704 274.368C298.706 274.368 299.19 275.039 299.19 275.963C299.19 277.349 298.023 278.955 295.493 281.166L295.493 281.76ZM304.173 281.903C305.702 281.903 306.681 280.517 306.681 277.701C306.681 274.907 305.702 273.554 304.173 273.554C302.633 273.554 301.665 274.907 301.665 277.701C301.665 280.517 302.633 281.903 304.173 281.903ZM304.173 281.089C303.26 281.089 302.633 280.066 302.633 277.701C302.633 275.347 303.26 274.346 304.173 274.346C305.086 274.346 305.713 275.347 305.713 277.701C305.713 280.066 305.086 281.089 304.173 281.089ZM311.499 281.903C312.577 281.903 313.467 281.507 313.984 280.968L313.984 277.58L311.333 277.58L311.333 278.427L313.049 278.427L313.049 280.539C312.73 280.836 312.169 281.012 311.598 281.012C309.871 281.012 308.902 279.736 308.902 277.701C308.902 275.688 309.958 274.445 311.587 274.445C312.389 274.445 312.918 274.786 313.325 275.204L313.875 274.544C313.413 274.06 312.676 273.554 311.553 273.554C309.419 273.554 307.858 275.127 307.858 277.734C307.858 280.352 309.376 281.903 311.499 281.903ZM315.91 281.76L318.473 281.76C320.277 281.76 321.531 280.979 321.531 279.395C321.531 278.295 320.849 277.657 319.892 277.47L319.892 277.415C320.651 277.173 321.069 276.469 321.069 275.666C321.069 274.247 319.924 273.697 318.297 273.697L315.91 273.697L315.91 281.76ZM316.922 277.118L316.922 274.5L318.165 274.5C319.43 274.5 320.068 274.852 320.068 275.798C320.068 276.623 319.507 277.118 318.121 277.118L316.922 277.118ZM316.922 280.946L316.922 277.91L318.329 277.91C319.749 277.91 320.53 278.361 320.53 279.362C320.53 280.451 319.716 280.946 318.329 280.946L316.922 280.946Z"></path></g><g opacity="0.9"><rect  x="40" y="320" width="310" height="50" rx="12"    fill="#FFFFFF" ></rect></g><g ><path     fill="#4A6A85"  d="M66.44 335.494L66.44 338.434L60.91 338.434L60.91 339.498L65.138 339.498C64.116 341.878 62.38 344.146 60.518 345.28C60.77 345.49 61.12 345.868 61.288 346.134C63.318 344.748 65.124 342.242 66.216 339.498L66.44 339.498L66.44 344.678L63.164 344.678L63.164 345.742L66.44 345.742L66.44 348.36L67.546 348.36L67.546 345.742L70.808 345.742L70.808 344.678L67.546 344.678L67.546 339.498L67.742 339.498C68.806 342.242 70.612 344.762 72.684 346.106C72.88 345.812 73.244 345.406 73.51 345.196C71.564 344.076 69.8 341.864 68.792 339.498L73.118 339.498L73.118 338.434L67.546 338.434L67.546 335.494L66.44 335.494ZM76.898 336.222L76.898 340.534C76.898 342.788 76.674 345.63 74.406 347.618C74.644 347.758 75.05 348.15 75.204 348.374C76.576 347.17 77.276 345.588 77.626 343.992L84.388 343.992L84.388 346.792C84.388 347.1 84.29 347.198 83.954 347.212C83.632 347.226 82.498 347.24 81.336 347.198C81.518 347.492 81.714 347.982 81.784 348.304C83.282 348.304 84.22 348.29 84.766 348.094C85.284 347.912 85.494 347.562 85.494 346.806L85.494 336.222L76.898 336.222ZM77.962 337.244L84.388 337.244L84.388 339.596L77.962 339.596L77.962 337.244ZM77.962 340.59L84.388 340.59L84.388 342.97L77.808 342.97C77.92 342.144 77.962 341.332 77.962 340.59ZM97.646 337.16L97.646 344.93L98.598 344.93L98.598 337.16L97.646 337.16ZM99.858 335.62L99.858 347.016C99.858 347.254 99.774 347.324 99.536 347.338C99.312 347.352 98.584 347.352 97.772 347.324C97.926 347.618 98.066 348.052 98.108 348.332C99.242 348.332 99.9 348.304 100.306 348.15C100.712 347.968 100.88 347.674 100.88 347.016L100.88 335.62L99.858 335.62ZM88.784 342.774L89.022 343.558L90.716 343.082L90.716 343.964L91.542 343.964L91.542 339.512L90.716 339.512L90.716 340.52L89.008 340.52L89.008 341.29L90.716 341.29L90.716 342.34C89.974 342.522 89.33 342.662 88.784 342.774ZM95.63 335.536C94.188 336.012 91.43 336.292 89.162 336.432C89.288 336.656 89.4 337.034 89.442 337.258C90.38 337.216 91.388 337.146 92.382 337.048L92.382 338.224L88.77 338.224L88.77 339.12L92.382 339.12L92.382 343.334C91.486 344.804 89.918 346.33 88.588 347.114C88.812 347.282 89.134 347.646 89.288 347.898C90.324 347.198 91.472 346.05 92.382 344.804L92.382 348.29L93.376 348.29L93.376 344.65C94.342 345.378 95.644 346.442 96.176 346.932L96.764 346.064C96.232 345.672 94.272 344.272 93.376 343.684L93.376 339.12L97.016 339.12L97.016 338.224L93.376 338.224L93.376 336.922C94.51 336.782 95.56 336.572 96.372 336.306L95.63 335.536ZM94.174 339.512L94.174 342.858C94.174 343.67 94.356 343.88 95.14 343.88C95.28 343.88 95.966 343.88 96.12 343.88C96.708 343.88 96.932 343.572 97.002 342.466C96.778 342.424 96.47 342.312 96.316 342.172C96.288 343.054 96.232 343.166 96.008 343.166C95.868 343.166 95.35 343.166 95.252 343.166C95.014 343.166 94.972 343.138 94.972 342.858L94.972 341.738C95.574 341.5 96.26 341.15 96.806 340.8L96.19 340.198C95.896 340.464 95.434 340.744 94.972 340.982L94.972 339.512L94.174 339.512ZM111.058 344.86C112.136 345.742 113.438 346.988 114.054 347.8L114.964 347.184C114.32 346.372 112.976 345.168 111.912 344.328L111.058 344.86ZM105.822 344.37C105.066 345.392 103.904 346.456 102.798 347.142C103.036 347.296 103.428 347.66 103.61 347.842C104.702 347.072 105.962 345.882 106.802 344.734L105.822 344.37ZM109.042 335.34C107.516 337.314 104.828 339.19 102.35 340.254C102.616 340.492 102.896 340.842 103.078 341.122C103.82 340.758 104.59 340.324 105.346 339.834L105.346 340.73L108.51 340.73L108.51 342.508L103.33 342.508L103.33 343.502L108.51 343.502L108.51 347.086C108.51 347.296 108.44 347.352 108.216 347.366C107.978 347.38 107.18 347.38 106.326 347.352C106.494 347.632 106.69 348.08 106.746 348.36C107.866 348.374 108.566 348.346 109 348.178C109.462 348.01 109.616 347.716 109.616 347.1L109.616 343.502L114.782 343.502L114.782 342.508L109.616 342.508L109.616 340.73L112.64 340.73L112.64 339.764L105.444 339.764C106.732 338.91 107.978 337.888 108.986 336.81C110.75 338.714 112.682 339.932 114.978 340.954C115.132 340.646 115.426 340.282 115.692 340.058C113.326 339.12 111.296 337.944 109.616 336.11L109.854 335.802L109.042 335.34ZM118.198 348.052C118.73 347.856 119.514 347.8 126.934 347.17C127.256 347.59 127.536 347.996 127.732 348.346L128.67 347.772C128.054 346.722 126.724 345.21 125.464 344.09L124.582 344.566C125.128 345.07 125.688 345.658 126.192 346.246L119.822 346.736C120.816 345.812 121.81 344.692 122.678 343.544L128.852 343.544L128.852 342.522L117.246 342.522L117.246 343.544L121.25 343.544C120.34 344.79 119.276 345.896 118.898 346.232C118.464 346.638 118.142 346.904 117.834 346.974C117.96 347.254 118.142 347.814 118.198 348.052ZM123.056 335.48C121.796 337.356 119.332 339.134 116.588 340.296C116.84 340.492 117.204 340.94 117.358 341.206C118.17 340.828 118.954 340.408 119.696 339.946L119.696 340.8L126.374 340.8L126.374 339.82L119.878 339.82C121.082 339.036 122.16 338.154 123.042 337.188C123.882 338.056 125.058 339.008 126.374 339.82C127.13 340.296 127.942 340.716 128.74 341.038C128.908 340.758 129.258 340.324 129.482 340.114C127.214 339.33 124.932 337.804 123.644 336.474L124.064 335.914L123.056 335.48ZM137.588 336.138C138.148 337.076 138.736 338.322 138.96 339.092L139.912 338.658C139.688 337.888 139.058 336.684 138.47 335.76L137.588 336.138ZM131.582 336.446C132.212 337.104 132.968 338.028 133.332 338.616L134.13 337.958C133.766 337.384 132.982 336.516 132.338 335.872L131.582 336.446ZM141.648 336.348C141.186 339.26 140.458 341.878 138.96 343.978C137.546 342.018 136.692 339.484 136.188 336.516L135.194 336.684C135.796 340.002 136.706 342.76 138.246 344.86C137.266 345.966 135.992 346.89 134.354 347.59C134.55 347.814 134.844 348.206 134.984 348.458C136.608 347.73 137.896 346.778 138.918 345.672C139.968 346.848 141.284 347.758 142.908 348.402C143.076 348.122 143.412 347.702 143.664 347.492C142.012 346.904 140.696 345.994 139.632 344.818C141.326 342.55 142.166 339.708 142.726 336.516L141.648 336.348ZM130.644 339.862L130.644 340.884L132.618 340.884L132.618 345.826C132.618 346.554 132.24 347.03 132.016 347.254C132.198 347.408 132.506 347.772 132.618 347.996C132.842 347.716 133.206 347.436 135.67 345.686C135.558 345.476 135.404 345.07 135.32 344.79L133.64 345.952L133.64 339.862L130.644 339.862ZM144.798 337.202C145.75 337.734 146.94 338.574 147.5 339.148L148.172 338.294C147.584 337.72 146.38 336.95 145.428 336.446L144.798 337.202ZM144.588 346.218L145.554 346.946C146.422 345.686 147.486 344.062 148.312 342.634L147.5 341.934C146.59 343.46 145.4 345.196 144.588 346.218ZM150.356 335.48C149.908 337.72 149.124 339.904 148.046 341.276C148.326 341.402 148.844 341.696 149.054 341.864C149.614 341.066 150.118 340.044 150.552 338.896L155.718 338.896C155.452 339.862 155.018 340.926 154.682 341.598C154.934 341.71 155.354 341.92 155.578 342.046C156.068 341.08 156.684 339.596 157.048 338.224L156.278 337.804L156.068 337.86L150.902 337.86C151.126 337.16 151.322 336.432 151.476 335.69L150.356 335.48ZM151.966 339.582L151.966 340.45C151.966 342.452 151.658 345.504 147.36 347.604C147.626 347.786 147.99 348.164 148.158 348.416C150.916 347.03 152.134 345.238 152.68 343.53C153.464 345.77 154.724 347.408 156.754 348.262C156.894 347.982 157.216 347.548 157.454 347.338C155.018 346.456 153.688 344.3 153.058 341.486C153.072 341.122 153.086 340.786 153.086 340.464L153.086 339.582L151.966 339.582ZM164.202 335.746C163.95 336.292 163.502 337.118 163.152 337.608L163.838 337.944C164.202 337.482 164.678 336.782 165.084 336.138L164.202 335.746ZM159.232 336.138C159.596 336.726 159.974 337.496 160.1 337.986L160.898 337.636C160.772 337.132 160.394 336.376 160.002 335.83L159.232 336.138ZM163.74 343.6C163.418 344.328 162.97 344.944 162.438 345.476C161.906 345.21 161.36 344.944 160.842 344.72C161.038 344.384 161.262 344.006 161.458 343.6L163.74 343.6ZM159.54 345.098C160.226 345.364 160.996 345.714 161.696 346.078C160.8 346.722 159.722 347.17 158.574 347.436C158.756 347.632 158.98 347.996 159.078 348.248C160.366 347.898 161.556 347.352 162.564 346.54C163.026 346.82 163.446 347.086 163.768 347.324L164.44 346.638C164.118 346.414 163.712 346.162 163.25 345.91C163.992 345.112 164.58 344.132 164.93 342.914L164.356 342.676L164.188 342.718L161.892 342.718L162.2 341.99L161.262 341.822C161.164 342.102 161.024 342.41 160.884 342.718L158.98 342.718L158.98 343.6L160.45 343.6C160.156 344.16 159.834 344.678 159.54 345.098ZM161.598 335.466L161.598 338.084L158.7 338.084L158.7 338.952L161.276 338.952C160.604 339.862 159.526 340.73 158.546 341.15C158.756 341.346 158.994 341.71 159.12 341.948C159.974 341.486 160.898 340.702 161.598 339.876L161.598 341.584L162.578 341.584L162.578 339.68C163.25 340.17 164.104 340.828 164.454 341.15L165.042 340.394C164.706 340.156 163.474 339.372 162.788 338.952L165.434 338.952L165.434 338.084L162.578 338.084L162.578 335.466L161.598 335.466ZM166.806 335.592C166.456 338.056 165.826 340.408 164.734 341.878C164.958 342.018 165.364 342.354 165.532 342.522C165.896 342.004 166.204 341.388 166.484 340.702C166.792 342.074 167.198 343.348 167.716 344.454C166.932 345.784 165.84 346.806 164.314 347.548C164.51 347.758 164.804 348.178 164.902 348.402C166.33 347.632 167.408 346.666 168.234 345.434C168.934 346.624 169.802 347.576 170.894 348.234C171.062 347.968 171.37 347.604 171.608 347.408C170.432 346.778 169.508 345.756 168.794 344.468C169.536 343.026 170.012 341.276 170.32 339.176L171.272 339.176L171.272 338.196L167.282 338.196C167.478 337.412 167.646 336.586 167.772 335.746L166.806 335.592ZM169.326 339.176C169.102 340.786 168.766 342.186 168.262 343.376C167.73 342.116 167.338 340.688 167.072 339.176L169.326 339.176Z"></path></g><g ><path     fill="#5B9BD5"  d="M233.824 335.192L233.824 336.376L239.136 336.376C239.088 337.512 239.04 338.728 238.848 339.928L232.832 339.928L232.832 341.096L238.624 341.096C237.968 343.848 236.416 346.424 232.624 347.864C232.928 348.104 233.28 348.536 233.44 348.84C237.568 347.192 239.168 344.232 239.84 341.096L240.176 341.096L240.176 346.6C240.176 348.056 240.624 348.472 242.288 348.472C242.624 348.472 244.912 348.472 245.28 348.472C246.816 348.472 247.2 347.8 247.36 345.24C247.008 345.16 246.48 344.952 246.192 344.728C246.112 346.92 245.984 347.288 245.2 347.288C244.704 347.288 242.784 347.288 242.4 347.288C241.584 347.288 241.424 347.176 241.424 346.6L241.424 341.096L247.216 341.096L247.216 339.928L240.048 339.928C240.224 338.728 240.304 337.528 240.336 336.376L246.304 336.376L246.304 335.192L233.824 335.192ZM249.472 334.776L249.472 348.808L250.544 348.808L250.544 335.864L252.864 335.864C252.528 336.936 252.064 338.344 251.6 339.48C252.752 340.76 253.04 341.864 253.04 342.744C253.04 343.24 252.944 343.688 252.704 343.864C252.56 343.944 252.384 343.992 252.208 344.008C251.952 344.024 251.632 344.008 251.264 343.992C251.456 344.296 251.568 344.76 251.568 345.048C251.92 345.064 252.336 345.064 252.64 345.016C252.976 344.984 253.264 344.888 253.472 344.728C253.936 344.392 254.112 343.72 254.112 342.856C254.112 341.848 253.84 340.696 252.688 339.352C253.216 338.072 253.808 336.504 254.272 335.192L253.488 334.728L253.312 334.776L249.472 334.776ZM260.976 338.824L260.976 340.808L256.256 340.808L256.256 338.824L260.976 338.824ZM260.976 337.816L256.256 337.816L256.256 335.88L260.976 335.88L260.976 337.816ZM255.024 348.84C255.328 348.632 255.84 348.456 259.136 347.56C259.104 347.304 259.072 346.808 259.088 346.472L256.256 347.16L256.256 341.864L257.792 341.864C258.592 345.048 260.112 347.512 262.624 348.728C262.8 348.392 263.168 347.928 263.44 347.688C262.16 347.16 261.12 346.264 260.336 345.128C261.216 344.6 262.272 343.896 263.088 343.224L262.304 342.376C261.664 342.968 260.656 343.72 259.808 344.264C259.408 343.544 259.088 342.728 258.848 341.864L262.128 341.864L262.128 334.824L255.072 334.824L255.072 346.712C255.072 347.384 254.736 347.704 254.496 347.848C254.672 348.088 254.928 348.568 255.024 348.84ZM264.912 336.088C266 336.696 267.36 337.656 268 338.312L268.768 337.336C268.096 336.68 266.72 335.8 265.632 335.224L264.912 336.088ZM264.672 346.392L265.776 347.224C266.768 345.784 267.984 343.928 268.928 342.296L268 341.496C266.96 343.24 265.6 345.224 264.672 346.392ZM271.264 334.12C270.752 336.68 269.856 339.176 268.624 340.744C268.944 340.888 269.536 341.224 269.776 341.416C270.416 340.504 270.992 339.336 271.488 338.024L277.392 338.024C277.088 339.128 276.592 340.344 276.208 341.112C276.496 341.24 276.976 341.48 277.232 341.624C277.792 340.52 278.496 338.824 278.912 337.256L278.032 336.776L277.792 336.84L271.888 336.84C272.144 336.04 272.368 335.208 272.544 334.36L271.264 334.12ZM273.104 338.808L273.104 339.8C273.104 342.088 272.752 345.576 267.84 347.976C268.144 348.184 268.56 348.616 268.752 348.904C271.904 347.32 273.296 345.272 273.92 343.32C274.816 345.88 276.256 347.752 278.576 348.728C278.736 348.408 279.104 347.912 279.376 347.672C276.592 346.664 275.072 344.2 274.352 340.984C274.368 340.568 274.384 340.184 274.384 339.816L274.384 338.808L273.104 338.808Z"></path></g><g opacity="0.9"><rect  x="40" y="380" width="310" height="50" rx="12"    fill="#FFFFFF" ></rect></g><g ><path     fill="#4A6A85"  d="M69.646 397.16L69.646 404.93L70.598 404.93L70.598 397.16L69.646 397.16ZM71.858 395.62L71.858 407.016C71.858 407.254 71.774 407.324 71.536 407.338C71.312 407.352 70.584 407.352 69.772 407.324C69.926 407.618 70.066 408.052 70.108 408.332C71.242 408.332 71.9 408.304 72.306 408.15C72.712 407.968 72.88 407.674 72.88 407.016L72.88 395.62L71.858 395.62ZM60.784 402.774L61.022 403.558L62.716 403.082L62.716 403.964L63.542 403.964L63.542 399.512L62.716 399.512L62.716 400.52L61.008 400.52L61.008 401.29L62.716 401.29L62.716 402.34C61.974 402.522 61.33 402.662 60.784 402.774ZM67.63 395.536C66.188 396.012 63.43 396.292 61.162 396.432C61.288 396.656 61.4 397.034 61.442 397.258C62.38 397.216 63.388 397.146 64.382 397.048L64.382 398.224L60.77 398.224L60.77 399.12L64.382 399.12L64.382 403.334C63.486 404.804 61.918 406.33 60.588 407.114C60.812 407.282 61.134 407.646 61.288 407.898C62.324 407.198 63.472 406.05 64.382 404.804L64.382 408.29L65.376 408.29L65.376 404.65C66.342 405.378 67.644 406.442 68.176 406.932L68.764 406.064C68.232 405.672 66.272 404.272 65.376 403.684L65.376 399.12L69.016 399.12L69.016 398.224L65.376 398.224L65.376 396.922C66.51 396.782 67.56 396.572 68.372 396.306L67.63 395.536ZM66.174 399.512L66.174 402.858C66.174 403.67 66.356 403.88 67.14 403.88C67.28 403.88 67.966 403.88 68.12 403.88C68.708 403.88 68.932 403.572 69.002 402.466C68.778 402.424 68.47 402.312 68.316 402.172C68.288 403.054 68.232 403.166 68.008 403.166C67.868 403.166 67.35 403.166 67.252 403.166C67.014 403.166 66.972 403.138 66.972 402.858L66.972 401.738C67.574 401.5 68.26 401.15 68.806 400.8L68.19 400.198C67.896 400.464 67.434 400.744 66.972 400.982L66.972 399.512L66.174 399.512ZM83.058 404.86C84.136 405.742 85.438 406.988 86.054 407.8L86.964 407.184C86.32 406.372 84.976 405.168 83.912 404.328L83.058 404.86ZM77.822 404.37C77.066 405.392 75.904 406.456 74.798 407.142C75.036 407.296 75.428 407.66 75.61 407.842C76.702 407.072 77.962 405.882 78.802 404.734L77.822 404.37ZM81.042 395.34C79.516 397.314 76.828 399.19 74.35 400.254C74.616 400.492 74.896 400.842 75.078 401.122C75.82 400.758 76.59 400.324 77.346 399.834L77.346 400.73L80.51 400.73L80.51 402.508L75.33 402.508L75.33 403.502L80.51 403.502L80.51 407.086C80.51 407.296 80.44 407.352 80.216 407.366C79.978 407.38 79.18 407.38 78.326 407.352C78.494 407.632 78.69 408.08 78.746 408.36C79.866 408.374 80.566 408.346 81 408.178C81.462 408.01 81.616 407.716 81.616 407.1L81.616 403.502L86.782 403.502L86.782 402.508L81.616 402.508L81.616 400.73L84.64 400.73L84.64 399.764L77.444 399.764C78.732 398.91 79.978 397.888 80.986 396.81C82.75 398.714 84.682 399.932 86.978 400.954C87.132 400.646 87.426 400.282 87.692 400.058C85.326 399.12 83.296 397.944 81.616 396.11L81.854 395.802L81.042 395.34ZM96.582 402.354L96.582 403.516L92.69 403.516L92.69 404.496L96.582 404.496L96.582 407.1C96.582 407.296 96.54 407.352 96.288 407.366C96.036 407.38 95.196 407.38 94.272 407.352C94.412 407.646 94.552 408.052 94.594 408.346C95.798 408.346 96.582 408.346 97.058 408.192C97.52 408.024 97.646 407.73 97.646 407.114L97.646 404.496L101.398 404.496L101.398 403.516L97.646 403.516L97.646 402.704C98.668 402.06 99.76 401.192 100.516 400.352L99.844 399.834L99.634 399.89L93.88 399.89L93.88 400.856L98.654 400.856C98.052 401.416 97.282 401.99 96.582 402.354ZM93.39 395.48C93.222 396.082 93.026 396.698 92.788 397.314L88.882 397.314L88.882 398.322L92.354 398.322C91.444 400.254 90.142 402.06 88.434 403.264C88.602 403.502 88.854 403.95 88.966 404.216C89.568 403.782 90.128 403.292 90.632 402.76L90.632 408.332L91.696 408.332L91.696 401.486C92.424 400.506 93.012 399.442 93.516 398.322L101.146 398.322L101.146 397.314L93.936 397.314C94.132 396.796 94.314 396.264 94.468 395.746L93.39 395.48ZM106.06 396.754C106.662 397.356 107.334 398.21 107.628 398.77L108.398 398.21C108.09 397.65 107.39 396.838 106.774 396.264L106.06 396.754ZM108.608 399.736L108.608 400.688L111.268 400.688C110.344 401.654 109.308 402.466 108.188 403.11C108.398 403.292 108.748 403.712 108.874 403.908C109.224 403.684 109.574 403.446 109.91 403.194L109.91 408.304L110.82 408.304L110.82 407.59L113.858 407.59L113.858 408.262L114.81 408.262L114.81 402.186L111.114 402.186C111.618 401.724 112.094 401.22 112.542 400.688L115.426 400.688L115.426 399.736L113.298 399.736C114.082 398.672 114.754 397.482 115.3 396.208L114.362 395.942C114.096 396.586 113.788 397.202 113.438 397.804L113.438 397.062L111.814 397.062L111.814 395.48L110.848 395.48L110.848 397.062L109.014 397.062L109.014 397.972L110.848 397.972L110.848 399.736L108.608 399.736ZM111.814 397.972L113.34 397.972C112.962 398.588 112.556 399.176 112.108 399.736L111.814 399.736L111.814 397.972ZM110.82 405.266L113.858 405.266L113.858 406.722L110.82 406.722L110.82 405.266ZM110.82 404.468L110.82 403.054L113.858 403.054L113.858 404.468L110.82 404.468ZM106.844 407.856C107.04 407.604 107.39 407.38 109.364 406.148C109.294 405.952 109.168 405.574 109.112 405.308L107.754 406.092L107.754 399.946L105.458 399.946L105.458 400.954L106.844 400.954L106.844 405.91C106.844 406.498 106.536 406.848 106.326 406.988C106.508 407.184 106.76 407.618 106.844 407.856ZM105.024 395.452C104.422 397.608 103.456 399.75 102.35 401.178C102.504 401.416 102.784 401.934 102.868 402.158C103.246 401.668 103.61 401.108 103.946 400.492L103.946 408.318L104.87 408.318L104.87 398.616C105.276 397.678 105.626 396.684 105.92 395.704L105.024 395.452ZM123.896 399.722C125.324 400.464 127.228 401.57 128.166 402.242L128.866 401.43C127.872 400.772 125.94 399.722 124.554 399.022L123.896 399.722ZM121.376 398.98C120.298 399.918 118.842 400.87 117.19 401.458L117.806 402.368C119.444 401.668 120.984 400.604 122.104 399.624L121.376 398.98ZM117.078 406.932L117.078 407.884L128.978 407.884L128.978 406.932L123.532 406.932L123.532 403.39L127.55 403.39L127.55 402.438L118.548 402.438L118.548 403.39L122.426 403.39L122.426 406.932L117.078 406.932ZM121.936 395.704C122.16 396.152 122.426 396.712 122.622 397.188L117.064 397.188L117.064 400.352L118.1 400.352L118.1 398.154L127.886 398.154L127.886 400.002L128.964 400.002L128.964 397.188L123.91 397.188C123.7 396.67 123.336 395.942 123.028 395.396L121.936 395.704ZM131.274 398.63L131.274 408.36L132.352 408.36L132.352 398.63L131.274 398.63ZM131.484 396.166C132.128 396.782 132.856 397.664 133.178 398.224L134.046 397.664C133.71 397.076 132.954 396.25 132.296 395.662L131.484 396.166ZM135.306 403.11L138.666 403.11L138.666 405L135.306 405L135.306 403.11ZM135.306 400.366L138.666 400.366L138.666 402.228L135.306 402.228L135.306 400.366ZM134.354 399.484L134.354 405.868L139.66 405.868L139.66 399.484L134.354 399.484ZM134.928 396.264L134.928 397.258L141.704 397.258L141.704 407.086C141.704 407.268 141.648 407.324 141.466 407.338C141.284 407.338 140.71 407.352 140.122 407.324C140.262 407.59 140.402 408.038 140.458 408.29C141.312 408.29 141.914 408.29 142.292 408.122C142.656 407.94 142.782 407.674 142.782 407.086L142.782 396.264L134.928 396.264Z"></path></g><g ><path     fill="#5B9BD5"  d="M224.823 407.56L231.255 407.56L231.255 406.344L228.903 406.344L228.903 395.832L227.783 395.832C227.143 396.2 226.391 396.472 225.351 396.664L225.351 397.592L227.447 397.592L227.447 406.344L224.823 406.344L224.823 407.56ZM235.463 407.56L236.983 407.56C237.175 402.968 237.671 400.232 240.423 396.712L240.423 395.832L233.079 395.832L233.079 397.08L238.775 397.08C236.471 400.28 235.671 403.112 235.463 407.56ZM243.399 407.768C243.975 407.768 244.455 407.32 244.455 406.664C244.455 405.992 243.975 405.544 243.399 405.544C242.807 405.544 242.343 405.992 242.343 406.664C242.343 407.32 242.807 407.768 243.399 407.768ZM250.439 407.768C252.263 407.768 253.815 406.232 253.815 403.96C253.815 401.496 252.535 400.28 250.551 400.28C249.639 400.28 248.615 400.808 247.895 401.688C247.959 398.056 249.287 396.824 250.919 396.824C251.623 396.824 252.327 397.176 252.775 397.72L253.607 396.824C252.951 396.12 252.071 395.624 250.855 395.624C248.583 395.624 246.519 397.368 246.519 401.96C246.519 405.832 248.199 407.768 250.439 407.768ZM247.927 402.856C248.695 401.768 249.591 401.368 250.311 401.368C251.735 401.368 252.423 402.376 252.423 403.96C252.423 405.56 251.559 406.616 250.439 406.616C248.967 406.616 248.087 405.288 247.927 402.856ZM264.688 407.768C266.256 407.768 267.552 407.192 268.304 406.408L268.304 401.48L264.448 401.48L264.448 402.712L266.944 402.712L266.944 405.784C266.48 406.216 265.664 406.472 264.832 406.472C262.32 406.472 260.912 404.616 260.912 401.656C260.912 398.728 262.448 396.92 264.816 396.92C265.984 396.92 266.752 397.416 267.344 398.024L268.144 397.064C267.472 396.36 266.4 395.624 264.768 395.624C261.664 395.624 259.392 397.912 259.392 401.704C259.392 405.512 261.6 407.768 264.688 407.768ZM271.104 407.56L274.832 407.56C277.456 407.56 279.28 406.424 279.28 404.12C279.28 402.52 278.288 401.592 276.896 401.32L276.896 401.24C278 400.888 278.608 399.864 278.608 398.696C278.608 396.632 276.944 395.832 274.576 395.832L271.104 395.832L271.104 407.56ZM272.576 400.808L272.576 397L274.384 397C276.224 397 277.152 397.512 277.152 398.888C277.152 400.088 276.336 400.808 274.32 400.808L272.576 400.808ZM272.576 406.376L272.576 401.96L274.624 401.96C276.688 401.96 277.824 402.616 277.824 404.072C277.824 405.656 276.64 406.376 274.624 406.376L272.576 406.376Z"></path></g><g ><path     fill="#7BA8C9"  d="M41.053 461.901C41.768 462.59 42.613 463.578 43.003 464.189L43.796 463.63C43.38 463.019 42.509 462.083 41.794 461.42L41.053 461.901ZM51.258 461.16C49.932 461.563 47.462 461.823 45.395 461.94L45.395 464.826C45.395 466.516 45.278 468.83 44.134 470.52C44.355 470.637 44.784 470.923 44.953 471.105C45.967 469.649 46.279 467.608 46.357 465.905L49.009 465.905L49.009 471.066L49.971 471.066L49.971 465.905L52.376 465.905L52.376 464.995L46.383 464.995L46.383 464.826L46.383 462.72C48.372 462.59 50.582 462.343 52.064 461.888L51.258 461.16ZM43.406 465.866L40.676 465.866L40.676 466.828L42.457 466.828L42.457 470.455C41.872 470.676 41.196 471.261 40.507 472.002L41.157 472.899C41.82 472.015 42.457 471.248 42.899 471.248C43.185 471.248 43.601 471.69 44.147 472.028C45.057 472.587 46.136 472.743 47.761 472.743C49.009 472.743 51.336 472.665 52.259 472.6C52.272 472.327 52.428 471.833 52.545 471.573C51.284 471.716 49.334 471.82 47.787 471.82C46.318 471.82 45.213 471.729 44.368 471.196C43.926 470.936 43.653 470.689 43.406 470.533L43.406 465.866ZM56.913 472.249C58.395 472.249 59.656 471.001 59.656 469.155C59.656 467.153 58.616 466.165 57.004 466.165C56.263 466.165 55.431 466.594 54.846 467.309C54.898 464.358 55.977 463.357 57.303 463.357C57.875 463.357 58.447 463.643 58.811 464.085L59.487 463.357C58.954 462.785 58.239 462.382 57.251 462.382C55.405 462.382 53.728 463.799 53.728 467.53C53.728 470.676 55.093 472.249 56.913 472.249ZM54.872 468.258C55.496 467.374 56.224 467.049 56.809 467.049C57.966 467.049 58.525 467.868 58.525 469.155C58.525 470.455 57.823 471.313 56.913 471.313C55.717 471.313 55.002 470.234 54.872 468.258ZM66.195 464.982L66.195 473.107L67.209 473.107L67.209 464.982L66.195 464.982ZM66.793 461.147C65.493 463.318 63.127 465.216 60.67 466.282C60.943 466.516 61.229 466.893 61.398 467.179C63.4 466.204 65.324 464.696 66.728 462.902C68.457 464.93 70.173 466.178 72.097 467.192C72.253 466.88 72.552 466.516 72.812 466.308C70.81 465.333 68.964 464.111 67.3 462.122L67.664 461.55L66.793 461.147ZM75.906 461.849L75.906 465.853C75.906 467.946 75.698 470.585 73.592 472.431C73.813 472.561 74.19 472.925 74.333 473.133C75.607 472.015 76.257 470.546 76.582 469.064L82.861 469.064L82.861 471.664C82.861 471.95 82.77 472.041 82.458 472.054C82.159 472.067 81.106 472.08 80.027 472.041C80.196 472.314 80.378 472.769 80.443 473.068C81.834 473.068 82.705 473.055 83.212 472.873C83.693 472.704 83.888 472.379 83.888 471.677L83.888 461.849L75.906 461.849ZM76.894 462.798L82.861 462.798L82.861 464.982L76.894 464.982L76.894 462.798ZM76.894 465.905L82.861 465.905L82.861 468.115L76.751 468.115C76.855 467.348 76.894 466.594 76.894 465.905ZM88.256 472.834C88.75 472.652 89.478 472.6 96.368 472.015C96.667 472.405 96.927 472.782 97.109 473.107L97.98 472.574C97.408 471.599 96.173 470.195 95.003 469.155L94.184 469.597C94.691 470.065 95.211 470.611 95.679 471.157L89.764 471.612C90.687 470.754 91.61 469.714 92.416 468.648L98.149 468.648L98.149 467.699L87.372 467.699L87.372 468.648L91.09 468.648C90.245 469.805 89.257 470.832 88.906 471.144C88.503 471.521 88.204 471.768 87.918 471.833C88.035 472.093 88.204 472.613 88.256 472.834ZM92.767 461.16C91.597 462.902 89.309 464.553 86.761 465.632C86.995 465.814 87.333 466.23 87.476 466.477C88.23 466.126 88.958 465.736 89.647 465.307L89.647 466.1L95.848 466.1L95.848 465.19L89.816 465.19C90.934 464.462 91.935 463.643 92.754 462.746C93.534 463.552 94.626 464.436 95.848 465.19C96.55 465.632 97.304 466.022 98.045 466.321C98.201 466.061 98.526 465.658 98.734 465.463C96.628 464.735 94.509 463.318 93.313 462.083L93.703 461.563L92.767 461.16ZM106.261 461.771C106.781 462.642 107.327 463.799 107.535 464.514L108.419 464.111C108.211 463.396 107.626 462.278 107.08 461.42L106.261 461.771ZM100.684 462.057C101.269 462.668 101.971 463.526 102.309 464.072L103.05 463.461C102.712 462.928 101.984 462.122 101.386 461.524L100.684 462.057ZM110.031 461.966C109.602 464.67 108.926 467.101 107.535 469.051C106.222 467.231 105.429 464.878 104.961 462.122L104.038 462.278C104.597 465.359 105.442 467.92 106.872 469.87C105.962 470.897 104.779 471.755 103.258 472.405C103.44 472.613 103.713 472.977 103.843 473.211C105.351 472.535 106.547 471.651 107.496 470.624C108.471 471.716 109.693 472.561 111.201 473.159C111.357 472.899 111.669 472.509 111.903 472.314C110.369 471.768 109.147 470.923 108.159 469.831C109.732 467.725 110.512 465.086 111.032 462.122L110.031 461.966ZM99.813 465.229L99.813 466.178L101.646 466.178L101.646 470.767C101.646 471.443 101.295 471.885 101.087 472.093C101.256 472.236 101.542 472.574 101.646 472.782C101.854 472.522 102.192 472.262 104.48 470.637C104.376 470.442 104.233 470.065 104.155 469.805L102.595 470.884L102.595 465.229L99.813 465.229ZM120.197 463.201L122.394 463.201C122.121 463.773 121.783 464.462 121.458 465.06L119.001 465.06C119.482 464.475 119.872 463.838 120.197 463.201ZM119.066 467.309L119.066 468.154L122.966 468.154L122.966 469.597L118.598 469.597L118.598 470.481L123.928 470.481L123.928 465.06L122.485 465.06C122.888 464.241 123.304 463.318 123.629 462.551L122.992 462.343L122.836 462.395L120.561 462.395C120.691 462.096 120.795 461.784 120.899 461.498L119.963 461.355C119.625 462.447 118.962 463.825 117.948 464.878C118.169 464.995 118.494 465.242 118.663 465.437L118.897 465.177L118.897 465.944L122.966 465.944L122.966 467.309L119.066 467.309ZM113.619 467.127C113.58 469.363 113.45 471.313 112.618 472.548C112.839 472.678 113.216 472.99 113.359 473.133C113.827 472.379 114.113 471.43 114.282 470.338C115.413 472.353 117.285 472.717 120.054 472.717L124.422 472.717C124.474 472.444 124.656 472.002 124.812 471.768C124.058 471.794 120.665 471.794 120.054 471.794C118.624 471.794 117.441 471.703 116.492 471.287L116.492 468.83L118.247 468.83L118.247 467.972L116.492 467.972L116.492 466.217L118.286 466.217L118.286 465.294L116.258 465.294L116.258 463.799L118 463.799L118 462.915L116.258 462.915L116.258 461.16L115.335 461.16L115.335 462.915L113.333 462.915L113.333 463.799L115.335 463.799L115.335 465.294L112.891 465.294L112.891 466.217L115.569 466.217L115.569 470.715C115.101 470.299 114.724 469.74 114.438 468.986C114.49 468.414 114.516 467.803 114.529 467.179L113.619 467.127ZM127.997 461.16L127.997 462.434L126.047 462.434L126.047 463.305L127.997 463.305L127.997 464.566L125.852 464.904L126.047 465.801L127.997 465.463L127.997 466.62C127.997 466.763 127.945 466.815 127.776 466.815C127.62 466.815 127.061 466.815 126.463 466.802C126.58 467.036 126.697 467.387 126.736 467.621C127.594 467.634 128.114 467.621 128.452 467.478C128.803 467.348 128.894 467.114 128.894 466.62L128.894 465.307L130.675 464.995L130.636 464.124L128.894 464.423L128.894 463.305L130.584 463.305L130.584 462.434L128.894 462.434L128.894 461.16L127.997 461.16ZM130.74 467.53C130.701 467.842 130.636 468.154 130.571 468.44L126.398 468.44L126.398 469.311L130.298 469.311C129.739 470.702 128.569 471.742 125.787 472.288C125.982 472.496 126.229 472.886 126.307 473.133C129.453 472.431 130.74 471.105 131.351 469.311L135.368 469.311C135.186 471.001 134.978 471.755 134.692 471.989C134.562 472.106 134.406 472.119 134.133 472.119C133.821 472.119 132.963 472.106 132.118 472.041C132.287 472.275 132.417 472.652 132.43 472.925C133.262 472.977 134.068 472.99 134.471 472.964C134.939 472.938 135.225 472.873 135.498 472.6C135.927 472.21 136.148 471.222 136.395 468.869C136.408 468.739 136.434 468.44 136.434 468.44L131.598 468.44C131.663 468.141 131.715 467.842 131.754 467.53L131.052 467.53C131.897 467.114 132.482 466.568 132.872 465.879C133.47 466.295 134.016 466.698 134.38 467.01L134.913 466.243C134.51 465.918 133.899 465.489 133.236 465.06C133.418 464.54 133.535 463.942 133.6 463.266L135.225 463.266C135.199 465.918 135.29 467.543 136.603 467.543C137.305 467.543 137.617 467.192 137.721 465.892C137.487 465.84 137.175 465.684 136.98 465.528C136.941 466.386 136.863 466.672 136.642 466.672C136.083 466.685 136.057 465.255 136.122 462.434L133.678 462.434L133.73 461.16L132.82 461.16L132.768 462.434L130.87 462.434L130.87 463.266L132.703 463.266C132.638 463.747 132.56 464.176 132.443 464.566L131.325 463.903L130.805 464.566C131.221 464.8 131.663 465.086 132.118 465.372C131.754 466.035 131.195 466.542 130.324 466.919C130.493 467.049 130.727 467.322 130.844 467.53L130.74 467.53Z"></path></g><g opacity="0.9"><rect  x="40" y="485" width="310" height="180" rx="14"    fill="#FFFFFF" ></rect></g><g opacity="0.5"><rect  x="65" y="610" width="24" height="40" rx="4"    fill="#5B9BD5" ></rect></g><g ><path     fill="#7BA8C9"  d="M67.3299 631.6L71.35 631.6L71.35 630.84L69.88 630.84L69.88 624.27L69.18 624.27C68.78 624.5 68.31 624.67 67.66 624.79L67.66 625.37L68.9699 625.37L68.9699 630.84L67.3299 630.84L67.3299 631.6ZM74.78 631.73C76.17 631.73 77.06 630.47 77.06 627.91C77.06 625.37 76.17 624.14 74.78 624.14C73.38 624.14 72.5 625.37 72.5 627.91C72.5 630.47 73.38 631.73 74.78 631.73ZM74.78 630.99C73.95 630.99 73.38 630.06 73.38 627.91C73.38 625.77 73.95 624.86 74.78 624.86C75.61 624.86 76.1799 625.77 76.1799 627.91C76.1799 630.06 75.61 630.99 74.78 630.99ZM79.6199 623.73L79.6199 626.81C79.6199 628.42 79.46 630.45 77.84 631.87C78.0099 631.97 78.2999 632.25 78.41 632.41C79.39 631.55 79.89 630.42 80.14 629.28L84.97 629.28L84.97 631.28C84.97 631.5 84.8999 631.57 84.66 631.58C84.4299 631.59 83.6199 631.6 82.7899 631.57C82.92 631.78 83.06 632.13 83.11 632.36C84.1799 632.36 84.85 632.35 85.24 632.21C85.61 632.08 85.7599 631.83 85.7599 631.29L85.7599 623.73L79.6199 623.73ZM80.38 624.46L84.97 624.46L84.97 626.14L80.38 626.14L80.38 624.46ZM80.38 626.85L84.97 626.85L84.97 628.55L80.27 628.55C80.35 627.96 80.38 627.38 80.38 626.85Z"></path></g><g opacity="0.6"><rect  x="105" y="590" width="24" height="60" rx="4"    fill="#5B9BD5" ></rect></g><g ><path     fill="#7BA8C9"  d="M107.33 651.6L111.35 651.6L111.35 650.84L109.88 650.84L109.88 644.27L109.18 644.27C108.78 644.5 108.31 644.67 107.66 644.79L107.66 645.37L108.97 645.37L108.97 650.84L107.33 650.84L107.33 651.6ZM112.88 651.6L116.9 651.6L116.9 650.84L115.43 650.84L115.43 644.27L114.73 644.27C114.33 644.5 113.86 644.67 113.21 644.79L113.21 645.37L114.52 645.37L114.52 650.84L112.88 650.84L112.88 651.6ZM119.62 643.73L119.62 646.81C119.62 648.42 119.46 650.45 117.84 651.87C118.01 651.97 118.3 652.25 118.41 652.41C119.39 651.55 119.89 650.42 120.14 649.28L124.97 649.28L124.97 651.28C124.97 651.5 124.9 651.57 124.66 651.58C124.43 651.59 123.62 651.6 122.79 651.57C122.92 651.78 123.06 652.13 123.11 652.36C124.18 652.36 124.85 652.35 125.24 652.21C125.61 652.08 125.76 651.83 125.76 651.29L125.76 643.73L119.62 643.73ZM120.38 644.46L124.97 644.46L124.97 646.14L120.38 646.14L120.38 644.46ZM120.38 646.85L124.97 646.85L124.97 648.55L120.27 648.55C120.35 647.96 120.38 647.38 120.38 646.85Z"></path></g><g opacity="0.7"><rect  x="145" y="570" width="24" height="80" rx="4"    fill="#5B9BD5" ></rect></g><g ><path     fill="#7BA8C9"  d="M147.33 651.6L151.35 651.6L151.35 650.84L149.88 650.84L149.88 644.27L149.18 644.27C148.78 644.5 148.31 644.67 147.66 644.79L147.66 645.37L148.97 645.37L148.97 650.84L147.33 650.84L147.33 651.6ZM152.44 651.6L157.05 651.6L157.05 650.81L155.02 650.81C154.65 650.81 154.2 650.85 153.82 650.88C155.54 649.25 156.7 647.76 156.7 646.29C156.7 644.99 155.87 644.14 154.56 644.14C153.63 644.14 152.99 644.56 152.4 645.21L152.93 645.73C153.34 645.24 153.85 644.88 154.45 644.88C155.36 644.88 155.8 645.49 155.8 646.33C155.8 647.59 154.74 649.05 152.44 651.06L152.44 651.6ZM159.62 643.73L159.62 646.81C159.62 648.42 159.46 650.45 157.84 651.87C158.01 651.97 158.3 652.25 158.41 652.41C159.39 651.55 159.89 650.42 160.14 649.28L164.97 649.28L164.97 651.28C164.97 651.5 164.9 651.57 164.66 651.58C164.43 651.59 163.62 651.6 162.79 651.57C162.92 651.78 163.06 652.13 163.11 652.36C164.18 652.36 164.85 652.35 165.24 652.21C165.61 652.08 165.76 651.83 165.76 651.29L165.76 643.73L159.62 643.73ZM160.38 644.46L164.97 644.46L164.97 646.14L160.38 646.14L160.38 644.46ZM160.38 646.85L164.97 646.85L164.97 648.55L160.27 648.55C160.35 647.96 160.38 647.38 160.38 646.85Z"></path></g><g opacity="0.8"><rect  x="185" y="550" width="24" height="100" rx="4"    fill="#5B9BD5" ></rect></g><g ><path     fill="#7BA8C9"  d="M190.105 651.6L194.125 651.6L194.125 650.84L192.655 650.84L192.655 644.27L191.955 644.27C191.555 644.5 191.085 644.67 190.435 644.79L190.435 645.37L191.745 645.37L191.745 650.84L190.105 650.84L190.105 651.6ZM196.845 643.73L196.845 646.81C196.845 648.42 196.685 650.45 195.065 651.87C195.235 651.97 195.525 652.25 195.635 652.41C196.615 651.55 197.115 650.42 197.365 649.28L202.195 649.28L202.195 651.28C202.195 651.5 202.125 651.57 201.885 651.58C201.655 651.59 200.845 651.6 200.015 651.57C200.145 651.78 200.285 652.13 200.335 652.36C201.405 652.36 202.075 652.35 202.465 652.21C202.835 652.08 202.985 651.83 202.985 651.29L202.985 643.73L196.845 643.73ZM197.605 644.46L202.195 644.46L202.195 646.14L197.605 646.14L197.605 644.46ZM197.605 646.85L202.195 646.85L202.195 648.55L197.495 648.55C197.575 647.96 197.605 647.38 197.605 646.85Z"></path></g><g opacity="0.9"><rect  x="225" y="530" width="24" height="120" rx="4"    fill="#5B9BD5" ></rect></g><g ><path     fill="#7BA8C9"  d="M229.665 651.6L234.275 651.6L234.275 650.81L232.245 650.81C231.875 650.81 231.425 650.85 231.045 650.88C232.765 649.25 233.925 647.76 233.925 646.29C233.925 644.99 233.095 644.14 231.785 644.14C230.855 644.14 230.215 644.56 229.625 645.21L230.155 645.73C230.565 645.24 231.075 644.88 231.675 644.88C232.585 644.88 233.025 645.49 233.025 646.33C233.025 647.59 231.965 649.05 229.665 651.06L229.665 651.6ZM236.845 643.73L236.845 646.81C236.845 648.42 236.685 650.45 235.065 651.87C235.235 651.97 235.525 652.25 235.635 652.41C236.615 651.55 237.115 650.42 237.365 649.28L242.195 649.28L242.195 651.28C242.195 651.5 242.125 651.57 241.885 651.58C241.655 651.59 240.845 651.6 240.015 651.57C240.145 651.78 240.285 652.13 240.335 652.36C241.405 652.36 242.075 652.35 242.465 652.21C242.835 652.08 242.985 651.83 242.985 651.29L242.985 643.73L236.845 643.73ZM237.605 644.46L242.195 644.46L242.195 646.14L237.605 646.14L237.605 644.46ZM237.605 646.85L242.195 646.85L242.195 648.55L237.495 648.55C237.575 647.96 237.605 647.38 237.605 646.85Z"></path></g><rect  x="265" y="565" width="24" height="85" rx="4"    fill="#5B9BD5" ></rect><g ><path     fill="#7BA8C9"  d="M271.855 651.73C273.165 651.73 274.215 650.95 274.215 649.64C274.215 648.63 273.525 647.99 272.665 647.78L272.665 647.73C273.445 647.46 273.965 646.86 273.965 645.97C273.965 644.81 273.065 644.14 271.825 644.14C270.985 644.14 270.335 644.51 269.785 645.01L270.275 645.59C270.695 645.17 271.205 644.88 271.795 644.88C272.565 644.88 273.035 645.34 273.035 646.04C273.035 646.83 272.525 647.44 271.005 647.44L271.005 648.14C272.705 648.14 273.285 648.72 273.285 649.61C273.285 650.45 272.675 650.97 271.795 650.97C270.965 650.97 270.415 650.57 269.985 650.13L269.515 650.72C269.995 651.25 270.715 651.73 271.855 651.73ZM276.845 643.73L276.845 646.81C276.845 648.42 276.685 650.45 275.065 651.87C275.235 651.97 275.525 652.25 275.635 652.41C276.615 651.55 277.115 650.42 277.365 649.28L282.195 649.28L282.195 651.28C282.195 651.5 282.125 651.57 281.885 651.58C281.655 651.59 280.845 651.6 280.015 651.57C280.145 651.78 280.285 652.13 280.335 652.36C281.405 652.36 282.075 652.35 282.465 652.21C282.835 652.08 282.985 651.83 282.985 651.29L282.985 643.73L276.845 643.73ZM277.605 644.46L282.195 644.46L282.195 646.14L277.605 646.14L277.605 644.46ZM277.605 646.85L282.195 646.85L282.195 648.55L277.495 648.55C277.575 647.96 277.605 647.38 277.605 646.85Z"></path></g><g opacity="0.7"><rect  x="305" y="585" width="24" height="65" rx="4"    fill="#5B9BD5" ></rect></g><g ><path     fill="#7BA8C9"  d="M312.625 651.6L313.485 651.6L313.485 649.58L314.465 649.58L314.465 648.85L313.485 648.85L313.485 644.27L312.475 644.27L309.425 648.98L309.425 649.58L312.625 649.58L312.625 651.6ZM312.625 648.85L310.375 648.85L312.045 646.35C312.255 645.99 312.455 645.62 312.635 645.27L312.675 645.27C312.655 645.64 312.625 646.24 312.625 646.6L312.625 648.85ZM316.845 643.73L316.845 646.81C316.845 648.42 316.685 650.45 315.065 651.87C315.235 651.97 315.525 652.25 315.635 652.41C316.615 651.55 317.115 650.42 317.365 649.28L322.195 649.28L322.195 651.28C322.195 651.5 322.125 651.57 321.885 651.58C321.655 651.59 320.845 651.6 320.015 651.57C320.145 651.78 320.285 652.13 320.335 652.36C321.405 652.36 322.075 652.35 322.465 652.21C322.835 652.08 322.985 651.83 322.985 651.29L322.985 643.73L316.845 643.73ZM317.605 644.46L322.195 644.46L322.195 646.14L317.605 646.14L317.605 644.46ZM317.605 646.85L322.195 646.85L322.195 648.55L317.495 648.55C317.575 647.96 317.605 647.38 317.605 646.85Z"></path></g><g opacity="0.12"><rect  x="40" y="690" width="310" height="50" rx="14"    fill="#FFD700" ></rect></g><g ><path     fill="#8B4513"  d="M87.0473 719.612C88.4903 720.119 89.9723 720.73 90.8563 721.172L91.7403 720.34C90.7783 719.911 89.1923 719.3 87.7493 718.832L87.0473 719.612ZM83.9923 718.845C83.1603 719.378 81.5093 720.015 80.1703 720.34C80.4433 720.574 80.8203 720.964 81.0153 721.211C82.3413 720.86 84.0183 720.223 85.0583 719.573L83.9923 718.845ZM81.5093 714.243L81.5093 718.78L90.5443 718.78L90.5443 714.243L86.6053 714.243L86.6053 713.437L91.8313 713.437L91.8313 712.306L88.6723 712.306L88.6723 711.266L90.9473 711.266L90.9473 710.174L88.6723 710.174L88.6723 709.108L87.4113 709.108L87.4113 710.174L84.5643 710.174L84.5643 709.108L83.3163 709.108L83.3163 710.174L81.0803 710.174L81.0803 711.266L83.3163 711.266L83.3163 712.306L80.1573 712.306L80.1573 713.437L85.3313 713.437L85.3313 714.243L81.5093 714.243ZM84.5643 712.306L84.5643 711.266L87.4113 711.266L87.4113 712.306L84.5643 712.306ZM82.7053 716.921L85.3313 716.921L85.3313 717.896L82.7053 717.896L82.7053 716.921ZM86.6053 716.921L89.3093 716.921L89.3093 717.896L86.6053 717.896L86.6053 716.921ZM82.7053 715.127L85.3313 715.127L85.3313 716.089L82.7053 716.089L82.7053 715.127ZM86.6053 715.127L89.3093 715.127L89.3093 716.089L86.6053 716.089L86.6053 715.127ZM94.9383 717.324C95.4193 718.039 95.9263 719.04 96.1083 719.651L97.1743 719.183C96.9793 718.559 96.4333 717.61 95.9393 716.921L94.9383 717.324ZM101.867 716.921C101.568 717.636 101.022 718.637 100.593 719.261L101.529 719.664C101.984 719.079 102.556 718.169 103.037 717.363L101.867 716.921ZM98.8903 708.978C97.6423 710.915 95.2633 712.345 92.8063 713.099C93.1183 713.411 93.4563 713.879 93.6383 714.23C94.2883 713.996 94.9253 713.723 95.5363 713.411L95.5363 714.087L98.2793 714.087L98.2793 715.673L93.9503 715.673L93.9503 716.791L98.2793 716.791L98.2793 719.703L93.3393 719.703L93.3393 720.834L104.623 720.834L104.623 719.703L99.5923 719.703L99.5923 716.791L103.986 716.791L103.986 715.673L99.5923 715.673L99.5923 714.087L102.361 714.087L102.361 713.294C103.011 713.645 103.674 713.944 104.311 714.178C104.506 713.853 104.883 713.372 105.169 713.099C103.206 712.514 100.97 711.279 99.6963 709.992L100.034 709.498L98.8903 708.978ZM101.75 712.943L96.3553 712.943C97.3433 712.345 98.2273 711.643 98.9943 710.837C99.7743 711.604 100.736 712.332 101.75 712.943ZM107.522 720.912C108.094 720.691 108.887 720.652 115.582 720.119C115.868 720.496 116.102 720.86 116.271 721.159L117.376 720.496C116.791 719.508 115.582 718.13 114.425 717.103L113.372 717.649C113.827 718.065 114.295 718.559 114.724 719.053L109.381 719.417C110.239 718.637 111.071 717.727 111.786 716.804L117.402 716.804L117.402 715.595L106.612 715.595L106.612 716.804L110.083 716.804C109.303 717.831 108.445 718.702 108.107 718.988C107.704 719.365 107.405 719.599 107.106 719.651C107.249 720.002 107.444 720.639 107.522 720.912ZM111.981 709.082C110.772 710.785 108.445 712.41 105.936 713.424C106.222 713.671 106.638 714.204 106.82 714.516C107.548 714.191 108.25 713.814 108.913 713.398L108.913 714.23L115.075 714.23L115.075 713.294C115.764 713.71 116.479 714.087 117.194 714.373C117.389 714.035 117.792 713.541 118.065 713.294C116.037 712.618 113.931 711.305 112.696 710.148L113.125 709.589L111.981 709.082ZM109.407 713.086C110.369 712.449 111.24 711.734 111.994 710.941C112.722 711.656 113.684 712.41 114.737 713.086L109.407 713.086ZM122.16 710.72L127.815 710.72L127.815 711.981L122.16 711.981L122.16 710.72ZM120.873 709.667L120.873 713.047L129.167 713.047L129.167 709.667L120.873 709.667ZM124.227 715.933L124.227 717.103C124.227 718.065 123.85 719.378 119.261 720.249C119.56 720.509 119.924 720.977 120.08 721.25C124.877 720.184 125.566 718.507 125.566 717.129L125.566 715.933L124.227 715.933ZM125.384 719.365C126.931 719.885 129.037 720.704 130.103 721.237L130.727 720.197C129.609 719.677 127.477 718.91 125.982 718.455L125.384 719.365ZM120.379 714.061L120.379 718.858L121.64 718.858L121.64 715.205L128.387 715.205L128.387 718.728L129.713 718.728L129.713 714.061L120.379 714.061ZM142.336 711.448C141.946 713.515 141.257 715.27 140.321 716.674C139.476 715.27 138.956 713.593 138.566 711.448L142.336 711.448ZM142.687 710.252L142.492 710.265L137.032 710.265L137.032 711.448L137.539 711.448L137.409 711.474C137.864 714.087 138.475 716.076 139.528 717.714C138.592 718.806 137.474 719.612 136.239 720.132C136.512 720.366 136.837 720.847 137.006 721.146C138.228 720.561 139.333 719.768 140.269 718.728C141.036 719.651 141.998 720.47 143.194 721.237C143.363 720.873 143.74 720.444 144.078 720.21C142.817 719.469 141.842 718.676 141.075 717.727C142.362 715.92 143.259 713.528 143.675 710.447L142.895 710.213L142.687 710.252ZM134.107 709.108L134.107 711.773L132.027 711.773L132.027 712.93L133.834 712.93C133.392 714.646 132.547 716.609 131.663 717.662C131.884 717.987 132.209 718.546 132.352 718.923C133.015 718.052 133.639 716.674 134.107 715.218L134.107 721.159L135.303 721.159L135.303 714.88C135.836 715.556 136.486 716.427 136.772 716.908L137.5 715.777C137.188 715.439 135.745 713.892 135.303 713.502L135.303 712.93L136.954 712.93L136.954 711.773L135.303 711.773L135.303 709.108L134.107 709.108ZM152.086 713.957C153.386 714.451 155.167 715.244 156.064 715.751L156.727 714.763C155.791 714.269 153.984 713.541 152.71 713.099L152.086 713.957ZM148.94 713.073C148.108 713.736 146.431 714.581 145.248 714.971C145.508 715.231 145.807 715.673 145.976 715.959C147.172 715.413 148.849 714.451 149.798 713.684L148.94 713.073ZM146.652 715.725L146.652 719.677L145.04 719.677L145.04 720.769L156.909 720.769L156.909 719.677L155.362 719.677L155.362 715.725L146.652 715.725ZM147.757 719.677L147.757 716.778L149.135 716.778L149.135 719.677L147.757 719.677ZM150.266 719.677L150.266 716.778L151.657 716.778L151.657 719.677L150.266 719.677ZM152.788 719.677L152.788 716.778L154.205 716.778L154.205 719.677L152.788 719.677ZM153.568 709.108C153.282 709.797 152.723 710.746 152.281 711.357L153.009 711.617L148.966 711.617L149.681 711.253C149.421 710.655 148.849 709.784 148.303 709.121L147.25 709.576C147.718 710.2 148.225 711.019 148.498 711.617L145.248 711.617L145.248 712.709L156.675 712.709L156.675 711.617L153.386 711.617C153.828 711.045 154.361 710.226 154.816 709.485L153.568 709.108ZM160.718 713.866C161.316 713.866 161.81 713.411 161.81 712.787C161.81 712.137 161.316 711.695 160.718 711.695C160.12 711.695 159.626 712.137 159.626 712.787C159.626 713.411 160.12 713.866 160.718 713.866ZM160.718 720.158C161.316 720.158 161.81 719.703 161.81 719.079C161.81 718.429 161.316 717.987 160.718 717.987C160.12 717.987 159.626 718.429 159.626 719.079C159.626 719.703 160.12 720.158 160.718 720.158ZM171.911 709.953L171.911 711.162L176.11 711.162C176.084 712.007 176.045 712.878 175.928 713.736L171.105 713.736L171.105 714.945L175.694 714.945C175.161 717.077 173.913 719.027 170.923 720.145C171.235 720.405 171.586 720.847 171.755 721.172C175.096 719.82 176.409 717.467 176.968 714.945L177.072 714.945L177.072 719.105C177.072 720.457 177.462 720.86 178.944 720.86C179.243 720.86 180.842 720.86 181.154 720.86C182.48 720.86 182.857 720.301 183 718.156C182.649 718.065 182.09 717.857 181.817 717.636C181.752 719.365 181.661 719.651 181.063 719.651C180.699 719.651 179.373 719.651 179.087 719.651C178.463 719.651 178.359 719.573 178.359 719.092L178.359 714.945L182.883 714.945L182.883 713.736L177.176 713.736C177.293 712.878 177.332 712.007 177.371 711.162L182.155 711.162L182.155 709.953L171.911 709.953ZM184.573 709.628L184.573 721.146L185.652 721.146L185.652 710.733L187.277 710.733C187.03 711.591 186.705 712.696 186.38 713.567C187.225 714.555 187.42 715.426 187.42 716.102C187.42 716.492 187.355 716.83 187.173 716.96C187.069 717.025 186.939 717.064 186.796 717.064C186.614 717.09 186.38 717.077 186.12 717.051C186.302 717.363 186.406 717.831 186.406 718.117C186.705 718.13 187.017 718.13 187.264 718.104C187.537 718.065 187.784 717.974 187.966 717.844C188.356 717.558 188.525 716.999 188.525 716.232C188.525 715.439 188.317 714.503 187.446 713.437C187.862 712.423 188.304 711.123 188.668 710.044L187.862 709.589L187.68 709.628L184.573 709.628ZM193.829 713.06L193.829 714.425L190.41 714.425L190.41 713.06L193.829 713.06ZM193.829 712.046L190.41 712.046L190.41 710.733L193.829 710.733L193.829 712.046ZM189.201 721.185C189.474 721.003 189.929 720.847 192.555 720.145C192.516 719.885 192.49 719.378 192.503 719.04L190.41 719.521L190.41 715.491L191.463 715.491C192.1 718.078 193.244 720.08 195.246 721.094C195.428 720.769 195.805 720.275 196.078 720.041C195.103 719.625 194.323 718.962 193.725 718.104C194.375 717.701 195.155 717.155 195.792 716.648L194.986 715.79C194.531 716.232 193.816 716.791 193.192 717.22C192.919 716.687 192.698 716.102 192.516 715.491L195.012 715.491L195.012 709.654L189.201 709.654L189.201 719.183C189.201 719.755 188.902 720.067 188.668 720.197C188.85 720.431 189.11 720.912 189.201 721.185ZM198.522 720.912C199.094 720.691 199.887 720.652 206.582 720.119C206.868 720.496 207.102 720.86 207.271 721.159L208.376 720.496C207.791 719.508 206.582 718.13 205.425 717.103L204.372 717.649C204.827 718.065 205.295 718.559 205.724 719.053L200.381 719.417C201.239 718.637 202.071 717.727 202.786 716.804L208.402 716.804L208.402 715.595L197.612 715.595L197.612 716.804L201.083 716.804C200.303 717.831 199.445 718.702 199.107 718.988C198.704 719.365 198.405 719.599 198.106 719.651C198.249 720.002 198.444 720.639 198.522 720.912ZM202.981 709.082C201.772 710.785 199.445 712.41 196.936 713.424C197.222 713.671 197.638 714.204 197.82 714.516C198.548 714.191 199.25 713.814 199.913 713.398L199.913 714.23L206.075 714.23L206.075 713.294C206.764 713.71 207.479 714.087 208.194 714.373C208.389 714.035 208.792 713.541 209.065 713.294C207.037 712.618 204.931 711.305 203.696 710.148L204.125 709.589L202.981 709.082ZM200.407 713.086C201.369 712.449 202.24 711.734 202.994 710.941C203.722 711.656 204.684 712.41 205.737 713.086L200.407 713.086ZM216.423 709.719C216.917 710.616 217.424 711.812 217.606 712.54L218.724 712.059C218.542 711.318 217.996 710.174 217.476 709.29L216.423 709.719ZM210.807 710.057C211.379 710.707 212.055 711.591 212.367 712.176L213.316 711.422C212.991 710.876 212.276 710.018 211.691 709.407L210.807 710.057ZM220.128 709.953C219.725 712.527 219.101 714.88 217.801 716.804C216.553 715.023 215.812 712.735 215.357 710.083L214.213 710.265C214.772 713.333 215.591 715.894 216.982 717.844C216.098 718.832 214.967 719.651 213.524 720.275C213.745 720.535 214.083 721.003 214.239 721.289C215.682 720.626 216.839 719.794 217.762 718.806C218.711 719.833 219.881 720.639 221.337 721.224C221.532 720.899 221.922 720.392 222.208 720.145C220.739 719.625 219.556 718.819 218.594 717.792C220.128 715.686 220.882 713.06 221.376 710.148L220.128 709.953ZM210.027 713.151L210.027 714.334L211.743 714.334L211.743 718.611C211.743 719.313 211.379 719.807 211.119 720.028C211.327 720.197 211.691 720.626 211.821 720.886C212.029 720.6 212.419 720.301 214.785 718.598C214.668 718.351 214.486 717.87 214.408 717.545L212.926 718.572L212.926 713.151L210.027 713.151ZM223.118 710.876C224.002 711.396 225.133 712.189 225.666 712.735L226.446 711.721C225.887 711.188 224.743 710.46 223.859 709.992L223.118 710.876ZM222.936 719.079L224.08 719.924C224.886 718.702 225.809 717.233 226.55 715.868L225.588 715.062C224.756 716.518 223.677 718.117 222.936 719.079ZM228.266 709.108C227.876 711.201 227.122 713.255 226.082 714.503C226.407 714.659 227.018 714.997 227.278 715.192C227.798 714.464 228.279 713.528 228.682 712.462L233.154 712.462C232.907 713.32 232.569 714.217 232.283 714.815C232.582 714.945 233.076 715.192 233.336 715.335C233.791 714.399 234.363 712.995 234.701 711.682L233.791 711.162L233.557 711.24L229.098 711.24C229.293 710.629 229.449 709.992 229.592 709.342L228.266 709.108ZM229.748 712.982L229.748 713.801C229.748 715.595 229.436 718.416 225.601 720.275C225.913 720.509 226.355 720.951 226.55 721.25C228.89 720.067 230.034 718.507 230.58 717.012C231.308 718.91 232.426 720.314 234.22 721.081C234.402 720.756 234.779 720.236 235.052 719.989C232.816 719.183 231.633 717.246 231.048 714.75C231.061 714.425 231.074 714.113 231.074 713.827L231.074 712.982L229.748 712.982ZM241.123 709.316C240.902 709.81 240.499 710.551 240.187 711.019L240.98 711.383C241.331 710.967 241.747 710.33 242.15 709.745L241.123 709.316ZM236.495 709.745C236.833 710.278 237.158 710.993 237.262 711.448L238.198 711.032C238.081 710.577 237.73 709.888 237.379 709.381L236.495 709.745ZM240.59 716.83C240.317 717.402 239.953 717.909 239.524 718.338C239.095 718.117 238.653 717.909 238.224 717.714L238.718 716.83L240.59 716.83ZM236.729 718.117C237.34 718.364 238.029 718.689 238.666 719.027C237.873 719.56 236.937 719.937 235.923 720.158C236.131 720.392 236.365 720.821 236.482 721.094C237.665 720.769 238.757 720.288 239.667 719.573C240.083 719.82 240.447 720.054 240.733 720.275L241.474 719.469C241.188 719.274 240.837 719.066 240.46 718.845C241.136 718.091 241.656 717.168 241.981 716.024L241.318 715.777L241.123 715.816L239.212 715.816L239.459 715.218L238.38 715.01C238.276 715.27 238.172 715.543 238.042 715.816L236.326 715.816L236.326 716.83L237.522 716.83C237.262 717.311 236.976 717.753 236.729 718.117ZM238.666 709.095L238.666 711.474L236.079 711.474L236.079 712.462L238.289 712.462C237.652 713.216 236.729 713.918 235.884 714.269C236.118 714.503 236.391 714.919 236.534 715.192C237.262 714.789 238.042 714.165 238.666 713.476L238.666 714.854L239.81 714.854L239.81 713.229C240.382 713.658 241.045 714.191 241.357 714.49L242.02 713.619C241.747 713.437 240.798 712.839 240.148 712.462L242.384 712.462L242.384 711.474L239.81 711.474L239.81 709.095L238.666 709.095ZM243.541 709.186C243.242 711.487 242.657 713.684 241.63 715.049C241.89 715.218 242.358 715.621 242.54 715.816C242.826 715.387 243.099 714.906 243.333 714.373C243.606 715.517 243.944 716.57 244.386 717.519C243.671 718.689 242.683 719.586 241.318 720.223C241.539 720.457 241.864 720.964 241.981 721.224C243.268 720.548 244.243 719.703 244.984 718.637C245.608 719.651 246.388 720.47 247.35 721.055C247.532 720.756 247.883 720.314 248.156 720.093C247.116 719.534 246.297 718.637 245.647 717.519C246.31 716.206 246.726 714.62 246.999 712.709L247.857 712.709L247.857 711.578L244.243 711.578C244.412 710.863 244.555 710.109 244.672 709.342L243.541 709.186ZM245.855 712.709C245.673 714.048 245.413 715.205 245.023 716.219C244.594 715.153 244.269 713.97 244.048 712.709L245.855 712.709ZM258.187 713.632C257.355 713.632 256.679 714.308 256.679 715.14C256.679 715.972 257.355 716.648 258.187 716.648C259.019 716.648 259.695 715.972 259.695 715.14C259.695 714.308 259.019 713.632 258.187 713.632ZM268.477 720.08L274.665 720.08L274.665 718.793L272.26 718.793C271.792 718.793 271.194 718.845 270.7 718.897C272.728 716.96 274.21 715.049 274.21 713.203C274.21 711.474 273.079 710.33 271.324 710.33C270.063 710.33 269.218 710.863 268.399 711.76L269.244 712.592C269.764 711.994 270.388 711.539 271.129 711.539C272.208 711.539 272.741 712.241 272.741 713.281C272.741 714.854 271.298 716.713 268.477 719.209L268.477 720.08ZM279.033 720.262C280.892 720.262 282.114 718.585 282.114 715.257C282.114 711.955 280.892 710.33 279.033 710.33C277.148 710.33 275.926 711.942 275.926 715.257C275.926 718.585 277.148 720.262 279.033 720.262ZM279.033 719.066C278.058 719.066 277.369 718.013 277.369 715.257C277.369 712.514 278.058 711.513 279.033 711.513C279.995 711.513 280.684 712.514 280.684 715.257C280.684 718.013 279.995 719.066 279.033 719.066ZM287.899 720.262C289.199 720.262 290.278 719.768 290.915 719.131L290.915 714.984L287.652 714.984L287.652 716.232L289.537 716.232L289.537 718.468C289.212 718.754 288.64 718.936 288.055 718.936C286.066 718.936 285.013 717.532 285.013 715.27C285.013 713.021 286.196 711.643 287.977 711.643C288.9 711.643 289.485 712.033 289.966 712.501L290.772 711.539C290.2 710.928 289.29 710.33 287.938 710.33C285.39 710.33 283.453 712.202 283.453 715.309C283.453 718.455 285.338 720.262 287.899 720.262ZM293.099 720.08L296.297 720.08C298.429 720.08 299.963 719.17 299.963 717.272C299.963 715.972 299.17 715.218 298.078 714.997L298.078 714.932C298.949 714.646 299.443 713.775 299.443 712.852C299.443 711.136 298.026 710.499 296.076 710.499L293.099 710.499L293.099 720.08ZM294.607 714.503L294.607 711.682L295.933 711.682C297.285 711.682 297.961 712.072 297.961 713.06C297.961 713.957 297.35 714.503 295.894 714.503L294.607 714.503ZM294.607 718.897L294.607 715.647L296.128 715.647C297.649 715.647 298.481 716.128 298.481 717.194C298.481 718.364 297.623 718.897 296.128 718.897L294.607 718.897ZM308.426 715.569L308.426 716.57L304.942 716.57L304.942 717.714L308.426 717.714L308.426 719.781C308.426 719.95 308.374 720.002 308.14 720.015C307.919 720.028 307.152 720.028 306.372 720.002C306.528 720.34 306.684 720.821 306.736 721.172C307.828 721.172 308.569 721.172 309.05 720.99C309.544 720.808 309.661 720.47 309.661 719.807L309.661 717.714L312.976 717.714L312.976 716.57L309.661 716.57L309.661 715.946C310.584 715.335 311.533 714.555 312.222 713.801L311.442 713.177L311.182 713.242L306.008 713.242L306.008 714.36L310.038 714.36C309.544 714.815 308.959 715.257 308.426 715.569ZM305.423 709.095C305.28 709.654 305.098 710.226 304.877 710.798L301.276 710.798L301.276 711.981L304.357 711.981C303.525 713.684 302.355 715.244 300.834 716.284C301.029 716.57 301.315 717.103 301.445 717.428C301.952 717.077 302.42 716.687 302.849 716.258L302.849 721.159L304.084 721.159L304.084 714.815C304.734 713.944 305.28 712.982 305.735 711.981L312.755 711.981L312.755 710.798L306.229 710.798C306.398 710.343 306.554 709.875 306.697 709.407L305.423 709.095ZM317.201 710.395C317.773 710.967 318.41 711.773 318.683 712.293L319.567 711.669C319.268 711.136 318.605 710.382 318.033 709.836L317.201 710.395ZM319.593 712.969L319.593 714.074L321.92 714.074C321.127 714.906 320.217 715.608 319.242 716.167C319.489 716.388 319.892 716.869 320.035 717.103C320.308 716.934 320.568 716.752 320.828 716.557L320.828 721.133L321.881 721.133L321.881 720.522L324.39 720.522L324.39 721.081L325.495 721.081L325.495 715.361L322.219 715.361C322.635 714.958 323.025 714.529 323.402 714.074L326.028 714.074L326.028 712.969L324.221 712.969C324.884 711.981 325.469 710.902 325.937 709.732L324.845 709.446C324.611 710.044 324.351 710.616 324.052 711.162L324.052 710.486L322.674 710.486L322.674 709.108L321.556 709.108L321.556 710.486L319.996 710.486L319.996 711.539L321.556 711.539L321.556 712.969L319.593 712.969ZM322.674 711.539L323.844 711.539C323.545 712.046 323.22 712.514 322.869 712.969L322.674 712.969L322.674 711.539ZM321.881 718.377L324.39 718.377L324.39 719.521L321.881 719.521L321.881 718.377ZM321.881 717.48L321.881 716.362L324.39 716.362L324.39 717.48L321.881 717.48ZM317.981 720.717C318.176 720.47 318.514 720.236 320.399 719.079C320.308 718.858 320.178 718.429 320.113 718.117L318.969 718.767L318.969 713.203L316.707 713.203L316.707 714.386L317.916 714.386L317.916 718.637C317.916 719.209 317.604 719.573 317.383 719.729C317.591 719.95 317.877 720.444 317.981 720.717ZM316.135 709.069C315.615 711.006 314.757 712.969 313.769 714.256C313.951 714.542 314.263 715.166 314.354 715.439C314.64 715.062 314.913 714.646 315.173 714.204L315.173 721.146L316.239 721.146L316.239 712.046C316.603 711.162 316.928 710.252 317.188 709.355L316.135 709.069Z"></path></g></g><defs><clipPath id="clip-path-w_v3zwP85MB7VEvOW-yqH"><path d="M0 844L390 844L390 0L0 0L0 844Z" fill="white"/></clipPath></defs></svg>