<svg xmlns="http://www.w3.org/2000/svg" xmlns:xlink="http://www.w3.org/1999/xlink" width="390" height="844" viewBox="0 0 390 844" fill="none"><rect x="0" y="0" width="390" height="54"   fill="#E8F4FD" ></rect><g ><path     fill="#333333"  d="M33.66 38.61C35.775 38.61 37.755 36.84 37.755 32.505C37.755 28.845 36.045 27.15 33.93 27.15C32.145 27.15 30.63 28.59 30.63 30.78C30.63 33.09 31.89 34.26 33.735 34.26C34.575 34.26 35.505 33.765 36.135 32.985C36.045 36.105 34.92 37.17 33.57 37.17C32.88 37.17 32.205 36.855 31.77 36.345L30.825 37.425C31.47 38.085 32.37 38.61 33.66 38.61ZM36.12 31.65C35.49 32.61 34.71 33 34.035 33C32.88 33 32.25 32.175 32.25 30.78C32.25 29.34 33 28.485 33.96 28.485C35.145 28.485 35.955 29.475 36.12 31.65ZM40.785 32.7C41.445 32.7 41.955 32.205 41.955 31.5C41.955 30.78 41.445 30.27 40.785 30.27C40.14 30.27 39.63 30.78 39.63 31.5C39.63 32.205 40.14 32.7 40.785 32.7ZM40.785 38.61C41.445 38.61 41.955 38.085 41.955 37.38C41.955 36.675 41.445 36.165 40.785 36.165C40.14 36.165 39.63 36.675 39.63 37.38C39.63 38.085 40.14 38.61 40.785 38.61ZM48.105 38.4L49.725 38.4L49.725 35.43L51.12 35.43L51.12 34.08L49.725 34.08L49.725 27.345L47.715 27.345L43.32 34.275L43.32 35.43L48.105 35.43L48.105 38.4ZM48.105 34.08L45.075 34.08L47.235 30.765C47.55 30.195 47.85 29.625 48.12 29.055L48.18 29.055C48.15 29.67 48.105 30.6 48.105 31.2L48.105 34.08ZM52.845 38.4L59.16 38.4L59.16 36.975L57.015 36.975L57.015 27.345L55.71 27.345C55.065 27.75 54.33 28.02 53.295 28.2L53.295 29.295L55.275 29.295L55.275 36.975L52.845 36.975L52.845 38.4Z"></path></g><g ><path     fill="#333333"  d="M341.5 40.2L353.5 40.2L353.5 25.2L341.5 25.2L341.5 40.2ZM347.5 32.085L342.73 25.95L352.27 25.95L347.5 32.085ZM347.98 32.7L352.75 26.565L352.75 38.835L347.98 32.7ZM342.73 39.45L347.5 33.315L352.27 39.45L342.73 39.45ZM342.25 26.565L347.02 32.7L342.25 38.835L342.25 26.565ZM356.5 40.2L368.5 40.2L368.5 25.2L356.5 25.2L356.5 40.2ZM362.5 32.085L357.73 25.95L367.27 25.95L362.5 32.085ZM362.98 32.7L367.75 26.565L367.75 38.835L362.98 32.7ZM357.73 39.45L362.5 33.315L367.27 39.45L357.73 39.45ZM357.25 26.565L362.02 32.7L357.25 38.835L357.25 26.565ZM371.5 40.2L383.5 40.2L383.5 25.2L371.5 25.2L371.5 40.2ZM377.5 32.085L372.73 25.95L382.27 25.95L377.5 32.085ZM377.98 32.7L382.75 26.565L382.75 38.835L377.98 32.7ZM372.73 39.45L377.5 33.315L382.27 39.45L372.73 39.45ZM372.25 26.565L377.02 32.7L372.25 38.835L372.25 26.565Z"></path></g><g opacity="0.15"><circle cx="195" cy="140" r="50"   fill="#5B9BD5" ></circle></g><g opacity="0.25"><circle cx="195" cy="140" r="38"   fill="#5B9BD5" ></circle></g><circle cx="195" cy="140" r="26"   fill="#5B9BD5" ></circle><path    stroke="rgba(255, 255, 255, 1.00)" stroke-width="2.5"  stroke-linecap="round"  d="M195 120L195 155"></path><path   fill="rgba(255, 255, 255, 1.00)"  d="M195 124C201.075 124 206 128.925 206 135L206 143C206 149.075 201.075 154 195 154C188.925 154 184 149.075 184 143L184 135C184 128.925 188.925 124 195 124ZM195 126C190.029 126 186 130.029 186 135L186 143C186 147.971 190.029 152 195 152C199.971 152 204 147.971 204 143L204 135C204 130.029 199.971 126 195 126Z"></path><path     fill="#000000"  d="M190 138L200 148"></path><path    stroke="rgba(255, 255, 255, 1.00)" stroke-width="2"  stroke-linecap="round"  d="M190 138L200 148"></path><path     fill="#000000"  d="M200 138L190 148"></path><path    stroke="rgba(255, 255, 255, 1.00)" stroke-width="2"  stroke-linecap="round"  d="M200 138L190 148"></path><g ><path     fill="#2C5F8A"  d="M121.082 220.668C122.07 220.304 123.526 220.2 137.306 219.03C137.904 219.81 138.424 220.564 138.788 221.214L140.53 220.148C139.386 218.198 136.916 215.39 134.576 213.31L132.938 214.194C133.952 215.13 134.992 216.222 135.928 217.314L124.098 218.224C125.944 216.508 127.79 214.428 129.402 212.296L140.868 212.296L140.868 210.398L119.314 210.398L119.314 212.296L126.75 212.296C125.06 214.61 123.084 216.664 122.382 217.288C121.576 218.042 120.978 218.536 120.406 218.666C120.64 219.186 120.978 220.226 121.082 220.668ZM130.104 197.32C127.764 200.804 123.188 204.106 118.092 206.264C118.56 206.628 119.236 207.46 119.522 207.954C121.03 207.252 122.486 206.472 123.864 205.614L123.864 207.2L136.266 207.2L136.266 205.38L124.202 205.38C126.438 203.924 128.44 202.286 130.078 200.492C131.638 202.104 133.822 203.872 136.266 205.38C137.67 206.264 139.178 207.044 140.66 207.642C140.972 207.122 141.622 206.316 142.038 205.926C137.826 204.47 133.588 201.636 131.196 199.166L131.976 198.126L130.104 197.32ZM157.092 198.542C158.132 200.284 159.224 202.598 159.64 204.028L161.408 203.222C160.992 201.792 159.822 199.556 158.73 197.84L157.092 198.542ZM145.938 199.114C147.108 200.336 148.512 202.052 149.188 203.144L150.67 201.922C149.994 200.856 148.538 199.244 147.342 198.048L145.938 199.114ZM164.632 198.932C163.774 204.34 162.422 209.202 159.64 213.102C157.014 209.462 155.428 204.756 154.492 199.244L152.646 199.556C153.764 205.718 155.454 210.84 158.314 214.74C156.494 216.794 154.128 218.51 151.086 219.81C151.45 220.226 151.996 220.954 152.256 221.422C155.272 220.07 157.664 218.302 159.562 216.248C161.512 218.432 163.956 220.122 166.972 221.318C167.284 220.798 167.908 220.018 168.376 219.628C165.308 218.536 162.864 216.846 160.888 214.662C164.034 210.45 165.594 205.172 166.634 199.244L164.632 198.932ZM144.196 205.458L144.196 207.356L147.862 207.356L147.862 216.534C147.862 217.886 147.16 218.77 146.744 219.186C147.082 219.472 147.654 220.148 147.862 220.564C148.278 220.044 148.954 219.524 153.53 216.274C153.322 215.884 153.036 215.13 152.88 214.61L149.76 216.768L149.76 205.458L144.196 205.458ZM170.066 217.782L170.404 219.732C172.978 219.212 176.514 218.51 179.894 217.834L179.738 216.066C176.202 216.716 172.484 217.418 170.066 217.782ZM170.56 208.136C171.002 207.928 171.678 207.798 175.318 207.356C174.018 208.994 172.822 210.294 172.276 210.788C171.366 211.724 170.716 212.348 170.092 212.478C170.326 212.998 170.664 213.96 170.768 214.376C171.34 214.064 172.302 213.856 179.634 212.712C179.582 212.296 179.53 211.516 179.556 211.022L173.732 211.828C175.994 209.592 178.256 206.81 180.206 203.95L178.49 202.832C177.944 203.768 177.32 204.704 176.67 205.588L172.796 205.926C174.512 203.742 176.228 200.96 177.606 198.204L175.682 197.372C174.382 200.492 172.224 203.794 171.548 204.652C170.924 205.51 170.43 206.108 169.91 206.212C170.144 206.732 170.456 207.694 170.56 208.136ZM180.96 199.01L180.96 200.934L190.424 200.934L190.424 207.538L181.376 207.538L181.376 217.626C181.376 220.096 182.234 220.72 185.016 220.72C185.614 220.72 189.8 220.72 190.45 220.72C193.154 220.72 193.778 219.524 194.038 215.338C193.492 215.208 192.66 214.87 192.192 214.506C192.036 218.198 191.802 218.874 190.346 218.874C189.41 218.874 185.874 218.874 185.172 218.874C183.638 218.874 183.378 218.64 183.378 217.626L183.378 209.41L190.424 209.41L190.424 210.736L192.374 210.736L192.374 199.01L180.96 199.01ZM212.472 213.128C211.614 214.636 210.418 215.806 208.832 216.742C206.934 216.274 204.984 215.858 203.06 215.494C203.606 214.792 204.23 213.986 204.828 213.128L212.472 213.128ZM198.094 202.39L198.094 209.124L205.036 209.124C204.672 209.852 204.23 210.632 203.736 211.412L196.404 211.412L196.404 213.128L202.566 213.128C201.656 214.402 200.694 215.598 199.836 216.534C202.046 216.95 204.204 217.392 206.258 217.886C203.71 218.77 200.486 219.264 196.534 219.498C196.872 219.94 197.184 220.642 197.34 221.188C202.254 220.772 206.128 220.018 209.066 218.588C212.368 219.472 215.228 220.382 217.36 221.24L219.024 219.732C216.944 218.952 214.214 218.12 211.198 217.314C212.68 216.222 213.824 214.844 214.63 213.128L219.622 213.128L219.622 211.412L205.972 211.412C206.388 210.736 206.778 210.06 207.116 209.41L205.92 209.124L218.088 209.124L218.088 202.39L211.822 202.39L211.822 200.18L219.18 200.18L219.18 198.438L196.794 198.438L196.794 200.18L203.892 200.18L203.892 202.39L198.094 202.39ZM205.738 200.18L209.976 200.18L209.976 202.39L205.738 202.39L205.738 200.18ZM199.94 204.002L203.892 204.002L203.892 207.538L199.94 207.538L199.94 204.002ZM205.738 204.002L209.976 204.002L209.976 207.538L205.738 207.538L205.738 204.002ZM211.822 204.002L216.164 204.002L216.164 207.538L211.822 207.538L211.822 204.002ZM237.458 197.32C237.458 199.322 237.458 201.324 237.406 203.222L233.116 203.222L233.116 205.068L237.328 205.068C236.964 211.36 235.638 216.742 230.646 219.836C231.114 220.174 231.764 220.824 232.076 221.292C237.38 217.808 238.81 211.906 239.2 205.068L243.256 205.068C243.022 214.584 242.762 218.068 242.086 218.874C241.852 219.186 241.566 219.264 241.098 219.264C240.552 219.264 239.2 219.238 237.718 219.134C238.056 219.654 238.264 220.46 238.316 221.006C239.694 221.084 241.098 221.11 241.904 221.032C242.736 220.954 243.282 220.72 243.776 220.018C244.634 218.9 244.894 215.182 245.154 204.184C245.154 203.95 245.154 203.222 245.154 203.222L239.278 203.222C239.356 201.298 239.356 199.322 239.356 197.32L237.458 197.32ZM221.884 216.69L222.248 218.692C225.368 217.964 229.736 216.95 233.844 215.988L233.688 214.22L232.258 214.532L232.258 198.594L223.756 198.594L223.756 216.326L221.884 216.69ZM225.524 215.962L225.524 211.49L230.412 211.49L230.412 214.948L225.524 215.962ZM225.524 205.926L230.412 205.926L230.412 209.748L225.524 209.748L225.524 205.926ZM225.524 204.184L225.524 200.362L230.412 200.362L230.412 204.184L225.524 204.184ZM248.3 210.788L248.3 212.712L259.038 212.712L259.038 218.51C259.038 219.03 258.804 219.212 258.232 219.238C257.634 219.238 255.58 219.264 253.396 219.212C253.708 219.732 254.072 220.59 254.228 221.136C256.958 221.162 258.674 221.136 259.662 220.798C260.624 220.486 261.04 219.914 261.04 218.51L261.04 212.712L271.778 212.712L271.778 210.788L261.04 210.788L261.04 206.576L270.296 206.576L270.296 204.704L261.04 204.704L261.04 200.466C264.108 200.102 266.968 199.582 269.178 198.932L267.748 197.346C263.77 198.594 256.204 199.27 250.016 199.582C250.198 199.998 250.432 200.778 250.484 201.272C253.188 201.168 256.152 200.986 259.038 200.7L259.038 204.704L250.042 204.704L250.042 206.576L259.038 206.576L259.038 210.788L248.3 210.788Z"></path></g><g ><path     fill="#7BA8C9"  d="M141.277 233.097L143.981 233.097L143.981 235.866L141.277 235.866L141.277 233.097ZM140.367 232.213L140.367 236.75L144.93 236.75L144.93 232.213L140.367 232.213ZM136.779 240.546L142.837 240.546L142.837 241.833L136.779 241.833L136.779 240.546ZM136.779 239.779L136.779 238.557L142.837 238.557L142.837 239.779L136.779 239.779ZM135.817 237.751L135.817 243.12L136.779 243.12L136.779 242.639L142.837 242.639L142.837 243.094L143.825 243.094L143.825 237.751L135.817 237.751ZM135.388 231.121C135.102 232.096 134.582 233.071 133.932 233.734C134.153 233.838 134.53 234.072 134.712 234.215C134.998 233.89 135.271 233.487 135.531 233.032L136.636 233.032L136.636 233.799L136.61 234.267L133.932 234.267L133.932 235.073L136.441 235.073C136.155 235.866 135.466 236.724 133.802 237.374C134.023 237.543 134.309 237.842 134.439 238.05C135.804 237.439 136.584 236.698 137.026 235.944C137.676 236.386 138.651 237.088 139.041 237.4L139.717 236.737C139.34 236.477 137.858 235.567 137.325 235.281L137.39 235.073L139.821 235.073L139.821 234.267L137.546 234.267L137.559 233.799L137.559 233.032L139.483 233.032L139.483 232.239L135.934 232.239C136.064 231.94 136.181 231.615 136.285 231.303L135.388 231.121ZM151.261 236.62L151.261 237.738L148.492 237.738L148.492 236.62L151.261 236.62ZM147.582 235.788L147.582 243.107L148.492 243.107L148.492 240.455L151.261 240.455L151.261 241.976C151.261 242.145 151.222 242.197 151.053 242.197C150.858 242.21 150.312 242.21 149.701 242.184C149.831 242.444 149.974 242.821 150.026 243.081C150.845 243.081 151.404 243.068 151.768 242.925C152.119 242.769 152.223 242.496 152.223 241.989L152.223 235.788L147.582 235.788ZM148.492 238.505L151.261 238.505L151.261 239.688L148.492 239.688L148.492 238.505ZM157.436 232.135C156.695 232.525 155.525 232.993 154.407 233.37L154.407 231.186L153.445 231.186L153.445 235.502C153.445 236.568 153.77 236.867 155.018 236.867C155.278 236.867 156.968 236.867 157.254 236.867C158.281 236.867 158.58 236.438 158.684 234.852C158.411 234.787 158.021 234.644 157.826 234.475C157.761 235.762 157.67 235.983 157.163 235.983C156.799 235.983 155.369 235.983 155.096 235.983C154.511 235.983 154.407 235.905 154.407 235.489L154.407 234.163C155.668 233.799 157.059 233.331 158.086 232.863L157.436 232.135ZM157.592 237.933C156.838 238.414 155.59 238.921 154.407 239.311L154.407 237.231L153.445 237.231L153.445 241.625C153.445 242.717 153.783 243.003 155.044 243.003C155.317 243.003 157.033 243.003 157.319 243.003C158.411 243.003 158.684 242.535 158.801 240.793C158.541 240.728 158.151 240.572 157.93 240.416C157.878 241.885 157.774 242.132 157.241 242.132C156.864 242.132 155.421 242.132 155.135 242.132C154.524 242.132 154.407 242.054 154.407 241.638L154.407 240.117C155.72 239.753 157.215 239.246 158.229 238.661L157.592 237.933ZM147.374 234.891C147.647 234.774 148.102 234.709 151.664 234.462C151.781 234.709 151.885 234.943 151.963 235.151L152.808 234.761C152.535 233.981 151.807 232.811 151.131 231.94L150.338 232.252C150.663 232.694 150.988 233.214 151.274 233.721L148.414 233.877C148.973 233.188 149.558 232.317 150.013 231.446L148.999 231.134C148.583 232.148 147.868 233.175 147.647 233.448C147.426 233.721 147.231 233.916 147.036 233.955C147.153 234.215 147.322 234.683 147.374 234.891ZM161.323 242.834C161.817 242.652 162.545 242.6 169.435 242.015C169.734 242.405 169.994 242.782 170.176 243.107L171.047 242.574C170.475 241.599 169.24 240.195 168.07 239.155L167.251 239.597C167.758 240.065 168.278 240.611 168.746 241.157L162.831 241.612C163.754 240.754 164.677 239.714 165.483 238.648L171.216 238.648L171.216 237.699L160.439 237.699L160.439 238.648L164.157 238.648C163.312 239.805 162.324 240.832 161.973 241.144C161.57 241.521 161.271 241.768 160.985 241.833C161.102 242.093 161.271 242.613 161.323 242.834ZM165.834 231.16C164.664 232.902 162.376 234.553 159.828 235.632C160.062 235.814 160.4 236.23 160.543 236.477C161.297 236.126 162.025 235.736 162.714 235.307L162.714 236.1L168.915 236.1L168.915 235.19L162.883 235.19C164.001 234.462 165.002 233.643 165.821 232.746C166.601 233.552 167.693 234.436 168.915 235.19C169.617 235.632 170.371 236.022 171.112 236.321C171.268 236.061 171.593 235.658 171.801 235.463C169.695 234.735 167.576 233.318 166.38 232.083L166.77 231.563L165.834 231.16ZM179.328 231.771C179.848 232.642 180.394 233.799 180.602 234.514L181.486 234.111C181.278 233.396 180.693 232.278 180.147 231.42L179.328 231.771ZM173.751 232.057C174.336 232.668 175.038 233.526 175.376 234.072L176.117 233.461C175.779 232.928 175.051 232.122 174.453 231.524L173.751 232.057ZM183.098 231.966C182.669 234.67 181.993 237.101 180.602 239.051C179.289 237.231 178.496 234.878 178.028 232.122L177.105 232.278C177.664 235.359 178.509 237.92 179.939 239.87C179.029 240.897 177.846 241.755 176.325 242.405C176.507 242.613 176.78 242.977 176.91 243.211C178.418 242.535 179.614 241.651 180.563 240.624C181.538 241.716 182.76 242.561 184.268 243.159C184.424 242.899 184.736 242.509 184.97 242.314C183.436 241.768 182.214 240.923 181.226 239.831C182.799 237.725 183.579 235.086 184.099 232.122L183.098 231.966ZM172.88 235.229L172.88 236.178L174.713 236.178L174.713 240.767C174.713 241.443 174.362 241.885 174.154 242.093C174.323 242.236 174.609 242.574 174.713 242.782C174.921 242.522 175.259 242.262 177.547 240.637C177.443 240.442 177.3 240.065 177.222 239.805L175.662 240.884L175.662 235.229L172.88 235.229ZM195 235.762C194.233 235.762 193.622 236.373 193.622 237.14C193.622 237.907 194.233 238.518 195 238.518C195.767 238.518 196.378 237.907 196.378 237.14C196.378 236.373 195.767 235.762 195 235.762ZM205.29 236.477L205.29 237.543L217.198 237.543L217.198 236.477L205.29 236.477ZM218.381 237.582L218.381 238.466L219.863 238.466L219.863 241.001C219.863 241.612 219.434 242.067 219.213 242.236C219.382 242.405 219.642 242.756 219.746 242.964C219.928 242.717 220.24 242.483 222.268 241.066C222.164 240.91 222.034 240.572 221.969 240.325L220.695 241.183L220.695 238.466L222.138 238.466L222.138 237.582L220.695 237.582L220.695 235.814L222.008 235.814L222.008 234.956L218.914 234.956C219.226 234.527 219.512 234.046 219.772 233.513L222.06 233.513L222.06 232.616L220.162 232.616C220.331 232.2 220.487 231.771 220.604 231.342L219.746 231.121C219.395 232.434 218.784 233.695 218.056 234.54C218.238 234.722 218.524 235.138 218.628 235.32L218.875 235.008L218.875 235.814L219.863 235.814L219.863 237.582L218.381 237.582ZM225.232 232.187L225.232 232.902L226.779 232.902L226.779 233.942L224.907 233.942L224.907 234.696L226.779 234.696L226.779 235.749L225.232 235.749L225.232 236.477L226.779 236.477L226.779 237.465L225.193 237.465L225.193 238.232L226.779 238.232L226.779 239.298L224.868 239.298L224.868 240.065L226.779 240.065L226.779 241.664L227.559 241.664L227.559 240.065L229.964 240.065L229.964 239.298L227.559 239.298L227.559 238.232L229.678 238.232L229.678 237.465L227.559 237.465L227.559 236.477L229.47 236.477L229.47 234.696L230.263 234.696L230.263 233.942L229.47 233.942L229.47 232.187L227.559 232.187L227.559 231.199L226.779 231.199L226.779 232.187L225.232 232.187ZM227.559 234.696L228.742 234.696L228.742 235.749L227.559 235.749L227.559 234.696ZM227.559 233.942L227.559 232.902L228.742 232.902L228.742 233.942L227.559 233.942ZM222.489 236.776C222.489 236.711 222.58 236.633 222.684 236.555L224.062 236.555C223.958 237.608 223.789 238.531 223.555 239.324C223.36 238.869 223.178 238.349 223.035 237.738L222.372 238.011C222.606 238.921 222.892 239.675 223.217 240.286C222.788 241.3 222.203 242.028 221.475 242.496C221.644 242.678 221.852 242.977 221.969 243.185C222.697 242.678 223.282 242.002 223.737 241.092C224.894 242.587 226.467 242.938 228.261 242.938L229.964 242.938C230.016 242.704 230.133 242.314 230.263 242.093C229.834 242.106 228.625 242.106 228.313 242.106C226.675 242.106 225.154 241.781 224.088 240.273C224.504 239.103 224.777 237.634 224.894 235.775L224.413 235.71L224.27 235.723L223.451 235.723C223.997 234.722 224.543 233.435 224.985 232.148L224.439 231.784L224.179 231.914L222.307 231.914L222.307 232.824L223.867 232.824C223.49 233.942 222.996 234.982 222.814 235.294C222.606 235.697 222.307 236.048 222.086 236.1C222.216 236.269 222.411 236.607 222.489 236.776ZM233.825 231.368C233.331 233.227 232.486 235.034 231.42 236.191C231.667 236.321 232.096 236.607 232.291 236.776C232.785 236.191 233.24 235.45 233.656 234.631L236.737 234.631L236.737 237.504L232.863 237.504L232.863 238.44L236.737 238.44L236.737 241.755L231.433 241.755L231.433 242.704L243.055 242.704L243.055 241.755L237.751 241.755L237.751 238.44L241.963 238.44L241.963 237.504L237.751 237.504L237.751 234.631L242.431 234.631L242.431 233.682L237.751 233.682L237.751 231.16L236.737 231.16L236.737 233.682L234.085 233.682C234.371 233.019 234.618 232.304 234.813 231.589L233.825 231.368ZM250.79 231.173C250.79 231.914 250.816 232.655 250.855 233.37L245.382 233.37L245.382 237.023C245.382 238.713 245.265 240.962 244.186 242.561C244.42 242.678 244.836 243.016 245.005 243.211C246.201 241.495 246.396 238.869 246.396 237.036L246.396 236.945L248.775 236.945C248.723 239.181 248.658 240.013 248.489 240.208C248.385 240.325 248.268 240.351 248.073 240.351C247.852 240.351 247.293 240.351 246.695 240.286C246.851 240.533 246.955 240.923 246.968 241.196C247.605 241.235 248.203 241.235 248.541 241.209C248.892 241.17 249.113 241.079 249.321 240.832C249.594 240.481 249.659 239.376 249.724 236.451C249.724 236.321 249.737 236.035 249.737 236.035L246.396 236.035L246.396 234.319L250.92 234.319C251.076 236.425 251.388 238.349 251.882 239.844C251.024 240.832 250.023 241.638 248.866 242.249C249.074 242.444 249.425 242.847 249.581 243.055C250.582 242.457 251.479 241.742 252.272 240.884C252.87 242.223 253.65 243.029 254.651 243.029C255.652 243.029 256.016 242.379 256.185 240.156C255.925 240.065 255.561 239.844 255.34 239.623C255.262 241.352 255.106 242.028 254.729 242.028C254.066 242.028 253.481 241.287 253 240.013C253.962 238.765 254.729 237.283 255.288 235.58L254.313 235.333C253.897 236.646 253.338 237.829 252.636 238.869C252.298 237.608 252.051 236.061 251.908 234.319L256.081 234.319L256.081 233.37L251.856 233.37C251.817 232.655 251.804 231.927 251.804 231.173L250.79 231.173ZM252.441 231.81C253.273 232.239 254.274 232.902 254.768 233.37L255.379 232.694C254.872 232.252 253.845 231.615 253.026 231.212L252.441 231.81Z"></path></g><g ><path     fill="#4A6A85"  d="M40.644 302.662L40.644 303.95L46.328 303.95L46.328 306.694C46.328 306.988 46.216 307.086 45.894 307.086C45.572 307.1 44.438 307.1 43.318 307.072C43.528 307.422 43.78 308.01 43.878 308.374C45.334 308.388 46.286 308.36 46.888 308.15C47.476 307.94 47.714 307.576 47.714 306.722L47.714 303.95L53.384 303.95L53.384 302.662L47.714 302.662L47.714 300.646L52.572 300.646L52.572 299.386L47.714 299.386L47.714 297.3C49.324 297.104 50.836 296.852 52.054 296.502L51.074 295.424C48.862 296.054 44.886 296.432 41.526 296.586C41.652 296.88 41.82 297.412 41.862 297.748C43.276 297.692 44.816 297.594 46.328 297.454L46.328 299.386L41.596 299.386L41.596 300.646L46.328 300.646L46.328 302.662L40.644 302.662ZM60.902 296.222L60.902 300.73C60.902 302.872 60.734 305.644 58.844 307.562C59.152 307.73 59.656 308.164 59.866 308.402C61.896 306.358 62.19 303.096 62.19 300.744L62.19 297.482L64.444 297.482L64.444 306.218C64.444 307.436 64.542 307.716 64.794 307.954C65.004 308.178 65.368 308.276 65.676 308.276C65.858 308.276 66.194 308.276 66.404 308.276C66.712 308.276 66.992 308.206 67.216 308.052C67.426 307.898 67.552 307.646 67.636 307.24C67.692 306.862 67.748 305.84 67.762 305.07C67.44 304.958 67.048 304.748 66.782 304.51C66.782 305.42 66.754 306.12 66.726 306.442C66.712 306.75 66.67 306.876 66.614 306.96C66.558 307.03 66.46 307.058 66.362 307.058C66.264 307.058 66.124 307.058 66.04 307.058C65.956 307.058 65.886 307.03 65.83 306.974C65.774 306.904 65.76 306.666 65.76 306.246L65.76 296.222L60.902 296.222ZM56.898 295.424L56.898 298.378L54.686 298.378L54.686 299.638L56.73 299.638C56.24 301.472 55.302 303.53 54.336 304.664C54.56 304.986 54.868 305.532 55.008 305.896C55.708 305 56.38 303.614 56.898 302.144L56.898 308.402L58.172 308.402L58.172 302.2C58.662 302.872 59.222 303.67 59.474 304.132L60.258 303.054C59.95 302.69 58.662 301.192 58.172 300.702L58.172 299.638L60.132 299.638L60.132 298.378L58.172 298.378L58.172 295.424L56.898 295.424ZM71.836 297.118L78.08 297.118L78.08 298.77L71.836 298.77L71.836 297.118ZM70.52 295.956L70.52 299.932L79.48 299.932L79.48 295.956L70.52 295.956ZM68.812 301.024L68.812 302.228L71.584 302.228C71.304 303.124 70.968 304.076 70.674 304.762L77.94 304.762C77.716 306.12 77.478 306.806 77.156 307.044C76.988 307.17 76.806 307.184 76.484 307.184C76.078 307.184 75.042 307.17 74.076 307.072C74.328 307.436 74.51 307.954 74.538 308.346C75.504 308.388 76.428 308.388 76.932 308.374C77.534 308.346 77.926 308.248 78.29 307.926C78.808 307.464 79.144 306.414 79.452 304.146C79.494 303.95 79.522 303.558 79.522 303.558L72.634 303.558L73.082 302.228L81.118 302.228L81.118 301.024L68.812 301.024ZM85.6338 309.76L86.7678 309.76L90.6318 296.054L89.5258 296.054L85.6338 309.76ZM96.6316 302.522L98.1016 302.522L98.1016 305.434L96.6316 305.434L96.6316 302.522ZM96.6316 301.388L96.6316 298.714L98.1016 298.714L98.1016 301.388L96.6316 301.388ZM100.678 302.522L100.678 305.434L99.2496 305.434L99.2496 302.522L100.678 302.522ZM100.678 301.388L99.2496 301.388L99.2496 298.714L100.678 298.714L100.678 301.388ZM98.0316 295.438L98.0316 297.566L95.4836 297.566L95.4836 307.534L96.6316 307.534L96.6316 306.568L100.678 306.568L100.678 307.338L101.882 307.338L101.882 297.566L99.3196 297.566L99.3196 295.438L98.0316 295.438ZM103.058 296.138L103.058 308.402L104.206 308.402L104.206 297.384L106.152 297.384C105.788 298.476 105.284 299.904 104.808 301.01C106.026 302.214 106.362 303.236 106.362 304.076C106.376 304.552 106.278 304.944 106.012 305.112C105.844 305.21 105.648 305.238 105.424 305.252C105.172 305.252 104.808 305.252 104.416 305.21C104.626 305.574 104.752 306.12 104.78 306.456C105.186 306.484 105.634 306.47 105.984 306.428C106.334 306.386 106.642 306.302 106.894 306.12C107.384 305.784 107.594 305.098 107.594 304.202C107.594 303.25 107.314 302.144 106.096 300.842C106.656 299.568 107.3 297.972 107.804 296.67L106.88 296.082L106.684 296.138L103.058 296.138ZM116.624 303.292L119.914 303.292L119.914 304.496L116.624 304.496L116.624 303.292ZM116.624 302.284L116.624 301.122L119.914 301.122L119.914 302.284L116.624 302.284ZM116.624 305.504L119.914 305.504L119.914 306.722L116.624 306.722L116.624 305.504ZM115.35 299.946L115.35 308.388L116.624 308.388L116.624 307.814L119.914 307.814L119.914 308.318L121.258 308.318L121.258 299.946L115.35 299.946ZM110.926 295.34C110.492 296.726 109.708 298.126 108.826 299.022C109.134 299.19 109.68 299.554 109.932 299.75C110.38 299.232 110.828 298.574 111.234 297.846L111.612 297.846C111.892 298.378 112.144 298.994 112.298 299.442L111.584 299.442L111.584 300.926L109.218 300.926L109.218 302.144L111.346 302.144C110.716 303.558 109.708 305.07 108.77 305.896C109.064 306.162 109.414 306.61 109.61 306.932C110.282 306.232 110.996 305.21 111.584 304.146L111.584 308.43L112.858 308.43L112.858 303.964C113.39 304.552 113.95 305.224 114.23 305.63L115.07 304.594C114.762 304.272 113.474 303.068 112.858 302.564L112.858 302.144L114.944 302.144L114.944 300.926L112.858 300.926L112.858 299.442L112.83 299.442L113.502 299.148C113.39 298.798 113.18 298.308 112.928 297.846L115.21 297.846L115.21 296.726L111.78 296.726C111.934 296.376 112.074 296.012 112.2 295.662L110.926 295.34ZM116.512 295.34C116.092 296.712 115.322 298.042 114.398 298.882C114.72 299.05 115.266 299.428 115.518 299.638C115.98 299.162 116.428 298.532 116.834 297.846L117.52 297.846C117.968 298.448 118.416 299.176 118.598 299.666L119.732 299.19C119.578 298.812 119.27 298.322 118.92 297.846L121.72 297.846L121.72 296.726L117.394 296.726C117.548 296.376 117.688 296.026 117.8 295.662L116.512 295.34Z"></path></g><g opacity="0.8"><rect  x="40" y="315" width="310" height="48" rx="12"    fill="#FFFFFF" ></rect></g><g ><path     fill="#B0C4DE"  d="M61.605 336.82C62.385 337.525 63.375 338.515 63.84 339.145L64.605 338.35C64.14 337.735 63.12 336.805 62.325 336.13L61.605 336.82ZM60.63 340.51L60.63 341.59L62.88 341.59L62.88 347.08C62.88 347.74 62.43 348.19 62.16 348.37C62.355 348.595 62.655 349.06 62.76 349.33C62.97 349.015 63.36 348.7 65.895 346.75C65.775 346.525 65.595 346.09 65.52 345.79L63.96 346.96L63.96 340.51L60.63 340.51ZM67.41 345.22L72.12 345.22L72.12 346.45L67.41 346.45L67.41 345.22ZM67.41 344.425L67.41 343.27L72.12 343.27L72.12 344.425L67.41 344.425ZM69.21 335.8L69.21 336.97L65.73 336.97L65.73 337.84L69.21 337.84L69.21 338.8L66.105 338.8L66.105 339.625L69.21 339.625L69.21 340.66L65.28 340.66L65.28 341.53L74.4 341.53L74.4 340.66L70.32 340.66L70.32 339.625L73.485 339.625L73.485 338.8L70.32 338.8L70.32 337.84L73.935 337.84L73.935 336.97L70.32 336.97L70.32 335.8L69.21 335.8ZM66.36 342.4L66.36 349.585L67.41 349.585L67.41 347.275L72.12 347.275L72.12 348.325C72.12 348.505 72.045 348.565 71.85 348.58C71.64 348.595 70.92 348.595 70.155 348.565C70.305 348.835 70.44 349.255 70.485 349.54C71.55 349.54 72.24 349.54 72.645 349.36C73.08 349.195 73.2 348.895 73.2 348.34L73.2 342.4L66.36 342.4ZM86.01 341.695L86.01 347.125L86.895 347.125L86.895 341.695L86.01 341.695ZM87.915 341.14L87.915 348.325C87.915 348.49 87.855 348.535 87.69 348.55C87.495 348.55 86.895 348.55 86.205 348.535C86.355 348.805 86.475 349.21 86.505 349.465C87.39 349.465 87.99 349.45 88.35 349.3C88.725 349.135 88.83 348.865 88.83 348.325L88.83 341.14L87.915 341.14ZM76.065 343.45C76.185 343.33 76.62 343.24 77.1 343.24L78.285 343.24L78.285 345.31C77.28 345.55 76.35 345.76 75.63 345.895L75.885 346.96L78.285 346.345L78.285 349.585L79.275 349.585L79.275 346.09L80.52 345.76L80.43 344.815L79.275 345.085L79.275 343.24L80.475 343.24L80.475 342.205L79.275 342.205L79.275 339.925L78.285 339.925L78.285 342.205L76.98 342.205C77.37 341.155 77.745 339.91 78.045 338.62L80.505 338.62L80.505 337.6L78.255 337.6C78.375 337.06 78.465 336.52 78.54 335.995L77.49 335.815C77.43 336.4 77.355 337.015 77.25 337.6L75.705 337.6L75.705 338.62L77.055 338.62C76.785 339.865 76.5 340.885 76.365 341.275C76.155 341.95 75.975 342.43 75.72 342.505C75.84 342.76 76.005 343.24 76.065 343.45ZM84.885 335.755C83.895 337.33 82.035 338.815 80.22 339.655C80.49 339.88 80.79 340.225 80.955 340.495C81.36 340.285 81.765 340.045 82.155 339.79L82.155 340.42L87.705 340.42L87.705 339.685C88.08 339.91 88.485 340.135 88.89 340.345C89.025 340.045 89.34 339.685 89.61 339.46C88.035 338.785 86.61 337.93 85.47 336.655L85.8 336.16L84.885 335.755ZM82.59 339.49C83.43 338.875 84.225 338.155 84.885 337.39C85.65 338.23 86.475 338.905 87.39 339.49L82.59 339.49ZM84.21 342.31L84.21 343.495L82.155 343.495L82.155 342.31L84.21 342.31ZM81.225 341.41L81.225 349.54L82.155 349.54L82.155 346.45L84.21 346.45L84.21 348.415C84.21 348.55 84.18 348.58 84.06 348.595C83.91 348.595 83.52 348.595 83.055 348.58C83.19 348.85 83.31 349.255 83.34 349.51C83.985 349.51 84.45 349.51 84.765 349.345C85.08 349.18 85.155 348.895 85.155 348.415L85.155 341.41L81.225 341.41ZM82.155 344.365L84.21 344.365L84.21 345.595L82.155 345.595L82.155 344.365ZM94.425 337.075C95.415 337.765 96.18 338.605 96.84 339.535C95.865 343.81 93.99 346.855 90.615 348.595C90.915 348.805 91.44 349.27 91.65 349.495C94.695 347.725 96.615 344.965 97.755 341.035C99.405 344.065 100.47 347.53 103.905 349.45C103.965 349.09 104.265 348.49 104.46 348.175C99.465 345.19 99.915 339.55 95.115 336.115L94.425 337.075ZM105.75 343.57L105.75 344.68L111.945 344.68L111.945 348.025C111.945 348.325 111.81 348.43 111.48 348.445C111.135 348.445 109.95 348.46 108.69 348.43C108.87 348.73 109.08 349.225 109.17 349.54C110.745 349.555 111.735 349.54 112.305 349.345C112.86 349.165 113.1 348.835 113.1 348.025L113.1 344.68L119.295 344.68L119.295 343.57L113.1 343.57L113.1 341.14L118.44 341.14L118.44 340.06L113.1 340.06L113.1 337.615C114.87 337.405 116.52 337.105 117.795 336.73L116.97 335.815C114.675 336.535 110.31 336.925 106.74 337.105C106.845 337.345 106.98 337.795 107.01 338.08C108.57 338.02 110.28 337.915 111.945 337.75L111.945 340.06L106.755 340.06L106.755 341.14L111.945 341.14L111.945 343.57L105.75 343.57ZM127.47 336.655L127.47 341.47C127.47 343.795 127.26 346.78 125.235 348.88C125.49 349.015 125.925 349.39 126.09 349.6C128.25 347.38 128.565 343.975 128.565 341.47L128.565 337.72L131.385 337.72L131.385 347.38C131.385 348.67 131.475 348.94 131.73 349.165C131.955 349.36 132.285 349.45 132.585 349.45C132.78 349.45 133.125 349.45 133.35 349.45C133.665 349.45 133.935 349.39 134.145 349.24C134.37 349.09 134.49 348.835 134.565 348.4C134.625 348.025 134.685 346.915 134.685 346.06C134.4 345.97 134.055 345.79 133.83 345.58C133.815 346.585 133.8 347.38 133.755 347.725C133.74 348.07 133.695 348.205 133.605 348.295C133.545 348.37 133.425 348.4 133.305 348.4C133.155 348.4 132.975 348.4 132.87 348.4C132.75 348.4 132.675 348.37 132.6 348.31C132.525 348.25 132.495 347.965 132.495 347.47L132.495 336.655L127.47 336.655ZM123.27 335.8L123.27 339.01L120.78 339.01L120.78 340.09L123.12 340.09C122.58 342.175 121.485 344.515 120.42 345.775C120.6 346.045 120.885 346.495 121.005 346.795C121.845 345.76 122.655 344.065 123.27 342.31L123.27 349.585L124.365 349.585L124.365 342.7C124.95 343.45 125.655 344.38 125.955 344.89L126.66 343.96C126.315 343.57 124.89 341.965 124.365 341.44L124.365 340.09L126.585 340.09L126.585 339.01L124.365 339.01L124.365 335.8L123.27 335.8ZM138.9 337.42L146.04 337.42L146.04 339.46L138.9 339.46L138.9 337.42ZM137.775 336.415L137.775 340.45L147.225 340.45L147.225 336.415L137.775 336.415ZM135.945 341.8L135.945 342.835L139.035 342.835C138.735 343.765 138.36 344.8 138.045 345.535L145.905 345.535C145.62 347.275 145.32 348.115 144.945 348.415C144.765 348.535 144.585 348.55 144.225 348.55C143.805 348.55 142.71 348.535 141.66 348.43C141.87 348.745 142.02 349.18 142.05 349.51C143.085 349.57 144.075 349.585 144.585 349.555C145.17 349.54 145.53 349.45 145.89 349.15C146.445 348.67 146.82 347.545 147.18 345.025C147.21 344.86 147.24 344.515 147.24 344.515L139.725 344.515L140.28 342.835L148.995 342.835L148.995 341.8L135.945 341.8ZM160.38 336.535C161.295 336.985 162.405 337.675 162.945 338.185L163.635 337.405C163.08 336.895 161.955 336.235 161.04 335.845L160.38 336.535ZM150.93 347.41L151.155 348.565C152.895 348.19 155.355 347.65 157.665 347.14L157.575 346.075C155.13 346.585 152.565 347.11 150.93 347.41ZM152.925 341.62L155.985 341.62L155.985 344.23L152.925 344.23L152.925 341.62ZM151.875 340.63L151.875 345.205L157.08 345.205L157.08 340.63L151.875 340.63ZM151.02 338.2L151.02 339.31L158.415 339.31C158.595 341.755 158.94 344.005 159.48 345.775C158.475 346.99 157.26 347.98 155.865 348.73C156.12 348.94 156.555 349.375 156.735 349.6C157.92 348.895 158.985 348.025 159.915 346.99C160.59 348.625 161.49 349.615 162.645 349.615C163.8 349.615 164.22 348.865 164.43 346.285C164.115 346.165 163.695 345.91 163.44 345.64C163.35 347.65 163.17 348.445 162.75 348.445C162 348.445 161.325 347.515 160.785 345.94C161.895 344.455 162.795 342.685 163.455 340.66L162.33 340.39C161.85 341.95 161.19 343.345 160.38 344.575C160.005 343.105 159.735 341.305 159.6 339.31L164.04 339.31L164.04 338.2L159.525 338.2C159.495 337.435 159.48 336.64 159.48 335.83L158.28 335.83C158.28 336.625 158.31 337.42 158.355 338.2L151.02 338.2ZM167.265 343.225L169.11 343.225L169.11 346.675L167.265 346.675L167.265 343.225ZM167.265 342.25L167.265 339.085L169.11 339.085L169.11 342.25L167.265 342.25ZM171.9 343.225L171.9 346.675L170.1 346.675L170.1 343.225L171.9 343.225ZM171.9 342.25L170.1 342.25L170.1 339.085L171.9 339.085L171.9 342.25ZM169.05 335.815L169.05 338.095L166.275 338.095L166.275 348.64L167.265 348.64L167.265 347.65L171.9 347.65L171.9 348.43L172.935 348.43L172.935 338.095L170.16 338.095L170.16 335.815L169.05 335.815ZM174.39 336.61L174.39 349.585L175.38 349.585L175.38 337.675L177.81 337.675C177.39 338.86 176.79 340.42 176.22 341.68C177.6 343.045 177.99 344.155 177.99 345.085C178.005 345.61 177.9 346.075 177.585 346.27C177.42 346.36 177.195 346.405 176.955 346.42C176.64 346.435 176.22 346.435 175.755 346.39C175.935 346.705 176.04 347.155 176.07 347.455C176.52 347.47 177.015 347.485 177.405 347.44C177.765 347.395 178.095 347.305 178.335 347.125C178.845 346.795 179.04 346.06 179.04 345.175C179.04 344.14 178.71 342.955 177.345 341.545C177.975 340.135 178.695 338.44 179.235 337.06L178.455 336.565L178.275 336.61L174.39 336.61ZM188.55 344.005L192.555 344.005L192.555 345.535L188.55 345.535L188.55 344.005ZM188.55 343.12L188.55 341.635L192.555 341.635L192.555 343.12L188.55 343.12ZM188.55 346.42L192.555 346.42L192.555 347.98L188.55 347.98L188.55 346.42ZM187.455 340.615L187.455 349.585L188.55 349.585L188.55 348.925L192.555 348.925L192.555 349.495L193.695 349.495L193.695 340.615L187.455 340.615ZM182.775 335.74C182.295 337.255 181.485 338.755 180.54 339.73C180.81 339.88 181.29 340.195 181.5 340.36C181.995 339.79 182.475 339.04 182.91 338.215L183.51 338.215C183.825 338.815 184.11 339.535 184.26 340.06L183.525 340.06L183.525 341.77L180.9 341.77L180.9 342.82L183.3 342.82C182.64 344.425 181.515 346.18 180.495 347.125C180.765 347.335 181.065 347.725 181.23 347.995C182.01 347.155 182.85 345.88 183.525 344.59L183.525 349.6L184.605 349.6L184.605 344.56C185.235 345.235 185.97 346.06 186.3 346.51L187.02 345.625C186.66 345.25 185.22 343.9 184.605 343.39L184.605 342.82L186.99 342.82L186.99 341.77L184.605 341.77L184.605 340.135L185.31 339.85C185.19 339.415 184.935 338.785 184.65 338.215L187.32 338.215L187.32 337.255L183.375 337.255C183.555 336.835 183.72 336.415 183.855 335.995L182.775 335.74ZM188.67 335.74C188.235 337.225 187.44 338.665 186.45 339.595C186.735 339.745 187.2 340.06 187.41 340.24C187.92 339.7 188.415 339.01 188.835 338.23L189.735 338.23C190.23 338.89 190.74 339.7 190.935 340.255L191.91 339.835C191.715 339.4 191.34 338.785 190.92 338.23L194.22 338.23L194.22 337.255L189.3 337.255C189.48 336.85 189.63 336.43 189.765 335.995L188.67 335.74Z"></path></g><g ><path     fill="#4A6A85"  d="M42.45 394.456C42.072 395.296 41.4 396.276 40.616 396.878L41.68 397.522C42.478 396.864 43.08 395.814 43.528 394.932L42.45 394.456ZM44.816 393.56C45.684 393.924 46.72 394.54 47.238 395.002L47.91 394.162C47.378 393.7 46.314 393.126 45.46 392.776L44.816 393.56ZM50.15 395.17C51.018 395.954 52.012 397.06 52.446 397.788L53.454 397.06C52.992 396.332 51.956 395.268 51.102 394.54L50.15 395.17ZM49.52 393.252C48.512 394.498 47.042 395.548 45.348 396.388L45.348 394.274L44.158 394.274L44.158 396.836L44.158 396.934C42.982 397.424 41.736 397.816 40.476 398.124C40.714 398.39 41.078 398.936 41.232 399.216C42.352 398.894 43.472 398.502 44.564 398.04C44.872 398.264 45.376 398.348 46.202 398.348C46.524 398.348 48.666 398.348 49.016 398.348C50.318 398.348 50.682 397.942 50.836 396.276C50.5 396.206 50.01 396.038 49.744 395.842C49.688 397.102 49.562 397.298 48.918 397.298C48.428 397.298 46.65 397.298 46.286 397.298L46.118 397.298C47.896 396.374 49.478 395.212 50.64 393.812L49.52 393.252ZM42.184 399.468L42.184 402.828L50.584 402.828L50.584 403.36L51.914 403.36L51.914 399.3L50.584 399.3L50.584 401.582L47.644 401.582L47.644 398.754L46.3 398.754L46.3 401.582L43.486 401.582L43.486 399.468L42.184 399.468ZM46.048 390.466C46.16 390.802 46.286 391.194 46.37 391.558L41.036 391.558L41.036 394.386L42.338 394.386L42.338 392.734L51.648 392.734L51.648 394.386L52.992 394.386L52.992 391.558L47.742 391.558C47.644 391.152 47.49 390.648 47.308 390.256L46.048 390.466ZM59.796 399.3L59.796 400.476L64.99 400.476L64.99 399.3L59.796 399.3ZM60.846 393.126C60.748 394.568 60.552 396.486 60.37 397.662L65.872 397.662C65.634 400.518 65.34 401.694 64.99 402.03C64.864 402.184 64.71 402.212 64.486 402.198C64.22 402.198 63.632 402.198 63.002 402.128C63.198 402.464 63.338 402.982 63.352 403.332C64.038 403.374 64.668 403.36 65.032 403.332C65.48 403.29 65.774 403.178 66.068 402.842C66.558 402.324 66.88 400.826 67.174 397.088C67.202 396.906 67.216 396.528 67.216 396.528L65.564 396.528C65.788 394.778 65.998 392.748 66.11 391.236L65.172 391.138L64.962 391.194L60.174 391.194L60.174 392.398L64.752 392.398C64.64 393.602 64.472 395.17 64.304 396.528L61.756 396.528C61.896 395.492 62.008 394.246 62.092 393.21L60.846 393.126ZM54.658 391.11L54.658 392.314L56.282 392.314C55.918 394.33 55.288 396.206 54.35 397.466C54.546 397.83 54.826 398.628 54.882 398.964C55.12 398.67 55.344 398.348 55.554 397.998L55.554 402.772L56.688 402.772L56.688 401.68L59.222 401.68L59.222 395.45L56.702 395.45C57.052 394.456 57.318 393.392 57.528 392.314L59.572 392.314L59.572 391.11L54.658 391.11ZM56.688 396.612L58.06 396.612L58.06 400.504L56.688 400.504L56.688 396.612Z"></path></g><g opacity="0.8"><rect  x="40" y="410" width="310" height="48" rx="12"    fill="#FFFFFF" ></rect></g><g ><path     fill="#B0C4DE"  d="M61.605 431.82C62.385 432.525 63.375 433.515 63.84 434.145L64.605 433.35C64.14 432.735 63.12 431.805 62.325 431.13L61.605 431.82ZM60.63 435.51L60.63 436.59L62.88 436.59L62.88 442.08C62.88 442.74 62.43 443.19 62.16 443.37C62.355 443.595 62.655 444.06 62.76 444.33C62.97 444.015 63.36 443.7 65.895 441.75C65.775 441.525 65.595 441.09 65.52 440.79L63.96 441.96L63.96 435.51L60.63 435.51ZM67.41 440.22L72.12 440.22L72.12 441.45L67.41 441.45L67.41 440.22ZM67.41 439.425L67.41 438.27L72.12 438.27L72.12 439.425L67.41 439.425ZM69.21 430.8L69.21 431.97L65.73 431.97L65.73 432.84L69.21 432.84L69.21 433.8L66.105 433.8L66.105 434.625L69.21 434.625L69.21 435.66L65.28 435.66L65.28 436.53L74.4 436.53L74.4 435.66L70.32 435.66L70.32 434.625L73.485 434.625L73.485 433.8L70.32 433.8L70.32 432.84L73.935 432.84L73.935 431.97L70.32 431.97L70.32 430.8L69.21 430.8ZM66.36 437.4L66.36 444.585L67.41 444.585L67.41 442.275L72.12 442.275L72.12 443.325C72.12 443.505 72.045 443.565 71.85 443.58C71.64 443.595 70.92 443.595 70.155 443.565C70.305 443.835 70.44 444.255 70.485 444.54C71.55 444.54 72.24 444.54 72.645 444.36C73.08 444.195 73.2 443.895 73.2 443.34L73.2 437.4L66.36 437.4ZM86.01 436.695L86.01 442.125L86.895 442.125L86.895 436.695L86.01 436.695ZM87.915 436.14L87.915 443.325C87.915 443.49 87.855 443.535 87.69 443.55C87.495 443.55 86.895 443.55 86.205 443.535C86.355 443.805 86.475 444.21 86.505 444.465C87.39 444.465 87.99 444.45 88.35 444.3C88.725 444.135 88.83 443.865 88.83 443.325L88.83 436.14L87.915 436.14ZM76.065 438.45C76.185 438.33 76.62 438.24 77.1 438.24L78.285 438.24L78.285 440.31C77.28 440.55 76.35 440.76 75.63 440.895L75.885 441.96L78.285 441.345L78.285 444.585L79.275 444.585L79.275 441.09L80.52 440.76L80.43 439.815L79.275 440.085L79.275 438.24L80.475 438.24L80.475 437.205L79.275 437.205L79.275 434.925L78.285 434.925L78.285 437.205L76.98 437.205C77.37 436.155 77.745 434.91 78.045 433.62L80.505 433.62L80.505 432.6L78.255 432.6C78.375 432.06 78.465 431.52 78.54 430.995L77.49 430.815C77.43 431.4 77.355 432.015 77.25 432.6L75.705 432.6L75.705 433.62L77.055 433.62C76.785 434.865 76.5 435.885 76.365 436.275C76.155 436.95 75.975 437.43 75.72 437.505C75.84 437.76 76.005 438.24 76.065 438.45ZM84.885 430.755C83.895 432.33 82.035 433.815 80.22 434.655C80.49 434.88 80.79 435.225 80.955 435.495C81.36 435.285 81.765 435.045 82.155 434.79L82.155 435.42L87.705 435.42L87.705 434.685C88.08 434.91 88.485 435.135 88.89 435.345C89.025 435.045 89.34 434.685 89.61 434.46C88.035 433.785 86.61 432.93 85.47 431.655L85.8 431.16L84.885 430.755ZM82.59 434.49C83.43 433.875 84.225 433.155 84.885 432.39C85.65 433.23 86.475 433.905 87.39 434.49L82.59 434.49ZM84.21 437.31L84.21 438.495L82.155 438.495L82.155 437.31L84.21 437.31ZM81.225 436.41L81.225 444.54L82.155 444.54L82.155 441.45L84.21 441.45L84.21 443.415C84.21 443.55 84.18 443.58 84.06 443.595C83.91 443.595 83.52 443.595 83.055 443.58C83.19 443.85 83.31 444.255 83.34 444.51C83.985 444.51 84.45 444.51 84.765 444.345C85.08 444.18 85.155 443.895 85.155 443.415L85.155 436.41L81.225 436.41ZM82.155 439.365L84.21 439.365L84.21 440.595L82.155 440.595L82.155 439.365ZM94.425 432.075C95.415 432.765 96.18 433.605 96.84 434.535C95.865 438.81 93.99 441.855 90.615 443.595C90.915 443.805 91.44 444.27 91.65 444.495C94.695 442.725 96.615 439.965 97.755 436.035C99.405 439.065 100.47 442.53 103.905 444.45C103.965 444.09 104.265 443.49 104.46 443.175C99.465 440.19 99.915 434.55 95.115 431.115L94.425 432.075ZM107.73 435.105C107.31 436.02 106.59 437.115 105.705 437.775L106.62 438.33C107.49 437.61 108.165 436.47 108.645 435.525L107.73 435.105ZM110.28 433.98C111.21 434.415 112.32 435.105 112.86 435.63L113.46 434.895C112.905 434.4 111.765 433.725 110.85 433.32L110.28 433.98ZM115.935 435.735C116.895 436.56 117.99 437.76 118.47 438.555L119.325 437.925C118.83 437.13 117.705 435.99 116.76 435.18L115.935 435.735ZM115.32 433.83C114.165 435.24 112.485 436.41 110.55 437.34L110.55 434.865L109.53 434.865L109.53 437.76L109.53 437.805C108.27 438.33 106.92 438.765 105.57 439.095C105.78 439.32 106.11 439.8 106.245 440.04C107.445 439.695 108.66 439.275 109.815 438.78C110.1 439.08 110.625 439.17 111.54 439.17C111.87 439.17 114.375 439.17 114.735 439.17C116.04 439.17 116.37 438.735 116.52 436.95C116.235 436.89 115.815 436.74 115.56 436.575C115.515 438.03 115.38 438.24 114.66 438.24C114.105 438.24 112.005 438.24 111.6 438.24L111.03 438.21C113.1 437.205 114.96 435.915 116.28 434.31L115.32 433.83ZM107.415 440.46L107.415 443.91L116.565 443.91L116.565 444.57L117.69 444.57L117.69 440.34L116.565 440.34L116.565 442.845L113.04 442.845L113.04 439.65L111.9 439.65L111.9 442.845L108.525 442.845L108.525 440.46L107.415 440.46ZM111.63 430.83C111.78 431.205 111.915 431.685 112.005 432.09L106.155 432.09L106.155 435.03L107.265 435.03L107.265 433.11L117.735 433.11L117.735 435.03L118.875 435.03L118.875 432.09L113.175 432.09C113.085 431.655 112.89 431.1 112.695 430.65L111.63 430.83ZM126.15 440.325L126.15 441.345L131.88 441.345L131.88 440.325L126.15 440.325ZM127.365 433.65C127.26 435.135 127.065 437.145 126.87 438.345L127.17 438.345L132.945 438.36C132.66 441.645 132.33 442.98 131.94 443.37C131.79 443.52 131.64 443.55 131.37 443.535C131.1 443.535 130.425 443.535 129.705 443.46C129.885 443.745 129.99 444.18 130.02 444.495C130.74 444.54 131.43 444.54 131.82 444.51C132.27 444.48 132.555 444.375 132.84 444.045C133.38 443.505 133.725 441.93 134.07 437.88C134.085 437.715 134.1 437.385 134.1 437.385L132.24 437.385C132.48 435.525 132.72 433.275 132.84 431.715L132.045 431.625L131.865 431.685L126.645 431.685L126.645 432.72L131.67 432.72C131.55 434.04 131.355 435.87 131.175 437.385L128.055 437.385C128.19 436.275 128.34 434.865 128.415 433.725L127.365 433.65ZM120.765 431.595L120.765 432.63L122.595 432.63C122.175 434.925 121.5 437.055 120.435 438.48C120.615 438.78 120.87 439.41 120.945 439.695C121.23 439.32 121.5 438.915 121.74 438.465L121.74 443.91L122.715 443.91L122.715 442.71L125.475 442.71L125.475 436.215L122.73 436.215C123.12 435.09 123.435 433.875 123.675 432.63L125.91 432.63L125.91 431.595L120.765 431.595ZM122.715 437.235L124.485 437.235L124.485 441.705L122.715 441.705L122.715 437.235Z"></path></g><g ><path     fill="#5B9BD5"  d="M40.403 485.156L40.611 485.975C41.586 485.702 42.782 485.377 43.952 485.039L43.861 484.285C42.574 484.623 41.313 484.961 40.403 485.156ZM46.929 480.19L46.929 481.035L50.803 481.035L50.803 480.19L46.929 480.19ZM46.071 482.374C46.448 483.362 46.799 484.662 46.903 485.507L47.709 485.286C47.592 484.441 47.215 483.167 46.838 482.192L46.071 482.374ZM48.372 482.049C48.593 483.024 48.827 484.324 48.892 485.169L49.698 485.039C49.62 484.194 49.386 482.92 49.126 481.932L48.372 482.049ZM41.391 478.552C41.3 479.956 41.144 481.893 40.975 483.037L44.472 483.037C44.303 485.715 44.095 486.768 43.822 487.054C43.718 487.184 43.575 487.21 43.367 487.21C43.12 487.21 42.522 487.197 41.885 487.132C42.028 487.366 42.132 487.704 42.145 487.951C42.769 487.99 43.38 488.003 43.705 487.977C44.095 487.938 44.329 487.86 44.55 487.587C44.966 487.171 45.148 485.949 45.356 482.634C45.369 482.517 45.382 482.231 45.382 482.231L44.511 482.244L44.355 482.244C44.511 480.84 44.706 478.5 44.836 476.745L40.832 476.745L40.832 477.59L43.939 477.59C43.835 479.15 43.666 480.996 43.51 482.244L41.911 482.244C42.028 481.152 42.145 479.735 42.223 478.604L41.391 478.552ZM48.671 476.069C47.865 477.889 46.435 479.488 44.875 480.476C45.057 480.671 45.343 481.061 45.46 481.256C46.682 480.398 47.865 479.176 48.762 477.746C49.672 479.007 50.985 480.359 52.168 481.217C52.272 480.957 52.493 480.541 52.662 480.32C51.453 479.54 50.049 478.162 49.23 476.927L49.516 476.342L48.671 476.069ZM45.655 486.625L45.655 487.483L52.285 487.483L52.285 486.625L50.296 486.625C50.933 485.429 51.661 483.713 52.194 482.335L51.31 482.114C50.881 483.479 50.088 485.416 49.451 486.625L45.655 486.625ZM54.326 477.083C55.028 477.694 55.912 478.539 56.341 479.085L57.017 478.409C56.588 477.876 55.678 477.057 54.963 476.498L54.326 477.083ZM57.576 486.69L57.576 487.6L65.506 487.6L65.506 486.69L62.412 486.69L62.412 482.4L64.986 482.4L64.986 481.477L62.412 481.477L62.412 478.071L65.22 478.071L65.22 477.161L58.018 477.161L58.018 478.071L61.411 478.071L61.411 486.69L59.656 486.69L59.656 480.424L58.694 480.424L58.694 486.69L57.576 486.69ZM53.65 480.242L53.65 481.178L55.483 481.178L55.483 485.689C55.483 486.378 55.002 486.885 54.755 487.093C54.924 487.236 55.236 487.561 55.353 487.756C55.548 487.496 55.899 487.21 58.122 485.468C58.005 485.273 57.823 484.883 57.732 484.636L56.432 485.624L56.432 480.242L53.65 480.242ZM71.33 484.415L71.33 485.299L76.296 485.299L76.296 484.415L71.33 484.415ZM72.383 478.63C72.292 479.917 72.123 481.659 71.954 482.699L72.214 482.699L77.219 482.712C76.972 485.559 76.686 486.716 76.348 487.054C76.218 487.184 76.088 487.21 75.854 487.197C75.62 487.197 75.035 487.197 74.411 487.132C74.567 487.379 74.658 487.756 74.684 488.029C75.308 488.068 75.906 488.068 76.244 488.042C76.634 488.016 76.881 487.925 77.128 487.639C77.596 487.171 77.895 485.806 78.194 482.296C78.207 482.153 78.22 481.867 78.22 481.867L76.608 481.867C76.816 480.255 77.024 478.305 77.128 476.953L76.439 476.875L76.283 476.927L71.759 476.927L71.759 477.824L76.114 477.824C76.01 478.968 75.841 480.554 75.685 481.867L72.981 481.867C73.098 480.905 73.228 479.683 73.293 478.695L72.383 478.63ZM66.663 476.849L66.663 477.746L68.249 477.746C67.885 479.735 67.3 481.581 66.377 482.816C66.533 483.076 66.754 483.622 66.819 483.869C67.066 483.544 67.3 483.193 67.508 482.803L67.508 487.522L68.353 487.522L68.353 486.482L70.745 486.482L70.745 480.853L68.366 480.853C68.704 479.878 68.977 478.825 69.185 477.746L71.122 477.746L71.122 476.849L66.663 476.849ZM68.353 481.737L69.887 481.737L69.887 485.611L68.353 485.611L68.353 481.737ZM82.679 482.504L88.1 482.504L88.1 484.142L82.679 484.142L82.679 482.504ZM81.704 481.685L81.704 484.948L89.14 484.948L89.14 481.685L81.704 481.685ZM90.44 477.798C89.985 478.279 89.244 478.903 88.607 479.384C88.295 479.072 87.996 478.747 87.723 478.396C88.36 477.954 89.114 477.356 89.725 476.797L88.971 476.264C88.555 476.732 87.879 477.343 87.281 477.798C86.917 477.291 86.618 476.745 86.371 476.186L85.526 476.472C86.059 477.681 86.8 478.825 87.697 479.787L83.381 479.787C84.122 478.968 84.759 478.006 85.162 476.94L84.525 476.615L84.343 476.654L80.313 476.654L80.313 477.473L83.888 477.473C83.55 478.123 83.095 478.734 82.575 479.293C82.159 478.851 81.457 478.344 80.859 478.006L80.326 478.539C80.911 478.903 81.574 479.436 81.99 479.865C81.171 480.606 80.235 481.217 79.338 481.594C79.533 481.776 79.806 482.114 79.936 482.335C81.054 481.802 82.211 481.009 83.186 479.995L83.186 480.619L87.866 480.619L87.866 479.969C88.776 480.918 89.842 481.698 90.973 482.218C91.129 481.958 91.415 481.581 91.649 481.399C90.765 481.048 89.933 480.528 89.179 479.904C89.829 479.449 90.57 478.864 91.168 478.318L90.44 477.798ZM87.463 485.026C87.255 485.598 86.865 486.404 86.527 486.963L83.498 486.963L84.304 486.677C84.174 486.235 83.849 485.546 83.511 485.052L82.627 485.338C82.939 485.832 83.251 486.521 83.368 486.963L79.78 486.963L79.78 487.808L91.233 487.808L91.233 486.963L87.528 486.963C87.814 486.469 88.126 485.858 88.412 485.286L87.463 485.026ZM93.742 482.959C94.587 483.427 95.614 484.168 96.108 484.662L96.797 483.986C96.277 483.492 95.224 482.803 94.405 482.361L93.742 482.959ZM93.742 476.888L93.742 477.785L101.62 477.785L101.568 478.981L94.132 478.981L94.132 479.878L101.516 479.878L101.438 481.074L92.871 481.074L92.871 481.945L97.993 481.945L97.993 484.324C96.108 485.104 94.145 485.897 92.884 486.378L93.404 487.249C94.678 486.703 96.381 485.975 97.993 485.26L97.993 487.054C97.993 487.236 97.928 487.288 97.72 487.301C97.512 487.314 96.784 487.314 96.017 487.288C96.147 487.535 96.303 487.899 96.355 488.146C97.369 488.146 98.032 488.146 98.435 488.003C98.851 487.86 98.981 487.626 98.981 487.067L98.981 484.012C100.099 485.702 101.724 486.963 103.752 487.6C103.882 487.34 104.181 486.963 104.389 486.755C102.985 486.378 101.763 485.689 100.775 484.779C101.607 484.272 102.582 483.544 103.362 482.881L102.53 482.27C101.945 482.855 100.983 483.622 100.177 484.168C99.696 483.622 99.293 482.998 98.981 482.335L98.981 481.945L104.22 481.945L104.22 481.074L102.452 481.074C102.569 479.735 102.66 478.136 102.686 476.888L101.919 476.836L101.75 476.888L93.742 476.888Z"></path></g><g ><path     fill="#5B9BD5"  d="M293.562 483.843L293.562 486.417C293.562 487.483 293.965 487.769 295.486 487.769C295.798 487.769 298.151 487.769 298.489 487.769C299.75 487.769 300.062 487.366 300.205 485.728C299.932 485.663 299.516 485.52 299.295 485.351C299.23 486.677 299.113 486.885 298.411 486.885C297.904 486.885 295.915 486.885 295.538 486.885C294.693 486.885 294.55 486.807 294.55 486.417L294.55 483.843L293.562 483.843ZM295.395 482.92C296.123 483.635 296.955 484.636 297.293 485.286L298.112 484.805C297.735 484.142 296.903 483.167 296.149 482.491L295.395 482.92ZM299.997 483.947C300.634 484.948 301.271 486.287 301.492 487.132L302.415 486.755C302.168 485.897 301.505 484.597 300.855 483.622L299.997 483.947ZM291.989 483.882C291.677 484.792 291.17 486.027 290.585 486.807L291.456 487.236C292.015 486.417 292.496 485.143 292.834 484.207L291.989 483.882ZM295.655 476.381C295.876 476.758 296.097 477.226 296.24 477.629L290.845 477.629L290.845 478.539L292.548 478.539L292.548 482.062L301.427 482.062L301.427 481.152L293.51 481.152L293.51 478.539L302.051 478.539L302.051 477.629L297.306 477.629C297.137 477.174 296.838 476.55 296.552 476.095L295.655 476.381ZM304.612 477.083C305.327 477.72 306.237 478.604 306.64 479.176L307.355 478.487C306.9 477.941 305.99 477.083 305.288 476.485L304.612 477.083ZM305.6 487.873L305.6 487.86C305.782 487.613 306.146 487.34 308.304 485.806C308.2 485.611 308.057 485.221 307.992 484.961L306.64 485.884L306.64 480.242L303.598 480.242L303.598 481.191L305.678 481.191L305.678 485.871C305.678 486.508 305.275 486.95 305.041 487.132C305.223 487.301 305.496 487.665 305.6 487.873ZM308.447 477.07L308.447 478.045L313.608 478.045L313.608 481.334L308.694 481.334L308.694 486.339C308.694 487.613 309.162 487.925 310.618 487.925C310.943 487.925 313.27 487.925 313.608 487.925C315.025 487.925 315.363 487.34 315.506 485.221C315.22 485.156 314.804 484.987 314.557 484.805C314.492 486.651 314.362 486.989 313.556 486.989C313.049 486.989 311.073 486.989 310.683 486.989C309.851 486.989 309.695 486.872 309.695 486.352L309.695 482.27L313.608 482.27L313.608 482.946L314.583 482.946L314.583 477.07L308.447 477.07ZM318.366 479.891C318.002 480.684 317.378 481.633 316.611 482.205L317.404 482.686C318.158 482.062 318.743 481.074 319.159 480.255L318.366 479.891ZM320.576 478.916C321.382 479.293 322.344 479.891 322.812 480.346L323.332 479.709C322.851 479.28 321.863 478.695 321.07 478.344L320.576 478.916ZM325.477 480.437C326.309 481.152 327.258 482.192 327.674 482.881L328.415 482.335C327.986 481.646 327.011 480.658 326.192 479.956L325.477 480.437ZM324.944 478.786C323.943 480.008 322.487 481.022 320.81 481.828L320.81 479.683L319.926 479.683L319.926 482.192L319.926 482.231C318.834 482.686 317.664 483.063 316.494 483.349C316.676 483.544 316.962 483.96 317.079 484.168C318.119 483.869 319.172 483.505 320.173 483.076C320.42 483.336 320.875 483.414 321.668 483.414C321.954 483.414 324.125 483.414 324.437 483.414C325.568 483.414 325.854 483.037 325.984 481.49C325.737 481.438 325.373 481.308 325.152 481.165C325.113 482.426 324.996 482.608 324.372 482.608C323.891 482.608 322.071 482.608 321.72 482.608L321.226 482.582C323.02 481.711 324.632 480.593 325.776 479.202L324.944 478.786ZM318.093 484.532L318.093 487.522L326.023 487.522L326.023 488.094L326.998 488.094L326.998 484.428L326.023 484.428L326.023 486.599L322.968 486.599L322.968 483.83L321.98 483.83L321.98 486.599L319.055 486.599L319.055 484.532L318.093 484.532ZM321.746 476.186C321.876 476.511 321.993 476.927 322.071 477.278L317.001 477.278L317.001 479.826L317.963 479.826L317.963 478.162L327.037 478.162L327.037 479.826L328.025 479.826L328.025 477.278L323.085 477.278C323.007 476.901 322.838 476.42 322.669 476.03L321.746 476.186ZM334.33 484.415L334.33 485.299L339.296 485.299L339.296 484.415L334.33 484.415ZM335.383 478.63C335.292 479.917 335.123 481.659 334.954 482.699L335.214 482.699L340.219 482.712C339.972 485.559 339.686 486.716 339.348 487.054C339.218 487.184 339.088 487.21 338.854 487.197C338.62 487.197 338.035 487.197 337.411 487.132C337.567 487.379 337.658 487.756 337.684 488.029C338.308 488.068 338.906 488.068 339.244 488.042C339.634 488.016 339.881 487.925 340.128 487.639C340.596 487.171 340.895 485.806 341.194 482.296C341.207 482.153 341.22 481.867 341.22 481.867L339.608 481.867C339.816 480.255 340.024 478.305 340.128 476.953L339.439 476.875L339.283 476.927L334.759 476.927L334.759 477.824L339.114 477.824C339.01 478.968 338.841 480.554 338.685 481.867L335.981 481.867C336.098 480.905 336.228 479.683 336.293 478.695L335.383 478.63ZM329.663 476.849L329.663 477.746L331.249 477.746C330.885 479.735 330.3 481.581 329.377 482.816C329.533 483.076 329.754 483.622 329.819 483.869C330.066 483.544 330.3 483.193 330.508 482.803L330.508 487.522L331.353 487.522L331.353 486.482L333.745 486.482L333.745 480.853L331.366 480.853C331.704 479.878 331.977 478.825 332.185 477.746L334.122 477.746L334.122 476.849L329.663 476.849ZM331.353 481.737L332.887 481.737L332.887 485.611L331.353 485.611L331.353 481.737ZM344.314 484.207L345.367 484.207C345.133 482.166 347.473 481.399 347.473 479.488C347.473 478.058 346.511 477.174 345.042 477.174C343.989 477.174 343.157 477.681 342.559 478.37L343.235 478.994C343.69 478.474 344.262 478.162 344.912 478.162C345.848 478.162 346.316 478.786 346.316 479.566C346.316 481.113 344.002 481.945 344.314 484.207ZM344.873 487.249C345.354 487.249 345.744 486.885 345.744 486.352C345.744 485.806 345.354 485.442 344.873 485.442C344.392 485.442 344.028 485.806 344.028 486.352C344.028 486.885 344.392 487.249 344.873 487.249Z"></path></g><rect  x="40" y="515" width="310" height="50" rx="25"    fill="url(#linear_fill_4kaA0Ykae8q6Y4UYw04fP_0)" ></rect><g ><path     fill="#FFFFFF"  d="M181.548 542.928L188.22 542.928L188.22 544.944L181.548 544.944L181.548 542.928ZM180.348 541.92L180.348 545.936L189.5 545.936L189.5 541.92L180.348 541.92ZM191.1 537.136C190.54 537.728 189.628 538.496 188.844 539.088C188.46 538.704 188.092 538.304 187.756 537.872C188.54 537.328 189.468 536.592 190.22 535.904L189.292 535.248C188.78 535.824 187.948 536.576 187.212 537.136C186.764 536.512 186.396 535.84 186.092 535.152L185.052 535.504C185.708 536.992 186.62 538.4 187.724 539.584L182.412 539.584C183.324 538.576 184.108 537.392 184.604 536.08L183.82 535.68L183.596 535.728L178.636 535.728L178.636 536.736L183.036 536.736C182.62 537.536 182.06 538.288 181.42 538.976C180.908 538.432 180.044 537.808 179.308 537.392L178.652 538.048C179.372 538.496 180.188 539.152 180.7 539.68C179.692 540.592 178.54 541.344 177.436 541.808C177.676 542.032 178.012 542.448 178.172 542.72C179.548 542.064 180.972 541.088 182.172 539.84L182.172 540.608L187.932 540.608L187.932 539.808C189.052 540.976 190.364 541.936 191.756 542.576C191.948 542.256 192.3 541.792 192.588 541.568C191.5 541.136 190.476 540.496 189.548 539.728C190.348 539.168 191.26 538.448 191.996 537.776L191.1 537.136ZM187.436 546.032C187.18 546.736 186.7 547.728 186.284 548.416L182.556 548.416L183.548 548.064C183.388 547.52 182.988 546.672 182.572 546.064L181.484 546.416C181.868 547.024 182.252 547.872 182.396 548.416L177.98 548.416L177.98 549.456L192.076 549.456L192.076 548.416L187.516 548.416C187.868 547.808 188.252 547.056 188.604 546.352L187.436 546.032ZM199.124 543.488C200.164 544.064 201.428 544.976 202.036 545.584L202.884 544.752C202.244 544.144 200.948 543.296 199.94 542.752L199.124 543.488ZM199.124 536.016L199.124 537.12L208.82 537.12L208.756 538.592L199.604 538.592L199.604 539.696L208.692 539.696L208.596 541.168L198.052 541.168L198.052 542.24L204.356 542.24L204.356 545.168C202.036 546.128 199.62 547.104 198.068 547.696L198.708 548.768C200.276 548.096 202.372 547.2 204.356 546.32L204.356 548.528C204.356 548.752 204.276 548.816 204.02 548.832C203.764 548.848 202.868 548.848 201.924 548.816C202.084 549.12 202.276 549.568 202.34 549.872C203.588 549.872 204.404 549.872 204.9 549.696C205.412 549.52 205.572 549.232 205.572 548.544L205.572 544.784C206.948 546.864 208.948 548.416 211.444 549.2C211.604 548.88 211.972 548.416 212.228 548.16C210.5 547.696 208.996 546.848 207.78 545.728C208.804 545.104 210.004 544.208 210.964 543.392L209.94 542.64C209.22 543.36 208.036 544.304 207.044 544.976C206.452 544.304 205.956 543.536 205.572 542.72L205.572 542.24L212.02 542.24L212.02 541.168L209.844 541.168C209.988 539.52 210.1 537.552 210.132 536.016L209.188 535.952L208.98 536.016L199.124 536.016Z"></path></g><g ><path     fill="#7BA8C9"  d="M162.478 590.422C163.5 591.43 164.844 592.83 165.488 593.656L166.272 592.914C165.6 592.116 164.242 590.772 163.234 589.806L162.478 590.422ZM154.148 586.264C154.918 586.992 155.856 588.014 156.304 588.672L157.158 588C156.696 587.37 155.73 586.39 154.96 585.69L154.148 586.264ZM157.55 586.432L157.55 587.482L161.792 587.482C160.686 589.722 158.936 591.64 156.934 592.858C157.186 593.054 157.578 593.488 157.732 593.684C158.936 592.886 160.084 591.822 161.064 590.576L161.064 596.316L162.142 596.316L162.142 589.036C162.45 588.546 162.744 588.014 162.996 587.482L165.992 587.482L165.992 586.432L157.55 586.432ZM156.472 590.226L153.588 590.226L153.588 591.262L155.422 591.262L155.422 595.616C154.806 595.868 154.092 596.526 153.336 597.366L154.12 598.388C154.806 597.408 155.464 596.512 155.912 596.512C156.22 596.512 156.696 597.016 157.284 597.408C158.292 598.052 159.482 598.206 161.302 598.206C162.716 598.206 165.306 598.122 166.3 598.052C166.328 597.73 166.496 597.17 166.636 596.876C165.222 597.03 163.08 597.156 161.344 597.156C159.706 597.156 158.474 597.058 157.55 596.456C157.06 596.148 156.738 595.868 156.472 595.7L156.472 590.226ZM168.176 586.418C169.03 586.894 170.15 587.608 170.71 588.042L171.326 587.188C170.738 586.768 169.604 586.11 168.764 585.676L168.176 586.418ZM167.49 590.212C168.358 590.646 169.506 591.318 170.08 591.738L170.668 590.87C170.066 590.45 168.918 589.834 168.05 589.442L167.49 590.212ZM167.924 597.478L168.806 598.15C169.576 596.862 170.514 595.098 171.2 593.614L170.43 592.956C169.66 594.552 168.638 596.386 167.924 597.478ZM173.23 585.984L173.23 587.566C173.23 588.63 172.936 589.82 171.046 590.688C171.256 590.842 171.62 591.248 171.76 591.472C173.818 590.478 174.252 588.938 174.252 587.594L174.252 586.964L176.996 586.964L176.996 589.036C176.996 590.212 177.234 590.632 178.256 590.632C178.452 590.632 179.32 590.632 179.558 590.632C179.866 590.632 180.202 590.618 180.384 590.548C180.356 590.282 180.314 589.834 180.286 589.54C180.09 589.582 179.754 589.61 179.544 589.61C179.32 589.61 178.522 589.61 178.326 589.61C178.088 589.61 178.046 589.47 178.046 589.064L178.046 585.984L173.23 585.984ZM177.962 592.648C177.43 593.726 176.632 594.608 175.666 595.322C174.714 594.58 173.958 593.684 173.44 592.648L177.962 592.648ZM171.774 591.668L171.774 592.648L172.67 592.648L172.39 592.746C172.964 593.992 173.762 595.056 174.77 595.924C173.552 596.638 172.152 597.114 170.724 597.394C170.92 597.632 171.158 598.066 171.27 598.346C172.824 597.982 174.336 597.422 175.638 596.596C176.814 597.422 178.228 598.01 179.838 598.36C179.978 598.066 180.286 597.632 180.524 597.394C179.026 597.114 177.682 596.624 176.562 595.938C177.822 594.93 178.83 593.614 179.432 591.92L178.732 591.626L178.536 591.668L171.774 591.668ZM186.474 585.48C186.306 586.082 186.11 586.698 185.858 587.3L181.882 587.3L181.882 588.28L185.424 588.28C184.528 590.128 183.24 591.836 181.56 592.984C181.756 593.18 182.092 593.558 182.232 593.796C183.114 593.166 183.898 592.41 184.57 591.556L184.57 598.346L185.606 598.346L185.606 595.574L191.472 595.574L191.472 597.03C191.472 597.24 191.402 597.324 191.164 597.324C190.898 597.338 190.044 597.352 189.12 597.31C189.26 597.604 189.414 598.038 189.47 598.318C190.674 598.318 191.444 598.318 191.906 598.164C192.368 597.982 192.508 597.66 192.508 597.044L192.508 589.904L185.704 589.904C186.026 589.372 186.306 588.84 186.558 588.28L194.146 588.28L194.146 587.3L186.978 587.3C187.188 586.782 187.37 586.25 187.538 585.732L186.474 585.48ZM185.606 593.194L191.472 593.194L191.472 594.664L185.606 594.664L185.606 593.194ZM185.606 592.298L185.606 590.856L191.472 590.856L191.472 592.298L185.606 592.298ZM197.982 587.916L197.982 591.92C197.982 593.712 197.842 596.246 195.518 597.646C195.714 597.8 195.98 598.108 196.092 598.276C198.556 596.666 198.822 593.978 198.822 591.92L198.822 587.916L197.982 587.916ZM198.486 595.42C199.13 596.19 199.886 597.254 200.208 597.926L200.922 597.352C200.572 596.722 199.788 595.7 199.144 594.944L198.486 595.42ZM196.19 586.138L196.19 594.762L197.016 594.762L197.016 587.006L199.732 587.006L199.732 594.72L200.572 594.72L200.572 586.138L196.19 586.138ZM206.774 586.096C206.074 587.496 204.884 588.854 203.638 589.722C203.876 589.904 204.24 590.296 204.408 590.492C205.654 589.512 206.942 587.986 207.754 586.404L206.774 586.096ZM202 598.43C202.224 598.248 202.63 598.08 205.332 596.974C205.276 596.75 205.234 596.344 205.234 596.05L203.176 596.792L203.176 591.906L204.324 591.906C204.954 594.566 206.102 596.834 207.796 598.052C207.964 597.786 208.286 597.422 208.51 597.24C206.956 596.232 205.864 594.202 205.29 591.906L208.23 591.906L208.23 590.926L203.176 590.926L203.176 585.76L202.182 585.76L202.182 590.926L200.936 590.926L200.936 591.906L202.182 591.906L202.182 596.652C202.182 597.212 201.818 597.464 201.566 597.576C201.734 597.786 201.93 598.192 202 598.43ZM212.64 586.992L219.304 586.992L219.304 588.896L212.64 588.896L212.64 586.992ZM211.59 586.054L211.59 589.82L220.41 589.82L220.41 586.054L211.59 586.054ZM209.882 591.08L209.882 592.046L212.766 592.046C212.486 592.914 212.136 593.88 211.842 594.566L219.178 594.566C218.912 596.19 218.632 596.974 218.282 597.254C218.114 597.366 217.946 597.38 217.61 597.38C217.218 597.38 216.196 597.366 215.216 597.268C215.412 597.562 215.552 597.968 215.58 598.276C216.546 598.332 217.47 598.346 217.946 598.318C218.492 598.304 218.828 598.22 219.164 597.94C219.682 597.492 220.032 596.442 220.368 594.09C220.396 593.936 220.424 593.614 220.424 593.614L213.41 593.614L213.928 592.046L222.062 592.046L222.062 591.08L209.882 591.08ZM225.73 593.852L226.878 593.852C226.5 591.738 229.454 591.29 229.454 589.148C229.454 587.58 228.348 586.586 226.612 586.586C225.254 586.586 224.316 587.202 223.462 588.098L224.218 588.798C224.918 588.028 225.66 587.636 226.472 587.636C227.662 587.636 228.208 588.336 228.208 589.26C228.208 590.856 225.296 591.5 225.73 593.852ZM226.332 597.31C226.822 597.31 227.228 596.946 227.228 596.386C227.228 595.826 226.822 595.448 226.332 595.448C225.828 595.448 225.422 595.826 225.422 596.386C225.422 596.946 225.828 597.31 226.332 597.31Z"></path></g><g ><path     fill="#5B9BD5"  d="M166.455 610.635L166.455 611.76L178.59 611.76L178.59 610.635L166.455 610.635ZM168.54 612.825C169.095 614.82 169.74 617.475 169.965 619.185L171.15 618.885C170.895 617.16 170.265 614.595 169.65 612.57L168.54 612.825ZM171.42 608.01C171.705 608.775 172.02 609.795 172.155 610.455L173.31 610.11C173.16 609.465 172.815 608.475 172.515 607.71L171.42 608.01ZM175.365 612.57C174.87 614.76 173.94 617.88 173.115 619.83L165.81 619.83L165.81 620.955L179.205 620.955L179.205 619.83L174.33 619.83C175.125 617.91 176.025 615.06 176.64 612.795L175.365 612.57ZM186.27 612.585L186.27 614.655L182.745 614.655L182.745 612.585L186.27 612.585ZM186.27 611.55L182.745 611.55L182.745 609.6L186.27 609.6L186.27 611.55ZM184.725 616.905C185.01 617.385 185.31 617.91 185.61 618.45L182.745 619.38L182.745 615.675L187.395 615.675L187.395 608.595L181.62 608.595L181.62 619.035C181.62 619.605 181.23 619.875 180.975 620.01C181.155 620.28 181.38 620.82 181.455 621.15C181.77 620.895 182.265 620.7 186.075 619.35C186.36 619.905 186.6 620.445 186.765 620.85L187.785 620.295C187.38 619.305 186.45 617.67 185.67 616.44L184.725 616.905ZM188.76 608.685L188.76 621.6L189.87 621.6L189.87 609.735L192.6 609.735L192.6 617.325C192.6 617.535 192.54 617.595 192.315 617.595C192.12 617.61 191.415 617.61 190.65 617.58C190.8 617.895 190.95 618.36 190.98 618.66C192.075 618.675 192.75 618.66 193.17 618.465C193.59 618.285 193.71 617.955 193.71 617.34L193.71 608.685L188.76 608.685ZM196.41 608.79C197.385 609.255 198.63 609.975 199.26 610.47L199.905 609.54C199.26 609.075 198 608.4 197.04 607.98L196.41 608.79ZM195.63 612.945C196.575 613.395 197.805 614.1 198.405 614.58L199.035 613.635C198.405 613.17 197.16 612.51 196.245 612.105L195.63 612.945ZM196.065 620.67L197.01 621.435C197.91 620.04 198.945 618.15 199.74 616.575L198.93 615.825C198.06 617.535 196.875 619.515 196.065 620.67ZM203.22 608.115C203.73 608.895 204.255 609.945 204.465 610.605L205.56 610.17C205.335 609.51 204.765 608.505 204.24 607.74L203.22 608.115ZM200.01 610.665L200.01 611.73L203.955 611.73L203.955 615.12L200.58 615.12L200.58 616.185L203.955 616.185L203.955 620.055L199.53 620.055L199.53 621.135L209.43 621.135L209.43 620.055L205.125 620.055L205.125 616.185L208.53 616.185L208.53 615.12L205.125 615.12L205.125 611.73L209.07 611.73L209.07 610.665L200.01 610.665ZM218.16 608.775L218.16 613.44L218.16 613.755L216.6 613.755L216.6 608.775L212.31 608.775L212.31 613.41L212.31 613.755L210.63 613.755L210.63 614.835L212.28 614.835C212.19 616.86 211.86 619.155 210.6 620.895C210.84 621.045 211.26 621.45 211.425 621.69C212.805 619.8 213.24 617.1 213.36 614.835L215.505 614.835L215.505 620.175C215.505 620.4 215.43 620.46 215.22 620.475C215.01 620.49 214.32 620.49 213.555 620.46C213.705 620.745 213.885 621.21 213.93 621.48C214.98 621.48 215.64 621.465 216.045 621.285C216.45 621.105 216.6 620.79 216.6 620.19L216.6 614.835L218.13 614.835C218.055 616.83 217.755 619.125 216.645 620.865C216.87 621 217.32 621.42 217.485 621.63C218.745 619.755 219.135 617.07 219.225 614.835L221.655 614.835L221.655 620.22C221.655 620.445 221.58 620.52 221.34 620.535C221.145 620.55 220.41 620.55 219.63 620.535C219.795 620.82 219.945 621.3 220.005 621.585C221.1 621.585 221.775 621.57 222.195 621.39C222.615 621.21 222.765 620.865 222.765 620.235L222.765 614.835L224.37 614.835L224.37 613.755L222.765 613.755L222.765 608.775L218.16 608.775ZM213.39 609.84L215.505 609.84L215.505 613.755L213.39 613.755L213.39 613.41L213.39 609.84ZM219.255 613.755L219.255 613.44L219.255 609.84L221.655 609.84L221.655 613.755L219.255 613.755Z"></path></g><g ><path     fill="#B0C4DE"  d="M88.113 797.888L92.7 797.888L92.7 799.274L88.113 799.274L88.113 797.888ZM87.288 797.195L87.288 799.956L93.58 799.956L93.58 797.195L87.288 797.195ZM94.68 793.906C94.295 794.313 93.668 794.841 93.129 795.248C92.865 794.984 92.612 794.709 92.381 794.412C92.92 794.038 93.558 793.532 94.075 793.059L93.437 792.608C93.085 793.004 92.513 793.521 92.007 793.906C91.699 793.477 91.446 793.015 91.237 792.542L90.522 792.784C90.973 793.807 91.6 794.775 92.359 795.589L88.707 795.589C89.334 794.896 89.873 794.082 90.214 793.18L89.675 792.905L89.521 792.938L86.111 792.938L86.111 793.631L89.136 793.631C88.85 794.181 88.465 794.698 88.025 795.171C87.673 794.797 87.079 794.368 86.573 794.082L86.122 794.533C86.617 794.841 87.178 795.292 87.53 795.655C86.837 796.282 86.045 796.799 85.286 797.118C85.451 797.272 85.682 797.558 85.792 797.745C86.738 797.294 87.717 796.623 88.542 795.765L88.542 796.293L92.502 796.293L92.502 795.743C93.272 796.546 94.174 797.206 95.131 797.646C95.263 797.426 95.505 797.107 95.703 796.953C94.955 796.656 94.251 796.216 93.613 795.688C94.163 795.303 94.79 794.808 95.296 794.346L94.68 793.906ZM92.161 800.022C91.985 800.506 91.655 801.188 91.369 801.661L88.806 801.661L89.488 801.419C89.378 801.045 89.103 800.462 88.817 800.044L88.069 800.286C88.333 800.704 88.597 801.287 88.696 801.661L85.66 801.661L85.66 802.376L95.351 802.376L95.351 801.661L92.216 801.661C92.458 801.243 92.722 800.726 92.964 800.242L92.161 800.022ZM97.474 798.273C98.189 798.669 99.058 799.296 99.476 799.714L100.059 799.142C99.619 798.724 98.728 798.141 98.035 797.767L97.474 798.273ZM97.474 793.136L97.474 793.895L104.14 793.895L104.096 794.907L97.804 794.907L97.804 795.666L104.052 795.666L103.986 796.678L96.737 796.678L96.737 797.415L101.071 797.415L101.071 799.428C99.476 800.088 97.815 800.759 96.748 801.166L97.188 801.903C98.266 801.441 99.707 800.825 101.071 800.22L101.071 801.738C101.071 801.892 101.016 801.936 100.84 801.947C100.664 801.958 100.048 801.958 99.399 801.936C99.509 802.145 99.641 802.453 99.685 802.662C100.543 802.662 101.104 802.662 101.445 802.541C101.797 802.42 101.907 802.222 101.907 801.749L101.907 799.164C102.853 800.594 104.228 801.661 105.944 802.2C106.054 801.98 106.307 801.661 106.483 801.485C105.295 801.166 104.261 800.583 103.425 799.813C104.129 799.384 104.954 798.768 105.614 798.207L104.91 797.69C104.415 798.185 103.601 798.834 102.919 799.296C102.512 798.834 102.171 798.306 101.907 797.745L101.907 797.415L106.34 797.415L106.34 796.678L104.844 796.678C104.943 795.545 105.02 794.192 105.042 793.136L104.393 793.092L104.25 793.136L97.474 793.136ZM111.598 796.029L111.598 797.547L109.013 797.547L109.013 796.029L111.598 796.029ZM111.598 795.27L109.013 795.27L109.013 793.84L111.598 793.84L111.598 795.27ZM110.465 799.197C110.674 799.549 110.894 799.934 111.114 800.33L109.013 801.012L109.013 798.295L112.423 798.295L112.423 793.103L108.188 793.103L108.188 800.759C108.188 801.177 107.902 801.375 107.715 801.474C107.847 801.672 108.012 802.068 108.067 802.31C108.298 802.123 108.661 801.98 111.455 800.99C111.664 801.397 111.84 801.793 111.961 802.09L112.709 801.683C112.412 800.957 111.73 799.758 111.158 798.856L110.465 799.197ZM113.424 793.169L113.424 802.64L114.238 802.64L114.238 793.939L116.24 793.939L116.24 799.505C116.24 799.659 116.196 799.703 116.031 799.703C115.888 799.714 115.371 799.714 114.81 799.692C114.92 799.923 115.03 800.264 115.052 800.484C115.855 800.495 116.35 800.484 116.658 800.341C116.966 800.209 117.054 799.967 117.054 799.516L117.054 793.169L113.424 793.169ZM125.865 793.147C126.514 793.697 127.284 794.467 127.647 794.962L128.285 794.522C127.911 794.027 127.119 793.279 126.459 792.751L125.865 793.147ZM124.028 792.674C124.072 793.84 124.149 794.94 124.248 795.952L121.564 796.293L121.685 797.074L124.336 796.744C124.754 800.198 125.634 802.497 127.46 802.629C128.043 802.662 128.483 802.09 128.725 800.187C128.56 800.11 128.197 799.912 128.032 799.747C127.922 801.023 127.746 801.672 127.427 801.661C126.25 801.54 125.524 799.56 125.15 796.634L128.505 796.216L128.384 795.435L125.062 795.853C124.952 794.874 124.886 793.796 124.853 792.674L124.028 792.674ZM121.443 792.63C120.717 794.379 119.496 796.062 118.231 797.14C118.374 797.327 118.627 797.745 118.715 797.932C119.221 797.481 119.716 796.931 120.189 796.326L120.189 802.618L121.036 802.618L121.036 795.116C121.487 794.412 121.894 793.653 122.224 792.883L121.443 792.63ZM131.772 802.629C132.025 802.464 132.432 802.321 135.501 801.342C135.457 801.166 135.391 800.847 135.369 800.616L132.685 801.419L132.685 798.999C133.345 798.548 133.939 798.053 134.412 797.525C135.27 799.835 136.81 801.507 139.087 802.266C139.208 802.046 139.45 801.727 139.637 801.551C138.548 801.232 137.613 800.693 136.854 799.978C137.547 799.549 138.35 798.977 138.988 798.438L138.306 797.954C137.822 798.427 137.052 799.021 136.392 799.483C135.908 798.911 135.512 798.251 135.226 797.525L139.274 797.525L139.274 796.81L134.896 796.81L134.896 795.831L138.438 795.831L138.438 795.149L134.896 795.149L134.896 794.214L138.922 794.214L138.922 793.499L134.896 793.499L134.896 792.52L134.06 792.52L134.06 793.499L130.155 793.499L130.155 794.214L134.06 794.214L134.06 795.149L130.716 795.149L130.716 795.831L134.06 795.831L134.06 796.81L129.715 796.81L129.715 797.525L133.367 797.525C132.322 798.46 130.76 799.307 129.396 799.747C129.572 799.912 129.814 800.22 129.946 800.418C130.562 800.198 131.211 799.89 131.838 799.527L131.838 801.155C131.838 801.595 131.596 801.782 131.409 801.881C131.541 802.057 131.717 802.431 131.772 802.629ZM142.728 795.028L142.728 795.743L148.316 795.743L148.316 795.028L142.728 795.028ZM144.048 797.602L146.952 797.602L146.952 799.692L144.048 799.692L144.048 797.602ZM143.289 796.898L143.289 801.199L144.048 801.199L144.048 800.396L147.722 800.396L147.722 796.898L143.289 796.898ZM140.968 793.092L140.968 802.662L141.771 802.662L141.771 793.873L149.24 793.873L149.24 801.584C149.24 801.782 149.174 801.848 148.976 801.859C148.789 801.859 148.151 801.87 147.458 801.848C147.59 802.057 147.711 802.431 147.755 802.651C148.701 802.651 149.262 802.629 149.592 802.497C149.933 802.365 150.054 802.101 150.054 801.595L150.054 793.092L140.968 793.092ZM154.278 800.121L154.278 801.54C154.278 802.343 154.564 802.541 155.686 802.541C155.917 802.541 157.523 802.541 157.765 802.541C158.667 802.541 158.909 802.255 159.008 801.012C158.788 800.968 158.469 800.858 158.282 800.737C158.238 801.716 158.172 801.848 157.699 801.848C157.336 801.848 156.005 801.848 155.752 801.848C155.18 801.848 155.081 801.804 155.081 801.54L155.081 800.121L154.278 800.121ZM159.151 800.22C159.712 800.814 160.317 801.628 160.559 802.167L161.252 801.826C160.988 801.287 160.372 800.495 159.8 799.923L159.151 800.22ZM152.991 800.033C152.716 800.671 152.232 801.463 151.671 801.947L152.353 802.354C152.914 801.826 153.365 801.001 153.684 800.341L152.991 800.033ZM153.871 798.207L159.162 798.207L159.162 798.977L153.871 798.977L153.871 798.207ZM153.871 796.909L159.162 796.909L159.162 797.657L153.871 797.657L153.871 796.909ZM153.09 796.337L153.09 799.549L155.873 799.549L155.488 799.912C156.093 800.253 156.852 800.781 157.204 801.144L157.721 800.627C157.38 800.297 156.731 799.857 156.159 799.549L159.987 799.549L159.987 796.337L153.09 796.337ZM154.718 794.005L158.271 794.005C158.15 794.324 157.941 794.764 157.765 795.105L155.202 795.105C155.125 794.797 154.938 794.346 154.718 794.005ZM155.873 792.608C156.005 792.817 156.137 793.092 156.247 793.334L152.298 793.334L152.298 794.005L154.608 794.005L153.959 794.159C154.113 794.445 154.278 794.808 154.355 795.105L151.803 795.105L151.803 795.776L161.263 795.776L161.263 795.105L158.612 795.105C158.777 794.819 158.953 794.489 159.129 794.148L158.491 794.005L160.691 794.005L160.691 793.334L157.171 793.334C157.039 793.037 156.852 792.685 156.665 792.421L155.873 792.608ZM170.866 802.508L168.49 797.58L170.866 792.652L170.261 792.454L167.819 797.58L170.261 802.706L170.866 802.508ZM172.593 802.508L170.228 797.58L172.593 792.652L171.999 792.454L169.557 797.58L171.999 802.706L172.593 802.508ZM174.683 793.29L174.683 797.283C174.683 798.834 174.573 800.781 173.352 802.156C173.539 802.255 173.869 802.53 173.99 802.695C174.837 801.76 175.211 800.495 175.376 799.263L178.137 799.263L178.137 802.541L178.973 802.541L178.973 799.263L181.943 799.263L181.943 801.518C181.943 801.716 181.866 801.782 181.646 801.793C181.437 801.804 180.689 801.815 179.919 801.782C180.029 802.002 180.161 802.365 180.205 802.574C181.239 802.585 181.877 802.574 182.251 802.442C182.625 802.31 182.757 802.057 182.757 801.518L182.757 793.29L174.683 793.29ZM175.497 794.082L178.137 794.082L178.137 795.853L175.497 795.853L175.497 794.082ZM181.943 794.082L181.943 795.853L178.973 795.853L178.973 794.082L181.943 794.082ZM175.497 796.634L178.137 796.634L178.137 798.482L175.453 798.482C175.486 798.064 175.497 797.657 175.497 797.283L175.497 796.634ZM181.943 796.634L181.943 798.482L178.973 798.482L178.973 796.634L181.943 796.634ZM186.717 794.995L192.459 794.995L192.459 797.206L186.706 797.206L186.717 796.623L186.717 794.995ZM188.851 792.674C189.071 793.158 189.313 793.774 189.445 794.225L185.859 794.225L185.859 796.623C185.859 798.284 185.716 800.572 184.374 802.211C184.572 802.299 184.935 802.552 185.089 802.706C186.167 801.386 186.552 799.56 186.673 797.976L192.459 797.976L192.459 798.702L193.295 798.702L193.295 794.225L189.808 794.225L190.314 794.071C190.182 793.642 189.907 792.971 189.643 792.465L188.851 792.674ZM199.246 796.546C199.048 797.591 198.685 798.636 198.201 799.34C198.377 799.439 198.696 799.659 198.828 799.769C199.323 799.01 199.752 797.855 199.994 796.689L199.246 796.546ZM204.218 796.722C204.526 797.734 204.834 799.076 204.922 799.868L205.692 799.67C205.571 798.9 205.241 797.591 204.922 796.579L204.218 796.722ZM196.76 792.52L196.76 795.094L195.517 795.094L195.517 795.864L196.76 795.864L196.76 802.629L197.563 802.629L197.563 795.864L198.74 795.864L198.74 795.094L197.563 795.094L197.563 792.52L196.76 792.52ZM201.039 792.619L201.039 794.588L201.039 794.61L199.081 794.61L199.081 795.413L201.028 795.413C200.962 797.536 200.511 800.099 198.08 802.09C198.278 802.222 198.575 802.475 198.718 802.651C201.281 800.506 201.754 797.723 201.82 795.413L203.349 795.413C203.239 799.681 203.129 801.243 202.832 801.595C202.722 801.738 202.612 801.76 202.403 801.76C202.172 801.76 201.6 801.76 200.962 801.705C201.116 801.925 201.193 802.266 201.215 802.508C201.798 802.541 202.392 802.552 202.733 802.508C203.096 802.475 203.327 802.376 203.547 802.079C203.921 801.584 204.031 799.945 204.141 795.028C204.141 794.918 204.152 794.61 204.152 794.61L201.831 794.61L201.831 794.588L201.831 792.619L201.039 792.619ZM211.962 793.037C212.402 793.774 212.864 794.753 213.04 795.358L213.788 795.017C213.612 794.412 213.117 793.466 212.655 792.74L211.962 793.037ZM207.243 793.279C207.738 793.796 208.332 794.522 208.618 794.984L209.245 794.467C208.959 794.016 208.343 793.334 207.837 792.828L207.243 793.279ZM215.152 793.202C214.789 795.49 214.217 797.547 213.04 799.197C211.929 797.657 211.258 795.666 210.862 793.334L210.081 793.466C210.554 796.073 211.269 798.24 212.479 799.89C211.709 800.759 210.708 801.485 209.421 802.035C209.575 802.211 209.806 802.519 209.916 802.717C211.192 802.145 212.204 801.397 213.007 800.528C213.832 801.452 214.866 802.167 216.142 802.673C216.274 802.453 216.538 802.123 216.736 801.958C215.438 801.496 214.404 800.781 213.568 799.857C214.899 798.075 215.559 795.842 215.999 793.334L215.152 793.202ZM206.506 795.963L206.506 796.766L208.057 796.766L208.057 800.649C208.057 801.221 207.76 801.595 207.584 801.771C207.727 801.892 207.969 802.178 208.057 802.354C208.233 802.134 208.519 801.914 210.455 800.539C210.367 800.374 210.246 800.055 210.18 799.835L208.86 800.748L208.86 795.963L206.506 795.963ZM219.134 802.508L219.728 802.706L222.17 797.58L219.728 792.454L219.134 792.652L221.499 797.58L219.134 802.508ZM217.396 802.508L217.99 802.706L220.432 797.58L217.99 792.454L217.396 792.652L219.761 797.58L217.396 802.508ZM233.841 793.543L233.841 802.145L234.644 802.145L234.644 801.243L237.097 801.243L237.097 802.068L237.933 802.068L237.933 793.543L233.841 793.543ZM234.644 800.451L234.644 794.335L237.097 794.335L237.097 800.451L234.644 800.451ZM232.829 792.619C231.861 793.015 230.123 793.345 228.66 793.543C228.748 793.73 228.858 794.016 228.891 794.203C229.474 794.137 230.101 794.049 230.717 793.939L230.717 795.776L228.55 795.776L228.55 796.546L230.508 796.546C230.002 797.932 229.122 799.439 228.286 800.286C228.429 800.495 228.638 800.814 228.737 801.056C229.452 800.297 230.178 799.032 230.717 797.734L230.717 802.618L231.531 802.618L231.531 797.767C232.004 798.394 232.62 799.23 232.873 799.648L233.379 798.966C233.115 798.625 231.938 797.239 231.531 796.821L231.531 796.546L233.456 796.546L233.456 795.776L231.531 795.776L231.531 793.774C232.224 793.631 232.862 793.466 233.379 793.268L232.829 792.619ZM247.866 802.508L245.49 797.58L247.866 792.652L247.261 792.454L244.819 797.58L247.261 802.706L247.866 802.508ZM249.593 802.508L247.228 797.58L249.593 792.652L248.999 792.454L246.557 797.58L248.999 802.706L249.593 802.508ZM255.258 799.912L255.258 801.562C255.258 802.332 255.489 802.541 256.446 802.541C256.644 802.541 257.865 802.541 258.063 802.541C258.8 802.541 259.031 802.288 259.119 801.166C258.899 801.122 258.591 801.012 258.437 800.891C258.404 801.738 258.338 801.837 257.986 801.837C257.722 801.837 256.699 801.837 256.512 801.837C256.083 801.837 256.006 801.793 256.006 801.562L256.006 799.912L255.258 799.912ZM254.279 799.879C254.103 800.528 253.773 801.386 253.41 801.914L254.037 802.321C254.411 801.727 254.73 800.814 254.917 800.154L254.279 799.879ZM255.951 799.45C256.556 799.89 257.326 800.506 257.7 800.913L258.217 800.407C257.832 800.022 257.062 799.417 256.457 799.021L255.951 799.45ZM258.679 800C259.174 800.682 259.68 801.595 259.878 802.211L260.56 801.914C260.34 801.309 259.834 800.418 259.328 799.747L258.679 800ZM255.951 792.619C255.566 793.356 254.873 794.291 253.938 794.995C254.114 795.094 254.356 795.325 254.488 795.49L254.51 795.468L254.51 795.853L259.119 795.853L259.119 796.755L254.763 796.755L254.763 797.382L259.119 797.382L259.119 798.361L254.444 798.361L254.444 799.01L259.9 799.01L259.9 795.204L257.975 795.204C258.371 794.753 258.8 794.214 259.086 793.719L258.58 793.389L258.47 793.422L256.314 793.422C256.468 793.191 256.6 792.971 256.721 792.751L255.951 792.619ZM254.818 795.204C255.203 794.841 255.555 794.456 255.863 794.06L257.997 794.06C257.744 794.456 257.403 794.885 257.117 795.204L254.818 795.204ZM250.891 792.993L250.891 802.64L251.628 802.64L251.628 793.741L253.102 793.741C252.86 794.489 252.541 795.49 252.222 796.293C253.014 797.151 253.212 797.888 253.212 798.493C253.212 798.823 253.157 799.12 252.992 799.241C252.893 799.307 252.783 799.329 252.64 799.34C252.464 799.351 252.255 799.34 252.002 799.329C252.123 799.538 252.189 799.857 252.2 800.055C252.453 800.066 252.728 800.055 252.948 800.033C253.179 800.011 253.366 799.945 253.52 799.835C253.828 799.626 253.96 799.164 253.96 798.57C253.96 797.888 253.773 797.107 252.97 796.194C253.333 795.314 253.751 794.192 254.059 793.279L253.531 792.96L253.399 792.993L250.891 792.993ZM265.796 801.98C266.104 801.815 266.566 801.727 270.372 801.133C270.515 801.562 270.636 801.969 270.724 802.31L271.549 801.969C271.23 800.715 270.394 798.658 269.646 797.063L268.887 797.349C269.316 798.284 269.756 799.384 270.119 800.396L266.797 800.88C267.633 798.636 268.414 795.688 268.909 792.971L268.029 792.817C267.578 795.611 266.632 798.757 266.324 799.593C266.016 800.473 265.763 801.067 265.51 801.155C265.598 801.397 265.752 801.804 265.796 801.98ZM265.609 792.674C264.663 793.07 263.013 793.422 261.627 793.631C261.715 793.807 261.825 794.093 261.858 794.28C262.419 794.203 263.013 794.104 263.596 793.994L263.596 795.622L261.649 795.622L261.649 796.392L263.464 796.392C262.947 797.668 262.078 799.098 261.286 799.868C261.429 800.077 261.627 800.418 261.715 800.649C262.375 799.934 263.068 798.779 263.596 797.613L263.596 802.618L264.388 802.618L264.388 797.36C264.828 797.932 265.411 798.735 265.631 799.109L266.137 798.438C265.895 798.119 264.751 796.854 264.388 796.513L264.388 796.392L266.203 796.392L266.203 795.622L264.388 795.622L264.388 793.84C265.015 793.697 265.609 793.532 266.093 793.345L265.609 792.674ZM278.743 792.52C278.435 794.17 277.929 795.765 277.203 796.898L277.203 796.502L275.696 796.502L275.696 794.093L277.621 794.093L277.621 793.301L272.561 793.301L272.561 794.093L274.893 794.093L274.893 800.264L273.782 800.506L273.782 795.765L273.023 795.765L273.023 800.66L272.363 800.792L272.528 801.628C273.892 801.309 275.85 800.858 277.676 800.418L277.599 799.659L275.696 800.088L275.696 797.294L276.928 797.294L276.884 797.349C277.071 797.481 277.412 797.756 277.544 797.91C277.808 797.558 278.039 797.162 278.259 796.722C278.545 797.888 278.908 798.944 279.403 799.857C278.776 800.737 277.962 801.43 276.873 801.947C277.038 802.123 277.28 802.475 277.368 802.662C278.402 802.123 279.216 801.441 279.854 800.605C280.448 801.474 281.174 802.167 282.087 802.64C282.219 802.42 282.472 802.112 282.659 801.947C281.702 801.507 280.954 800.781 280.349 799.868C281.064 798.669 281.515 797.173 281.801 795.336L282.549 795.336L282.549 794.566L279.095 794.566C279.271 793.95 279.436 793.312 279.568 792.652L278.743 792.52ZM278.842 795.336L280.965 795.336C280.756 796.799 280.415 798.031 279.887 799.054C279.37 798.031 279.007 796.832 278.765 795.534L278.842 795.336ZM289.358 792.476C289.006 793.466 288.357 794.39 287.587 794.995C287.73 795.072 287.95 795.215 288.115 795.336L288.115 795.721L283.748 795.721L283.748 796.447L288.115 796.447L288.115 797.305L284.54 797.305L284.54 800.154L285.398 800.154L285.398 798.02L288.115 798.02L288.115 798.977C287.136 800.187 285.299 801.166 283.473 801.595C283.66 801.76 283.88 802.079 284.001 802.288C285.508 801.859 287.037 801.034 288.115 799.967L288.115 802.64L288.995 802.64L288.995 799.989C289.952 800.88 291.404 801.782 293.12 802.233C293.241 802.024 293.483 801.694 293.648 801.518C291.624 801.067 289.875 800.044 288.995 799.065L288.995 798.02L291.745 798.02L291.745 799.351C291.745 799.461 291.712 799.494 291.591 799.494C291.459 799.505 291.041 799.505 290.59 799.494C290.689 799.67 290.821 799.934 290.865 800.143C291.492 800.143 291.932 800.143 292.218 800.033C292.515 799.912 292.592 799.736 292.592 799.351L292.592 797.305L288.995 797.305L288.995 796.447L293.219 796.447L293.219 795.721L288.995 795.721L288.995 795.017L288.753 795.017C288.973 794.764 289.193 794.489 289.391 794.192L290.216 794.192C290.502 794.621 290.766 795.116 290.876 795.468L291.613 795.204C291.514 794.929 291.305 794.544 291.074 794.192L293.362 794.192L293.362 793.488L289.809 793.488C289.941 793.224 290.062 792.949 290.172 792.674L289.358 792.476ZM285.101 792.476C284.727 793.444 284.078 794.39 283.363 795.017C283.561 795.127 283.902 795.358 284.056 795.479C284.408 795.127 284.76 794.687 285.09 794.192L285.618 794.192C285.86 794.632 286.091 795.149 286.201 795.49L286.927 795.215C286.839 794.94 286.652 794.555 286.454 794.192L288.335 794.192L288.335 793.488L285.497 793.488C285.64 793.224 285.772 792.96 285.882 792.685L285.101 792.476ZM296.134 802.508L296.728 802.706L299.17 797.58L296.728 792.454L296.134 792.652L298.499 797.58L296.134 802.508ZM294.396 802.508L294.99 802.706L297.432 797.58L294.99 792.454L294.396 792.652L296.761 797.58L294.396 802.508Z"></path></g><defs><linearGradient id="linear_fill_4kaA0Ykae8q6Y4UYw04fP_0" x1="40" y1="515" x2="350" y2="515" gradientUnits="userSpaceOnUse"><stop offset="0" stop-color="#5B9BD5"  /><stop offset="1" stop-color="#4A86C8"  /></linearGradient></defs></svg>