<svg xmlns="http://www.w3.org/2000/svg" xmlns:xlink="http://www.w3.org/1999/xlink" width="390" height="844" viewBox="0 0 390 844" fill="none"><g  clip-path="url(#clip-path-lXbAkOq0wz2A4knckqSFC)"><rect x="0" y="0" width="390" height="54"   fill="#E8F4FD" ></rect><g ><path     fill="#333333"  d="M33.66 38.61C35.775 38.61 37.755 36.84 37.755 32.505C37.755 28.845 36.045 27.15 33.93 27.15C32.145 27.15 30.63 28.59 30.63 30.78C30.63 33.09 31.89 34.26 33.735 34.26C34.575 34.26 35.505 33.765 36.135 32.985C36.045 36.105 34.92 37.17 33.57 37.17C32.88 37.17 32.205 36.855 31.77 36.345L30.825 37.425C31.47 38.085 32.37 38.61 33.66 38.61ZM36.12 31.65C35.49 32.61 34.71 33 34.035 33C32.88 33 32.25 32.175 32.25 30.78C32.25 29.34 33 28.485 33.96 28.485C35.145 28.485 35.955 29.475 36.12 31.65ZM40.785 32.7C41.445 32.7 41.955 32.205 41.955 31.5C41.955 30.78 41.445 30.27 40.785 30.27C40.14 30.27 39.63 30.78 39.63 31.5C39.63 32.205 40.14 32.7 40.785 32.7ZM40.785 38.61C41.445 38.61 41.955 38.085 41.955 37.38C41.955 36.675 41.445 36.165 40.785 36.165C40.14 36.165 39.63 36.675 39.63 37.38C39.63 38.085 40.14 38.61 40.785 38.61ZM48.105 38.4L49.725 38.4L49.725 35.43L51.12 35.43L51.12 34.08L49.725 34.08L49.725 27.345L47.715 27.345L43.32 34.275L43.32 35.43L48.105 35.43L48.105 38.4ZM48.105 34.08L45.075 34.08L47.235 30.765C47.55 30.195 47.85 29.625 48.12 29.055L48.18 29.055C48.15 29.67 48.105 30.6 48.105 31.2L48.105 34.08ZM52.845 38.4L59.16 38.4L59.16 36.975L57.015 36.975L57.015 27.345L55.71 27.345C55.065 27.75 54.33 28.02 53.295 28.2L53.295 29.295L55.275 29.295L55.275 36.975L52.845 36.975L52.845 38.4Z"></path></g><g ><path     fill="#333333"  d="M341.5 40.2L353.5 40.2L353.5 25.2L341.5 25.2L341.5 40.2ZM347.5 32.085L342.73 25.95L352.27 25.95L347.5 32.085ZM347.98 32.7L352.75 26.565L352.75 38.835L347.98 32.7ZM342.73 39.45L347.5 33.315L352.27 39.45L342.73 39.45ZM342.25 26.565L347.02 32.7L342.25 38.835L342.25 26.565ZM356.5 40.2L368.5 40.2L368.5 25.2L356.5 25.2L356.5 40.2ZM362.5 32.085L357.73 25.95L367.27 25.95L362.5 32.085ZM362.98 32.7L367.75 26.565L367.75 38.835L362.98 32.7ZM357.73 39.45L362.5 33.315L367.27 39.45L357.73 39.45ZM357.25 26.565L362.02 32.7L357.25 38.835L357.25 26.565ZM371.5 40.2L383.5 40.2L383.5 25.2L371.5 25.2L371.5 40.2ZM377.5 32.085L372.73 25.95L382.27 25.95L377.5 32.085ZM377.98 32.7L382.75 26.565L382.75 38.835L377.98 32.7ZM372.73 39.45L377.5 33.315L382.27 39.45L372.73 39.45ZM372.25 26.565L377.02 32.7L372.25 38.835L372.25 26.565Z"></path></g><rect x="0" y="54" width="390" height="60"   fill="#E8F4FD" ></rect><g ></g><g ><path     fill="#2C5F8A"  d="M160.764 83.074C161.736 83.92 162.906 85.126 163.482 85.9L164.4 84.928C163.842 84.19 162.6 83.056 161.628 82.246L160.764 83.074ZM166.038 85.648L166.038 86.818L168.36 86.818C168.162 87.7 167.946 88.564 167.748 89.284L164.76 89.284L164.76 90.508L176.244 90.508L176.244 89.284L174.12 89.284C174.264 88.132 174.408 86.8 174.48 85.666L173.526 85.576L173.31 85.648L169.98 85.648L170.412 83.614L175.632 83.614L175.632 82.408L165.39 82.408L165.39 83.614L169.026 83.614L168.612 85.648L166.038 85.648ZM169.152 89.284L169.728 86.818L173.094 86.818C173.04 87.574 172.95 88.474 172.842 89.284L169.152 89.284ZM166.254 92.002L166.254 98.32L167.55 98.32L167.55 97.618L173.688 97.618L173.688 98.266L175.02 98.266L175.02 92.002L166.254 92.002ZM167.55 96.43L167.55 93.208L173.688 93.208L173.688 96.43L167.55 96.43ZM162.348 97.78C162.618 97.438 163.086 97.078 166.092 94.99C165.984 94.72 165.804 94.198 165.732 93.856L163.572 95.278L163.572 87.394L159.81 87.394L159.81 88.708L162.312 88.708L162.312 95.242C162.312 95.98 161.934 96.394 161.664 96.574C161.898 96.862 162.24 97.456 162.348 97.78ZM180.6 89.824L180.6 90.94L191.454 90.94L191.454 89.824L180.6 89.824ZM180.6 87.124L180.6 88.24L191.454 88.24L191.454 87.124L180.6 87.124ZM180.42 92.65L180.42 98.302L181.752 98.302L181.752 97.546L190.284 97.546L190.284 98.248L191.652 98.248L191.652 92.65L180.42 92.65ZM181.752 96.394L181.752 93.802L190.284 93.802L190.284 96.394L181.752 96.394ZM184.416 82.12C185.046 82.822 185.694 83.776 186.054 84.46L177.972 84.46L177.972 85.648L194.118 85.648L194.118 84.46L186.882 84.46L187.53 84.244C187.188 83.542 186.432 82.498 185.73 81.724L184.416 82.12ZM197.196 82.912C198.15 83.758 199.356 84.964 199.914 85.738L200.832 84.784C200.256 84.046 199.05 82.876 198.078 82.084L197.196 82.912ZM195.774 87.412L195.774 88.708L198.312 88.708L198.312 95.17C198.312 95.998 197.754 96.592 197.412 96.808C197.664 97.078 198.024 97.636 198.15 97.96C198.42 97.6 198.906 97.24 202.11 94.864C201.948 94.594 201.732 94.09 201.624 93.73L199.626 95.188L199.626 87.412L195.774 87.412ZM203.838 82.408L203.838 84.406C203.838 85.738 203.442 87.232 201.066 88.312C201.318 88.528 201.786 89.05 201.948 89.32C204.54 88.078 205.116 86.134 205.116 84.442L205.116 83.668L208.302 83.668L208.302 86.566C208.302 87.934 208.554 88.438 209.814 88.438C210.012 88.438 210.894 88.438 211.164 88.438C211.524 88.438 211.902 88.42 212.118 88.348C212.064 88.042 212.028 87.52 211.992 87.178C211.776 87.232 211.398 87.268 211.146 87.268C210.912 87.268 210.102 87.268 209.904 87.268C209.616 87.268 209.58 87.106 209.58 86.584L209.58 82.408L203.838 82.408ZM209.49 90.976C208.842 92.416 207.87 93.604 206.682 94.558C205.476 93.568 204.522 92.362 203.874 90.976L209.49 90.976ZM201.912 89.716L201.912 90.976L202.848 90.976L202.596 91.066C203.316 92.722 204.342 94.162 205.62 95.332C204.27 96.196 202.722 96.79 201.138 97.15C201.39 97.438 201.678 97.978 201.786 98.32C203.532 97.852 205.188 97.168 206.646 96.178C208.014 97.186 209.652 97.924 211.506 98.374C211.668 97.996 212.046 97.456 212.334 97.168C210.606 96.808 209.058 96.178 207.744 95.332C209.274 94 210.498 92.272 211.218 90.022L210.39 89.662L210.156 89.716L201.912 89.716ZM224.718 83.416L227.76 83.416L227.76 85.036L224.718 85.036L224.718 83.416ZM220.506 83.416L223.476 83.416L223.476 85.036L220.506 85.036L220.506 83.416ZM216.402 83.416L219.264 83.416L219.264 85.036L216.402 85.036L216.402 83.416ZM216.42 89.194L216.42 96.772L214.026 96.772L214.026 97.78L230.01 97.78L230.01 96.772L227.544 96.772L227.544 89.194L221.91 89.194L222.162 88.132L229.596 88.132L229.596 87.07L222.36 87.07L222.558 86.026L229.11 86.026L229.11 82.444L215.106 82.444L215.106 86.026L221.172 86.026L221.028 87.07L214.224 87.07L214.224 88.132L220.848 88.132L220.632 89.194L216.42 89.194ZM217.716 96.772L217.716 95.656L226.212 95.656L226.212 96.772L217.716 96.772ZM217.716 91.93L226.212 91.93L226.212 92.974L217.716 92.974L217.716 91.93ZM217.716 91.12L217.716 90.112L226.212 90.112L226.212 91.12L217.716 91.12ZM217.716 93.784L226.212 93.784L226.212 94.846L217.716 94.846L217.716 93.784Z"></path></g><g ><path     fill="#4A6A85"  d="M44.354 148.446L44.354 149.272C44.354 150.322 44.116 151.68 41.652 152.604C41.876 152.8 42.226 153.178 42.366 153.444C45.096 152.352 45.432 150.644 45.432 149.3L45.432 148.446L44.354 148.446ZM43.234 144.148L46.454 144.148L46.454 145.674L43.234 145.674L43.234 144.148ZM47.504 144.148L50.752 144.148L50.752 145.674L47.504 145.674L47.504 144.148ZM43.234 141.824L46.454 141.824L46.454 143.322L43.234 143.322L43.234 141.824ZM47.504 141.824L50.752 141.824L50.752 143.322L47.504 143.322L47.504 141.824ZM48.806 148.446L48.806 153.332L49.884 153.332L49.884 148.474C50.766 149.076 51.76 149.566 52.754 149.874C52.908 149.608 53.23 149.202 53.468 148.978C51.802 148.544 50.122 147.648 49.044 146.556L51.83 146.556L51.83 140.928L42.198 140.928L42.198 146.556L44.998 146.556C43.92 147.662 42.24 148.6 40.63 149.062C40.868 149.286 41.176 149.664 41.33 149.944C43.178 149.286 45.124 148.026 46.286 146.556L47.826 146.556C48.358 147.256 49.058 147.9 49.842 148.446L48.806 148.446ZM59.446 147.564L62.414 147.564L62.414 149.146L59.446 149.146L59.446 147.564ZM59.446 146.71L59.446 145.156L62.414 145.156L62.414 146.71L59.446 146.71ZM59.446 150L62.414 150L62.414 151.638L59.446 151.638L59.446 150ZM54.812 141.404L54.812 142.412L60.216 142.412C60.118 142.986 59.964 143.644 59.824 144.176L55.456 144.176L55.456 153.36L56.464 153.36L56.464 152.618L65.48 152.618L65.48 153.36L66.544 153.36L66.544 144.176L60.902 144.176L61.448 142.412L67.23 142.412L67.23 141.404L54.812 141.404ZM56.464 151.638L56.464 145.156L58.48 145.156L58.48 151.638L56.464 151.638ZM65.48 151.638L63.38 151.638L63.38 145.156L65.48 145.156L65.48 151.638ZM69.372 141.502C70.128 142.16 71.038 143.098 71.486 143.7L72.2 142.944C71.766 142.37 70.8 141.488 70.044 140.858L69.372 141.502ZM73.474 143.504L73.474 144.414L75.28 144.414C75.126 145.1 74.958 145.772 74.804 146.332L72.48 146.332L72.48 147.284L81.412 147.284L81.412 146.332L79.76 146.332C79.872 145.436 79.984 144.4 80.04 143.518L79.298 143.448L79.13 143.504L76.54 143.504L76.876 141.922L80.936 141.922L80.936 140.984L72.97 140.984L72.97 141.922L75.798 141.922L75.476 143.504L73.474 143.504ZM75.896 146.332L76.344 144.414L78.962 144.414C78.92 145.002 78.85 145.702 78.766 146.332L75.896 146.332ZM73.642 148.446L73.642 153.36L74.65 153.36L74.65 152.814L79.424 152.814L79.424 153.318L80.46 153.318L80.46 148.446L73.642 148.446ZM74.65 151.89L74.65 149.384L79.424 149.384L79.424 151.89L74.65 151.89ZM70.604 152.94C70.814 152.674 71.178 152.394 73.516 150.77C73.432 150.56 73.292 150.154 73.236 149.888L71.556 150.994L71.556 144.862L68.63 144.862L68.63 145.884L70.576 145.884L70.576 150.966C70.576 151.54 70.282 151.862 70.072 152.002C70.254 152.226 70.52 152.688 70.604 152.94ZM84.8 146.752L84.8 147.62L93.242 147.62L93.242 146.752L84.8 146.752ZM84.8 144.652L84.8 145.52L93.242 145.52L93.242 144.652L84.8 144.652ZM84.66 148.95L84.66 153.346L85.696 153.346L85.696 152.758L92.332 152.758L92.332 153.304L93.396 153.304L93.396 148.95L84.66 148.95ZM85.696 151.862L85.696 149.846L92.332 149.846L92.332 151.862L85.696 151.862ZM87.768 140.76C88.258 141.306 88.762 142.048 89.042 142.58L82.756 142.58L82.756 143.504L95.314 143.504L95.314 142.58L89.686 142.58L90.19 142.412C89.924 141.866 89.336 141.054 88.79 140.452L87.768 140.76Z"></path></g><g opacity="0.95"><rect  x="40" y="165" width="310" height="55" rx="14"    fill="#FFFFFF" ></rect></g><g ><path     fill="#2C5F8A"  d="M96.605 192.59L96.605 200.57L97.7 200.57L97.7 192.59L96.605 192.59ZM97.28 191.315C97.91 191.87 98.63 192.68 98.96 193.205L99.83 192.59C99.485 192.065 98.75 191.3 98.105 190.745L97.28 191.315ZM99.8 193.595L99.8 198.785L105.32 198.785L105.32 193.595L99.8 193.595ZM98.105 186.755C97.61 188.18 96.74 189.545 95.735 190.43C95.99 190.565 96.44 190.88 96.665 191.06C97.205 190.52 97.745 189.83 98.21 189.065L99.11 189.065C99.455 189.68 99.8 190.415 99.95 190.91L100.94 190.505C100.805 190.115 100.535 189.575 100.25 189.065L102.395 189.065L102.395 188.12L98.72 188.12C98.885 187.76 99.035 187.4 99.17 187.025L98.105 186.755ZM103.94 186.785C103.565 188.075 102.875 189.305 102.02 190.13C102.305 190.265 102.755 190.58 102.95 190.76C103.37 190.31 103.79 189.725 104.15 189.08L105.305 189.08C105.755 189.71 106.19 190.475 106.37 190.985L107.345 190.55C107.18 190.145 106.85 189.605 106.505 189.08L108.95 189.08L108.95 188.135L104.615 188.135C104.765 187.775 104.9 187.4 105.02 187.025L103.94 186.785ZM104.3 196.565L104.3 197.915L100.775 197.915L100.775 196.565L104.3 196.565ZM100.775 194.465L104.3 194.465L104.3 195.725L100.775 195.725L100.775 194.465ZM100.25 191.33L100.25 192.35L107.3 192.35L107.3 199.235C107.3 199.46 107.24 199.52 107 199.535C106.775 199.55 105.98 199.55 105.14 199.52C105.29 199.79 105.44 200.225 105.5 200.51C106.625 200.51 107.36 200.495 107.825 200.345C108.275 200.165 108.41 199.88 108.41 199.25L108.41 191.33L100.25 191.33ZM113.765 186.86C113.015 189.125 111.785 191.375 110.45 192.845C110.675 193.1 111.005 193.7 111.11 193.955C111.56 193.445 111.995 192.86 112.4 192.215L112.4 200.57L113.48 200.57L113.48 190.325C113.99 189.305 114.44 188.225 114.815 187.16L113.765 186.86ZM116.24 196.775L116.24 197.81L118.715 197.81L118.715 200.51L119.81 200.51L119.81 197.81L122.225 197.81L122.225 196.775L119.81 196.775L119.81 191.585C120.74 194.195 122.18 196.715 123.74 198.14C123.95 197.84 124.325 197.45 124.595 197.255C122.975 195.95 121.415 193.43 120.53 190.91L124.31 190.91L124.31 189.83L119.81 189.83L119.81 186.845L118.715 186.845L118.715 189.83L114.47 189.83L114.47 190.91L118.04 190.91C117.11 193.46 115.535 196.01 113.885 197.33C114.14 197.525 114.515 197.915 114.695 198.185C116.285 196.745 117.755 194.27 118.715 191.63L118.715 196.775L116.24 196.775ZM131.87 186.8L131.87 189.485L126.44 189.485L126.44 196.61L127.565 196.61L127.565 195.68L131.87 195.68L131.87 200.585L133.055 200.585L133.055 195.68L137.375 195.68L137.375 196.535L138.53 196.535L138.53 189.485L133.055 189.485L133.055 186.8L131.87 186.8ZM127.565 194.57L127.565 190.58L131.87 190.58L131.87 194.57L127.565 194.57ZM137.375 194.57L133.055 194.57L133.055 190.58L137.375 190.58L137.375 194.57ZM146.345 187.055C146.795 187.79 147.275 188.795 147.455 189.41L148.7 189.005C148.49 188.39 147.965 187.415 147.515 186.695L146.345 187.055ZM140.75 189.44L140.75 190.55L143.09 190.55C143.975 192.83 145.16 194.795 146.705 196.4C145.055 197.78 143.03 198.8 140.54 199.505C140.765 199.775 141.125 200.3 141.245 200.57C143.75 199.76 145.835 198.68 147.53 197.21C149.225 198.71 151.265 199.82 153.725 200.495C153.92 200.18 154.25 199.7 154.505 199.46C152.105 198.86 150.065 197.795 148.4 196.385C149.915 194.84 151.07 192.92 151.94 190.55L154.31 190.55L154.31 189.44L140.75 189.44ZM147.56 195.605C146.15 194.18 145.04 192.47 144.26 190.55L150.665 190.55C149.915 192.575 148.88 194.24 147.56 195.605Z"></path></g><circle cx="320" cy="192" r="10"   fill="#5B9BD5" ></circle><circle cx="320" cy="192" r="5"   fill="#FFFFFF" ></circle><g opacity="0.85"><rect  x="40" y="230" width="310" height="55" rx="14"    fill="#FFFFFF" ></rect></g><g ><path     fill="#2C5F8A"  d="M96.515 264.4L103.01 264.4L103.01 263.215L97.895 263.215L97.895 259.21L102.065 259.21L102.065 258.025L97.895 258.025L97.895 254.575L102.845 254.575L102.845 253.405L96.515 253.405L96.515 264.4ZM105.215 264.4L106.595 264.4L106.595 258.49C107.405 257.665 107.975 257.245 108.815 257.245C109.895 257.245 110.36 257.89 110.36 259.42L110.36 264.4L111.725 264.4L111.725 259.24C111.725 257.17 110.945 256.045 109.235 256.045C108.125 256.045 107.27 256.66 106.505 257.44L106.475 257.44L106.34 256.255L105.215 256.255L105.215 264.4ZM117.11 268.15C119.63 268.15 121.235 266.845 121.235 265.33C121.235 263.98 120.275 263.395 118.4 263.395L116.795 263.395C115.7 263.395 115.37 263.02 115.37 262.51C115.37 262.06 115.595 261.79 115.895 261.535C116.255 261.715 116.705 261.82 117.095 261.82C118.775 261.82 120.08 260.725 120.08 258.985C120.08 258.28 119.81 257.68 119.42 257.305L121.085 257.305L121.085 256.255L118.25 256.255C117.965 256.135 117.56 256.045 117.095 256.045C115.46 256.045 114.05 257.17 114.05 258.955C114.05 259.93 114.575 260.725 115.115 261.145L115.115 261.205C114.68 261.505 114.215 262.045 114.215 262.72C114.215 263.365 114.53 263.8 114.95 264.055L114.95 264.13C114.185 264.595 113.75 265.27 113.75 265.975C113.75 267.37 115.13 268.15 117.11 268.15ZM117.095 260.89C116.165 260.89 115.37 260.14 115.37 258.955C115.37 257.755 116.15 257.05 117.095 257.05C118.07 257.05 118.835 257.755 118.835 258.955C118.835 260.14 118.04 260.89 117.095 260.89ZM117.305 267.205C115.82 267.205 114.95 266.65 114.95 265.78C114.95 265.315 115.19 264.82 115.775 264.4C116.135 264.49 116.525 264.52 116.825 264.52L118.235 264.52C119.315 264.52 119.885 264.79 119.885 265.555C119.885 266.395 118.88 267.205 117.305 267.205ZM124.265 264.595C124.64 264.595 124.865 264.535 125.06 264.475L124.865 263.425C124.715 263.455 124.655 263.455 124.58 263.455C124.37 263.455 124.205 263.29 124.205 262.87L124.205 252.46L122.825 252.46L122.825 262.78C122.825 263.935 123.245 264.595 124.265 264.595ZM127.085 264.4L128.465 264.4L128.465 256.255L127.085 256.255L127.085 264.4ZM127.775 254.575C128.315 254.575 128.69 254.215 128.69 253.66C128.69 253.135 128.315 252.775 127.775 252.775C127.235 252.775 126.875 253.135 126.875 253.66C126.875 254.215 127.235 254.575 127.775 254.575ZM133.34 264.595C135.26 264.595 136.295 263.5 136.295 262.18C136.295 260.635 135.005 260.155 133.82 259.705C132.905 259.36 132.065 259.06 132.065 258.295C132.065 257.65 132.545 257.11 133.58 257.11C134.3 257.11 134.87 257.425 135.425 257.83L136.085 256.975C135.47 256.465 134.57 256.045 133.565 256.045C131.78 256.045 130.76 257.065 130.76 258.355C130.76 259.75 131.99 260.29 133.13 260.71C134.03 261.04 134.99 261.43 134.99 262.255C134.99 262.96 134.465 263.53 133.385 263.53C132.41 263.53 131.69 263.14 130.97 262.555L130.31 263.47C131.075 264.115 132.185 264.595 133.34 264.595ZM138.23 264.4L139.61 264.4L139.61 258.49C140.42 257.665 140.99 257.245 141.83 257.245C142.91 257.245 143.375 257.89 143.375 259.42L143.375 264.4L144.74 264.4L144.74 259.24C144.74 257.17 143.96 256.045 142.25 256.045C141.14 256.045 140.3 256.66 139.55 257.41L139.61 255.73L139.61 252.46L138.23 252.46L138.23 264.4Z"></path></g><circle cx="320" cy="257" r="10" stroke="rgba(176, 212, 240, 1.00)" stroke-width="1.5"      fill="#FFFFFF" ></circle><g ><path     fill="#4A6A85"  d="M41.372 311.502C42.128 312.16 43.038 313.098 43.486 313.7L44.2 312.944C43.766 312.37 42.8 311.488 42.044 310.858L41.372 311.502ZM45.474 313.504L45.474 314.414L47.28 314.414C47.126 315.1 46.958 315.772 46.804 316.332L44.48 316.332L44.48 317.284L53.412 317.284L53.412 316.332L51.76 316.332C51.872 315.436 51.984 314.4 52.04 313.518L51.298 313.448L51.13 313.504L48.54 313.504L48.876 311.922L52.936 311.922L52.936 310.984L44.97 310.984L44.97 311.922L47.798 311.922L47.476 313.504L45.474 313.504ZM47.896 316.332L48.344 314.414L50.962 314.414C50.92 315.002 50.85 315.702 50.766 316.332L47.896 316.332ZM45.642 318.446L45.642 323.36L46.65 323.36L46.65 322.814L51.424 322.814L51.424 323.318L52.46 323.318L52.46 318.446L45.642 318.446ZM46.65 321.89L46.65 319.384L51.424 319.384L51.424 321.89L46.65 321.89ZM42.604 322.94C42.814 322.674 43.178 322.394 45.516 320.77C45.432 320.56 45.292 320.154 45.236 319.888L43.556 320.994L43.556 314.862L40.63 314.862L40.63 315.884L42.576 315.884L42.576 320.966C42.576 321.54 42.282 321.862 42.072 322.002C42.254 322.226 42.52 322.688 42.604 322.94ZM60.09 310.578C60.3 310.928 60.496 311.362 60.636 311.754L55.568 311.754L55.568 312.706L66.558 312.706L66.558 311.754L61.812 311.754C61.672 311.32 61.42 310.774 61.126 310.368L60.09 310.578ZM57.472 313.014C57.836 313.616 58.158 314.442 58.284 315.044L54.77 315.044L54.77 315.996L67.244 315.996L67.244 315.044L63.702 315.044C64.052 314.456 64.402 313.686 64.724 313.014L63.59 312.734C63.352 313.406 62.932 314.386 62.582 315.044L58.886 315.044L59.39 314.918C59.264 314.33 58.914 313.448 58.466 312.79L57.472 313.014ZM57.738 320.42L64.36 320.42L64.36 321.946L57.738 321.946L57.738 320.42ZM57.738 319.58L57.738 318.124L64.36 318.124L64.36 319.58L57.738 319.58ZM56.702 317.228L56.702 323.374L57.738 323.374L57.738 322.842L64.36 322.842L64.36 323.346L65.452 323.346L65.452 317.228L56.702 317.228ZM75.182 312.482L79.424 312.482L79.424 316.668L75.182 316.668L75.182 312.482ZM74.146 311.474L74.146 317.676L80.502 317.676L80.502 311.474L74.146 311.474ZM78.332 319.37C79.074 320.588 79.858 322.226 80.166 323.234L81.202 322.814C80.894 321.82 80.068 320.224 79.284 319.02L78.332 319.37ZM75.14 319.048C74.734 320.476 73.992 321.848 73.054 322.744C73.306 322.884 73.782 323.178 73.978 323.346C74.916 322.366 75.742 320.868 76.218 319.286L75.14 319.048ZM69.428 311.474C70.184 312.132 71.136 313.042 71.598 313.63L72.326 312.902C71.864 312.328 70.884 311.446 70.114 310.844L69.428 311.474ZM68.7 314.876L68.7 315.884L70.674 315.884L70.674 320.742C70.674 321.484 70.156 322.03 69.89 322.254C70.072 322.408 70.408 322.758 70.534 322.968C70.744 322.688 71.136 322.38 73.572 320.476C73.446 320.28 73.25 319.86 73.166 319.58L71.696 320.7L71.696 314.876L68.7 314.876ZM90.764 312.16L90.764 319.93L91.786 319.93L91.786 312.16L90.764 312.16ZM93.732 310.746L93.732 321.988C93.732 322.24 93.648 322.31 93.382 322.324C93.13 322.338 92.318 322.338 91.366 322.31C91.534 322.618 91.688 323.094 91.744 323.374C92.99 323.374 93.732 323.346 94.18 323.164C94.6 322.996 94.782 322.674 94.782 321.974L94.782 310.746L93.732 310.746ZM84.268 312.048L87.88 312.048L87.88 314.736L84.268 314.736L84.268 312.048ZM83.302 311.096L83.302 315.702L88.888 315.702L88.888 311.096L83.302 311.096ZM85.29 316.052L85.22 317.27L82.784 317.27L82.784 318.222L85.122 318.222C84.87 320.168 84.24 321.708 82.462 322.632C82.686 322.8 82.994 323.164 83.12 323.416C85.122 322.31 85.822 320.49 86.116 318.222L88.062 318.222C87.936 320.854 87.796 321.862 87.572 322.114C87.46 322.24 87.334 322.268 87.124 322.268C86.9 322.268 86.354 322.268 85.752 322.212C85.92 322.492 86.032 322.898 86.046 323.22C86.662 323.248 87.278 323.248 87.6 323.206C87.978 323.178 88.216 323.08 88.454 322.786C88.818 322.366 88.958 321.106 89.112 317.732C89.112 317.578 89.126 317.27 89.126 317.27L86.214 317.27L86.284 316.052L85.29 316.052ZM97.372 311.502C98.128 312.16 99.038 313.098 99.486 313.7L100.2 312.944C99.766 312.37 98.8 311.488 98.044 310.858L97.372 311.502ZM101.474 313.504L101.474 314.414L103.28 314.414C103.126 315.1 102.958 315.772 102.804 316.332L100.48 316.332L100.48 317.284L109.412 317.284L109.412 316.332L107.76 316.332C107.872 315.436 107.984 314.4 108.04 313.518L107.298 313.448L107.13 313.504L104.54 313.504L104.876 311.922L108.936 311.922L108.936 310.984L100.97 310.984L100.97 311.922L103.798 311.922L103.476 313.504L101.474 313.504ZM103.896 316.332L104.344 314.414L106.962 314.414C106.92 315.002 106.85 315.702 106.766 316.332L103.896 316.332ZM101.642 318.446L101.642 323.36L102.65 323.36L102.65 322.814L107.424 322.814L107.424 323.318L108.46 323.318L108.46 318.446L101.642 318.446ZM102.65 321.89L102.65 319.384L107.424 319.384L107.424 321.89L102.65 321.89ZM98.604 322.94C98.814 322.674 99.178 322.394 101.516 320.77C101.432 320.56 101.292 320.154 101.236 319.888L99.556 320.994L99.556 314.862L96.63 314.862L96.63 315.884L98.576 315.884L98.576 320.966C98.576 321.54 98.282 321.862 98.072 322.002C98.254 322.226 98.52 322.688 98.604 322.94ZM112.8 316.752L112.8 317.62L121.242 317.62L121.242 316.752L112.8 316.752ZM112.8 314.652L112.8 315.52L121.242 315.52L121.242 314.652L112.8 314.652ZM112.66 318.95L112.66 323.346L113.696 323.346L113.696 322.758L120.332 322.758L120.332 323.304L121.396 323.304L121.396 318.95L112.66 318.95ZM113.696 321.862L113.696 319.846L120.332 319.846L120.332 321.862L113.696 321.862ZM115.768 310.76C116.258 311.306 116.762 312.048 117.042 312.58L110.756 312.58L110.756 313.504L123.314 313.504L123.314 312.58L117.686 312.58L118.19 312.412C117.924 311.866 117.336 311.054 116.79 310.452L115.768 310.76Z"></path></g><g opacity="0.95"><rect  x="40" y="335" width="310" height="55" rx="14"    fill="#FFFFFF" ></rect></g><g ><path     fill="#2C5F8A"  d="M101.87 356.8L101.87 359.485L96.44 359.485L96.44 366.61L97.565 366.61L97.565 365.68L101.87 365.68L101.87 370.585L103.055 370.585L103.055 365.68L107.375 365.68L107.375 366.535L108.53 366.535L108.53 359.485L103.055 359.485L103.055 356.8L101.87 356.8ZM97.565 364.57L97.565 360.58L101.87 360.58L101.87 364.57L97.565 364.57ZM107.375 364.57L103.055 364.57L103.055 360.58L107.375 360.58L107.375 364.57ZM116.345 357.055C116.795 357.79 117.275 358.795 117.455 359.41L118.7 359.005C118.49 358.39 117.965 357.415 117.515 356.695L116.345 357.055ZM110.75 359.44L110.75 360.55L113.09 360.55C113.975 362.83 115.16 364.795 116.705 366.4C115.055 367.78 113.03 368.8 110.54 369.505C110.765 369.775 111.125 370.3 111.245 370.57C113.75 369.76 115.835 368.68 117.53 367.21C119.225 368.71 121.265 369.82 123.725 370.495C123.92 370.18 124.25 369.7 124.505 369.46C122.105 368.86 120.065 367.795 118.4 366.385C119.915 364.84 121.07 362.92 121.94 360.55L124.31 360.55L124.31 359.44L110.75 359.44ZM117.56 365.605C116.15 364.18 115.04 362.47 114.26 360.55L120.665 360.55C119.915 362.575 118.88 364.24 117.56 365.605Z"></path></g><circle cx="320" cy="362" r="10"   fill="#5B9BD5" ></circle><circle cx="320" cy="362" r="5"   fill="#FFFFFF" ></circle><g opacity="0.85"><rect  x="40" y="400" width="310" height="55" rx="14"    fill="#FFFFFF" ></rect></g><g ><path     fill="#2C5F8A"  d="M101.855 424.995L101.855 426.72L97.4 426.72L97.4 430.23L95.855 430.23L95.855 431.295L101.465 431.295C100.865 432.63 99.32 433.845 95.57 434.685C95.825 434.94 96.125 435.39 96.26 435.63C100.175 434.685 101.87 433.275 102.575 431.685C103.775 433.875 105.815 435.105 108.815 435.63C108.965 435.315 109.28 434.85 109.535 434.61C106.64 434.205 104.615 433.155 103.535 431.295L109.175 431.295L109.175 430.23L107.69 430.23L107.69 426.72L103.025 426.72L103.025 424.995L101.855 424.995ZM98.48 430.23L98.48 427.71L101.855 427.71L101.855 429.135C101.855 429.495 101.84 429.87 101.78 430.23L98.48 430.23ZM106.565 430.23L102.965 430.23C103.01 429.87 103.025 429.51 103.025 429.15L103.025 427.71L106.565 427.71L106.565 430.23ZM104.6 421.8L104.6 423.18L100.325 423.18L100.325 421.8L99.215 421.8L99.215 423.18L96.035 423.18L96.035 424.2L99.215 424.2L99.215 425.775L100.325 425.775L100.325 424.2L104.6 424.2L104.6 425.775L105.725 425.775L105.725 424.2L108.92 424.2L108.92 423.18L105.725 423.18L105.725 421.8L104.6 421.8ZM116.345 422.055C116.795 422.79 117.275 423.795 117.455 424.41L118.7 424.005C118.49 423.39 117.965 422.415 117.515 421.695L116.345 422.055ZM110.75 424.44L110.75 425.55L113.09 425.55C113.975 427.83 115.16 429.795 116.705 431.4C115.055 432.78 113.03 433.8 110.54 434.505C110.765 434.775 111.125 435.3 111.245 435.57C113.75 434.76 115.835 433.68 117.53 432.21C119.225 433.71 121.265 434.82 123.725 435.495C123.92 435.18 124.25 434.7 124.505 434.46C122.105 433.86 120.065 432.795 118.4 431.385C119.915 429.84 121.07 427.92 121.94 425.55L124.31 425.55L124.31 424.44L110.75 424.44ZM117.56 430.605C116.15 429.18 115.04 427.47 114.26 425.55L120.665 425.55C119.915 427.575 118.88 429.24 117.56 430.605Z"></path></g><circle cx="320" cy="427" r="10" stroke="rgba(176, 212, 240, 1.00)" stroke-width="1.5"      fill="#FFFFFF" ></circle><g opacity="0.85"><rect  x="40" y="465" width="310" height="55" rx="14"    fill="#FFFFFF" ></rect></g><g ><path     fill="#2C5F8A"  d="M101.87 486.8L101.87 489.485L96.44 489.485L96.44 496.61L97.565 496.61L97.565 495.68L101.87 495.68L101.87 500.585L103.055 500.585L103.055 495.68L107.375 495.68L107.375 496.535L108.53 496.535L108.53 489.485L103.055 489.485L103.055 486.8L101.87 486.8ZM97.565 494.57L97.565 490.58L101.87 490.58L101.87 494.57L97.565 494.57ZM107.375 494.57L103.055 494.57L103.055 490.58L107.375 490.58L107.375 494.57ZM116.855 489.995L116.855 491.72L112.4 491.72L112.4 495.23L110.855 495.23L110.855 496.295L116.465 496.295C115.865 497.63 114.32 498.845 110.57 499.685C110.825 499.94 111.125 500.39 111.26 500.63C115.175 499.685 116.87 498.275 117.575 496.685C118.775 498.875 120.815 500.105 123.815 500.63C123.965 500.315 124.28 499.85 124.535 499.61C121.64 499.205 119.615 498.155 118.535 496.295L124.175 496.295L124.175 495.23L122.69 495.23L122.69 491.72L118.025 491.72L118.025 489.995L116.855 489.995ZM113.48 495.23L113.48 492.71L116.855 492.71L116.855 494.135C116.855 494.495 116.84 494.87 116.78 495.23L113.48 495.23ZM121.565 495.23L117.965 495.23C118.01 494.87 118.025 494.51 118.025 494.15L118.025 492.71L121.565 492.71L121.565 495.23ZM119.6 486.8L119.6 488.18L115.325 488.18L115.325 486.8L114.215 486.8L114.215 488.18L111.035 488.18L111.035 489.2L114.215 489.2L114.215 490.775L115.325 490.775L115.325 489.2L119.6 489.2L119.6 490.775L120.725 490.775L120.725 489.2L123.92 489.2L123.92 488.18L120.725 488.18L120.725 486.8L119.6 486.8ZM131.36 490.625L137 490.625L137 492.02L131.36 492.02L131.36 490.625ZM131.36 488.36L137 488.36L137 489.74L131.36 489.74L131.36 488.36ZM130.295 487.43L130.295 492.965L138.125 492.965L138.125 487.43L130.295 487.43ZM126.35 487.79C127.25 488.315 128.465 489.05 129.08 489.515L129.77 488.615C129.125 488.195 127.895 487.49 127.025 487.025L126.35 487.79ZM125.645 491.915C126.53 492.425 127.715 493.16 128.3 493.58L128.96 492.695C128.36 492.275 127.16 491.585 126.29 491.135L125.645 491.915ZM126.005 499.64L126.965 500.405C127.85 499.01 128.9 497.135 129.68 495.545L128.87 494.81C128 496.505 126.815 498.485 126.005 499.64ZM130.25 500.645C130.535 500.465 131 500.315 134.255 499.505C134.18 499.265 134.12 498.845 134.09 498.56L131.495 499.145L131.495 496.415L134.09 496.415L134.09 495.41L131.495 495.41L131.495 493.595L130.4 493.595L130.4 498.71C130.4 499.235 130.085 499.415 129.83 499.505C129.995 499.805 130.175 500.33 130.25 500.645ZM134.69 493.655L134.69 498.845C134.69 500.03 134.99 500.36 136.19 500.36C136.445 500.36 137.78 500.36 138.035 500.36C139.07 500.36 139.355 499.85 139.475 498.005C139.175 497.915 138.725 497.75 138.5 497.555C138.455 499.1 138.38 499.34 137.93 499.34C137.66 499.34 136.55 499.34 136.325 499.34C135.845 499.34 135.77 499.265 135.77 498.83L135.77 497.09C136.97 496.61 138.29 496.01 139.25 495.38L138.455 494.525C137.81 495.035 136.775 495.62 135.77 496.085L135.77 493.655L134.69 493.655ZM147.755 486.755C146.225 489.08 143.45 491.09 140.6 492.215C140.915 492.47 141.23 492.905 141.41 493.205C142.19 492.86 142.97 492.455 143.72 491.99L143.72 492.74L151.295 492.74L151.295 491.735C152.075 492.23 152.885 492.665 153.74 493.07C153.905 492.71 154.25 492.305 154.535 492.05C152.15 491.045 150.02 489.8 148.265 487.94L148.745 487.265L147.755 486.755ZM144.155 491.705C145.43 490.865 146.615 489.86 147.59 488.75C148.73 489.95 149.93 490.895 151.235 491.705L144.155 491.705ZM142.94 494.54L142.94 500.57L144.08 500.57L144.08 499.73L151.07 499.73L151.07 500.51L152.255 500.51L152.255 494.54L142.94 494.54ZM144.08 498.68L144.08 495.56L151.07 495.56L151.07 498.68L144.08 498.68Z"></path></g><circle cx="320" cy="492" r="10" stroke="rgba(176, 212, 240, 1.00)" stroke-width="1.5"      fill="#FFFFFF" ></circle><rect  x="40" y="550" width="310" height="50" rx="25"    fill="#5B9BD5" ></rect><g ><path     fill="#FFFFFF"  d="M170.232 571.944L176.184 571.944L176.184 574.888L170.232 574.888L170.232 571.944ZM169.08 570.872L169.08 575.976L172.568 575.976L172.568 577.96L167.896 577.96L167.896 579.064L171.864 579.064C170.776 580.76 169.08 582.376 167.432 583.192C167.704 583.416 168.072 583.848 168.264 584.136C169.832 583.224 171.448 581.624 172.568 579.848L172.568 584.84L173.768 584.84L173.768 579.8C174.84 581.56 176.376 583.24 177.848 584.168C178.056 583.864 178.424 583.448 178.696 583.208C177.144 582.376 175.512 580.76 174.488 579.064L178.264 579.064L178.264 577.96L173.768 577.96L173.768 575.976L177.384 575.976L177.384 570.872L169.08 570.872ZM167.432 570.168C166.504 572.584 164.968 574.968 163.368 576.504C163.576 576.776 163.928 577.416 164.04 577.688C164.632 577.096 165.208 576.392 165.768 575.624L165.768 584.792L166.92 584.792L166.92 573.848C167.544 572.792 168.104 571.656 168.552 570.52L167.432 570.168ZM188.808 577.976L188.808 579.304L184.36 579.304L184.36 580.424L188.808 580.424L188.808 583.4C188.808 583.624 188.76 583.688 188.472 583.704C188.184 583.72 187.224 583.72 186.168 583.688C186.328 584.024 186.488 584.488 186.536 584.824C187.912 584.824 188.808 584.824 189.352 584.648C189.88 584.456 190.024 584.12 190.024 583.416L190.024 580.424L194.312 580.424L194.312 579.304L190.024 579.304L190.024 578.376C191.192 577.64 192.44 576.648 193.304 575.688L192.536 575.096L192.296 575.16L185.72 575.16L185.72 576.264L191.176 576.264C190.488 576.904 189.608 577.56 188.808 577.976ZM185.16 570.12C184.968 570.808 184.744 571.512 184.472 572.216L180.008 572.216L180.008 573.368L183.976 573.368C182.936 575.576 181.448 577.64 179.496 579.016C179.688 579.288 179.976 579.8 180.104 580.104C180.792 579.608 181.432 579.048 182.008 578.44L182.008 584.808L183.224 584.808L183.224 576.984C184.056 575.864 184.728 574.648 185.304 573.368L194.024 573.368L194.024 572.216L185.784 572.216C186.008 571.624 186.216 571.016 186.392 570.424L185.16 570.12ZM196.952 571.144C197.8 571.896 198.872 572.968 199.368 573.656L200.184 572.808C199.672 572.152 198.6 571.112 197.736 570.408L196.952 571.144ZM195.688 575.144L195.688 576.296L197.944 576.296L197.944 582.04C197.944 582.776 197.448 583.304 197.144 583.496C197.368 583.736 197.688 584.232 197.8 584.52C198.04 584.2 198.472 583.88 201.32 581.768C201.176 581.528 200.984 581.08 200.888 580.76L199.112 582.056L199.112 575.144L195.688 575.144ZM202.856 570.696L202.856 572.472C202.856 573.656 202.504 574.984 200.392 575.944C200.616 576.136 201.032 576.6 201.176 576.84C203.48 575.736 203.992 574.008 203.992 572.504L203.992 571.816L206.824 571.816L206.824 574.392C206.824 575.608 207.048 576.056 208.168 576.056C208.344 576.056 209.128 576.056 209.368 576.056C209.688 576.056 210.024 576.04 210.216 575.976C210.168 575.704 210.136 575.24 210.104 574.936C209.912 574.984 209.576 575.016 209.352 575.016C209.144 575.016 208.424 575.016 208.248 575.016C207.992 575.016 207.96 574.872 207.96 574.408L207.96 570.696L202.856 570.696ZM207.88 578.312C207.304 579.592 206.44 580.648 205.384 581.496C204.312 580.616 203.464 579.544 202.888 578.312L207.88 578.312ZM201.144 577.192L201.144 578.312L201.976 578.312L201.752 578.392C202.392 579.864 203.304 581.144 204.44 582.184C203.24 582.952 201.864 583.48 200.456 583.8C200.68 584.056 200.936 584.536 201.032 584.84C202.584 584.424 204.056 583.816 205.352 582.936C206.568 583.832 208.024 584.488 209.672 584.888C209.816 584.552 210.152 584.072 210.408 583.816C208.872 583.496 207.496 582.936 206.328 582.184C207.688 581 208.776 579.464 209.416 577.464L208.68 577.144L208.472 577.192L201.144 577.192ZM221.416 571.592L224.12 571.592L224.12 573.032L221.416 573.032L221.416 571.592ZM217.672 571.592L220.312 571.592L220.312 573.032L217.672 573.032L217.672 571.592ZM214.024 571.592L216.568 571.592L216.568 573.032L214.024 573.032L214.024 571.592ZM214.04 576.728L214.04 583.464L211.912 583.464L211.912 584.36L226.12 584.36L226.12 583.464L223.928 583.464L223.928 576.728L218.92 576.728L219.144 575.784L225.752 575.784L225.752 574.84L219.32 574.84L219.496 573.912L225.32 573.912L225.32 570.728L212.872 570.728L212.872 573.912L218.264 573.912L218.136 574.84L212.088 574.84L212.088 575.784L217.976 575.784L217.784 576.728L214.04 576.728ZM215.192 583.464L215.192 582.472L222.744 582.472L222.744 583.464L215.192 583.464ZM215.192 579.16L222.744 579.16L222.744 580.088L215.192 580.088L215.192 579.16ZM215.192 578.44L215.192 577.544L222.744 577.544L222.744 578.44L215.192 578.44ZM215.192 580.808L222.744 580.808L222.744 581.752L215.192 581.752L215.192 580.808Z"></path></g><g ><path     fill="#A8C8E0"  d="M130.551 614.852C130.848 615.446 131.145 616.238 131.244 616.755L131.992 616.535C131.893 616.029 131.596 615.259 131.266 614.665L130.551 614.852ZM135.897 613.103L135.897 622.618L136.634 622.618L136.634 613.862L138.405 613.862C138.108 614.731 137.679 615.897 137.261 616.832C138.251 617.822 138.526 618.636 138.526 619.318C138.537 619.703 138.46 620.055 138.24 620.187C138.119 620.264 137.954 620.297 137.789 620.308C137.569 620.308 137.261 620.308 136.942 620.275C137.074 620.506 137.151 620.847 137.162 621.056C137.481 621.078 137.833 621.078 138.108 621.045C138.372 621.012 138.614 620.946 138.79 620.825C139.153 620.572 139.296 620.044 139.296 619.395C139.296 618.636 139.054 617.767 138.064 616.733C138.537 615.71 139.043 614.456 139.428 613.433L138.867 613.07L138.735 613.103L135.897 613.103ZM131.717 612.674C131.882 613.026 132.058 613.455 132.179 613.818L129.88 613.818L129.88 614.566L135.072 614.566L135.072 613.818L133.026 613.818C132.905 613.444 132.674 612.894 132.454 612.476L131.717 612.674ZM133.763 614.632C133.587 615.259 133.257 616.172 132.96 616.788L129.561 616.788L129.561 617.547L135.325 617.547L135.325 616.788L133.763 616.788C134.038 616.216 134.335 615.468 134.588 614.819L133.763 614.632ZM130.199 618.559L130.199 622.563L130.98 622.563L130.98 622.046L133.994 622.046L133.994 622.486L134.819 622.486L134.819 618.559L130.199 618.559ZM130.98 621.298L130.98 619.307L133.994 619.307L133.994 621.298L130.98 621.298ZM147.403 612.718L146.644 613.026C147.425 614.654 148.745 616.447 149.9 617.437C150.065 617.217 150.362 616.909 150.571 616.744C149.427 615.886 148.085 614.203 147.403 612.718ZM143.564 612.74C142.926 614.423 141.804 615.952 140.484 616.898C140.682 617.052 141.045 617.371 141.188 617.536C141.485 617.294 141.771 617.03 142.057 616.733L142.057 617.492L144.18 617.492C143.927 619.362 143.322 621.111 140.715 621.969C140.902 622.145 141.122 622.464 141.221 622.673C144.026 621.661 144.752 619.67 145.049 617.492L148.041 617.492C147.92 620.242 147.755 621.32 147.48 621.606C147.37 621.716 147.238 621.738 147.007 621.738C146.754 621.738 146.072 621.738 145.357 621.672C145.511 621.903 145.61 622.255 145.632 622.497C146.325 622.541 146.996 622.552 147.37 622.519C147.744 622.486 147.997 622.409 148.228 622.134C148.613 621.705 148.756 620.451 148.921 617.074C148.932 616.964 148.932 616.678 148.932 616.678L142.112 616.678C143.047 615.677 143.872 614.39 144.444 612.982L143.564 612.74ZM152.342 613.224C152.925 613.741 153.662 614.478 154.003 614.951L154.564 614.368C154.212 613.917 153.475 613.202 152.881 612.718L152.342 613.224ZM151.473 615.974L151.473 616.766L153.024 616.766L153.024 620.715C153.024 621.221 152.683 621.584 152.474 621.716C152.628 621.881 152.848 622.222 152.925 622.42C153.09 622.2 153.387 621.98 155.345 620.528C155.246 620.363 155.114 620.055 155.048 619.835L153.827 620.726L153.827 615.974L151.473 615.974ZM156.401 612.916L156.401 614.137C156.401 614.951 156.159 615.864 154.707 616.524C154.861 616.656 155.147 616.975 155.246 617.14C156.83 616.381 157.182 615.193 157.182 614.159L157.182 613.686L159.129 613.686L159.129 615.457C159.129 616.293 159.283 616.601 160.053 616.601C160.174 616.601 160.713 616.601 160.878 616.601C161.098 616.601 161.329 616.59 161.461 616.546C161.428 616.359 161.406 616.04 161.384 615.831C161.252 615.864 161.021 615.886 160.867 615.886C160.724 615.886 160.229 615.886 160.108 615.886C159.932 615.886 159.91 615.787 159.91 615.468L159.91 612.916L156.401 612.916ZM159.855 618.152C159.459 619.032 158.865 619.758 158.139 620.341C157.402 619.736 156.819 618.999 156.423 618.152L159.855 618.152ZM155.224 617.382L155.224 618.152L155.796 618.152L155.642 618.207C156.082 619.219 156.709 620.099 157.49 620.814C156.665 621.342 155.719 621.705 154.751 621.925C154.905 622.101 155.081 622.431 155.147 622.64C156.214 622.354 157.226 621.936 158.117 621.331C158.953 621.947 159.954 622.398 161.087 622.673C161.186 622.442 161.417 622.112 161.593 621.936C160.537 621.716 159.591 621.331 158.788 620.814C159.723 620 160.471 618.944 160.911 617.569L160.405 617.349L160.262 617.382L155.224 617.382ZM169.161 613.532L171.02 613.532L171.02 614.522L169.161 614.522L169.161 613.532ZM166.587 613.532L168.402 613.532L168.402 614.522L166.587 614.522L166.587 613.532ZM164.079 613.532L165.828 613.532L165.828 614.522L164.079 614.522L164.079 613.532ZM164.09 617.063L164.09 621.694L162.627 621.694L162.627 622.31L172.395 622.31L172.395 621.694L170.888 621.694L170.888 617.063L167.445 617.063L167.599 616.414L172.142 616.414L172.142 615.765L167.72 615.765L167.841 615.127L171.845 615.127L171.845 612.938L163.287 612.938L163.287 615.127L166.994 615.127L166.906 615.765L162.748 615.765L162.748 616.414L166.796 616.414L166.664 617.063L164.09 617.063ZM164.882 621.694L164.882 621.012L170.074 621.012L170.074 621.694L164.882 621.694ZM164.882 618.735L170.074 618.735L170.074 619.373L164.882 619.373L164.882 618.735ZM164.882 618.24L164.882 617.624L170.074 617.624L170.074 618.24L164.882 618.24ZM164.882 619.868L170.074 619.868L170.074 620.517L164.882 620.517L164.882 619.868ZM175.134 615.479L175.134 616.029L177.499 616.029L177.499 615.479L175.134 615.479ZM174.892 616.634L174.892 617.184L177.51 617.184L177.51 616.634L174.892 616.634ZM179.435 616.634L179.435 617.195L182.13 617.195L182.13 616.634L179.435 616.634ZM179.435 615.479L179.435 616.029L181.866 616.029L181.866 615.479L179.435 615.479ZM173.836 614.269L173.836 616.37L174.584 616.37L174.584 614.874L178.071 614.874L178.071 617.481L178.863 617.481L178.863 614.874L182.405 614.874L182.405 616.37L183.175 616.37L183.175 614.269L178.863 614.269L178.863 613.62L182.515 613.62L182.515 612.96L174.474 612.96L174.474 613.62L178.071 613.62L178.071 614.269L173.836 614.269ZM174.573 619.296L174.573 622.618L175.354 622.618L175.354 619.978L176.982 619.978L176.982 622.552L177.741 622.552L177.741 619.978L179.424 619.978L179.424 622.552L180.183 622.552L180.183 619.978L181.899 619.978L181.899 621.804C181.899 621.914 181.877 621.947 181.745 621.947C181.635 621.958 181.261 621.958 180.81 621.947C180.909 622.145 181.03 622.431 181.074 622.64C181.668 622.64 182.086 622.64 182.361 622.508C182.636 622.398 182.702 622.2 182.702 621.815L182.702 619.296L178.544 619.296L178.841 618.515L183.318 618.515L183.318 617.844L173.715 617.844L173.715 618.515L177.983 618.515C177.917 618.768 177.84 619.043 177.752 619.296L174.573 619.296ZM191.392 619.208C191.029 619.846 190.523 620.341 189.852 620.737C189.049 620.539 188.224 620.363 187.41 620.209C187.641 619.912 187.905 619.571 188.158 619.208L191.392 619.208ZM185.309 614.665L185.309 617.514L188.246 617.514C188.092 617.822 187.905 618.152 187.696 618.482L184.594 618.482L184.594 619.208L187.201 619.208C186.816 619.747 186.409 620.253 186.046 620.649C186.981 620.825 187.894 621.012 188.763 621.221C187.685 621.595 186.321 621.804 184.649 621.903C184.792 622.09 184.924 622.387 184.99 622.618C187.069 622.442 188.708 622.123 189.951 621.518C191.348 621.892 192.558 622.277 193.46 622.64L194.164 622.002C193.284 621.672 192.129 621.32 190.853 620.979C191.48 620.517 191.964 619.934 192.305 619.208L194.417 619.208L194.417 618.482L188.642 618.482C188.818 618.196 188.983 617.91 189.126 617.635L188.62 617.514L193.768 617.514L193.768 614.665L191.117 614.665L191.117 613.73L194.23 613.73L194.23 612.993L184.759 612.993L184.759 613.73L187.762 613.73L187.762 614.665L185.309 614.665ZM188.543 613.73L190.336 613.73L190.336 614.665L188.543 614.665L188.543 613.73ZM186.09 615.347L187.762 615.347L187.762 616.843L186.09 616.843L186.09 615.347ZM188.543 615.347L190.336 615.347L190.336 616.843L188.543 616.843L188.543 615.347ZM191.117 615.347L192.954 615.347L192.954 616.843L191.117 616.843L191.117 615.347ZM196.749 615.82L196.749 619.241L200.049 619.241L200.049 620L196.397 620L196.397 620.66L200.049 620.66L200.049 621.617L195.572 621.617L195.572 622.288L205.439 622.288L205.439 621.617L200.874 621.617L200.874 620.66L204.746 620.66L204.746 620L200.874 620L200.874 619.241L204.328 619.241L204.328 615.82L200.874 615.82L200.874 615.149L205.384 615.149L205.384 614.467L200.874 614.467L200.874 613.62C202.161 613.521 203.371 613.389 204.317 613.224L203.877 612.586C202.139 612.894 199.026 613.103 196.463 613.169C196.54 613.334 196.628 613.631 196.639 613.818C197.717 613.796 198.894 613.752 200.049 613.686L200.049 614.467L195.638 614.467L195.638 615.149L200.049 615.149L200.049 615.82L196.749 615.82ZM197.552 617.8L200.049 617.8L200.049 618.636L197.552 618.636L197.552 617.8ZM200.874 617.8L203.492 617.8L203.492 618.636L200.874 618.636L200.874 617.8ZM197.552 616.414L200.049 616.414L200.049 617.239L197.552 617.239L197.552 616.414ZM200.874 616.414L203.492 616.414L203.492 617.239L200.874 617.239L200.874 616.414ZM209.036 618.339L209.036 622.585L209.839 622.585L209.839 621.881L214.91 621.881L214.91 622.563L215.757 622.563L215.757 618.339L209.036 618.339ZM209.839 621.133L209.839 619.109L214.91 619.109L214.91 621.133L209.839 621.133ZM210.796 612.729C211.027 613.147 211.302 613.697 211.445 614.093L207.694 614.093L207.694 616.744C207.694 618.35 207.573 620.539 206.396 622.101C206.583 622.2 206.935 622.497 207.067 622.662C208.233 621.122 208.497 618.856 208.53 617.162L215.559 617.162L215.559 614.093L211.951 614.093L212.325 613.972C212.182 613.576 211.874 612.96 211.577 612.509L210.796 612.729ZM208.53 614.863L214.723 614.863L214.723 616.392L208.53 616.392L208.53 614.863ZM219.904 616.37C220.355 617.558 220.883 619.131 221.092 620.154L221.873 619.835C221.631 618.812 221.103 617.283 220.619 616.073L219.904 616.37ZM222.291 615.754C222.643 616.953 223.05 618.515 223.204 619.538L223.996 619.296C223.831 618.273 223.424 616.744 223.039 615.545L222.291 615.754ZM222.148 612.652C222.357 613.037 222.577 613.543 222.731 613.939L218.331 613.939L218.331 616.942C218.331 618.504 218.254 620.693 217.396 622.255C217.594 622.332 217.968 622.574 218.122 622.717C219.024 621.078 219.167 618.614 219.167 616.942L219.167 614.72L227.362 614.72L227.362 613.939L223.666 613.939C223.523 613.543 223.215 612.916 222.951 612.432L222.148 612.652ZM219.299 621.331L219.299 622.123L227.505 622.123L227.505 621.331L224.524 621.331C225.536 619.626 226.35 617.624 226.878 615.798L226.009 615.479C225.591 617.382 224.744 619.626 223.677 621.331L219.299 621.331ZM229.683 613.29L229.683 617.283C229.683 618.834 229.573 620.781 228.352 622.156C228.539 622.255 228.869 622.53 228.99 622.695C229.837 621.76 230.211 620.495 230.376 619.263L233.137 619.263L233.137 622.541L233.973 622.541L233.973 619.263L236.943 619.263L236.943 621.518C236.943 621.716 236.866 621.782 236.646 621.793C236.437 621.804 235.689 621.815 234.919 621.782C235.029 622.002 235.161 622.365 235.205 622.574C236.239 622.585 236.877 622.574 237.251 622.442C237.625 622.31 237.757 622.057 237.757 621.518L237.757 613.29L229.683 613.29ZM230.497 614.082L233.137 614.082L233.137 615.853L230.497 615.853L230.497 614.082ZM236.943 614.082L236.943 615.853L233.973 615.853L233.973 614.082L236.943 614.082ZM230.497 616.634L233.137 616.634L233.137 618.482L230.453 618.482C230.486 618.064 230.497 617.657 230.497 617.283L230.497 616.634ZM236.943 616.634L236.943 618.482L233.973 618.482L233.973 616.634L236.943 616.634ZM241.629 612.696C241.211 614.269 240.496 615.798 239.594 616.777C239.803 616.887 240.166 617.129 240.331 617.272C240.749 616.777 241.134 616.15 241.486 615.457L244.093 615.457L244.093 617.888L240.815 617.888L240.815 618.68L244.093 618.68L244.093 621.485L239.605 621.485L239.605 622.288L249.439 622.288L249.439 621.485L244.951 621.485L244.951 618.68L248.515 618.68L248.515 617.888L244.951 617.888L244.951 615.457L248.911 615.457L248.911 614.654L244.951 614.654L244.951 612.52L244.093 612.52L244.093 614.654L241.849 614.654C242.091 614.093 242.3 613.488 242.465 612.883L241.629 612.696ZM251.859 615.16C251.507 616.007 250.957 616.909 250.385 617.536C250.55 617.646 250.847 617.91 250.968 618.031C251.54 617.371 252.167 616.326 252.574 615.369L251.859 615.16ZM253.674 615.457C254.169 616.051 254.686 616.865 254.895 617.404L255.555 617.019C255.335 616.491 254.796 615.699 254.29 615.127L253.674 615.457ZM252.211 612.784C252.53 613.191 252.849 613.741 253.003 614.126L250.638 614.126L250.638 614.874L255.643 614.874L255.643 614.126L253.146 614.126L253.751 613.851C253.597 613.477 253.245 612.916 252.893 612.509L252.211 612.784ZM251.518 617.8C251.958 618.229 252.42 618.724 252.849 619.23C252.233 620.297 251.419 621.155 250.418 621.771C250.594 621.903 250.891 622.211 251.001 622.365C251.936 621.727 252.728 620.891 253.366 619.857C253.839 620.462 254.246 621.045 254.488 621.507L255.148 620.99C254.851 620.462 254.345 619.791 253.784 619.12C254.092 618.504 254.356 617.822 254.565 617.096L253.784 616.953C253.641 617.503 253.454 618.009 253.234 618.493C252.871 618.097 252.486 617.701 252.134 617.36L251.518 617.8ZM257.227 615.292L259.064 615.292C258.844 616.766 258.514 618.02 257.986 619.054C257.535 618.152 257.194 617.14 256.963 616.062L257.227 615.292ZM257.095 612.509C256.776 614.467 256.226 616.348 255.324 617.547C255.5 617.69 255.775 618.009 255.885 618.174C256.105 617.866 256.303 617.525 256.49 617.151C256.765 618.13 257.106 619.032 257.524 619.824C256.875 620.781 256.006 621.518 254.84 622.057C255.016 622.2 255.302 622.519 255.412 622.673C256.468 622.123 257.304 621.43 257.953 620.561C258.525 621.43 259.218 622.145 260.054 622.629C260.186 622.42 260.45 622.123 260.637 621.969C259.746 621.507 259.02 620.77 258.426 619.846C259.141 618.636 259.581 617.14 259.867 615.292L260.494 615.292L260.494 614.522L257.447 614.522C257.612 613.917 257.744 613.279 257.865 612.63L257.095 612.509Z"></path></g></g><defs><clipPath id="clip-path-lXbAkOq0wz2A4knckqSFC"><path d="M0 844L390 844L390 0L0 0L0 844Z" fill="white"/></clipPath></defs></svg>