<svg xmlns="http://www.w3.org/2000/svg" xmlns:xlink="http://www.w3.org/1999/xlink" width="390.000244140625" height="844" viewBox="0 0 390.000244140625 844" fill="none"><g  clip-path="url(#clip-path-oMxnZNAkvvGcwISICnQNv)"><g opacity="0.5"><rect x="0" y="0" width="390" height="844"   fill="#2C5F8A" ></rect></g><g opacity="0.3"><rect x="0" y="54" width="390" height="60"   fill="#E8F4FD" ></rect></g><g ></g><g ><path     fill="#2C5F8A" fill-opacity="0.5" d="M167.28 87.052L167.28 98.302L168.684 98.302L168.684 87.052L167.28 87.052ZM168.108 81.742C166.308 84.748 163.032 87.376 159.63 88.852C160.008 89.176 160.404 89.698 160.638 90.094C163.41 88.744 166.074 86.656 168.018 84.172C170.412 86.98 172.788 88.708 175.452 90.112C175.668 89.68 176.082 89.176 176.442 88.888C173.67 87.538 171.114 85.846 168.81 83.092L169.314 82.3L168.108 81.742ZM185.226 81.814C185.172 84.586 185.28 93.388 177.774 97.186C178.188 97.474 178.62 97.906 178.872 98.248C183.282 95.89 185.19 91.858 186.036 88.24C186.918 91.606 188.862 96.052 193.38 98.176C193.596 97.798 193.992 97.33 194.37 97.042C187.998 94.18 186.882 86.638 186.612 84.478C186.702 83.398 186.72 82.48 186.738 81.814L185.226 81.814ZM201.876 87.322L201.876 88.438L210.642 88.438L210.642 87.322L201.876 87.322ZM201.876 89.878L201.876 90.976L210.642 90.976L210.642 89.878L201.876 89.878ZM200.58 84.73L200.58 85.882L212.046 85.882L212.046 84.73L200.58 84.73ZM204.738 82.21C205.224 82.966 205.764 83.992 206.016 84.64L207.222 84.1C206.97 83.47 206.43 82.498 205.908 81.76L204.738 82.21ZM201.642 92.506L201.642 98.32L202.812 98.32L202.812 97.6L209.598 97.6L209.598 98.266L210.822 98.266L210.822 92.506L201.642 92.506ZM202.812 96.484L202.812 93.622L209.598 93.622L209.598 96.484L202.812 96.484ZM199.608 81.832C198.69 84.55 197.196 87.25 195.576 89.014C195.81 89.32 196.206 89.986 196.332 90.274C196.926 89.608 197.502 88.816 198.042 87.97L198.042 98.374L199.284 98.374L199.284 85.792C199.878 84.64 200.4 83.416 200.814 82.192L199.608 81.832ZM217.788 86.98L226.14 86.98L226.14 88.42L217.788 88.42L217.788 86.98ZM217.788 89.464L226.14 89.464L226.14 90.922L217.788 90.922L217.788 89.464ZM217.788 84.514L226.14 84.514L226.14 85.954L217.788 85.954L217.788 84.514ZM217.716 93.244L217.716 96.178C217.716 97.618 218.274 97.996 220.362 97.996C220.794 97.996 224.052 97.996 224.502 97.996C226.248 97.996 226.698 97.456 226.878 95.152C226.5 95.08 225.924 94.882 225.618 94.666C225.528 96.502 225.384 96.754 224.412 96.754C223.692 96.754 220.974 96.754 220.434 96.754C219.282 96.754 219.066 96.664 219.066 96.16L219.066 93.244L217.716 93.244ZM226.734 93.424C227.562 94.558 228.426 96.106 228.732 97.096L230.01 96.52C229.668 95.53 228.786 94.018 227.94 92.92L226.734 93.424ZM215.664 93.208C215.232 94.342 214.53 95.89 213.81 96.88L215.052 97.474C215.718 96.43 216.366 94.846 216.816 93.712L215.664 93.208ZM220.542 92.56C221.46 93.406 222.504 94.612 222.954 95.422L224.052 94.738C223.566 93.964 222.54 92.812 221.604 92.002L227.49 92.002L227.49 83.434L222.108 83.434C222.378 82.966 222.684 82.408 222.954 81.85L221.37 81.58C221.226 82.102 220.938 82.84 220.704 83.434L216.492 83.434L216.492 92.002L221.514 92.002L220.542 92.56Z"></path></g><g opacity="0.3"><circle cx="195.000244140625" cy="170" r="45"   fill="#5B9BD5" ></circle></g><g ><path     fill="#FFFFFF" fill-opacity="0.5" d="M204.436 160.052C202.98 162.74 200.516 165.344 197.912 166.996C198.5 167.416 199.508 168.34 199.928 168.788C202.616 166.884 205.332 163.888 207.04 160.78L204.436 160.052ZM184.108 166.072C183.968 169.012 183.576 172.792 183.212 175.172L184.612 175.172L188.616 175.2C188.364 179.764 188.084 181.584 187.58 182.088C187.328 182.34 187.048 182.396 186.572 182.396C186.04 182.396 184.724 182.368 183.352 182.256C183.8 182.9 184.108 183.88 184.164 184.58C185.592 184.664 186.992 184.664 187.748 184.58C188.672 184.496 189.26 184.272 189.82 183.656C190.66 182.788 190.996 180.268 191.332 173.828C191.36 173.52 191.388 172.82 191.388 172.82L185.956 172.82L186.348 168.564L191.22 168.564L191.22 159.772L183.38 159.772L183.38 162.208L188.672 162.208L188.672 166.072L184.108 166.072ZM194.188 184.972C194.692 184.524 195.56 184.132 201.048 181.836C200.936 181.248 200.88 180.1 200.908 179.344L197.072 180.8L197.072 171.98L199.452 171.98C200.74 177.412 203.008 181.948 206.592 184.412C206.984 183.74 207.796 182.788 208.412 182.284C205.22 180.324 203.092 176.432 201.944 171.98L207.88 171.98L207.88 169.46L197.072 169.46L197.072 159.38L194.44 159.38L194.44 169.46L191.584 169.46L191.584 171.98L194.44 171.98L194.44 180.688C194.44 181.836 193.656 182.452 193.124 182.732C193.516 183.236 194.02 184.328 194.188 184.972Z"></path></g><g opacity="0.2"><rect  x="40" y="240" width="310" height="55" rx="14"    fill="#FFFFFF" ></rect></g><g opacity="0.2"><rect  x="40" y="305" width="310" height="55" rx="14"    fill="#FFFFFF" ></rect></g><g opacity="0.2"><rect  x="40" y="370" width="310" height="55" rx="14"    fill="#FFFFFF" ></rect></g><g opacity="0.2"><rect  x="40" y="435" width="310" height="55" rx="14"    fill="#FFFFFF" ></rect></g><g opacity="0.15"><rect  x="40" y="500" width="310" height="55" rx="14"    fill="#FF6B6B" ></rect></g><rect  x="40" y="300" width="310" height="220" rx="20"    fill="#FFFFFF" ></rect><g ><path     fill="#FF6B6B"  d="M176.312 330.892L176.312 336.04C176.312 338.344 176.132 341.602 173.144 343.402C173.396 343.6 173.738 343.996 173.882 344.212C177.05 342.142 177.392 338.686 177.392 336.04L177.392 330.892L176.312 330.892ZM176.96 340.54C177.788 341.53 178.76 342.898 179.174 343.762L180.092 343.024C179.642 342.214 178.634 340.9 177.806 339.928L176.96 340.54ZM174.008 328.606L174.008 339.694L175.07 339.694L175.07 329.722L178.562 329.722L178.562 339.64L179.642 339.64L179.642 328.606L174.008 328.606ZM187.616 328.552C186.716 330.352 185.186 332.098 183.584 333.214C183.89 333.448 184.358 333.952 184.574 334.204C186.176 332.944 187.832 330.982 188.876 328.948L187.616 328.552ZM181.478 344.41C181.766 344.176 182.288 343.96 185.762 342.538C185.69 342.25 185.636 341.728 185.636 341.35L182.99 342.304L182.99 336.022L184.466 336.022C185.276 339.442 186.752 342.358 188.93 343.924C189.146 343.582 189.56 343.114 189.848 342.88C187.85 341.584 186.446 338.974 185.708 336.022L189.488 336.022L189.488 334.762L182.99 334.762L182.99 328.12L181.712 328.12L181.712 334.762L180.11 334.762L180.11 336.022L181.712 336.022L181.712 342.124C181.712 342.844 181.244 343.168 180.92 343.312C181.136 343.582 181.388 344.104 181.478 344.41ZM195.158 329.704L203.726 329.704L203.726 332.152L195.158 332.152L195.158 329.704ZM193.808 328.498L193.808 333.34L205.148 333.34L205.148 328.498L193.808 328.498ZM191.612 334.96L191.612 336.202L195.32 336.202C194.96 337.318 194.51 338.56 194.132 339.442L203.564 339.442C203.222 341.53 202.862 342.538 202.412 342.898C202.196 343.042 201.98 343.06 201.548 343.06C201.044 343.06 199.73 343.042 198.47 342.916C198.722 343.294 198.902 343.816 198.938 344.212C200.18 344.284 201.368 344.302 201.98 344.266C202.682 344.248 203.114 344.14 203.546 343.78C204.212 343.204 204.662 341.854 205.094 338.83C205.13 338.632 205.166 338.218 205.166 338.218L196.148 338.218L196.814 336.202L207.272 336.202L207.272 334.96L191.612 334.96ZM210.17 328.948C211.34 329.506 212.834 330.37 213.59 330.964L214.364 329.848C213.59 329.29 212.078 328.48 210.926 327.976L210.17 328.948ZM209.234 333.934C210.368 334.474 211.844 335.32 212.564 335.896L213.32 334.762C212.564 334.204 211.07 333.412 209.972 332.926L209.234 333.934ZM209.756 343.204L210.89 344.122C211.97 342.448 213.212 340.18 214.166 338.29L213.194 337.39C212.15 339.442 210.728 341.818 209.756 343.204ZM218.342 328.138C218.954 329.074 219.584 330.334 219.836 331.126L221.15 330.604C220.88 329.812 220.196 328.606 219.566 327.688L218.342 328.138ZM214.49 331.198L214.49 332.476L219.224 332.476L219.224 336.544L215.174 336.544L215.174 337.822L219.224 337.822L219.224 342.466L213.914 342.466L213.914 343.762L225.794 343.762L225.794 342.466L220.628 342.466L220.628 337.822L224.714 337.822L224.714 336.544L220.628 336.544L220.628 332.476L225.362 332.476L225.362 331.198L214.49 331.198ZM234.362 328.894C235.064 329.938 235.802 331.342 236.072 332.224L237.206 331.648C236.9 330.748 236.144 329.398 235.424 328.39L234.362 328.894ZM242.444 328.264C241.994 329.326 241.184 330.802 240.572 331.684L241.598 332.17C242.228 331.306 243.02 329.974 243.632 328.786L242.444 328.264ZM229.682 327.814C229.142 329.47 228.224 331.054 227.144 332.134C227.378 332.404 227.72 333.07 227.828 333.34C228.404 332.746 228.944 332.008 229.43 331.198L233.858 331.198L233.858 329.92L230.132 329.92C230.402 329.344 230.654 328.75 230.852 328.156L229.682 327.814ZM227.594 336.688L227.594 337.93L230.186 337.93L230.186 341.494C230.186 342.268 229.628 342.772 229.322 342.952C229.538 343.222 229.862 343.78 229.97 344.086C230.24 343.798 230.726 343.492 233.75 341.8C233.66 341.53 233.534 341.008 233.498 340.648L231.428 341.728L231.428 337.93L233.948 337.93L233.948 336.688L231.428 336.688L231.428 334.258L233.552 334.258L233.552 333.034L228.386 333.034L228.386 334.258L230.186 334.258L230.186 336.688L227.594 336.688ZM235.838 337.264L241.868 337.264L241.868 339.226L235.838 339.226L235.838 337.264ZM235.838 336.094L235.838 334.168L241.868 334.168L241.868 336.094L235.838 336.094ZM238.286 327.742L238.286 332.908L234.614 332.908L234.614 344.32L235.838 344.32L235.838 340.378L241.868 340.378L241.868 342.61C241.868 342.862 241.778 342.934 241.526 342.934C241.256 342.952 240.338 342.952 239.33 342.934C239.528 343.258 239.69 343.816 239.744 344.158C241.112 344.158 241.958 344.158 242.444 343.924C242.948 343.726 243.11 343.33 243.11 342.628L243.11 332.89L241.868 332.908L239.546 332.908L239.546 327.742L238.286 327.742Z"></path></g><g ><path     fill="#4A6A85"  d="M61.316 366.404C62.226 366.838 63.388 367.51 63.976 367.972L64.578 367.104C63.976 366.67 62.8 366.04 61.904 365.648L61.316 366.404ZM60.588 370.282C61.47 370.702 62.618 371.36 63.178 371.808L63.766 370.926C63.178 370.492 62.016 369.876 61.162 369.498L60.588 370.282ZM60.994 377.492L61.876 378.206C62.716 376.904 63.682 375.14 64.424 373.67L63.668 372.97C62.856 374.566 61.75 376.414 60.994 377.492ZM67.672 365.774C68.148 366.502 68.638 367.482 68.834 368.098L69.856 367.692C69.646 367.076 69.114 366.138 68.624 365.424L67.672 365.774ZM64.676 368.154L64.676 369.148L68.358 369.148L68.358 372.312L65.208 372.312L65.208 373.306L68.358 373.306L68.358 376.918L64.228 376.918L64.228 377.926L73.468 377.926L73.468 376.918L69.45 376.918L69.45 373.306L72.628 373.306L72.628 372.312L69.45 372.312L69.45 369.148L73.132 369.148L73.132 368.154L64.676 368.154ZM80.132 366.362C80.678 367.174 81.252 368.266 81.462 368.952L82.344 368.504C82.106 367.804 81.518 366.754 80.958 365.97L80.132 366.362ZM86.418 365.872C86.068 366.698 85.438 367.846 84.962 368.532L85.76 368.91C86.25 368.238 86.866 367.202 87.342 366.278L86.418 365.872ZM76.492 365.522C76.072 366.81 75.358 368.042 74.518 368.882C74.7 369.092 74.966 369.61 75.05 369.82C75.498 369.358 75.918 368.784 76.296 368.154L79.74 368.154L79.74 367.16L76.842 367.16C77.052 366.712 77.248 366.25 77.402 365.788L76.492 365.522ZM74.868 372.424L74.868 373.39L76.884 373.39L76.884 376.162C76.884 376.764 76.45 377.156 76.212 377.296C76.38 377.506 76.632 377.94 76.716 378.178C76.926 377.954 77.304 377.716 79.656 376.4C79.586 376.19 79.488 375.784 79.46 375.504L77.85 376.344L77.85 373.39L79.81 373.39L79.81 372.424L77.85 372.424L77.85 370.534L79.502 370.534L79.502 369.582L75.484 369.582L75.484 370.534L76.884 370.534L76.884 372.424L74.868 372.424ZM81.28 372.872L85.97 372.872L85.97 374.398L81.28 374.398L81.28 372.872ZM81.28 371.962L81.28 370.464L85.97 370.464L85.97 371.962L81.28 371.962ZM83.184 365.466L83.184 369.484L80.328 369.484L80.328 378.36L81.28 378.36L81.28 375.294L85.97 375.294L85.97 377.03C85.97 377.226 85.9 377.282 85.704 377.282C85.494 377.296 84.78 377.296 83.996 377.282C84.15 377.534 84.276 377.968 84.318 378.234C85.382 378.234 86.04 378.234 86.418 378.052C86.81 377.898 86.936 377.59 86.936 377.044L86.936 369.47L85.97 369.484L84.164 369.484L84.164 365.466L83.184 365.466ZM90.114 366.74L90.114 370.366C90.114 372.536 89.96 375.532 88.448 377.66C88.7 377.8 89.148 378.164 89.33 378.388C90.94 376.106 91.178 372.704 91.178 370.366L101.356 370.366L101.356 369.358L91.178 369.358L91.178 367.622C94.384 367.412 97.954 367.034 100.39 366.446L99.494 365.592C97.338 366.138 93.432 366.544 90.114 366.74ZM92.368 372.368L92.368 378.374L93.418 378.374L93.418 377.646L99.228 377.646L99.228 378.346L100.334 378.346L100.334 372.368L92.368 372.368ZM93.418 376.666L93.418 373.348L99.228 373.348L99.228 376.666L93.418 376.666ZM104.198 378.738C105.668 378.22 106.62 377.072 106.62 375.56C106.62 374.58 106.2 373.95 105.43 373.95C104.856 373.95 104.366 374.3 104.366 374.958C104.366 375.616 104.842 375.952 105.416 375.952L105.654 375.924C105.584 376.89 104.968 377.548 103.89 377.996L104.198 378.738ZM121.236 367.272C122.048 368.28 122.958 369.708 123.35 370.618L124.288 370.058C123.868 369.162 122.958 367.804 122.132 366.782L121.236 367.272ZM126.654 366.026C126.346 372.256 125.352 375.742 120.844 377.534C121.096 377.744 121.502 378.22 121.642 378.444C123.546 377.576 124.848 376.456 125.758 374.958C126.878 376.078 128.04 377.422 128.6 378.318L129.524 377.632C128.852 376.638 127.466 375.168 126.262 374.02C127.186 372.018 127.578 369.428 127.774 366.068L126.654 366.026ZM117.974 376.96C118.324 376.638 118.842 376.33 122.902 374.384C122.818 374.16 122.678 373.698 122.622 373.404L119.36 374.93L119.36 366.558L118.24 366.558L118.24 374.818C118.24 375.462 117.694 375.91 117.4 376.092C117.568 376.288 117.876 376.708 117.974 376.96ZM130.77 366.516L130.77 367.566L136.174 367.566L136.174 378.346L137.28 378.346L137.28 370.926C138.89 371.794 140.766 372.956 141.746 373.74L142.488 372.788C141.368 371.934 139.142 370.674 137.476 369.862L137.28 370.086L137.28 367.566L143.244 367.566L143.244 366.516L130.77 366.516ZM150.202 365.746C149.95 366.292 149.502 367.118 149.152 367.608L149.838 367.944C150.202 367.482 150.678 366.782 151.084 366.138L150.202 365.746ZM145.232 366.138C145.596 366.726 145.974 367.496 146.1 367.986L146.898 367.636C146.772 367.132 146.394 366.376 146.002 365.83L145.232 366.138ZM149.74 373.6C149.418 374.328 148.97 374.944 148.438 375.476C147.906 375.21 147.36 374.944 146.842 374.72C147.038 374.384 147.262 374.006 147.458 373.6L149.74 373.6ZM145.54 375.098C146.226 375.364 146.996 375.714 147.696 376.078C146.8 376.722 145.722 377.17 144.574 377.436C144.756 377.632 144.98 377.996 145.078 378.248C146.366 377.898 147.556 377.352 148.564 376.54C149.026 376.82 149.446 377.086 149.768 377.324L150.44 376.638C150.118 376.414 149.712 376.162 149.25 375.91C149.992 375.112 150.58 374.132 150.93 372.914L150.356 372.676L150.188 372.718L147.892 372.718L148.2 371.99L147.262 371.822C147.164 372.102 147.024 372.41 146.884 372.718L144.98 372.718L144.98 373.6L146.45 373.6C146.156 374.16 145.834 374.678 145.54 375.098ZM147.598 365.466L147.598 368.084L144.7 368.084L144.7 368.952L147.276 368.952C146.604 369.862 145.526 370.73 144.546 371.15C144.756 371.346 144.994 371.71 145.12 371.948C145.974 371.486 146.898 370.702 147.598 369.876L147.598 371.584L148.578 371.584L148.578 369.68C149.25 370.17 150.104 370.828 150.454 371.15L151.042 370.394C150.706 370.156 149.474 369.372 148.788 368.952L151.434 368.952L151.434 368.084L148.578 368.084L148.578 365.466L147.598 365.466ZM152.806 365.592C152.456 368.056 151.826 370.408 150.734 371.878C150.958 372.018 151.364 372.354 151.532 372.522C151.896 372.004 152.204 371.388 152.484 370.702C152.792 372.074 153.198 373.348 153.716 374.454C152.932 375.784 151.84 376.806 150.314 377.548C150.51 377.758 150.804 378.178 150.902 378.402C152.33 377.632 153.408 376.666 154.234 375.434C154.934 376.624 155.802 377.576 156.894 378.234C157.062 377.968 157.37 377.604 157.608 377.408C156.432 376.778 155.508 375.756 154.794 374.468C155.536 373.026 156.012 371.276 156.32 369.176L157.272 369.176L157.272 368.196L153.282 368.196C153.478 367.412 153.646 366.586 153.772 365.746L152.806 365.592ZM155.326 369.176C155.102 370.786 154.766 372.186 154.262 373.376C153.73 372.116 153.338 370.688 153.072 369.176L155.326 369.176ZM164.776 373.908L164.776 378.374L165.7 378.374L165.7 377.8L170.012 377.8L170.012 378.318L170.978 378.318L170.978 373.908L168.276 373.908L168.276 372.172L171.412 372.172L171.412 371.262L168.276 371.262L168.276 369.722L170.922 369.722L170.922 366.096L163.53 366.096L163.53 370.324C163.53 372.55 163.404 375.602 161.948 377.758C162.186 377.87 162.62 378.178 162.816 378.346C163.978 376.638 164.37 374.258 164.496 372.172L167.282 372.172L167.282 373.908L164.776 373.908ZM164.552 367.006L169.914 367.006L169.914 368.798L164.552 368.798L164.552 367.006ZM164.552 369.722L167.282 369.722L167.282 371.262L164.538 371.262L164.552 370.324L164.552 369.722ZM165.7 376.932L165.7 374.804L170.012 374.804L170.012 376.932L165.7 376.932ZM160.338 365.494L160.338 368.308L158.588 368.308L158.588 369.288L160.338 369.288L160.338 372.354C159.61 372.578 158.938 372.774 158.406 372.914L158.686 373.95L160.338 373.418L160.338 377.044C160.338 377.24 160.268 377.296 160.1 377.296C159.932 377.31 159.386 377.31 158.784 377.296C158.91 377.576 159.05 378.01 159.078 378.262C159.96 378.276 160.506 378.234 160.842 378.066C161.192 377.912 161.318 377.618 161.318 377.044L161.318 373.096L162.928 372.564L162.774 371.598L161.318 372.06L161.318 369.288L162.9 369.288L162.9 368.308L161.318 368.308L161.318 365.494L160.338 365.494ZM177.894 374.174C178.622 374.93 179.406 375.994 179.728 376.708L180.638 376.176C180.288 375.462 179.49 374.44 178.748 373.712L177.894 374.174ZM182.57 370.59L182.57 372.326L176.9 372.326L176.9 373.306L182.57 373.306L182.57 377.1C182.57 377.296 182.5 377.352 182.276 377.366C182.038 377.38 181.24 377.38 180.4 377.352C180.54 377.646 180.694 378.066 180.736 378.346C181.842 378.346 182.584 378.332 183.018 378.178C183.48 378.01 183.606 377.716 183.606 377.114L183.606 373.306L185.3 373.306L185.3 372.326L183.606 372.326L183.606 370.59L182.57 370.59ZM172.616 367.944C173.33 368.658 174.142 369.652 174.492 370.324L175.22 369.708L175.22 372.13C174.226 373.04 173.218 373.908 172.546 374.454L173.12 375.336C173.764 374.762 174.492 374.076 175.22 373.376L175.22 378.346L176.242 378.346L176.242 365.48L175.22 365.48L175.22 369.568C174.828 368.924 174.03 368.028 173.344 367.37L172.616 367.944ZM179.07 368.7C179.546 369.092 180.05 369.638 180.358 370.072C179.322 370.576 178.16 370.94 177.026 371.164C177.222 371.374 177.432 371.752 177.544 372.004C180.624 371.304 183.718 369.764 185.048 366.922L184.362 366.558L184.18 366.6L181.156 366.6C181.408 366.334 181.646 366.068 181.842 365.788L180.778 365.48C180.008 366.6 178.524 367.748 176.914 368.42C177.124 368.588 177.46 368.91 177.6 369.106C178.524 368.672 179.42 368.112 180.204 367.468L183.578 367.468C183.004 368.322 182.178 369.036 181.212 369.61C180.89 369.162 180.33 368.63 179.84 368.238L179.07 368.7ZM187.96 365.928C188.338 366.544 188.828 367.37 189.024 367.916L189.878 367.426C189.64 366.922 189.164 366.124 188.758 365.536L187.96 365.928ZM186.56 367.958L186.56 368.924L189.85 368.924C189.08 370.716 187.694 372.564 186.42 373.614C186.574 373.796 186.826 374.3 186.91 374.58C187.428 374.104 187.974 373.516 188.492 372.858L188.492 378.346L189.472 378.346L189.472 372.704C189.948 373.362 190.48 374.188 190.732 374.622L191.306 373.81L190.312 372.536C190.718 372.186 191.194 371.682 191.642 371.22L190.984 370.632C190.718 371.024 190.27 371.598 189.892 372.018L189.472 371.514L189.472 371.472C190.102 370.478 190.648 369.4 191.04 368.322L190.508 367.916L190.354 367.958L186.56 367.958ZM191.936 367.552L191.936 371.206C191.936 373.152 191.782 375.756 190.298 377.59C190.522 377.716 190.914 378.052 191.068 378.262C192.482 376.498 192.832 373.936 192.888 371.906L193.014 371.906C193.49 373.376 194.176 374.664 195.072 375.714C194.176 376.526 193.14 377.128 192.048 377.492C192.244 377.702 192.496 378.094 192.622 378.346C193.756 377.912 194.82 377.282 195.758 376.428C196.626 377.254 197.676 377.884 198.88 378.304C199.034 378.024 199.328 377.618 199.538 377.408C198.348 377.058 197.312 376.484 196.458 375.728C197.494 374.552 198.306 373.054 198.754 371.178L198.124 370.926L197.928 370.982L195.926 370.982L195.926 368.532L198.096 368.532C197.928 369.19 197.732 369.848 197.564 370.31L198.446 370.52C198.74 369.82 199.076 368.672 199.356 367.692L198.614 367.51L198.46 367.552L195.926 367.552L195.926 365.48L194.946 365.48L194.946 367.552L191.936 367.552ZM194.946 368.532L194.946 370.982L192.902 370.982L192.902 368.532L194.946 368.532ZM197.536 371.906C197.144 373.124 196.528 374.16 195.758 375.028C194.974 374.146 194.372 373.096 193.952 371.906L197.536 371.906ZM203.878 366.362C205.656 366.81 207.91 367.65 209.072 368.294L209.604 367.3C208.414 366.67 206.118 365.9 204.396 365.508L203.878 366.362ZM200.784 371.08L200.784 372.088L204.116 372.088C203.416 374.146 202.044 375.77 200.476 376.68C200.742 376.848 201.148 377.254 201.316 377.478C203.108 376.33 204.732 374.216 205.46 371.346L204.774 371.038L204.578 371.08L200.784 371.08ZM212.054 369.372C211.242 370.296 209.912 371.486 208.806 372.312C208.302 371.43 207.91 370.45 207.602 369.414L207.602 368.364L202.604 368.364L202.604 369.372L206.482 369.372L206.482 376.988C206.482 377.226 206.398 377.296 206.16 377.31C205.922 377.31 205.082 377.31 204.242 377.282C204.396 377.576 204.564 378.038 204.606 378.332C205.782 378.332 206.524 378.318 206.986 378.15C207.448 377.968 207.602 377.66 207.602 377.002L207.602 372.046C208.722 374.538 210.402 376.428 212.768 377.45C212.936 377.156 213.272 376.736 213.51 376.526C211.746 375.854 210.346 374.664 209.296 373.11C210.458 372.298 211.9 371.094 213.02 370.058L212.054 369.372ZM218.704 365.48C217.85 368.21 216.366 370.674 214.462 372.2C214.728 372.382 215.204 372.774 215.4 372.97C216.604 371.92 217.668 370.478 218.536 368.812L222.204 368.812C220.944 373.166 218.046 376.022 214.616 377.478C214.896 377.674 215.274 378.122 215.442 378.402C217.85 377.296 220.062 375.448 221.658 372.788C222.792 375.266 224.542 377.282 226.768 378.346C226.936 378.052 227.286 377.632 227.538 377.408C225.172 376.414 223.268 374.188 222.288 371.64C222.82 370.562 223.254 369.358 223.576 368.042L222.834 367.692L222.624 367.748L219.04 367.748C219.334 367.104 219.6 366.432 219.824 365.746L218.704 365.48ZM237.926 367.034L237.926 374.944L238.78 374.944L238.78 367.034L237.926 367.034ZM239.956 365.718L239.956 377.17C239.956 377.38 239.886 377.436 239.704 377.436C239.522 377.436 238.934 377.45 238.262 377.422C238.402 377.688 238.542 378.108 238.57 378.36C239.466 378.36 240.04 378.332 240.39 378.178C240.74 378.024 240.88 377.744 240.88 377.17L240.88 365.718L239.956 365.718ZM228.616 370.94L228.616 371.906L229.512 371.906L229.512 372.606C229.512 374.342 229.442 376.414 228.546 377.842C228.77 377.94 229.148 378.206 229.316 378.374C230.268 376.862 230.394 374.454 230.394 372.592L230.394 371.906L231.696 371.906L231.696 377.072C231.696 377.226 231.64 377.282 231.5 377.282C231.346 377.282 230.898 377.296 230.394 377.282C230.52 377.52 230.632 377.954 230.66 378.206C231.402 378.206 231.878 378.178 232.172 378.01C232.48 377.856 232.578 377.562 232.578 377.086L232.578 371.906L233.558 371.906L233.558 372.004C233.558 373.852 233.502 376.246 232.718 377.884C232.928 377.982 233.32 378.206 233.488 378.346C234.328 376.624 234.44 373.95 234.44 371.99L234.44 371.906L235.742 371.906L235.742 377.072C235.742 377.24 235.686 377.282 235.546 377.296C235.392 377.296 234.944 377.296 234.44 377.282C234.566 377.534 234.678 377.954 234.706 378.206C235.462 378.206 235.924 378.178 236.218 378.024C236.526 377.856 236.624 377.576 236.624 377.086L236.624 371.906L237.352 371.906L237.352 370.94L236.624 370.94L236.624 365.928L233.558 365.928L233.558 370.94L232.578 370.94L232.578 365.928L229.512 365.928L229.512 370.94L228.616 370.94ZM230.394 366.866L231.696 366.866L231.696 370.94L230.394 370.94L230.394 366.866ZM234.44 366.866L235.742 366.866L235.742 370.94L234.44 370.94L234.44 366.866ZM248.636 374.146C248.16 375.154 247.446 376.204 246.704 376.932C246.942 377.072 247.348 377.352 247.516 377.506C248.23 376.736 249.028 375.532 249.574 374.412L248.636 374.146ZM252.696 374.44C253.438 375.336 254.306 376.582 254.698 377.38L255.538 376.89C255.132 376.106 254.278 374.916 253.48 374.034L252.696 374.44ZM243.092 366.04L243.092 378.318L244.03 378.318L244.03 366.992L245.836 366.992C245.5 367.93 245.066 369.176 244.646 370.17C245.724 371.276 245.99 372.228 245.99 372.998C245.99 373.446 245.906 373.824 245.668 373.978C245.556 374.076 245.402 374.104 245.206 374.118C244.982 374.132 244.674 374.132 244.338 374.09C244.492 374.37 244.576 374.762 244.59 375.028C244.926 375.042 245.304 375.042 245.598 375.014C245.892 374.972 246.158 374.888 246.354 374.734C246.76 374.454 246.928 373.866 246.928 373.096C246.914 372.228 246.662 371.22 245.584 370.058C246.088 368.952 246.634 367.566 247.068 366.404L246.396 365.998L246.242 366.04L243.092 366.04ZM247.194 372.41L247.194 373.376L250.876 373.376L250.876 377.142C250.876 377.324 250.82 377.394 250.596 377.394C250.4 377.408 249.714 377.408 248.93 377.38C249.098 377.66 249.238 378.066 249.294 378.346C250.302 378.346 250.946 378.332 251.352 378.164C251.758 378.01 251.884 377.716 251.884 377.142L251.884 373.376L255.356 373.376L255.356 372.41L251.884 372.41L251.884 370.702L254.04 370.702L254.04 369.778L248.51 369.778L248.51 370.702L250.876 370.702L250.876 372.41L247.194 372.41ZM251.254 365.382C250.33 367.062 248.58 368.686 246.816 369.596C247.068 369.792 247.362 370.114 247.516 370.352C248.902 369.554 250.26 368.364 251.296 367.02C252.486 368.504 253.69 369.442 254.936 370.226C255.09 369.932 255.398 369.596 255.65 369.386C254.348 368.686 253.046 367.748 251.828 366.264L252.15 365.732L251.254 365.382ZM259.5 370.436C260.06 370.436 260.564 370.03 260.564 369.4C260.564 368.756 260.06 368.336 259.5 368.336C258.94 368.336 258.436 368.756 258.436 369.4C258.436 370.03 258.94 370.436 259.5 370.436ZM259.5 377.296C260.06 377.296 260.564 376.876 260.564 376.246C260.564 375.602 260.06 375.196 259.5 375.196C258.94 375.196 258.436 375.602 258.436 376.246C258.436 376.876 258.94 377.296 259.5 377.296Z"></path></g><g ><path     fill="#5B6A7A"  d="M76.5 393.762C75.733 393.762 75.122 394.373 75.122 395.14C75.122 395.907 75.733 396.518 76.5 396.518C77.267 396.518 77.878 395.907 77.878 395.14C77.878 394.373 77.267 393.762 76.5 393.762ZM93.1603 390.473L93.1603 394.802C93.1603 396.609 93.0173 398.897 91.4703 400.496C91.6783 400.626 92.0813 400.951 92.2243 401.146C93.9013 399.456 94.1613 396.765 94.1613 394.802L94.1613 394.503L96.1763 394.503L96.1763 401.081L97.1513 401.081L97.1513 394.503L98.6723 394.503L98.6723 393.567L94.1613 393.567L94.1613 391.188C95.6563 390.954 97.3203 390.616 98.4253 390.148L97.7623 389.316C96.6963 389.81 94.7853 390.226 93.1603 390.473ZM88.4543 395.387L88.4543 394.997L88.4543 393.307L91.0283 393.307L91.0283 395.387L88.4543 395.387ZM91.9513 389.433C90.9243 389.901 89.0523 390.252 87.4923 390.447L87.4923 394.997C87.4923 396.687 87.4273 398.936 86.5953 400.522C86.8033 400.639 87.2193 400.964 87.3883 401.146C88.1293 399.794 88.3633 397.909 88.4283 396.271L91.9643 396.271L91.9643 392.423L88.4543 392.423L88.4543 391.175C89.9103 390.993 91.5223 390.707 92.5753 390.252L91.9513 389.433ZM104.301 389.16C104.145 389.719 103.963 390.291 103.729 390.85L100.037 390.85L100.037 391.76L103.326 391.76C102.494 393.476 101.298 395.062 99.7383 396.128C99.9203 396.31 100.232 396.661 100.362 396.882C101.181 396.297 101.909 395.595 102.533 394.802L102.533 401.107L103.495 401.107L103.495 398.533L108.942 398.533L108.942 399.885C108.942 400.08 108.877 400.158 108.656 400.158C108.409 400.171 107.616 400.184 106.758 400.145C106.888 400.418 107.031 400.821 107.083 401.081C108.201 401.081 108.916 401.081 109.345 400.938C109.774 400.769 109.904 400.47 109.904 399.898L109.904 393.268L103.586 393.268C103.885 392.774 104.145 392.28 104.379 391.76L111.425 391.76L111.425 390.85L104.769 390.85C104.964 390.369 105.133 389.875 105.289 389.394L104.301 389.16ZM103.495 396.323L108.942 396.323L108.942 397.688L103.495 397.688L103.495 396.323ZM103.495 395.491L103.495 394.152L108.942 394.152L108.942 395.491L103.495 395.491ZM114.259 400.834C114.753 400.652 115.481 400.6 122.371 400.015C122.67 400.405 122.93 400.782 123.112 401.107L123.983 400.574C123.411 399.599 122.176 398.195 121.006 397.155L120.187 397.597C120.694 398.065 121.214 398.611 121.682 399.157L115.767 399.612C116.69 398.754 117.613 397.714 118.419 396.648L124.152 396.648L124.152 395.699L113.375 395.699L113.375 396.648L117.093 396.648C116.248 397.805 115.26 398.832 114.909 399.144C114.506 399.521 114.207 399.768 113.921 399.833C114.038 400.093 114.207 400.613 114.259 400.834ZM118.77 389.16C117.6 390.902 115.312 392.553 112.764 393.632C112.998 393.814 113.336 394.23 113.479 394.477C114.233 394.126 114.961 393.736 115.65 393.307L115.65 394.1L121.851 394.1L121.851 393.19L115.819 393.19C116.937 392.462 117.938 391.643 118.757 390.746C119.537 391.552 120.629 392.436 121.851 393.19C122.553 393.632 123.307 394.022 124.048 394.321C124.204 394.061 124.529 393.658 124.737 393.463C122.631 392.735 120.512 391.318 119.316 390.083L119.706 389.563L118.77 389.16ZM132.264 389.771C132.784 390.642 133.33 391.799 133.538 392.514L134.422 392.111C134.214 391.396 133.629 390.278 133.083 389.42L132.264 389.771ZM126.687 390.057C127.272 390.668 127.974 391.526 128.312 392.072L129.053 391.461C128.715 390.928 127.987 390.122 127.389 389.524L126.687 390.057ZM136.034 389.966C135.605 392.67 134.929 395.101 133.538 397.051C132.225 395.231 131.432 392.878 130.964 390.122L130.041 390.278C130.6 393.359 131.445 395.92 132.875 397.87C131.965 398.897 130.782 399.755 129.261 400.405C129.443 400.613 129.716 400.977 129.846 401.211C131.354 400.535 132.55 399.651 133.499 398.624C134.474 399.716 135.696 400.561 137.204 401.159C137.36 400.899 137.672 400.509 137.906 400.314C136.372 399.768 135.15 398.923 134.162 397.831C135.735 395.725 136.515 393.086 137.035 390.122L136.034 389.966ZM125.816 393.229L125.816 394.178L127.649 394.178L127.649 398.767C127.649 399.443 127.298 399.885 127.09 400.093C127.259 400.236 127.545 400.574 127.649 400.782C127.857 400.522 128.195 400.262 130.483 398.637C130.379 398.442 130.236 398.065 130.158 397.805L128.598 398.884L128.598 393.229L125.816 393.229ZM138.751 399.391L138.92 400.366C140.207 400.106 141.975 399.755 143.665 399.417L143.587 398.533C141.819 398.858 139.96 399.209 138.751 399.391ZM138.998 394.568C139.219 394.464 139.557 394.399 141.377 394.178C140.727 394.997 140.129 395.647 139.856 395.894C139.401 396.362 139.076 396.674 138.764 396.739C138.881 396.999 139.05 397.48 139.102 397.688C139.388 397.532 139.869 397.428 143.535 396.856C143.509 396.648 143.483 396.258 143.496 396.011L140.584 396.414C141.715 395.296 142.846 393.905 143.821 392.475L142.963 391.916C142.69 392.384 142.378 392.852 142.053 393.294L140.116 393.463C140.974 392.371 141.832 390.98 142.521 389.602L141.559 389.186C140.909 390.746 139.83 392.397 139.492 392.826C139.18 393.255 138.933 393.554 138.673 393.606C138.79 393.866 138.946 394.347 138.998 394.568ZM144.198 390.005L144.198 390.967L148.93 390.967L148.93 394.269L144.406 394.269L144.406 399.313C144.406 400.548 144.835 400.86 146.226 400.86C146.525 400.86 148.618 400.86 148.943 400.86C150.295 400.86 150.607 400.262 150.737 398.169C150.464 398.104 150.048 397.935 149.814 397.753C149.736 399.599 149.619 399.937 148.891 399.937C148.423 399.937 146.655 399.937 146.304 399.937C145.537 399.937 145.407 399.82 145.407 399.313L145.407 395.205L148.93 395.205L148.93 395.868L149.905 395.868L149.905 390.005L144.198 390.005ZM159.954 397.064C159.525 397.818 158.927 398.403 158.134 398.871C157.185 398.637 156.21 398.429 155.248 398.247C155.521 397.896 155.833 397.493 156.132 397.064L159.954 397.064ZM152.765 391.695L152.765 395.062L156.236 395.062C156.054 395.426 155.833 395.816 155.586 396.206L151.92 396.206L151.92 397.064L155.001 397.064C154.546 397.701 154.065 398.299 153.636 398.767C154.741 398.975 155.82 399.196 156.847 399.443C155.573 399.885 153.961 400.132 151.985 400.249C152.154 400.47 152.31 400.821 152.388 401.094C154.845 400.886 156.782 400.509 158.251 399.794C159.902 400.236 161.332 400.691 162.398 401.12L163.23 400.366C162.19 399.976 160.825 399.56 159.317 399.157C160.058 398.611 160.63 397.922 161.033 397.064L163.529 397.064L163.529 396.206L156.704 396.206C156.912 395.868 157.107 395.53 157.276 395.205L156.678 395.062L162.762 395.062L162.762 391.695L159.629 391.695L159.629 390.59L163.308 390.59L163.308 389.719L152.115 389.719L152.115 390.59L155.664 390.59L155.664 391.695L152.765 391.695ZM156.587 390.59L158.706 390.59L158.706 391.695L156.587 391.695L156.587 390.59ZM153.688 392.501L155.664 392.501L155.664 394.269L153.688 394.269L153.688 392.501ZM156.587 392.501L158.706 392.501L158.706 394.269L156.587 394.269L156.587 392.501ZM159.629 392.501L161.8 392.501L161.8 394.269L159.629 394.269L159.629 392.501ZM171.121 390.369L171.121 400.535L172.07 400.535L172.07 399.469L174.969 399.469L174.969 400.444L175.957 400.444L175.957 390.369L171.121 390.369ZM172.07 398.533L172.07 391.305L174.969 391.305L174.969 398.533L172.07 398.533ZM169.925 389.277C168.781 389.745 166.727 390.135 164.998 390.369C165.102 390.59 165.232 390.928 165.271 391.149C165.96 391.071 166.701 390.967 167.429 390.837L167.429 393.008L164.868 393.008L164.868 393.918L167.182 393.918C166.584 395.556 165.544 397.337 164.556 398.338C164.725 398.585 164.972 398.962 165.089 399.248C165.934 398.351 166.792 396.856 167.429 395.322L167.429 401.094L168.391 401.094L168.391 395.361C168.95 396.102 169.678 397.09 169.977 397.584L170.575 396.778C170.263 396.375 168.872 394.737 168.391 394.243L168.391 393.918L170.666 393.918L170.666 393.008L168.391 393.008L168.391 390.642C169.21 390.473 169.964 390.278 170.575 390.044L169.925 389.277ZM178.96 395.959C179.805 396.427 180.832 397.168 181.326 397.662L182.015 396.986C181.495 396.492 180.442 395.803 179.623 395.361L178.96 395.959ZM178.96 389.888L178.96 390.785L186.838 390.785L186.786 391.981L179.35 391.981L179.35 392.878L186.734 392.878L186.656 394.074L178.089 394.074L178.089 394.945L183.211 394.945L183.211 397.324C181.326 398.104 179.363 398.897 178.102 399.378L178.622 400.249C179.896 399.703 181.599 398.975 183.211 398.26L183.211 400.054C183.211 400.236 183.146 400.288 182.938 400.301C182.73 400.314 182.002 400.314 181.235 400.288C181.365 400.535 181.521 400.899 181.573 401.146C182.587 401.146 183.25 401.146 183.653 401.003C184.069 400.86 184.199 400.626 184.199 400.067L184.199 397.012C185.317 398.702 186.942 399.963 188.97 400.6C189.1 400.34 189.399 399.963 189.607 399.755C188.203 399.378 186.981 398.689 185.993 397.779C186.825 397.272 187.8 396.544 188.58 395.881L187.748 395.27C187.163 395.855 186.201 396.622 185.395 397.168C184.914 396.622 184.511 395.998 184.199 395.335L184.199 394.945L189.438 394.945L189.438 394.074L187.67 394.074C187.787 392.735 187.878 391.136 187.904 389.888L187.137 389.836L186.968 389.888L178.96 389.888ZM195.873 389.251C196.068 389.576 196.25 389.979 196.38 390.343L191.674 390.343L191.674 391.227L201.879 391.227L201.879 390.343L197.472 390.343C197.342 389.94 197.108 389.433 196.835 389.056L195.873 389.251ZM193.442 391.513C193.78 392.072 194.079 392.839 194.196 393.398L190.933 393.398L190.933 394.282L202.516 394.282L202.516 393.398L199.227 393.398C199.552 392.852 199.877 392.137 200.176 391.513L199.123 391.253C198.902 391.877 198.512 392.787 198.187 393.398L194.755 393.398L195.223 393.281C195.106 392.735 194.781 391.916 194.365 391.305L193.442 391.513ZM193.689 398.39L199.838 398.39L199.838 399.807L193.689 399.807L193.689 398.39ZM193.689 397.61L193.689 396.258L199.838 396.258L199.838 397.61L193.689 397.61ZM192.727 395.426L192.727 401.133L193.689 401.133L193.689 400.639L199.838 400.639L199.838 401.107L200.852 401.107L200.852 395.426L192.727 395.426ZM208.717 389.381C209.107 390.018 209.523 390.889 209.679 391.422L210.758 391.071C210.576 390.538 210.121 389.693 209.731 389.069L208.717 389.381ZM203.868 391.448L203.868 392.41L205.896 392.41C206.663 394.386 207.69 396.089 209.029 397.48C207.599 398.676 205.844 399.56 203.686 400.171C203.881 400.405 204.193 400.86 204.297 401.094C206.468 400.392 208.275 399.456 209.744 398.182C211.213 399.482 212.981 400.444 215.113 401.029C215.282 400.756 215.568 400.34 215.789 400.132C213.709 399.612 211.941 398.689 210.498 397.467C211.811 396.128 212.812 394.464 213.566 392.41L215.62 392.41L215.62 391.448L203.868 391.448ZM209.77 396.791C208.548 395.556 207.586 394.074 206.91 392.41L212.461 392.41C211.811 394.165 210.914 395.608 209.77 396.791ZM220.339 395.647L220.339 396.596L224.07 396.596L224.07 401.12L225.045 401.12L225.045 396.596L228.607 396.596L228.607 395.647L225.045 395.647L225.045 392.774L228.035 392.774L228.035 391.825L225.045 391.825L225.045 389.316L224.07 389.316L224.07 391.825L222.328 391.825C222.497 391.24 222.64 390.616 222.77 390.005L221.834 389.81C221.535 391.513 220.989 393.19 220.235 394.269C220.469 394.386 220.885 394.62 221.067 394.763C221.418 394.217 221.743 393.528 222.016 392.774L224.07 392.774L224.07 395.647L220.339 395.647ZM219.702 389.212C219 391.175 217.856 393.125 216.634 394.399C216.803 394.62 217.089 395.127 217.193 395.361C217.609 394.919 217.999 394.399 218.389 393.84L218.389 401.094L219.325 401.094L219.325 392.319C219.819 391.409 220.261 390.447 220.625 389.485L219.702 389.212Z"></path></g><g ><path     fill="#5B6A7A"  d="M76.5 413.762C75.733 413.762 75.122 414.373 75.122 415.14C75.122 415.907 75.733 416.518 76.5 416.518C77.267 416.518 77.878 415.907 77.878 415.14C77.878 414.373 77.267 413.762 76.5 413.762ZM92.1983 412.982L92.1983 421.107L93.2123 421.107L93.2123 412.982L92.1983 412.982ZM92.7963 409.147C91.4963 411.318 89.1303 413.216 86.6733 414.282C86.9463 414.516 87.2323 414.893 87.4013 415.179C89.4033 414.204 91.3273 412.696 92.7313 410.902C94.4603 412.93 96.1763 414.178 98.1003 415.192C98.2563 414.88 98.5553 414.516 98.8153 414.308C96.8133 413.333 94.9673 412.111 93.3033 410.122L93.6673 409.55L92.7963 409.147ZM105.159 409.199C105.12 411.201 105.198 417.558 99.7773 420.301C100.076 420.509 100.388 420.821 100.57 421.068C103.755 419.365 105.133 416.453 105.744 413.84C106.381 416.271 107.785 419.482 111.048 421.016C111.204 420.743 111.49 420.405 111.763 420.197C107.161 418.13 106.355 412.683 106.16 411.123C106.225 410.343 106.238 409.68 106.251 409.199L105.159 409.199ZM114.987 411.422L114.987 415.14C114.987 416.804 114.857 419.157 112.699 420.457C112.881 420.6 113.128 420.886 113.232 421.042C115.52 419.547 115.767 417.051 115.767 415.14L115.767 411.422L114.987 411.422ZM115.455 418.39C116.053 419.105 116.755 420.093 117.054 420.717L117.717 420.184C117.392 419.599 116.664 418.65 116.066 417.948L115.455 418.39ZM113.323 409.771L113.323 417.779L114.09 417.779L114.09 410.577L116.612 410.577L116.612 417.74L117.392 417.74L117.392 409.771L113.323 409.771ZM123.151 409.732C122.501 411.032 121.396 412.293 120.239 413.099C120.46 413.268 120.798 413.632 120.954 413.814C122.111 412.904 123.307 411.487 124.061 410.018L123.151 409.732ZM118.718 421.185C118.926 421.016 119.303 420.86 121.812 419.833C121.76 419.625 121.721 419.248 121.721 418.975L119.81 419.664L119.81 415.127L120.876 415.127C121.461 417.597 122.527 419.703 124.1 420.834C124.256 420.587 124.555 420.249 124.763 420.08C123.32 419.144 122.306 417.259 121.773 415.127L124.503 415.127L124.503 414.217L119.81 414.217L119.81 409.42L118.887 409.42L118.887 414.217L117.73 414.217L117.73 415.127L118.887 415.127L118.887 419.534C118.887 420.054 118.549 420.288 118.315 420.392C118.471 420.587 118.653 420.964 118.718 421.185ZM128.598 410.564L134.786 410.564L134.786 412.332L128.598 412.332L128.598 410.564ZM127.623 409.693L127.623 413.19L135.813 413.19L135.813 409.693L127.623 409.693ZM126.037 414.36L126.037 415.257L128.715 415.257C128.455 416.063 128.13 416.96 127.857 417.597L134.669 417.597C134.422 419.105 134.162 419.833 133.837 420.093C133.681 420.197 133.525 420.21 133.213 420.21C132.849 420.21 131.9 420.197 130.99 420.106C131.172 420.379 131.302 420.756 131.328 421.042C132.225 421.094 133.083 421.107 133.525 421.081C134.032 421.068 134.344 420.99 134.656 420.73C135.137 420.314 135.462 419.339 135.774 417.155C135.8 417.012 135.826 416.713 135.826 416.713L129.313 416.713L129.794 415.257L137.347 415.257L137.347 414.36L126.037 414.36ZM143.184 413.177L143.184 413.983L149.515 413.983L149.515 413.177L143.184 413.177ZM143.184 415.023L143.184 415.816L149.515 415.816L149.515 415.023L143.184 415.023ZM142.248 411.305L142.248 412.137L150.529 412.137L150.529 411.305L142.248 411.305ZM145.251 409.485C145.602 410.031 145.992 410.772 146.174 411.24L147.045 410.85C146.863 410.395 146.473 409.693 146.096 409.16L145.251 409.485ZM143.015 416.921L143.015 421.12L143.86 421.12L143.86 420.6L148.761 420.6L148.761 421.081L149.645 421.081L149.645 416.921L143.015 416.921ZM143.86 419.794L143.86 417.727L148.761 417.727L148.761 419.794L143.86 419.794ZM141.546 409.212C140.883 411.175 139.804 413.125 138.634 414.399C138.803 414.62 139.089 415.101 139.18 415.309C139.609 414.828 140.025 414.256 140.415 413.645L140.415 421.159L141.312 421.159L141.312 412.072C141.741 411.24 142.118 410.356 142.417 409.472L141.546 409.212ZM154.676 412.93L160.708 412.93L160.708 413.97L154.676 413.97L154.676 412.93ZM154.676 414.724L160.708 414.724L160.708 415.777L154.676 415.777L154.676 414.724ZM154.676 411.149L160.708 411.149L160.708 412.189L154.676 412.189L154.676 411.149ZM154.624 417.454L154.624 419.573C154.624 420.613 155.027 420.886 156.535 420.886C156.847 420.886 159.2 420.886 159.525 420.886C160.786 420.886 161.111 420.496 161.241 418.832C160.968 418.78 160.552 418.637 160.331 418.481C160.266 419.807 160.162 419.989 159.46 419.989C158.94 419.989 156.977 419.989 156.587 419.989C155.755 419.989 155.599 419.924 155.599 419.56L155.599 417.454L154.624 417.454ZM161.137 417.584C161.735 418.403 162.359 419.521 162.58 420.236L163.503 419.82C163.256 419.105 162.619 418.013 162.008 417.22L161.137 417.584ZM153.142 417.428C152.83 418.247 152.323 419.365 151.803 420.08L152.7 420.509C153.181 419.755 153.649 418.611 153.974 417.792L153.142 417.428ZM156.665 416.96C157.328 417.571 158.082 418.442 158.407 419.027L159.2 418.533C158.849 417.974 158.108 417.142 157.432 416.557L161.683 416.557L161.683 410.369L157.796 410.369C157.991 410.031 158.212 409.628 158.407 409.225L157.263 409.03C157.159 409.407 156.951 409.94 156.782 410.369L153.74 410.369L153.74 416.557L157.367 416.557L156.665 416.96ZM164.959 416.986L164.959 417.922L173.071 417.922L173.071 416.986L164.959 416.986ZM167.611 409.446C167.286 411.24 166.753 413.697 166.35 415.14L167.169 415.153L167.377 415.153L174.709 415.153C174.41 418.13 174.072 419.495 173.591 419.885C173.422 420.028 173.24 420.041 172.915 420.041C172.538 420.041 171.524 420.028 170.51 419.937C170.705 420.21 170.848 420.613 170.874 420.912C171.797 420.964 172.733 420.99 173.201 420.964C173.76 420.925 174.098 420.847 174.436 420.509C175.034 419.937 175.385 418.429 175.762 414.711C175.788 414.568 175.801 414.23 175.801 414.23L167.611 414.23C167.767 413.528 167.949 412.709 168.118 411.89L175.606 411.89L175.606 410.954L168.313 410.954L168.586 409.55L167.611 409.446ZM179.259 420.834C179.753 420.652 180.481 420.6 187.371 420.015C187.67 420.405 187.93 420.782 188.112 421.107L188.983 420.574C188.411 419.599 187.176 418.195 186.006 417.155L185.187 417.597C185.694 418.065 186.214 418.611 186.682 419.157L180.767 419.612C181.69 418.754 182.613 417.714 183.419 416.648L189.152 416.648L189.152 415.699L178.375 415.699L178.375 416.648L182.093 416.648C181.248 417.805 180.26 418.832 179.909 419.144C179.506 419.521 179.207 419.768 178.921 419.833C179.038 420.093 179.207 420.613 179.259 420.834ZM183.77 409.16C182.6 410.902 180.312 412.553 177.764 413.632C177.998 413.814 178.336 414.23 178.479 414.477C179.233 414.126 179.961 413.736 180.65 413.307L180.65 414.1L186.851 414.1L186.851 413.19L180.819 413.19C181.937 412.462 182.938 411.643 183.757 410.746C184.537 411.552 185.629 412.436 186.851 413.19C187.553 413.632 188.307 414.022 189.048 414.321C189.204 414.061 189.529 413.658 189.737 413.463C187.631 412.735 185.512 411.318 184.316 410.083L184.706 409.563L183.77 409.16ZM193.702 410.59L199.773 410.59L199.773 412.072L193.702 412.072L193.702 410.59ZM192.688 409.745L192.688 412.917L200.839 412.917L200.839 409.745L192.688 409.745ZM196.133 415.829L196.133 417.025C196.133 418.052 195.769 419.443 191.076 420.366C191.297 420.574 191.596 420.951 191.713 421.172C196.575 420.08 197.173 418.403 197.173 417.038L197.173 415.829L196.133 415.829ZM197.095 419.235C198.681 419.781 200.813 420.626 201.892 421.172L202.386 420.34C201.268 419.807 199.123 419.014 197.576 418.52L197.095 419.235ZM192.233 414.087L192.233 418.884L193.234 418.884L193.234 414.997L200.306 414.997L200.306 418.793L201.346 418.793L201.346 414.087L192.233 414.087ZM214.307 411.305C213.891 413.567 213.111 415.452 212.071 416.934C211.096 415.426 210.498 413.619 210.082 411.305L214.307 411.305ZM208.717 410.356L208.717 411.305L209.172 411.305C209.64 413.983 210.303 416.037 211.447 417.74C210.446 418.91 209.263 419.768 207.976 420.301C208.197 420.483 208.457 420.873 208.587 421.107C209.874 420.509 211.044 419.664 212.045 418.533C212.838 419.508 213.839 420.366 215.1 421.185C215.243 420.899 215.542 420.574 215.802 420.379C214.489 419.599 213.475 418.741 212.669 417.753C213.982 415.972 214.931 413.58 215.373 410.512L214.762 410.317L214.593 410.356L208.717 410.356ZM205.974 409.16L205.974 411.916L203.816 411.916L203.816 412.826L205.74 412.826C205.272 414.633 204.362 416.7 203.465 417.792C203.647 418.039 203.907 418.468 204.037 418.754C204.765 417.818 205.467 416.219 205.974 414.607L205.974 421.107L206.936 421.107L206.936 414.49C207.495 415.205 208.236 416.206 208.535 416.7L209.12 415.829C208.808 415.452 207.352 413.775 206.936 413.372L206.936 412.826L208.678 412.826L208.678 411.916L206.936 411.916L206.936 409.16L205.974 409.16ZM223.901 413.892C225.227 414.386 226.969 415.166 227.853 415.686L228.36 414.893C227.45 414.399 225.682 413.658 224.382 413.19L223.901 413.892ZM220.703 413.151C219.897 413.853 218.259 414.737 217.102 415.166C217.323 415.361 217.57 415.712 217.713 415.933C218.87 415.374 220.495 414.399 221.392 413.645L220.703 413.151ZM218.506 415.777L218.506 419.846L216.803 419.846L216.803 420.73L228.646 420.73L228.646 419.846L227.034 419.846L227.034 415.777L218.506 415.777ZM219.39 419.846L219.39 416.622L221.015 416.622L221.015 419.846L219.39 419.846ZM221.925 419.846L221.925 416.622L223.537 416.622L223.537 419.846L221.925 419.846ZM224.447 419.846L224.447 416.622L226.111 416.622L226.111 419.846L224.447 419.846ZM225.487 409.16C225.175 409.862 224.59 410.837 224.122 411.448L224.824 411.708L220.625 411.708L221.327 411.344C221.067 410.759 220.495 409.862 219.936 409.186L219.104 409.55C219.611 410.2 220.157 411.097 220.417 411.708L217.05 411.708L217.05 412.579L228.373 412.579L228.373 411.708L224.954 411.708C225.435 411.11 225.994 410.252 226.462 409.485L225.487 409.16Z"></path></g><g ><path     fill="#5B6A7A"  d="M76.5 433.762C75.733 433.762 75.122 434.373 75.122 435.14C75.122 435.907 75.733 436.518 76.5 436.518C77.267 436.518 77.878 435.907 77.878 435.14C77.878 434.373 77.267 433.762 76.5 433.762ZM91.6133 437.428C92.2243 438.13 92.8873 439.105 93.1603 439.742L93.9923 439.248C93.7063 438.624 93.0173 437.688 92.4193 437.012L91.6133 437.428ZM89.5333 429.186C88.9743 430.109 87.8043 431.201 86.7903 431.864C86.9333 432.059 87.1933 432.449 87.2973 432.67C88.4413 431.89 89.6893 430.681 90.4433 429.55L89.5333 429.186ZM94.0963 429.225L94.0963 430.85L91.2363 430.85L91.2363 431.734L94.0963 431.734L94.0963 433.385L90.4693 433.385L90.4693 434.282L95.9293 434.282L95.9293 435.738L90.6253 435.738L90.6253 436.635L95.9293 436.635L95.9293 439.937C95.9293 440.106 95.8643 440.171 95.6563 440.171C95.4483 440.184 94.7203 440.197 93.9403 440.158C94.0703 440.431 94.2263 440.834 94.2653 441.094C95.2793 441.094 95.9423 441.094 96.3583 440.938C96.7613 440.782 96.8913 440.509 96.8913 439.937L96.8913 436.635L98.6333 436.635L98.6333 435.738L96.8913 435.738L96.8913 434.282L98.7243 434.282L98.7243 433.385L95.0713 433.385L95.0713 431.734L98.0483 431.734L98.0483 430.85L95.0713 430.85L95.0713 429.225L94.0963 429.225ZM89.7543 432.059C89.0133 433.398 87.7653 434.737 86.5953 435.595C86.7643 435.829 87.0373 436.336 87.1153 436.557C87.6093 436.141 88.1293 435.647 88.6233 435.114L88.6233 441.107L89.5593 441.107L89.5593 433.996C89.9493 433.476 90.3133 432.93 90.6123 432.397L89.7543 432.059ZM101.597 433.645C101.233 434.789 100.583 436.232 99.8033 437.155L100.7 437.675C101.454 436.687 102.091 435.166 102.481 434.009L101.597 433.645ZM109.332 433.827C109.93 435.14 110.541 436.856 110.736 437.909L111.698 437.558C111.477 436.505 110.84 434.815 110.229 433.528L109.332 433.827ZM104.275 429.173L104.275 431.435L104.275 431.552L100.349 431.552L100.349 432.527L104.249 432.527C104.132 435.062 103.417 438.143 99.7643 440.392C100.011 440.561 100.388 440.938 100.557 441.172C104.444 438.728 105.172 435.322 105.289 432.527L107.941 432.527C107.759 437.389 107.551 439.274 107.135 439.703C106.992 439.872 106.849 439.911 106.576 439.898C106.251 439.898 105.445 439.898 104.574 439.82C104.756 440.106 104.886 440.548 104.912 440.86C105.705 440.886 106.537 440.925 107.005 440.873C107.486 440.821 107.798 440.704 108.097 440.314C108.617 439.69 108.812 437.714 109.02 432.098C109.02 431.942 109.033 431.552 109.033 431.552L105.315 431.552L105.315 431.448L105.315 429.173L104.275 429.173ZM113.96 438.377L113.96 439.144L118.185 439.144L118.185 440.028C118.185 440.262 118.107 440.327 117.86 440.34C117.639 440.353 116.846 440.366 116.066 440.34C116.196 440.561 116.365 440.925 116.417 441.159C117.509 441.159 118.185 441.146 118.588 441.003C118.991 440.86 119.173 440.626 119.173 440.028L119.173 439.144L122.293 439.144L122.293 439.716L123.281 439.716L123.281 437.402L124.633 437.402L124.633 436.622L123.281 436.622L123.281 434.997L119.173 434.997L119.173 434.074L123.073 434.074L123.073 431.773L119.173 431.773L119.173 431.006L124.373 431.006L124.373 430.2L119.173 430.2L119.173 429.16L118.185 429.16L118.185 430.2L113.089 430.2L113.089 431.006L118.185 431.006L118.185 431.773L114.454 431.773L114.454 434.074L118.185 434.074L118.185 434.997L114.077 434.997L114.077 435.712L118.185 435.712L118.185 436.622L112.842 436.622L112.842 437.402L118.185 437.402L118.185 438.377L113.96 438.377ZM115.39 432.462L118.185 432.462L118.185 433.385L115.39 433.385L115.39 432.462ZM119.173 432.462L122.085 432.462L122.085 433.385L119.173 433.385L119.173 432.462ZM119.173 435.712L122.293 435.712L122.293 436.622L119.173 436.622L119.173 435.712ZM119.173 437.402L122.293 437.402L122.293 438.377L119.173 438.377L119.173 437.402ZM133.252 433.58L133.252 436.323C133.252 437.688 132.901 439.352 129.365 440.327C129.573 440.522 129.859 440.873 129.976 441.081C133.655 439.924 134.227 438.026 134.227 436.323L134.227 433.58L133.252 433.58ZM134.175 438.897C135.176 439.547 136.45 440.483 137.061 441.107L137.711 440.418C137.087 439.807 135.787 438.91 134.786 438.286L134.175 438.897ZM125.595 437.688L125.842 438.702C127.038 438.299 128.624 437.753 130.145 437.233L130.015 436.388L128.429 436.869L128.429 431.63L129.937 431.63L129.937 430.694L125.816 430.694L125.816 431.63L127.454 431.63L127.454 437.155L125.595 437.688ZM130.639 431.968L130.639 438.091L131.588 438.091L131.588 432.852L135.826 432.852L135.826 438.065L136.801 438.065L136.801 431.968L133.733 431.968C133.928 431.565 134.136 431.084 134.344 430.616L137.659 430.616L137.659 429.732L130.171 429.732L130.171 430.616L133.187 430.616C133.057 431.058 132.901 431.552 132.732 431.968L130.639 431.968ZM145.121 430.369L145.121 440.535L146.07 440.535L146.07 439.469L148.969 439.469L148.969 440.444L149.957 440.444L149.957 430.369L145.121 430.369ZM146.07 438.533L146.07 431.305L148.969 431.305L148.969 438.533L146.07 438.533ZM143.925 429.277C142.781 429.745 140.727 430.135 138.998 430.369C139.102 430.59 139.232 430.928 139.271 431.149C139.96 431.071 140.701 430.967 141.429 430.837L141.429 433.008L138.868 433.008L138.868 433.918L141.182 433.918C140.584 435.556 139.544 437.337 138.556 438.338C138.725 438.585 138.972 438.962 139.089 439.248C139.934 438.351 140.792 436.856 141.429 435.322L141.429 441.094L142.391 441.094L142.391 435.361C142.95 436.102 143.678 437.09 143.977 437.584L144.575 436.778C144.263 436.375 142.872 434.737 142.391 434.243L142.391 433.918L144.666 433.918L144.666 433.008L142.391 433.008L142.391 430.642C143.21 430.473 143.964 430.278 144.575 430.044L143.925 429.277ZM159.005 429.212L159.005 430.603L155.391 430.603L155.391 431.5L159.005 431.5L159.005 432.774L155.768 432.774L155.768 436.375L158.94 436.375C158.849 437.09 158.654 437.766 158.238 438.377C157.549 437.896 156.99 437.311 156.587 436.635L155.768 436.908C156.249 437.74 156.886 438.442 157.653 439.027C157.055 439.573 156.171 440.028 154.91 440.353C155.118 440.561 155.391 440.938 155.508 441.159C156.86 440.756 157.796 440.21 158.459 439.573C159.772 440.366 161.41 440.886 163.269 441.146C163.399 440.86 163.646 440.483 163.854 440.262C161.982 440.054 160.344 439.599 159.031 438.884C159.551 438.117 159.785 437.272 159.889 436.375L163.295 436.375L163.295 432.774L159.954 432.774L159.954 431.5L163.724 431.5L163.724 430.603L159.954 430.603L159.954 429.212L159.005 429.212ZM156.678 433.593L159.005 433.593L159.005 434.958L158.992 435.543L156.678 435.543L156.678 433.593ZM159.954 433.593L162.359 433.593L162.359 435.543L159.941 435.543L159.954 434.958L159.954 433.593ZM154.832 429.134C154.065 431.11 152.804 433.034 151.491 434.282C151.66 434.516 151.933 435.023 152.037 435.244C152.531 434.75 153.012 434.178 153.467 433.541L153.467 441.172L154.403 441.172L154.403 432.124C154.91 431.253 155.378 430.343 155.742 429.42L154.832 429.134ZM166.207 430.07L166.207 434.789C166.207 436.622 166.077 438.923 164.634 440.548C164.855 440.665 165.245 440.99 165.388 441.185C166.389 440.08 166.831 438.585 167.026 437.129L170.289 437.129L170.289 441.003L171.277 441.003L171.277 437.129L174.787 437.129L174.787 439.794C174.787 440.028 174.696 440.106 174.436 440.119C174.189 440.132 173.305 440.145 172.395 440.106C172.525 440.366 172.681 440.795 172.733 441.042C173.955 441.055 174.709 441.042 175.151 440.886C175.593 440.73 175.749 440.431 175.749 439.794L175.749 430.07L166.207 430.07ZM167.169 431.006L170.289 431.006L170.289 433.099L167.169 433.099L167.169 431.006ZM174.787 431.006L174.787 433.099L171.277 433.099L171.277 431.006L174.787 431.006ZM167.169 434.022L170.289 434.022L170.289 436.206L167.117 436.206C167.156 435.712 167.169 435.231 167.169 434.789L167.169 434.022ZM174.787 434.022L174.787 436.206L171.277 436.206L171.277 434.022L174.787 434.022ZM178.83 430.083C179.545 430.72 180.455 431.604 180.858 432.176L181.573 431.487C181.118 430.941 180.208 430.083 179.506 429.485L178.83 430.083ZM179.818 440.873L179.818 440.86C180 440.613 180.364 440.34 182.522 438.806C182.418 438.611 182.275 438.221 182.21 437.961L180.858 438.884L180.858 433.242L177.816 433.242L177.816 434.191L179.896 434.191L179.896 438.871C179.896 439.508 179.493 439.95 179.259 440.132C179.441 440.301 179.714 440.665 179.818 440.873ZM182.665 430.07L182.665 431.045L187.826 431.045L187.826 434.334L182.912 434.334L182.912 439.339C182.912 440.613 183.38 440.925 184.836 440.925C185.161 440.925 187.488 440.925 187.826 440.925C189.243 440.925 189.581 440.34 189.724 438.221C189.438 438.156 189.022 437.987 188.775 437.805C188.71 439.651 188.58 439.989 187.774 439.989C187.267 439.989 185.291 439.989 184.901 439.989C184.069 439.989 183.913 439.872 183.913 439.352L183.913 435.27L187.826 435.27L187.826 435.946L188.801 435.946L188.801 430.07L182.665 430.07ZM191.96 435.959C192.805 436.427 193.832 437.168 194.326 437.662L195.015 436.986C194.495 436.492 193.442 435.803 192.623 435.361L191.96 435.959ZM191.96 429.888L191.96 430.785L199.838 430.785L199.786 431.981L192.35 431.981L192.35 432.878L199.734 432.878L199.656 434.074L191.089 434.074L191.089 434.945L196.211 434.945L196.211 437.324C194.326 438.104 192.363 438.897 191.102 439.378L191.622 440.249C192.896 439.703 194.599 438.975 196.211 438.26L196.211 440.054C196.211 440.236 196.146 440.288 195.938 440.301C195.73 440.314 195.002 440.314 194.235 440.288C194.365 440.535 194.521 440.899 194.573 441.146C195.587 441.146 196.25 441.146 196.653 441.003C197.069 440.86 197.199 440.626 197.199 440.067L197.199 437.012C198.317 438.702 199.942 439.963 201.97 440.6C202.1 440.34 202.399 439.963 202.607 439.755C201.203 439.378 199.981 438.689 198.993 437.779C199.825 437.272 200.8 436.544 201.58 435.881L200.748 435.27C200.163 435.855 199.201 436.622 198.395 437.168C197.914 436.622 197.511 435.998 197.199 435.335L197.199 434.945L202.438 434.945L202.438 434.074L200.67 434.074C200.787 432.735 200.878 431.136 200.904 429.888L200.137 429.836L199.968 429.888L191.96 429.888Z"></path></g><g ><path     fill="#FF6B6B"  d="M117.528 466.764L117.696 467.724C119.208 467.424 121.392 467.028 123.432 466.644L123.372 465.744L121.656 466.056L121.656 461.412L123.372 461.412L123.372 460.548L121.656 460.548L121.656 456.84L120.744 456.84L120.744 466.224L119.388 466.452L119.388 459.276L118.5 459.276L118.5 466.608L117.528 466.764ZM123.972 456.84L123.972 465.84C123.972 467.148 124.284 467.484 125.388 467.484C125.628 467.484 126.972 467.484 127.224 467.484C128.292 467.484 128.544 466.812 128.652 464.88C128.388 464.82 128.028 464.652 127.788 464.472C127.728 466.188 127.656 466.62 127.152 466.62C126.864 466.62 125.736 466.62 125.508 466.62C124.992 466.62 124.92 466.5 124.92 465.864L124.92 462.132C126.084 461.568 127.32 460.872 128.244 460.188L127.5 459.456C126.876 460.02 125.904 460.68 124.92 461.22L124.92 456.84L123.972 456.84ZM135.324 458.016L138.096 458.016L138.096 459.276L135.324 459.276L135.324 458.016ZM134.532 457.332L134.532 459.96L138.924 459.96L138.924 457.332L134.532 457.332ZM134.04 461.16L135.624 461.16L135.624 462.528L134.04 462.528L134.04 461.16ZM137.76 461.16L139.392 461.16L139.392 462.528L137.76 462.528L137.76 461.16ZM130.908 456.84L130.908 459.264L129.552 459.264L129.552 460.104L130.908 460.104L130.908 462.732C130.356 462.924 129.852 463.092 129.444 463.224L129.672 464.088L130.908 463.62L130.908 466.824C130.908 466.968 130.872 467.004 130.74 467.004C130.632 467.004 130.272 467.016 129.864 467.004C129.984 467.232 130.092 467.604 130.128 467.808C130.74 467.808 131.136 467.784 131.4 467.652C131.664 467.508 131.76 467.28 131.76 466.824L131.76 463.296L132.948 462.84L132.804 462.036L131.76 462.42L131.76 460.104L132.876 460.104L132.876 459.264L131.76 459.264L131.76 456.84L130.908 456.84ZM136.272 463.2L136.272 464.112L133.104 464.112L133.104 464.868L135.708 464.868C134.88 465.756 133.572 466.524 132.324 466.908C132.504 467.076 132.768 467.4 132.888 467.616C134.112 467.172 135.396 466.344 136.272 465.36L136.272 467.892L137.124 467.892L137.124 465.3C137.88 466.212 138.996 467.064 140.016 467.508C140.16 467.292 140.412 466.98 140.604 466.812C139.548 466.44 138.396 465.684 137.664 464.868L140.412 464.868L140.412 464.112L137.124 464.112L137.124 463.2L140.148 463.2L140.148 460.5L137.04 460.5L137.04 463.2L136.356 463.2L136.356 460.5L133.332 460.5L133.332 463.2L136.272 463.2ZM147.312 456.984C146.712 458.748 145.74 460.488 144.66 461.616C144.864 461.76 145.212 462.072 145.356 462.228C145.968 461.556 146.556 460.68 147.072 459.708L147.9 459.708L147.9 467.868L148.812 467.868L148.812 464.952L152.424 464.952L152.424 464.1L148.812 464.1L148.812 462.276L152.268 462.276L152.268 461.448L148.812 461.448L148.812 459.708L152.544 459.708L152.544 458.844L147.504 458.844C147.756 458.316 147.984 457.764 148.176 457.212L147.312 456.984ZM144.42 456.888C143.748 458.712 142.62 460.512 141.432 461.676C141.6 461.88 141.864 462.372 141.96 462.576C142.368 462.156 142.764 461.676 143.148 461.148L143.148 467.856L144.048 467.856L144.048 459.732C144.516 458.916 144.948 458.028 145.284 457.152L144.42 456.888ZM159.708 461.184C161.136 462.144 162.936 463.56 163.788 464.484L164.52 463.788C163.62 462.864 161.796 461.52 160.38 460.608L159.708 461.184ZM153.828 457.68L153.828 458.604L159.168 458.604C157.98 460.656 155.916 462.684 153.528 463.86C153.72 464.064 153.996 464.424 154.14 464.652C155.808 463.776 157.296 462.54 158.508 461.148L158.508 467.856L159.48 467.856L159.48 459.912C159.792 459.492 160.068 459.048 160.32 458.604L164.172 458.604L164.172 457.68L153.828 457.68ZM165.672 457.692L165.672 458.592L173.964 458.592L173.964 466.572C173.964 466.824 173.88 466.896 173.616 466.92C173.328 466.92 172.344 466.932 171.384 466.884C171.528 467.148 171.696 467.592 171.756 467.856C172.944 467.856 173.784 467.856 174.264 467.7C174.732 467.544 174.9 467.232 174.9 466.584L174.9 458.592L176.376 458.592L176.376 457.692L165.672 457.692ZM167.772 461.22L170.928 461.22L170.928 463.98L167.772 463.98L167.772 461.22ZM166.896 460.356L166.896 465.804L167.772 465.804L167.772 464.844L171.816 464.844L171.816 460.356L166.896 460.356ZM178.992 456.84L178.992 467.868L179.832 467.868L179.832 456.84L178.992 456.84ZM178.056 459.132C177.996 460.128 177.792 461.448 177.468 462.228L178.164 462.48C178.5 461.616 178.704 460.236 178.74 459.24L178.056 459.132ZM179.904 459.012C180.252 459.768 180.564 460.764 180.648 461.364L181.332 461.064C181.248 460.476 180.912 459.516 180.552 458.784L179.904 459.012ZM184.044 461.136C183.9 462.168 183.648 463.188 183.216 463.896C183.384 463.98 183.684 464.16 183.816 464.268C184.248 463.524 184.56 462.396 184.74 461.268L184.044 461.136ZM187.404 461.052C187.212 462.072 186.876 463.152 186.456 463.872C186.648 463.956 186.972 464.1 187.128 464.208C187.524 463.452 187.896 462.3 188.136 461.208L187.404 461.052ZM183.048 456.816C182.988 457.452 182.928 458.064 182.856 458.664L181.152 458.664L181.152 459.492L182.736 459.492C182.328 462.024 181.632 464.136 180.324 465.552C180.504 465.696 180.864 466.008 180.996 466.164C182.4 464.544 183.132 462.276 183.576 459.492L188.328 459.492L188.328 458.664L183.696 458.664C183.768 458.088 183.828 457.5 183.888 456.888L183.048 456.816ZM185.448 459.912C185.292 463.824 184.776 466.212 182.076 467.172C182.268 467.352 182.484 467.676 182.592 467.904C184.128 467.28 185.016 466.284 185.52 464.808C186.036 466.164 186.816 467.244 187.944 467.82C188.064 467.604 188.316 467.292 188.52 467.136C187.176 466.548 186.288 465.192 185.856 463.536C186.06 462.516 186.156 461.328 186.204 459.948L185.448 459.912ZM192.456 461.616L198.036 461.616L198.036 462.432L192.456 462.432L192.456 461.616ZM192.456 460.212L198.036 460.212L198.036 461.004L192.456 461.004L192.456 460.212ZM191.556 459.552L191.556 463.092L192.9 463.092C192.216 464.004 191.16 464.844 190.116 465.396C190.308 465.54 190.62 465.84 190.764 465.984C191.244 465.696 191.748 465.336 192.228 464.928C192.732 465.444 193.344 465.9 194.064 466.272C192.612 466.704 190.98 466.956 189.396 467.076C189.54 467.28 189.696 467.652 189.744 467.88C191.568 467.7 193.464 467.352 195.096 466.74C196.536 467.304 198.228 467.64 200.04 467.784C200.16 467.556 200.364 467.196 200.556 466.992C198.96 466.896 197.46 466.668 196.152 466.296C197.256 465.756 198.192 465.06 198.816 464.184L198.252 463.812L198.108 463.86L193.296 463.86C193.5 463.62 193.692 463.368 193.86 463.116L193.788 463.092L198.972 463.092L198.972 459.552L191.556 459.552ZM192.204 456.84C191.64 458.028 190.608 459.132 189.576 459.84C189.756 460.008 190.032 460.38 190.152 460.56C190.776 460.08 191.412 459.456 191.952 458.76L199.824 458.76L199.824 458.004L192.504 458.004C192.696 457.704 192.876 457.404 193.02 457.092L192.204 456.84ZM197.4 464.556C196.8 465.108 195.996 465.564 195.06 465.924C194.16 465.564 193.404 465.108 192.84 464.556L197.4 464.556ZM202.884 468.204C204.144 467.76 204.96 466.776 204.96 465.48C204.96 464.64 204.6 464.1 203.94 464.1C203.448 464.1 203.028 464.4 203.028 464.964C203.028 465.528 203.436 465.816 203.928 465.816L204.132 465.792C204.072 466.62 203.544 467.184 202.62 467.568L202.884 468.204ZM214.284 457.656C214.908 458.22 215.7 459.012 216.072 459.516L216.684 458.88C216.312 458.388 215.496 457.644 214.86 457.104L214.284 457.656ZM213.504 460.608L213.504 461.472L215.304 461.472L215.304 465.864C215.304 466.392 214.944 466.752 214.728 466.896C214.884 467.076 215.124 467.448 215.208 467.664C215.376 467.412 215.688 467.16 217.716 465.6C217.62 465.42 217.476 465.072 217.416 464.832L216.168 465.768L216.168 460.608L213.504 460.608ZM218.928 464.376L222.696 464.376L222.696 465.36L218.928 465.36L218.928 464.376ZM218.928 463.74L218.928 462.816L222.696 462.816L222.696 463.74L218.928 463.74ZM220.368 456.84L220.368 457.776L217.584 457.776L217.584 458.472L220.368 458.472L220.368 459.24L217.884 459.24L217.884 459.9L220.368 459.9L220.368 460.728L217.224 460.728L217.224 461.424L224.52 461.424L224.52 460.728L221.256 460.728L221.256 459.9L223.788 459.9L223.788 459.24L221.256 459.24L221.256 458.472L224.148 458.472L224.148 457.776L221.256 457.776L221.256 456.84L220.368 456.84ZM218.088 462.12L218.088 467.868L218.928 467.868L218.928 466.02L222.696 466.02L222.696 466.86C222.696 467.004 222.636 467.052 222.48 467.064C222.312 467.076 221.736 467.076 221.124 467.052C221.244 467.268 221.352 467.604 221.388 467.832C222.24 467.832 222.792 467.832 223.116 467.688C223.464 467.556 223.56 467.316 223.56 466.872L223.56 462.12L218.088 462.12ZM226.08 457.56C226.716 458.148 227.496 458.976 227.868 459.492L228.504 458.88C228.12 458.376 227.316 457.584 226.68 457.032L226.08 457.56ZM230.688 456.84L230.688 457.896L228.972 457.896L228.972 458.628L230.688 458.628L230.688 460.128L232.188 460.128L232.188 460.704L229.536 460.704L229.536 462.984L232.188 462.984L232.188 463.728L229.44 463.728L229.44 464.412L232.188 464.412L232.188 465.288L229.74 465.288L229.74 465.96L232.188 465.96L232.188 466.896L228.732 466.896L228.732 467.58L236.508 467.58L236.508 466.896L233.076 466.896L233.076 465.96L235.752 465.96L235.752 465.288L233.076 465.288L233.076 464.412L235.968 464.412L235.968 463.728L233.076 463.728L233.076 462.984L235.836 462.984L235.836 460.704L233.076 460.704L233.076 460.128L234.732 460.128L234.732 458.628L236.496 458.628L236.496 457.896L234.732 457.896L234.732 456.84L233.856 456.84L233.856 457.896L231.528 457.896L231.528 456.84L230.688 456.84ZM233.856 458.628L233.856 459.492L231.528 459.492L231.528 458.628L233.856 458.628ZM230.376 461.328L232.188 461.328L232.188 462.348L230.376 462.348L230.376 461.328ZM233.076 461.328L234.96 461.328L234.96 462.348L233.076 462.348L233.076 461.328ZM225.516 460.632L225.516 461.46L227.124 461.46L227.124 465.744C227.124 466.332 226.74 466.752 226.524 466.92C226.68 467.064 226.932 467.4 227.028 467.592C227.196 467.352 227.496 467.112 229.38 465.552C229.272 465.396 229.116 465.072 229.044 464.844L228.024 465.66L228.024 460.632L225.516 460.632ZM239.064 456.84L239.064 467.904L239.904 467.904L239.904 456.84L239.064 456.84ZM237.9 459.156C237.828 460.08 237.648 461.412 237.408 462.252L238.08 462.456C238.332 461.544 238.512 460.152 238.548 459.24L237.9 459.156ZM240.108 459.024C240.384 459.84 240.66 460.908 240.768 461.544L241.464 461.256C241.356 460.656 241.056 459.612 240.768 458.808L240.108 459.024ZM245.544 466.188C246.36 466.68 247.392 467.4 247.896 467.88L248.508 467.256C247.98 466.788 246.912 466.092 246.108 465.636L245.544 466.188ZM243.36 465.636C242.796 466.188 241.656 466.848 240.756 467.256C240.948 467.424 241.2 467.7 241.332 467.88C242.232 467.448 243.372 466.776 244.14 466.164L243.36 465.636ZM244.5 456.816L244.344 457.896L241.296 457.896L241.296 458.64L244.212 458.64L244.032 459.492L242.04 459.492L242.04 464.832L240.912 464.832L240.912 465.624L248.664 465.624L248.664 464.832L247.452 464.832L247.452 459.492L244.836 459.492L245.064 458.64L248.352 458.64L248.352 457.896L245.244 457.896L245.46 456.876L244.5 456.816ZM242.844 464.832L242.844 464.028L246.612 464.028L246.612 464.832L242.844 464.832ZM242.844 461.436L246.612 461.436L246.612 462.144L242.844 462.144L242.844 461.436ZM242.844 460.872L242.844 460.14L246.612 460.14L246.612 460.872L242.844 460.872ZM242.844 462.72L246.612 462.72L246.612 463.452L242.844 463.452L242.844 462.72ZM255.324 458.016L258.096 458.016L258.096 459.276L255.324 459.276L255.324 458.016ZM254.532 457.332L254.532 459.96L258.924 459.96L258.924 457.332L254.532 457.332ZM254.04 461.16L255.624 461.16L255.624 462.528L254.04 462.528L254.04 461.16ZM257.76 461.16L259.392 461.16L259.392 462.528L257.76 462.528L257.76 461.16ZM250.908 456.84L250.908 459.264L249.552 459.264L249.552 460.104L250.908 460.104L250.908 462.732C250.356 462.924 249.852 463.092 249.444 463.224L249.672 464.088L250.908 463.62L250.908 466.824C250.908 466.968 250.872 467.004 250.74 467.004C250.632 467.004 250.272 467.016 249.864 467.004C249.984 467.232 250.092 467.604 250.128 467.808C250.74 467.808 251.136 467.784 251.4 467.652C251.664 467.508 251.76 467.28 251.76 466.824L251.76 463.296L252.948 462.84L252.804 462.036L251.76 462.42L251.76 460.104L252.876 460.104L252.876 459.264L251.76 459.264L251.76 456.84L250.908 456.84ZM256.272 463.2L256.272 464.112L253.104 464.112L253.104 464.868L255.708 464.868C254.88 465.756 253.572 466.524 252.324 466.908C252.504 467.076 252.768 467.4 252.888 467.616C254.112 467.172 255.396 466.344 256.272 465.36L256.272 467.892L257.124 467.892L257.124 465.3C257.88 466.212 258.996 467.064 260.016 467.508C260.16 467.292 260.412 466.98 260.604 466.812C259.548 466.44 258.396 465.684 257.664 464.868L260.412 464.868L260.412 464.112L257.124 464.112L257.124 463.2L260.148 463.2L260.148 460.5L257.04 460.5L257.04 463.2L256.356 463.2L256.356 460.5L253.332 460.5L253.332 463.2L256.272 463.2ZM267.312 456.984C266.712 458.748 265.74 460.488 264.66 461.616C264.864 461.76 265.212 462.072 265.356 462.228C265.968 461.556 266.556 460.68 267.072 459.708L267.9 459.708L267.9 467.868L268.812 467.868L268.812 464.952L272.424 464.952L272.424 464.1L268.812 464.1L268.812 462.276L272.268 462.276L272.268 461.448L268.812 461.448L268.812 459.708L272.544 459.708L272.544 458.844L267.504 458.844C267.756 458.316 267.984 457.764 268.176 457.212L267.312 456.984ZM264.42 456.888C263.748 458.712 262.62 460.512 261.432 461.676C261.6 461.88 261.864 462.372 261.96 462.576C262.368 462.156 262.764 461.676 263.148 461.148L263.148 467.856L264.048 467.856L264.048 459.732C264.516 458.916 264.948 458.028 265.284 457.152L264.42 456.888Z"></path></g><rect  x="60" y="485" width="120" height="40" rx="20"    fill="#E8F0F8" ></rect><g ><path     fill="#7BA8C9"  d="M101.212 504.686L101.212 509.992L99.56 509.992L99.56 510.972L101.212 510.972L101.212 514.388L102.248 514.388L102.248 510.972L109.738 510.972L109.738 513.058C109.738 513.296 109.654 513.366 109.388 513.38C109.15 513.394 108.24 513.408 107.316 513.366C107.484 513.646 107.638 514.094 107.708 514.374C108.912 514.374 109.696 514.36 110.158 514.192C110.62 514.024 110.774 513.716 110.774 513.072L110.774 510.972L112.468 510.972L112.468 509.992L110.774 509.992L110.774 504.686L106.476 504.686L106.476 503.314L111.95 503.314L111.95 502.334L100.078 502.334L100.078 503.314L105.412 503.314L105.412 504.686L101.212 504.686ZM109.738 509.992L106.476 509.992L106.476 508.256L109.738 508.256L109.738 509.992ZM102.248 509.992L102.248 508.256L105.412 508.256L105.412 509.992L102.248 509.992ZM109.738 507.332L106.476 507.332L106.476 505.652L109.738 505.652L109.738 507.332ZM102.248 507.332L102.248 505.652L105.412 505.652L105.412 507.332L102.248 507.332ZM116.962 510.44L116.962 512.68C116.962 513.772 117.354 514.066 118.894 514.066C119.202 514.066 121.47 514.066 121.806 514.066C123.094 514.066 123.402 513.632 123.542 511.868C123.248 511.812 122.828 511.658 122.59 511.476C122.52 512.918 122.422 513.1 121.736 513.1C121.218 513.1 119.328 513.1 118.95 513.1C118.138 513.1 117.984 513.044 117.984 512.666L117.984 510.44L116.962 510.44ZM118.796 509.964C119.454 510.608 120.294 511.504 120.714 512.036L121.484 511.406C121.05 510.888 120.182 510.02 119.524 509.418L118.796 509.964ZM123.738 510.426C124.298 511.35 125.026 512.582 125.362 513.31L126.342 512.834C125.992 512.12 125.236 510.902 124.662 510.02L123.738 510.426ZM114.974 510.272C114.708 511.21 114.218 512.414 113.644 513.156L114.568 513.632C115.142 512.848 115.604 511.588 115.884 510.636L114.974 510.272ZM121.134 505.204L124.634 505.204L124.634 506.52L121.134 506.52L121.134 505.204ZM121.134 507.346L124.634 507.346L124.634 508.676L121.134 508.676L121.134 507.346ZM121.134 503.09L124.634 503.09L124.634 504.378L121.134 504.378L121.134 503.09ZM120.168 502.222L120.168 509.53L125.642 509.53L125.642 502.222L120.168 502.222ZM116.332 501.508L116.332 503.58L113.77 503.58L113.77 504.49L116.15 504.49C115.534 505.918 114.484 507.374 113.448 508.102C113.672 508.284 113.98 508.62 114.148 508.858C114.918 508.2 115.716 507.136 116.332 505.974L116.332 509.67L117.34 509.67L117.34 506.268C117.956 506.772 118.74 507.458 119.104 507.822L119.678 506.968C119.314 506.674 117.9 505.638 117.34 505.274L117.34 504.49L119.566 504.49L119.566 503.58L117.34 503.58L117.34 501.508L116.332 501.508ZM130.962 510.44L130.962 512.68C130.962 513.772 131.354 514.066 132.894 514.066C133.202 514.066 135.47 514.066 135.806 514.066C137.094 514.066 137.402 513.632 137.542 511.868C137.248 511.812 136.828 511.658 136.59 511.476C136.52 512.918 136.422 513.1 135.736 513.1C135.218 513.1 133.328 513.1 132.95 513.1C132.138 513.1 131.984 513.044 131.984 512.666L131.984 510.44L130.962 510.44ZM132.796 509.964C133.454 510.608 134.294 511.504 134.714 512.036L135.484 511.406C135.05 510.888 134.182 510.02 133.524 509.418L132.796 509.964ZM137.738 510.426C138.298 511.35 139.026 512.582 139.362 513.31L140.342 512.834C139.992 512.12 139.236 510.902 138.662 510.02L137.738 510.426ZM128.974 510.272C128.708 511.21 128.218 512.414 127.644 513.156L128.568 513.632C129.142 512.848 129.604 511.588 129.884 510.636L128.974 510.272ZM135.134 505.204L138.634 505.204L138.634 506.52L135.134 506.52L135.134 505.204ZM135.134 507.346L138.634 507.346L138.634 508.676L135.134 508.676L135.134 507.346ZM135.134 503.09L138.634 503.09L138.634 504.378L135.134 504.378L135.134 503.09ZM134.168 502.222L134.168 509.53L139.642 509.53L139.642 502.222L134.168 502.222ZM130.332 501.508L130.332 503.58L127.77 503.58L127.77 504.49L130.15 504.49C129.534 505.918 128.484 507.374 127.448 508.102C127.672 508.284 127.98 508.62 128.148 508.858C128.918 508.2 129.716 507.136 130.332 505.974L130.332 509.67L131.34 509.67L131.34 506.268C131.956 506.772 132.74 507.458 133.104 507.822L133.678 506.968C133.314 506.674 131.9 505.638 131.34 505.274L131.34 504.49L133.566 504.49L133.566 503.58L131.34 503.58L131.34 501.508L130.332 501.508Z"></path></g><rect  x="210.000244140625" y="485" width="120" height="40" rx="20"    fill="#FF6B6B" ></rect><g ><path     fill="#FFFFFF"  d="M249.574 501.382C249 503.048 247.992 504.602 246.802 505.596C247.04 505.834 247.418 506.366 247.558 506.618C247.768 506.436 247.964 506.24 248.16 506.03L248.16 508.634C248.16 510.23 248.02 512.288 246.718 513.73C247.012 513.856 247.53 514.22 247.754 514.43C248.594 513.506 249.014 512.274 249.21 511.056L250.932 511.056L250.932 513.856L252.108 513.856L252.108 511.056L253.788 511.056L253.788 512.946C253.788 513.114 253.732 513.156 253.578 513.17C253.438 513.17 252.948 513.17 252.43 513.156C252.584 513.478 252.71 513.968 252.738 514.304C253.578 514.304 254.18 514.29 254.558 514.094C254.936 513.898 255.048 513.576 255.048 512.96L255.048 505.008L252.654 505.008C253.13 504.406 253.62 503.706 253.956 503.104L253.102 502.53L252.892 502.586L250.372 502.586C250.498 502.292 250.61 501.998 250.722 501.69L249.574 501.382ZM250.932 509.908L249.35 509.908C249.378 509.474 249.392 509.04 249.392 508.648L249.392 508.494L250.932 508.494L250.932 509.908ZM252.108 509.908L252.108 508.494L253.788 508.494L253.788 509.908L252.108 509.908ZM250.932 507.458L249.392 507.458L249.392 506.142L250.932 506.142L250.932 507.458ZM252.108 507.458L252.108 506.142L253.788 506.142L253.788 507.458L252.108 507.458ZM249.07 505.008L248.986 505.008C249.294 504.588 249.574 504.14 249.826 503.678L252.164 503.678C251.898 504.14 251.576 504.63 251.268 505.008L249.07 505.008ZM242.728 502.11L242.728 503.314L244.31 503.314C243.96 505.316 243.358 507.206 242.42 508.466C242.616 508.83 242.896 509.628 242.952 509.964C243.19 509.67 243.4 509.348 243.61 508.998L243.61 513.772L244.73 513.772L244.73 512.68L247.138 512.68L247.138 506.45L244.744 506.45C245.08 505.456 245.346 504.392 245.556 503.314L247.53 503.314L247.53 502.11L242.728 502.11ZM244.73 507.612L246.032 507.612L246.032 511.504L244.73 511.504L244.73 507.612ZM257.834 502.474C258.548 503.132 259.528 504.056 260.004 504.616L260.914 503.65C260.424 503.118 259.416 502.25 258.716 501.634L257.834 502.474ZM264.582 501.452C264.554 506.114 264.652 510.916 261.11 513.45C261.474 513.674 261.894 514.08 262.118 514.416C263.882 513.086 264.82 511.238 265.324 509.11C265.87 511 266.836 513.128 268.67 514.416C268.88 514.08 269.258 513.674 269.622 513.422C266.542 511.364 265.996 507.01 265.814 505.624C265.912 504.252 265.926 502.852 265.94 501.452L264.582 501.452ZM256.602 505.778L256.602 507.052L258.856 507.052L258.856 511.616C258.856 512.316 258.366 512.82 258.058 513.044C258.282 513.254 258.632 513.716 258.758 513.996C258.982 513.702 259.388 513.366 262.048 511.476C261.922 511.21 261.74 510.706 261.656 510.356L260.144 511.378L260.144 505.778L256.602 505.778ZM271.302 502.544C272.184 502.978 273.36 503.664 273.934 504.126L274.704 503.034C274.102 502.6 272.898 501.97 272.044 501.592L271.302 502.544ZM270.546 506.45C271.414 506.87 272.59 507.528 273.15 507.962L273.892 506.856C273.29 506.436 272.114 505.834 271.26 505.456L270.546 506.45ZM270.938 513.38L272.058 514.276C272.898 512.946 273.836 511.266 274.578 509.796L273.598 508.914C272.786 510.524 271.68 512.33 270.938 513.38ZM277.658 501.788C278.106 502.516 278.568 503.468 278.75 504.07L274.76 504.07L274.76 505.33L278.33 505.33L278.33 508.186L275.32 508.186L275.32 509.446L278.33 509.446L278.33 512.736L274.326 512.736L274.326 513.996L283.524 513.996L283.524 512.736L279.702 512.736L279.702 509.446L282.67 509.446L282.67 508.186L279.702 508.186L279.702 505.33L283.174 505.33L283.174 504.07L278.792 504.07L280.038 503.594C279.842 502.992 279.338 502.054 278.876 501.354L277.658 501.788ZM290.062 502.376C290.58 503.188 291.112 504.28 291.308 504.966L292.414 504.392C292.204 503.706 291.63 502.67 291.084 501.886L290.062 502.376ZM296.25 501.788C295.942 502.614 295.354 503.748 294.906 504.448L295.928 504.91C296.39 504.238 296.95 503.202 297.412 502.278L296.25 501.788ZM284.826 508.326L284.826 509.516L286.73 509.516L286.73 512.022C286.73 512.638 286.31 513.03 286.044 513.184C286.254 513.45 286.534 513.982 286.632 514.29C286.87 514.052 287.29 513.8 289.712 512.498C289.628 512.218 289.516 511.7 289.488 511.35L287.934 512.134L287.934 509.516L289.81 509.516L289.81 508.326L287.934 508.326L287.934 506.66L289.516 506.66L289.516 505.47L285.498 505.47C285.792 505.12 286.086 504.714 286.352 504.28L289.754 504.28L289.754 503.034L287.038 503.034C287.22 502.628 287.402 502.208 287.542 501.802L286.408 501.452C285.988 502.726 285.246 503.93 284.42 504.742C284.63 505.022 284.938 505.694 285.036 505.96C285.19 505.82 285.33 505.666 285.47 505.498L285.47 506.66L286.73 506.66L286.73 508.326L284.826 508.326ZM291.462 509.04L295.788 509.04L295.788 510.356L291.462 510.356L291.462 509.04ZM291.462 507.906L291.462 506.632L295.788 506.632L295.788 507.906L291.462 507.906ZM293.058 501.396L293.058 505.386L290.272 505.386L290.272 514.416L291.462 514.416L291.462 511.49L295.788 511.49L295.788 512.876C295.788 513.058 295.718 513.114 295.522 513.114C295.326 513.128 294.626 513.128 293.912 513.114C294.094 513.436 294.248 513.982 294.29 514.318C295.34 514.318 295.998 514.304 296.432 514.094C296.866 513.884 296.978 513.52 296.978 512.89L296.978 505.372L295.788 505.386L294.276 505.386L294.276 501.396L293.058 501.396Z"></path></g></g><defs><clipPath id="clip-path-oMxnZNAkvvGcwISICnQNv"><path d="M0 844L390 844L390 0L0 0L0 844Z" fill="white"/></clipPath></defs></svg>