<svg xmlns="http://www.w3.org/2000/svg" xmlns:xlink="http://www.w3.org/1999/xlink" width="390.00006103515625" height="844" viewBox="0 0 390.00006103515625 844" fill="none"><g  clip-path="url(#clip-path-v30aBBSsdjSkPmuLE3Plo)"><rect x="0" y="0" width="390" height="54"   fill="#E8F4FD" ></rect><g ><path     fill="#333333"  d="M33.66 38.61C35.775 38.61 37.755 36.84 37.755 32.505C37.755 28.845 36.045 27.15 33.93 27.15C32.145 27.15 30.63 28.59 30.63 30.78C30.63 33.09 31.89 34.26 33.735 34.26C34.575 34.26 35.505 33.765 36.135 32.985C36.045 36.105 34.92 37.17 33.57 37.17C32.88 37.17 32.205 36.855 31.77 36.345L30.825 37.425C31.47 38.085 32.37 38.61 33.66 38.61ZM36.12 31.65C35.49 32.61 34.71 33 34.035 33C32.88 33 32.25 32.175 32.25 30.78C32.25 29.34 33 28.485 33.96 28.485C35.145 28.485 35.955 29.475 36.12 31.65ZM40.785 32.7C41.445 32.7 41.955 32.205 41.955 31.5C41.955 30.78 41.445 30.27 40.785 30.27C40.14 30.27 39.63 30.78 39.63 31.5C39.63 32.205 40.14 32.7 40.785 32.7ZM40.785 38.61C41.445 38.61 41.955 38.085 41.955 37.38C41.955 36.675 41.445 36.165 40.785 36.165C40.14 36.165 39.63 36.675 39.63 37.38C39.63 38.085 40.14 38.61 40.785 38.61ZM48.105 38.4L49.725 38.4L49.725 35.43L51.12 35.43L51.12 34.08L49.725 34.08L49.725 27.345L47.715 27.345L43.32 34.275L43.32 35.43L48.105 35.43L48.105 38.4ZM48.105 34.08L45.075 34.08L47.235 30.765C47.55 30.195 47.85 29.625 48.12 29.055L48.18 29.055C48.15 29.67 48.105 30.6 48.105 31.2L48.105 34.08ZM52.845 38.4L59.16 38.4L59.16 36.975L57.015 36.975L57.015 27.345L55.71 27.345C55.065 27.75 54.33 28.02 53.295 28.2L53.295 29.295L55.275 29.295L55.275 36.975L52.845 36.975L52.845 38.4Z"></path></g><g ><path     fill="#333333"  d="M341.5 40.2L353.5 40.2L353.5 25.2L341.5 25.2L341.5 40.2ZM347.5 32.085L342.73 25.95L352.27 25.95L347.5 32.085ZM347.98 32.7L352.75 26.565L352.75 38.835L347.98 32.7ZM342.73 39.45L347.5 33.315L352.27 39.45L342.73 39.45ZM342.25 26.565L347.02 32.7L342.25 38.835L342.25 26.565ZM356.5 40.2L368.5 40.2L368.5 25.2L356.5 25.2L356.5 40.2ZM362.5 32.085L357.73 25.95L367.27 25.95L362.5 32.085ZM362.98 32.7L367.75 26.565L367.75 38.835L362.98 32.7ZM357.73 39.45L362.5 33.315L367.27 39.45L357.73 39.45ZM357.25 26.565L362.02 32.7L357.25 38.835L357.25 26.565ZM371.5 40.2L383.5 40.2L383.5 25.2L371.5 25.2L371.5 40.2ZM377.5 32.085L372.73 25.95L382.27 25.95L377.5 32.085ZM377.98 32.7L382.75 26.565L382.75 38.835L377.98 32.7ZM372.73 39.45L377.5 33.315L382.27 39.45L372.73 39.45ZM372.25 26.565L377.02 32.7L372.25 38.835L372.25 26.565Z"></path></g><rect x="0" y="54" width="390" height="60"   fill="#E8F4FD" ></rect><g ></g><g ><path     fill="#2C5F8A"  d="M142.098 83.11C143.142 83.992 144.366 85.252 144.888 86.134L146.004 85.288C145.428 84.424 144.186 83.2 143.124 82.372L142.098 83.11ZM149.028 82.3C148.596 83.902 147.84 85.486 146.868 86.548C147.192 86.71 147.768 87.07 148.02 87.268C148.434 86.764 148.83 86.134 149.19 85.432L151.854 85.432L151.854 88.06L146.76 88.06L146.76 89.266L150.018 89.266C149.712 91.624 148.974 93.334 146.274 94.288C146.562 94.54 146.958 95.044 147.102 95.386C150.126 94.198 151.026 92.128 151.368 89.266L153.222 89.266L153.222 93.442C153.222 94.81 153.528 95.206 154.878 95.206C155.148 95.206 156.372 95.206 156.642 95.206C157.776 95.206 158.136 94.63 158.262 92.344C157.884 92.254 157.326 92.056 157.074 91.804C157.02 93.694 156.948 93.946 156.498 93.946C156.246 93.946 155.256 93.946 155.076 93.946C154.608 93.946 154.554 93.892 154.554 93.442L154.554 89.266L158.118 89.266L158.118 88.06L153.204 88.06L153.204 85.432L157.362 85.432L157.362 84.262L153.204 84.262L153.204 81.832L151.854 81.832L151.854 84.262L149.73 84.262C149.964 83.722 150.162 83.146 150.324 82.57L149.028 82.3ZM145.518 88.672L142.008 88.672L142.008 89.932L144.222 89.932L144.222 95.386C143.448 95.746 142.62 96.394 141.81 97.15L142.71 98.32C143.736 97.204 144.708 96.268 145.374 96.268C145.77 96.268 146.328 96.79 147.03 97.222C148.218 97.924 149.712 98.104 151.8 98.104C153.564 98.104 156.606 98.014 158.01 97.924C158.028 97.528 158.244 96.862 158.388 96.52C156.606 96.7 153.87 96.826 151.818 96.826C149.91 96.826 148.398 96.718 147.282 96.052C146.418 95.548 146.004 95.116 145.518 95.08L145.518 88.672ZM162.186 81.778L162.186 85.378L159.828 85.378L159.828 86.638L162.186 86.638L162.186 90.472C161.232 90.76 160.35 91.012 159.648 91.21L159.99 92.524L162.186 91.822L162.186 96.664C162.186 96.898 162.096 96.97 161.88 96.988C161.664 96.988 160.962 97.006 160.188 96.97C160.368 97.348 160.53 97.906 160.584 98.248C161.736 98.248 162.438 98.23 162.888 97.996C163.338 97.78 163.5 97.402 163.5 96.664L163.5 91.39L165.588 90.706L165.408 89.464L163.5 90.058L163.5 86.638L165.642 86.638L165.642 85.378L163.5 85.378L163.5 81.778L162.186 81.778ZM173.472 83.938C172.824 84.874 171.942 85.702 170.916 86.422C169.98 85.702 169.188 84.874 168.576 83.938L173.472 83.938ZM166.128 82.714L166.128 83.938L167.28 83.938C167.946 85.144 168.828 86.188 169.872 87.088C168.468 87.934 166.884 88.564 165.354 88.942C165.606 89.212 165.93 89.716 166.074 90.04C167.712 89.554 169.386 88.834 170.88 87.88C172.284 88.852 173.922 89.59 175.704 90.058C175.884 89.698 176.262 89.194 176.532 88.924C174.84 88.564 173.292 87.952 171.96 87.124C173.382 86.044 174.588 84.694 175.362 83.11L174.552 82.66L174.318 82.714L166.128 82.714ZM170.16 89.464L170.16 91.048L166.506 91.048L166.506 92.272L170.16 92.272L170.16 94.126L165.588 94.126L165.588 95.35L170.16 95.35L170.16 98.356L171.51 98.356L171.51 95.35L176.226 95.35L176.226 94.126L171.51 94.126L171.51 92.272L174.93 92.272L174.93 91.048L171.51 91.048L171.51 89.464L170.16 89.464ZM179.826 97.924C180.51 97.672 181.518 97.6 191.058 96.79C191.472 97.33 191.832 97.852 192.084 98.302L193.29 97.564C192.498 96.214 190.788 94.27 189.168 92.83L188.034 93.442C188.736 94.09 189.456 94.846 190.104 95.602L181.914 96.232C183.192 95.044 184.47 93.604 185.586 92.128L193.524 92.128L193.524 90.814L178.602 90.814L178.602 92.128L183.75 92.128C182.58 93.73 181.212 95.152 180.726 95.584C180.168 96.106 179.754 96.448 179.358 96.538C179.52 96.898 179.754 97.618 179.826 97.924ZM186.072 81.76C184.452 84.172 181.284 86.458 177.756 87.952C178.08 88.204 178.548 88.78 178.746 89.122C179.79 88.636 180.798 88.096 181.752 87.502L181.752 88.6L190.338 88.6L190.338 87.34L181.986 87.34C183.534 86.332 184.92 85.198 186.054 83.956C187.134 85.072 188.646 86.296 190.338 87.34C191.31 87.952 192.354 88.492 193.38 88.906C193.596 88.546 194.046 87.988 194.334 87.718C191.418 86.71 188.484 84.748 186.828 83.038L187.368 82.318L186.072 81.76ZM204.756 82.606C205.476 83.812 206.232 85.414 206.52 86.404L207.744 85.846C207.456 84.856 206.646 83.308 205.89 82.12L204.756 82.606ZM197.034 83.002C197.844 83.848 198.816 85.036 199.284 85.792L200.31 84.946C199.842 84.208 198.834 83.092 198.006 82.264L197.034 83.002ZM209.976 82.876C209.382 86.62 208.446 89.986 206.52 92.686C204.702 90.166 203.604 86.908 202.956 83.092L201.678 83.308C202.452 87.574 203.622 91.12 205.602 93.82C204.342 95.242 202.704 96.43 200.598 97.33C200.85 97.618 201.228 98.122 201.408 98.446C203.496 97.51 205.152 96.286 206.466 94.864C207.816 96.376 209.508 97.546 211.596 98.374C211.812 98.014 212.244 97.474 212.568 97.204C210.444 96.448 208.752 95.278 207.384 93.766C209.562 90.85 210.642 87.196 211.362 83.092L209.976 82.876ZM195.828 87.394L195.828 88.708L198.366 88.708L198.366 95.062C198.366 95.998 197.88 96.61 197.592 96.898C197.826 97.096 198.222 97.564 198.366 97.852C198.654 97.492 199.122 97.132 202.29 94.882C202.146 94.612 201.948 94.09 201.84 93.73L199.68 95.224L199.68 87.394L195.828 87.394ZM226.428 82.084C225.996 82.84 225.222 83.938 224.61 84.64L225.708 85.054C226.356 84.406 227.166 83.452 227.832 82.534L226.428 82.084ZM216.258 82.678C217.014 83.416 217.824 84.478 218.166 85.18L219.372 84.586C219.012 83.884 218.166 82.858 217.392 82.156L216.258 82.678ZM221.28 81.778L221.28 85.27L214.296 85.27L214.296 86.512L220.2 86.512C218.724 88.024 216.33 89.284 213.954 89.842C214.242 90.112 214.62 90.616 214.818 90.958C217.266 90.238 219.696 88.816 221.28 87.034L221.28 90.058L222.63 90.058L222.63 87.358C224.916 88.492 227.616 89.968 229.056 90.904L229.722 89.788C228.282 88.924 225.708 87.592 223.476 86.512L229.794 86.512L229.794 85.27L222.63 85.27L222.63 81.778L221.28 81.778ZM221.334 90.454C221.244 91.156 221.136 91.804 220.974 92.398L214.206 92.398L214.206 93.658L220.488 93.658C219.588 95.35 217.77 96.466 213.828 97.078C214.08 97.384 214.422 97.96 214.53 98.32C219.012 97.528 221.01 96.034 221.964 93.784C223.368 96.322 225.852 97.762 229.488 98.32C229.65 97.942 230.028 97.366 230.334 97.06C227.058 96.682 224.646 95.548 223.332 93.658L229.848 93.658L229.848 92.398L222.414 92.398C222.558 91.786 222.666 91.138 222.756 90.454L221.334 90.454ZM242.43 82.786L242.43 88.816L243.672 88.816L243.672 82.786L242.43 82.786ZM245.796 81.868L245.796 89.914C245.796 90.148 245.724 90.22 245.436 90.238C245.166 90.256 244.266 90.256 243.24 90.22C243.438 90.58 243.618 91.102 243.69 91.462C244.968 91.462 245.85 91.444 246.39 91.228C246.93 91.03 247.074 90.688 247.074 89.932L247.074 81.868L245.796 81.868ZM237.984 83.686L237.984 86.17L235.752 86.17L235.752 86.062L235.752 83.686L237.984 83.686ZM232.206 86.17L232.206 87.376L234.402 87.376C234.204 88.582 233.61 89.806 232.062 90.76C232.314 90.94 232.764 91.444 232.944 91.696C234.78 90.562 235.464 88.942 235.662 87.376L237.984 87.376L237.984 91.246L239.262 91.246L239.262 87.376L241.314 87.376L241.314 86.17L239.262 86.17L239.262 83.686L240.936 83.686L240.936 82.498L232.8 82.498L232.8 83.686L234.51 83.686L234.51 86.044L234.51 86.17L232.206 86.17ZM239.406 90.904L239.406 92.902L233.718 92.902L233.718 94.144L239.406 94.144L239.406 96.43L231.846 96.43L231.846 97.69L248.136 97.69L248.136 96.43L240.792 96.43L240.792 94.144L246.264 94.144L246.264 92.902L240.792 92.902L240.792 90.904L239.406 90.904Z"></path></g><g ><path     fill="#7BA8C9"  d="M40.793 142.135C41.547 142.772 42.431 143.682 42.808 144.319L43.614 143.708C43.198 143.084 42.301 142.2 41.534 141.602L40.793 142.135ZM45.798 141.55C45.486 142.707 44.94 143.851 44.238 144.618C44.472 144.735 44.888 144.995 45.07 145.138C45.369 144.774 45.655 144.319 45.915 143.812L47.839 143.812L47.839 145.71L44.16 145.71L44.16 146.581L46.513 146.581C46.292 148.284 45.759 149.519 43.809 150.208C44.017 150.39 44.303 150.754 44.407 151.001C46.591 150.143 47.241 148.648 47.488 146.581L48.827 146.581L48.827 149.597C48.827 150.585 49.048 150.871 50.023 150.871C50.218 150.871 51.102 150.871 51.297 150.871C52.116 150.871 52.376 150.455 52.467 148.804C52.194 148.739 51.791 148.596 51.609 148.414C51.57 149.779 51.518 149.961 51.193 149.961C51.011 149.961 50.296 149.961 50.166 149.961C49.828 149.961 49.789 149.922 49.789 149.597L49.789 146.581L52.363 146.581L52.363 145.71L48.814 145.71L48.814 143.812L51.817 143.812L51.817 142.967L48.814 142.967L48.814 141.212L47.839 141.212L47.839 142.967L46.305 142.967C46.474 142.577 46.617 142.161 46.734 141.745L45.798 141.55ZM43.263 146.152L40.728 146.152L40.728 147.062L42.327 147.062L42.327 151.001C41.768 151.261 41.17 151.729 40.585 152.275L41.235 153.12C41.976 152.314 42.678 151.638 43.159 151.638C43.445 151.638 43.848 152.015 44.355 152.327C45.213 152.834 46.292 152.964 47.8 152.964C49.074 152.964 51.271 152.899 52.285 152.834C52.298 152.548 52.454 152.067 52.558 151.82C51.271 151.95 49.295 152.041 47.813 152.041C46.435 152.041 45.343 151.963 44.537 151.482C43.913 151.118 43.614 150.806 43.263 150.78L43.263 146.152ZM55.301 141.173L55.301 143.773L53.598 143.773L53.598 144.683L55.301 144.683L55.301 147.452C54.612 147.66 53.975 147.842 53.468 147.985L53.715 148.934L55.301 148.427L55.301 151.924C55.301 152.093 55.236 152.145 55.08 152.158C54.924 152.158 54.417 152.171 53.858 152.145C53.988 152.418 54.105 152.821 54.144 153.068C54.976 153.068 55.483 153.055 55.808 152.886C56.133 152.73 56.25 152.457 56.25 151.924L56.25 148.115L57.758 147.621L57.628 146.724L56.25 147.153L56.25 144.683L57.797 144.683L57.797 143.773L56.25 143.773L56.25 141.173L55.301 141.173ZM63.452 142.733C62.984 143.409 62.347 144.007 61.606 144.527C60.93 144.007 60.358 143.409 59.916 142.733L63.452 142.733ZM58.148 141.849L58.148 142.733L58.98 142.733C59.461 143.604 60.098 144.358 60.852 145.008C59.838 145.619 58.694 146.074 57.589 146.347C57.771 146.542 58.005 146.906 58.109 147.14C59.292 146.789 60.501 146.269 61.58 145.58C62.594 146.282 63.777 146.815 65.064 147.153C65.194 146.893 65.467 146.529 65.662 146.334C64.44 146.074 63.322 145.632 62.36 145.034C63.387 144.254 64.258 143.279 64.817 142.135L64.232 141.81L64.063 141.849L58.148 141.849ZM61.06 146.724L61.06 147.868L58.421 147.868L58.421 148.752L61.06 148.752L61.06 150.091L57.758 150.091L57.758 150.975L61.06 150.975L61.06 153.146L62.035 153.146L62.035 150.975L65.441 150.975L65.441 150.091L62.035 150.091L62.035 148.752L64.505 148.752L64.505 147.868L62.035 147.868L62.035 146.724L61.06 146.724ZM68.041 152.834C68.535 152.652 69.263 152.6 76.153 152.015C76.452 152.405 76.712 152.782 76.894 153.107L77.765 152.574C77.193 151.599 75.958 150.195 74.788 149.155L73.969 149.597C74.476 150.065 74.996 150.611 75.464 151.157L69.549 151.612C70.472 150.754 71.395 149.714 72.201 148.648L77.934 148.648L77.934 147.699L67.157 147.699L67.157 148.648L70.875 148.648C70.03 149.805 69.042 150.832 68.691 151.144C68.288 151.521 67.989 151.768 67.703 151.833C67.82 152.093 67.989 152.613 68.041 152.834ZM72.552 141.16C71.382 142.902 69.094 144.553 66.546 145.632C66.78 145.814 67.118 146.23 67.261 146.477C68.015 146.126 68.743 145.736 69.432 145.307L69.432 146.1L75.633 146.1L75.633 145.19L69.601 145.19C70.719 144.462 71.72 143.643 72.539 142.746C73.319 143.552 74.411 144.436 75.633 145.19C76.335 145.632 77.089 146.022 77.83 146.321C77.986 146.061 78.311 145.658 78.519 145.463C76.413 144.735 74.294 143.318 73.098 142.083L73.488 141.563L72.552 141.16ZM86.046 141.771C86.566 142.642 87.112 143.799 87.32 144.514L88.204 144.111C87.996 143.396 87.411 142.278 86.865 141.42L86.046 141.771ZM80.469 142.057C81.054 142.668 81.756 143.526 82.094 144.072L82.835 143.461C82.497 142.928 81.769 142.122 81.171 141.524L80.469 142.057ZM89.816 141.966C89.387 144.67 88.711 147.101 87.32 149.051C86.007 147.231 85.214 144.878 84.746 142.122L83.823 142.278C84.382 145.359 85.227 147.92 86.657 149.87C85.747 150.897 84.564 151.755 83.043 152.405C83.225 152.613 83.498 152.977 83.628 153.211C85.136 152.535 86.332 151.651 87.281 150.624C88.256 151.716 89.478 152.561 90.986 153.159C91.142 152.899 91.454 152.509 91.688 152.314C90.154 151.768 88.932 150.923 87.944 149.831C89.517 147.725 90.297 145.086 90.817 142.122L89.816 141.966ZM79.598 145.229L79.598 146.178L81.431 146.178L81.431 150.767C81.431 151.443 81.08 151.885 80.872 152.093C81.041 152.236 81.327 152.574 81.431 152.782C81.639 152.522 81.977 152.262 84.265 150.637C84.161 150.442 84.018 150.065 83.94 149.805L82.38 150.884L82.38 145.229L79.598 145.229ZM101.698 141.394C101.386 141.94 100.827 142.733 100.385 143.24L101.178 143.539C101.646 143.071 102.231 142.382 102.712 141.719L101.698 141.394ZM94.353 141.823C94.899 142.356 95.484 143.123 95.731 143.63L96.602 143.201C96.342 142.694 95.731 141.953 95.172 141.446L94.353 141.823ZM97.98 141.173L97.98 143.695L92.936 143.695L92.936 144.592L97.2 144.592C96.134 145.684 94.405 146.594 92.689 146.997C92.897 147.192 93.17 147.556 93.313 147.803C95.081 147.283 96.836 146.256 97.98 144.969L97.98 147.153L98.955 147.153L98.955 145.203C100.606 146.022 102.556 147.088 103.596 147.764L104.077 146.958C103.037 146.334 101.178 145.372 99.566 144.592L104.129 144.592L104.129 143.695L98.955 143.695L98.955 141.173L97.98 141.173ZM98.019 147.439C97.954 147.946 97.876 148.414 97.759 148.843L92.871 148.843L92.871 149.753L97.408 149.753C96.758 150.975 95.445 151.781 92.598 152.223C92.78 152.444 93.027 152.86 93.105 153.12C96.342 152.548 97.785 151.469 98.474 149.844C99.488 151.677 101.282 152.717 103.908 153.12C104.025 152.847 104.298 152.431 104.519 152.21C102.153 151.937 100.411 151.118 99.462 149.753L104.168 149.753L104.168 148.843L98.799 148.843C98.903 148.401 98.981 147.933 99.046 147.439L98.019 147.439ZM113.255 141.901L113.255 146.256L114.152 146.256L114.152 141.901L113.255 141.901ZM115.686 141.238L115.686 147.049C115.686 147.218 115.634 147.27 115.426 147.283C115.231 147.296 114.581 147.296 113.84 147.27C113.983 147.53 114.113 147.907 114.165 148.167C115.088 148.167 115.725 148.154 116.115 147.998C116.505 147.855 116.609 147.608 116.609 147.062L116.609 141.238L115.686 141.238ZM110.044 142.551L110.044 144.345L108.432 144.345L108.432 144.267L108.432 142.551L110.044 142.551ZM105.871 144.345L105.871 145.216L107.457 145.216C107.314 146.087 106.885 146.971 105.767 147.66C105.949 147.79 106.274 148.154 106.404 148.336C107.73 147.517 108.224 146.347 108.367 145.216L110.044 145.216L110.044 148.011L110.967 148.011L110.967 145.216L112.449 145.216L112.449 144.345L110.967 144.345L110.967 142.551L112.176 142.551L112.176 141.693L106.3 141.693L106.3 142.551L107.535 142.551L107.535 144.254L107.535 144.345L105.871 144.345ZM111.071 147.764L111.071 149.207L106.963 149.207L106.963 150.104L111.071 150.104L111.071 151.755L105.611 151.755L105.611 152.665L117.376 152.665L117.376 151.755L112.072 151.755L112.072 150.104L116.024 150.104L116.024 149.207L112.072 149.207L112.072 147.764L111.071 147.764ZM123.473 149.233C124.149 149.935 124.877 150.923 125.176 151.586L126.021 151.092C125.696 150.429 124.955 149.48 124.266 148.804L123.473 149.233ZM127.815 145.905L127.815 147.517L122.55 147.517L122.55 148.427L127.815 148.427L127.815 151.95C127.815 152.132 127.75 152.184 127.542 152.197C127.321 152.21 126.58 152.21 125.8 152.184C125.93 152.457 126.073 152.847 126.112 153.107C127.139 153.107 127.828 153.094 128.231 152.951C128.66 152.795 128.777 152.522 128.777 151.963L128.777 148.427L130.35 148.427L130.35 147.517L128.777 147.517L128.777 145.905L127.815 145.905ZM118.572 143.448C119.235 144.111 119.989 145.034 120.314 145.658L120.99 145.086L120.99 147.335C120.067 148.18 119.131 148.986 118.507 149.493L119.04 150.312C119.638 149.779 120.314 149.142 120.99 148.492L120.99 153.107L121.939 153.107L121.939 141.16L120.99 141.16L120.99 144.956C120.626 144.358 119.885 143.526 119.248 142.915L118.572 143.448ZM124.565 144.15C125.007 144.514 125.475 145.021 125.761 145.424C124.799 145.892 123.72 146.23 122.667 146.438C122.849 146.633 123.044 146.984 123.148 147.218C126.008 146.568 128.881 145.138 130.116 142.499L129.479 142.161L129.31 142.2L126.502 142.2C126.736 141.953 126.957 141.706 127.139 141.446L126.151 141.16C125.436 142.2 124.058 143.266 122.563 143.89C122.758 144.046 123.07 144.345 123.2 144.527C124.058 144.124 124.89 143.604 125.618 143.006L128.751 143.006C128.218 143.799 127.451 144.462 126.554 144.995C126.255 144.579 125.735 144.085 125.28 143.721L124.565 144.15ZM141.92 141.42C141.179 142.46 139.84 143.565 138.696 144.202C138.943 144.384 139.242 144.67 139.398 144.878C140.62 144.137 141.959 142.98 142.843 141.797L141.92 141.42ZM142.349 144.93C141.53 146.061 140.009 147.205 138.709 147.868C138.956 148.05 139.229 148.349 139.385 148.557C140.763 147.79 142.284 146.581 143.246 145.307L142.349 144.93ZM142.609 148.7C141.725 150.169 140.035 151.534 138.319 152.301C138.553 152.483 138.826 152.808 138.995 153.042C140.789 152.158 142.505 150.702 143.506 149.038L142.609 148.7ZM133.418 148.141L137.162 148.141L137.162 149.233L133.418 149.233L133.418 148.141ZM136.421 150.52C136.876 151.131 137.37 151.95 137.604 152.483L138.332 152.093C138.098 151.586 137.578 150.793 137.123 150.195L136.421 150.52ZM133.327 143.708L137.305 143.708L137.305 144.501L133.327 144.501L133.327 143.708ZM133.327 142.278L137.305 142.278L137.305 143.071L133.327 143.071L133.327 142.278ZM132.404 141.615L132.404 145.164L138.254 145.164L138.254 141.615L132.404 141.615ZM133.002 150.221C132.703 150.91 132.235 151.586 131.728 152.08C131.923 152.21 132.261 152.47 132.417 152.613C132.937 152.08 133.496 151.235 133.834 150.468L133.002 150.221ZM134.51 145.398C134.614 145.58 134.718 145.788 134.809 145.996L131.767 145.996L131.767 146.789L138.709 146.789L138.709 145.996L135.849 145.996C135.732 145.723 135.576 145.424 135.42 145.19L134.51 145.398ZM132.508 147.439L132.508 149.935L134.796 149.935L134.796 152.08C134.796 152.197 134.77 152.236 134.614 152.236C134.471 152.249 134.029 152.249 133.496 152.236C133.626 152.47 133.756 152.795 133.795 153.055C134.523 153.055 135.017 153.042 135.342 152.912C135.667 152.769 135.758 152.548 135.758 152.093L135.758 149.935L138.111 149.935L138.111 147.439L132.508 147.439ZM144.962 142.395L144.962 150.91L145.833 150.91L145.833 149.662L148.212 149.662L148.212 142.395L144.962 142.395ZM145.833 143.305L147.38 143.305L147.38 148.752L145.833 148.752L145.833 143.305ZM152.138 141.134C151.982 141.784 151.696 142.668 151.41 143.344L149.187 143.344L149.187 153.029L150.11 153.029L150.11 144.202L155.193 144.202L155.193 151.963C155.193 152.132 155.141 152.184 154.972 152.184C154.803 152.197 154.27 152.197 153.698 152.171C153.815 152.418 153.958 152.821 153.997 153.068C154.803 153.081 155.349 153.055 155.7 152.899C156.038 152.743 156.142 152.47 156.142 151.976L156.142 143.344L152.424 143.344C152.697 142.746 152.996 142.005 153.256 141.368L152.138 141.134ZM151.878 146.412L153.425 146.412L153.425 149.285L151.878 149.285L151.878 146.412ZM151.189 145.684L151.189 150.754L151.878 150.754L151.878 150.013L154.127 150.013L154.127 145.684L151.189 145.684ZM159.08 141.173L159.08 143.786L157.572 143.786L157.572 144.696L159.08 144.696L159.08 147.595C158.43 147.777 157.845 147.946 157.364 148.063L157.611 149.025L159.08 148.57L159.08 151.924C159.08 152.106 159.028 152.158 158.859 152.158C158.703 152.171 158.196 152.171 157.637 152.145C157.767 152.418 157.884 152.834 157.923 153.068C158.742 153.081 159.249 153.042 159.561 152.886C159.899 152.73 160.016 152.457 160.016 151.924L160.016 148.271L161.329 147.855L161.212 146.958L160.016 147.309L160.016 144.696L161.238 144.696L161.238 143.786L160.016 143.786L160.016 141.173L159.08 141.173ZM162.98 143.279C163.188 143.721 163.396 144.306 163.487 144.696L161.758 144.696L161.758 153.107L162.681 153.107L162.681 145.515L164.982 145.515L164.982 146.698L163.175 146.698L163.175 147.413L164.982 147.413L164.982 148.557L163.578 148.557L163.578 151.794L164.306 151.794L164.306 151.235L167.127 151.235L167.127 148.557L165.775 148.557L165.775 147.413L167.569 147.413L167.569 146.698L165.775 146.698L165.775 145.515L167.998 145.515L167.998 152.015C167.998 152.184 167.946 152.223 167.79 152.236C167.634 152.236 167.101 152.249 166.542 152.223C166.659 152.457 166.802 152.834 166.841 153.068C167.647 153.068 168.167 153.055 168.492 152.912C168.83 152.769 168.934 152.509 168.934 152.028L168.934 144.696L167.153 144.696C167.374 144.254 167.608 143.708 167.816 143.214L167.205 143.058L169.337 143.058L169.337 142.239L165.931 142.239C165.84 141.875 165.645 141.42 165.437 141.056L164.579 141.316C164.735 141.602 164.865 141.927 164.969 142.239L161.55 142.239L161.55 143.058L166.88 143.058C166.75 143.539 166.49 144.228 166.269 144.696L163.721 144.696L164.397 144.501C164.332 144.111 164.098 143.5 163.838 143.058L162.98 143.279ZM164.306 149.233L166.386 149.233L166.386 150.572L164.306 150.572L164.306 149.233ZM178.736 149.064C178.307 149.818 177.709 150.403 176.916 150.871C175.967 150.637 174.992 150.429 174.03 150.247C174.303 149.896 174.615 149.493 174.914 149.064L178.736 149.064ZM171.547 143.695L171.547 147.062L175.018 147.062C174.836 147.426 174.615 147.816 174.368 148.206L170.702 148.206L170.702 149.064L173.783 149.064C173.328 149.701 172.847 150.299 172.418 150.767C173.523 150.975 174.602 151.196 175.629 151.443C174.355 151.885 172.743 152.132 170.767 152.249C170.936 152.47 171.092 152.821 171.17 153.094C173.627 152.886 175.564 152.509 177.033 151.794C178.684 152.236 180.114 152.691 181.18 153.12L182.012 152.366C180.972 151.976 179.607 151.56 178.099 151.157C178.84 150.611 179.412 149.922 179.815 149.064L182.311 149.064L182.311 148.206L175.486 148.206C175.694 147.868 175.889 147.53 176.058 147.205L175.46 147.062L181.544 147.062L181.544 143.695L178.411 143.695L178.411 142.59L182.09 142.59L182.09 141.719L170.897 141.719L170.897 142.59L174.446 142.59L174.446 143.695L171.547 143.695ZM175.369 142.59L177.488 142.59L177.488 143.695L175.369 143.695L175.369 142.59ZM172.47 144.501L174.446 144.501L174.446 146.269L172.47 146.269L172.47 144.501ZM175.369 144.501L177.488 144.501L177.488 146.269L175.369 146.269L175.369 144.501ZM178.411 144.501L180.582 144.501L180.582 146.269L178.411 146.269L178.411 144.501ZM186.107 141.368C185.613 143.227 184.768 145.034 183.702 146.191C183.949 146.321 184.378 146.607 184.573 146.776C185.067 146.191 185.522 145.45 185.938 144.631L189.019 144.631L189.019 147.504L185.145 147.504L185.145 148.44L189.019 148.44L189.019 151.755L183.715 151.755L183.715 152.704L195.337 152.704L195.337 151.755L190.033 151.755L190.033 148.44L194.245 148.44L194.245 147.504L190.033 147.504L190.033 144.631L194.713 144.631L194.713 143.682L190.033 143.682L190.033 141.16L189.019 141.16L189.019 143.682L186.367 143.682C186.653 143.019 186.9 142.304 187.095 141.589L186.107 141.368ZM203.072 141.173C203.072 141.914 203.098 142.655 203.137 143.37L197.664 143.37L197.664 147.023C197.664 148.713 197.547 150.962 196.468 152.561C196.702 152.678 197.118 153.016 197.287 153.211C198.483 151.495 198.678 148.869 198.678 147.036L198.678 146.945L201.057 146.945C201.005 149.181 200.94 150.013 200.771 150.208C200.667 150.325 200.55 150.351 200.355 150.351C200.134 150.351 199.575 150.351 198.977 150.286C199.133 150.533 199.237 150.923 199.25 151.196C199.887 151.235 200.485 151.235 200.823 151.209C201.174 151.17 201.395 151.079 201.603 150.832C201.876 150.481 201.941 149.376 202.006 146.451C202.006 146.321 202.019 146.035 202.019 146.035L198.678 146.035L198.678 144.319L203.202 144.319C203.358 146.425 203.67 148.349 204.164 149.844C203.306 150.832 202.305 151.638 201.148 152.249C201.356 152.444 201.707 152.847 201.863 153.055C202.864 152.457 203.761 151.742 204.554 150.884C205.152 152.223 205.932 153.029 206.933 153.029C207.934 153.029 208.298 152.379 208.467 150.156C208.207 150.065 207.843 149.844 207.622 149.623C207.544 151.352 207.388 152.028 207.011 152.028C206.348 152.028 205.763 151.287 205.282 150.013C206.244 148.765 207.011 147.283 207.57 145.58L206.595 145.333C206.179 146.646 205.62 147.829 204.918 148.869C204.58 147.608 204.333 146.061 204.19 144.319L208.363 144.319L208.363 143.37L204.138 143.37C204.099 142.655 204.086 141.927 204.086 141.173L203.072 141.173ZM204.723 141.81C205.555 142.239 206.556 142.902 207.05 143.37L207.661 142.694C207.154 142.252 206.127 141.615 205.308 141.212L204.723 141.81ZM211.067 141.784L211.067 145.645C211.067 147.699 210.937 150.52 209.52 152.483C209.741 152.6 210.157 152.951 210.326 153.133C211.834 151.053 212.068 147.829 212.068 145.645L212.068 142.72L218.88 142.72C218.906 149.493 218.906 152.99 220.609 152.99C221.324 152.99 221.532 152.418 221.623 150.689C221.441 150.546 221.155 150.234 220.986 150.013C220.96 151.079 220.882 151.976 220.687 151.976C219.816 151.976 219.816 147.92 219.855 141.784L211.067 141.784ZM216.93 143.643C216.592 144.683 216.137 145.749 215.591 146.737C214.889 145.84 214.148 144.956 213.472 144.176L212.666 144.605C213.446 145.515 214.291 146.568 215.071 147.621C214.213 148.986 213.199 150.156 212.107 150.884C212.341 151.066 212.666 151.404 212.848 151.638C213.888 150.871 214.85 149.74 215.669 148.44C216.488 149.571 217.203 150.637 217.645 151.456L218.555 150.936C218.022 150 217.164 148.778 216.202 147.53C216.839 146.386 217.372 145.151 217.788 143.89L216.93 143.643ZM229.475 143.409L232.322 143.409C231.932 144.228 231.399 144.982 230.775 145.632C230.151 144.995 229.67 144.319 229.319 143.656L229.475 143.409ZM224.626 141.16L224.626 143.942L222.676 143.942L222.676 144.865L224.509 144.865C224.106 146.659 223.235 148.7 222.364 149.805C222.533 150.026 222.78 150.403 222.871 150.663C223.521 149.805 224.145 148.388 224.626 146.919L224.626 153.107L225.549 153.107L225.549 146.555C225.952 147.127 226.407 147.829 226.615 148.193L227.2 147.452C226.966 147.114 225.9 145.827 225.549 145.437L225.549 144.865L227.031 144.865L226.719 145.125C226.94 145.281 227.317 145.619 227.486 145.788C227.928 145.398 228.37 144.93 228.773 144.41C229.124 145.021 229.579 145.645 230.138 146.23C229.033 147.179 227.733 147.881 226.433 148.297C226.628 148.492 226.875 148.856 226.992 149.09C227.33 148.96 227.668 148.83 228.006 148.674L228.006 153.133L228.916 153.133L228.916 152.561L232.543 152.561L232.543 153.081L233.492 153.081L233.492 148.57L234.09 148.804C234.233 148.557 234.506 148.18 234.701 147.985C233.414 147.595 232.322 146.984 231.438 146.243C232.348 145.294 233.089 144.15 233.557 142.811L232.946 142.525L232.764 142.564L229.956 142.564C230.164 142.187 230.346 141.797 230.502 141.394L229.566 141.147C229.059 142.473 228.214 143.747 227.239 144.67L227.239 143.942L225.549 143.942L225.549 141.16L224.626 141.16ZM228.916 151.703L228.916 149.194L232.543 149.194L232.543 151.703L228.916 151.703ZM228.643 148.349C229.41 147.946 230.125 147.452 230.788 146.867C231.425 147.426 232.166 147.933 233.011 148.349L228.643 148.349Z"></path></g><g opacity="0.95"><rect  x="40" y="170" width="310" height="70" rx="16"    fill="#FFFFFF" ></rect><path   fill="rgba(91, 155, 213, 1.00)"  d="M56 169L334 169C343.389 169 351 176.611 351 186L351 224C351 233.389 343.389 241 334 241L56 241C46.6112 241 39 233.389 39 224L39 186C39 176.611 46.6112 169 56 169ZM56 171C47.7157 171 41 177.716 41 186L41 224C41 232.284 47.7157 239 56 239L334 239C342.284 239 349 232.284 349 224L349 186C349 177.716 342.284 171 334 171L56 171Z"></path></g><circle cx="70" cy="205" r="12"   fill="#5B9BD5" ></circle><circle cx="70" cy="205" r="6"   fill="#FFFFFF" ></circle><g ><path     fill="#2C5F8A"  d="M128.345 192.272C128.697 192.848 129.113 193.664 129.337 194.144L130.441 193.696C130.233 193.232 129.769 192.464 129.417 191.904L128.345 192.272ZM132.921 196.096C133.977 196.848 135.369 197.904 136.057 198.56L136.777 197.728C136.057 197.104 134.649 196.08 133.609 195.376L132.921 196.096ZM130.281 195.488C129.561 196.272 128.441 197.104 127.481 197.68C127.657 197.92 127.945 198.432 128.041 198.64C129.065 197.952 130.329 196.864 131.177 195.904L130.281 195.488ZM134.505 192C134.233 192.64 133.753 193.536 133.305 194.192L125.849 194.192L125.849 203.808L127.001 203.808L127.001 195.216L137.017 195.216L137.017 202.496C137.017 202.752 136.921 202.816 136.649 202.816C136.393 202.848 135.465 202.848 134.473 202.816C134.633 203.088 134.777 203.472 134.841 203.744C136.217 203.744 137.017 203.744 137.497 203.584C137.977 203.424 138.121 203.136 138.121 202.512L138.121 194.192L134.553 194.192C134.953 193.632 135.401 192.944 135.785 192.288L134.505 192ZM128.985 198.128L128.985 202.544L130.009 202.544L130.009 201.776L134.873 201.776L134.873 198.128L128.985 198.128ZM130.009 199.024L133.865 199.024L133.865 200.896L130.009 200.896L130.009 199.024ZM131.017 189.36C131.225 189.808 131.449 190.368 131.641 190.848L124.937 190.848L124.937 191.888L139.001 191.888L139.001 190.848L132.953 190.848C132.761 190.32 132.457 189.616 132.169 189.056L131.017 189.36ZM147.097 196.464C147.033 197.04 146.921 197.568 146.793 198.048L141.977 198.048L141.977 199.104L146.425 199.104C145.497 201.168 143.721 202.24 140.873 202.784C141.081 203.024 141.417 203.552 141.529 203.808C144.697 203.056 146.681 201.712 147.705 199.104L152.569 199.104C152.297 201.216 151.977 202.192 151.609 202.496C151.433 202.64 151.241 202.656 150.905 202.656C150.521 202.656 149.481 202.64 148.473 202.544C148.681 202.848 148.825 203.296 148.857 203.616C149.817 203.664 150.761 203.68 151.257 203.664C151.833 203.632 152.201 203.536 152.553 203.216C153.113 202.72 153.465 201.504 153.817 198.592C153.849 198.416 153.881 198.048 153.881 198.048L148.041 198.048C148.169 197.584 148.265 197.088 148.345 196.56L147.097 196.464ZM151.881 191.792C150.937 192.752 149.625 193.52 148.105 194.128C146.841 193.584 145.833 192.896 145.145 192.016L145.369 191.792L151.881 191.792ZM146.073 189.104C145.241 190.496 143.657 192.144 141.401 193.296C141.657 193.488 141.993 193.92 142.153 194.192C142.969 193.744 143.705 193.232 144.361 192.704C145.001 193.456 145.801 194.096 146.745 194.608C144.841 195.216 142.729 195.6 140.697 195.792C140.889 196.064 141.097 196.544 141.177 196.848C143.513 196.56 145.929 196.064 148.089 195.248C149.945 196 152.185 196.448 154.665 196.656C154.809 196.32 155.081 195.84 155.337 195.568C153.193 195.456 151.193 195.152 149.513 194.64C151.289 193.776 152.793 192.656 153.753 191.2L153.033 190.704L152.825 190.768L146.313 190.768C146.697 190.304 147.033 189.824 147.321 189.344L146.073 189.104ZM158.473 203.488C159.081 203.264 159.977 203.2 168.457 202.48C168.825 202.96 169.145 203.424 169.369 203.824L170.441 203.168C169.737 201.968 168.217 200.24 166.777 198.96L165.769 199.504C166.393 200.08 167.033 200.752 167.609 201.424L160.329 201.984C161.465 200.928 162.601 199.648 163.593 198.336L170.649 198.336L170.649 197.168L157.385 197.168L157.385 198.336L161.961 198.336C160.921 199.76 159.705 201.024 159.273 201.408C158.777 201.872 158.409 202.176 158.057 202.256C158.201 202.576 158.409 203.216 158.473 203.488ZM164.025 189.12C162.585 191.264 159.769 193.296 156.633 194.624C156.921 194.848 157.337 195.36 157.513 195.664C158.441 195.232 159.337 194.752 160.185 194.224L160.185 195.2L167.817 195.2L167.817 194.08L160.393 194.08C161.769 193.184 163.001 192.176 164.009 191.072C164.969 192.064 166.313 193.152 167.817 194.08C168.681 194.624 169.609 195.104 170.521 195.472C170.713 195.152 171.113 194.656 171.369 194.416C168.777 193.52 166.169 191.776 164.697 190.256L165.177 189.616L164.025 189.12ZM180.633 189.872C181.273 190.944 181.945 192.368 182.201 193.248L183.289 192.752C183.033 191.872 182.313 190.496 181.641 189.44L180.633 189.872ZM173.769 190.224C174.489 190.976 175.353 192.032 175.769 192.704L176.681 191.952C176.265 191.296 175.369 190.304 174.633 189.568L173.769 190.224ZM185.273 190.112C184.745 193.44 183.913 196.432 182.201 198.832C180.585 196.592 179.609 193.696 179.033 190.304L177.897 190.496C178.585 194.288 179.625 197.44 181.385 199.84C180.265 201.104 178.809 202.16 176.937 202.96C177.161 203.216 177.497 203.664 177.657 203.952C179.513 203.12 180.985 202.032 182.153 200.768C183.353 202.112 184.857 203.152 186.713 203.888C186.905 203.568 187.289 203.088 187.577 202.848C185.689 202.176 184.185 201.136 182.969 199.792C184.905 197.2 185.865 193.952 186.505 190.304L185.273 190.112ZM172.697 194.128L172.697 195.296L174.953 195.296L174.953 200.944C174.953 201.776 174.521 202.32 174.265 202.576C174.473 202.752 174.825 203.168 174.953 203.424C175.209 203.104 175.625 202.784 178.441 200.784C178.313 200.544 178.137 200.08 178.041 199.76L176.121 201.088L176.121 194.128L172.697 194.128Z"></path></g><g ><path     fill="#7BA8C9"  d="M105.269 220.671C105.797 221.243 106.413 222.035 106.688 222.53L107.216 222.134C106.93 221.661 106.303 220.891 105.775 220.33L105.269 220.671ZM103.223 213.213L103.223 220.088L103.883 220.088L103.883 213.851L106.27 213.851L106.27 220.066L106.963 220.066L106.963 213.213L103.223 213.213ZM109.449 212.619L109.449 221.683C109.449 221.848 109.394 221.892 109.251 221.892C109.108 221.892 108.635 221.903 108.107 221.881C108.206 222.09 108.305 222.409 108.338 222.607C109.064 222.607 109.515 222.585 109.779 222.464C110.043 222.343 110.153 222.123 110.153 221.672L110.153 212.619L109.449 212.619ZM107.832 213.576L107.832 220.165L108.503 220.165L108.503 213.576L107.832 213.576ZM104.752 214.588L104.752 218.339C104.752 219.67 104.554 221.144 102.882 222.156C103.003 222.255 103.234 222.497 103.311 222.64C105.115 221.573 105.39 219.824 105.39 218.339L105.39 214.588L104.752 214.588ZM102.222 212.531C101.793 214.214 101.111 215.897 100.297 217.03C100.429 217.217 100.649 217.624 100.726 217.8C101.012 217.404 101.287 216.931 101.54 216.425L101.54 222.607L102.233 222.607L102.233 214.863C102.508 214.159 102.75 213.433 102.948 212.707L102.222 212.531ZM112.749 215.82L112.749 219.241L116.049 219.241L116.049 220L112.397 220L112.397 220.66L116.049 220.66L116.049 221.617L111.572 221.617L111.572 222.288L121.439 222.288L121.439 221.617L116.874 221.617L116.874 220.66L120.746 220.66L120.746 220L116.874 220L116.874 219.241L120.328 219.241L120.328 215.82L116.874 215.82L116.874 215.149L121.384 215.149L121.384 214.467L116.874 214.467L116.874 213.62C118.161 213.521 119.371 213.389 120.317 213.224L119.877 212.586C118.139 212.894 115.026 213.103 112.463 213.169C112.54 213.334 112.628 213.631 112.639 213.818C113.717 213.796 114.894 213.752 116.049 213.686L116.049 214.467L111.638 214.467L111.638 215.149L116.049 215.149L116.049 215.82L112.749 215.82ZM113.552 217.8L116.049 217.8L116.049 218.636L113.552 218.636L113.552 217.8ZM116.874 217.8L119.492 217.8L119.492 218.636L116.874 218.636L116.874 217.8ZM113.552 216.414L116.049 216.414L116.049 217.239L113.552 217.239L113.552 216.414ZM116.874 216.414L119.492 216.414L119.492 217.239L116.874 217.239L116.874 216.414ZM122.561 213.356C123.188 214.049 123.936 214.995 124.255 215.611L124.959 215.138C124.607 214.533 123.837 213.62 123.199 212.96L122.561 213.356ZM122.418 221.639L123.133 222.134C123.727 221.089 124.42 219.692 124.948 218.493L124.332 217.987C123.749 219.274 122.957 220.759 122.418 221.639ZM130.679 217.591L128.941 217.591C128.996 217.118 129.007 216.645 129.007 216.194L129.007 215.05L130.679 215.05L130.679 217.591ZM128.138 212.542L128.138 214.258L125.938 214.258L125.938 215.05L128.138 215.05L128.138 216.194C128.138 216.645 128.127 217.107 128.083 217.591L125.366 217.591L125.366 218.383L127.951 218.383C127.654 219.725 126.851 221.045 124.739 222.002C124.937 222.167 125.212 222.486 125.333 222.662C127.456 221.606 128.358 220.165 128.743 218.691C129.348 220.572 130.393 221.936 132.087 222.618C132.219 222.398 132.461 222.079 132.648 221.903C131.02 221.342 129.986 220.077 129.447 218.383L132.582 218.383L132.582 217.591L131.471 217.591L131.471 214.258L129.007 214.258L129.007 212.542L128.138 212.542ZM139.358 212.476C139.006 213.466 138.357 214.39 137.587 214.995C137.73 215.072 137.95 215.215 138.115 215.336L138.115 215.721L133.748 215.721L133.748 216.447L138.115 216.447L138.115 217.305L134.54 217.305L134.54 220.154L135.398 220.154L135.398 218.02L138.115 218.02L138.115 218.977C137.136 220.187 135.299 221.166 133.473 221.595C133.66 221.76 133.88 222.079 134.001 222.288C135.508 221.859 137.037 221.034 138.115 219.967L138.115 222.64L138.995 222.64L138.995 219.989C139.952 220.88 141.404 221.782 143.12 222.233C143.241 222.024 143.483 221.694 143.648 221.518C141.624 221.067 139.875 220.044 138.995 219.065L138.995 218.02L141.745 218.02L141.745 219.351C141.745 219.461 141.712 219.494 141.591 219.494C141.459 219.505 141.041 219.505 140.59 219.494C140.689 219.67 140.821 219.934 140.865 220.143C141.492 220.143 141.932 220.143 142.218 220.033C142.515 219.912 142.592 219.736 142.592 219.351L142.592 217.305L138.995 217.305L138.995 216.447L143.219 216.447L143.219 215.721L138.995 215.721L138.995 215.017L138.753 215.017C138.973 214.764 139.193 214.489 139.391 214.192L140.216 214.192C140.502 214.621 140.766 215.116 140.876 215.468L141.613 215.204C141.514 214.929 141.305 214.544 141.074 214.192L143.362 214.192L143.362 213.488L139.809 213.488C139.941 213.224 140.062 212.949 140.172 212.674L139.358 212.476ZM135.101 212.476C134.727 213.444 134.078 214.39 133.363 215.017C133.561 215.127 133.902 215.358 134.056 215.479C134.408 215.127 134.76 214.687 135.09 214.192L135.618 214.192C135.86 214.632 136.091 215.149 136.201 215.49L136.927 215.215C136.839 214.94 136.652 214.555 136.454 214.192L138.335 214.192L138.335 213.488L135.497 213.488C135.64 213.224 135.772 212.96 135.882 212.685L135.101 212.476ZM147.003 222.376L147.751 221.738C147.069 220.935 146.079 219.934 145.287 219.296L144.572 219.923C145.353 220.561 146.299 221.507 147.003 222.376ZM159.246 216.546C159.048 217.591 158.685 218.636 158.201 219.34C158.377 219.439 158.696 219.659 158.828 219.769C159.323 219.01 159.752 217.855 159.994 216.689L159.246 216.546ZM164.218 216.722C164.526 217.734 164.834 219.076 164.922 219.868L165.692 219.67C165.571 218.9 165.241 217.591 164.922 216.579L164.218 216.722ZM156.76 212.52L156.76 215.094L155.517 215.094L155.517 215.864L156.76 215.864L156.76 222.629L157.563 222.629L157.563 215.864L158.74 215.864L158.74 215.094L157.563 215.094L157.563 212.52L156.76 212.52ZM161.039 212.619L161.039 214.588L161.039 214.61L159.081 214.61L159.081 215.413L161.028 215.413C160.962 217.536 160.511 220.099 158.08 222.09C158.278 222.222 158.575 222.475 158.718 222.651C161.281 220.506 161.754 217.723 161.82 215.413L163.349 215.413C163.239 219.681 163.129 221.243 162.832 221.595C162.722 221.738 162.612 221.76 162.403 221.76C162.172 221.76 161.6 221.76 160.962 221.705C161.116 221.925 161.193 222.266 161.215 222.508C161.798 222.541 162.392 222.552 162.733 222.508C163.096 222.475 163.327 222.376 163.547 222.079C163.921 221.584 164.031 219.945 164.141 215.028C164.141 214.918 164.152 214.61 164.152 214.61L161.831 214.61L161.831 214.588L161.831 212.619L161.039 212.619ZM171.962 213.037C172.402 213.774 172.864 214.753 173.04 215.358L173.788 215.017C173.612 214.412 173.117 213.466 172.655 212.74L171.962 213.037ZM167.243 213.279C167.738 213.796 168.332 214.522 168.618 214.984L169.245 214.467C168.959 214.016 168.343 213.334 167.837 212.828L167.243 213.279ZM175.152 213.202C174.789 215.49 174.217 217.547 173.04 219.197C171.929 217.657 171.258 215.666 170.862 213.334L170.081 213.466C170.554 216.073 171.269 218.24 172.479 219.89C171.709 220.759 170.708 221.485 169.421 222.035C169.575 222.211 169.806 222.519 169.916 222.717C171.192 222.145 172.204 221.397 173.007 220.528C173.832 221.452 174.866 222.167 176.142 222.673C176.274 222.453 176.538 222.123 176.736 221.958C175.438 221.496 174.404 220.781 173.568 219.857C174.899 218.075 175.559 215.842 175.999 213.334L175.152 213.202ZM166.506 215.963L166.506 216.766L168.057 216.766L168.057 220.649C168.057 221.221 167.76 221.595 167.584 221.771C167.727 221.892 167.969 222.178 168.057 222.354C168.233 222.134 168.519 221.914 170.455 220.539C170.367 220.374 170.246 220.055 170.18 219.835L168.86 220.748L168.86 215.963L166.506 215.963ZM180.003 222.376L180.751 221.738C180.069 220.935 179.079 219.934 178.287 219.296L177.572 219.923C178.353 220.561 179.299 221.507 180.003 222.376ZM191.014 214.687C191.256 215.083 191.542 215.644 191.696 215.974L192.455 215.666C192.312 215.347 191.993 214.819 191.751 214.434L191.014 214.687ZM194.16 217.316C194.886 217.833 195.843 218.559 196.316 219.01L196.811 218.438C196.316 218.009 195.348 217.305 194.633 216.821L194.16 217.316ZM192.345 216.898C191.85 217.437 191.08 218.009 190.42 218.405C190.541 218.57 190.739 218.922 190.805 219.065C191.509 218.592 192.378 217.844 192.961 217.184L192.345 216.898ZM195.249 214.5C195.062 214.94 194.732 215.556 194.424 216.007L189.298 216.007L189.298 222.618L190.09 222.618L190.09 216.711L196.976 216.711L196.976 221.716C196.976 221.892 196.91 221.936 196.723 221.936C196.547 221.958 195.909 221.958 195.227 221.936C195.337 222.123 195.436 222.387 195.48 222.574C196.426 222.574 196.976 222.574 197.306 222.464C197.636 222.354 197.735 222.156 197.735 221.727L197.735 216.007L195.282 216.007C195.557 215.622 195.865 215.149 196.129 214.698L195.249 214.5ZM191.454 218.713L191.454 221.749L192.158 221.749L192.158 221.221L195.502 221.221L195.502 218.713L191.454 218.713ZM192.158 219.329L194.809 219.329L194.809 220.616L192.158 220.616L192.158 219.329ZM192.851 212.685C192.994 212.993 193.148 213.378 193.28 213.708L188.671 213.708L188.671 214.423L198.34 214.423L198.34 213.708L194.182 213.708C194.05 213.345 193.841 212.861 193.643 212.476L192.851 212.685ZM208.394 215.083C207.954 216.293 207.173 217.899 206.568 218.9L207.25 219.252C207.866 218.229 208.614 216.711 209.142 215.435L208.394 215.083ZM199.902 215.281C200.485 216.513 201.134 218.196 201.409 219.164L202.234 218.856C201.926 217.888 201.244 216.271 200.672 215.05L199.902 215.281ZM205.435 212.663L205.435 221.254L203.587 221.254L203.587 212.652L202.74 212.652L202.74 221.254L199.66 221.254L199.66 222.068L209.373 222.068L209.373 221.254L206.271 221.254L206.271 212.663L205.435 212.663ZM211.507 213.235C212.123 213.752 212.893 214.5 213.245 214.973L213.806 214.357C213.432 213.906 212.651 213.202 212.046 212.707L211.507 213.235ZM210.506 215.974L210.506 216.788L212.255 216.788L212.255 220.737C212.255 221.21 211.914 221.54 211.705 221.672C211.859 221.837 212.079 222.211 212.156 222.431C212.332 222.2 212.64 221.958 214.719 220.484C214.631 220.33 214.499 219.978 214.444 219.758L213.091 220.682L213.091 215.974L210.506 215.974ZM216.886 212.553L216.886 216.172L214.092 216.172L214.092 217.019L216.886 217.019L216.886 222.64L217.755 222.64L217.755 217.019L220.549 217.019L220.549 216.172L217.755 216.172L217.755 212.553L216.886 212.553ZM228.106 213.73L228.106 219.769L228.909 219.769L228.909 213.73L228.106 213.73ZM230.24 212.63L230.24 221.573C230.24 221.76 230.163 221.815 229.965 221.826C229.778 221.826 229.151 221.837 228.447 221.815C228.557 222.046 228.689 222.409 228.722 222.629C229.679 222.629 230.24 222.607 230.581 222.475C230.911 222.332 231.043 222.101 231.043 221.562L231.043 212.63L230.24 212.63ZM224.399 213.202C224.971 213.664 225.653 214.335 225.972 214.775L226.555 214.269C226.236 213.829 225.532 213.191 224.949 212.762L224.399 213.202ZM226.082 216.513C225.708 217.426 225.224 218.273 224.641 219.032C224.41 218.24 224.212 217.305 224.069 216.271L227.545 215.875L227.468 215.094L223.97 215.49C223.871 214.555 223.816 213.554 223.816 212.531L222.969 212.531C222.98 213.576 223.046 214.599 223.156 215.589L221.396 215.787L221.473 216.568L223.255 216.37C223.431 217.635 223.684 218.801 224.014 219.769C223.255 220.572 222.375 221.243 221.418 221.749C221.594 221.914 221.88 222.233 222.001 222.409C222.837 221.914 223.618 221.309 224.322 220.605C224.85 221.837 225.51 222.596 226.28 222.596C227.039 222.596 227.336 222.101 227.49 220.429C227.27 220.352 226.973 220.176 226.797 219.989C226.731 221.276 226.599 221.782 226.324 221.782C225.862 221.782 225.367 221.089 224.938 219.934C225.719 219.01 226.368 217.943 226.874 216.744L226.082 216.513Z"></path></g><g opacity="0.85"><rect  x="40" y="255" width="310" height="70" rx="16"    fill="#FFFFFF" ></rect></g><circle cx="70" cy="290" r="12" stroke="rgba(176, 212, 240, 1.00)" stroke-width="1.5"      fill="#FFFFFF" ></circle><g ><path     fill="#2C5F8A"  d="M131.321 282.008L131.321 283.16L124.921 283.16L124.921 284.296L131.321 284.296L131.321 287.336C131.321 287.576 131.241 287.64 130.921 287.672C130.585 287.688 129.513 287.688 128.265 287.656C128.473 287.976 128.697 288.472 128.793 288.808C130.249 288.808 131.161 288.792 131.753 288.6C132.345 288.44 132.537 288.088 132.537 287.352L132.537 284.296L139.081 284.296L139.081 283.16L132.537 283.16L132.537 282.52C133.993 281.896 135.465 280.984 136.505 280.056L135.721 279.464L135.465 279.528L127.609 279.528L127.609 280.584L134.121 280.584C133.289 281.128 132.265 281.672 131.321 282.008ZM130.745 274.376C131.225 275.112 131.737 276.104 131.961 276.776L128.441 276.776L129.049 276.472C128.777 275.848 128.105 274.952 127.497 274.28L126.505 274.728C127.017 275.336 127.593 276.168 127.897 276.776L125.241 276.776L125.241 279.96L126.393 279.96L126.393 277.864L137.609 277.864L137.609 279.96L138.809 279.96L138.809 276.776L136.169 276.776C136.697 276.136 137.257 275.352 137.737 274.632L136.521 274.216C136.153 275 135.481 276.024 134.889 276.776L132.281 276.776L133.113 276.456C132.905 275.768 132.345 274.744 131.801 273.976L130.745 274.376ZM149.673 275.144C150.665 275.848 151.929 276.888 152.537 277.544L153.449 276.68C152.809 276.04 151.529 275.064 150.537 274.392L149.673 275.144ZM147.337 274.136L147.337 278.168L141.033 278.168L141.033 279.352L147.001 279.352C145.577 282.04 143.049 284.68 140.521 285.96C140.825 286.2 141.225 286.68 141.449 287C143.625 285.736 145.785 283.544 147.337 281.08L147.337 288.84L148.649 288.84L148.649 280.6C150.249 283.032 152.457 285.464 154.393 286.872C154.617 286.536 155.033 286.072 155.353 285.816C153.193 284.456 150.649 281.832 149.145 279.352L154.809 279.352L154.809 278.168L148.649 278.168L148.649 274.136L147.337 274.136ZM158.473 288.488C159.081 288.264 159.977 288.2 168.457 287.48C168.825 287.96 169.145 288.424 169.369 288.824L170.441 288.168C169.737 286.968 168.217 285.24 166.777 283.96L165.769 284.504C166.393 285.08 167.033 285.752 167.609 286.424L160.329 286.984C161.465 285.928 162.601 284.648 163.593 283.336L170.649 283.336L170.649 282.168L157.385 282.168L157.385 283.336L161.961 283.336C160.921 284.76 159.705 286.024 159.273 286.408C158.777 286.872 158.409 287.176 158.057 287.256C158.201 287.576 158.409 288.216 158.473 288.488ZM164.025 274.12C162.585 276.264 159.769 278.296 156.633 279.624C156.921 279.848 157.337 280.36 157.513 280.664C158.441 280.232 159.337 279.752 160.185 279.224L160.185 280.2L167.817 280.2L167.817 279.08L160.393 279.08C161.769 278.184 163.001 277.176 164.009 276.072C164.969 277.064 166.313 278.152 167.817 279.08C168.681 279.624 169.609 280.104 170.521 280.472C170.713 280.152 171.113 279.656 171.369 279.416C168.777 278.52 166.169 276.776 164.697 275.256L165.177 274.616L164.025 274.12ZM180.633 274.872C181.273 275.944 181.945 277.368 182.201 278.248L183.289 277.752C183.033 276.872 182.313 275.496 181.641 274.44L180.633 274.872ZM173.769 275.224C174.489 275.976 175.353 277.032 175.769 277.704L176.681 276.952C176.265 276.296 175.369 275.304 174.633 274.568L173.769 275.224ZM185.273 275.112C184.745 278.44 183.913 281.432 182.201 283.832C180.585 281.592 179.609 278.696 179.033 275.304L177.897 275.496C178.585 279.288 179.625 282.44 181.385 284.84C180.265 286.104 178.809 287.16 176.937 287.96C177.161 288.216 177.497 288.664 177.657 288.952C179.513 288.12 180.985 287.032 182.153 285.768C183.353 287.112 184.857 288.152 186.713 288.888C186.905 288.568 187.289 288.088 187.577 287.848C185.689 287.176 184.185 286.136 182.969 284.792C184.905 282.2 185.865 278.952 186.505 275.304L185.273 275.112ZM172.697 279.128L172.697 280.296L174.953 280.296L174.953 285.944C174.953 286.776 174.521 287.32 174.265 287.576C174.473 287.752 174.825 288.168 174.953 288.424C175.209 288.104 175.625 287.784 178.441 285.784C178.313 285.544 178.137 285.08 178.041 284.76L176.121 286.088L176.121 279.128L172.697 279.128Z"></path></g><g ><path     fill="#7BA8C9"  d="M105.269 305.671C105.797 306.243 106.413 307.035 106.688 307.53L107.216 307.134C106.93 306.661 106.303 305.891 105.775 305.33L105.269 305.671ZM103.223 298.213L103.223 305.088L103.883 305.088L103.883 298.851L106.27 298.851L106.27 305.066L106.963 305.066L106.963 298.213L103.223 298.213ZM109.449 297.619L109.449 306.683C109.449 306.848 109.394 306.892 109.251 306.892C109.108 306.892 108.635 306.903 108.107 306.881C108.206 307.09 108.305 307.409 108.338 307.607C109.064 307.607 109.515 307.585 109.779 307.464C110.043 307.343 110.153 307.123 110.153 306.672L110.153 297.619L109.449 297.619ZM107.832 298.576L107.832 305.165L108.503 305.165L108.503 298.576L107.832 298.576ZM104.752 299.588L104.752 303.339C104.752 304.67 104.554 306.144 102.882 307.156C103.003 307.255 103.234 307.497 103.311 307.64C105.115 306.573 105.39 304.824 105.39 303.339L105.39 299.588L104.752 299.588ZM102.222 297.531C101.793 299.214 101.111 300.897 100.297 302.03C100.429 302.217 100.649 302.624 100.726 302.8C101.012 302.404 101.287 301.931 101.54 301.425L101.54 307.607L102.233 307.607L102.233 299.863C102.508 299.159 102.75 298.433 102.948 297.707L102.222 297.531ZM112.749 300.82L112.749 304.241L116.049 304.241L116.049 305L112.397 305L112.397 305.66L116.049 305.66L116.049 306.617L111.572 306.617L111.572 307.288L121.439 307.288L121.439 306.617L116.874 306.617L116.874 305.66L120.746 305.66L120.746 305L116.874 305L116.874 304.241L120.328 304.241L120.328 300.82L116.874 300.82L116.874 300.149L121.384 300.149L121.384 299.467L116.874 299.467L116.874 298.62C118.161 298.521 119.371 298.389 120.317 298.224L119.877 297.586C118.139 297.894 115.026 298.103 112.463 298.169C112.54 298.334 112.628 298.631 112.639 298.818C113.717 298.796 114.894 298.752 116.049 298.686L116.049 299.467L111.638 299.467L111.638 300.149L116.049 300.149L116.049 300.82L112.749 300.82ZM113.552 302.8L116.049 302.8L116.049 303.636L113.552 303.636L113.552 302.8ZM116.874 302.8L119.492 302.8L119.492 303.636L116.874 303.636L116.874 302.8ZM113.552 301.414L116.049 301.414L116.049 302.239L113.552 302.239L113.552 301.414ZM116.874 301.414L119.492 301.414L119.492 302.239L116.874 302.239L116.874 301.414ZM130.525 298.906L130.525 302.074L128.732 302.074L128.732 298.906L130.525 298.906ZM126.719 302.074L126.719 302.866L127.94 302.866C127.896 304.351 127.643 306.034 126.521 307.211C126.719 307.321 127.016 307.541 127.159 307.684C128.402 306.397 128.677 304.56 128.721 302.866L130.525 302.866L130.525 307.64L131.317 307.64L131.317 302.866L132.56 302.866L132.56 302.074L131.317 302.074L131.317 298.906L132.34 298.906L132.34 298.125L127.027 298.125L127.027 298.906L127.951 298.906L127.951 302.074L126.719 302.074ZM122.561 298.125L122.561 298.884L123.936 298.884C123.628 300.556 123.122 302.118 122.352 303.152C122.484 303.372 122.671 303.834 122.726 304.043C122.935 303.768 123.133 303.46 123.309 303.141L123.309 307.134L124.013 307.134L124.013 306.254L126.246 306.254L126.246 301.491L124.024 301.491C124.31 300.677 124.541 299.786 124.717 298.884L126.433 298.884L126.433 298.125L122.561 298.125ZM124.013 302.239L125.509 302.239L125.509 305.517L124.013 305.517L124.013 302.239ZM137.224 299.841C136.344 300.523 135.112 301.15 134.111 301.513L134.661 302.107C135.717 301.689 136.949 300.974 137.895 300.215L137.224 299.841ZM139.237 300.292C140.337 300.787 141.723 301.579 142.405 302.118L142.988 301.601C142.251 301.062 140.865 300.314 139.787 299.841L139.237 300.292ZM137.257 301.799L137.257 302.822L134.287 302.822L134.287 303.592L137.235 303.592C137.136 304.725 136.509 306.067 133.616 306.958C133.814 307.134 134.056 307.431 134.177 307.629C137.356 306.639 137.994 305.022 138.082 303.592L140.282 303.592L140.282 306.309C140.282 307.211 140.524 307.453 141.349 307.453C141.525 307.453 142.328 307.453 142.515 307.453C143.296 307.453 143.505 307.024 143.582 305.363C143.362 305.297 142.999 305.165 142.823 305.022C142.79 306.452 142.746 306.661 142.438 306.661C142.262 306.661 141.602 306.661 141.481 306.661C141.162 306.661 141.118 306.606 141.118 306.298L141.118 302.822L138.093 302.822L138.093 301.799L137.257 301.799ZM137.62 297.652C137.807 297.971 137.994 298.367 138.137 298.708L133.847 298.708L133.847 300.567L134.672 300.567L134.672 299.445L142.306 299.445L142.306 300.512L143.164 300.512L143.164 298.708L139.138 298.708C138.984 298.345 138.72 297.828 138.478 297.443L137.62 297.652ZM149.093 302.217C149.61 303.02 150.16 304.109 150.391 304.813L151.139 304.417C150.897 303.724 150.347 302.668 149.808 301.865L149.093 302.217ZM145.177 298.312C145.848 298.862 146.695 299.643 147.091 300.149L147.652 299.522C147.234 299.038 146.365 298.279 145.694 297.762L145.177 298.312ZM152.239 297.63L152.239 299.94L148.18 299.94L148.18 300.754L152.239 300.754L152.239 306.265C152.239 306.496 152.151 306.573 151.909 306.584C151.678 306.584 150.908 306.595 150.039 306.562C150.16 306.804 150.292 307.167 150.347 307.398C151.48 307.409 152.14 307.387 152.525 307.244C152.899 307.112 153.064 306.859 153.064 306.265L153.064 300.754L154.549 300.754L154.549 299.94L153.064 299.94L153.064 297.63L152.239 297.63ZM146.123 307.42L146.123 307.409C146.288 307.178 146.596 306.925 148.477 305.407C148.378 305.253 148.246 304.945 148.18 304.714L146.992 305.638L146.992 300.974L144.44 300.974L144.44 301.777L146.2 301.777L146.2 305.759C146.2 306.298 145.859 306.661 145.672 306.826C145.804 306.947 146.035 307.244 146.123 307.42ZM156.177 298.312C156.848 298.862 157.695 299.643 158.091 300.149L158.652 299.522C158.234 299.038 157.365 298.279 156.694 297.762L156.177 298.312ZM161.842 297.498C161.303 298.818 160.17 300.435 158.465 301.568C158.652 301.7 158.905 301.997 159.026 302.184C160.401 301.216 161.413 300.006 162.128 298.807C162.942 300.083 164.119 301.359 165.164 302.096C165.296 301.887 165.56 301.59 165.747 301.447C164.603 300.743 163.283 299.357 162.535 298.059L162.733 297.652L161.842 297.498ZM163.866 302.063C163.085 302.635 161.886 303.306 160.885 303.801L160.885 301.568L160.06 301.568L160.06 306.078C160.06 307.079 160.39 307.343 161.578 307.343C161.831 307.343 163.602 307.343 163.866 307.343C164.922 307.343 165.175 306.925 165.285 305.396C165.054 305.352 164.713 305.209 164.526 305.066C164.46 306.364 164.372 306.595 163.822 306.595C163.426 306.595 161.93 306.595 161.633 306.595C160.995 306.595 160.885 306.518 160.885 306.089L160.885 304.637C161.985 304.142 163.393 303.416 164.416 302.756L163.866 302.063ZM157.09 307.42L157.09 307.409C157.244 307.178 157.552 306.936 159.356 305.484C159.257 305.33 159.125 305.011 159.048 304.791L157.959 305.638L157.959 300.974L155.44 300.974L155.44 301.777L157.167 301.777L157.167 305.759C157.167 306.298 156.826 306.661 156.639 306.826C156.771 306.947 157.002 307.244 157.09 307.42ZM169.003 307.376L169.751 306.738C169.069 305.935 168.079 304.934 167.287 304.296L166.572 304.923C167.353 305.561 168.299 306.507 169.003 307.376ZM182.082 298.059L182.082 303.911L182.863 303.911L182.863 298.796L186.108 298.796L186.108 303.911L186.922 303.911L186.922 298.059L182.082 298.059ZM184.029 299.72L184.029 301.832C184.029 303.537 183.677 305.616 180.916 307.035C181.07 307.156 181.334 307.464 181.422 307.629C183.281 306.672 184.15 305.319 184.535 303.988L184.535 306.496C184.535 307.233 184.832 307.431 185.547 307.431L186.482 307.431C187.428 307.431 187.549 306.991 187.637 305.253C187.439 305.198 187.164 305.088 186.966 304.934C186.911 306.507 186.856 306.804 186.493 306.804L185.679 306.804C185.382 306.804 185.294 306.716 185.294 306.419L185.294 303.746L184.601 303.746C184.755 303.086 184.81 302.437 184.81 301.843L184.81 299.72L184.029 299.72ZM177.627 300.611C178.254 301.458 178.914 302.459 179.464 303.416C178.892 304.769 178.177 305.858 177.374 306.562C177.583 306.705 177.858 306.991 177.99 307.189C178.749 306.463 179.42 305.506 179.97 304.329C180.311 304.967 180.575 305.561 180.751 306.056L181.455 305.572C181.224 304.956 180.839 304.186 180.377 303.383C180.905 301.997 181.29 300.358 181.499 298.499L180.971 298.334L180.828 298.367L177.572 298.367L177.572 299.159L180.619 299.159C180.454 300.347 180.179 301.469 179.827 302.481C179.332 301.678 178.782 300.886 178.254 300.193L177.627 300.611ZM190.607 301.645L196.36 301.645L196.36 303.614L190.607 303.614L190.607 301.645ZM191.74 305.352C191.883 306.067 191.971 306.991 191.971 307.541L192.807 307.431C192.796 306.903 192.686 305.99 192.521 305.286L191.74 305.352ZM194.017 305.363C194.336 306.045 194.666 306.969 194.787 307.519L195.59 307.31C195.458 306.76 195.106 305.869 194.765 305.198L194.017 305.363ZM196.261 305.275C196.811 305.968 197.427 306.947 197.68 307.552L198.461 307.222C198.186 306.617 197.548 305.682 196.998 304.989L196.261 305.275ZM189.947 305.055C189.606 305.869 189.045 306.76 188.462 307.266L189.21 307.629C189.815 307.046 190.376 306.122 190.728 305.264L189.947 305.055ZM189.826 300.864L189.826 304.384L197.185 304.384L197.185 300.864L193.83 300.864L193.83 299.467L198.01 299.467L198.01 298.686L193.83 298.686L193.83 297.52L193.005 297.52L193.005 300.864L189.826 300.864ZM200.177 298.312C200.848 298.862 201.695 299.643 202.091 300.149L202.652 299.522C202.234 299.038 201.365 298.279 200.694 297.762L200.177 298.312ZM205.842 297.498C205.303 298.818 204.17 300.435 202.465 301.568C202.652 301.7 202.905 301.997 203.026 302.184C204.401 301.216 205.413 300.006 206.128 298.807C206.942 300.083 208.119 301.359 209.164 302.096C209.296 301.887 209.56 301.59 209.747 301.447C208.603 300.743 207.283 299.357 206.535 298.059L206.733 297.652L205.842 297.498ZM207.866 302.063C207.085 302.635 205.886 303.306 204.885 303.801L204.885 301.568L204.06 301.568L204.06 306.078C204.06 307.079 204.39 307.343 205.578 307.343C205.831 307.343 207.602 307.343 207.866 307.343C208.922 307.343 209.175 306.925 209.285 305.396C209.054 305.352 208.713 305.209 208.526 305.066C208.46 306.364 208.372 306.595 207.822 306.595C207.426 306.595 205.93 306.595 205.633 306.595C204.995 306.595 204.885 306.518 204.885 306.089L204.885 304.637C205.985 304.142 207.393 303.416 208.416 302.756L207.866 302.063ZM201.09 307.42L201.09 307.409C201.244 307.178 201.552 306.936 203.356 305.484C203.257 305.33 203.125 305.011 203.048 304.791L201.959 305.638L201.959 300.974L199.44 300.974L199.44 301.777L201.167 301.777L201.167 305.759C201.167 306.298 200.826 306.661 200.639 306.826C200.771 306.947 201.002 307.244 201.09 307.42ZM211.122 298.301C211.716 298.818 212.464 299.533 212.827 299.995L213.399 299.423C213.036 298.972 212.266 298.279 211.661 297.806L211.122 298.301ZM213.872 306.43L213.872 307.2L220.582 307.2L220.582 306.43L217.964 306.43L217.964 302.8L220.142 302.8L220.142 302.019L217.964 302.019L217.964 299.137L220.34 299.137L220.34 298.367L214.246 298.367L214.246 299.137L217.117 299.137L217.117 306.43L215.632 306.43L215.632 301.128L214.818 301.128L214.818 306.43L213.872 306.43ZM210.55 300.974L210.55 301.766L212.101 301.766L212.101 305.583C212.101 306.166 211.694 306.595 211.485 306.771C211.628 306.892 211.892 307.167 211.991 307.332C212.156 307.112 212.453 306.87 214.334 305.396C214.235 305.231 214.081 304.901 214.004 304.692L212.904 305.528L212.904 300.974L210.55 300.974ZM224.003 307.376L224.751 306.738C224.069 305.935 223.079 304.934 222.287 304.296L221.572 304.923C222.353 305.561 223.299 306.507 224.003 307.376ZM232.385 306.177L232.528 307.024C233.617 306.782 235.08 306.474 236.466 306.155L236.4 305.396C234.926 305.693 233.408 306.012 232.385 306.177ZM232.616 302.063C232.781 301.986 233.056 301.931 234.453 301.766C233.958 302.459 233.496 303.009 233.287 303.218C232.924 303.614 232.671 303.878 232.418 303.933C232.517 304.153 232.649 304.56 232.693 304.736C232.957 304.593 233.353 304.505 236.422 303.944C236.4 303.768 236.367 303.438 236.378 303.218L233.925 303.614C234.816 302.657 235.685 301.491 236.433 300.303L235.674 299.841C235.465 300.237 235.223 300.633 234.97 301.018L233.507 301.139C234.156 300.226 234.794 299.06 235.289 297.938L234.442 297.586C234.002 298.873 233.21 300.237 232.957 300.589C232.726 300.941 232.528 301.194 232.33 301.238C232.429 301.469 232.572 301.887 232.616 302.063ZM239.029 297.509L239.029 298.994L236.488 298.994L236.488 299.786L239.029 299.786L239.029 301.502L236.763 301.502L236.763 302.294L242.186 302.294L242.186 301.502L239.876 301.502L239.876 299.786L242.373 299.786L242.373 298.994L239.876 298.994L239.876 297.509L239.029 297.509ZM237.049 303.416L237.049 307.629L237.852 307.629L237.852 307.156L241.086 307.156L241.086 307.585L241.911 307.585L241.911 303.416L237.049 303.416ZM237.852 306.408L237.852 304.164L241.086 304.164L241.086 306.408L237.852 306.408ZM244.177 298.312C244.848 298.862 245.695 299.643 246.091 300.149L246.652 299.522C246.234 299.038 245.365 298.279 244.694 297.762L244.177 298.312ZM249.842 297.498C249.303 298.818 248.17 300.435 246.465 301.568C246.652 301.7 246.905 301.997 247.026 302.184C248.401 301.216 249.413 300.006 250.128 298.807C250.942 300.083 252.119 301.359 253.164 302.096C253.296 301.887 253.56 301.59 253.747 301.447C252.603 300.743 251.283 299.357 250.535 298.059L250.733 297.652L249.842 297.498ZM251.866 302.063C251.085 302.635 249.886 303.306 248.885 303.801L248.885 301.568L248.06 301.568L248.06 306.078C248.06 307.079 248.39 307.343 249.578 307.343C249.831 307.343 251.602 307.343 251.866 307.343C252.922 307.343 253.175 306.925 253.285 305.396C253.054 305.352 252.713 305.209 252.526 305.066C252.46 306.364 252.372 306.595 251.822 306.595C251.426 306.595 249.93 306.595 249.633 306.595C248.995 306.595 248.885 306.518 248.885 306.089L248.885 304.637C249.985 304.142 251.393 303.416 252.416 302.756L251.866 302.063ZM245.09 307.42L245.09 307.409C245.244 307.178 245.552 306.936 247.356 305.484C247.257 305.33 247.125 305.011 247.048 304.791L245.959 305.638L245.959 300.974L243.44 300.974L243.44 301.777L245.167 301.777L245.167 305.759C245.167 306.298 244.826 306.661 244.639 306.826C244.771 306.947 245.002 307.244 245.09 307.42Z"></path></g><g opacity="0.85"><rect  x="40" y="340" width="310" height="70" rx="16"    fill="#FFFFFF" ></rect></g><circle cx="70" cy="375" r="12" stroke="rgba(176, 212, 240, 1.00)" stroke-width="1.5"      fill="#FFFFFF" ></circle><g ><path     fill="#2C5F8A"  d="M128.009 366.928L135.993 366.928L135.993 371.424L128.009 371.424L128.009 366.928ZM128.009 365.744L128.009 361.408L135.993 361.408L135.993 365.744L128.009 365.744ZM126.777 360.208L126.777 373.664L128.009 373.664L128.009 372.624L135.993 372.624L135.993 373.584L137.273 373.584L137.273 360.208L126.777 360.208ZM144.969 364.704L151.033 364.704L151.033 366.272L144.969 366.272L144.969 364.704ZM142.393 368.512L142.393 373.12L143.593 373.12L143.593 369.6L147.545 369.6L147.545 373.84L148.777 373.84L148.777 369.6L152.505 369.6L152.505 371.856C152.505 372.048 152.441 372.096 152.185 372.128C151.929 372.128 151.081 372.128 150.121 372.096C150.281 372.416 150.473 372.864 150.537 373.184C151.785 373.184 152.585 373.184 153.097 373.008C153.593 372.832 153.721 372.496 153.721 371.872L153.721 368.512L148.777 368.512L148.777 367.184L152.249 367.184L152.249 363.792L143.817 363.792L143.817 367.184L147.545 367.184L147.545 368.512L142.393 368.512ZM142.649 359.712C143.129 360.256 143.657 361.056 143.913 361.6L141.337 361.6L141.337 365.04L142.489 365.04L142.489 362.656L153.513 362.656L153.513 365.04L154.697 365.04L154.697 361.6L148.665 361.6L148.665 359.104L147.449 359.104L147.449 361.6L144.105 361.6L145.081 361.136C144.809 360.624 144.249 359.84 143.737 359.264L142.649 359.712ZM152.169 359.248C151.849 359.824 151.257 360.672 150.809 361.2L151.801 361.6C152.265 361.12 152.873 360.384 153.417 359.68L152.169 359.248ZM158.473 373.488C159.081 373.264 159.977 373.2 168.457 372.48C168.825 372.96 169.145 373.424 169.369 373.824L170.441 373.168C169.737 371.968 168.217 370.24 166.777 368.96L165.769 369.504C166.393 370.08 167.033 370.752 167.609 371.424L160.329 371.984C161.465 370.928 162.601 369.648 163.593 368.336L170.649 368.336L170.649 367.168L157.385 367.168L157.385 368.336L161.961 368.336C160.921 369.76 159.705 371.024 159.273 371.408C158.777 371.872 158.409 372.176 158.057 372.256C158.201 372.576 158.409 373.216 158.473 373.488ZM164.025 359.12C162.585 361.264 159.769 363.296 156.633 364.624C156.921 364.848 157.337 365.36 157.513 365.664C158.441 365.232 159.337 364.752 160.185 364.224L160.185 365.2L167.817 365.2L167.817 364.08L160.393 364.08C161.769 363.184 163.001 362.176 164.009 361.072C164.969 362.064 166.313 363.152 167.817 364.08C168.681 364.624 169.609 365.104 170.521 365.472C170.713 365.152 171.113 364.656 171.369 364.416C168.777 363.52 166.169 361.776 164.697 360.256L165.177 359.616L164.025 359.12ZM180.633 359.872C181.273 360.944 181.945 362.368 182.201 363.248L183.289 362.752C183.033 361.872 182.313 360.496 181.641 359.44L180.633 359.872ZM173.769 360.224C174.489 360.976 175.353 362.032 175.769 362.704L176.681 361.952C176.265 361.296 175.369 360.304 174.633 359.568L173.769 360.224ZM185.273 360.112C184.745 363.44 183.913 366.432 182.201 368.832C180.585 366.592 179.609 363.696 179.033 360.304L177.897 360.496C178.585 364.288 179.625 367.44 181.385 369.84C180.265 371.104 178.809 372.16 176.937 372.96C177.161 373.216 177.497 373.664 177.657 373.952C179.513 373.12 180.985 372.032 182.153 370.768C183.353 372.112 184.857 373.152 186.713 373.888C186.905 373.568 187.289 373.088 187.577 372.848C185.689 372.176 184.185 371.136 182.969 369.792C184.905 367.2 185.865 363.952 186.505 360.304L185.273 360.112ZM172.697 364.128L172.697 365.296L174.953 365.296L174.953 370.944C174.953 371.776 174.521 372.32 174.265 372.576C174.473 372.752 174.825 373.168 174.953 373.424C175.209 373.104 175.625 372.784 178.441 370.784C178.313 370.544 178.137 370.08 178.041 369.76L176.121 371.088L176.121 364.128L172.697 364.128Z"></path></g><g ><path     fill="#7BA8C9"  d="M105.269 390.671C105.797 391.243 106.413 392.035 106.688 392.53L107.216 392.134C106.93 391.661 106.303 390.891 105.775 390.33L105.269 390.671ZM103.223 383.213L103.223 390.088L103.883 390.088L103.883 383.851L106.27 383.851L106.27 390.066L106.963 390.066L106.963 383.213L103.223 383.213ZM109.449 382.619L109.449 391.683C109.449 391.848 109.394 391.892 109.251 391.892C109.108 391.892 108.635 391.903 108.107 391.881C108.206 392.09 108.305 392.409 108.338 392.607C109.064 392.607 109.515 392.585 109.779 392.464C110.043 392.343 110.153 392.123 110.153 391.672L110.153 382.619L109.449 382.619ZM107.832 383.576L107.832 390.165L108.503 390.165L108.503 383.576L107.832 383.576ZM104.752 384.588L104.752 388.339C104.752 389.67 104.554 391.144 102.882 392.156C103.003 392.255 103.234 392.497 103.311 392.64C105.115 391.573 105.39 389.824 105.39 388.339L105.39 384.588L104.752 384.588ZM102.222 382.531C101.793 384.214 101.111 385.897 100.297 387.03C100.429 387.217 100.649 387.624 100.726 387.8C101.012 387.404 101.287 386.931 101.54 386.425L101.54 392.607L102.233 392.607L102.233 384.863C102.508 384.159 102.75 383.433 102.948 382.707L102.222 382.531ZM112.749 385.82L112.749 389.241L116.049 389.241L116.049 390L112.397 390L112.397 390.66L116.049 390.66L116.049 391.617L111.572 391.617L111.572 392.288L121.439 392.288L121.439 391.617L116.874 391.617L116.874 390.66L120.746 390.66L120.746 390L116.874 390L116.874 389.241L120.328 389.241L120.328 385.82L116.874 385.82L116.874 385.149L121.384 385.149L121.384 384.467L116.874 384.467L116.874 383.62C118.161 383.521 119.371 383.389 120.317 383.224L119.877 382.586C118.139 382.894 115.026 383.103 112.463 383.169C112.54 383.334 112.628 383.631 112.639 383.818C113.717 383.796 114.894 383.752 116.049 383.686L116.049 384.467L111.638 384.467L111.638 385.149L116.049 385.149L116.049 385.82L112.749 385.82ZM113.552 387.8L116.049 387.8L116.049 388.636L113.552 388.636L113.552 387.8ZM116.874 387.8L119.492 387.8L119.492 388.636L116.874 388.636L116.874 387.8ZM113.552 386.414L116.049 386.414L116.049 387.239L113.552 387.239L113.552 386.414ZM116.874 386.414L119.492 386.414L119.492 387.239L116.874 387.239L116.874 386.414ZM122.891 383.202C123.496 383.752 124.233 384.555 124.574 385.061L125.212 384.533C124.849 384.049 124.09 383.29 123.485 382.751L122.891 383.202ZM129.92 382.751L129.92 384.522L128.105 384.522L128.105 382.751L127.291 382.751L127.291 384.522L125.729 384.522L125.729 385.314L127.291 385.314L127.291 386.601L127.269 387.283L125.663 387.283L125.663 388.075L127.181 388.075C127.016 388.911 126.653 389.725 125.828 390.352C126.004 390.473 126.312 390.781 126.422 390.946C127.401 390.198 127.83 389.131 127.995 388.075L129.92 388.075L129.92 390.88L130.745 390.88L130.745 388.075L132.384 388.075L132.384 387.283L130.745 387.283L130.745 385.314L132.164 385.314L132.164 384.522L130.745 384.522L130.745 382.751L129.92 382.751ZM128.105 385.314L129.92 385.314L129.92 387.283L128.083 387.283L128.105 386.612L128.105 385.314ZM124.882 386.502L122.55 386.502L122.55 387.272L124.068 387.272L124.068 390.429C123.573 390.616 123.001 391.1 122.418 391.738L122.968 392.486C123.54 391.738 124.079 391.089 124.453 391.089C124.695 391.089 125.047 391.452 125.509 391.738C126.268 392.222 127.192 392.343 128.556 392.343C129.601 392.343 131.581 392.277 132.362 392.233C132.373 391.991 132.505 391.595 132.604 391.375C131.537 391.496 129.876 391.584 128.578 391.584C127.335 391.584 126.411 391.507 125.685 391.056C125.322 390.825 125.091 390.616 124.882 390.495L124.882 386.502ZM137.246 384.676L137.246 385.633L135.475 385.633L135.475 386.315L137.246 386.315L137.246 388.141L141.525 388.141L141.525 386.315L143.307 386.315L143.307 385.633L141.525 385.633L141.525 384.676L140.711 384.676L140.711 385.633L138.038 385.633L138.038 384.676L137.246 384.676ZM140.711 386.315L140.711 387.481L138.038 387.481L138.038 386.315L140.711 386.315ZM141.327 389.527C140.843 390.099 140.161 390.55 139.369 390.902C138.588 390.539 137.95 390.077 137.488 389.527L141.327 389.527ZM135.629 388.845L135.629 389.527L137.059 389.527L136.685 389.681C137.136 390.297 137.741 390.814 138.467 391.243C137.433 391.573 136.278 391.771 135.112 391.87C135.233 392.057 135.387 392.376 135.442 392.574C136.817 392.42 138.159 392.145 139.336 391.683C140.425 392.167 141.712 392.475 143.098 392.64C143.197 392.431 143.406 392.101 143.582 391.925C142.372 391.815 141.239 391.595 140.26 391.254C141.228 390.737 142.031 390.033 142.537 389.087L142.02 388.812L141.877 388.845L135.629 388.845ZM138.203 382.663C138.357 382.949 138.522 383.301 138.643 383.609L134.386 383.609L134.386 386.612C134.386 388.251 134.309 390.605 133.407 392.266C133.616 392.332 133.979 392.508 134.144 392.64C135.068 390.902 135.211 388.361 135.211 386.601L135.211 384.39L143.428 384.39L143.428 383.609L139.578 383.609C139.446 383.257 139.226 382.817 139.028 382.465L138.203 382.663ZM146.728 385.028L146.728 385.743L152.316 385.743L152.316 385.028L146.728 385.028ZM148.048 387.602L150.952 387.602L150.952 389.692L148.048 389.692L148.048 387.602ZM147.289 386.898L147.289 391.199L148.048 391.199L148.048 390.396L151.722 390.396L151.722 386.898L147.289 386.898ZM144.968 383.092L144.968 392.662L145.771 392.662L145.771 383.873L153.24 383.873L153.24 391.584C153.24 391.782 153.174 391.848 152.976 391.859C152.789 391.859 152.151 391.87 151.458 391.848C151.59 392.057 151.711 392.431 151.755 392.651C152.701 392.651 153.262 392.629 153.592 392.497C153.933 392.365 154.054 392.101 154.054 391.595L154.054 383.092L144.968 383.092ZM158.201 387.14C157.684 388.042 156.804 388.933 155.979 389.516C156.166 389.659 156.463 389.978 156.595 390.143C157.442 389.461 158.388 388.427 158.993 387.404L158.201 387.14ZM157.31 383.378L157.31 385.875L155.66 385.875L155.66 386.667L160.115 386.667L160.115 390.154L160.907 390.154C159.521 390.979 157.739 391.496 155.561 391.793C155.737 392.013 155.913 392.343 155.99 392.585C160.203 391.936 163.008 390.462 164.449 387.602L163.668 387.239C163.063 388.449 162.172 389.395 160.984 390.11L160.984 386.667L165.307 386.667L165.307 385.875L161.061 385.875L161.061 384.467L164.306 384.467L164.306 383.697L161.061 383.697L161.061 382.52L160.192 382.52L160.192 385.875L158.146 385.875L158.146 383.378L157.31 383.378ZM169.003 392.376L169.751 391.738C169.069 390.935 168.079 389.934 167.287 389.296L166.572 389.923C167.353 390.561 168.299 391.507 169.003 392.376ZM180.773 391.419L180.773 392.211L187.384 392.211L187.384 391.419L184.447 391.419L184.447 388.02L187.56 388.02L187.56 387.228L184.447 387.228L184.447 384.159C185.437 383.972 186.372 383.741 187.12 383.488L186.504 382.795C185.151 383.29 182.753 383.719 180.707 383.994C180.795 384.181 180.916 384.489 180.949 384.687C181.807 384.588 182.72 384.467 183.611 384.313L183.611 387.228L180.344 387.228L180.344 388.02L183.611 388.02L183.611 391.419L180.773 391.419ZM180.245 382.52C179.552 384.247 178.43 385.941 177.242 387.019C177.396 387.217 177.66 387.646 177.748 387.844C178.188 387.415 178.628 386.909 179.046 386.348L179.046 392.64L179.86 392.64L179.86 385.127C180.311 384.379 180.718 383.576 181.037 382.773L180.245 382.52ZM192.906 387.569C192.862 387.965 192.785 388.328 192.697 388.658L189.386 388.658L189.386 389.384L192.444 389.384C191.806 390.803 190.585 391.54 188.627 391.914C188.77 392.079 189.001 392.442 189.078 392.618C191.256 392.101 192.62 391.177 193.324 389.384L196.668 389.384C196.481 390.836 196.261 391.507 196.008 391.716C195.887 391.815 195.755 391.826 195.524 391.826C195.26 391.826 194.545 391.815 193.852 391.749C193.995 391.958 194.094 392.266 194.116 392.486C194.776 392.519 195.425 392.53 195.766 392.519C196.162 392.497 196.415 392.431 196.657 392.211C197.042 391.87 197.284 391.034 197.526 389.032C197.548 388.911 197.57 388.658 197.57 388.658L193.555 388.658C193.643 388.339 193.709 387.998 193.764 387.635L192.906 387.569ZM196.195 384.357C195.546 385.017 194.644 385.545 193.599 385.963C192.73 385.589 192.037 385.116 191.564 384.511L191.718 384.357L196.195 384.357ZM192.202 382.509C191.63 383.466 190.541 384.599 188.99 385.391C189.166 385.523 189.397 385.82 189.507 386.007C190.068 385.699 190.574 385.347 191.025 384.984C191.465 385.501 192.015 385.941 192.664 386.293C191.355 386.711 189.903 386.975 188.506 387.107C188.638 387.294 188.781 387.624 188.836 387.833C190.442 387.635 192.103 387.294 193.588 386.733C194.864 387.25 196.404 387.558 198.109 387.701C198.208 387.47 198.395 387.14 198.571 386.953C197.097 386.876 195.722 386.667 194.567 386.315C195.788 385.721 196.822 384.951 197.482 383.95L196.987 383.609L196.844 383.653L192.367 383.653C192.631 383.334 192.862 383.004 193.06 382.674L192.202 382.509ZM206.403 382.718L205.644 383.026C206.425 384.654 207.745 386.447 208.9 387.437C209.065 387.217 209.362 386.909 209.571 386.744C208.427 385.886 207.085 384.203 206.403 382.718ZM202.564 382.74C201.926 384.423 200.804 385.952 199.484 386.898C199.682 387.052 200.045 387.371 200.188 387.536C200.485 387.294 200.771 387.03 201.057 386.733L201.057 387.492L203.18 387.492C202.927 389.362 202.322 391.111 199.715 391.969C199.902 392.145 200.122 392.464 200.221 392.673C203.026 391.661 203.752 389.67 204.049 387.492L207.041 387.492C206.92 390.242 206.755 391.32 206.48 391.606C206.37 391.716 206.238 391.738 206.007 391.738C205.754 391.738 205.072 391.738 204.357 391.672C204.511 391.903 204.61 392.255 204.632 392.497C205.325 392.541 205.996 392.552 206.37 392.519C206.744 392.486 206.997 392.409 207.228 392.134C207.613 391.705 207.756 390.451 207.921 387.074C207.932 386.964 207.932 386.678 207.932 386.678L201.112 386.678C202.047 385.677 202.872 384.39 203.444 382.982L202.564 382.74ZM216.094 383.015L216.094 383.807L219.438 383.807L219.438 386.48L216.127 386.48L216.127 391.254C216.127 392.266 216.435 392.53 217.458 392.53C217.667 392.53 219.075 392.53 219.306 392.53C220.307 392.53 220.549 392.024 220.648 390.231C220.417 390.176 220.076 390.022 219.878 389.879C219.823 391.463 219.746 391.749 219.251 391.749C218.943 391.749 217.777 391.749 217.546 391.749C217.04 391.749 216.941 391.672 216.941 391.254L216.941 387.272L219.438 387.272L219.438 388.02L220.23 388.02L220.23 383.015L216.094 383.015ZM211.573 390.022L214.62 390.022L214.62 391.166L211.573 391.166L211.573 390.022ZM211.573 389.406L211.573 385.677L212.321 385.677L212.321 386.546C212.321 387.14 212.211 387.855 211.573 388.416C211.683 388.482 211.859 388.647 211.936 388.746C212.629 388.108 212.783 387.228 212.783 386.557L212.783 385.677L213.399 385.677L213.399 387.756C213.399 388.284 213.531 388.383 213.971 388.383C214.048 388.383 214.422 388.383 214.51 388.383L214.62 388.383L214.62 389.406L211.573 389.406ZM210.627 382.949L210.627 383.686L212.211 383.686L212.211 384.962L210.902 384.962L210.902 392.596L211.573 392.596L211.573 391.837L214.62 391.837L214.62 392.442L215.302 392.442L215.302 384.962L214.059 384.962L214.059 383.686L215.555 383.686L215.555 382.949L210.627 382.949ZM212.805 384.962L212.805 383.686L213.454 383.686L213.454 384.962L212.805 384.962ZM213.872 385.677L214.62 385.677L214.62 387.899L214.587 387.877C214.565 387.899 214.543 387.91 214.422 387.91C214.345 387.91 214.07 387.91 214.015 387.91C213.883 387.91 213.872 387.888 213.872 387.745L213.872 385.677ZM224.003 392.376L224.751 391.738C224.069 390.935 223.079 389.934 222.287 389.296L221.572 389.923C222.353 390.561 223.299 391.507 224.003 392.376ZM236.565 389.516C237.082 390.11 237.643 390.935 237.874 391.474L238.578 391.056C238.336 390.528 237.753 389.736 237.247 389.164L236.565 389.516ZM234.805 382.542C234.332 383.323 233.342 384.247 232.484 384.808C232.605 384.973 232.825 385.303 232.913 385.49C233.881 384.83 234.937 383.807 235.575 382.85L234.805 382.542ZM238.666 382.575L238.666 383.95L236.246 383.95L236.246 384.698L238.666 384.698L238.666 386.095L235.597 386.095L235.597 386.854L240.217 386.854L240.217 388.086L235.729 388.086L235.729 388.845L240.217 388.845L240.217 391.639C240.217 391.782 240.162 391.837 239.986 391.837C239.81 391.848 239.194 391.859 238.534 391.826C238.644 392.057 238.776 392.398 238.809 392.618C239.667 392.618 240.228 392.618 240.58 392.486C240.921 392.354 241.031 392.123 241.031 391.639L241.031 388.845L242.505 388.845L242.505 388.086L241.031 388.086L241.031 386.854L242.582 386.854L242.582 386.095L239.491 386.095L239.491 384.698L242.01 384.698L242.01 383.95L239.491 383.95L239.491 382.575L238.666 382.575ZM234.992 384.973C234.365 386.106 233.309 387.239 232.319 387.965C232.462 388.163 232.693 388.592 232.759 388.779C233.177 388.427 233.617 388.009 234.035 387.558L234.035 392.629L234.827 392.629L234.827 386.612C235.157 386.172 235.465 385.71 235.718 385.259L234.992 384.973ZM245.013 386.315C244.705 387.283 244.155 388.504 243.495 389.285L244.254 389.725C244.892 388.889 245.431 387.602 245.761 386.623L245.013 386.315ZM251.558 386.469C252.064 387.58 252.581 389.032 252.746 389.923L253.56 389.626C253.373 388.735 252.834 387.305 252.317 386.216L251.558 386.469ZM247.279 382.531L247.279 384.445L247.279 384.544L243.957 384.544L243.957 385.369L247.257 385.369C247.158 387.514 246.553 390.121 243.462 392.024C243.671 392.167 243.99 392.486 244.133 392.684C247.422 390.616 248.038 387.734 248.137 385.369L250.381 385.369C250.227 389.483 250.051 391.078 249.699 391.441C249.578 391.584 249.457 391.617 249.226 391.606C248.951 391.606 248.269 391.606 247.532 391.54C247.686 391.782 247.796 392.156 247.818 392.42C248.489 392.442 249.193 392.475 249.589 392.431C249.996 392.387 250.26 392.288 250.513 391.958C250.953 391.43 251.118 389.758 251.294 385.006C251.294 384.874 251.305 384.544 251.305 384.544L248.159 384.544L248.159 384.456L248.159 382.531L247.279 382.531Z"></path></g><rect  x="40" y="450" width="310" height="50" rx="25"    fill="#5B9BD5" ></rect><g ><path     fill="#FFFFFF"  d="M187.832 470.072C187.128 472.04 185.944 473.896 184.568 475.112C184.792 475.336 185.16 475.8 185.288 476.024C185.56 475.768 185.832 475.496 186.088 475.192L186.088 478.472C186.088 480.28 185.912 482.568 184.36 484.2C184.632 484.328 185.096 484.664 185.288 484.856C186.328 483.768 186.808 482.344 187.032 480.936L189.32 480.936L189.32 484.264L190.376 484.264L190.376 480.936L192.68 480.936L192.68 483.4C192.68 483.576 192.616 483.64 192.424 483.656C192.248 483.656 191.608 483.656 190.92 483.64C191.064 483.944 191.192 484.408 191.224 484.712C192.216 484.712 192.904 484.696 193.304 484.52C193.704 484.328 193.832 484.008 193.832 483.4L193.832 474.2L190.904 474.2C191.464 473.512 192.056 472.664 192.44 471.928L191.672 471.4L191.48 471.448L188.44 471.448C188.6 471.08 188.744 470.712 188.888 470.344L187.832 470.072ZM189.32 479.88L187.16 479.88C187.192 479.384 187.208 478.92 187.208 478.472L187.208 477.976L189.32 477.976L189.32 479.88ZM190.376 479.88L190.376 477.976L192.68 477.976L192.68 479.88L190.376 479.88ZM189.32 477.016L187.208 477.016L187.208 475.24L189.32 475.24L189.32 477.016ZM190.376 477.016L190.376 475.24L192.68 475.24L192.68 477.016L190.376 477.016ZM186.904 474.2L186.872 474.2C187.256 473.656 187.624 473.064 187.944 472.456L190.824 472.456C190.472 473.064 190.04 473.72 189.624 474.2L186.904 474.2ZM179.896 470.968L179.896 472.072L181.8 472.072C181.384 474.52 180.68 476.776 179.56 478.312C179.752 478.632 180.04 479.304 180.12 479.608C180.408 479.224 180.68 478.776 180.936 478.312L180.936 484.104L181.976 484.104L181.976 482.824L184.776 482.824L184.776 475.896L181.976 475.896C182.376 474.696 182.712 473.4 182.952 472.072L185.288 472.072L185.288 470.968L179.896 470.968ZM181.976 476.984L183.752 476.984L183.752 481.752L181.976 481.752L181.976 476.984ZM198.584 477.512C198.248 480.408 197.368 482.696 195.576 484.088C195.864 484.264 196.36 484.664 196.552 484.888C197.624 483.96 198.392 482.744 198.952 481.256C200.424 484.024 202.824 484.584 206.168 484.584L209.912 484.584C209.96 484.232 210.184 483.656 210.36 483.368C209.576 483.384 206.824 483.384 206.232 483.384C205.288 483.384 204.408 483.336 203.608 483.192L203.608 479.96L208.376 479.96L208.376 478.84L203.608 478.84L203.608 476.216L207.72 476.216L207.72 475.048L198.376 475.048L198.376 476.216L202.36 476.216L202.36 482.856C201.048 482.36 200.04 481.416 199.416 479.736C199.576 479.08 199.704 478.376 199.8 477.64L198.584 477.512ZM201.816 470.344C202.088 470.824 202.376 471.432 202.552 471.928L196.312 471.928L196.312 475.416L197.496 475.416L197.496 473.064L208.456 473.064L208.456 475.416L209.688 475.416L209.688 471.928L203.928 471.928C203.768 471.4 203.352 470.6 203 470.008L201.816 470.344Z"></path></g></g><defs><clipPath id="clip-path-v30aBBSsdjSkPmuLE3Plo"><path d="M0 844L390 844L390 0L0 0L0 844Z" fill="white"/></clipPath></defs></svg>