<svg xmlns="http://www.w3.org/2000/svg" xmlns:xlink="http://www.w3.org/1999/xlink" width="390" height="844" viewBox="0 0 390 844" fill="none"><g  clip-path="url(#clip-path-qaoUcX8DiNKyCSRz-UvhZ)"><rect x="0" y="0" width="390" height="54"   fill="#E8F4FD" ></rect><g ><path     fill="#333333"  d="M33.66 38.61C35.775 38.61 37.755 36.84 37.755 32.505C37.755 28.845 36.045 27.15 33.93 27.15C32.145 27.15 30.63 28.59 30.63 30.78C30.63 33.09 31.89 34.26 33.735 34.26C34.575 34.26 35.505 33.765 36.135 32.985C36.045 36.105 34.92 37.17 33.57 37.17C32.88 37.17 32.205 36.855 31.77 36.345L30.825 37.425C31.47 38.085 32.37 38.61 33.66 38.61ZM36.12 31.65C35.49 32.61 34.71 33 34.035 33C32.88 33 32.25 32.175 32.25 30.78C32.25 29.34 33 28.485 33.96 28.485C35.145 28.485 35.955 29.475 36.12 31.65ZM40.785 32.7C41.445 32.7 41.955 32.205 41.955 31.5C41.955 30.78 41.445 30.27 40.785 30.27C40.14 30.27 39.63 30.78 39.63 31.5C39.63 32.205 40.14 32.7 40.785 32.7ZM40.785 38.61C41.445 38.61 41.955 38.085 41.955 37.38C41.955 36.675 41.445 36.165 40.785 36.165C40.14 36.165 39.63 36.675 39.63 37.38C39.63 38.085 40.14 38.61 40.785 38.61ZM48.105 38.4L49.725 38.4L49.725 35.43L51.12 35.43L51.12 34.08L49.725 34.08L49.725 27.345L47.715 27.345L43.32 34.275L43.32 35.43L48.105 35.43L48.105 38.4ZM48.105 34.08L45.075 34.08L47.235 30.765C47.55 30.195 47.85 29.625 48.12 29.055L48.18 29.055C48.15 29.67 48.105 30.6 48.105 31.2L48.105 34.08ZM52.845 38.4L59.16 38.4L59.16 36.975L57.015 36.975L57.015 27.345L55.71 27.345C55.065 27.75 54.33 28.02 53.295 28.2L53.295 29.295L55.275 29.295L55.275 36.975L52.845 36.975L52.845 38.4Z"></path></g><g ><path     fill="#333333"  d="M341.5 40.2L353.5 40.2L353.5 25.2L341.5 25.2L341.5 40.2ZM347.5 32.085L342.73 25.95L352.27 25.95L347.5 32.085ZM347.98 32.7L352.75 26.565L352.75 38.835L347.98 32.7ZM342.73 39.45L347.5 33.315L352.27 39.45L342.73 39.45ZM342.25 26.565L347.02 32.7L342.25 38.835L342.25 26.565ZM356.5 40.2L368.5 40.2L368.5 25.2L356.5 25.2L356.5 40.2ZM362.5 32.085L357.73 25.95L367.27 25.95L362.5 32.085ZM362.98 32.7L367.75 26.565L367.75 38.835L362.98 32.7ZM357.73 39.45L362.5 33.315L367.27 39.45L357.73 39.45ZM357.25 26.565L362.02 32.7L357.25 38.835L357.25 26.565ZM371.5 40.2L383.5 40.2L383.5 25.2L371.5 25.2L371.5 40.2ZM377.5 32.085L372.73 25.95L382.27 25.95L377.5 32.085ZM377.98 32.7L382.75 26.565L382.75 38.835L377.98 32.7ZM372.73 39.45L377.5 33.315L382.27 39.45L372.73 39.45ZM372.25 26.565L377.02 32.7L372.25 38.835L372.25 26.565Z"></path></g><rect x="0" y="54" width="390" height="60"   fill="#E8F4FD" ></rect><g ></g><g ><path     fill="#2C5F8A"  d="M160.17 83.254C161.232 84.19 162.6 85.504 163.23 86.35L164.22 85.45C163.554 84.622 162.168 83.362 161.106 82.48L160.17 83.254ZM163.608 88.51L159.774 88.51L159.774 89.788L162.312 89.788L162.312 94.9C161.52 95.224 160.62 96.034 159.702 97.024L160.548 98.14C161.466 96.916 162.348 95.872 162.96 95.872C163.374 95.872 163.986 96.484 164.724 96.934C165.984 97.69 167.478 97.906 169.71 97.906C171.654 97.906 174.804 97.816 176.064 97.726C176.082 97.366 176.298 96.754 176.442 96.412C174.588 96.592 171.852 96.736 169.728 96.736C167.73 96.736 166.2 96.61 164.994 95.872C164.364 95.458 163.968 95.134 163.608 94.936L163.608 88.51ZM165.552 82.426L165.552 83.488L173.166 83.488C172.428 84.046 171.51 84.604 170.61 85.036C169.728 84.64 168.792 84.262 167.982 83.974L167.118 84.748C168.234 85.162 169.548 85.738 170.646 86.278L165.534 86.278L165.534 95.602L166.812 95.602L166.812 92.614L169.854 92.614L169.854 95.53L171.078 95.53L171.078 92.614L174.21 92.614L174.21 94.252C174.21 94.468 174.138 94.54 173.904 94.558C173.688 94.558 172.932 94.558 172.068 94.54C172.23 94.846 172.392 95.296 172.446 95.638C173.652 95.638 174.426 95.638 174.894 95.44C175.362 95.242 175.506 94.918 175.506 94.252L175.506 86.278L173.148 86.278C172.788 86.062 172.338 85.828 171.816 85.576C173.166 84.874 174.534 83.938 175.506 83.002L174.66 82.354L174.39 82.426L165.552 82.426ZM174.21 87.322L174.21 88.906L171.078 88.906L171.078 87.322L174.21 87.322ZM166.812 89.914L169.854 89.914L169.854 91.552L166.812 91.552L166.812 89.914ZM166.812 88.906L166.812 87.322L169.854 87.322L169.854 88.906L166.812 88.906ZM174.21 89.914L174.21 91.552L171.078 91.552L171.078 89.914L174.21 89.914ZM186.846 83.326L186.846 97.798L188.16 97.798L188.16 96.376L191.976 96.376L191.976 97.6L193.344 97.6L193.344 83.326L186.846 83.326ZM188.16 95.098L188.16 84.604L191.976 84.604L191.976 95.098L188.16 95.098ZM179.826 81.742C179.412 83.956 178.656 86.098 177.594 87.484C177.9 87.682 178.458 88.06 178.692 88.276C179.232 87.502 179.736 86.512 180.15 85.432L181.536 85.432L181.536 88.384L181.536 89.032L177.81 89.032L177.81 90.328L181.446 90.328C181.212 92.722 180.348 95.314 177.612 97.258C177.882 97.456 178.386 97.996 178.548 98.266C180.618 96.79 181.716 94.864 182.292 92.92C183.264 94.036 184.686 95.746 185.298 96.628L186.216 95.476C185.676 94.864 183.48 92.398 182.616 91.552C182.706 91.138 182.76 90.724 182.796 90.328L186.27 90.328L186.27 89.032L182.868 89.032L182.886 88.402L182.886 85.432L185.748 85.432L185.748 84.172L180.582 84.172C180.798 83.47 180.978 82.75 181.14 82.012L179.826 81.742ZM197.196 82.912C198.15 83.758 199.356 84.964 199.914 85.738L200.832 84.784C200.256 84.046 199.05 82.876 198.078 82.084L197.196 82.912ZM195.774 87.412L195.774 88.708L198.312 88.708L198.312 95.17C198.312 95.998 197.754 96.592 197.412 96.808C197.664 97.078 198.024 97.636 198.15 97.96C198.42 97.6 198.906 97.24 202.11 94.864C201.948 94.594 201.732 94.09 201.624 93.73L199.626 95.188L199.626 87.412L195.774 87.412ZM203.838 82.408L203.838 84.406C203.838 85.738 203.442 87.232 201.066 88.312C201.318 88.528 201.786 89.05 201.948 89.32C204.54 88.078 205.116 86.134 205.116 84.442L205.116 83.668L208.302 83.668L208.302 86.566C208.302 87.934 208.554 88.438 209.814 88.438C210.012 88.438 210.894 88.438 211.164 88.438C211.524 88.438 211.902 88.42 212.118 88.348C212.064 88.042 212.028 87.52 211.992 87.178C211.776 87.232 211.398 87.268 211.146 87.268C210.912 87.268 210.102 87.268 209.904 87.268C209.616 87.268 209.58 87.106 209.58 86.584L209.58 82.408L203.838 82.408ZM209.49 90.976C208.842 92.416 207.87 93.604 206.682 94.558C205.476 93.568 204.522 92.362 203.874 90.976L209.49 90.976ZM201.912 89.716L201.912 90.976L202.848 90.976L202.596 91.066C203.316 92.722 204.342 94.162 205.62 95.332C204.27 96.196 202.722 96.79 201.138 97.15C201.39 97.438 201.678 97.978 201.786 98.32C203.532 97.852 205.188 97.168 206.646 96.178C208.014 97.186 209.652 97.924 211.506 98.374C211.668 97.996 212.046 97.456 212.334 97.168C210.606 96.808 209.058 96.178 207.744 95.332C209.274 94 210.498 92.272 211.218 90.022L210.39 89.662L210.156 89.716L201.912 89.716ZM224.718 83.416L227.76 83.416L227.76 85.036L224.718 85.036L224.718 83.416ZM220.506 83.416L223.476 83.416L223.476 85.036L220.506 85.036L220.506 83.416ZM216.402 83.416L219.264 83.416L219.264 85.036L216.402 85.036L216.402 83.416ZM216.42 89.194L216.42 96.772L214.026 96.772L214.026 97.78L230.01 97.78L230.01 96.772L227.544 96.772L227.544 89.194L221.91 89.194L222.162 88.132L229.596 88.132L229.596 87.07L222.36 87.07L222.558 86.026L229.11 86.026L229.11 82.444L215.106 82.444L215.106 86.026L221.172 86.026L221.028 87.07L214.224 87.07L214.224 88.132L220.848 88.132L220.632 89.194L216.42 89.194ZM217.716 96.772L217.716 95.656L226.212 95.656L226.212 96.772L217.716 96.772ZM217.716 91.93L226.212 91.93L226.212 92.974L217.716 92.974L217.716 91.93ZM217.716 91.12L217.716 90.112L226.212 90.112L226.212 91.12L217.716 91.12ZM217.716 93.784L226.212 93.784L226.212 94.846L217.716 94.846L217.716 93.784Z"></path></g><g opacity="0.9"><rect  x="40" y="140" width="310" height="60" rx="14"    fill="#FFFFFF" ></rect></g><g ><path     fill="#2C5F8A"  d="M61.215 165.42C61.335 165.3 61.8 165.21 62.31 165.21L63.645 165.21L63.645 167.385L60.6 167.895L60.84 168.99L63.645 168.45L63.645 171.54L64.725 171.54L64.725 168.24L66.75 167.835L66.705 166.86L64.725 167.205L64.725 165.21L66.27 165.21L66.27 164.19L64.725 164.19L64.725 161.895L63.645 161.895L63.645 164.19L62.175 164.19C62.655 163.14 63.12 161.895 63.51 160.605L66.255 160.605L66.255 159.555L63.825 159.555C63.96 159.045 64.08 158.535 64.2 158.025L63.09 157.8C63 158.385 62.88 158.97 62.745 159.555L60.69 159.555L60.69 160.605L62.475 160.605C62.13 161.835 61.77 162.855 61.605 163.23C61.335 163.875 61.125 164.37 60.87 164.43C61.005 164.7 61.155 165.21 61.215 165.42ZM66.39 162.375L66.39 163.44L68.595 163.44C68.28 164.49 67.965 165.465 67.695 166.23L72.015 166.23C71.49 166.98 70.845 167.88 70.23 168.675C69.705 168.33 69.18 168 68.685 167.715L67.965 168.435C69.495 169.35 71.28 170.73 72.15 171.615L72.9 170.745C72.45 170.31 71.805 169.8 71.07 169.26C72.03 168.03 73.065 166.605 73.815 165.495L73.02 165.105L72.84 165.18L69.24 165.18L69.75 163.44L74.385 163.44L74.385 162.375L70.065 162.375L70.545 160.605L73.845 160.605L73.845 159.555L70.83 159.555L71.25 157.95L70.125 157.8L69.69 159.555L66.975 159.555L66.975 160.605L69.405 160.605L68.91 162.375L66.39 162.375ZM76.17 158.61L76.17 161.55L77.295 161.55L77.295 159.66L87.675 159.66L87.675 161.55L88.83 161.55L88.83 158.61L76.17 158.61ZM76.365 167.235L76.365 168.27L84.87 168.27L84.87 167.235L76.365 167.235ZM79.5 159.96C79.17 161.73 78.63 164.175 78.225 165.615L86.175 165.615C85.89 168.57 85.56 169.86 85.125 170.235C84.96 170.385 84.78 170.4 84.435 170.4C84.045 170.4 83.04 170.385 81.99 170.295C82.2 170.595 82.335 171.045 82.365 171.36C83.34 171.42 84.315 171.435 84.81 171.405C85.38 171.375 85.725 171.27 86.07 170.925C86.655 170.355 86.985 168.855 87.345 165.12C87.375 164.955 87.39 164.595 87.39 164.595L79.65 164.595L80.085 162.69L86.985 162.69L86.985 161.7L80.295 161.7L80.625 160.08L79.5 159.96ZM93.405 162.21L93.405 163.245L101.565 163.245L101.565 162.21L93.405 162.21ZM90.84 165L90.84 166.05L94.875 166.05C94.695 168.72 94.08 170.025 90.66 170.685C90.87 170.91 91.17 171.33 91.26 171.615C95.01 170.82 95.805 169.185 96.03 166.05L98.67 166.05L98.67 169.815C98.67 171.015 99.015 171.36 100.41 171.36C100.695 171.36 102.405 171.36 102.705 171.36C103.905 171.36 104.22 170.835 104.355 168.78C104.055 168.69 103.575 168.51 103.32 168.33C103.275 170.055 103.185 170.325 102.615 170.325C102.225 170.325 100.815 170.325 100.515 170.325C99.9 170.325 99.795 170.25 99.795 169.815L99.795 166.05L104.145 166.05L104.145 165L90.84 165ZM96.315 157.995C96.585 158.46 96.87 159.03 97.065 159.525L91.23 159.525L91.23 162.855L92.355 162.855L92.355 160.605L102.57 160.605L102.57 162.855L103.74 162.855L103.74 159.525L98.4 159.525C98.19 158.97 97.8 158.22 97.44 157.665L96.315 157.995ZM113.16 157.815C113.16 158.67 113.19 159.525 113.235 160.35L106.92 160.35L106.92 164.565C106.92 166.515 106.785 169.11 105.54 170.955C105.81 171.09 106.29 171.48 106.485 171.705C107.865 169.725 108.09 166.695 108.09 164.58L108.09 164.475L110.835 164.475C110.775 167.055 110.7 168.015 110.505 168.24C110.385 168.375 110.25 168.405 110.025 168.405C109.77 168.405 109.125 168.405 108.435 168.33C108.615 168.615 108.735 169.065 108.75 169.38C109.485 169.425 110.175 169.425 110.565 169.395C110.97 169.35 111.225 169.245 111.465 168.96C111.78 168.555 111.855 167.28 111.93 163.905C111.93 163.755 111.945 163.425 111.945 163.425L108.09 163.425L108.09 161.445L113.31 161.445C113.49 163.875 113.85 166.095 114.42 167.82C113.43 168.96 112.275 169.89 110.94 170.595C111.18 170.82 111.585 171.285 111.765 171.525C112.92 170.835 113.955 170.01 114.87 169.02C115.56 170.565 116.46 171.495 117.615 171.495C118.77 171.495 119.19 170.745 119.385 168.18C119.085 168.075 118.665 167.82 118.41 167.565C118.32 169.56 118.14 170.34 117.705 170.34C116.94 170.34 116.265 169.485 115.71 168.015C116.82 166.575 117.705 164.865 118.35 162.9L117.225 162.615C116.745 164.13 116.1 165.495 115.29 166.695C114.9 165.24 114.615 163.455 114.45 161.445L119.265 161.445L119.265 160.35L114.39 160.35C114.345 159.525 114.33 158.685 114.33 157.815L113.16 157.815ZM115.065 158.55C116.025 159.045 117.18 159.81 117.75 160.35L118.455 159.57C117.87 159.06 116.685 158.325 115.74 157.86L115.065 158.55ZM120.975 159.045C121.86 159.825 123 160.92 123.525 161.625L124.35 160.875C123.795 160.185 122.64 159.135 121.755 158.4L120.975 159.045ZM123.84 163.425L120.645 163.425L120.645 164.49L122.76 164.49L122.76 168.75C122.1 169.02 121.35 169.695 120.585 170.52L121.29 171.45C122.055 170.43 122.79 169.56 123.3 169.56C123.645 169.56 124.155 170.07 124.77 170.445C125.82 171.075 127.065 171.255 128.925 171.255C130.545 171.255 133.17 171.18 134.22 171.105C134.235 170.805 134.415 170.295 134.535 170.01C132.99 170.16 130.71 170.28 128.94 170.28C127.275 170.28 126 170.175 124.995 169.56C124.47 169.215 124.14 168.945 123.84 168.78L123.84 163.425ZM125.46 158.355L125.46 159.24L131.805 159.24C131.19 159.705 130.425 160.17 129.675 160.53C128.94 160.2 128.16 159.885 127.485 159.645L126.765 160.29C127.695 160.635 128.79 161.115 129.705 161.565L125.445 161.565L125.445 169.335L126.51 169.335L126.51 166.845L129.045 166.845L129.045 169.275L130.065 169.275L130.065 166.845L132.675 166.845L132.675 168.21C132.675 168.39 132.615 168.45 132.42 168.465C132.24 168.465 131.61 168.465 130.89 168.45C131.025 168.705 131.16 169.08 131.205 169.365C132.21 169.365 132.855 169.365 133.245 169.2C133.635 169.035 133.755 168.765 133.755 168.21L133.755 161.565L131.79 161.565C131.49 161.385 131.115 161.19 130.68 160.98C131.805 160.395 132.945 159.615 133.755 158.835L133.05 158.295L132.825 158.355L125.46 158.355ZM132.675 162.435L132.675 163.755L130.065 163.755L130.065 162.435L132.675 162.435ZM126.51 164.595L129.045 164.595L129.045 165.96L126.51 165.96L126.51 164.595ZM126.51 163.755L126.51 162.435L129.045 162.435L129.045 163.755L126.51 163.755ZM132.675 164.595L132.675 165.96L130.065 165.96L130.065 164.595L132.675 164.595ZM143.205 159.105L143.205 171.165L144.3 171.165L144.3 169.98L147.48 169.98L147.48 171L148.62 171L148.62 159.105L143.205 159.105ZM144.3 168.915L144.3 160.17L147.48 160.17L147.48 168.915L144.3 168.915ZM137.355 157.785C137.01 159.63 136.38 161.415 135.495 162.57C135.75 162.735 136.215 163.05 136.41 163.23C136.86 162.585 137.28 161.76 137.625 160.86L138.78 160.86L138.78 163.32L138.78 163.86L135.675 163.86L135.675 164.94L138.705 164.94C138.51 166.935 137.79 169.095 135.51 170.715C135.735 170.88 136.155 171.33 136.29 171.555C138.015 170.325 138.93 168.72 139.41 167.1C140.22 168.03 141.405 169.455 141.915 170.19L142.68 169.23C142.23 168.72 140.4 166.665 139.68 165.96C139.755 165.615 139.8 165.27 139.83 164.94L142.725 164.94L142.725 163.86L139.89 163.86L139.905 163.335L139.905 160.86L142.29 160.86L142.29 159.81L137.985 159.81C138.165 159.225 138.315 158.625 138.45 158.01L137.355 157.785Z"></path></g><g ><path     fill="#7BA8C9"  d="M60.891 184.108C60.979 184.02 61.32 183.954 61.694 183.954L62.673 183.954L62.673 185.549L60.44 185.923L60.616 186.726L62.673 186.33L62.673 188.596L63.465 188.596L63.465 186.176L64.95 185.879L64.917 185.164L63.465 185.417L63.465 183.954L64.598 183.954L64.598 183.206L63.465 183.206L63.465 181.523L62.673 181.523L62.673 183.206L61.595 183.206C61.947 182.436 62.288 181.523 62.574 180.577L64.587 180.577L64.587 179.807L62.805 179.807C62.904 179.433 62.992 179.059 63.08 178.685L62.266 178.52C62.2 178.949 62.112 179.378 62.013 179.807L60.506 179.807L60.506 180.577L61.815 180.577C61.562 181.479 61.298 182.227 61.177 182.502C60.979 182.975 60.825 183.338 60.638 183.382C60.737 183.58 60.847 183.954 60.891 184.108ZM64.686 181.875L64.686 182.656L66.303 182.656C66.072 183.426 65.841 184.141 65.643 184.702L68.811 184.702C68.426 185.252 67.953 185.912 67.502 186.495C67.117 186.242 66.732 186 66.369 185.791L65.841 186.319C66.963 186.99 68.272 188.002 68.91 188.651L69.46 188.013C69.13 187.694 68.657 187.32 68.118 186.924C68.822 186.022 69.581 184.977 70.131 184.163L69.548 183.877L69.416 183.932L66.776 183.932L67.15 182.656L70.549 182.656L70.549 181.875L67.381 181.875L67.733 180.577L70.153 180.577L70.153 179.807L67.942 179.807L68.25 178.63L67.425 178.52L67.106 179.807L65.115 179.807L65.115 180.577L66.897 180.577L66.534 181.875L64.686 181.875ZM71.858 179.114L71.858 181.27L72.683 181.27L72.683 179.884L80.295 179.884L80.295 181.27L81.142 181.27L81.142 179.114L71.858 179.114ZM72.001 185.439L72.001 186.198L78.238 186.198L78.238 185.439L72.001 185.439ZM74.3 180.104C74.058 181.402 73.662 183.195 73.365 184.251L79.195 184.251C78.986 186.418 78.744 187.364 78.425 187.639C78.304 187.749 78.172 187.76 77.919 187.76C77.633 187.76 76.896 187.749 76.126 187.683C76.28 187.903 76.379 188.233 76.401 188.464C77.116 188.508 77.831 188.519 78.194 188.497C78.612 188.475 78.865 188.398 79.118 188.145C79.547 187.727 79.789 186.627 80.053 183.888C80.075 183.767 80.086 183.503 80.086 183.503L74.41 183.503L74.729 182.106L79.789 182.106L79.789 181.38L74.883 181.38L75.125 180.192L74.3 180.104ZM84.497 181.754L84.497 182.513L90.481 182.513L90.481 181.754L84.497 181.754ZM82.616 183.8L82.616 184.57L85.575 184.57C85.443 186.528 84.992 187.485 82.484 187.969C82.638 188.134 82.858 188.442 82.924 188.651C85.674 188.068 86.257 186.869 86.422 184.57L88.358 184.57L88.358 187.331C88.358 188.211 88.611 188.464 89.634 188.464C89.843 188.464 91.097 188.464 91.317 188.464C92.197 188.464 92.428 188.079 92.527 186.572C92.307 186.506 91.955 186.374 91.768 186.242C91.735 187.507 91.669 187.705 91.251 187.705C90.965 187.705 89.931 187.705 89.711 187.705C89.26 187.705 89.183 187.65 89.183 187.331L89.183 184.57L92.373 184.57L92.373 183.8L82.616 183.8ZM86.631 178.663C86.829 179.004 87.038 179.422 87.181 179.785L82.902 179.785L82.902 182.227L83.727 182.227L83.727 180.577L91.218 180.577L91.218 182.227L92.076 182.227L92.076 179.785L88.16 179.785C88.006 179.378 87.72 178.828 87.456 178.421L86.631 178.663ZM98.984 178.531C98.984 179.158 99.006 179.785 99.039 180.39L94.408 180.39L94.408 183.481C94.408 184.911 94.309 186.814 93.396 188.167C93.594 188.266 93.946 188.552 94.089 188.717C95.101 187.265 95.266 185.043 95.266 183.492L95.266 183.415L97.279 183.415C97.235 185.307 97.18 186.011 97.037 186.176C96.949 186.275 96.85 186.297 96.685 186.297C96.498 186.297 96.025 186.297 95.519 186.242C95.651 186.451 95.739 186.781 95.75 187.012C96.289 187.045 96.795 187.045 97.081 187.023C97.378 186.99 97.565 186.913 97.741 186.704C97.972 186.407 98.027 185.472 98.082 182.997C98.082 182.887 98.093 182.645 98.093 182.645L95.266 182.645L95.266 181.193L99.094 181.193C99.226 182.975 99.49 184.603 99.908 185.868C99.182 186.704 98.335 187.386 97.356 187.903C97.532 188.068 97.829 188.409 97.961 188.585C98.808 188.079 99.567 187.474 100.238 186.748C100.744 187.881 101.404 188.563 102.251 188.563C103.098 188.563 103.406 188.013 103.549 186.132C103.329 186.055 103.021 185.868 102.834 185.681C102.768 187.144 102.636 187.716 102.317 187.716C101.756 187.716 101.261 187.089 100.854 186.011C101.668 184.955 102.317 183.701 102.79 182.26L101.965 182.051C101.613 183.162 101.14 184.163 100.546 185.043C100.26 183.976 100.051 182.667 99.93 181.193L103.461 181.193L103.461 180.39L99.886 180.39C99.853 179.785 99.842 179.169 99.842 178.531L98.984 178.531ZM100.381 179.07C101.085 179.433 101.932 179.994 102.35 180.39L102.867 179.818C102.438 179.444 101.569 178.905 100.876 178.564L100.381 179.07ZM105.661 179.51L105.661 182.359C105.661 184.064 105.54 186.418 104.352 188.09C104.55 188.2 104.902 188.486 105.045 188.662C106.31 186.869 106.497 184.196 106.497 182.359L114.494 182.359L114.494 181.567L106.497 181.567L106.497 180.203C109.016 180.038 111.821 179.741 113.735 179.279L113.031 178.608C111.337 179.037 108.268 179.356 105.661 179.51ZM107.432 183.932L107.432 188.651L108.257 188.651L108.257 188.079L112.822 188.079L112.822 188.629L113.691 188.629L113.691 183.932L107.432 183.932ZM108.257 187.309L108.257 184.702L112.822 184.702L112.822 187.309L108.257 187.309ZM122.051 178.883C122.359 179.378 122.678 180.049 122.832 180.489L120.632 180.489C120.885 179.939 121.116 179.356 121.303 178.784L120.522 178.586C120.027 180.214 119.191 181.809 118.223 182.832C118.377 182.953 118.619 183.195 118.762 183.349L117.662 183.69L117.662 181.479L118.894 181.479L118.894 180.709L117.662 180.709L117.662 178.531L116.859 178.531L116.859 180.709L115.44 180.709L115.44 181.479L116.859 181.479L116.859 183.932L115.352 184.383L115.561 185.186L116.859 184.768L116.859 187.628C116.859 187.782 116.793 187.826 116.661 187.826C116.529 187.837 116.1 187.837 115.627 187.815C115.737 188.057 115.847 188.409 115.869 188.618C116.573 188.618 117.002 188.596 117.277 188.453C117.552 188.321 117.662 188.09 117.662 187.628L117.662 184.504L118.916 184.097L118.806 183.393L118.839 183.426C119.147 183.063 119.455 182.645 119.741 182.183L119.741 188.64L120.533 188.64L120.533 187.881L125.494 187.881L125.494 187.111L123.173 187.111L123.173 185.615L125.098 185.615L125.098 184.878L123.173 184.878L123.173 183.426L125.109 183.426L125.109 182.689L123.173 182.689L123.173 181.248L125.274 181.248L125.274 180.489L122.942 180.489L123.58 180.214C123.437 179.774 123.096 179.114 122.766 178.608L122.051 178.883ZM120.533 183.426L122.392 183.426L122.392 184.878L120.533 184.878L120.533 183.426ZM120.533 182.689L120.533 181.248L122.392 181.248L122.392 182.689L120.533 182.689ZM120.533 185.615L122.392 185.615L122.392 187.111L120.533 187.111L120.533 185.615ZM130.51 178.828C130.851 179.367 131.258 180.104 131.445 180.544L132.182 180.214C131.973 179.796 131.544 179.081 131.203 178.553L130.51 178.828ZM126.858 179.037C127.441 179.653 128.145 180.511 128.475 181.05L129.168 180.588C128.827 180.06 128.101 179.235 127.518 178.641L126.858 179.037ZM134.668 178.52C134.415 179.136 133.986 179.983 133.601 180.577L129.872 180.577L129.872 181.336L132.457 181.336L132.457 182.612L132.446 182.931L129.509 182.931L129.509 183.701L132.358 183.701C132.138 184.658 131.489 185.692 129.575 186.473C129.762 186.627 130.026 186.924 130.136 187.1C131.764 186.363 132.567 185.439 132.952 184.515C133.865 185.373 134.877 186.385 135.405 187.023L135.999 186.451C135.383 185.758 134.162 184.625 133.194 183.734L133.194 183.701L136.406 183.701L136.406 182.931L133.282 182.931L133.293 182.623L133.293 181.336L136.076 181.336L136.076 180.577L134.448 180.577C134.8 180.038 135.185 179.378 135.504 178.795L134.668 178.52ZM128.728 182.249L126.539 182.249L126.539 183.019L127.936 183.019L127.936 186.473C127.441 186.649 126.869 187.177 126.275 187.859L126.88 188.651C127.397 187.881 127.903 187.188 128.244 187.188C128.475 187.188 128.86 187.584 129.322 187.892C130.114 188.398 131.049 188.508 132.49 188.508C133.601 188.508 135.658 188.442 136.439 188.398C136.45 188.134 136.593 187.705 136.692 187.474C135.581 187.595 133.876 187.694 132.523 187.694C131.225 187.694 130.257 187.617 129.52 187.155C129.168 186.935 128.926 186.726 128.728 186.594L128.728 182.249ZM142.258 180.973L145.932 180.973L145.932 181.842L142.258 181.842L142.258 180.973ZM142.258 179.51L145.932 179.51L145.932 180.379L142.258 180.379L142.258 179.51ZM141.499 178.883L141.499 182.48L146.724 182.48L146.724 178.883L141.499 178.883ZM141.719 184.493C141.543 186.121 141.048 187.364 140.069 188.145C140.245 188.255 140.564 188.508 140.685 188.64C141.268 188.123 141.708 187.452 142.016 186.616C142.731 188.167 143.897 188.475 145.503 188.475L147.428 188.475C147.461 188.255 147.571 187.914 147.681 187.727C147.296 187.738 145.811 187.738 145.536 187.738C145.162 187.738 144.81 187.727 144.48 187.672L144.48 185.945L146.79 185.945L146.79 185.263L144.48 185.263L144.48 183.965L147.329 183.965L147.329 183.272L141.004 183.272L141.004 183.965L143.699 183.965L143.699 187.463C143.072 187.188 142.588 186.693 142.269 185.769C142.357 185.395 142.423 184.999 142.478 184.581L141.719 184.493ZM138.804 178.531L138.804 180.742L137.44 180.742L137.44 181.512L138.804 181.512L138.804 183.932C138.243 184.108 137.726 184.251 137.319 184.361L137.528 185.175L138.804 184.757L138.804 187.606C138.804 187.76 138.749 187.804 138.617 187.804C138.485 187.815 138.056 187.815 137.583 187.804C137.682 188.024 137.792 188.365 137.814 188.563C138.507 188.574 138.936 188.541 139.2 188.409C139.475 188.288 139.574 188.057 139.574 187.606L139.574 184.504L140.795 184.097L140.685 183.349L139.574 183.69L139.574 181.512L140.795 181.512L140.795 180.742L139.574 180.742L139.574 178.531L138.804 178.531ZM154.446 182.117L154.446 181.171L157.295 181.171L157.295 182.117L154.446 182.117ZM154.446 180.555L154.446 179.631L157.295 179.631L157.295 180.555L154.446 180.555ZM158.054 178.96L153.72 178.96L153.72 182.777L158.054 182.777L158.054 178.96ZM151.663 183.723L151.663 181.787L152.378 181.787L152.378 183.866C152.356 183.877 152.323 183.888 152.235 183.888C152.147 183.888 151.872 183.888 151.806 183.888C151.674 183.888 151.663 183.866 151.663 183.723ZM150.552 182.623L150.552 181.787L151.157 181.787L151.157 183.723C151.157 184.284 151.3 184.405 151.762 184.405C151.85 184.405 152.235 184.405 152.323 184.405L152.378 184.405L152.378 185.395L149.375 185.395L149.375 184.471C149.485 184.548 149.628 184.669 149.683 184.746C150.398 184.141 150.552 183.283 150.552 182.623ZM150.046 181.787L150.046 182.612C150.046 183.162 149.947 183.8 149.375 184.328L149.375 181.787L150.046 181.787ZM151.168 179.697L151.168 181.083L150.541 181.083L150.541 179.697L151.168 179.697ZM158.604 187.672L156.305 187.672L156.305 186.407L158.054 186.407L158.054 185.736L156.305 185.736L156.305 184.647L158.274 184.647L158.274 183.976L156.305 183.976L156.305 182.997L155.557 182.997L155.557 183.976L154.523 183.976C154.633 183.69 154.743 183.382 154.82 183.085L154.149 182.953C153.929 183.778 153.555 184.592 153.06 185.175L153.06 181.083L151.784 181.083L151.784 179.697L153.159 179.697L153.159 178.993L148.539 178.993L148.539 179.697L149.936 179.697L149.936 181.083L148.715 181.083L148.715 188.585L149.375 188.585L149.375 187.826L152.378 187.826L152.378 188.431L153.06 188.431L153.06 185.307C153.236 185.395 153.456 185.549 153.566 185.637C153.797 185.362 154.017 185.021 154.215 184.647L155.557 184.647L155.557 185.736L153.808 185.736L153.808 186.407L155.557 186.407L155.557 187.672L153.324 187.672L153.324 188.365L158.604 188.365L158.604 187.672ZM149.375 187.155L149.375 186.044L152.378 186.044L152.378 187.155L149.375 187.155Z"></path></g><rect  x="290" y="160" width="44" height="24" rx="12"    fill="#5B9BD5" ></rect><circle cx="322" cy="172" r="10"   fill="#FFFFFF" ></circle><g opacity="0.9"><rect  x="40" y="210" width="310" height="60" rx="14"    fill="#FFFFFF" ></rect></g><g ><path     fill="#2C5F8A"  d="M62.4 227.815L62.4 230.83L60.66 230.83L60.66 231.88L62.4 231.88L62.4 235.225C61.65 235.435 60.975 235.63 60.42 235.765L60.705 236.875L62.4 236.35L62.4 240.22C62.4 240.43 62.34 240.49 62.145 240.49C61.965 240.505 61.38 240.505 60.735 240.475C60.885 240.79 61.02 241.27 61.065 241.54C62.01 241.555 62.595 241.51 62.955 241.33C63.345 241.15 63.48 240.835 63.48 240.22L63.48 236.005L64.995 235.525L64.86 234.49L63.48 234.895L63.48 231.88L64.89 231.88L64.89 230.83L63.48 230.83L63.48 227.815L62.4 227.815ZM66.9 230.245C67.14 230.755 67.38 231.43 67.485 231.88L65.49 231.88L65.49 241.585L66.555 241.585L66.555 232.825L69.21 232.825L69.21 234.19L67.125 234.19L67.125 235.015L69.21 235.015L69.21 236.335L67.59 236.335L67.59 240.07L68.43 240.07L68.43 239.425L71.685 239.425L71.685 236.335L70.125 236.335L70.125 235.015L72.195 235.015L72.195 234.19L70.125 234.19L70.125 232.825L72.69 232.825L72.69 240.325C72.69 240.52 72.63 240.565 72.45 240.58C72.27 240.58 71.655 240.595 71.01 240.565C71.145 240.835 71.31 241.27 71.355 241.54C72.285 241.54 72.885 241.525 73.26 241.36C73.65 241.195 73.77 240.895 73.77 240.34L73.77 231.88L71.715 231.88C71.97 231.37 72.24 230.74 72.48 230.17L71.775 229.99L74.235 229.99L74.235 229.045L70.305 229.045C70.2 228.625 69.975 228.1 69.735 227.68L68.745 227.98C68.925 228.31 69.075 228.685 69.195 229.045L65.25 229.045L65.25 229.99L71.4 229.99C71.25 230.545 70.95 231.34 70.695 231.88L67.755 231.88L68.535 231.655C68.46 231.205 68.19 230.5 67.89 229.99L66.9 230.245ZM68.43 237.115L70.83 237.115L70.83 238.66L68.43 238.66L68.43 237.115ZM85.08 236.92C84.585 237.79 83.895 238.465 82.98 239.005C81.885 238.735 80.76 238.495 79.65 238.285C79.965 237.88 80.325 237.415 80.67 236.92L85.08 236.92ZM76.785 230.725L76.785 234.61L80.79 234.61C80.58 235.03 80.325 235.48 80.04 235.93L75.81 235.93L75.81 236.92L79.365 236.92C78.84 237.655 78.285 238.345 77.79 238.885C79.065 239.125 80.31 239.38 81.495 239.665C80.025 240.175 78.165 240.46 75.885 240.595C76.08 240.85 76.26 241.255 76.35 241.57C79.185 241.33 81.42 240.895 83.115 240.07C85.02 240.58 86.67 241.105 87.9 241.6L88.86 240.73C87.66 240.28 86.085 239.8 84.345 239.335C85.2 238.705 85.86 237.91 86.325 236.92L89.205 236.92L89.205 235.93L81.33 235.93C81.57 235.54 81.795 235.15 81.99 234.775L81.3 234.61L88.32 234.61L88.32 230.725L84.705 230.725L84.705 229.45L88.95 229.45L88.95 228.445L76.035 228.445L76.035 229.45L80.13 229.45L80.13 230.725L76.785 230.725ZM81.195 229.45L83.64 229.45L83.64 230.725L81.195 230.725L81.195 229.45ZM77.85 231.655L80.13 231.655L80.13 233.695L77.85 233.695L77.85 231.655ZM81.195 231.655L83.64 231.655L83.64 233.695L81.195 233.695L81.195 231.655ZM84.705 231.655L87.21 231.655L87.21 233.695L84.705 233.695L84.705 231.655ZM93.585 228.04C93.015 230.185 92.04 232.27 90.81 233.605C91.095 233.755 91.59 234.085 91.815 234.28C92.385 233.605 92.91 232.75 93.39 231.805L96.945 231.805L96.945 235.12L92.475 235.12L92.475 236.2L96.945 236.2L96.945 240.025L90.825 240.025L90.825 241.12L104.235 241.12L104.235 240.025L98.115 240.025L98.115 236.2L102.975 236.2L102.975 235.12L98.115 235.12L98.115 231.805L103.515 231.805L103.515 230.71L98.115 230.71L98.115 227.8L96.945 227.8L96.945 230.71L93.885 230.71C94.215 229.945 94.5 229.12 94.725 228.295L93.585 228.04ZM113.16 227.815C113.16 228.67 113.19 229.525 113.235 230.35L106.92 230.35L106.92 234.565C106.92 236.515 106.785 239.11 105.54 240.955C105.81 241.09 106.29 241.48 106.485 241.705C107.865 239.725 108.09 236.695 108.09 234.58L108.09 234.475L110.835 234.475C110.775 237.055 110.7 238.015 110.505 238.24C110.385 238.375 110.25 238.405 110.025 238.405C109.77 238.405 109.125 238.405 108.435 238.33C108.615 238.615 108.735 239.065 108.75 239.38C109.485 239.425 110.175 239.425 110.565 239.395C110.97 239.35 111.225 239.245 111.465 238.96C111.78 238.555 111.855 237.28 111.93 233.905C111.93 233.755 111.945 233.425 111.945 233.425L108.09 233.425L108.09 231.445L113.31 231.445C113.49 233.875 113.85 236.095 114.42 237.82C113.43 238.96 112.275 239.89 110.94 240.595C111.18 240.82 111.585 241.285 111.765 241.525C112.92 240.835 113.955 240.01 114.87 239.02C115.56 240.565 116.46 241.495 117.615 241.495C118.77 241.495 119.19 240.745 119.385 238.18C119.085 238.075 118.665 237.82 118.41 237.565C118.32 239.56 118.14 240.34 117.705 240.34C116.94 240.34 116.265 239.485 115.71 238.015C116.82 236.575 117.705 234.865 118.35 232.9L117.225 232.615C116.745 234.13 116.1 235.495 115.29 236.695C114.9 235.24 114.615 233.455 114.45 231.445L119.265 231.445L119.265 230.35L114.39 230.35C114.345 229.525 114.33 228.685 114.33 227.815L113.16 227.815ZM115.065 228.55C116.025 229.045 117.18 229.81 117.75 230.35L118.455 229.57C117.87 229.06 116.685 228.325 115.74 227.86L115.065 228.55ZM123.405 232.21L123.405 233.245L131.565 233.245L131.565 232.21L123.405 232.21ZM120.84 235L120.84 236.05L124.875 236.05C124.695 238.72 124.08 240.025 120.66 240.685C120.87 240.91 121.17 241.33 121.26 241.615C125.01 240.82 125.805 239.185 126.03 236.05L128.67 236.05L128.67 239.815C128.67 241.015 129.015 241.36 130.41 241.36C130.695 241.36 132.405 241.36 132.705 241.36C133.905 241.36 134.22 240.835 134.355 238.78C134.055 238.69 133.575 238.51 133.32 238.33C133.275 240.055 133.185 240.325 132.615 240.325C132.225 240.325 130.815 240.325 130.515 240.325C129.9 240.325 129.795 240.25 129.795 239.815L129.795 236.05L134.145 236.05L134.145 235L120.84 235ZM126.315 227.995C126.585 228.46 126.87 229.03 127.065 229.525L121.23 229.525L121.23 232.855L122.355 232.855L122.355 230.605L132.57 230.605L132.57 232.855L133.74 232.855L133.74 229.525L128.4 229.525C128.19 228.97 127.8 228.22 127.44 227.665L126.315 227.995ZM143.16 227.815C143.16 228.67 143.19 229.525 143.235 230.35L136.92 230.35L136.92 234.565C136.92 236.515 136.785 239.11 135.54 240.955C135.81 241.09 136.29 241.48 136.485 241.705C137.865 239.725 138.09 236.695 138.09 234.58L138.09 234.475L140.835 234.475C140.775 237.055 140.7 238.015 140.505 238.24C140.385 238.375 140.25 238.405 140.025 238.405C139.77 238.405 139.125 238.405 138.435 238.33C138.615 238.615 138.735 239.065 138.75 239.38C139.485 239.425 140.175 239.425 140.565 239.395C140.97 239.35 141.225 239.245 141.465 238.96C141.78 238.555 141.855 237.28 141.93 233.905C141.93 233.755 141.945 233.425 141.945 233.425L138.09 233.425L138.09 231.445L143.31 231.445C143.49 233.875 143.85 236.095 144.42 237.82C143.43 238.96 142.275 239.89 140.94 240.595C141.18 240.82 141.585 241.285 141.765 241.525C142.92 240.835 143.955 240.01 144.87 239.02C145.56 240.565 146.46 241.495 147.615 241.495C148.77 241.495 149.19 240.745 149.385 238.18C149.085 238.075 148.665 237.82 148.41 237.565C148.32 239.56 148.14 240.34 147.705 240.34C146.94 240.34 146.265 239.485 145.71 238.015C146.82 236.575 147.705 234.865 148.35 232.9L147.225 232.615C146.745 234.13 146.1 235.495 145.29 236.695C144.9 235.24 144.615 233.455 144.45 231.445L149.265 231.445L149.265 230.35L144.39 230.35C144.345 229.525 144.33 228.685 144.33 227.815L143.16 227.815ZM145.065 228.55C146.025 229.045 147.18 229.81 147.75 230.35L148.455 229.57C147.87 229.06 146.685 228.325 145.74 227.86L145.065 228.55ZM150.975 229.045C151.86 229.825 153 230.92 153.525 231.625L154.35 230.875C153.795 230.185 152.64 229.135 151.755 228.4L150.975 229.045ZM153.84 233.425L150.645 233.425L150.645 234.49L152.76 234.49L152.76 238.75C152.1 239.02 151.35 239.695 150.585 240.52L151.29 241.45C152.055 240.43 152.79 239.56 153.3 239.56C153.645 239.56 154.155 240.07 154.77 240.445C155.82 241.075 157.065 241.255 158.925 241.255C160.545 241.255 163.17 241.18 164.22 241.105C164.235 240.805 164.415 240.295 164.535 240.01C162.99 240.16 160.71 240.28 158.94 240.28C157.275 240.28 156 240.175 154.995 239.56C154.47 239.215 154.14 238.945 153.84 238.78L153.84 233.425ZM155.46 228.355L155.46 229.24L161.805 229.24C161.19 229.705 160.425 230.17 159.675 230.53C158.94 230.2 158.16 229.885 157.485 229.645L156.765 230.29C157.695 230.635 158.79 231.115 159.705 231.565L155.445 231.565L155.445 239.335L156.51 239.335L156.51 236.845L159.045 236.845L159.045 239.275L160.065 239.275L160.065 236.845L162.675 236.845L162.675 238.21C162.675 238.39 162.615 238.45 162.42 238.465C162.24 238.465 161.61 238.465 160.89 238.45C161.025 238.705 161.16 239.08 161.205 239.365C162.21 239.365 162.855 239.365 163.245 239.2C163.635 239.035 163.755 238.765 163.755 238.21L163.755 231.565L161.79 231.565C161.49 231.385 161.115 231.19 160.68 230.98C161.805 230.395 162.945 229.615 163.755 228.835L163.05 228.295L162.825 228.355L155.46 228.355ZM162.675 232.435L162.675 233.755L160.065 233.755L160.065 232.435L162.675 232.435ZM156.51 234.595L159.045 234.595L159.045 235.96L156.51 235.96L156.51 234.595ZM156.51 233.755L156.51 232.435L159.045 232.435L159.045 233.755L156.51 233.755ZM162.675 234.595L162.675 235.96L160.065 235.96L160.065 234.595L162.675 234.595ZM173.205 229.105L173.205 241.165L174.3 241.165L174.3 239.98L177.48 239.98L177.48 241L178.62 241L178.62 229.105L173.205 229.105ZM174.3 238.915L174.3 230.17L177.48 230.17L177.48 238.915L174.3 238.915ZM167.355 227.785C167.01 229.63 166.38 231.415 165.495 232.57C165.75 232.735 166.215 233.05 166.41 233.23C166.86 232.585 167.28 231.76 167.625 230.86L168.78 230.86L168.78 233.32L168.78 233.86L165.675 233.86L165.675 234.94L168.705 234.94C168.51 236.935 167.79 239.095 165.51 240.715C165.735 240.88 166.155 241.33 166.29 241.555C168.015 240.325 168.93 238.72 169.41 237.1C170.22 238.03 171.405 239.455 171.915 240.19L172.68 239.23C172.23 238.72 170.4 236.665 169.68 235.96C169.755 235.615 169.8 235.27 169.83 234.94L172.725 234.94L172.725 233.86L169.89 233.86L169.905 233.335L169.905 230.86L172.29 230.86L172.29 229.81L167.985 229.81C168.165 229.225 168.315 228.625 168.45 228.01L167.355 227.785Z"></path></g><g ><path     fill="#7BA8C9"  d="M61.76 248.531L61.76 250.742L60.484 250.742L60.484 251.512L61.76 251.512L61.76 253.965C61.21 254.119 60.715 254.262 60.308 254.361L60.517 255.175L61.76 254.79L61.76 257.628C61.76 257.782 61.716 257.826 61.573 257.826C61.441 257.837 61.012 257.837 60.539 257.815C60.649 258.046 60.748 258.398 60.781 258.596C61.474 258.607 61.903 258.574 62.167 258.442C62.453 258.31 62.552 258.079 62.552 257.628L62.552 254.537L63.663 254.185L63.564 253.426L62.552 253.723L62.552 251.512L63.586 251.512L63.586 250.742L62.552 250.742L62.552 248.531L61.76 248.531ZM65.06 250.313C65.236 250.687 65.412 251.182 65.489 251.512L64.026 251.512L64.026 258.629L64.807 258.629L64.807 252.205L66.754 252.205L66.754 253.206L65.225 253.206L65.225 253.811L66.754 253.811L66.754 254.779L65.566 254.779L65.566 257.518L66.182 257.518L66.182 257.045L68.569 257.045L68.569 254.779L67.425 254.779L67.425 253.811L68.943 253.811L68.943 253.206L67.425 253.206L67.425 252.205L69.306 252.205L69.306 257.705C69.306 257.848 69.262 257.881 69.13 257.892C68.998 257.892 68.547 257.903 68.074 257.881C68.173 258.079 68.294 258.398 68.327 258.596C69.009 258.596 69.449 258.585 69.724 258.464C70.01 258.343 70.098 258.123 70.098 257.716L70.098 251.512L68.591 251.512C68.778 251.138 68.976 250.676 69.152 250.258L68.635 250.126L70.439 250.126L70.439 249.433L67.557 249.433C67.48 249.125 67.315 248.74 67.139 248.432L66.413 248.652C66.545 248.894 66.655 249.169 66.743 249.433L63.85 249.433L63.85 250.126L68.36 250.126C68.25 250.533 68.03 251.116 67.843 251.512L65.687 251.512L66.259 251.347C66.204 251.017 66.006 250.5 65.786 250.126L65.06 250.313ZM66.182 255.351L67.942 255.351L67.942 256.484L66.182 256.484L66.182 255.351ZM78.392 255.208C78.029 255.846 77.523 256.341 76.852 256.737C76.049 256.539 75.224 256.363 74.41 256.209C74.641 255.912 74.905 255.571 75.158 255.208L78.392 255.208ZM72.309 250.665L72.309 253.514L75.246 253.514C75.092 253.822 74.905 254.152 74.696 254.482L71.594 254.482L71.594 255.208L74.201 255.208C73.816 255.747 73.409 256.253 73.046 256.649C73.981 256.825 74.894 257.012 75.763 257.221C74.685 257.595 73.321 257.804 71.649 257.903C71.792 258.09 71.924 258.387 71.99 258.618C74.069 258.442 75.708 258.123 76.951 257.518C78.348 257.892 79.558 258.277 80.46 258.64L81.164 258.002C80.284 257.672 79.129 257.32 77.853 256.979C78.48 256.517 78.964 255.934 79.305 255.208L81.417 255.208L81.417 254.482L75.642 254.482C75.818 254.196 75.983 253.91 76.126 253.635L75.62 253.514L80.768 253.514L80.768 250.665L78.117 250.665L78.117 249.73L81.23 249.73L81.23 248.993L71.759 248.993L71.759 249.73L74.762 249.73L74.762 250.665L72.309 250.665ZM75.543 249.73L77.336 249.73L77.336 250.665L75.543 250.665L75.543 249.73ZM73.09 251.347L74.762 251.347L74.762 252.843L73.09 252.843L73.09 251.347ZM75.543 251.347L77.336 251.347L77.336 252.843L75.543 252.843L75.543 251.347ZM78.117 251.347L79.954 251.347L79.954 252.843L78.117 252.843L78.117 251.347ZM84.629 248.696C84.211 250.269 83.496 251.798 82.594 252.777C82.803 252.887 83.166 253.129 83.331 253.272C83.749 252.777 84.134 252.15 84.486 251.457L87.093 251.457L87.093 253.888L83.815 253.888L83.815 254.68L87.093 254.68L87.093 257.485L82.605 257.485L82.605 258.288L92.439 258.288L92.439 257.485L87.951 257.485L87.951 254.68L91.515 254.68L91.515 253.888L87.951 253.888L87.951 251.457L91.911 251.457L91.911 250.654L87.951 250.654L87.951 248.52L87.093 248.52L87.093 250.654L84.849 250.654C85.091 250.093 85.3 249.488 85.465 248.883L84.629 248.696ZM98.984 248.531C98.984 249.158 99.006 249.785 99.039 250.39L94.408 250.39L94.408 253.481C94.408 254.911 94.309 256.814 93.396 258.167C93.594 258.266 93.946 258.552 94.089 258.717C95.101 257.265 95.266 255.043 95.266 253.492L95.266 253.415L97.279 253.415C97.235 255.307 97.18 256.011 97.037 256.176C96.949 256.275 96.85 256.297 96.685 256.297C96.498 256.297 96.025 256.297 95.519 256.242C95.651 256.451 95.739 256.781 95.75 257.012C96.289 257.045 96.795 257.045 97.081 257.023C97.378 256.99 97.565 256.913 97.741 256.704C97.972 256.407 98.027 255.472 98.082 252.997C98.082 252.887 98.093 252.645 98.093 252.645L95.266 252.645L95.266 251.193L99.094 251.193C99.226 252.975 99.49 254.603 99.908 255.868C99.182 256.704 98.335 257.386 97.356 257.903C97.532 258.068 97.829 258.409 97.961 258.585C98.808 258.079 99.567 257.474 100.238 256.748C100.744 257.881 101.404 258.563 102.251 258.563C103.098 258.563 103.406 258.013 103.549 256.132C103.329 256.055 103.021 255.868 102.834 255.681C102.768 257.144 102.636 257.716 102.317 257.716C101.756 257.716 101.261 257.089 100.854 256.011C101.668 254.955 102.317 253.701 102.79 252.26L101.965 252.051C101.613 253.162 101.14 254.163 100.546 255.043C100.26 253.976 100.051 252.667 99.93 251.193L103.461 251.193L103.461 250.39L99.886 250.39C99.853 249.785 99.842 249.169 99.842 248.531L98.984 248.531ZM100.381 249.07C101.085 249.433 101.932 249.994 102.35 250.39L102.867 249.818C102.438 249.444 101.569 248.905 100.876 248.564L100.381 249.07ZM106.497 251.754L106.497 252.513L112.481 252.513L112.481 251.754L106.497 251.754ZM104.616 253.8L104.616 254.57L107.575 254.57C107.443 256.528 106.992 257.485 104.484 257.969C104.638 258.134 104.858 258.442 104.924 258.651C107.674 258.068 108.257 256.869 108.422 254.57L110.358 254.57L110.358 257.331C110.358 258.211 110.611 258.464 111.634 258.464C111.843 258.464 113.097 258.464 113.317 258.464C114.197 258.464 114.428 258.079 114.527 256.572C114.307 256.506 113.955 256.374 113.768 256.242C113.735 257.507 113.669 257.705 113.251 257.705C112.965 257.705 111.931 257.705 111.711 257.705C111.26 257.705 111.183 257.65 111.183 257.331L111.183 254.57L114.373 254.57L114.373 253.8L104.616 253.8ZM108.631 248.663C108.829 249.004 109.038 249.422 109.181 249.785L104.902 249.785L104.902 252.227L105.727 252.227L105.727 250.577L113.218 250.577L113.218 252.227L114.076 252.227L114.076 249.785L110.16 249.785C110.006 249.378 109.72 248.828 109.456 248.421L108.631 248.663ZM120.984 248.531C120.984 249.158 121.006 249.785 121.039 250.39L116.408 250.39L116.408 253.481C116.408 254.911 116.309 256.814 115.396 258.167C115.594 258.266 115.946 258.552 116.089 258.717C117.101 257.265 117.266 255.043 117.266 253.492L117.266 253.415L119.279 253.415C119.235 255.307 119.18 256.011 119.037 256.176C118.949 256.275 118.85 256.297 118.685 256.297C118.498 256.297 118.025 256.297 117.519 256.242C117.651 256.451 117.739 256.781 117.75 257.012C118.289 257.045 118.795 257.045 119.081 257.023C119.378 256.99 119.565 256.913 119.741 256.704C119.972 256.407 120.027 255.472 120.082 252.997C120.082 252.887 120.093 252.645 120.093 252.645L117.266 252.645L117.266 251.193L121.094 251.193C121.226 252.975 121.49 254.603 121.908 255.868C121.182 256.704 120.335 257.386 119.356 257.903C119.532 258.068 119.829 258.409 119.961 258.585C120.808 258.079 121.567 257.474 122.238 256.748C122.744 257.881 123.404 258.563 124.251 258.563C125.098 258.563 125.406 258.013 125.549 256.132C125.329 256.055 125.021 255.868 124.834 255.681C124.768 257.144 124.636 257.716 124.317 257.716C123.756 257.716 123.261 257.089 122.854 256.011C123.668 254.955 124.317 253.701 124.79 252.26L123.965 252.051C123.613 253.162 123.14 254.163 122.546 255.043C122.26 253.976 122.051 252.667 121.93 251.193L125.461 251.193L125.461 250.39L121.886 250.39C121.853 249.785 121.842 249.169 121.842 248.531L120.984 248.531ZM122.381 249.07C123.085 249.433 123.932 249.994 124.35 250.39L124.867 249.818C124.438 249.444 123.569 248.905 122.876 248.564L122.381 249.07ZM127.661 249.51L127.661 252.359C127.661 254.064 127.54 256.418 126.352 258.09C126.55 258.2 126.902 258.486 127.045 258.662C128.31 256.869 128.497 254.196 128.497 252.359L136.494 252.359L136.494 251.567L128.497 251.567L128.497 250.203C131.016 250.038 133.821 249.741 135.735 249.279L135.031 248.608C133.337 249.037 130.268 249.356 127.661 249.51ZM129.432 253.932L129.432 258.651L130.257 258.651L130.257 258.079L134.822 258.079L134.822 258.629L135.691 258.629L135.691 253.932L129.432 253.932ZM130.257 257.309L130.257 254.702L134.822 254.702L134.822 257.309L130.257 257.309ZM144.051 248.883C144.359 249.378 144.678 250.049 144.832 250.489L142.632 250.489C142.885 249.939 143.116 249.356 143.303 248.784L142.522 248.586C142.027 250.214 141.191 251.809 140.223 252.832C140.377 252.953 140.619 253.195 140.762 253.349L139.662 253.69L139.662 251.479L140.894 251.479L140.894 250.709L139.662 250.709L139.662 248.531L138.859 248.531L138.859 250.709L137.44 250.709L137.44 251.479L138.859 251.479L138.859 253.932L137.352 254.383L137.561 255.186L138.859 254.768L138.859 257.628C138.859 257.782 138.793 257.826 138.661 257.826C138.529 257.837 138.1 257.837 137.627 257.815C137.737 258.057 137.847 258.409 137.869 258.618C138.573 258.618 139.002 258.596 139.277 258.453C139.552 258.321 139.662 258.09 139.662 257.628L139.662 254.504L140.916 254.097L140.806 253.393L140.839 253.426C141.147 253.063 141.455 252.645 141.741 252.183L141.741 258.64L142.533 258.64L142.533 257.881L147.494 257.881L147.494 257.111L145.173 257.111L145.173 255.615L147.098 255.615L147.098 254.878L145.173 254.878L145.173 253.426L147.109 253.426L147.109 252.689L145.173 252.689L145.173 251.248L147.274 251.248L147.274 250.489L144.942 250.489L145.58 250.214C145.437 249.774 145.096 249.114 144.766 248.608L144.051 248.883ZM142.533 253.426L144.392 253.426L144.392 254.878L142.533 254.878L142.533 253.426ZM142.533 252.689L142.533 251.248L144.392 251.248L144.392 252.689L142.533 252.689ZM142.533 255.615L144.392 255.615L144.392 257.111L142.533 257.111L142.533 255.615ZM152.51 248.828C152.851 249.367 153.258 250.104 153.445 250.544L154.182 250.214C153.973 249.796 153.544 249.081 153.203 248.553L152.51 248.828ZM148.858 249.037C149.441 249.653 150.145 250.511 150.475 251.05L151.168 250.588C150.827 250.06 150.101 249.235 149.518 248.641L148.858 249.037ZM156.668 248.52C156.415 249.136 155.986 249.983 155.601 250.577L151.872 250.577L151.872 251.336L154.457 251.336L154.457 252.612L154.446 252.931L151.509 252.931L151.509 253.701L154.358 253.701C154.138 254.658 153.489 255.692 151.575 256.473C151.762 256.627 152.026 256.924 152.136 257.1C153.764 256.363 154.567 255.439 154.952 254.515C155.865 255.373 156.877 256.385 157.405 257.023L157.999 256.451C157.383 255.758 156.162 254.625 155.194 253.734L155.194 253.701L158.406 253.701L158.406 252.931L155.282 252.931L155.293 252.623L155.293 251.336L158.076 251.336L158.076 250.577L156.448 250.577C156.8 250.038 157.185 249.378 157.504 248.795L156.668 248.52ZM150.728 252.249L148.539 252.249L148.539 253.019L149.936 253.019L149.936 256.473C149.441 256.649 148.869 257.177 148.275 257.859L148.88 258.651C149.397 257.881 149.903 257.188 150.244 257.188C150.475 257.188 150.86 257.584 151.322 257.892C152.114 258.398 153.049 258.508 154.49 258.508C155.601 258.508 157.658 258.442 158.439 258.398C158.45 258.134 158.593 257.705 158.692 257.474C157.581 257.595 155.876 257.694 154.523 257.694C153.225 257.694 152.257 257.617 151.52 257.155C151.168 256.935 150.926 256.726 150.728 256.594L150.728 252.249ZM164.258 250.973L167.932 250.973L167.932 251.842L164.258 251.842L164.258 250.973ZM164.258 249.51L167.932 249.51L167.932 250.379L164.258 250.379L164.258 249.51ZM163.499 248.883L163.499 252.48L168.724 252.48L168.724 248.883L163.499 248.883ZM163.719 254.493C163.543 256.121 163.048 257.364 162.069 258.145C162.245 258.255 162.564 258.508 162.685 258.64C163.268 258.123 163.708 257.452 164.016 256.616C164.731 258.167 165.897 258.475 167.503 258.475L169.428 258.475C169.461 258.255 169.571 257.914 169.681 257.727C169.296 257.738 167.811 257.738 167.536 257.738C167.162 257.738 166.81 257.727 166.48 257.672L166.48 255.945L168.79 255.945L168.79 255.263L166.48 255.263L166.48 253.965L169.329 253.965L169.329 253.272L163.004 253.272L163.004 253.965L165.699 253.965L165.699 257.463C165.072 257.188 164.588 256.693 164.269 255.769C164.357 255.395 164.423 254.999 164.478 254.581L163.719 254.493ZM160.804 248.531L160.804 250.742L159.44 250.742L159.44 251.512L160.804 251.512L160.804 253.932C160.243 254.108 159.726 254.251 159.319 254.361L159.528 255.175L160.804 254.757L160.804 257.606C160.804 257.76 160.749 257.804 160.617 257.804C160.485 257.815 160.056 257.815 159.583 257.804C159.682 258.024 159.792 258.365 159.814 258.563C160.507 258.574 160.936 258.541 161.2 258.409C161.475 258.288 161.574 258.057 161.574 257.606L161.574 254.504L162.795 254.097L162.685 253.349L161.574 253.69L161.574 251.512L162.795 251.512L162.795 250.742L161.574 250.742L161.574 248.531L160.804 248.531ZM176.446 252.117L176.446 251.171L179.295 251.171L179.295 252.117L176.446 252.117ZM176.446 250.555L176.446 249.631L179.295 249.631L179.295 250.555L176.446 250.555ZM180.054 248.96L175.72 248.96L175.72 252.777L180.054 252.777L180.054 248.96ZM173.663 253.723L173.663 251.787L174.378 251.787L174.378 253.866C174.356 253.877 174.323 253.888 174.235 253.888C174.147 253.888 173.872 253.888 173.806 253.888C173.674 253.888 173.663 253.866 173.663 253.723ZM172.552 252.623L172.552 251.787L173.157 251.787L173.157 253.723C173.157 254.284 173.3 254.405 173.762 254.405C173.85 254.405 174.235 254.405 174.323 254.405L174.378 254.405L174.378 255.395L171.375 255.395L171.375 254.471C171.485 254.548 171.628 254.669 171.683 254.746C172.398 254.141 172.552 253.283 172.552 252.623ZM172.046 251.787L172.046 252.612C172.046 253.162 171.947 253.8 171.375 254.328L171.375 251.787L172.046 251.787ZM173.168 249.697L173.168 251.083L172.541 251.083L172.541 249.697L173.168 249.697ZM180.604 257.672L178.305 257.672L178.305 256.407L180.054 256.407L180.054 255.736L178.305 255.736L178.305 254.647L180.274 254.647L180.274 253.976L178.305 253.976L178.305 252.997L177.557 252.997L177.557 253.976L176.523 253.976C176.633 253.69 176.743 253.382 176.82 253.085L176.149 252.953C175.929 253.778 175.555 254.592 175.06 255.175L175.06 251.083L173.784 251.083L173.784 249.697L175.159 249.697L175.159 248.993L170.539 248.993L170.539 249.697L171.936 249.697L171.936 251.083L170.715 251.083L170.715 258.585L171.375 258.585L171.375 257.826L174.378 257.826L174.378 258.431L175.06 258.431L175.06 255.307C175.236 255.395 175.456 255.549 175.566 255.637C175.797 255.362 176.017 255.021 176.215 254.647L177.557 254.647L177.557 255.736L175.808 255.736L175.808 256.407L177.557 256.407L177.557 257.672L175.324 257.672L175.324 258.365L180.604 258.365L180.604 257.672ZM171.375 257.155L171.375 256.044L174.378 256.044L174.378 257.155L171.375 257.155Z"></path></g><rect  x="290" y="230" width="44" height="24" rx="12"    fill="#5B9BD5" ></rect><circle cx="322" cy="242" r="10"   fill="#FFFFFF" ></circle><g opacity="0.9"><rect  x="40" y="280" width="310" height="60" rx="14"    fill="#FFFFFF" ></rect></g><g ><path     fill="#2C5F8A"  d="M64.29 307.04C63.495 308.12 62.25 309.23 61.05 309.95C61.35 310.115 61.815 310.49 62.04 310.7C63.18 309.89 64.515 308.66 65.415 307.445L64.29 307.04ZM69.54 307.55C70.785 308.51 72.33 309.89 73.08 310.73L74.04 310.055C73.23 309.2 71.685 307.88 70.425 306.965L69.54 307.55ZM69.96 303.74C70.35 304.1 70.77 304.52 71.175 304.955L64.575 305.39C66.825 304.28 69.12 302.9 71.34 301.22L70.47 300.5C69.72 301.115 68.895 301.7 68.1 302.255L64.425 302.435C65.505 301.67 66.6 300.71 67.605 299.66C69.555 299.465 71.4 299.195 72.825 298.85L72.045 297.905C69.615 298.52 65.25 298.925 61.605 299.105C61.725 299.36 61.86 299.81 61.89 300.08C63.21 300.02 64.62 299.93 66.015 299.81C65.04 300.83 63.93 301.73 63.54 301.985C63.09 302.315 62.73 302.54 62.43 302.585C62.55 302.87 62.715 303.365 62.745 303.59C63.06 303.47 63.525 303.41 66.57 303.23C65.295 304.025 64.2 304.625 63.675 304.865C62.745 305.33 62.07 305.615 61.59 305.675C61.725 305.975 61.89 306.5 61.935 306.725C62.355 306.56 62.94 306.485 67.065 306.17L67.065 310.1C67.065 310.265 67.02 310.325 66.765 310.34C66.525 310.355 65.7 310.355 64.8 310.31C64.98 310.625 65.175 311.105 65.235 311.435C66.33 311.435 67.08 311.42 67.575 311.24C68.085 311.06 68.205 310.745 68.205 310.115L68.205 306.08L71.94 305.81C72.375 306.305 72.735 306.77 72.99 307.16L73.89 306.62C73.275 305.705 71.985 304.325 70.83 303.29L69.96 303.74ZM85.47 305.12L85.47 309.86C85.47 310.97 85.725 311.3 86.775 311.3C86.985 311.3 87.885 311.3 88.095 311.3C89.025 311.3 89.295 310.73 89.37 308.69C89.085 308.615 88.635 308.435 88.41 308.225C88.365 310.04 88.305 310.31 87.975 310.31C87.795 310.31 87.09 310.31 86.955 310.31C86.625 310.31 86.58 310.265 86.58 309.86L86.58 305.12L85.47 305.12ZM82.65 305.15C82.56 308.12 82.215 309.725 79.755 310.64C80.01 310.85 80.325 311.27 80.46 311.555C83.175 310.445 83.64 308.51 83.76 305.15L82.65 305.15ZM75.63 309.605L75.885 310.715C77.235 310.28 79.005 309.725 80.685 309.17L80.505 308.195C78.69 308.735 76.845 309.29 75.63 309.605ZM83.925 298.04C84.21 298.655 84.585 299.465 84.735 299.975L81.105 299.975L81.105 300.995L83.805 300.995C83.13 301.925 82.095 303.305 81.75 303.635C81.465 303.905 81.09 304.01 80.805 304.085C80.925 304.325 81.135 304.895 81.18 305.18C81.6 305 82.23 304.925 87.675 304.415C87.915 304.82 88.14 305.21 88.29 305.51L89.235 304.985C88.785 304.115 87.81 302.705 87 301.655L86.115 302.105C86.445 302.54 86.79 303.035 87.105 303.53L82.98 303.875C83.655 303.05 84.51 301.88 85.14 300.995L89.22 300.995L89.22 299.975L84.9 299.975L85.86 299.675C85.68 299.195 85.305 298.37 84.96 297.77L83.925 298.04ZM75.9 304.055C76.125 303.95 76.47 303.875 78.27 303.62C77.625 304.565 77.04 305.3 76.77 305.585C76.29 306.14 75.945 306.515 75.615 306.575C75.75 306.875 75.93 307.43 75.99 307.67C76.305 307.475 76.815 307.31 80.535 306.5C80.505 306.26 80.49 305.825 80.52 305.51L77.685 306.065C78.825 304.745 79.95 303.14 80.895 301.52L79.89 300.92C79.605 301.475 79.29 302.045 78.945 302.57L77.1 302.765C78.03 301.475 78.96 299.84 79.65 298.265L78.51 297.74C77.85 299.555 76.74 301.49 76.38 301.985C76.05 302.495 75.765 302.84 75.495 302.9C75.645 303.215 75.825 303.815 75.9 304.055ZM90.975 299.045C91.86 299.825 93 300.92 93.525 301.625L94.35 300.875C93.795 300.185 92.64 299.135 91.755 298.4L90.975 299.045ZM93.84 303.425L90.645 303.425L90.645 304.49L92.76 304.49L92.76 308.75C92.1 309.02 91.35 309.695 90.585 310.52L91.29 311.45C92.055 310.43 92.79 309.56 93.3 309.56C93.645 309.56 94.155 310.07 94.77 310.445C95.82 311.075 97.065 311.255 98.925 311.255C100.545 311.255 103.17 311.18 104.22 311.105C104.235 310.805 104.415 310.295 104.535 310.01C102.99 310.16 100.71 310.28 98.94 310.28C97.275 310.28 96 310.175 94.995 309.56C94.47 309.215 94.14 308.945 93.84 308.78L93.84 303.425ZM95.46 298.355L95.46 299.24L101.805 299.24C101.19 299.705 100.425 300.17 99.675 300.53C98.94 300.2 98.16 299.885 97.485 299.645L96.765 300.29C97.695 300.635 98.79 301.115 99.705 301.565L95.445 301.565L95.445 309.335L96.51 309.335L96.51 306.845L99.045 306.845L99.045 309.275L100.065 309.275L100.065 306.845L102.675 306.845L102.675 308.21C102.675 308.39 102.615 308.45 102.42 308.465C102.24 308.465 101.61 308.465 100.89 308.45C101.025 308.705 101.16 309.08 101.205 309.365C102.21 309.365 102.855 309.365 103.245 309.2C103.635 309.035 103.755 308.765 103.755 308.21L103.755 301.565L101.79 301.565C101.49 301.385 101.115 301.19 100.68 300.98C101.805 300.395 102.945 299.615 103.755 298.835L103.05 298.295L102.825 298.355L95.46 298.355ZM102.675 302.435L102.675 303.755L100.065 303.755L100.065 302.435L102.675 302.435ZM96.51 304.595L99.045 304.595L99.045 305.96L96.51 305.96L96.51 304.595ZM96.51 303.755L96.51 302.435L99.045 302.435L99.045 303.755L96.51 303.755ZM102.675 304.595L102.675 305.96L100.065 305.96L100.065 304.595L102.675 304.595ZM113.205 299.105L113.205 311.165L114.3 311.165L114.3 309.98L117.48 309.98L117.48 311L118.62 311L118.62 299.105L113.205 299.105ZM114.3 308.915L114.3 300.17L117.48 300.17L117.48 308.915L114.3 308.915ZM107.355 297.785C107.01 299.63 106.38 301.415 105.495 302.57C105.75 302.735 106.215 303.05 106.41 303.23C106.86 302.585 107.28 301.76 107.625 300.86L108.78 300.86L108.78 303.32L108.78 303.86L105.675 303.86L105.675 304.94L108.705 304.94C108.51 306.935 107.79 309.095 105.51 310.715C105.735 310.88 106.155 311.33 106.29 311.555C108.015 310.325 108.93 308.72 109.41 307.1C110.22 308.03 111.405 309.455 111.915 310.19L112.68 309.23C112.23 308.72 110.4 306.665 109.68 305.96C109.755 305.615 109.8 305.27 109.83 304.94L112.725 304.94L112.725 303.86L109.89 303.86L109.905 303.335L109.905 300.86L112.29 300.86L112.29 299.81L107.985 299.81C108.165 299.225 108.315 298.625 108.45 298.01L107.355 297.785Z"></path></g><g ><path     fill="#7BA8C9"  d="M61.155 318.74L61.155 323.118C61.155 324.779 61.056 326.759 60.33 328.167C60.517 328.277 60.792 328.519 60.924 328.673C61.573 327.54 61.804 326.099 61.881 324.647L63.399 324.647L63.399 328.629L64.158 328.629L64.158 323.899L61.903 323.899L61.914 323.107L61.914 322.304L64.829 322.304L64.829 321.567L63.861 321.567L63.861 318.498L63.102 318.498L63.102 321.567L61.914 321.567L61.914 318.74L61.155 318.74ZM69.372 322.491C69.13 323.745 68.712 324.812 68.173 325.692C67.634 324.768 67.249 323.679 66.996 322.491L69.372 322.491ZM65.313 319.268L65.313 323.063C65.313 324.702 65.214 326.77 64.367 328.233C64.565 328.332 64.884 328.552 65.027 328.695C65.973 327.122 66.105 324.911 66.105 323.063L66.105 322.491L66.336 322.491C66.622 323.965 67.062 325.274 67.7 326.352C67.106 327.089 66.413 327.639 65.654 327.991C65.83 328.145 66.039 328.464 66.149 328.662C66.897 328.277 67.579 327.738 68.162 327.045C68.679 327.727 69.295 328.266 70.032 328.662C70.153 328.453 70.406 328.156 70.593 328.002C69.823 327.639 69.174 327.1 68.646 326.407C69.427 325.252 69.988 323.745 70.252 321.831L69.757 321.699L69.625 321.732L66.105 321.732L66.105 319.928C67.612 319.807 69.251 319.598 70.428 319.312L69.911 318.608C68.8 318.894 66.93 319.136 65.313 319.268ZM76.06 318.531L76.06 320.841L71.715 320.841L71.715 321.677L75.037 321.677C74.234 323.547 72.87 325.329 71.407 326.22C71.605 326.385 71.88 326.682 72.012 326.891C73.607 325.802 75.026 323.833 75.884 321.677L76.06 321.677L76.06 325.747L73.486 325.747L73.486 326.583L76.06 326.583L76.06 328.64L76.929 328.64L76.929 326.583L79.492 326.583L79.492 325.747L76.929 325.747L76.929 321.677L77.083 321.677C77.919 323.833 79.338 325.813 80.966 326.869C81.12 326.638 81.406 326.319 81.615 326.154C80.086 325.274 78.7 323.536 77.908 321.677L81.307 321.677L81.307 320.841L76.929 320.841L76.929 318.531L76.06 318.531ZM84.772 325.142L84.068 325.428C84.442 326.066 84.904 326.572 85.443 326.979C84.772 327.364 83.826 327.683 82.517 327.925C82.693 328.112 82.913 328.464 83.012 328.651C84.442 328.343 85.465 327.936 86.202 327.452C87.72 328.255 89.744 328.508 92.307 328.607C92.351 328.332 92.505 327.98 92.659 327.793C90.195 327.727 88.292 327.562 86.873 326.924C87.445 326.363 87.742 325.725 87.874 325.043L91.603 325.043L91.603 320.786L87.995 320.786L87.995 319.851L92.285 319.851L92.285 319.103L82.715 319.103L82.715 319.851L87.137 319.851L87.137 320.786L83.716 320.786L83.716 325.043L87.005 325.043C86.873 325.571 86.62 326.066 86.114 326.506C85.586 326.154 85.135 325.714 84.772 325.142ZM84.508 323.239L87.137 323.239L87.137 323.679C87.137 323.91 87.137 324.141 87.115 324.361L84.508 324.361L84.508 323.239ZM87.973 324.361C87.984 324.141 87.995 323.921 87.995 323.69L87.995 323.239L90.778 323.239L90.778 324.361L87.973 324.361ZM84.508 321.479L87.137 321.479L87.137 322.579L84.508 322.579L84.508 321.479ZM87.995 321.479L90.778 321.479L90.778 322.579L87.995 322.579L87.995 321.479ZM96.96 325.417C97.29 325.967 97.686 326.715 97.862 327.199L98.445 326.847C98.28 326.385 97.884 325.67 97.521 325.12L96.96 325.417ZM94.485 325.175C94.265 325.846 93.902 326.528 93.451 327.012C93.616 327.111 93.902 327.32 94.034 327.43C94.463 326.913 94.903 326.11 95.156 325.34L94.485 325.175ZM99.083 319.576L99.083 323.36C99.083 324.823 98.995 326.715 98.06 328.035C98.236 328.134 98.566 328.387 98.698 328.541C99.71 327.111 99.853 324.944 99.853 323.36L99.853 323.008L101.525 323.008L101.525 328.585L102.328 328.585L102.328 323.008L103.538 323.008L103.538 322.238L99.853 322.238L99.853 320.126C101.019 319.95 102.273 319.664 103.197 319.323L102.526 318.718C101.734 319.048 100.315 319.378 99.083 319.576ZM95.354 318.663C95.53 318.971 95.706 319.345 95.838 319.675L93.671 319.675L93.671 320.368L98.533 320.368L98.533 319.675L96.696 319.675C96.553 319.312 96.311 318.839 96.102 318.476L95.354 318.663ZM97.147 320.423C97.015 320.929 96.762 321.677 96.553 322.183L93.506 322.183L93.506 322.887L95.761 322.887L95.761 324.031L93.55 324.031L93.55 324.757L95.761 324.757L95.761 327.562C95.761 327.672 95.739 327.705 95.629 327.705C95.508 327.716 95.167 327.716 94.782 327.705C94.892 327.903 95.002 328.211 95.024 328.409C95.563 328.409 95.937 328.398 96.19 328.277C96.443 328.156 96.52 327.958 96.52 327.573L96.52 324.757L98.577 324.757L98.577 324.031L96.52 324.031L96.52 322.887L98.709 322.887L98.709 322.183L97.301 322.183C97.51 321.721 97.719 321.127 97.917 320.588L97.147 320.423ZM94.386 320.599C94.606 321.094 94.771 321.754 94.815 322.183L95.53 321.985C95.475 321.567 95.288 320.918 95.057 320.445L94.386 320.599ZM107.003 328.376L107.751 327.738C107.069 326.935 106.079 325.934 105.287 325.296L104.572 325.923C105.353 326.561 106.299 327.507 107.003 328.376ZM116.001 319.246C116.672 319.609 117.596 320.137 118.058 320.478L118.542 319.796C118.069 319.488 117.134 318.982 116.463 318.663L116.001 319.246ZM115.462 322.271C116.133 322.634 117.046 323.162 117.497 323.47L117.959 322.788C117.486 322.48 116.562 321.985 115.913 321.666L115.462 322.271ZM115.715 327.936L116.419 328.497C117.068 327.474 117.838 326.099 118.421 324.933L117.816 324.394C117.178 325.637 116.309 327.089 115.715 327.936ZM118.52 321.743L118.52 322.535L121.699 322.535L121.699 324.361L119.312 324.361L119.312 328.629L120.082 328.629L120.082 328.156L124.009 328.156L124.009 328.574L124.801 328.574L124.801 324.361L122.48 324.361L122.48 322.535L125.527 322.535L125.527 321.743L122.48 321.743L122.48 319.818C123.437 319.653 124.328 319.444 125.054 319.202L124.394 318.564C123.173 318.993 120.94 319.345 119.037 319.543C119.125 319.73 119.235 320.049 119.279 320.247C120.06 320.17 120.885 320.071 121.699 319.95L121.699 321.743L118.52 321.743ZM120.082 327.408L120.082 325.12L124.009 325.12L124.009 327.408L120.082 327.408ZM126.979 319.422L126.979 320.159L131.236 320.159L131.236 319.422L126.979 319.422ZM133.183 318.707C133.183 319.488 133.183 320.28 133.15 321.061L131.577 321.061L131.577 321.853L133.117 321.853C132.985 324.361 132.545 326.66 131.038 328.035C131.258 328.156 131.544 328.431 131.687 328.629C133.304 327.089 133.777 324.581 133.931 321.853L135.57 321.853C135.449 325.758 135.306 327.221 135.009 327.551C134.899 327.683 134.778 327.716 134.58 327.716C134.349 327.716 133.766 327.716 133.15 327.65C133.293 327.892 133.381 328.233 133.403 328.464C133.986 328.508 134.591 328.508 134.932 328.475C135.284 328.442 135.504 328.343 135.724 328.057C136.109 327.573 136.241 326.011 136.395 321.479C136.395 321.358 136.395 321.061 136.395 321.061L133.964 321.061C133.986 320.28 133.997 319.488 133.997 318.707L133.183 318.707ZM126.979 327.276L126.99 327.265L126.99 327.287C127.243 327.133 127.639 327.012 130.697 326.319L130.906 327.056L131.632 326.814C131.423 326.044 130.928 324.735 130.51 323.745L129.828 323.932C130.048 324.449 130.268 325.054 130.466 325.626L127.848 326.176C128.277 325.186 128.695 323.954 128.97 322.799L131.434 322.799L131.434 322.04L126.594 322.04L126.594 322.799L128.123 322.799C127.837 324.086 127.375 325.384 127.221 325.747C127.034 326.165 126.891 326.462 126.715 326.517C126.814 326.715 126.935 327.111 126.979 327.276ZM144.051 318.883C144.359 319.378 144.678 320.049 144.832 320.489L142.632 320.489C142.885 319.939 143.116 319.356 143.303 318.784L142.522 318.586C142.027 320.214 141.191 321.809 140.223 322.832C140.377 322.953 140.619 323.195 140.762 323.349L139.662 323.69L139.662 321.479L140.894 321.479L140.894 320.709L139.662 320.709L139.662 318.531L138.859 318.531L138.859 320.709L137.44 320.709L137.44 321.479L138.859 321.479L138.859 323.932L137.352 324.383L137.561 325.186L138.859 324.768L138.859 327.628C138.859 327.782 138.793 327.826 138.661 327.826C138.529 327.837 138.1 327.837 137.627 327.815C137.737 328.057 137.847 328.409 137.869 328.618C138.573 328.618 139.002 328.596 139.277 328.453C139.552 328.321 139.662 328.09 139.662 327.628L139.662 324.504L140.916 324.097L140.806 323.393L140.839 323.426C141.147 323.063 141.455 322.645 141.741 322.183L141.741 328.64L142.533 328.64L142.533 327.881L147.494 327.881L147.494 327.111L145.173 327.111L145.173 325.615L147.098 325.615L147.098 324.878L145.173 324.878L145.173 323.426L147.109 323.426L147.109 322.689L145.173 322.689L145.173 321.248L147.274 321.248L147.274 320.489L144.942 320.489L145.58 320.214C145.437 319.774 145.096 319.114 144.766 318.608L144.051 318.883ZM142.533 323.426L144.392 323.426L144.392 324.878L142.533 324.878L142.533 323.426ZM142.533 322.689L142.533 321.248L144.392 321.248L144.392 322.689L142.533 322.689ZM142.533 325.615L144.392 325.615L144.392 327.111L142.533 327.111L142.533 325.615ZM152.51 318.828C152.851 319.367 153.258 320.104 153.445 320.544L154.182 320.214C153.973 319.796 153.544 319.081 153.203 318.553L152.51 318.828ZM148.858 319.037C149.441 319.653 150.145 320.511 150.475 321.05L151.168 320.588C150.827 320.06 150.101 319.235 149.518 318.641L148.858 319.037ZM156.668 318.52C156.415 319.136 155.986 319.983 155.601 320.577L151.872 320.577L151.872 321.336L154.457 321.336L154.457 322.612L154.446 322.931L151.509 322.931L151.509 323.701L154.358 323.701C154.138 324.658 153.489 325.692 151.575 326.473C151.762 326.627 152.026 326.924 152.136 327.1C153.764 326.363 154.567 325.439 154.952 324.515C155.865 325.373 156.877 326.385 157.405 327.023L157.999 326.451C157.383 325.758 156.162 324.625 155.194 323.734L155.194 323.701L158.406 323.701L158.406 322.931L155.282 322.931L155.293 322.623L155.293 321.336L158.076 321.336L158.076 320.577L156.448 320.577C156.8 320.038 157.185 319.378 157.504 318.795L156.668 318.52ZM150.728 322.249L148.539 322.249L148.539 323.019L149.936 323.019L149.936 326.473C149.441 326.649 148.869 327.177 148.275 327.859L148.88 328.651C149.397 327.881 149.903 327.188 150.244 327.188C150.475 327.188 150.86 327.584 151.322 327.892C152.114 328.398 153.049 328.508 154.49 328.508C155.601 328.508 157.658 328.442 158.439 328.398C158.45 328.134 158.593 327.705 158.692 327.474C157.581 327.595 155.876 327.694 154.523 327.694C153.225 327.694 152.257 327.617 151.52 327.155C151.168 326.935 150.926 326.726 150.728 326.594L150.728 322.249Z"></path></g><rect  x="290" y="300" width="44" height="24" rx="12"    fill="#E8F0F8" ></rect><circle cx="306" cy="312" r="10"   fill="#FFFFFF" ></circle><g opacity="0.9"><rect  x="40" y="350" width="310" height="60" rx="14"    fill="#FFFFFF" ></rect></g><g ><path     fill="#2C5F8A"  d="M64.665 374.25L70.47 374.25L70.47 375.585L64.665 375.585L64.665 374.25ZM63.6 373.44L63.6 376.395L71.58 376.395L71.58 373.44L63.6 373.44ZM61.35 371.565L61.35 374.475L62.4 374.475L62.4 372.465L72.69 372.465L72.69 374.475L73.77 374.475L73.77 371.565L61.35 371.565ZM62.535 377.355L62.535 381.645L63.615 381.645L63.615 381.06L71.61 381.06L71.61 381.615L72.72 381.615L72.72 377.355L62.535 377.355ZM63.615 380.115L63.615 378.345L71.61 378.345L71.61 380.115L63.615 380.115ZM69.585 367.8L69.585 369.06L65.34 369.06L65.34 367.8L64.245 367.8L64.245 369.06L60.93 369.06L60.93 370.08L64.245 370.08L64.245 371.13L65.34 371.13L65.34 370.08L69.585 370.08L69.585 371.13L70.71 371.13L70.71 370.08L74.115 370.08L74.115 369.06L70.71 369.06L70.71 367.8L69.585 367.8ZM81.57 368.745C82.155 369.615 82.77 370.785 82.995 371.52L83.94 371.04C83.685 370.29 83.055 369.165 82.455 368.325L81.57 368.745ZM88.305 368.22C87.93 369.105 87.255 370.335 86.745 371.07L87.6 371.475C88.125 370.755 88.785 369.645 89.295 368.655L88.305 368.22ZM77.67 367.845C77.22 369.225 76.455 370.545 75.555 371.445C75.75 371.67 76.035 372.225 76.125 372.45C76.605 371.955 77.055 371.34 77.46 370.665L81.15 370.665L81.15 369.6L78.045 369.6C78.27 369.12 78.48 368.625 78.645 368.13L77.67 367.845ZM75.93 375.24L75.93 376.275L78.09 376.275L78.09 379.245C78.09 379.89 77.625 380.31 77.37 380.46C77.55 380.685 77.82 381.15 77.91 381.405C78.135 381.165 78.54 380.91 81.06 379.5C80.985 379.275 80.88 378.84 80.85 378.54L79.125 379.44L79.125 376.275L81.225 376.275L81.225 375.24L79.125 375.24L79.125 373.215L80.895 373.215L80.895 372.195L76.59 372.195L76.59 373.215L78.09 373.215L78.09 375.24L75.93 375.24ZM82.8 375.72L87.825 375.72L87.825 377.355L82.8 377.355L82.8 375.72ZM82.8 374.745L82.8 373.14L87.825 373.14L87.825 374.745L82.8 374.745ZM84.84 367.785L84.84 372.09L81.78 372.09L81.78 381.6L82.8 381.6L82.8 378.315L87.825 378.315L87.825 380.175C87.825 380.385 87.75 380.445 87.54 380.445C87.315 380.46 86.55 380.46 85.71 380.445C85.875 380.715 86.01 381.18 86.055 381.465C87.195 381.465 87.9 381.465 88.305 381.27C88.725 381.105 88.86 380.775 88.86 380.19L88.86 372.075L87.825 372.09L85.89 372.09L85.89 367.785L84.84 367.785ZM90.975 369.045C91.86 369.825 93 370.92 93.525 371.625L94.35 370.875C93.795 370.185 92.64 369.135 91.755 368.4L90.975 369.045ZM93.84 373.425L90.645 373.425L90.645 374.49L92.76 374.49L92.76 378.75C92.1 379.02 91.35 379.695 90.585 380.52L91.29 381.45C92.055 380.43 92.79 379.56 93.3 379.56C93.645 379.56 94.155 380.07 94.77 380.445C95.82 381.075 97.065 381.255 98.925 381.255C100.545 381.255 103.17 381.18 104.22 381.105C104.235 380.805 104.415 380.295 104.535 380.01C102.99 380.16 100.71 380.28 98.94 380.28C97.275 380.28 96 380.175 94.995 379.56C94.47 379.215 94.14 378.945 93.84 378.78L93.84 373.425ZM95.46 368.355L95.46 369.24L101.805 369.24C101.19 369.705 100.425 370.17 99.675 370.53C98.94 370.2 98.16 369.885 97.485 369.645L96.765 370.29C97.695 370.635 98.79 371.115 99.705 371.565L95.445 371.565L95.445 379.335L96.51 379.335L96.51 376.845L99.045 376.845L99.045 379.275L100.065 379.275L100.065 376.845L102.675 376.845L102.675 378.21C102.675 378.39 102.615 378.45 102.42 378.465C102.24 378.465 101.61 378.465 100.89 378.45C101.025 378.705 101.16 379.08 101.205 379.365C102.21 379.365 102.855 379.365 103.245 379.2C103.635 379.035 103.755 378.765 103.755 378.21L103.755 371.565L101.79 371.565C101.49 371.385 101.115 371.19 100.68 370.98C101.805 370.395 102.945 369.615 103.755 368.835L103.05 368.295L102.825 368.355L95.46 368.355ZM102.675 372.435L102.675 373.755L100.065 373.755L100.065 372.435L102.675 372.435ZM96.51 374.595L99.045 374.595L99.045 375.96L96.51 375.96L96.51 374.595ZM96.51 373.755L96.51 372.435L99.045 372.435L99.045 373.755L96.51 373.755ZM102.675 374.595L102.675 375.96L100.065 375.96L100.065 374.595L102.675 374.595ZM113.205 369.105L113.205 381.165L114.3 381.165L114.3 379.98L117.48 379.98L117.48 381L118.62 381L118.62 369.105L113.205 369.105ZM114.3 378.915L114.3 370.17L117.48 370.17L117.48 378.915L114.3 378.915ZM107.355 367.785C107.01 369.63 106.38 371.415 105.495 372.57C105.75 372.735 106.215 373.05 106.41 373.23C106.86 372.585 107.28 371.76 107.625 370.86L108.78 370.86L108.78 373.32L108.78 373.86L105.675 373.86L105.675 374.94L108.705 374.94C108.51 376.935 107.79 379.095 105.51 380.715C105.735 380.88 106.155 381.33 106.29 381.555C108.015 380.325 108.93 378.72 109.41 377.1C110.22 378.03 111.405 379.455 111.915 380.19L112.68 379.23C112.23 378.72 110.4 376.665 109.68 375.96C109.755 375.615 109.8 375.27 109.83 374.94L112.725 374.94L112.725 373.86L109.89 373.86L109.905 373.335L109.905 370.86L112.29 370.86L112.29 369.81L107.985 369.81C108.165 369.225 108.315 368.625 108.45 368.01L107.355 367.785Z"></path></g><g ><path     fill="#7BA8C9"  d="M61.727 398.398C62.145 398.244 62.761 398.2 68.591 397.705C68.844 398.035 69.064 398.354 69.218 398.629L69.955 398.178C69.471 397.353 68.426 396.165 67.436 395.285L66.743 395.659C67.172 396.055 67.612 396.517 68.008 396.979L63.003 397.364C63.784 396.638 64.565 395.758 65.247 394.856L70.098 394.856L70.098 394.053L60.979 394.053L60.979 394.856L64.125 394.856C63.41 395.835 62.574 396.704 62.277 396.968C61.936 397.287 61.683 397.496 61.441 397.551C61.54 397.771 61.683 398.211 61.727 398.398ZM65.544 388.52C64.554 389.994 62.618 391.391 60.462 392.304C60.66 392.458 60.946 392.81 61.067 393.019C61.705 392.722 62.321 392.392 62.904 392.029L62.904 392.7L68.151 392.7L68.151 391.93L63.047 391.93C63.993 391.314 64.84 390.621 65.533 389.862C66.193 390.544 67.117 391.292 68.151 391.93C68.745 392.304 69.383 392.634 70.01 392.887C70.142 392.667 70.417 392.326 70.593 392.161C68.811 391.545 67.018 390.346 66.006 389.301L66.336 388.861L65.544 388.52ZM73.948 389.73L79.085 389.73L79.085 390.984L73.948 390.984L73.948 389.73ZM73.09 389.015L73.09 391.699L79.987 391.699L79.987 389.015L73.09 389.015ZM76.005 394.163L76.005 395.175C76.005 396.044 75.697 397.221 71.726 398.002C71.913 398.178 72.166 398.497 72.265 398.684C76.379 397.76 76.885 396.341 76.885 395.186L76.885 394.163L76.005 394.163ZM76.819 397.045C78.161 397.507 79.965 398.222 80.878 398.684L81.296 397.98C80.35 397.529 78.535 396.858 77.226 396.44L76.819 397.045ZM72.705 392.689L72.705 396.748L73.552 396.748L73.552 393.459L79.536 393.459L79.536 396.671L80.416 396.671L80.416 392.689L72.705 392.689ZM83.001 389.246C83.672 389.609 84.596 390.137 85.058 390.478L85.542 389.796C85.069 389.488 84.134 388.982 83.463 388.663L83.001 389.246ZM82.462 392.271C83.133 392.634 84.046 393.162 84.497 393.47L84.959 392.788C84.486 392.48 83.562 391.985 82.913 391.666L82.462 392.271ZM82.715 397.936L83.419 398.497C84.068 397.474 84.838 396.099 85.421 394.933L84.816 394.394C84.178 395.637 83.309 397.089 82.715 397.936ZM85.52 391.743L85.52 392.535L88.699 392.535L88.699 394.361L86.312 394.361L86.312 398.629L87.082 398.629L87.082 398.156L91.009 398.156L91.009 398.574L91.801 398.574L91.801 394.361L89.48 394.361L89.48 392.535L92.527 392.535L92.527 391.743L89.48 391.743L89.48 389.818C90.437 389.653 91.328 389.444 92.054 389.202L91.394 388.564C90.173 388.993 87.94 389.345 86.037 389.543C86.125 389.73 86.235 390.049 86.279 390.247C87.06 390.17 87.885 390.071 88.699 389.95L88.699 391.743L85.52 391.743ZM87.082 397.408L87.082 395.12L91.009 395.12L91.009 397.408L87.082 397.408ZM93.979 389.422L93.979 390.159L98.236 390.159L98.236 389.422L93.979 389.422ZM100.183 388.707C100.183 389.488 100.183 390.28 100.15 391.061L98.577 391.061L98.577 391.853L100.117 391.853C99.985 394.361 99.545 396.66 98.038 398.035C98.258 398.156 98.544 398.431 98.687 398.629C100.304 397.089 100.777 394.581 100.931 391.853L102.57 391.853C102.449 395.758 102.306 397.221 102.009 397.551C101.899 397.683 101.778 397.716 101.58 397.716C101.349 397.716 100.766 397.716 100.15 397.65C100.293 397.892 100.381 398.233 100.403 398.464C100.986 398.508 101.591 398.508 101.932 398.475C102.284 398.442 102.504 398.343 102.724 398.057C103.109 397.573 103.241 396.011 103.395 391.479C103.395 391.358 103.395 391.061 103.395 391.061L100.964 391.061C100.986 390.28 100.997 389.488 100.997 388.707L100.183 388.707ZM93.979 397.276L93.99 397.265L93.99 397.287C94.243 397.133 94.639 397.012 97.697 396.319L97.906 397.056L98.632 396.814C98.423 396.044 97.928 394.735 97.51 393.745L96.828 393.932C97.048 394.449 97.268 395.054 97.466 395.626L94.848 396.176C95.277 395.186 95.695 393.954 95.97 392.799L98.434 392.799L98.434 392.04L93.594 392.04L93.594 392.799L95.123 392.799C94.837 394.086 94.375 395.384 94.221 395.747C94.034 396.165 93.891 396.462 93.715 396.517C93.814 396.715 93.935 397.111 93.979 397.276ZM107.003 398.376L107.751 397.738C107.069 396.935 106.079 395.934 105.287 395.296L104.572 395.923C105.353 396.561 106.299 397.507 107.003 398.376ZM122.018 392.777L122.018 397.177C122.018 398.079 122.238 398.343 123.107 398.343C123.294 398.343 124.207 398.343 124.394 398.343C125.197 398.343 125.406 397.881 125.483 396.22C125.263 396.165 124.922 396.022 124.746 395.879C124.713 397.331 124.658 397.584 124.328 397.584C124.119 397.584 123.371 397.584 123.206 397.584C122.876 397.584 122.821 397.507 122.821 397.177L122.821 392.777L122.018 392.777ZM122.689 389.202C123.228 389.719 123.877 390.445 124.174 390.896L124.779 390.434C124.46 389.983 123.8 389.29 123.261 388.806L122.689 389.202ZM120.731 388.652C120.731 389.477 120.72 390.313 120.687 391.127L118.201 391.127L118.201 391.919L120.643 391.919C120.467 394.405 119.906 396.671 118.025 397.991C118.234 398.134 118.498 398.398 118.63 398.596C120.654 397.133 121.27 394.636 121.468 391.919L125.45 391.919L125.45 391.127L121.512 391.127C121.545 390.302 121.556 389.477 121.556 388.652L120.731 388.652ZM117.981 388.542C117.398 390.214 116.43 391.864 115.407 392.931C115.561 393.129 115.803 393.558 115.88 393.756C116.199 393.404 116.518 393.008 116.815 392.579L116.815 398.64L117.607 398.64L117.607 391.303C118.058 390.5 118.443 389.642 118.762 388.784L117.981 388.542ZM128.893 395.901L128.893 397.463C128.893 398.288 129.223 398.486 130.477 398.486C130.752 398.486 132.71 398.486 132.985 398.486C133.986 398.486 134.239 398.2 134.349 396.957C134.129 396.913 133.81 396.803 133.612 396.682C133.568 397.661 133.469 397.793 132.93 397.793C132.49 397.793 130.84 397.793 130.521 397.793C129.828 397.793 129.707 397.738 129.707 397.452L129.707 395.901L128.893 395.901ZM130.466 395.78C131.137 396.121 131.929 396.66 132.303 397.045L132.853 396.539C132.457 396.154 131.654 395.648 130.994 395.318L130.466 395.78ZM134.294 396.121C134.811 396.77 135.35 397.65 135.559 398.222L136.307 397.947C136.098 397.364 135.526 396.506 134.998 395.868L134.294 396.121ZM127.606 395.857C127.397 396.517 127.012 397.386 126.572 397.903L127.276 398.31C127.716 397.727 128.079 396.836 128.31 396.143L127.606 395.857ZM126.836 394.559L126.869 395.285C128.893 395.263 132.006 395.208 134.965 395.142C135.251 395.351 135.515 395.571 135.702 395.758L136.252 395.285C135.702 394.757 134.624 394.075 133.678 393.679L135.394 393.679L135.394 390.599L131.863 390.599L131.863 389.884L136.153 389.884L136.153 389.202L131.863 389.202L131.863 388.531L131.016 388.531L131.016 389.202L126.836 389.202L126.836 389.884L131.016 389.884L131.016 390.599L127.584 390.599L127.584 393.679L131.016 393.679L131.016 394.537L126.836 394.559ZM128.365 392.392L131.016 392.392L131.016 393.118L128.365 393.118L128.365 392.392ZM131.863 392.392L134.58 392.392L134.58 393.118L131.863 393.118L131.863 392.392ZM128.365 391.138L131.016 391.138L131.016 391.864L128.365 391.864L128.365 391.138ZM131.863 391.138L134.58 391.138L134.58 391.864L131.863 391.864L131.863 391.138ZM133.051 394.064C133.348 394.185 133.667 394.339 133.964 394.504L131.863 394.526L131.863 393.679L133.557 393.679L133.051 394.064ZM141.202 391.919L141.202 392.601L146.559 392.601L146.559 391.919L141.202 391.919ZM141.202 393.481L141.202 394.152L146.559 394.152L146.559 393.481L141.202 393.481ZM140.41 390.335L140.41 391.039L147.417 391.039L147.417 390.335L140.41 390.335ZM142.951 388.795C143.248 389.257 143.578 389.884 143.732 390.28L144.469 389.95C144.315 389.565 143.985 388.971 143.666 388.52L142.951 388.795ZM141.059 395.087L141.059 398.64L141.774 398.64L141.774 398.2L145.921 398.2L145.921 398.607L146.669 398.607L146.669 395.087L141.059 395.087ZM141.774 397.518L141.774 395.769L145.921 395.769L145.921 397.518L141.774 397.518ZM139.816 388.564C139.255 390.225 138.342 391.875 137.352 392.953C137.495 393.14 137.737 393.547 137.814 393.723C138.177 393.316 138.529 392.832 138.859 392.315L138.859 398.673L139.618 398.673L139.618 390.984C139.981 390.28 140.3 389.532 140.553 388.784L139.816 388.564ZM150.926 391.71L156.03 391.71L156.03 392.59L150.926 392.59L150.926 391.71ZM150.926 393.228L156.03 393.228L156.03 394.119L150.926 394.119L150.926 393.228ZM150.926 390.203L156.03 390.203L156.03 391.083L150.926 391.083L150.926 390.203ZM150.882 395.538L150.882 397.331C150.882 398.211 151.223 398.442 152.499 398.442C152.763 398.442 154.754 398.442 155.029 398.442C156.096 398.442 156.371 398.112 156.481 396.704C156.25 396.66 155.898 396.539 155.711 396.407C155.656 397.529 155.568 397.683 154.974 397.683C154.534 397.683 152.873 397.683 152.543 397.683C151.839 397.683 151.707 397.628 151.707 397.32L151.707 395.538L150.882 395.538ZM156.393 395.648C156.899 396.341 157.427 397.287 157.614 397.892L158.395 397.54C158.186 396.935 157.647 396.011 157.13 395.34L156.393 395.648ZM149.628 395.516C149.364 396.209 148.935 397.155 148.495 397.76L149.254 398.123C149.661 397.485 150.057 396.517 150.332 395.824L149.628 395.516ZM152.609 395.12C153.17 395.637 153.808 396.374 154.083 396.869L154.754 396.451C154.457 395.978 153.83 395.274 153.258 394.779L156.855 394.779L156.855 389.543L153.566 389.543C153.731 389.257 153.918 388.916 154.083 388.575L153.115 388.41C153.027 388.729 152.851 389.18 152.708 389.543L150.134 389.543L150.134 394.779L153.203 394.779L152.609 395.12Z"></path></g><rect  x="290" y="370" width="44" height="24" rx="12"    fill="#E8F0F8" ></rect><circle cx="306" cy="382" r="10"   fill="#FFFFFF" ></circle></g><defs><clipPath id="clip-path-qaoUcX8DiNKyCSRz-UvhZ"><path d="M0 844L390 844L390 0L0 0L0 844Z" fill="white"/></clipPath></defs></svg>